<svg width="1467" height="437" viewBox="0 0 1467 437" fill="none" xmlns="http://www.w3.org/2000/svg">
<path d="M672.409 165.161C671.351 165.161 670.415 164.977 669.603 164.609C668.805 164.241 668.177 163.727 667.717 163.068C667.257 162.409 667.011 161.673 666.981 160.86H668.683C668.759 161.642 669.104 162.332 669.718 162.93C670.331 163.513 671.228 163.804 672.409 163.804C673.497 163.804 674.356 163.528 674.985 162.976C675.629 162.409 675.951 161.696 675.951 160.837C675.951 160.147 675.774 159.595 675.422 159.181C675.069 158.752 674.632 158.437 674.111 158.238C673.589 158.023 672.869 157.793 671.949 157.548C670.875 157.257 670.024 156.973 669.396 156.697C668.767 156.421 668.23 155.992 667.786 155.409C667.341 154.826 667.119 154.037 667.119 153.04C667.119 152.212 667.333 151.476 667.763 150.832C668.192 150.173 668.798 149.659 669.58 149.291C670.362 148.923 671.259 148.739 672.271 148.739C673.758 148.739 674.954 149.107 675.859 149.843C676.779 150.564 677.308 151.499 677.446 152.649H675.698C675.59 151.99 675.23 151.407 674.617 150.901C674.003 150.38 673.175 150.119 672.133 150.119C671.167 150.119 670.362 150.38 669.718 150.901C669.074 151.407 668.752 152.105 668.752 152.994C668.752 153.669 668.928 154.213 669.281 154.627C669.633 155.041 670.07 155.355 670.592 155.57C671.128 155.785 671.849 156.015 672.754 156.26C673.796 156.551 674.64 156.843 675.284 157.134C675.928 157.41 676.472 157.839 676.917 158.422C677.361 159.005 677.584 159.787 677.584 160.768C677.584 161.519 677.384 162.232 676.986 162.907C676.587 163.582 675.997 164.126 675.215 164.54C674.433 164.954 673.497 165.161 672.409 165.161ZM683.202 155.202C683.6 154.359 684.229 153.661 685.088 153.109C685.962 152.542 686.997 152.258 688.193 152.258C689.327 152.258 690.347 152.526 691.252 153.063C692.172 153.584 692.885 154.336 693.391 155.317C693.912 156.283 694.173 157.41 694.173 158.698C694.173 159.986 693.912 161.121 693.391 162.102C692.885 163.083 692.172 163.842 691.252 164.379C690.347 164.916 689.327 165.184 688.193 165.184C687.012 165.184 685.985 164.908 685.111 164.356C684.237 163.789 683.6 163.083 683.202 162.24V170.934H681.615V152.442H683.202V155.202ZM692.54 158.698C692.54 157.655 692.333 156.758 691.919 156.007C691.52 155.24 690.968 154.658 690.263 154.259C689.557 153.86 688.76 153.661 687.871 153.661C687.012 153.661 686.222 153.868 685.502 154.282C684.796 154.696 684.237 155.286 683.823 156.053C683.409 156.82 683.202 157.709 683.202 158.721C683.202 159.733 683.409 160.622 683.823 161.389C684.237 162.156 684.796 162.746 685.502 163.16C686.222 163.574 687.012 163.781 687.871 163.781C688.76 163.781 689.557 163.582 690.263 163.183C690.968 162.769 691.52 162.179 691.919 161.412C692.333 160.63 692.54 159.725 692.54 158.698ZM699.665 154.673C700.018 153.891 700.555 153.285 701.275 152.856C702.011 152.427 702.908 152.212 703.966 152.212V153.891H703.529C702.364 153.891 701.429 154.205 700.723 154.834C700.018 155.463 699.665 156.513 699.665 157.985V165H698.055V152.442H699.665V154.673ZM708.113 150.073C707.791 150.073 707.515 149.958 707.285 149.728C707.055 149.498 706.94 149.214 706.94 148.877C706.94 148.54 707.055 148.264 707.285 148.049C707.515 147.819 707.791 147.704 708.113 147.704C708.435 147.704 708.711 147.819 708.941 148.049C709.171 148.264 709.286 148.54 709.286 148.877C709.286 149.214 709.171 149.498 708.941 149.728C708.711 149.958 708.435 150.073 708.113 150.073ZM708.918 152.442V165H707.308V152.442H708.918ZM719.372 152.212C720.875 152.212 722.102 152.68 723.052 153.615C724.003 154.535 724.478 155.877 724.478 157.64V165H722.891V157.824C722.891 156.459 722.546 155.417 721.856 154.696C721.182 153.975 720.254 153.615 719.073 153.615C717.862 153.615 716.896 153.998 716.175 154.765C715.455 155.532 715.094 156.659 715.094 158.146V165H713.484V152.442H715.094V154.581C715.493 153.814 716.068 153.232 716.819 152.833C717.571 152.419 718.422 152.212 719.372 152.212ZM731.052 153.799V161.596C731.052 162.363 731.198 162.892 731.489 163.183C731.78 163.474 732.294 163.62 733.03 163.62H734.502V165H732.777C731.642 165 730.799 164.739 730.247 164.218C729.695 163.681 729.419 162.807 729.419 161.596V153.799H727.671V152.442H729.419V149.291H731.052V152.442H734.502V153.799H731.052ZM623.527 180.234V186.237H629.622V187.571H623.527V193.666H630.312V195H621.917V178.9H630.312V180.234H623.527ZM640.983 195L637.74 189.94L634.612 195H632.91L636.958 188.721L632.956 182.442H634.773L637.97 187.433L641.075 182.442H642.754L638.752 188.652L642.8 195H640.983ZM657.266 188.077C657.266 188.629 657.25 189.051 657.22 189.342H646.801C646.847 190.293 647.077 191.105 647.491 191.78C647.905 192.455 648.449 192.968 649.124 193.321C649.798 193.658 650.534 193.827 651.332 193.827C652.374 193.827 653.248 193.574 653.954 193.068C654.674 192.562 655.15 191.88 655.38 191.021H657.082C656.775 192.248 656.116 193.252 655.104 194.034C654.107 194.801 652.85 195.184 651.332 195.184C650.151 195.184 649.093 194.923 648.158 194.402C647.222 193.865 646.486 193.114 645.95 192.148C645.428 191.167 645.168 190.024 645.168 188.721C645.168 187.418 645.428 186.275 645.95 185.294C646.471 184.313 647.199 183.561 648.135 183.04C649.07 182.519 650.136 182.258 651.332 182.258C652.528 182.258 653.57 182.519 654.46 183.04C655.364 183.561 656.054 184.267 656.53 185.156C657.02 186.03 657.266 187.004 657.266 188.077ZM655.633 188.031C655.648 187.096 655.456 186.298 655.058 185.639C654.674 184.98 654.145 184.481 653.471 184.144C652.796 183.807 652.06 183.638 651.263 183.638C650.067 183.638 649.047 184.021 648.204 184.788C647.36 185.555 646.893 186.636 646.801 188.031H655.633ZM660.395 188.721C660.395 187.418 660.656 186.283 661.177 185.317C661.699 184.336 662.419 183.584 663.339 183.063C664.259 182.526 665.31 182.258 666.49 182.258C668.039 182.258 669.312 182.641 670.308 183.408C671.32 184.175 671.972 185.217 672.263 186.536H670.538C670.324 185.631 669.856 184.926 669.135 184.42C668.43 183.899 667.548 183.638 666.49 183.638C665.647 183.638 664.888 183.83 664.213 184.213C663.539 184.596 663.002 185.171 662.603 185.938C662.22 186.689 662.028 187.617 662.028 188.721C662.028 189.825 662.22 190.76 662.603 191.527C663.002 192.294 663.539 192.869 664.213 193.252C664.888 193.635 665.647 193.827 666.49 193.827C667.548 193.827 668.43 193.574 669.135 193.068C669.856 192.547 670.324 191.826 670.538 190.906H672.263C671.972 192.194 671.32 193.229 670.308 194.011C669.296 194.793 668.024 195.184 666.49 195.184C665.31 195.184 664.259 194.923 663.339 194.402C662.419 193.865 661.699 193.114 661.177 192.148C660.656 191.167 660.395 190.024 660.395 188.721ZM687.036 182.442V195H685.426V192.792C685.058 193.574 684.49 194.172 683.724 194.586C682.957 195 682.098 195.207 681.148 195.207C679.645 195.207 678.418 194.747 677.468 193.827C676.517 192.892 676.042 191.542 676.042 189.779V182.442H677.629V189.595C677.629 190.96 677.966 192.002 678.641 192.723C679.331 193.444 680.266 193.804 681.447 193.804C682.658 193.804 683.624 193.421 684.345 192.654C685.065 191.887 685.426 190.76 685.426 189.273V182.442H687.036ZM693.724 183.799V191.596C693.724 192.363 693.87 192.892 694.161 193.183C694.453 193.474 694.966 193.62 695.702 193.62H697.174V195H695.449C694.315 195 693.471 194.739 692.919 194.218C692.367 193.681 692.091 192.807 692.091 191.596V183.799H690.343V182.442H692.091V179.291H693.724V182.442H697.174V183.799H693.724ZM701.555 180.073C701.233 180.073 700.957 179.958 700.727 179.728C700.497 179.498 700.382 179.214 700.382 178.877C700.382 178.54 700.497 178.264 700.727 178.049C700.957 177.819 701.233 177.704 701.555 177.704C701.877 177.704 702.153 177.819 702.383 178.049C702.613 178.264 702.728 178.54 702.728 178.877C702.728 179.214 702.613 179.498 702.383 179.728C702.153 179.958 701.877 180.073 701.555 180.073ZM702.36 182.442V195H700.75V182.442H702.36ZM712.423 195.184C711.242 195.184 710.176 194.923 709.226 194.402C708.29 193.865 707.547 193.114 706.995 192.148C706.458 191.167 706.19 190.024 706.19 188.721C706.19 187.418 706.466 186.283 707.018 185.317C707.57 184.336 708.321 183.584 709.272 183.063C710.222 182.526 711.288 182.258 712.469 182.258C713.649 182.258 714.715 182.526 715.666 183.063C716.632 183.584 717.383 184.336 717.92 185.317C718.472 186.283 718.748 187.418 718.748 188.721C718.748 190.009 718.472 191.144 717.92 192.125C717.368 193.106 716.609 193.865 715.643 194.402C714.677 194.923 713.603 195.184 712.423 195.184ZM712.423 193.781C713.251 193.781 714.017 193.597 714.723 193.229C715.428 192.846 715.995 192.278 716.425 191.527C716.869 190.76 717.092 189.825 717.092 188.721C717.092 187.617 716.877 186.689 716.448 185.938C716.018 185.171 715.451 184.604 714.746 184.236C714.04 183.853 713.274 183.661 712.446 183.661C711.618 183.661 710.851 183.853 710.146 184.236C709.44 184.604 708.873 185.171 708.444 185.938C708.03 186.689 707.823 187.617 707.823 188.721C707.823 189.825 708.03 190.76 708.444 191.527C708.873 192.278 709.433 192.846 710.123 193.229C710.828 193.597 711.595 193.781 712.423 193.781ZM728.49 182.212C729.993 182.212 731.22 182.68 732.17 183.615C733.121 184.535 733.596 185.877 733.596 187.64V195H732.009V187.824C732.009 186.459 731.664 185.417 730.974 184.696C730.3 183.975 729.372 183.615 728.191 183.615C726.98 183.615 726.014 183.998 725.293 184.765C724.573 185.532 724.212 186.659 724.212 188.146V195H722.602V182.442H724.212V184.581C724.611 183.814 725.186 183.232 725.937 182.833C726.689 182.419 727.54 182.212 728.49 182.212Z" fill="#1CBBDA"/>
<path d="M751.349 174.528C751.349 171.299 751.891 168.779 752.973 166.968C754.075 165.139 755.96 164.224 758.629 164.224C761.299 164.224 763.175 165.139 764.257 166.968C765.359 168.779 765.909 171.299 765.909 174.528C765.909 177.795 765.359 180.352 764.257 182.2C763.175 184.029 761.299 184.944 758.629 184.944C755.96 184.944 754.075 184.029 752.973 182.2C751.891 180.352 751.349 177.795 751.349 174.528ZM762.773 174.528C762.773 173.016 762.671 171.737 762.465 170.692C762.279 169.647 761.887 168.797 761.289 168.144C760.692 167.472 759.805 167.136 758.629 167.136C757.453 167.136 756.567 167.472 755.969 168.144C755.372 168.797 754.971 169.647 754.765 170.692C754.579 171.737 754.485 173.016 754.485 174.528C754.485 176.096 754.579 177.412 754.765 178.476C754.952 179.54 755.344 180.399 755.941 181.052C756.557 181.705 757.453 182.032 758.629 182.032C759.805 182.032 760.692 181.705 761.289 181.052C761.905 180.399 762.307 179.54 762.493 178.476C762.68 177.412 762.773 176.096 762.773 174.528ZM781.383 169.32C781.178 168.461 780.804 167.817 780.263 167.388C779.722 166.959 778.966 166.744 777.995 166.744C776.52 166.744 775.419 167.313 774.691 168.452C773.963 169.572 773.58 171.439 773.543 174.052C774.028 173.231 774.738 172.596 775.671 172.148C776.604 171.7 777.612 171.476 778.695 171.476C779.927 171.476 781.01 171.747 781.943 172.288C782.895 172.811 783.632 173.576 784.155 174.584C784.696 175.592 784.967 176.796 784.967 178.196C784.967 179.503 784.706 180.669 784.183 181.696C783.679 182.723 782.923 183.535 781.915 184.132C780.907 184.711 779.694 185 778.275 185C776.352 185 774.84 184.58 773.739 183.74C772.656 182.881 771.891 181.677 771.443 180.128C771.014 178.579 770.799 176.647 770.799 174.332C770.799 167.5 773.207 164.084 778.023 164.084C779.89 164.084 781.355 164.588 782.419 165.596C783.502 166.604 784.136 167.845 784.323 169.32H781.383ZM777.995 174.164C776.856 174.164 775.886 174.509 775.083 175.2C774.299 175.872 773.907 176.852 773.907 178.14C773.907 179.428 774.271 180.455 774.999 181.22C775.746 181.967 776.782 182.34 778.107 182.34C779.283 182.34 780.207 181.976 780.879 181.248C781.57 180.52 781.915 179.549 781.915 178.336C781.915 177.067 781.579 176.059 780.907 175.312C780.254 174.547 779.283 174.164 777.995 174.164Z" fill="#8A8A8A"/>
<path d="M714.716 127.594H716.352V126H714.716V127.594ZM722.932 126H721.295V127.594H722.932V126ZM718.005 127.594H719.642V126H718.005V127.594Z" fill="#1CBBDA"/>
<path d="M715.616 131.35L711.187 127.055L715.611 122.759L714.262 121.45L708.493 127.055L714.267 132.659L715.616 131.35ZM721.515 131.35L725.94 127.055L721.515 122.759L722.864 121.45L728.637 127.055L722.864 132.659L721.515 131.35Z" fill="#1CBBDA"/>
<path d="M702.954 120C702.954 117.515 704.969 115.5 707.454 115.5H730.317C732.803 115.5 734.817 117.515 734.817 120V132C734.817 134.485 732.803 136.5 730.317 136.5H707.454C704.969 136.5 702.954 134.485 702.954 132V120Z" stroke="#707070"/>
<line x1="1298.04" y1="356.874" x2="26.6356" y2="356.874" stroke="#1CBBDA" stroke-width="0.6"/>
<path d="M64.2293 388.615C63.7693 387.557 63.0639 386.729 62.1133 386.131C61.1779 385.518 60.0739 385.211 58.8013 385.211C57.6053 385.211 56.5319 385.487 55.5813 386.039C54.6306 386.591 53.8793 387.381 53.3273 388.408C52.7753 389.42 52.4993 390.601 52.4993 391.95C52.4993 393.299 52.7753 394.488 53.3273 395.515C53.8793 396.542 54.6306 397.332 55.5813 397.884C56.5319 398.436 57.6053 398.712 58.8013 398.712C59.9206 398.712 60.9249 398.474 61.8143 397.999C62.7189 397.508 63.4396 396.818 63.9763 395.929C64.5283 395.024 64.8426 393.974 64.9193 392.778H58.1573V391.467H66.6213V392.64C66.5446 394.051 66.1613 395.331 65.4713 396.481C64.7813 397.616 63.8536 398.513 62.6883 399.172C61.5383 399.831 60.2426 400.161 58.8013 400.161C57.3139 400.161 55.9646 399.816 54.7533 399.126C53.5419 398.421 52.5836 397.447 51.8783 396.205C51.1883 394.948 50.8433 393.529 50.8433 391.95C50.8433 390.371 51.1883 388.96 51.8783 387.718C52.5836 386.461 53.5419 385.487 54.7533 384.797C55.9646 384.092 57.3139 383.739 58.8013 383.739C60.5186 383.739 62.0213 384.168 63.3093 385.027C64.5973 385.886 65.5326 387.082 66.1153 388.615H64.2293ZM69.7545 393.698C69.7545 392.41 70.0075 391.283 70.5135 390.317C71.0348 389.336 71.7478 388.584 72.6525 388.063C73.5725 387.526 74.6075 387.258 75.7575 387.258C76.9535 387.258 77.9808 387.534 78.8395 388.086C79.7135 388.638 80.3421 389.343 80.7255 390.202V387.442H82.3355V400H80.7255V397.217C80.3268 398.076 79.6905 398.789 78.8165 399.356C77.9578 399.908 76.9305 400.184 75.7345 400.184C74.5998 400.184 73.5725 399.916 72.6525 399.379C71.7478 398.842 71.0348 398.083 70.5135 397.102C70.0075 396.121 69.7545 394.986 69.7545 393.698ZM80.7255 393.721C80.7255 392.709 80.5185 391.82 80.1045 391.053C79.6905 390.286 79.1231 389.696 78.4025 389.282C77.6971 388.868 76.9151 388.661 76.0565 388.661C75.1671 388.661 74.3698 388.86 73.6645 389.259C72.9591 389.658 72.3995 390.24 71.9855 391.007C71.5868 391.758 71.3875 392.655 71.3875 393.698C71.3875 394.725 71.5868 395.63 71.9855 396.412C72.3995 397.179 72.9591 397.769 73.6645 398.183C74.3698 398.582 75.1671 398.781 76.0565 398.781C76.9151 398.781 77.6971 398.574 78.4025 398.16C79.1231 397.746 79.6905 397.156 80.1045 396.389C80.5185 395.622 80.7255 394.733 80.7255 393.721ZM89.024 388.799V396.596C89.024 397.363 89.1696 397.892 89.461 398.183C89.7523 398.474 90.266 398.62 91.002 398.62H92.474V400H90.749C89.6143 400 88.771 399.739 88.219 399.218C87.667 398.681 87.391 397.807 87.391 396.596V388.799H85.643V387.442H87.391V384.291H89.024V387.442H92.474V388.799H89.024ZM102.029 387.212C102.98 387.212 103.831 387.411 104.582 387.81C105.349 388.209 105.947 388.822 106.376 389.65C106.821 390.463 107.043 391.459 107.043 392.64V400H105.456V392.824C105.456 391.459 105.111 390.417 104.421 389.696C103.747 388.975 102.819 388.615 101.638 388.615C100.427 388.615 99.4609 388.998 98.7402 389.765C98.0196 390.532 97.6592 391.659 97.6592 393.146V400H96.0492V382.98H97.6592V389.581C98.0579 388.83 98.6406 388.247 99.4072 387.833C100.189 387.419 101.063 387.212 102.029 387.212ZM122.886 393.077C122.886 393.629 122.871 394.051 122.84 394.342H112.421C112.467 395.293 112.697 396.105 113.111 396.78C113.525 397.455 114.069 397.968 114.744 398.321C115.419 398.658 116.155 398.827 116.952 398.827C117.995 398.827 118.869 398.574 119.574 398.068C120.295 397.562 120.77 396.88 121 396.021H122.702C122.395 397.248 121.736 398.252 120.724 399.034C119.727 399.801 118.47 400.184 116.952 400.184C115.771 400.184 114.713 399.923 113.778 399.402C112.843 398.865 112.107 398.114 111.57 397.148C111.049 396.167 110.788 395.024 110.788 393.721C110.788 392.418 111.049 391.275 111.57 390.294C112.091 389.313 112.82 388.561 113.755 388.04C114.69 387.519 115.756 387.258 116.952 387.258C118.148 387.258 119.191 387.519 120.08 388.04C120.985 388.561 121.675 389.267 122.15 390.156C122.641 391.03 122.886 392.004 122.886 393.077ZM121.253 393.031C121.268 392.096 121.077 391.298 120.678 390.639C120.295 389.98 119.766 389.481 119.091 389.144C118.416 388.807 117.68 388.638 116.883 388.638C115.687 388.638 114.667 389.021 113.824 389.788C112.981 390.555 112.513 391.636 112.421 393.031H121.253ZM128.362 389.673C128.714 388.891 129.251 388.285 129.972 387.856C130.708 387.427 131.605 387.212 132.663 387.212V388.891H132.226C131.06 388.891 130.125 389.205 129.42 389.834C128.714 390.463 128.362 391.513 128.362 392.985V400H126.752V387.442H128.362V389.673ZM60.1353 430L56.1563 423.284H53.1893V430H51.5793V413.923H56.4093C58.2033 413.923 59.5603 414.352 60.4803 415.211C61.4156 416.07 61.8833 417.197 61.8833 418.592C61.8833 419.757 61.5459 420.754 60.8713 421.582C60.2119 422.395 59.2306 422.924 57.9273 423.169L62.0673 430H60.1353ZM53.1893 421.973H56.4323C57.6896 421.973 58.6326 421.666 59.2613 421.053C59.9053 420.44 60.2273 419.619 60.2273 418.592C60.2273 417.534 59.9206 416.721 59.3073 416.154C58.6939 415.571 57.7279 415.28 56.4093 415.28H53.1893V421.973ZM77.3603 423.077C77.3603 423.629 77.3449 424.051 77.3143 424.342H66.8953C66.9413 425.293 67.1713 426.105 67.5853 426.78C67.9993 427.455 68.5436 427.968 69.2183 428.321C69.8929 428.658 70.6289 428.827 71.4263 428.827C72.4689 428.827 73.3429 428.574 74.0483 428.068C74.7689 427.562 75.2443 426.88 75.4743 426.021H77.1763C76.8696 427.248 76.2103 428.252 75.1983 429.034C74.2016 429.801 72.9443 430.184 71.4263 430.184C70.2456 430.184 69.1876 429.923 68.2523 429.402C67.3169 428.865 66.5809 428.114 66.0443 427.148C65.5229 426.167 65.2623 425.024 65.2623 423.721C65.2623 422.418 65.5229 421.275 66.0443 420.294C66.5656 419.313 67.2939 418.561 68.2293 418.04C69.1646 417.519 70.2303 417.258 71.4263 417.258C72.6223 417.258 73.6649 417.519 74.5543 418.04C75.4589 418.561 76.1489 419.267 76.6243 420.156C77.1149 421.03 77.3603 422.004 77.3603 423.077ZM75.7273 423.031C75.7426 422.096 75.5509 421.298 75.1523 420.639C74.7689 419.98 74.2399 419.481 73.5653 419.144C72.8906 418.807 72.1546 418.638 71.3573 418.638C70.1613 418.638 69.1416 419.021 68.2983 419.788C67.4549 420.555 66.9873 421.636 66.8953 423.031H75.7273ZM80.4899 423.698C80.4899 422.41 80.7506 421.283 81.2719 420.317C81.7932 419.336 82.5062 418.584 83.4109 418.063C84.3309 417.526 85.3659 417.258 86.5159 417.258C87.6966 417.258 88.7239 417.542 89.5979 418.109C90.4719 418.661 91.0929 419.359 91.4609 420.202V417.442H93.0709V435.934H91.4609V427.24C91.0929 428.083 90.4642 428.789 89.5749 429.356C88.7009 429.908 87.6659 430.184 86.4699 430.184C85.3352 430.184 84.3079 429.916 83.3879 429.379C82.4832 428.842 81.7702 428.083 81.2489 427.102C80.7429 426.121 80.4899 424.986 80.4899 423.698ZM91.4609 423.721C91.4609 422.709 91.2539 421.82 90.8399 421.053C90.4259 420.286 89.8586 419.696 89.1379 419.282C88.4326 418.868 87.6506 418.661 86.7919 418.661C85.9026 418.661 85.1052 418.86 84.3999 419.259C83.6946 419.658 83.1349 420.24 82.7209 421.007C82.3222 421.758 82.1229 422.655 82.1229 423.698C82.1229 424.725 82.3222 425.63 82.7209 426.412C83.1349 427.179 83.6946 427.769 84.3999 428.183C85.1052 428.582 85.9026 428.781 86.7919 428.781C87.6506 428.781 88.4326 428.574 89.1379 428.16C89.8586 427.746 90.4259 427.156 90.8399 426.389C91.2539 425.622 91.4609 424.733 91.4609 423.721ZM108.545 417.442V430H106.935V427.792C106.567 428.574 106 429.172 105.233 429.586C104.467 430 103.608 430.207 102.657 430.207C101.155 430.207 99.9281 429.747 98.9774 428.827C98.0267 427.892 97.5514 426.542 97.5514 424.779V417.442H99.1384V424.595C99.1384 425.96 99.4757 427.002 100.15 427.723C100.84 428.444 101.776 428.804 102.956 428.804C104.168 428.804 105.134 428.421 105.854 427.654C106.575 426.887 106.935 425.76 106.935 424.273V417.442H108.545ZM113.946 415.073C113.624 415.073 113.348 414.958 113.118 414.728C112.888 414.498 112.773 414.214 112.773 413.877C112.773 413.54 112.888 413.264 113.118 413.049C113.348 412.819 113.624 412.704 113.946 412.704C114.268 412.704 114.544 412.819 114.774 413.049C115.004 413.264 115.119 413.54 115.119 413.877C115.119 414.214 115.004 414.498 114.774 414.728C114.544 414.958 114.268 415.073 113.946 415.073ZM114.751 417.442V430H113.141V417.442H114.751ZM120.927 419.673C121.28 418.891 121.816 418.285 122.537 417.856C123.273 417.427 124.17 417.212 125.228 417.212V418.891H124.791C123.626 418.891 122.69 419.205 121.985 419.834C121.28 420.463 120.927 421.513 120.927 422.985V430H119.317V417.442H120.927V419.673ZM139.932 423.077C139.932 423.629 139.917 424.051 139.886 424.342H129.467C129.513 425.293 129.743 426.105 130.157 426.78C130.571 427.455 131.115 427.968 131.79 428.321C132.465 428.658 133.201 428.827 133.998 428.827C135.041 428.827 135.915 428.574 136.62 428.068C137.341 427.562 137.816 426.88 138.046 426.021H139.748C139.441 427.248 138.782 428.252 137.77 429.034C136.773 429.801 135.516 430.184 133.998 430.184C132.817 430.184 131.759 429.923 130.824 429.402C129.889 428.865 129.153 428.114 128.616 427.148C128.095 426.167 127.834 425.024 127.834 423.721C127.834 422.418 128.095 421.275 128.616 420.294C129.137 419.313 129.866 418.561 130.801 418.04C131.736 417.519 132.802 417.258 133.998 417.258C135.194 417.258 136.237 417.519 137.126 418.04C138.031 418.561 138.721 419.267 139.196 420.156C139.687 421.03 139.932 422.004 139.932 423.077ZM138.299 423.031C138.314 422.096 138.123 421.298 137.724 420.639C137.341 419.98 136.812 419.481 136.137 419.144C135.462 418.807 134.726 418.638 133.929 418.638C132.733 418.638 131.713 419.021 130.87 419.788C130.027 420.555 129.559 421.636 129.467 423.031H138.299ZM158.748 417.212C160.22 417.212 161.416 417.68 162.336 418.615C163.271 419.535 163.739 420.877 163.739 422.64V430H162.152V422.824C162.152 421.459 161.822 420.417 161.163 419.696C160.503 418.975 159.606 418.615 158.472 418.615C157.291 418.615 156.348 419.006 155.643 419.788C154.937 420.57 154.585 421.705 154.585 423.192V430H152.998V422.824C152.998 421.459 152.668 420.417 152.009 419.696C151.349 418.975 150.445 418.615 149.295 418.615C148.114 418.615 147.171 419.006 146.466 419.788C145.76 420.57 145.408 421.705 145.408 423.192V430H143.798V417.442H145.408V419.604C145.806 418.822 146.374 418.232 147.11 417.833C147.846 417.419 148.666 417.212 149.571 417.212C150.659 417.212 151.61 417.473 152.423 417.994C153.251 418.515 153.849 419.282 154.217 420.294C154.554 419.297 155.129 418.538 155.942 418.017C156.77 417.48 157.705 417.212 158.748 417.212ZM179.596 423.077C179.596 423.629 179.581 424.051 179.55 424.342H169.131C169.177 425.293 169.407 426.105 169.821 426.78C170.235 427.455 170.78 427.968 171.454 428.321C172.129 428.658 172.865 428.827 173.662 428.827C174.705 428.827 175.579 428.574 176.284 428.068C177.005 427.562 177.48 426.88 177.71 426.021H179.412C179.106 427.248 178.446 428.252 177.434 429.034C176.438 429.801 175.18 430.184 173.662 430.184C172.482 430.184 171.424 429.923 170.488 429.402C169.553 428.865 168.817 428.114 168.28 427.148C167.759 426.167 167.498 425.024 167.498 423.721C167.498 422.418 167.759 421.275 168.28 420.294C168.802 419.313 169.53 418.561 170.465 418.04C171.401 417.519 172.466 417.258 173.662 417.258C174.858 417.258 175.901 417.519 176.79 418.04C177.695 418.561 178.385 419.267 178.86 420.156C179.351 421.03 179.596 422.004 179.596 423.077ZM177.963 423.031C177.979 422.096 177.787 421.298 177.388 420.639C177.005 419.98 176.476 419.481 175.801 419.144C175.127 418.807 174.391 418.638 173.593 418.638C172.397 418.638 171.378 419.021 170.534 419.788C169.691 420.555 169.223 421.636 169.131 423.031H177.963ZM189.35 417.212C190.852 417.212 192.079 417.68 193.03 418.615C193.98 419.535 194.456 420.877 194.456 422.64V430H192.869V422.824C192.869 421.459 192.524 420.417 191.834 419.696C191.159 418.975 190.231 418.615 189.051 418.615C187.839 418.615 186.873 418.998 186.153 419.765C185.432 420.532 185.072 421.659 185.072 423.146V430H183.462V417.442H185.072V419.581C185.47 418.814 186.045 418.232 186.797 417.833C187.548 417.419 188.399 417.212 189.35 417.212ZM201.029 418.799V426.596C201.029 427.363 201.175 427.892 201.466 428.183C201.758 428.474 202.271 428.62 203.007 428.62H204.479V430H202.754C201.62 430 200.776 429.739 200.224 429.218C199.672 428.681 199.396 427.807 199.396 426.596V418.799H197.648V417.442H199.396V414.291H201.029V417.442H204.479V418.799H201.029Z" fill="#1CBBDA"/>
<path d="M6.25534 401.528C6.25534 398.299 6.79667 395.779 7.87934 393.968C8.98067 392.139 10.866 391.224 13.5353 391.224C16.2047 391.224 18.0807 392.139 19.1633 393.968C20.2647 395.779 20.8153 398.299 20.8153 401.528C20.8153 404.795 20.2647 407.352 19.1633 409.2C18.0807 411.029 16.2047 411.944 13.5353 411.944C10.866 411.944 8.98067 411.029 7.87934 409.2C6.79667 407.352 6.25534 404.795 6.25534 401.528ZM17.6793 401.528C17.6793 400.016 17.5767 398.737 17.3713 397.692C17.1847 396.647 16.7927 395.797 16.1953 395.144C15.598 394.472 14.7113 394.136 13.5353 394.136C12.3593 394.136 11.4727 394.472 10.8753 395.144C10.278 395.797 9.87667 396.647 9.67134 397.692C9.48467 398.737 9.39134 400.016 9.39134 401.528C9.39134 403.096 9.48467 404.412 9.67134 405.476C9.85801 406.54 10.25 407.399 10.8473 408.052C11.4633 408.705 12.3593 409.032 13.5353 409.032C14.7113 409.032 15.598 408.705 16.1953 408.052C16.8113 407.399 17.2127 406.54 17.3993 405.476C17.586 404.412 17.6793 403.096 17.6793 401.528ZM24.8928 394.5V391.588H30.7168V412H27.4968V394.5H24.8928Z" fill="#8A8A8A"/>
<path d="M409.017 388.546C409.017 389.926 408.565 391.038 407.66 391.881C406.756 392.724 405.399 393.146 403.589 393.146H400.346V400H398.736V383.923H403.589C405.383 383.923 406.733 384.345 407.637 385.188C408.557 386.031 409.017 387.151 409.017 388.546ZM403.589 391.766C406.104 391.766 407.361 390.693 407.361 388.546C407.361 387.473 407.062 386.66 406.464 386.108C405.866 385.556 404.908 385.28 403.589 385.28H400.346V391.766H403.589ZM414.249 389.673C414.602 388.891 415.138 388.285 415.859 387.856C416.595 387.427 417.492 387.212 418.55 387.212V388.891H418.113C416.948 388.891 416.012 389.205 415.307 389.834C414.602 390.463 414.249 391.513 414.249 392.985V400H412.639V387.442H414.249V389.673ZM427.389 400.184C426.208 400.184 425.143 399.923 424.192 399.402C423.257 398.865 422.513 398.114 421.961 397.148C421.424 396.167 421.156 395.024 421.156 393.721C421.156 392.418 421.432 391.283 421.984 390.317C422.536 389.336 423.287 388.584 424.238 388.063C425.189 387.526 426.254 387.258 427.435 387.258C428.616 387.258 429.681 387.526 430.632 388.063C431.598 388.584 432.349 389.336 432.886 390.317C433.438 391.283 433.714 392.418 433.714 393.721C433.714 395.009 433.438 396.144 432.886 397.125C432.334 398.106 431.575 398.865 430.609 399.402C429.643 399.923 428.57 400.184 427.389 400.184ZM427.389 398.781C428.217 398.781 428.984 398.597 429.689 398.229C430.394 397.846 430.962 397.278 431.391 396.527C431.836 395.76 432.058 394.825 432.058 393.721C432.058 392.617 431.843 391.689 431.414 390.938C430.985 390.171 430.417 389.604 429.712 389.236C429.007 388.853 428.24 388.661 427.412 388.661C426.584 388.661 425.817 388.853 425.112 389.236C424.407 389.604 423.839 390.171 423.41 390.938C422.996 391.689 422.789 392.617 422.789 393.721C422.789 394.825 422.996 395.76 423.41 396.527C423.839 397.278 424.399 397.846 425.089 398.229C425.794 398.597 426.561 398.781 427.389 398.781ZM439.662 388.799V396.596C439.662 397.363 439.807 397.892 440.099 398.183C440.39 398.474 440.904 398.62 441.64 398.62H443.112V400H441.387C440.252 400 439.409 399.739 438.857 399.218C438.305 398.681 438.029 397.807 438.029 396.596V388.799H436.281V387.442H438.029V384.291H439.662V387.442H443.112V388.799H439.662ZM452.184 400.184C451.003 400.184 449.938 399.923 448.987 399.402C448.052 398.865 447.308 398.114 446.756 397.148C446.219 396.167 445.951 395.024 445.951 393.721C445.951 392.418 446.227 391.283 446.779 390.317C447.331 389.336 448.082 388.584 449.033 388.063C449.984 387.526 451.049 387.258 452.23 387.258C453.411 387.258 454.476 387.526 455.427 388.063C456.393 388.584 457.144 389.336 457.681 390.317C458.233 391.283 458.509 392.418 458.509 393.721C458.509 395.009 458.233 396.144 457.681 397.125C457.129 398.106 456.37 398.865 455.404 399.402C454.438 399.923 453.365 400.184 452.184 400.184ZM452.184 398.781C453.012 398.781 453.779 398.597 454.484 398.229C455.189 397.846 455.757 397.278 456.186 396.527C456.631 395.76 456.853 394.825 456.853 393.721C456.853 392.617 456.638 391.689 456.209 390.938C455.78 390.171 455.212 389.604 454.507 389.236C453.802 388.853 453.035 388.661 452.207 388.661C451.379 388.661 450.612 388.853 449.907 389.236C449.202 389.604 448.634 390.171 448.205 390.938C447.791 391.689 447.584 392.617 447.584 393.721C447.584 394.825 447.791 395.76 448.205 396.527C448.634 397.278 449.194 397.846 449.884 398.229C450.589 398.597 451.356 398.781 452.184 398.781ZM464.457 388.799V396.596C464.457 397.363 464.602 397.892 464.894 398.183C465.185 398.474 465.699 398.62 466.435 398.62H467.907V400H466.182C465.047 400 464.204 399.739 463.652 399.218C463.1 398.681 462.824 397.807 462.824 396.596V388.799H461.076V387.442H462.824V384.291H464.457V387.442H467.907V388.799H464.457ZM481.832 387.442L474.38 405.911H472.701L475.139 399.931L469.987 387.442H471.758L476.036 398.16L480.176 387.442H481.832ZM486.522 390.202C486.921 389.359 487.55 388.661 488.408 388.109C489.282 387.542 490.317 387.258 491.513 387.258C492.648 387.258 493.668 387.526 494.572 388.063C495.492 388.584 496.205 389.336 496.711 390.317C497.233 391.283 497.493 392.41 497.493 393.698C497.493 394.986 497.233 396.121 496.711 397.102C496.205 398.083 495.492 398.842 494.572 399.379C493.668 399.916 492.648 400.184 491.513 400.184C490.333 400.184 489.305 399.908 488.431 399.356C487.557 398.789 486.921 398.083 486.522 397.24V405.934H484.935V387.442H486.522V390.202ZM495.86 393.698C495.86 392.655 495.653 391.758 495.239 391.007C494.841 390.24 494.289 389.658 493.583 389.259C492.878 388.86 492.081 388.661 491.191 388.661C490.333 388.661 489.543 388.868 488.822 389.282C488.117 389.696 487.557 390.286 487.143 391.053C486.729 391.82 486.522 392.709 486.522 393.721C486.522 394.733 486.729 395.622 487.143 396.389C487.557 397.156 488.117 397.746 488.822 398.16C489.543 398.574 490.333 398.781 491.191 398.781C492.081 398.781 492.878 398.582 493.583 398.183C494.289 397.769 494.841 397.179 495.239 396.412C495.653 395.63 495.86 394.725 495.86 393.698ZM512.738 393.077C512.738 393.629 512.722 394.051 512.692 394.342H502.273C502.319 395.293 502.549 396.105 502.963 396.78C503.377 397.455 503.921 397.968 504.596 398.321C505.27 398.658 506.006 398.827 506.804 398.827C507.846 398.827 508.72 398.574 509.426 398.068C510.146 397.562 510.622 396.88 510.852 396.021H512.554C512.247 397.248 511.588 398.252 510.576 399.034C509.579 399.801 508.322 400.184 506.804 400.184C505.623 400.184 504.565 399.923 503.63 399.402C502.694 398.865 501.958 398.114 501.422 397.148C500.9 396.167 500.64 395.024 500.64 393.721C500.64 392.418 500.9 391.275 501.422 390.294C501.943 389.313 502.671 388.561 503.607 388.04C504.542 387.519 505.608 387.258 506.804 387.258C508 387.258 509.042 387.519 509.932 388.04C510.836 388.561 511.526 389.267 512.002 390.156C512.492 391.03 512.738 392.004 512.738 393.077ZM511.105 393.031C511.12 392.096 510.928 391.298 510.53 390.639C510.146 389.98 509.617 389.481 508.943 389.144C508.268 388.807 507.532 388.638 506.735 388.638C505.539 388.638 504.519 389.021 503.676 389.788C502.832 390.555 502.365 391.636 502.273 393.031H511.105ZM409.017 418.546C409.017 419.926 408.565 421.038 407.66 421.881C406.756 422.724 405.399 423.146 403.589 423.146H400.346V430H398.736V413.923H403.589C405.383 413.923 406.733 414.345 407.637 415.188C408.557 416.031 409.017 417.151 409.017 418.546ZM403.589 421.766C406.104 421.766 407.361 420.693 407.361 418.546C407.361 417.473 407.062 416.66 406.464 416.108C405.866 415.556 404.908 415.28 403.589 415.28H400.346V421.766H403.589ZM414.249 419.673C414.602 418.891 415.138 418.285 415.859 417.856C416.595 417.427 417.492 417.212 418.55 417.212V418.891H418.113C416.948 418.891 416.012 419.205 415.307 419.834C414.602 420.463 414.249 421.513 414.249 422.985V430H412.639V417.442H414.249V419.673ZM427.389 430.184C426.208 430.184 425.143 429.923 424.192 429.402C423.257 428.865 422.513 428.114 421.961 427.148C421.424 426.167 421.156 425.024 421.156 423.721C421.156 422.418 421.432 421.283 421.984 420.317C422.536 419.336 423.287 418.584 424.238 418.063C425.189 417.526 426.254 417.258 427.435 417.258C428.616 417.258 429.681 417.526 430.632 418.063C431.598 418.584 432.349 419.336 432.886 420.317C433.438 421.283 433.714 422.418 433.714 423.721C433.714 425.009 433.438 426.144 432.886 427.125C432.334 428.106 431.575 428.865 430.609 429.402C429.643 429.923 428.57 430.184 427.389 430.184ZM427.389 428.781C428.217 428.781 428.984 428.597 429.689 428.229C430.394 427.846 430.962 427.278 431.391 426.527C431.836 425.76 432.058 424.825 432.058 423.721C432.058 422.617 431.843 421.689 431.414 420.938C430.985 420.171 430.417 419.604 429.712 419.236C429.007 418.853 428.24 418.661 427.412 418.661C426.584 418.661 425.817 418.853 425.112 419.236C424.407 419.604 423.839 420.171 423.41 420.938C422.996 421.689 422.789 422.617 422.789 423.721C422.789 424.825 422.996 425.76 423.41 426.527C423.839 427.278 424.399 427.846 425.089 428.229C425.794 428.597 426.561 428.781 427.389 428.781ZM438.489 415.073C438.167 415.073 437.891 414.958 437.661 414.728C437.431 414.498 437.316 414.214 437.316 413.877C437.316 413.54 437.431 413.264 437.661 413.049C437.891 412.819 438.167 412.704 438.489 412.704C438.811 412.704 439.079 412.819 439.294 413.049C439.524 413.264 439.639 413.54 439.639 413.877C439.639 414.214 439.524 414.498 439.294 414.728C439.079 414.958 438.811 415.073 438.489 415.073ZM439.271 432.967C439.271 433.979 439.018 434.723 438.512 435.198C438.006 435.689 437.247 435.934 436.235 435.934H435.108V434.554H435.982C436.58 434.554 437.009 434.424 437.27 434.163C437.53 433.918 437.661 433.496 437.661 432.898V417.442H439.271V432.967ZM455.241 423.077C455.241 423.629 455.226 424.051 455.195 424.342H444.776C444.822 425.293 445.052 426.105 445.466 426.78C445.88 427.455 446.425 427.968 447.099 428.321C447.774 428.658 448.51 428.827 449.307 428.827C450.35 428.827 451.224 428.574 451.929 428.068C452.65 427.562 453.125 426.88 453.355 426.021H455.057C454.751 427.248 454.091 428.252 453.079 429.034C452.083 429.801 450.825 430.184 449.307 430.184C448.127 430.184 447.069 429.923 446.133 429.402C445.198 428.865 444.462 428.114 443.925 427.148C443.404 426.167 443.143 425.024 443.143 423.721C443.143 422.418 443.404 421.275 443.925 420.294C444.447 419.313 445.175 418.561 446.11 418.04C447.046 417.519 448.111 417.258 449.307 417.258C450.503 417.258 451.546 417.519 452.435 418.04C453.34 418.561 454.03 419.267 454.505 420.156C454.996 421.03 455.241 422.004 455.241 423.077ZM453.608 423.031C453.624 422.096 453.432 421.298 453.033 420.639C452.65 419.98 452.121 419.481 451.446 419.144C450.772 418.807 450.036 418.638 449.238 418.638C448.042 418.638 447.023 419.021 446.179 419.788C445.336 420.555 444.868 421.636 444.776 423.031H453.608ZM458.371 423.721C458.371 422.418 458.632 421.283 459.153 420.317C459.674 419.336 460.395 418.584 461.315 418.063C462.235 417.526 463.285 417.258 464.466 417.258C466.015 417.258 467.287 417.641 468.284 418.408C469.296 419.175 469.948 420.217 470.239 421.536H468.514C468.299 420.631 467.832 419.926 467.111 419.42C466.406 418.899 465.524 418.638 464.466 418.638C463.623 418.638 462.864 418.83 462.189 419.213C461.514 419.596 460.978 420.171 460.579 420.938C460.196 421.689 460.004 422.617 460.004 423.721C460.004 424.825 460.196 425.76 460.579 426.527C460.978 427.294 461.514 427.869 462.189 428.252C462.864 428.635 463.623 428.827 464.466 428.827C465.524 428.827 466.406 428.574 467.111 428.068C467.832 427.547 468.299 426.826 468.514 425.906H470.239C469.948 427.194 469.296 428.229 468.284 429.011C467.272 429.793 465.999 430.184 464.466 430.184C463.285 430.184 462.235 429.923 461.315 429.402C460.395 428.865 459.674 428.114 459.153 427.148C458.632 426.167 458.371 425.024 458.371 423.721ZM476.225 418.799V426.596C476.225 427.363 476.371 427.892 476.662 428.183C476.954 428.474 477.467 428.62 478.203 428.62H479.675V430H477.95C476.816 430 475.972 429.739 475.42 429.218C474.868 428.681 474.592 427.807 474.592 426.596V418.799H472.844V417.442H474.592V414.291H476.225V417.442H479.675V418.799H476.225Z" fill="#1CBBDA"/>
<path d="M350.557 401.528C350.557 398.299 351.098 395.779 352.181 393.968C353.282 392.139 355.167 391.224 357.837 391.224C360.506 391.224 362.382 392.139 363.465 393.968C364.566 395.779 365.117 398.299 365.117 401.528C365.117 404.795 364.566 407.352 363.465 409.2C362.382 411.029 360.506 411.944 357.837 411.944C355.167 411.944 353.282 411.029 352.181 409.2C351.098 407.352 350.557 404.795 350.557 401.528ZM361.981 401.528C361.981 400.016 361.878 398.737 361.673 397.692C361.486 396.647 361.094 395.797 360.497 395.144C359.899 394.472 359.013 394.136 357.837 394.136C356.661 394.136 355.774 394.472 355.177 395.144C354.579 395.797 354.178 396.647 353.973 397.692C353.786 398.737 353.693 400.016 353.693 401.528C353.693 403.096 353.786 404.412 353.973 405.476C354.159 406.54 354.551 407.399 355.149 408.052C355.765 408.705 356.661 409.032 357.837 409.032C359.013 409.032 359.899 408.705 360.497 408.052C361.113 407.399 361.514 406.54 361.701 405.476C361.887 404.412 361.981 403.096 361.981 401.528ZM371.378 407.66C373.17 406.111 374.58 404.841 375.606 403.852C376.652 402.844 377.52 401.799 378.21 400.716C378.901 399.633 379.246 398.551 379.246 397.468C379.246 396.348 378.976 395.471 378.434 394.836C377.912 394.201 377.081 393.884 375.942 393.884C374.841 393.884 373.982 394.239 373.366 394.948C372.769 395.639 372.452 396.572 372.414 397.748H369.334C369.39 395.62 370.025 393.996 371.238 392.876C372.47 391.737 374.029 391.168 375.914 391.168C377.949 391.168 379.536 391.728 380.674 392.848C381.832 393.968 382.41 395.461 382.41 397.328C382.41 398.672 382.065 399.969 381.374 401.22C380.702 402.452 379.89 403.563 378.938 404.552C378.005 405.523 376.81 406.652 375.354 407.94L374.094 409.06H382.97V411.72H369.362V409.396L371.378 407.66Z" fill="#8A8A8A"/>
<path d="M715.388 383.923V385.257H710.926V400H709.316V385.257H704.831V383.923H715.388ZM730.212 393.077C730.212 393.629 730.197 394.051 730.166 394.342H719.747C719.793 395.293 720.023 396.105 720.437 396.78C720.851 397.455 721.395 397.968 722.07 398.321C722.745 398.658 723.481 398.827 724.278 398.827C725.321 398.827 726.195 398.574 726.9 398.068C727.621 397.562 728.096 396.88 728.326 396.021H730.028C729.721 397.248 729.062 398.252 728.05 399.034C727.053 399.801 725.796 400.184 724.278 400.184C723.097 400.184 722.039 399.923 721.104 399.402C720.169 398.865 719.433 398.114 718.896 397.148C718.375 396.167 718.114 395.024 718.114 393.721C718.114 392.418 718.375 391.275 718.896 390.294C719.417 389.313 720.146 388.561 721.081 388.04C722.016 387.519 723.082 387.258 724.278 387.258C725.474 387.258 726.517 387.519 727.406 388.04C728.311 388.561 729.001 389.267 729.476 390.156C729.967 391.03 730.212 392.004 730.212 393.077ZM728.579 393.031C728.594 392.096 728.403 391.298 728.004 390.639C727.621 389.98 727.092 389.481 726.417 389.144C725.742 388.807 725.006 388.638 724.209 388.638C723.013 388.638 721.993 389.021 721.15 389.788C720.307 390.555 719.839 391.636 719.747 393.031H728.579ZM733.341 393.721C733.341 392.418 733.602 391.283 734.123 390.317C734.645 389.336 735.365 388.584 736.285 388.063C737.205 387.526 738.256 387.258 739.436 387.258C740.985 387.258 742.258 387.641 743.254 388.408C744.266 389.175 744.918 390.217 745.209 391.536H743.484C743.27 390.631 742.802 389.926 742.081 389.42C741.376 388.899 740.494 388.638 739.436 388.638C738.593 388.638 737.834 388.83 737.159 389.213C736.485 389.596 735.948 390.171 735.549 390.938C735.166 391.689 734.974 392.617 734.974 393.721C734.974 394.825 735.166 395.76 735.549 396.527C735.948 397.294 736.485 397.869 737.159 398.252C737.834 398.635 738.593 398.827 739.436 398.827C740.494 398.827 741.376 398.574 742.081 398.068C742.802 397.547 743.27 396.826 743.484 395.906H745.209C744.918 397.194 744.266 398.229 743.254 399.011C742.242 399.793 740.97 400.184 739.436 400.184C738.256 400.184 737.205 399.923 736.285 399.402C735.365 398.865 734.645 398.114 734.123 397.148C733.602 396.167 733.341 395.024 733.341 393.721ZM755.083 387.212C756.034 387.212 756.885 387.411 757.636 387.81C758.403 388.209 759.001 388.822 759.43 389.65C759.875 390.463 760.097 391.459 760.097 392.64V400H758.51V392.824C758.51 391.459 758.165 390.417 757.475 389.696C756.8 388.975 755.873 388.615 754.692 388.615C753.481 388.615 752.515 388.998 751.794 389.765C751.073 390.532 750.713 391.659 750.713 393.146V400H749.103V382.98H750.713V389.581C751.112 388.83 751.694 388.247 752.461 387.833C753.243 387.419 754.117 387.212 755.083 387.212ZM715.296 426.182H707.982L706.579 430H704.877L710.742 414.13H712.559L718.401 430H716.699L715.296 426.182ZM714.813 424.848L711.639 416.154L708.465 424.848H714.813ZM723.515 419.673C723.867 418.891 724.404 418.285 725.125 417.856C725.861 417.427 726.758 417.212 727.816 417.212V418.891H727.379C726.213 418.891 725.278 419.205 724.573 419.834C723.867 420.463 723.515 421.513 723.515 422.985V430H721.905V417.442H723.515V419.673ZM730.422 423.721C730.422 422.418 730.682 421.283 731.204 420.317C731.725 419.336 732.446 418.584 733.366 418.063C734.286 417.526 735.336 417.258 736.517 417.258C738.065 417.258 739.338 417.641 740.335 418.408C741.347 419.175 741.998 420.217 742.29 421.536H740.565C740.35 420.631 739.882 419.926 739.162 419.42C738.456 418.899 737.575 418.638 736.517 418.638C735.673 418.638 734.914 418.83 734.24 419.213C733.565 419.596 733.028 420.171 732.63 420.938C732.246 421.689 732.055 422.617 732.055 423.721C732.055 424.825 732.246 425.76 732.63 426.527C733.028 427.294 733.565 427.869 734.24 428.252C734.914 428.635 735.673 428.827 736.517 428.827C737.575 428.827 738.456 428.574 739.162 428.068C739.882 427.547 740.35 426.826 740.565 425.906H742.29C741.998 427.194 741.347 428.229 740.335 429.011C739.323 429.793 738.05 430.184 736.517 430.184C735.336 430.184 734.286 429.923 733.366 429.402C732.446 428.865 731.725 428.114 731.204 427.148C730.682 426.167 730.422 425.024 730.422 423.721ZM752.163 417.212C753.114 417.212 753.965 417.411 754.716 417.81C755.483 418.209 756.081 418.822 756.51 419.65C756.955 420.463 757.177 421.459 757.177 422.64V430H755.59V422.824C755.59 421.459 755.245 420.417 754.555 419.696C753.88 418.975 752.953 418.615 751.772 418.615C750.561 418.615 749.595 418.998 748.874 419.765C748.153 420.532 747.793 421.659 747.793 423.146V430H746.183V412.98H747.793V419.581C748.192 418.83 748.774 418.247 749.541 417.833C750.323 417.419 751.197 417.212 752.163 417.212ZM762.463 415.073C762.141 415.073 761.865 414.958 761.635 414.728C761.405 414.498 761.29 414.214 761.29 413.877C761.29 413.54 761.405 413.264 761.635 413.049C761.865 412.819 762.141 412.704 762.463 412.704C762.785 412.704 763.061 412.819 763.291 413.049C763.521 413.264 763.636 413.54 763.636 413.877C763.636 414.214 763.521 414.498 763.291 414.728C763.061 414.958 762.785 415.073 762.463 415.073ZM763.268 417.442V430H761.658V417.442H763.268ZM769.927 418.799V426.596C769.927 427.363 770.072 427.892 770.364 428.183C770.655 428.474 771.169 428.62 771.905 428.62H773.377V430H771.652C770.517 430 769.674 429.739 769.122 429.218C768.57 428.681 768.294 427.807 768.294 426.596V418.799H766.546V417.442H768.294V414.291H769.927V417.442H773.377V418.799H769.927ZM788.314 423.077C788.314 423.629 788.298 424.051 788.268 424.342H777.849C777.895 425.293 778.125 426.105 778.539 426.78C778.953 427.455 779.497 427.968 780.172 428.321C780.846 428.658 781.582 428.827 782.38 428.827C783.422 428.827 784.296 428.574 785.002 428.068C785.722 427.562 786.198 426.88 786.428 426.021H788.13C787.823 427.248 787.164 428.252 786.152 429.034C785.155 429.801 783.898 430.184 782.38 430.184C781.199 430.184 780.141 429.923 779.206 429.402C778.27 428.865 777.534 428.114 776.998 427.148C776.476 426.167 776.216 425.024 776.216 423.721C776.216 422.418 776.476 421.275 776.998 420.294C777.519 419.313 778.247 418.561 779.183 418.04C780.118 417.519 781.184 417.258 782.38 417.258C783.576 417.258 784.618 417.519 785.508 418.04C786.412 418.561 787.102 419.267 787.578 420.156C788.068 421.03 788.314 422.004 788.314 423.077ZM786.681 423.031C786.696 422.096 786.504 421.298 786.106 420.639C785.722 419.98 785.193 419.481 784.519 419.144C783.844 418.807 783.108 418.638 782.311 418.638C781.115 418.638 780.095 419.021 779.252 419.788C778.408 420.555 777.941 421.636 777.849 423.031H786.681ZM791.443 423.721C791.443 422.418 791.704 421.283 792.225 420.317C792.747 419.336 793.467 418.584 794.387 418.063C795.307 417.526 796.358 417.258 797.538 417.258C799.087 417.258 800.36 417.641 801.356 418.408C802.368 419.175 803.02 420.217 803.311 421.536H801.586C801.372 420.631 800.904 419.926 800.183 419.42C799.478 418.899 798.596 418.638 797.538 418.638C796.695 418.638 795.936 418.83 795.261 419.213C794.587 419.596 794.05 420.171 793.651 420.938C793.268 421.689 793.076 422.617 793.076 423.721C793.076 424.825 793.268 425.76 793.651 426.527C794.05 427.294 794.587 427.869 795.261 428.252C795.936 428.635 796.695 428.827 797.538 428.827C798.596 428.827 799.478 428.574 800.183 428.068C800.904 427.547 801.372 426.826 801.586 425.906H803.311C803.02 427.194 802.368 428.229 801.356 429.011C800.344 429.793 799.072 430.184 797.538 430.184C796.358 430.184 795.307 429.923 794.387 429.402C793.467 428.865 792.747 428.114 792.225 427.148C791.704 426.167 791.443 425.024 791.443 423.721ZM809.298 418.799V426.596C809.298 427.363 809.444 427.892 809.735 428.183C810.026 428.474 810.54 428.62 811.276 428.62H812.748V430H811.023C809.888 430 809.045 429.739 808.493 429.218C807.941 428.681 807.665 427.807 807.665 426.596V418.799H805.917V417.442H807.665V414.291H809.298V417.442H812.748V418.799H809.298ZM827.202 417.442V430H825.592V427.792C825.224 428.574 824.657 429.172 823.89 429.586C823.123 430 822.265 430.207 821.314 430.207C819.811 430.207 818.585 429.747 817.634 428.827C816.683 427.892 816.208 426.542 816.208 424.779V417.442H817.795V424.595C817.795 425.96 818.132 427.002 818.807 427.723C819.497 428.444 820.432 428.804 821.613 428.804C822.824 428.804 823.79 428.421 824.511 427.654C825.232 426.887 825.592 425.76 825.592 424.273V417.442H827.202ZM833.408 419.673C833.76 418.891 834.297 418.285 835.018 417.856C835.754 417.427 836.651 417.212 837.709 417.212V418.891H837.272C836.106 418.891 835.171 419.205 834.466 419.834C833.76 420.463 833.408 421.513 833.408 422.985V430H831.798V417.442H833.408V419.673ZM852.413 423.077C852.413 423.629 852.397 424.051 852.367 424.342H841.948C841.994 425.293 842.224 426.105 842.638 426.78C843.052 427.455 843.596 427.968 844.271 428.321C844.945 428.658 845.681 428.827 846.479 428.827C847.521 428.827 848.395 428.574 849.101 428.068C849.821 427.562 850.297 426.88 850.527 426.021H852.229C851.922 427.248 851.263 428.252 850.251 429.034C849.254 429.801 847.997 430.184 846.479 430.184C845.298 430.184 844.24 429.923 843.305 429.402C842.369 428.865 841.633 428.114 841.097 427.148C840.575 426.167 840.315 425.024 840.315 423.721C840.315 422.418 840.575 421.275 841.097 420.294C841.618 419.313 842.346 418.561 843.282 418.04C844.217 417.519 845.283 417.258 846.479 417.258C847.675 417.258 848.717 417.519 849.607 418.04C850.511 418.561 851.201 419.267 851.677 420.156C852.167 421.03 852.413 422.004 852.413 423.077ZM850.78 423.031C850.795 422.096 850.603 421.298 850.205 420.639C849.821 419.98 849.292 419.481 848.618 419.144C847.943 418.807 847.207 418.638 846.41 418.638C845.214 418.638 844.194 419.021 843.351 419.788C842.507 420.555 842.04 421.636 841.948 423.031H850.78Z" fill="#1CBBDA"/>
<path d="M657.324 401.528C657.324 398.299 657.866 395.779 658.948 393.968C660.05 392.139 661.935 391.224 664.604 391.224C667.274 391.224 669.15 392.139 670.232 393.968C671.334 395.779 671.884 398.299 671.884 401.528C671.884 404.795 671.334 407.352 670.232 409.2C669.15 411.029 667.274 411.944 664.604 411.944C661.935 411.944 660.05 411.029 658.948 409.2C657.866 407.352 657.324 404.795 657.324 401.528ZM668.748 401.528C668.748 400.016 668.646 398.737 668.44 397.692C668.254 396.647 667.862 395.797 667.264 395.144C666.667 394.472 665.78 394.136 664.604 394.136C663.428 394.136 662.542 394.472 661.944 395.144C661.347 395.797 660.946 396.647 660.74 397.692C660.554 398.737 660.46 400.016 660.46 401.528C660.46 403.096 660.554 404.412 660.74 405.476C660.927 406.54 661.319 407.399 661.916 408.052C662.532 408.705 663.428 409.032 664.604 409.032C665.78 409.032 666.667 408.705 667.264 408.052C667.88 407.399 668.282 406.54 668.468 405.476C668.655 404.412 668.748 403.096 668.748 401.528ZM676.326 396.628C676.438 394.892 677.101 393.539 678.314 392.568C679.546 391.597 681.114 391.112 683.018 391.112C684.325 391.112 685.454 391.345 686.406 391.812C687.358 392.279 688.077 392.913 688.562 393.716C689.047 394.519 689.29 395.424 689.29 396.432C689.29 397.589 688.982 398.579 688.366 399.4C687.75 400.221 687.013 400.772 686.154 401.052V401.164C687.255 401.5 688.114 402.116 688.73 403.012C689.346 403.889 689.654 405.019 689.654 406.4C689.654 407.501 689.402 408.481 688.898 409.34C688.394 410.199 687.647 410.88 686.658 411.384C685.669 411.869 684.483 412.112 683.102 412.112C681.086 412.112 679.425 411.599 678.118 410.572C676.83 409.527 676.139 408.033 676.046 406.092H679.126C679.201 407.081 679.583 407.893 680.274 408.528C680.965 409.144 681.898 409.452 683.074 409.452C684.213 409.452 685.09 409.144 685.706 408.528C686.322 407.893 686.63 407.081 686.63 406.092C686.63 404.785 686.21 403.861 685.37 403.32C684.549 402.76 683.279 402.48 681.562 402.48H680.834V399.848H681.59C683.102 399.829 684.25 399.577 685.034 399.092C685.837 398.607 686.238 397.841 686.238 396.796C686.238 395.9 685.949 395.191 685.37 394.668C684.791 394.127 683.97 393.856 682.906 393.856C681.861 393.856 681.049 394.127 680.47 394.668C679.891 395.191 679.546 395.844 679.434 396.628H676.326Z" fill="#8A8A8A"/>
<path d="M1052.62 400.161C1051.56 400.161 1050.63 399.977 1049.81 399.609C1049.02 399.241 1048.39 398.727 1047.93 398.068C1047.47 397.409 1047.22 396.673 1047.19 395.86H1048.89C1048.97 396.642 1049.31 397.332 1049.93 397.93C1050.54 398.513 1051.44 398.804 1052.62 398.804C1053.71 398.804 1054.57 398.528 1055.2 397.976C1055.84 397.409 1056.16 396.696 1056.16 395.837C1056.16 395.147 1055.98 394.595 1055.63 394.181C1055.28 393.752 1054.84 393.437 1054.32 393.238C1053.8 393.023 1053.08 392.793 1052.16 392.548C1051.09 392.257 1050.23 391.973 1049.61 391.697C1048.98 391.421 1048.44 390.992 1048 390.409C1047.55 389.826 1047.33 389.037 1047.33 388.04C1047.33 387.212 1047.54 386.476 1047.97 385.832C1048.4 385.173 1049.01 384.659 1049.79 384.291C1050.57 383.923 1051.47 383.739 1052.48 383.739C1053.97 383.739 1055.16 384.107 1056.07 384.843C1056.99 385.564 1057.52 386.499 1057.66 387.649H1055.91C1055.8 386.99 1055.44 386.407 1054.83 385.901C1054.21 385.38 1053.39 385.119 1052.34 385.119C1051.38 385.119 1050.57 385.38 1049.93 385.901C1049.28 386.407 1048.96 387.105 1048.96 387.994C1048.96 388.669 1049.14 389.213 1049.49 389.627C1049.84 390.041 1050.28 390.355 1050.8 390.57C1051.34 390.785 1052.06 391.015 1052.96 391.26C1054.01 391.551 1054.85 391.843 1055.49 392.134C1056.14 392.41 1056.68 392.839 1057.13 393.422C1057.57 394.005 1057.79 394.787 1057.79 395.768C1057.79 396.519 1057.59 397.232 1057.2 397.907C1056.8 398.582 1056.21 399.126 1055.43 399.54C1054.64 399.954 1053.71 400.161 1052.62 400.161ZM1063.41 390.202C1063.81 389.359 1064.44 388.661 1065.3 388.109C1066.17 387.542 1067.21 387.258 1068.4 387.258C1069.54 387.258 1070.56 387.526 1071.46 388.063C1072.38 388.584 1073.1 389.336 1073.6 390.317C1074.12 391.283 1074.38 392.41 1074.38 393.698C1074.38 394.986 1074.12 396.121 1073.6 397.102C1073.1 398.083 1072.38 398.842 1071.46 399.379C1070.56 399.916 1069.54 400.184 1068.4 400.184C1067.22 400.184 1066.2 399.908 1065.32 399.356C1064.45 398.789 1063.81 398.083 1063.41 397.24V405.934H1061.83V387.442H1063.41V390.202ZM1072.75 393.698C1072.75 392.655 1072.54 391.758 1072.13 391.007C1071.73 390.24 1071.18 389.658 1070.47 389.259C1069.77 388.86 1068.97 388.661 1068.08 388.661C1067.22 388.661 1066.43 388.868 1065.71 389.282C1065.01 389.696 1064.45 390.286 1064.03 391.053C1063.62 391.82 1063.41 392.709 1063.41 393.721C1063.41 394.733 1063.62 395.622 1064.03 396.389C1064.45 397.156 1065.01 397.746 1065.71 398.16C1066.43 398.574 1067.22 398.781 1068.08 398.781C1068.97 398.781 1069.77 398.582 1070.47 398.183C1071.18 397.769 1071.73 397.179 1072.13 396.412C1072.54 395.63 1072.75 394.725 1072.75 393.698ZM1079.88 389.673C1080.23 388.891 1080.77 388.285 1081.49 387.856C1082.22 387.427 1083.12 387.212 1084.18 387.212V388.891H1083.74C1082.57 388.891 1081.64 389.205 1080.93 389.834C1080.23 390.463 1079.88 391.513 1079.88 392.985V400H1078.27V387.442H1079.88V389.673ZM1088.32 385.073C1088 385.073 1087.73 384.958 1087.5 384.728C1087.27 384.498 1087.15 384.214 1087.15 383.877C1087.15 383.54 1087.27 383.264 1087.5 383.049C1087.73 382.819 1088 382.704 1088.32 382.704C1088.65 382.704 1088.92 382.819 1089.15 383.049C1089.38 383.264 1089.5 383.54 1089.5 383.877C1089.5 384.214 1089.38 384.498 1089.15 384.728C1088.92 384.958 1088.65 385.073 1088.32 385.073ZM1089.13 387.442V400H1087.52V387.442H1089.13ZM1099.58 387.212C1101.09 387.212 1102.31 387.68 1103.26 388.615C1104.21 389.535 1104.69 390.877 1104.69 392.64V400H1103.1V392.824C1103.1 391.459 1102.76 390.417 1102.07 389.696C1101.39 388.975 1100.46 388.615 1099.28 388.615C1098.07 388.615 1097.11 388.998 1096.39 389.765C1095.67 390.532 1095.3 391.659 1095.3 393.146V400H1093.69V387.442H1095.3V389.581C1095.7 388.814 1096.28 388.232 1097.03 387.833C1097.78 387.419 1098.63 387.212 1099.58 387.212ZM1111.26 388.799V396.596C1111.26 397.363 1111.41 397.892 1111.7 398.183C1111.99 398.474 1112.5 398.62 1113.24 398.62H1114.71V400H1112.99C1111.85 400 1111.01 399.739 1110.46 399.218C1109.91 398.681 1109.63 397.807 1109.63 396.596V388.799H1107.88V387.442H1109.63V384.291H1111.26V387.442H1114.71V388.799H1111.26ZM1058.02 418.546C1058.02 419.926 1057.57 421.038 1056.67 421.881C1055.76 422.724 1054.41 423.146 1052.6 423.146H1049.35V430H1047.74V413.923H1052.6C1054.39 413.923 1055.74 414.345 1056.64 415.188C1057.56 416.031 1058.02 417.151 1058.02 418.546ZM1052.6 421.766C1055.11 421.766 1056.37 420.693 1056.37 418.546C1056.37 417.473 1056.07 416.66 1055.47 416.108C1054.87 415.556 1053.91 415.28 1052.6 415.28H1049.35V421.766H1052.6ZM1063.26 412.98V430H1061.65V412.98H1063.26ZM1067.09 423.698C1067.09 422.41 1067.34 421.283 1067.84 420.317C1068.37 419.336 1069.08 418.584 1069.98 418.063C1070.9 417.526 1071.94 417.258 1073.09 417.258C1074.28 417.258 1075.31 417.534 1076.17 418.086C1077.04 418.638 1077.67 419.343 1078.06 420.202V417.442H1079.67V430H1078.06V427.217C1077.66 428.076 1077.02 428.789 1076.15 429.356C1075.29 429.908 1074.26 430.184 1073.07 430.184C1071.93 430.184 1070.9 429.916 1069.98 429.379C1069.08 428.842 1068.37 428.083 1067.84 427.102C1067.34 426.121 1067.09 424.986 1067.09 423.698ZM1078.06 423.721C1078.06 422.709 1077.85 421.82 1077.44 421.053C1077.02 420.286 1076.45 419.696 1075.73 419.282C1075.03 418.868 1074.25 418.661 1073.39 418.661C1072.5 418.661 1071.7 418.86 1071 419.259C1070.29 419.658 1069.73 420.24 1069.32 421.007C1068.92 421.758 1068.72 422.655 1068.72 423.698C1068.72 424.725 1068.92 425.63 1069.32 426.412C1069.73 427.179 1070.29 427.769 1071 428.183C1071.7 428.582 1072.5 428.781 1073.39 428.781C1074.25 428.781 1075.03 428.574 1075.73 428.16C1076.45 427.746 1077.02 427.156 1077.44 426.389C1077.85 425.622 1078.06 424.733 1078.06 423.721ZM1090.15 417.212C1091.65 417.212 1092.88 417.68 1093.83 418.615C1094.78 419.535 1095.26 420.877 1095.26 422.64V430H1093.67V422.824C1093.67 421.459 1093.32 420.417 1092.63 419.696C1091.96 418.975 1091.03 418.615 1089.85 418.615C1088.64 418.615 1087.67 418.998 1086.95 419.765C1086.23 420.532 1085.87 421.659 1085.87 423.146V430H1084.26V417.442H1085.87V419.581C1086.27 418.814 1086.85 418.232 1087.6 417.833C1088.35 417.419 1089.2 417.212 1090.15 417.212ZM1105.62 417.212C1107.13 417.212 1108.35 417.68 1109.3 418.615C1110.26 419.535 1110.73 420.877 1110.73 422.64V430H1109.14V422.824C1109.14 421.459 1108.8 420.417 1108.11 419.696C1107.43 418.975 1106.51 418.615 1105.33 418.615C1104.11 418.615 1103.15 418.998 1102.43 419.765C1101.71 420.532 1101.35 421.659 1101.35 423.146V430H1099.74V417.442H1101.35V419.581C1101.75 418.814 1102.32 418.232 1103.07 417.833C1103.82 417.419 1104.67 417.212 1105.62 417.212ZM1116.02 415.073C1115.69 415.073 1115.42 414.958 1115.19 414.728C1114.96 414.498 1114.84 414.214 1114.84 413.877C1114.84 413.54 1114.96 413.264 1115.19 413.049C1115.42 412.819 1115.69 412.704 1116.02 412.704C1116.34 412.704 1116.61 412.819 1116.84 413.049C1117.07 413.264 1117.19 413.54 1117.19 413.877C1117.19 414.214 1117.07 414.498 1116.84 414.728C1116.61 414.958 1116.34 415.073 1116.02 415.073ZM1116.82 417.442V430H1115.21V417.442H1116.82ZM1127.28 417.212C1128.78 417.212 1130 417.68 1130.96 418.615C1131.91 419.535 1132.38 420.877 1132.38 422.64V430H1130.79V422.824C1130.79 421.459 1130.45 420.417 1129.76 419.696C1129.08 418.975 1128.16 418.615 1126.98 418.615C1125.77 418.615 1124.8 418.998 1124.08 419.765C1123.36 420.532 1123 421.659 1123 423.146V430H1121.39V417.442H1123V419.581C1123.4 418.814 1123.97 418.232 1124.72 417.833C1125.47 417.419 1126.32 417.212 1127.28 417.212ZM1142.13 417.258C1143.31 417.258 1144.34 417.534 1145.21 418.086C1146.09 418.638 1146.71 419.336 1147.1 420.179V417.442H1148.71V430.322C1148.71 431.472 1148.45 432.492 1147.95 433.381C1147.46 434.27 1146.77 434.953 1145.88 435.428C1144.99 435.919 1143.98 436.164 1142.84 436.164C1141.23 436.164 1139.89 435.781 1138.82 435.014C1137.76 434.247 1137.1 433.205 1136.84 431.886H1138.43C1138.7 432.76 1139.22 433.458 1139.99 433.979C1140.77 434.5 1141.72 434.761 1142.84 434.761C1143.65 434.761 1144.38 434.585 1145.03 434.232C1145.67 433.895 1146.18 433.389 1146.55 432.714C1146.91 432.039 1147.1 431.242 1147.1 430.322V427.217C1146.7 428.076 1146.06 428.789 1145.19 429.356C1144.33 429.908 1143.31 430.184 1142.13 430.184C1140.98 430.184 1139.94 429.916 1139.02 429.379C1138.12 428.842 1137.41 428.083 1136.89 427.102C1136.38 426.121 1136.13 424.986 1136.13 423.698C1136.13 422.41 1136.38 421.283 1136.89 420.317C1137.41 419.336 1138.12 418.584 1139.02 418.063C1139.94 417.526 1140.98 417.258 1142.13 417.258ZM1147.1 423.721C1147.1 422.709 1146.89 421.82 1146.48 421.053C1146.06 420.286 1145.49 419.696 1144.77 419.282C1144.07 418.868 1143.29 418.661 1142.43 418.661C1141.54 418.661 1140.74 418.86 1140.04 419.259C1139.33 419.658 1138.77 420.24 1138.36 421.007C1137.96 421.758 1137.76 422.655 1137.76 423.698C1137.76 424.725 1137.96 425.63 1138.36 426.412C1138.77 427.179 1139.33 427.769 1140.04 428.183C1140.74 428.582 1141.54 428.781 1142.43 428.781C1143.29 428.781 1144.07 428.574 1144.77 428.16C1145.49 427.746 1146.06 427.156 1146.48 426.389C1146.89 425.622 1147.1 424.733 1147.1 423.721Z" fill="#1CBBDA"/>
<path d="M998.6 400.835C998.6 397.605 999.142 395.085 1000.22 393.275C1001.33 391.445 1003.21 390.531 1005.88 390.531C1008.55 390.531 1010.43 391.445 1011.51 393.275C1012.61 395.085 1013.16 397.605 1013.16 400.835C1013.16 404.101 1012.61 406.659 1011.51 408.507C1010.43 410.336 1008.55 411.251 1005.88 411.251C1003.21 411.251 1001.33 410.336 1000.22 408.507C999.142 406.659 998.6 404.101 998.6 400.835ZM1010.02 400.835C1010.02 399.323 1009.92 398.044 1009.72 396.999C1009.53 395.953 1009.14 395.104 1008.54 394.451C1007.94 393.779 1007.06 393.443 1005.88 393.443C1004.7 393.443 1003.82 393.779 1003.22 394.451C1002.62 395.104 1002.22 395.953 1002.02 396.999C1001.83 398.044 1001.74 399.323 1001.74 400.835C1001.74 402.403 1001.83 403.719 1002.02 404.783C1002.2 405.847 1002.6 406.705 1003.19 407.359C1003.81 408.012 1004.7 408.339 1005.88 408.339C1007.06 408.339 1007.94 408.012 1008.54 407.359C1009.16 406.705 1009.56 405.847 1009.74 404.783C1009.93 403.719 1010.02 402.403 1010.02 400.835ZM1017.27 407.051V404.643L1026.67 391.147H1030.54V404.279H1033.14V407.051H1030.54V411.307H1027.4V407.051H1017.27ZM1027.54 394.395L1020.93 404.279H1027.54V394.395Z" fill="#8A8A8A"/>
<rect width="22.2987" height="22.2987" transform="matrix(0.716455 0.697633 -0.716455 0.697633 347.69 341)" fill="#1CBBDA"/>
<rect width="16.2173" height="16.2173" transform="matrix(0.716455 0.697633 -0.716455 0.697633 347.69 345.243)" fill="#001219"/>
<rect width="22.2987" height="22.2987" transform="matrix(0.716455 0.697633 -0.716455 0.697633 15.9756 341)" fill="#1CBBDA"/>
<rect width="16.2173" height="16.2173" transform="matrix(0.716455 0.697633 -0.716455 0.697633 15.9756 345.243)" fill="#001219"/>
<rect width="22.2987" height="22.2987" transform="matrix(0.716455 0.697633 -0.716455 0.697633 667.08 341)" fill="#1CBBDA"/>
<rect width="16.2173" height="16.2173" transform="matrix(0.716455 0.697633 -0.716455 0.697633 667.08 345.243)" fill="#001219"/>
<rect width="22.2987" height="22.2987" transform="matrix(0.716455 0.697633 -0.716455 0.697633 1292.51 341)" fill="#1CBBDA"/>
<rect width="16.2173" height="16.2173" transform="matrix(0.716455 0.697633 -0.716455 0.697633 1292.51 345.243)" fill="#001219"/>
<path d="M1350.33 383.923C1352.11 383.923 1353.64 384.245 1354.91 384.889C1356.18 385.533 1357.16 386.461 1357.83 387.672C1358.51 388.883 1358.84 390.325 1358.84 391.996C1358.84 393.652 1358.51 395.086 1357.83 396.297C1357.16 397.493 1356.18 398.413 1354.91 399.057C1353.64 399.686 1352.11 400 1350.33 400H1345.57V383.923H1350.33ZM1350.33 398.666C1352.57 398.666 1354.28 398.083 1355.44 396.918C1356.62 395.737 1357.21 394.097 1357.21 391.996C1357.21 389.88 1356.62 388.232 1355.44 387.051C1354.28 385.855 1352.57 385.257 1350.33 385.257H1347.18V398.666H1350.33ZM1374.09 393.077C1374.09 393.629 1374.08 394.051 1374.05 394.342H1363.63C1363.68 395.293 1363.91 396.105 1364.32 396.78C1364.73 397.455 1365.28 397.968 1365.95 398.321C1366.63 398.658 1367.36 398.827 1368.16 398.827C1369.2 398.827 1370.08 398.574 1370.78 398.068C1371.5 397.562 1371.98 396.88 1372.21 396.021H1373.91C1373.6 397.248 1372.94 398.252 1371.93 399.034C1370.94 399.801 1369.68 400.184 1368.16 400.184C1366.98 400.184 1365.92 399.923 1364.99 399.402C1364.05 398.865 1363.32 398.114 1362.78 397.148C1362.26 396.167 1362 395.024 1362 393.721C1362 392.418 1362.26 391.275 1362.78 390.294C1363.3 389.313 1364.03 388.561 1364.96 388.04C1365.9 387.519 1366.96 387.258 1368.16 387.258C1369.36 387.258 1370.4 387.519 1371.29 388.04C1372.19 388.561 1372.88 389.267 1373.36 390.156C1373.85 391.03 1374.09 392.004 1374.09 393.077ZM1372.46 393.031C1372.48 392.096 1372.29 391.298 1371.89 390.639C1371.5 389.98 1370.97 389.481 1370.3 389.144C1369.62 388.807 1368.89 388.638 1368.09 388.638C1366.9 388.638 1365.88 389.021 1365.03 389.788C1364.19 390.555 1363.72 391.636 1363.63 393.031H1372.46ZM1379.57 382.98V400H1377.96V382.98H1379.57ZM1384.94 385.073C1384.62 385.073 1384.34 384.958 1384.11 384.728C1383.88 384.498 1383.77 384.214 1383.77 383.877C1383.77 383.54 1383.88 383.264 1384.11 383.049C1384.34 382.819 1384.62 382.704 1384.94 382.704C1385.26 382.704 1385.54 382.819 1385.77 383.049C1386 383.264 1386.11 383.54 1386.11 383.877C1386.11 384.214 1386 384.498 1385.77 384.728C1385.54 384.958 1385.26 385.073 1384.94 385.073ZM1385.75 387.442V400H1384.14V387.442H1385.75ZM1394.77 398.436L1399.01 387.442H1400.71L1395.67 400H1393.85L1388.82 387.442H1390.54L1394.77 398.436ZM1415.17 393.077C1415.17 393.629 1415.16 394.051 1415.13 394.342H1404.71C1404.75 395.293 1404.98 396.105 1405.4 396.78C1405.81 397.455 1406.36 397.968 1407.03 398.321C1407.7 398.658 1408.44 398.827 1409.24 398.827C1410.28 398.827 1411.15 398.574 1411.86 398.068C1412.58 397.562 1413.06 396.88 1413.29 396.021H1414.99C1414.68 397.248 1414.02 398.252 1413.01 399.034C1412.01 399.801 1410.76 400.184 1409.24 400.184C1408.06 400.184 1407 399.923 1406.06 399.402C1405.13 398.865 1404.39 398.114 1403.86 397.148C1403.33 396.167 1403.07 395.024 1403.07 393.721C1403.07 392.418 1403.33 391.275 1403.86 390.294C1404.38 389.313 1405.11 388.561 1406.04 388.04C1406.98 387.519 1408.04 387.258 1409.24 387.258C1410.43 387.258 1411.48 387.519 1412.37 388.04C1413.27 388.561 1413.96 389.267 1414.44 390.156C1414.93 391.03 1415.17 392.004 1415.17 393.077ZM1413.54 393.031C1413.55 392.096 1413.36 391.298 1412.96 390.639C1412.58 389.98 1412.05 389.481 1411.38 389.144C1410.7 388.807 1409.97 388.638 1409.17 388.638C1407.97 388.638 1406.95 389.021 1406.11 389.788C1405.27 390.555 1404.8 391.636 1404.71 393.031H1413.54ZM1420.65 389.673C1421 388.891 1421.54 388.285 1422.26 387.856C1422.99 387.427 1423.89 387.212 1424.95 387.212V388.891H1424.51C1423.35 388.891 1422.41 389.205 1421.71 389.834C1421 390.463 1420.65 391.513 1420.65 392.985V400H1419.04V387.442H1420.65V389.673ZM1438.64 387.442L1431.19 405.911H1429.51L1431.95 399.931L1426.8 387.442H1428.57L1432.84 398.16L1436.98 387.442H1438.64ZM1461.21 400L1459.03 397.769C1458.24 398.628 1457.41 399.264 1456.52 399.678C1455.63 400.077 1454.63 400.276 1453.51 400.276C1452.43 400.276 1451.48 400.077 1450.65 399.678C1449.83 399.264 1449.18 398.689 1448.72 397.953C1448.26 397.217 1448.03 396.366 1448.03 395.4C1448.03 394.265 1448.35 393.276 1449 392.433C1449.64 391.59 1450.59 390.93 1451.83 390.455C1451.29 389.857 1450.9 389.305 1450.65 388.799C1450.41 388.278 1450.29 387.718 1450.29 387.12C1450.29 386.093 1450.65 385.265 1451.39 384.636C1452.13 383.992 1453.11 383.67 1454.33 383.67C1455.48 383.67 1456.42 384 1457.14 384.659C1457.86 385.318 1458.2 386.177 1458.15 387.235H1456.54C1456.56 386.545 1456.34 386.001 1455.9 385.602C1455.47 385.203 1454.92 385.004 1454.27 385.004C1453.56 385.004 1452.99 385.203 1452.54 385.602C1452.11 385.985 1451.9 386.484 1451.9 387.097C1451.9 387.588 1452.03 388.063 1452.29 388.523C1452.56 388.983 1452.99 389.527 1453.58 390.156L1458.87 395.515C1459.08 395.224 1459.37 394.764 1459.74 394.135L1461.21 391.674H1462.94L1461.19 394.687C1460.77 395.408 1460.36 396.052 1459.95 396.619L1463.3 400H1461.21ZM1453.51 398.873C1454.41 398.873 1455.22 398.697 1455.92 398.344C1456.64 397.991 1457.32 397.439 1457.97 396.688L1452.84 391.49C1450.71 392.272 1449.64 393.56 1449.64 395.354C1449.64 396.029 1449.8 396.634 1450.13 397.171C1450.46 397.692 1450.92 398.106 1451.51 398.413C1452.09 398.72 1452.76 398.873 1453.51 398.873ZM1350.45 430.161C1349.39 430.161 1348.46 429.977 1347.64 429.609C1346.85 429.241 1346.22 428.727 1345.76 428.068C1345.3 427.409 1345.05 426.673 1345.02 425.86H1346.72C1346.8 426.642 1347.15 427.332 1347.76 427.93C1348.37 428.513 1349.27 428.804 1350.45 428.804C1351.54 428.804 1352.4 428.528 1353.03 427.976C1353.67 427.409 1353.99 426.696 1353.99 425.837C1353.99 425.147 1353.82 424.595 1353.46 424.181C1353.11 423.752 1352.67 423.437 1352.15 423.238C1351.63 423.023 1350.91 422.793 1349.99 422.548C1348.92 422.257 1348.07 421.973 1347.44 421.697C1346.81 421.421 1346.27 420.992 1345.83 420.409C1345.38 419.826 1345.16 419.037 1345.16 418.04C1345.16 417.212 1345.37 416.476 1345.8 415.832C1346.23 415.173 1346.84 414.659 1347.62 414.291C1348.4 413.923 1349.3 413.739 1350.31 413.739C1351.8 413.739 1352.99 414.107 1353.9 414.843C1354.82 415.564 1355.35 416.499 1355.49 417.649H1353.74C1353.63 416.99 1353.27 416.407 1352.66 415.901C1352.04 415.38 1351.22 415.119 1350.17 415.119C1349.21 415.119 1348.4 415.38 1347.76 415.901C1347.11 416.407 1346.79 417.105 1346.79 417.994C1346.79 418.669 1346.97 419.213 1347.32 419.627C1347.67 420.041 1348.11 420.355 1348.63 420.57C1349.17 420.785 1349.89 421.015 1350.79 421.26C1351.84 421.551 1352.68 421.843 1353.32 422.134C1353.97 422.41 1354.51 422.839 1354.96 423.422C1355.4 424.005 1355.62 424.787 1355.62 425.768C1355.62 426.519 1355.43 427.232 1355.03 427.907C1354.63 428.582 1354.04 429.126 1353.26 429.54C1352.47 429.954 1351.54 430.161 1350.45 430.161ZM1370.53 417.442V430H1368.92V427.792C1368.56 428.574 1367.99 429.172 1367.22 429.586C1366.46 430 1365.6 430.207 1364.65 430.207C1363.14 430.207 1361.92 429.747 1360.97 428.827C1360.02 427.892 1359.54 426.542 1359.54 424.779V417.442H1361.13V424.595C1361.13 425.96 1361.46 427.002 1362.14 427.723C1362.83 428.444 1363.76 428.804 1364.95 428.804C1366.16 428.804 1367.12 428.421 1367.84 427.654C1368.56 426.887 1368.92 425.76 1368.92 424.273V417.442H1370.53ZM1376.72 420.202C1377.12 419.359 1377.74 418.661 1378.6 418.109C1379.48 417.542 1380.51 417.258 1381.71 417.258C1382.84 417.258 1383.86 417.526 1384.77 418.063C1385.69 418.584 1386.4 419.336 1386.91 420.317C1387.43 421.283 1387.69 422.41 1387.69 423.698C1387.69 424.986 1387.43 426.121 1386.91 427.102C1386.4 428.083 1385.69 428.842 1384.77 429.379C1383.86 429.916 1382.84 430.184 1381.71 430.184C1380.53 430.184 1379.5 429.908 1378.63 429.356C1377.75 428.789 1377.12 428.083 1376.72 427.24V435.934H1375.13V417.442H1376.72V420.202ZM1386.06 423.698C1386.06 422.655 1385.85 421.758 1385.43 421.007C1385.04 420.24 1384.48 419.658 1383.78 419.259C1383.07 418.86 1382.28 418.661 1381.39 418.661C1380.53 418.661 1379.74 418.868 1379.02 419.282C1378.31 419.696 1377.75 420.286 1377.34 421.053C1376.92 421.82 1376.72 422.709 1376.72 423.721C1376.72 424.733 1376.92 425.622 1377.34 426.389C1377.75 427.156 1378.31 427.746 1379.02 428.16C1379.74 428.574 1380.53 428.781 1381.39 428.781C1382.28 428.781 1383.07 428.582 1383.78 428.183C1384.48 427.769 1385.04 427.179 1385.43 426.412C1385.85 425.63 1386.06 424.725 1386.06 423.698ZM1393.16 420.202C1393.56 419.359 1394.19 418.661 1395.04 418.109C1395.92 417.542 1396.95 417.258 1398.15 417.258C1399.28 417.258 1400.3 417.526 1401.21 418.063C1402.13 418.584 1402.84 419.336 1403.35 420.317C1403.87 421.283 1404.13 422.41 1404.13 423.698C1404.13 424.986 1403.87 426.121 1403.35 427.102C1402.84 428.083 1402.13 428.842 1401.21 429.379C1400.3 429.916 1399.28 430.184 1398.15 430.184C1396.97 430.184 1395.94 429.908 1395.07 429.356C1394.19 428.789 1393.56 428.083 1393.16 427.24V435.934H1391.57V417.442H1393.16V420.202ZM1402.5 423.698C1402.5 422.655 1402.29 421.758 1401.87 421.007C1401.48 420.24 1400.92 419.658 1400.22 419.259C1399.51 418.86 1398.72 418.661 1397.83 418.661C1396.97 418.661 1396.18 418.868 1395.46 419.282C1394.75 419.696 1394.19 420.286 1393.78 421.053C1393.36 421.82 1393.16 422.709 1393.16 423.721C1393.16 424.733 1393.36 425.622 1393.78 426.389C1394.19 427.156 1394.75 427.746 1395.46 428.16C1396.18 428.574 1396.97 428.781 1397.83 428.781C1398.72 428.781 1399.51 428.582 1400.22 428.183C1400.92 427.769 1401.48 427.179 1401.87 426.412C1402.29 425.63 1402.5 424.725 1402.5 423.698ZM1413.51 430.184C1412.33 430.184 1411.26 429.923 1410.31 429.402C1409.38 428.865 1408.63 428.114 1408.08 427.148C1407.54 426.167 1407.28 425.024 1407.28 423.721C1407.28 422.418 1407.55 421.283 1408.1 420.317C1408.66 419.336 1409.41 418.584 1410.36 418.063C1411.31 417.526 1412.37 417.258 1413.55 417.258C1414.73 417.258 1415.8 417.526 1416.75 418.063C1417.72 418.584 1418.47 419.336 1419.01 420.317C1419.56 421.283 1419.83 422.418 1419.83 423.721C1419.83 425.009 1419.56 426.144 1419.01 427.125C1418.45 428.106 1417.69 428.865 1416.73 429.402C1415.76 429.923 1414.69 430.184 1413.51 430.184ZM1413.51 428.781C1414.34 428.781 1415.1 428.597 1415.81 428.229C1416.51 427.846 1417.08 427.278 1417.51 426.527C1417.95 425.76 1418.18 424.825 1418.18 423.721C1418.18 422.617 1417.96 421.689 1417.53 420.938C1417.1 420.171 1416.54 419.604 1415.83 419.236C1415.13 418.853 1414.36 418.661 1413.53 418.661C1412.7 418.661 1411.94 418.853 1411.23 419.236C1410.53 419.604 1409.96 420.171 1409.53 420.938C1409.12 421.689 1408.91 422.617 1408.91 423.721C1408.91 424.825 1409.12 425.76 1409.53 426.527C1409.96 427.278 1410.52 427.846 1411.21 428.229C1411.91 428.597 1412.68 428.781 1413.51 428.781ZM1425.3 419.673C1425.65 418.891 1426.19 418.285 1426.91 417.856C1427.64 417.427 1428.54 417.212 1429.6 417.212V418.891H1429.16C1428 418.891 1427.06 419.205 1426.36 419.834C1425.65 420.463 1425.3 421.513 1425.3 422.985V430H1423.69V417.442H1425.3V419.673ZM1435.03 418.799V426.596C1435.03 427.363 1435.18 427.892 1435.47 428.183C1435.76 428.474 1436.28 428.62 1437.01 428.62H1438.48V430H1436.76C1435.62 430 1434.78 429.739 1434.23 429.218C1433.68 428.681 1433.4 427.807 1433.4 426.596V418.799H1431.65V417.442H1433.4V414.291H1435.03V417.442H1438.48V418.799H1435.03Z" fill="#1CBBDA"/>
<path d="M1294.29 401.721C1294.29 398.492 1294.83 395.972 1295.91 394.161C1297.01 392.332 1298.9 391.417 1301.57 391.417C1304.24 391.417 1306.11 392.332 1307.2 394.161C1308.3 395.972 1308.85 398.492 1308.85 401.721C1308.85 404.988 1308.3 407.545 1307.2 409.393C1306.11 411.223 1304.24 412.137 1301.57 412.137C1298.9 412.137 1297.01 411.223 1295.91 409.393C1294.83 407.545 1294.29 404.988 1294.29 401.721ZM1305.71 401.721C1305.71 400.209 1305.61 398.931 1305.41 397.885C1305.22 396.84 1304.83 395.991 1304.23 395.337C1303.63 394.665 1302.75 394.329 1301.57 394.329C1300.39 394.329 1299.51 394.665 1298.91 395.337C1298.31 395.991 1297.91 396.84 1297.71 397.885C1297.52 398.931 1297.43 400.209 1297.43 401.721C1297.43 403.289 1297.52 404.605 1297.71 405.669C1297.89 406.733 1298.28 407.592 1298.88 408.245C1299.5 408.899 1300.39 409.225 1301.57 409.225C1302.75 409.225 1303.63 408.899 1304.23 408.245C1304.85 407.592 1305.25 406.733 1305.43 405.669C1305.62 404.605 1305.71 403.289 1305.71 401.721ZM1326.28 394.245L1318.5 412.193H1315.28L1323.15 394.581H1312.79V391.865H1326.28V394.245Z" fill="#8A8A8A"/>
<path d="M988.413 13.1551C989.798 11.8066 992.044 11.8066 993.428 13.1551L1168.89 184.003L990.921 357.292L812.956 184.003L988.413 13.1551Z" stroke="#1CBBDA"/>
<rect width="19.3194" height="19.3194" transform="matrix(0.716455 0.697633 -0.716455 0.697633 991.06 343.956)" fill="#1CBBDA"/>
<rect width="14.0505" height="14.0505" transform="matrix(0.716455 0.697633 -0.716455 0.697633 991.059 347.632)" fill="#001219"/>
<rect width="22.2987" height="22.2987" transform="matrix(0.716455 0.697633 -0.716455 0.697633 811.887 167)" fill="#1CBBDA"/>
<rect width="16.2173" height="16.2173" transform="matrix(0.716455 0.697633 -0.716455 0.697633 811.887 171.243)" fill="#001219"/>
<rect width="22.2987" height="22.2987" transform="matrix(0.716455 0.697633 -0.716455 0.697633 1169.28 166)" fill="#1CBBDA"/>
<rect width="16.2173" height="16.2173" transform="matrix(0.716455 0.697633 -0.716455 0.697633 1169.28 170.243)" fill="#001219"/>
<path d="M276.829 388L292.805 403.556L276.829 419.113L288.139 403.556" fill="#1CBBDA"/>
<path d="M575.68 388L591.656 403.556L575.68 419.113L586.989 403.556" fill="#1CBBDA"/>
<path d="M912.529 388L928.505 403.556L912.529 419.113L923.839 403.556" fill="#1CBBDA"/>
<path d="M1206.01 388L1221.98 403.556L1206.01 419.113L1217.32 403.556" fill="#1CBBDA"/>
<path d="M1405.94 181C1405.94 181 1418.26 175 1418.26 166V155.5L1405.94 151L1393.61 155.5V166C1393.61 175 1405.94 181 1405.94 181Z" stroke="#8A8A8A" stroke-width="3" stroke-linecap="round" stroke-linejoin="round"/>
<path d="M1412.33 161.692L1404.94 168.894L1401.58 165.62" stroke="#1CBBDA" stroke-width="3" stroke-linecap="round" stroke-linejoin="round"/>
<path d="M4.10742 306.17V309.583H22.7834L21.4868 306.17H4.10742ZM4.10742 312.996V316.409H25.1387V312.996H4.10742ZM4.10742 319.822V323.235H32.1491V319.822H4.10742Z" fill="#707070"/>
<path d="M36.9054 305.837C36.0978 310.802 31.3098 314.189 26.211 313.403C21.1122 312.617 17.6335 307.954 18.4411 302.99C19.2487 298.025 24.0367 294.637 29.1355 295.424C34.2343 296.21 37.713 300.872 36.9054 305.837Z" stroke="#1CBBDA" stroke-width="3" stroke-linecap="round" stroke-linejoin="round"/>
<path d="M37.3851 317.43L33.1602 311.768" stroke="#1CBBDA" stroke-width="3" stroke-linecap="round" stroke-linejoin="round"/>
<path d="M348.146 327C343.757 327 339.63 325.336 336.527 322.314C333.423 319.292 331.714 315.274 331.714 311C331.714 306.726 333.423 302.708 336.527 299.686C339.63 296.664 343.757 295 348.146 295C350.828 295 353.483 295.638 355.824 296.845L353.984 298.636C352.147 297.81 350.183 297.391 348.146 297.391C340.439 297.391 334.17 303.496 334.17 311C334.17 318.504 340.439 324.608 348.146 324.608C355.852 324.608 362.121 318.504 362.121 311C362.121 310.457 362.087 309.909 362.021 309.372L364.141 307.308C364.431 308.512 364.578 309.754 364.578 311C364.578 315.274 362.868 319.292 359.765 322.314C356.661 325.336 352.535 327 348.146 327Z" fill="#707070"/>
<path d="M343.229 302.342C343.865 301.985 344.54 301.689 345.235 301.463C345.912 301.243 346.613 301.089 347.317 301.004C348.009 300.92 348.715 300.902 349.415 300.95C350.114 300.998 350.805 301.112 351.47 301.286C352.143 301.461 352.8 301.7 353.423 301.995C354.05 302.292 354.652 302.651 355.213 303.063C355.78 303.48 356.307 303.955 356.78 304.475C357.264 305.005 357.696 305.59 358.065 306.213C358.435 306.836 358.739 307.493 358.969 308.166C359.194 308.824 359.353 309.506 359.44 310.194C359.527 310.873 359.545 311.56 359.495 312.237C359.446 312.913 359.33 313.586 359.15 314.238C358.97 314.893 358.725 315.533 358.421 316.139C358.117 316.75 357.748 317.336 357.325 317.882C356.896 318.435 356.408 318.948 355.875 319.408C355.33 319.879 354.73 320.3 354.09 320.66C353.45 321.02 352.775 321.316 352.084 321.539C351.407 321.759 350.707 321.914 350.002 321.999C349.694 322.036 349.38 322.06 349.069 322.071L349.702 319.773C350.845 319.638 351.934 319.283 352.939 318.718C357.026 316.421 358.431 311.314 356.072 307.334C353.712 303.354 348.467 301.986 344.38 304.284C340.293 306.581 338.888 311.688 341.247 315.668C341.327 315.802 341.411 315.936 341.499 316.066L340.758 318.76C340.683 318.683 340.61 318.605 340.539 318.527C340.053 317.993 339.62 317.408 339.253 316.789C338.886 316.17 338.582 315.513 338.35 314.836C338.125 314.175 337.966 313.493 337.879 312.808C337.793 312.135 337.774 311.447 337.824 310.765C337.873 310.088 337.989 309.415 338.169 308.764C338.348 308.113 338.593 307.473 338.897 306.863C339.205 306.248 339.574 305.662 339.995 305.121C340.422 304.57 340.909 304.056 341.444 303.594C341.992 303.121 342.593 302.7 343.229 302.342Z" fill="#707070"/>
<path d="M346.538 315.667L342.24 311.887C341.981 311.66 341.981 311.292 342.24 311.065L343.175 310.242C343.433 310.015 343.852 310.015 344.11 310.242L347.006 312.789L353.208 307.334C353.466 307.107 353.885 307.107 354.143 307.334L355.078 308.157C355.337 308.384 355.337 308.752 355.078 308.979L347.473 315.667C347.215 315.895 346.796 315.895 346.538 315.667Z" fill="#1CBBDA"/>
<path d="M652.105 306C652.105 304.343 653.449 303 655.105 303H659.429C661.086 303 662.429 304.343 662.429 306V310C662.429 311.657 661.086 313 659.429 313H655.105C653.449 313 652.105 311.657 652.105 310V306Z" stroke="#8A8A8A" stroke-width="2"/>
<path d="M652.105 321C652.105 319.343 653.449 318 655.105 318H659.429C661.086 318 662.429 319.343 662.429 321V325C662.429 326.657 661.086 328 659.429 328H655.105C653.449 328 652.105 326.657 652.105 325V321Z" stroke="#1CBBDA" stroke-width="2"/>
<path d="M668.537 306C668.537 304.343 669.88 303 671.537 303H675.861C677.518 303 678.861 304.343 678.861 306V310C678.861 311.657 677.518 313 675.861 313H671.537C669.88 313 668.537 311.657 668.537 310V306Z" stroke="#8A8A8A" stroke-width="2"/>
<path d="M1262.31 156.697C1263.22 156.866 1263.98 157.326 1264.61 158.077C1265.24 158.828 1265.55 159.702 1265.55 160.699C1265.55 161.512 1265.35 162.248 1264.93 162.907C1264.53 163.551 1263.94 164.065 1263.16 164.448C1262.38 164.816 1261.44 165 1260.36 165H1254.79V148.923H1260.2C1261.82 148.923 1263.05 149.299 1263.9 150.05C1264.76 150.801 1265.19 151.775 1265.19 152.971C1265.19 153.968 1264.92 154.78 1264.38 155.409C1263.84 156.022 1263.15 156.452 1262.31 156.697ZM1256.4 156.03H1260.15C1261.24 156.03 1262.07 155.777 1262.66 155.271C1263.25 154.75 1263.55 154.037 1263.55 153.132C1263.55 152.243 1263.25 151.545 1262.66 151.039C1262.07 150.533 1261.21 150.28 1260.08 150.28H1256.4V156.03ZM1260.24 163.643C1261.41 163.643 1262.31 163.367 1262.96 162.815C1263.61 162.263 1263.94 161.504 1263.94 160.538C1263.94 159.572 1263.6 158.805 1262.91 158.238C1262.23 157.655 1261.32 157.364 1260.17 157.364H1256.4V163.643H1260.24ZM1268.7 158.698C1268.7 157.41 1268.95 156.283 1269.46 155.317C1269.98 154.336 1270.69 153.584 1271.6 153.063C1272.52 152.526 1273.55 152.258 1274.7 152.258C1275.9 152.258 1276.92 152.534 1277.78 153.086C1278.66 153.638 1279.29 154.343 1279.67 155.202V152.442H1281.28V165H1279.67V162.217C1279.27 163.076 1278.63 163.789 1277.76 164.356C1276.9 164.908 1275.87 165.184 1274.68 165.184C1273.54 165.184 1272.52 164.916 1271.6 164.379C1270.69 163.842 1269.98 163.083 1269.46 162.102C1268.95 161.121 1268.7 159.986 1268.7 158.698ZM1279.67 158.721C1279.67 157.709 1279.46 156.82 1279.05 156.053C1278.63 155.286 1278.07 154.696 1277.35 154.282C1276.64 153.868 1275.86 153.661 1275 153.661C1274.11 153.661 1273.31 153.86 1272.61 154.259C1271.9 154.658 1271.34 155.24 1270.93 156.007C1270.53 156.758 1270.33 157.655 1270.33 158.698C1270.33 159.725 1270.53 160.63 1270.93 161.412C1271.34 162.179 1271.9 162.769 1272.61 163.183C1273.31 163.582 1274.11 163.781 1275 163.781C1275.86 163.781 1276.64 163.574 1277.35 163.16C1278.07 162.746 1278.63 162.156 1279.05 161.389C1279.46 160.622 1279.67 159.733 1279.67 158.721ZM1285.14 158.721C1285.14 157.418 1285.4 156.283 1285.92 155.317C1286.44 154.336 1287.16 153.584 1288.08 153.063C1289 152.526 1290.05 152.258 1291.23 152.258C1292.78 152.258 1294.05 152.641 1295.05 153.408C1296.06 154.175 1296.72 155.217 1297.01 156.536H1295.28C1295.07 155.631 1294.6 154.926 1293.88 154.42C1293.17 153.899 1292.29 153.638 1291.23 153.638C1290.39 153.638 1289.63 153.83 1288.96 154.213C1288.28 154.596 1287.75 155.171 1287.35 155.938C1286.96 156.689 1286.77 157.617 1286.77 158.721C1286.77 159.825 1286.96 160.76 1287.35 161.527C1287.75 162.294 1288.28 162.869 1288.96 163.252C1289.63 163.635 1290.39 163.827 1291.23 163.827C1292.29 163.827 1293.17 163.574 1293.88 163.068C1294.6 162.547 1295.07 161.826 1295.28 160.906H1297.01C1296.72 162.194 1296.06 163.229 1295.05 164.011C1294.04 164.793 1292.77 165.184 1291.23 165.184C1290.05 165.184 1289 164.923 1288.08 164.402C1287.16 163.865 1286.44 163.114 1285.92 162.148C1285.4 161.167 1285.14 160.024 1285.14 158.721ZM1307.68 165L1302.51 159.365V165H1300.9V147.98H1302.51V158.054L1307.57 152.442H1309.82L1303.87 158.698L1309.87 165H1307.68ZM1314.48 147.98V165H1312.87V147.98H1314.48ZM1324.54 165.184C1323.36 165.184 1322.3 164.923 1321.35 164.402C1320.41 163.865 1319.67 163.114 1319.12 162.148C1318.58 161.167 1318.31 160.024 1318.31 158.721C1318.31 157.418 1318.59 156.283 1319.14 155.317C1319.69 154.336 1320.44 153.584 1321.39 153.063C1322.34 152.526 1323.41 152.258 1324.59 152.258C1325.77 152.258 1326.84 152.526 1327.79 153.063C1328.75 153.584 1329.5 154.336 1330.04 155.317C1330.59 156.283 1330.87 157.418 1330.87 158.721C1330.87 160.009 1330.59 161.144 1330.04 162.125C1329.49 163.106 1328.73 163.865 1327.76 164.402C1326.8 164.923 1325.72 165.184 1324.54 165.184ZM1324.54 163.781C1325.37 163.781 1326.14 163.597 1326.84 163.229C1327.55 162.846 1328.12 162.278 1328.55 161.527C1328.99 160.76 1329.21 159.825 1329.21 158.721C1329.21 157.617 1329 156.689 1328.57 155.938C1328.14 155.171 1327.57 154.604 1326.87 154.236C1326.16 153.853 1325.39 153.661 1324.57 153.661C1323.74 153.661 1322.97 153.853 1322.27 154.236C1321.56 154.604 1320.99 155.171 1320.56 155.938C1320.15 156.689 1319.94 157.617 1319.94 158.721C1319.94 159.825 1320.15 160.76 1320.56 161.527C1320.99 162.278 1321.55 162.846 1322.24 163.229C1322.95 163.597 1323.72 163.781 1324.54 163.781ZM1339.99 152.258C1341.17 152.258 1342.2 152.534 1343.07 153.086C1343.95 153.638 1344.57 154.336 1344.96 155.179V152.442H1346.57V165.322C1346.57 166.472 1346.32 167.492 1345.81 168.381C1345.32 169.27 1344.63 169.953 1343.74 170.428C1342.85 170.919 1341.84 171.164 1340.7 171.164C1339.09 171.164 1337.75 170.781 1336.68 170.014C1335.62 169.247 1334.96 168.205 1334.7 166.886H1336.29C1336.56 167.76 1337.08 168.458 1337.85 168.979C1338.63 169.5 1339.58 169.761 1340.7 169.761C1341.52 169.761 1342.24 169.585 1342.89 169.232C1343.53 168.895 1344.04 168.389 1344.41 167.714C1344.77 167.039 1344.96 166.242 1344.96 165.322V162.217C1344.56 163.076 1343.92 163.789 1343.05 164.356C1342.19 164.908 1341.17 165.184 1339.99 165.184C1338.84 165.184 1337.81 164.916 1336.89 164.379C1335.98 163.842 1335.27 163.083 1334.75 162.102C1334.24 161.121 1333.99 159.986 1333.99 158.698C1333.99 157.41 1334.24 156.283 1334.75 155.317C1335.27 154.336 1335.98 153.584 1336.89 153.063C1337.81 152.526 1338.84 152.258 1339.99 152.258ZM1344.96 158.721C1344.96 157.709 1344.75 156.82 1344.34 156.053C1343.92 155.286 1343.36 154.696 1342.64 154.282C1341.93 153.868 1341.15 153.661 1340.29 153.661C1339.4 153.661 1338.6 153.86 1337.9 154.259C1337.19 154.658 1336.63 155.24 1336.22 156.007C1335.82 156.758 1335.62 157.655 1335.62 158.698C1335.62 159.725 1335.82 160.63 1336.22 161.412C1336.63 162.179 1337.19 162.769 1337.9 163.183C1338.6 163.582 1339.4 163.781 1340.29 163.781C1341.15 163.781 1341.93 163.574 1342.64 163.16C1343.36 162.746 1343.92 162.156 1344.34 161.389C1344.75 160.622 1344.96 159.733 1344.96 158.721ZM1267.44 183.615C1266.98 182.557 1266.27 181.729 1265.32 181.131C1264.39 180.518 1263.28 180.211 1262.01 180.211C1260.82 180.211 1259.74 180.487 1258.79 181.039C1257.84 181.591 1257.09 182.381 1256.54 183.408C1255.99 184.42 1255.71 185.601 1255.71 186.95C1255.71 188.299 1255.99 189.488 1256.54 190.515C1257.09 191.542 1257.84 192.332 1258.79 192.884C1259.74 193.436 1260.82 193.712 1262.01 193.712C1263.13 193.712 1264.14 193.474 1265.03 192.999C1265.93 192.508 1266.65 191.818 1267.19 190.929C1267.74 190.024 1268.05 188.974 1268.13 187.778H1261.37V186.467H1269.83V187.64C1269.76 189.051 1269.37 190.331 1268.68 191.481C1267.99 192.616 1267.06 193.513 1265.9 194.172C1264.75 194.831 1263.45 195.161 1262.01 195.161C1260.52 195.161 1259.18 194.816 1257.96 194.126C1256.75 193.421 1255.79 192.447 1255.09 191.205C1254.4 189.948 1254.05 188.529 1254.05 186.95C1254.05 185.371 1254.4 183.96 1255.09 182.718C1255.79 181.461 1256.75 180.487 1257.96 179.797C1259.18 179.092 1260.52 178.739 1262.01 178.739C1263.73 178.739 1265.23 179.168 1266.52 180.027C1267.81 180.886 1268.74 182.082 1269.33 183.615H1267.44ZM1275.31 184.673C1275.66 183.891 1276.2 183.285 1276.92 182.856C1277.66 182.427 1278.55 182.212 1279.61 182.212V183.891H1279.18C1278.01 183.891 1277.07 184.205 1276.37 184.834C1275.66 185.463 1275.31 186.513 1275.31 187.985V195H1273.7V182.442H1275.31V184.673ZM1288.45 195.184C1287.27 195.184 1286.21 194.923 1285.25 194.402C1284.32 193.865 1283.58 193.114 1283.02 192.148C1282.49 191.167 1282.22 190.024 1282.22 188.721C1282.22 187.418 1282.49 186.283 1283.05 185.317C1283.6 184.336 1284.35 183.584 1285.3 183.063C1286.25 182.526 1287.32 182.258 1288.5 182.258C1289.68 182.258 1290.74 182.526 1291.69 183.063C1292.66 183.584 1293.41 184.336 1293.95 185.317C1294.5 186.283 1294.78 187.418 1294.78 188.721C1294.78 190.009 1294.5 191.144 1293.95 192.125C1293.4 193.106 1292.64 193.865 1291.67 194.402C1290.71 194.923 1289.63 195.184 1288.45 195.184ZM1288.45 193.781C1289.28 193.781 1290.05 193.597 1290.75 193.229C1291.46 192.846 1292.02 192.278 1292.45 191.527C1292.9 190.76 1293.12 189.825 1293.12 188.721C1293.12 187.617 1292.91 186.689 1292.48 185.938C1292.05 185.171 1291.48 184.604 1290.77 184.236C1290.07 183.853 1289.3 183.661 1288.47 183.661C1287.65 183.661 1286.88 183.853 1286.17 184.236C1285.47 184.604 1284.9 185.171 1284.47 185.938C1284.06 186.689 1283.85 187.617 1283.85 188.721C1283.85 189.825 1284.06 190.76 1284.47 191.527C1284.9 192.278 1285.46 192.846 1286.15 193.229C1286.86 193.597 1287.62 193.781 1288.45 193.781ZM1304.13 195.184C1302.95 195.184 1301.88 194.923 1300.93 194.402C1300 193.865 1299.25 193.114 1298.7 192.148C1298.16 191.167 1297.9 190.024 1297.9 188.721C1297.9 187.418 1298.17 186.283 1298.72 185.317C1299.28 184.336 1300.03 183.584 1300.98 183.063C1301.93 182.526 1302.99 182.258 1304.17 182.258C1305.35 182.258 1306.42 182.526 1307.37 183.063C1308.34 183.584 1309.09 184.336 1309.63 185.317C1310.18 186.283 1310.45 187.418 1310.45 188.721C1310.45 190.009 1310.18 191.144 1309.63 192.125C1309.07 193.106 1308.31 193.865 1307.35 194.402C1306.38 194.923 1305.31 195.184 1304.13 195.184ZM1304.13 193.781C1304.96 193.781 1305.72 193.597 1306.43 193.229C1307.13 192.846 1307.7 192.278 1308.13 191.527C1308.57 190.76 1308.8 189.825 1308.8 188.721C1308.8 187.617 1308.58 186.689 1308.15 185.938C1307.72 185.171 1307.16 184.604 1306.45 184.236C1305.75 183.853 1304.98 183.661 1304.15 183.661C1303.32 183.661 1302.56 183.853 1301.85 184.236C1301.15 184.604 1300.58 185.171 1300.15 185.938C1299.74 186.689 1299.53 187.617 1299.53 188.721C1299.53 189.825 1299.74 190.76 1300.15 191.527C1300.58 192.278 1301.14 192.846 1301.83 193.229C1302.53 193.597 1303.3 193.781 1304.13 193.781ZM1329.26 182.212C1330.73 182.212 1331.93 182.68 1332.85 183.615C1333.78 184.535 1334.25 185.877 1334.25 187.64V195H1332.66V187.824C1332.66 186.459 1332.33 185.417 1331.67 184.696C1331.01 183.975 1330.12 183.615 1328.98 183.615C1327.8 183.615 1326.86 184.006 1326.15 184.788C1325.45 185.57 1325.1 186.705 1325.1 188.192V195H1323.51V187.824C1323.51 186.459 1323.18 185.417 1322.52 184.696C1321.86 183.975 1320.96 183.615 1319.81 183.615C1318.62 183.615 1317.68 184.006 1316.98 184.788C1316.27 185.57 1315.92 186.705 1315.92 188.192V195H1314.31V182.442H1315.92V184.604C1316.32 183.822 1316.88 183.232 1317.62 182.833C1318.36 182.419 1319.18 182.212 1320.08 182.212C1321.17 182.212 1322.12 182.473 1322.93 182.994C1323.76 183.515 1324.36 184.282 1324.73 185.294C1325.06 184.297 1325.64 183.538 1326.45 183.017C1327.28 182.48 1328.22 182.212 1329.26 182.212ZM1339.55 180.073C1339.23 180.073 1338.95 179.958 1338.72 179.728C1338.49 179.498 1338.38 179.214 1338.38 178.877C1338.38 178.54 1338.49 178.264 1338.72 178.049C1338.95 177.819 1339.23 177.704 1339.55 177.704C1339.87 177.704 1340.15 177.819 1340.38 178.049C1340.61 178.264 1340.72 178.54 1340.72 178.877C1340.72 179.214 1340.61 179.498 1340.38 179.728C1340.15 179.958 1339.87 180.073 1339.55 180.073ZM1340.35 182.442V195H1338.74V182.442H1340.35ZM1350.81 182.212C1352.31 182.212 1353.54 182.68 1354.49 183.615C1355.44 184.535 1355.91 185.877 1355.91 187.64V195H1354.33V187.824C1354.33 186.459 1353.98 185.417 1353.29 184.696C1352.62 183.975 1351.69 183.615 1350.51 183.615C1349.3 183.615 1348.33 183.998 1347.61 184.765C1346.89 185.532 1346.53 186.659 1346.53 188.146V195H1344.92V182.442H1346.53V184.581C1346.93 183.814 1347.5 183.232 1348.26 182.833C1349.01 182.419 1349.86 182.212 1350.81 182.212ZM1365.66 182.258C1366.84 182.258 1367.87 182.534 1368.74 183.086C1369.62 183.638 1370.25 184.336 1370.63 185.179V182.442H1372.24V195.322C1372.24 196.472 1371.99 197.492 1371.48 198.381C1370.99 199.27 1370.3 199.953 1369.41 200.428C1368.52 200.919 1367.51 201.164 1366.38 201.164C1364.77 201.164 1363.42 200.781 1362.35 200.014C1361.29 199.247 1360.63 198.205 1360.37 196.886H1361.96C1362.24 197.76 1362.76 198.458 1363.52 198.979C1364.31 199.5 1365.26 199.761 1366.38 199.761C1367.19 199.761 1367.92 199.585 1368.56 199.232C1369.2 198.895 1369.71 198.389 1370.08 197.714C1370.45 197.039 1370.63 196.242 1370.63 195.322V192.217C1370.23 193.076 1369.6 193.789 1368.72 194.356C1367.86 194.908 1366.84 195.184 1365.66 195.184C1364.51 195.184 1363.48 194.916 1362.56 194.379C1361.65 193.842 1360.94 193.083 1360.42 192.102C1359.91 191.121 1359.66 189.986 1359.66 188.698C1359.66 187.41 1359.91 186.283 1360.42 185.317C1360.94 184.336 1361.65 183.584 1362.56 183.063C1363.48 182.526 1364.51 182.258 1365.66 182.258ZM1370.63 188.721C1370.63 187.709 1370.42 186.82 1370.01 186.053C1369.6 185.286 1369.03 184.696 1368.31 184.282C1367.6 183.868 1366.82 183.661 1365.96 183.661C1365.07 183.661 1364.27 183.86 1363.57 184.259C1362.86 184.658 1362.3 185.24 1361.89 186.007C1361.49 186.758 1361.29 187.655 1361.29 188.698C1361.29 189.725 1361.49 190.63 1361.89 191.412C1362.3 192.179 1362.86 192.769 1363.57 193.183C1364.27 193.582 1365.07 193.781 1365.96 193.781C1366.82 193.781 1367.6 193.574 1368.31 193.16C1369.03 192.746 1369.6 192.156 1370.01 191.389C1370.42 190.622 1370.63 189.733 1370.63 188.721Z" fill="#1CBBDA"/>
<path d="M1199.21 171.528C1199.21 168.299 1199.75 165.779 1200.83 163.968C1201.93 162.139 1203.82 161.224 1206.49 161.224C1209.16 161.224 1211.03 162.139 1212.12 163.968C1213.22 165.779 1213.77 168.299 1213.77 171.528C1213.77 174.795 1213.22 177.352 1212.12 179.2C1211.03 181.029 1209.16 181.944 1206.49 181.944C1203.82 181.944 1201.93 181.029 1200.83 179.2C1199.75 177.352 1199.21 174.795 1199.21 171.528ZM1210.63 171.528C1210.63 170.016 1210.53 168.737 1210.32 167.692C1210.14 166.647 1209.75 165.797 1209.15 165.144C1208.55 164.472 1207.66 164.136 1206.49 164.136C1205.31 164.136 1204.43 164.472 1203.83 165.144C1203.23 165.797 1202.83 166.647 1202.62 167.692C1202.44 168.737 1202.34 170.016 1202.34 171.528C1202.34 173.096 1202.44 174.412 1202.62 175.476C1202.81 176.54 1203.2 177.399 1203.8 178.052C1204.42 178.705 1205.31 179.032 1206.49 179.032C1207.66 179.032 1208.55 178.705 1209.15 178.052C1209.76 177.399 1210.17 176.54 1210.35 175.476C1210.54 174.412 1210.63 173.096 1210.63 171.528ZM1231.43 164.332H1222.05V169.904C1222.44 169.381 1223.02 168.943 1223.78 168.588C1224.57 168.233 1225.4 168.056 1226.27 168.056C1227.84 168.056 1229.11 168.392 1230.08 169.064C1231.07 169.736 1231.77 170.585 1232.18 171.612C1232.61 172.639 1232.83 173.721 1232.83 174.86C1232.83 176.241 1232.56 177.473 1232.01 178.556C1231.49 179.62 1230.7 180.46 1229.63 181.076C1228.59 181.692 1227.3 182 1225.77 182C1223.74 182 1222.1 181.496 1220.87 180.488C1219.64 179.48 1218.9 178.145 1218.66 176.484H1221.77C1221.97 177.361 1222.43 178.061 1223.14 178.584C1223.85 179.088 1224.73 179.34 1225.8 179.34C1227.12 179.34 1228.11 178.939 1228.77 178.136C1229.44 177.333 1229.77 176.269 1229.77 174.944C1229.77 173.6 1229.44 172.573 1228.77 171.864C1228.09 171.136 1227.11 170.772 1225.8 170.772C1224.88 170.772 1224.11 171.005 1223.47 171.472C1222.86 171.92 1222.41 172.536 1222.13 173.32H1219.11V161.532H1231.43V164.332Z" fill="#8A8A8A"/>
<path d="M1301.18 312L1287.63 325.2" stroke="#8A8A8A" stroke-width="2" stroke-linecap="round" stroke-linejoin="round"/>
<path d="M1301.18 312L1292.56 336L1287.63 325.2L1276.54 320.4L1301.18 312Z" stroke="#8A8A8A" stroke-width="2" stroke-linecap="round" stroke-linejoin="round"/>
<path d="M998.653 322H982.393C981.495 322 980.767 322.709 980.767 323.583V339.417C980.767 340.291 981.495 341 982.393 341H998.653C999.551 341 1000.28 340.291 1000.28 339.417V323.583C1000.28 322.709 999.551 322 998.653 322Z" stroke="#8A8A8A" stroke-width="1.5" stroke-linejoin="round"/>
<path d="M990.523 327.278V335.722M986.187 331.5H994.859" stroke="#1CBBDA" stroke-width="1.5" stroke-linecap="round" stroke-linejoin="round"/>
</svg>
