<svg xmlns="http://www.w3.org/2000/svg" width="579.662" height="211.305" viewBox="0 0 579.662 211.305">
  <g id="client-problems" transform="translate(-981 -6115)">
    <text id="Future_ready_approach" data-name="Future
ready approach" transform="translate(981 6185)" fill="#1cbbda" font-size="24" font-family="Poppins-Regular, Poppins" letter-spacing="0.03em"><tspan x="95.008" y="25">Future</tspan><tspan x="32.152" y="53">ready approach</tspan></text>
    <g id="Group_46866" data-name="Group 46866" transform="translate(8.395 -61.228)">
      <g id="Group_46862" data-name="Group 46862" transform="translate(1193 6176.228)">
        <path id="Path_15447" data-name="Path 15447" d="M166.234,58.805H6.7a9.465,9.465,0,0,1-4.49-1.019C.924,57.067.319,56.057.546,55.018l11.4-51.576C12.323,1.737,14.91.5,18.093.5H154.839c3.19,0,5.777,1.238,6.152,2.943l11.4,51.574c.233,1.036-.373,2.047-1.662,2.77A9.465,9.465,0,0,1,166.234,58.805ZM18.093,1.5a8.979,8.979,0,0,0-3.594.686,2.557,2.557,0,0,0-1.581,1.473L1.522,55.233c-.127.579.3,1.192,1.175,1.682a8.452,8.452,0,0,0,4,.89H166.234a8.451,8.451,0,0,0,4-.89c.878-.492,1.306-1.1,1.177-1.681l-11.4-51.576a2.544,2.544,0,0,0-1.579-1.472,8.99,8.99,0,0,0-3.6-.686Z" transform="translate(-0.895 -0.5)" fill="#1cbbda"/>
        <text id="Define" transform="translate(85.605 38)" fill="#1cbbda" font-size="25" font-family="Poppins-Regular, Poppins" letter-spacing="0.06em"><tspan x="-43.275" y="0">Define</tspan></text>
      </g>
      <g id="Group_46865" data-name="Group 46865" transform="translate(1193 6329.372)">
        <path id="Path_15447-2" data-name="Path 15447" d="M166.234,58.805H6.7a9.465,9.465,0,0,1-4.49-1.019C.924,57.067.319,56.057.546,55.018l11.4-51.576C12.323,1.737,14.91.5,18.093.5H154.839c3.19,0,5.777,1.238,6.152,2.943l11.4,51.574c.233,1.036-.373,2.047-1.662,2.77A9.465,9.465,0,0,1,166.234,58.805ZM18.093,1.5a8.979,8.979,0,0,0-3.594.686,2.557,2.557,0,0,0-1.581,1.473L1.522,55.233c-.127.579.3,1.192,1.175,1.682a8.452,8.452,0,0,0,4,.89H166.234a8.451,8.451,0,0,0,4-.89c.878-.492,1.306-1.1,1.177-1.681l-11.4-51.576a2.544,2.544,0,0,0-1.579-1.472,8.99,8.99,0,0,0-3.6-.686Z" transform="translate(-0.895 -0.644)" fill="#1cbbda"/>
        <text id="Develop" transform="translate(85.605 37.856)" fill="#1cbbda" font-size="25" font-family="Poppins-Regular, Poppins" letter-spacing="0.06em"><tspan x="-55.375" y="0">Develop</tspan></text>
      </g>
      <g id="Group_46863" data-name="Group 46863" transform="translate(1325.941 6252.8)">
        <g id="Group_46864" data-name="Group 46864" transform="translate(0 0)">
          <path id="Path_15447-3" data-name="Path 15447" d="M219.14,58.805H8.522a15.524,15.524,0,0,1-5.8-.994C.332,56.8.417,55.5.565,54.986L15.609,3.41c.259-.877,1.22-1.621,2.779-2.153A16.579,16.579,0,0,1,23.566.5H204.1a16.6,16.6,0,0,1,5.18.757c1.562.533,2.523,1.278,2.777,2.154L227.1,54.985c.151.508.244,1.806-2.157,2.826A15.525,15.525,0,0,1,219.14,58.805ZM23.566,1.5c-3.923,0-6.686,1.138-7,2.192L1.525,55.265c-.153.53.441,1.138,1.589,1.626a14.511,14.511,0,0,0,5.408.914H219.14a14.512,14.512,0,0,0,5.408-.914c1.153-.49,1.747-1.1,1.59-1.624L211.093,3.69c-.306-1.054-3.067-2.19-7-2.19Z" transform="translate(-0.835 -1)" fill="#1cbbda"/>
          <text id="Understand" transform="translate(112.665 36.276)" fill="#1cbbda" font-size="25" font-family="Poppins-Regular, Poppins" letter-spacing="0.06em"><tspan x="-80.025" y="0">Understand</tspan></text>
        </g>
      </g>
    </g>
  </g>
</svg>
