<svg xmlns="http://www.w3.org/2000/svg" width="345.264" height="98.055" viewBox="0 0 345.264 98.055">
  <g id="clutch-logo" transform="translate(-21 -235.9)">
    <path id="Path_10053" data-name="Path 10053" d="M177,235.9h15.882v98.055H177Z" transform="translate(-66.231 0)" fill="#17313b"/>
    <path id="Path_10054" data-name="Path 10054" d="M268.5,326.317c0,15.192-12.429,16.573-16.573,16.573-9.667,0-11.048-8.977-11.048-13.811V291.1H225v37.288c0,8.977,2.762,17.263,8.286,22.1,4.834,4.834,11.048,6.905,18.644,6.905,5.524,0,12.429-1.381,16.573-5.524v5.524h15.882V291.1H268.5Z" transform="translate(-86.61 -23.436)" fill="#17313b"/>
    <path id="Path_10055" data-name="Path 10055" d="M361.821,249.1H345.939v24.168H334.2V288.46h11.739v51.1h15.882v-51.1H373.56V273.268H361.821Z" transform="translate(-132.972 -5.604)" fill="#17313b"/>
    <path id="Path_10056" data-name="Path 10056" d="M454.356,336.346a21.8,21.8,0,0,1-13.12,4.834c-11.048,0-18.644-8.286-18.644-19.335s7.6-18.644,18.644-18.644c4.834,0,9.667,1.381,13.12,4.834l2.072,2.072,11.048-10.358-2.762-2.072a35.406,35.406,0,0,0-23.478-8.977c-19.335,0-33.836,14.5-33.836,33.836s14.5,33.836,33.836,33.836a35.406,35.406,0,0,0,23.478-8.977l2.762-2.072-11.048-11.048Z" transform="translate(-164.05 -22.417)" fill="#17313b"/>
    <path id="Path_10057" data-name="Path 10057" d="M573.337,273.189c-4.834-4.834-9.667-6.905-17.263-6.905-5.524,0-11.048,1.381-15.192,5.524V235.9H525v98.055h15.882v-36.6c0-15.192,10.358-16.573,14.5-16.573,9.667,0,8.977,8.977,8.977,13.811v38.67h15.882V295.285C580.242,286.309,578.171,278.022,573.337,273.189Z" transform="translate(-213.978 0)" fill="#17313b"/>
    <circle id="Ellipse_288" data-name="Ellipse 288" cx="11.048" cy="11.048" r="11.048" transform="translate(265.447 289.071)" fill="#ef4335"/>
    <path id="Path_10058" data-name="Path 10058" d="M88.672,312.321A32.379,32.379,0,0,1,65.884,321.3c-17.263,0-29.693-13.811-29.693-32.455s12.429-32.455,30.383-32.455a32.493,32.493,0,0,1,22.787,9.667l2.072,2.072,10.358-10.358L99.72,255.7a46.5,46.5,0,0,0-33.145-13.811C40.335,241.2,21,261.913,21,288.843S40.335,336.49,65.884,336.49c12.429,0,24.859-4.834,33.145-13.811l2.072-2.072L90.743,310.25Z" transform="translate(0 -2.535)" fill="#17313b"/>
  </g>
</svg>
