<svg id="india-flag" xmlns="http://www.w3.org/2000/svg" width="33.919" height="23.595" viewBox="0 0 33.919 23.595">
  <path id="Path_10099" data-name="Path 10099" d="M1.852,0H32.067a1.867,1.867,0,0,1,1.852,1.863V21.732A1.87,1.87,0,0,1,32.056,23.6H1.852A1.869,1.869,0,0,1,0,21.732V1.863A1.867,1.867,0,0,1,1.852,0Z" fill="#f93"/>
  <path id="Path_10100" data-name="Path 10100" d="M0,28.49H33.919v7.867H0Z" transform="translate(0 -20.626)" fill="#fff"/>
  <path id="Path_10101" data-name="Path 10101" d="M0,56.99H33.919v6a1.87,1.87,0,0,1-1.863,1.863H1.852A1.869,1.869,0,0,1,0,62.991v-6Z" transform="translate(0 -41.259)" fill="#128807"/>
  <path id="Path_10102" data-name="Path 10102" d="M56.334,34.487a3.147,3.147,0,1,0-3.147,3.147,3.145,3.145,0,0,0,3.147-3.147Z" transform="translate(-36.227 -22.689)" fill="#008"/>
  <path id="Path_10103" data-name="Path 10103" d="M56.974,35.522a2.752,2.752,0,1,0-2.752,2.752,2.751,2.751,0,0,0,2.752-2.752Z" transform="translate(-37.263 -23.724)" fill="#fff"/>
  <path id="Path_10104" data-name="Path 10104" d="M60.549,41.292a.549.549,0,1,0-.549.549.551.551,0,0,0,.549-.549Z" transform="translate(-43.04 -29.494)" fill="#008"/>
  <path id="Path_10105" data-name="Path 10105" d="M71.1,43.7a.138.138,0,1,0-.155.119A.139.139,0,0,0,71.1,43.7Z" transform="translate(-51.275 -31.525)" fill="#008"/>
  <path id="Path_10106" data-name="Path 10106" d="M61.194,46.317l.094-1.651-.094-.787-.094.787Z" transform="translate(-44.234 -31.768)" fill="#008"/>
  <path id="Path_10107" data-name="Path 10107" d="M70.415,46.251a.137.137,0,1,0-.179.075.137.137,0,0,0,.179-.075Z" transform="translate(-50.787 -33.346)"/>
  <path id="Path_10108" data-name="Path 10108" d="M58.86,46.195l.519-1.571.113-.784-.3.737Z" transform="translate(-42.613 -31.739)"/>
  <path id="Path_10109" data-name="Path 10109" d="M69.1,48.537a.138.138,0,1,0-.193.025.139.139,0,0,0,.193-.025Z" transform="translate(-49.849 -34.978)"/>
  <path id="Path_10110" data-name="Path 10110" d="M56.45,45.842l.908-1.383.312-.729-.475.632Z" transform="translate(-40.868 -31.659)"/>
  <path id="Path_10111" data-name="Path 10111" d="M67.227,50.4a.138.138,0,1,0-.193-.025.14.14,0,0,0,.193.025Z" transform="translate(-48.509 -36.31)"/>
  <path id="Path_10112" data-name="Path 10112" d="M54.39,45.272l1.234-1.1.489-.621-.621.489Z" transform="translate(-39.377 -31.529)"/>
  <path id="Path_10113" data-name="Path 10113" d="M64.951,51.725a.137.137,0,1,0-.179-.075.138.138,0,0,0,.179.075Z" transform="translate(-46.885 -37.256)"/>
  <path id="Path_10114" data-name="Path 10114" d="M52.8,44.53l1.48-.745.632-.475-.729.312Z" transform="translate(-38.226 -31.355)"/>
  <path id="Path_10115" data-name="Path 10115" d="M62.4,52.4a.138.138,0,1,0-.155-.119.134.134,0,0,0,.155.119Z" transform="translate(-45.065 -37.738)"/>
  <path id="Path_10116" data-name="Path 10116" d="M51.81,43.669l1.62-.337.734-.293-.784.11Z" transform="translate(-37.509 -31.16)"/>
  <path id="Path_10117" data-name="Path 10117" d="M59.756,52.4a.138.138,0,1,0-.119-.155.139.139,0,0,0,.119.155Z" transform="translate(-43.175 -37.737)"/>
  <path id="Path_10118" data-name="Path 10118" d="M51.47,42.494l1.651.094.787-.094-.787-.094Z" transform="translate(-37.263 -30.696)"/>
  <path id="Path_10119" data-name="Path 10119" d="M57.209,51.725a.137.137,0,0,0,.179-.075.139.139,0,0,0-.075-.179.137.137,0,0,0-.179.075.14.14,0,0,0,.075.179Z" transform="translate(-41.356 -37.256)"/>
  <path id="Path_10120" data-name="Path 10120" d="M51.81,40.16l1.571.519.784.113-.734-.3Z" transform="translate(-37.509 -29.075)"/>
  <path id="Path_10121" data-name="Path 10121" d="M54.924,50.4a.138.138,0,1,0-.025-.193.142.142,0,0,0,.025.193Z" transform="translate(-39.726 -36.31)"/>
  <path id="Path_10122" data-name="Path 10122" d="M52.8,37.75l1.383.908.729.312L54.28,38.5Z" transform="translate(-38.226 -27.33)"/>
  <path id="Path_10123" data-name="Path 10123" d="M53.056,48.537a.138.138,0,1,0,.025-.193.139.139,0,0,0-.025.193Z" transform="translate(-38.39 -34.978)"/>
  <path id="Path_10124" data-name="Path 10124" d="M54.39,35.69l1.1,1.234.621.491-.489-.624Z" transform="translate(-39.377 -25.838)"/>
  <path id="Path_10125" data-name="Path 10125" d="M51.734,46.251a.137.137,0,1,0,.075-.179.138.138,0,0,0-.075.179Z" transform="translate(-37.447 -33.346)"/>
  <path id="Path_10126" data-name="Path 10126" d="M56.45,34.1l.745,1.48.475.632-.312-.726Z" transform="translate(-40.868 -24.687)"/>
  <path id="Path_10127" data-name="Path 10127" d="M51.056,43.7a.138.138,0,1,0,.119-.155.134.134,0,0,0-.119.155Z" transform="translate(-36.962 -31.527)"/>
  <path id="Path_10128" data-name="Path 10128" d="M58.86,33.11l.337,1.62.3.734-.113-.784Z" transform="translate(-42.613 -23.971)"/>
  <path id="Path_10129" data-name="Path 10129" d="M51.056,41.056a.138.138,0,1,0,.155-.119.139.139,0,0,0-.155.119Z" transform="translate(-36.962 -29.637)"/>
  <path id="Path_10130" data-name="Path 10130" d="M61.194,32.77,61.1,34.421l.094.787.094-.787Z" transform="translate(-44.234 -23.724)"/>
  <path id="Path_10131" data-name="Path 10131" d="M51.741,38.509a.137.137,0,0,0,.075.179A.139.139,0,0,0,52,38.614a.137.137,0,0,0-.254-.1Z" transform="translate(-37.451 -27.818)"/>
  <path id="Path_10132" data-name="Path 10132" d="M62.362,33.11l-.519,1.571-.113.784.3-.734Z" transform="translate(-44.691 -23.971)"/>
  <path id="Path_10133" data-name="Path 10133" d="M53.054,36.229a.138.138,0,1,0,.193-.025.137.137,0,0,0-.193.025Z" transform="translate(-38.388 -26.189)"/>
  <path id="Path_10134" data-name="Path 10134" d="M63.23,34.1l-.908,1.386-.312.726.475-.632Z" transform="translate(-44.893 -24.687)"/>
  <path id="Path_10135" data-name="Path 10135" d="M54.929,34.357a.138.138,0,1,0,.193.025.14.14,0,0,0-.193-.025Z" transform="translate(-39.728 -24.853)"/>
  <path id="Path_10136" data-name="Path 10136" d="M63.972,35.69l-1.234,1.1-.489.624.621-.491Z" transform="translate(-45.067 -25.838)"/>
  <path id="Path_10137" data-name="Path 10137" d="M57.209,33.04a.14.14,0,0,0-.075.179.137.137,0,0,0,.254-.1.134.134,0,0,0-.179-.075Z" transform="translate(-41.356 -23.912)"/>
  <path id="Path_10138" data-name="Path 10138" d="M64.542,37.75l-1.48.745-.632.475.729-.312Z" transform="translate(-45.197 -27.33)"/>
  <path id="Path_10139" data-name="Path 10139" d="M59.756,32.356a.138.138,0,1,0,.036.273.139.139,0,0,0,.119-.155.136.136,0,0,0-.155-.119Z" transform="translate(-43.175 -23.424)"/>
  <path id="Path_10140" data-name="Path 10140" d="M64.895,40.16l-1.62.337-.734.3.784-.113Z" transform="translate(-45.277 -29.075)"/>
  <path id="Path_10141" data-name="Path 10141" d="M62.4,32.356a.138.138,0,1,0,.119.155.139.139,0,0,0-.119-.155Z" transform="translate(-45.063 -23.424)"/>
  <path id="Path_10142" data-name="Path 10142" d="M65.017,42.494,63.367,42.4l-.787.094.787.094Z" transform="translate(-45.306 -30.696)"/>
  <path id="Path_10143" data-name="Path 10143" d="M64.951,33.041a.137.137,0,0,0-.1.254.137.137,0,1,0,.1-.254Z" transform="translate(-46.885 -23.913)"/>
  <path id="Path_10144" data-name="Path 10144" d="M64.895,43.669l-1.571-.519-.784-.11.734.293Z" transform="translate(-45.277 -31.16)"/>
  <path id="Path_10145" data-name="Path 10145" d="M67.227,34.354a.138.138,0,1,0,.025.193.137.137,0,0,0-.025-.193Z" transform="translate(-48.509 -24.85)"/>
  <path id="Path_10146" data-name="Path 10146" d="M64.542,44.53l-1.383-.908-.729-.312.632.475Z" transform="translate(-45.197 -31.355)"/>
  <path id="Path_10147" data-name="Path 10147" d="M69.1,36.229a.138.138,0,1,0-.025.193.14.14,0,0,0,.025-.193Z" transform="translate(-49.849 -26.189)"/>
  <path id="Path_10148" data-name="Path 10148" d="M63.972,45.272l-1.1-1.234-.621-.489.489.621Z" transform="translate(-45.067 -31.529)"/>
  <path id="Path_10149" data-name="Path 10149" d="M70.425,38.506a.137.137,0,1,0-.254.1.14.14,0,0,0,.179.075.138.138,0,0,0,.075-.179Z" transform="translate(-50.794 -27.815)"/>
  <path id="Path_10150" data-name="Path 10150" d="M63.23,45.842l-.745-1.48-.475-.632.312.729Z" transform="translate(-44.893 -31.659)"/>
  <path id="Path_10151" data-name="Path 10151" d="M71.1,41.056a.138.138,0,1,0-.119.155.134.134,0,0,0,.119-.155Z" transform="translate(-51.276 -29.637)"/>
  <path id="Path_10152" data-name="Path 10152" d="M62.362,46.195l-.337-1.618-.3-.737.113.784Z" transform="translate(-44.691 -31.739)"/>
</svg>
