<svg xmlns="http://www.w3.org/2000/svg" xmlns:xlink="http://www.w3.org/1999/xlink" width="84.287" height="113.953" viewBox="0 0 84.287 113.953">
  <defs>
    <linearGradient class="Question_mark" id="linear-gradient" x1="-0.002" y1="0.554" x2="1.019" y2="0.478" gradientUnits="objectBoundingBox">
      <stop offset="0" stop-color="#1cbbda"/>
      <stop offset="1" stop-color="#001219"/>
    </linearGradient>
  </defs>
  <g class="Question_mark" id="Question_mark" transform="translate(-124.909 -638.463) rotate(20)">
    <path id="Path_16803" data-name="Path 16803" d="M0,0H14.247V14.247H0Z" transform="translate(389.778 638.69) rotate(45)" fill="url(#linear-gradient)"/>
    <path id="Path_231" data-name="Path 231" d="M49.249-219.654H32.11v-.5c0-6.35.8-11.493,2.386-15.286s4.745-8.007,9.4-12.519c4.575-4.439,7.506-7.631,8.713-9.489a16.336,16.336,0,0,0,2.764-9.1c0-4.3-1.067-7.612-3.172-9.849s-5.24-3.358-9.345-3.358a13.552,13.552,0,0,0-9.513,3.305,11.618,11.618,0,0,0-3.573,8.952v.5H11.477l.006-.506a29.792,29.792,0,0,1,2.254-11.477,24.434,24.434,0,0,1,6.488-8.83,28.741,28.741,0,0,1,9.961-5.6,40.6,40.6,0,0,1,12.666-1.858,41.729,41.729,0,0,1,12.878,1.84,26.652,26.652,0,0,1,9.757,5.551,23.576,23.576,0,0,1,6.131,8.891,32.043,32.043,0,0,1,2.035,11.771A27.318,27.318,0,0,1,70.9-255.485a44.031,44.031,0,0,1-8.2,11.471l-.01.01-8.736,8.6c-3.027,3.451-4.608,8.584-4.7,15.256Zm-16.138-1H48.265a32.154,32.154,0,0,1,1.293-8.672,18.347,18.347,0,0,1,3.658-6.75l.025-.026,8.744-8.609c7.078-7.367,10.667-14.937,10.667-22.5,0-8.5-2.637-15.2-7.838-19.921s-12.6-7.132-21.963-7.132c-9.079,0-16.471,2.426-21.97,7.21-5.368,4.67-8.189,11.08-8.39,19.058H28.773a12.422,12.422,0,0,1,3.889-9.188,14.516,14.516,0,0,1,10.19-3.57c4.391,0,7.78,1.236,10.073,3.673s3.443,5.972,3.443,10.534a17.318,17.318,0,0,1-2.927,9.649c-1.264,1.946-4.16,5.106-8.854,9.66-4.553,4.417-7.638,8.517-9.169,12.187C33.928-231.483,33.152-226.64,33.111-220.654Z" transform="translate(348.568 843.66)" fill="#1cbbda"/>
  </g>
</svg>
