<svg xmlns="http://www.w3.org/2000/svg" width="148.155" height="118.491" viewBox="0 0 148.155 118.491">
  <g id="footer-logo" transform="translate(-0.104 0.076) rotate(-0.058)">
    <g id="Group_44833" data-name="Group 44833" transform="translate(0 101.939)">
      <path id="Path_10155" data-name="Path 10155" d="M4.488,15.463V2.613H0V.218H11.5v2.4h-4.5v12.85Zm11.434-2.378h7.652v2.378H13.4V.218h9.9V2.6H15.922V6.552h6.546V8.884H15.922Zm16.673,2.6a7,7,0,0,1-6.3-3.811,8.554,8.554,0,0,1-.936-4.029A8.49,8.49,0,0,1,26.3,3.811a7.121,7.121,0,0,1,2.607-2.795A7.327,7.327,0,0,1,35.654.653a6.238,6.238,0,0,1,2.325,1.9L36.356,4.265a4.54,4.54,0,0,0-3.624-1.779,4.679,4.679,0,0,0-2.5.681,4.763,4.763,0,0,0-1.719,1.906,6.035,6.035,0,0,0-.622,2.768,6.035,6.035,0,0,0,.622,2.768,4.763,4.763,0,0,0,1.719,1.906,4.678,4.678,0,0,0,2.5.681,4.516,4.516,0,0,0,3.624-1.806l1.622,1.742a6.219,6.219,0,0,1-2.333,1.9A7.041,7.041,0,0,1,32.595,15.681ZM49.929.218h2.518V15.463H49.929V8.929H42.923v6.534H40.4V.218h2.518v6.3h7.006Z" transform="translate(0 0.796)" fill="#fff"/>
      <g id="Group_44832" data-name="Group 44832" transform="translate(55.018)">
        <path id="Path_10156" data-name="Path 10156" d="M5.343,15.681a9.293,9.293,0,0,1-3.027-.5A6.079,6.079,0,0,1,0,13.848l.872-2.2a6.506,6.506,0,0,0,2.042,1.207,6.64,6.64,0,0,0,2.43.472,3.825,3.825,0,0,0,2.26-.544,1.7,1.7,0,0,0,.743-1.443,1.461,1.461,0,0,0-.412-1.071A2.939,2.939,0,0,0,6.877,9.6q-.638-.235-1.743-.544a17.889,17.889,0,0,1-2.51-.826,4.086,4.086,0,0,1-1.647-1.3A3.767,3.767,0,0,1,.291,4.555,4.432,4.432,0,0,1,.9,2.251,4.214,4.214,0,0,1,2.744.608,6.733,6.733,0,0,1,5.755,0,8.813,8.813,0,0,1,8.193.345a6.47,6.47,0,0,1,2.074,1.007l-.791,2.2a7.318,7.318,0,0,0-1.865-.889A6.174,6.174,0,0,0,5.731,2.35a3.547,3.547,0,0,0-2.212.572,1.8,1.8,0,0,0-.726,1.5A1.461,1.461,0,0,0,3.2,5.49a3.074,3.074,0,0,0,1.057.653q.638.235,1.743.544A16.638,16.638,0,0,1,8.483,7.5a4.28,4.28,0,0,1,1.655,1.3,3.669,3.669,0,0,1,.694,2.35,4.365,4.365,0,0,1-.613,2.287A4.29,4.29,0,0,1,8.37,15.073,6.84,6.84,0,0,1,5.343,15.681Zm10.537-.218V2.613H11.392V.218h11.5v2.4H18.4v12.85Z" transform="translate(0 0.796)" fill="#1cbbda"/>
        <path id="svg-logo-a" d="M13.856,16.252h0L6.94,0h0L0,16.252H2.414L6.94,5.892v.027l3.412,7.8H7.984L6.94,16.252h4.5l.023.027h2.391Z" transform="translate(21.175)" fill="#1cbbda"/>
        <path id="svg-logo-a_-_Outline" data-name="svg-logo-a - Outline" d="M13.856,16.278H11.466l-.023-.027H6.94l1.045-2.529h2.367L6.94,5.919V5.892L2.414,16.252H0L6.94,0l6.917,16.252Zm0,0v-.027L6.94,0,0,16.252H2.414L6.94,5.892v.027l3.412,7.8H7.984L6.94,16.252h4.5l.023.027Z" transform="translate(21.175)"/>
        <path id="Path_10157" data-name="Path 10157" d="M5.949,15.681A5.521,5.521,0,0,1,1.574,13.9,7.405,7.405,0,0,1,0,8.82V.218H2.518V8.712q0,4.482,3.447,4.483,3.43,0,3.43-4.483V.218h2.478v8.6A7.455,7.455,0,0,1,10.315,13.9,5.5,5.5,0,0,1,5.949,15.681Zm19-15.463h2.494V15.463H25.38L17.9,5.136V15.463H15.4V.218H17.47l7.482,10.327ZM37.364,15.681a7,7,0,0,1-6.3-3.811,8.554,8.554,0,0,1-.936-4.029,8.491,8.491,0,0,1,.944-4.029,7.122,7.122,0,0,1,2.607-2.795A7.328,7.328,0,0,1,40.423.653a6.238,6.238,0,0,1,2.325,1.9L41.126,4.265A4.54,4.54,0,0,0,37.5,2.486a4.679,4.679,0,0,0-2.5.681A4.762,4.762,0,0,0,33.28,5.073a6.036,6.036,0,0,0-.622,2.768,6.036,6.036,0,0,0,.622,2.768A4.762,4.762,0,0,0,35,12.514a4.678,4.678,0,0,0,2.5.681,4.516,4.516,0,0,0,3.624-1.806l1.622,1.742a6.219,6.219,0,0,1-2.333,1.9A7.041,7.041,0,0,1,37.364,15.681ZM54.7.218h2.518V15.463H54.7V8.929H47.693v6.534H45.174V.218h2.518v6.3H54.7Z" transform="translate(35.903 0.796)" fill="#1cbbda"/>
      </g>
    </g>
    <g id="Group_44834" data-name="Group 44834" transform="translate(33.005 0)">
      <g id="left_group" data-name="left group" transform="matrix(1, 0.001, -0.001, 1, 0.08, 4.378)">
        <ellipse id="dots" cx="5.914" cy="6.11" rx="5.914" ry="6.11" transform="translate(21.129 67.291)" fill="#07b8ea"/>
        <g id="lt" transform="translate(8.781 0)">
          <path id="gt-light" d="M22.7,24.372a7.087,7.087,0,0,1-9.981-.07L1.754,13.229a6.949,6.949,0,0,1-.621-.724l.15.166v-.007a6.5,6.5,0,0,1,.676-8.531L5.969,0l0,0L22.523,16.683A5.224,5.224,0,0,1,22.7,24.372Z" transform="translate(8.65 27.692)" fill="#0b6fbb"/>
          <path id="gt-dark" d="M31.385,10.819,14.627,27.692l0,0-4.01,4.128a6.5,6.5,0,0,0-.676,8.531v.007l-.15-.166L6.2,36.245,1.962,32.086A6.513,6.513,0,0,1,1.9,22.834L22.738,1.8a6.091,6.091,0,0,1,8.582-.061A6.4,6.4,0,0,1,31.385,10.819Z" transform="translate(0)" fill="#034374"/>
        </g>
        <g id="left-comma" transform="translate(0 46.947)">
          <path id="comma-light" d="M19.562,19.061A5.96,5.96,0,0,1,11.3,19.2c-.034-.029-.066-.061-.1-.1-.014-.011-.03-.027-.044-.041L1.74,9.688A5.9,5.9,0,0,1,3.787,0a5.961,5.961,0,0,0,.074,7.5,6.035,6.035,0,0,0,7.382,1.534c.015-.009.032-.016.048-.025.13-.068.256-.138.377-.216l.064-.041a6.03,6.03,0,0,1,6.764.884L19.565,10.7a5.89,5.89,0,0,1,0,8.359Z" transform="translate(0 0.403)" fill="#0b6fbb"/>
          <path id="comma-dark" d="M16.005,10.041a6.03,6.03,0,0,0-6.764-.884c-.016.007-.03.015-.045.022-.13.068-.256.138-.378.217-.023.014-.044.027-.066.043a6.033,6.033,0,0,1-7.387-1.53A5.959,5.959,0,0,1,1.3.4,5.965,5.965,0,0,1,7.654,1.731Z" transform="translate(2.488 0)" fill="#034374"/>
        </g>
      </g>
      <g id="right_group" data-name="right group" transform="matrix(1, 0.001, -0.001, 1, 41.994, 0)">
        <ellipse id="dots-2" data-name="dots" cx="5.914" cy="6.11" rx="5.914" ry="6.11" transform="translate(9.066 0)" fill="#07b8ea"/>
        <g id="lt-2" data-name="lt" transform="translate(0 25.425)">
          <path id="gt-light-2" data-name="gt-light" d="M1.6,2.021a7.085,7.085,0,0,1,9.981.07L22.549,13.164a6.748,6.748,0,0,1,.621.724l-.15-.17v.007a6.517,6.517,0,0,1-.677,8.538l-4.01,4.128h0L1.783,9.71A5.219,5.219,0,0,1,1.6,2.021Z" transform="translate(0.289 0)" fill="#0b6fbb"/>
          <path id="gt-dark-2" data-name="gt-dark" d="M1.858,29.541,18.615,12.668h0l4.01-4.128A6.49,6.49,0,0,0,23.307.007V0l.15.17,3.591,3.943,4.237,4.159a6.513,6.513,0,0,1,.066,9.252L10.5,38.561a6.091,6.091,0,0,1-8.582.061A6.4,6.4,0,0,1,1.858,29.541Z" transform="translate(0 13.726)" fill="#034374"/>
        </g>
        <g id="left-comma-2" data-name="left-comma" transform="translate(20.721 11.368)">
          <path id="comma-light-2" data-name="comma-light" d="M1.74,1.732A5.958,5.958,0,0,1,10,1.6c.034.03.067.061.1.1.014.011.029.027.043.041l9.421,9.374a5.9,5.9,0,0,1-2.047,9.688,5.961,5.961,0,0,0-.075-7.5,6.035,6.035,0,0,0-7.378-1.537l-.048.025c-.13.068-.256.138-.378.217l-.063.041a6.033,6.033,0,0,1-6.764-.885L1.74,10.091a5.89,5.89,0,0,1,0-8.359Z" transform="translate(0 0)" fill="#0b6fbb"/>
          <path id="comma-dark-2" data-name="comma-dark" d="M0,.055A6.033,6.033,0,0,0,6.764.941C6.78.934,6.793.925,6.81.918,6.939.85,7.066.779,7.188.7,7.21.687,7.23.673,7.253.657a6.033,6.033,0,0,1,7.387,1.53,5.959,5.959,0,0,1,.069,7.507A5.966,5.966,0,0,1,8.352,8.365Z" transform="translate(2.809 11.099)" fill="#034374"/>
        </g>
      </g>
    </g>
  </g>
</svg>
