<svg width="58" height="40" viewBox="0 0 58 40" fill="none" xmlns="http://www.w3.org/2000/svg">
<path id="path1" d="M25.1563 39.8205C24.0897 39.4549 23.3061 38.7448 22.7894 37.6754C22.6258 37.337 22.4842 37.0448 22.4746 37.026C22.465 37.0073 22.1935 37.0765 21.8712 37.1797C21.1275 37.418 20.0985 37.3494 19.2872 37.0076C18.6201 36.7264 17.7454 35.8837 17.4836 35.2698C17.3182 34.8821 17.3089 34.8775 17.0371 35.052C16.8845 35.15 16.4452 35.309 16.0609 35.4055C14.3572 35.8331 12.6471 35.0337 11.8922 33.4569C11.6434 32.9371 11.5949 32.6794 11.5949 31.8762V30.9165L10.8982 30.8617C9.52936 30.7541 8.38612 29.9831 7.80897 28.7784C7.56977 28.2791 7.51547 27.9993 7.51286 27.2527C7.50968 26.3458 7.5153 26.3278 8.21891 24.9996C8.60899 24.2633 8.92815 23.561 8.92815 23.4389C8.92815 23.2265 8.91007 23.2287 8.5026 23.4911C7.93095 23.8592 7.19538 24.0084 6.55144 23.8868C5.57754 23.703 1.49562 22.338 1.07368 22.055C0.841813 21.8996 0.510116 21.5354 0.336579 21.2457C-0.295254 20.1911 -0.331595 20.3424 2.89173 10.604C4.47004 5.8356 5.88948 1.72004 6.04603 1.45836C6.38333 0.89455 6.96506 0.49425 7.70983 0.313457C8.39534 0.14705 8.48303 0.165634 11.4814 1.11261C13.8957 1.8751 13.9956 1.91831 14.5117 2.42369C14.8909 2.79505 15.0877 3.10135 15.1917 3.48209L15.338 4.01789L16.5304 3.95424C17.1862 3.91924 18.4122 3.75916 19.2548 3.59852C22.7047 2.94077 25.0084 3.18187 27.2816 4.43864L27.9032 4.78228L28.6886 4.37796C30.3188 3.5388 32.1318 3.12967 33.6666 3.25457C34.947 3.35876 36.1791 3.68538 38.0493 4.41637C40.0553 5.20043 40.8234 5.43408 41.3945 5.43408C42.1417 5.43408 42.1619 5.40597 42.0957 4.45374C42.01 3.22029 42.4536 2.36271 43.4298 1.87488C44.2825 1.44875 48.2609 0.0626315 48.7753 0.0124746C49.5918 -0.0671472 50.367 0.236723 50.9295 0.856984C51.3642 1.33621 51.6575 2.05095 54.7017 10.0474C57.793 18.1679 58.0023 18.764 58 19.4407C57.9961 20.536 57.3714 21.4883 56.413 21.8596C56.2292 21.9308 55.1085 22.347 53.9227 22.7843C51.4794 23.6854 50.7975 23.7828 49.9386 23.3536C49.3949 23.0819 48.681 22.3398 48.5785 21.9398C48.4295 21.3583 48.2928 21.7555 48.271 22.8331C48.2522 23.7697 48.2023 24.0396 47.9514 24.5638C47.605 25.2874 47.0472 25.8719 46.4221 26.1665C45.945 26.3913 44.8826 26.4547 44.2486 26.2962L43.8797 26.204V26.82C43.8797 28.1335 43.0015 29.4753 41.7466 30.079C41.2016 30.3412 40.9563 30.3903 40.1917 30.3903C39.6924 30.3903 39.1503 30.3535 38.9872 30.3086C38.6928 30.2275 38.69 30.2325 38.6309 30.9537C38.4822 32.7685 37.1306 34.1598 35.2837 34.3992L34.6879 34.4764V35.1092C34.6879 35.9627 34.4232 36.6666 33.8712 37.2809C33.1759 38.0547 32.6579 38.2791 31.5673 38.2788C30.7988 38.2786 30.5685 38.232 30.0672 37.9749L29.475 37.6713L29.0899 38.261C28.1235 39.741 26.6401 40.329 25.1563 39.8205ZM27.0279 38.2274C27.4578 37.9671 27.7994 37.4873 28.4317 36.2554C29.3234 34.5181 29.2893 33.9077 28.2622 33.2154C27.2223 32.5145 26.0175 32.6694 25.172 33.6128C24.7896 34.0395 24.1034 35.3019 23.9787 35.8085C23.791 36.5702 24.5891 37.9328 25.434 38.2934C25.9415 38.5099 26.6068 38.4824 27.0279 38.2274ZM32.3845 36.5643C32.9847 36.2058 33.2975 35.3915 33.1046 34.6898C32.9203 34.0193 32.5131 33.7024 30.4325 32.6106L29.4111 32.0747L29.8477 32.5509C30.0878 32.8129 30.3559 33.1951 30.4435 33.4004C30.6592 33.9061 30.6294 35.0485 30.3829 35.7261L30.1807 36.2819L30.647 36.527C31.231 36.834 31.9087 36.8485 32.3845 36.5643ZM21.6698 35.6287C22.2336 35.3923 22.5588 34.9682 23.5126 33.2249C24.4163 31.5731 24.5753 31.0613 24.4264 30.2837C24.3338 29.8 23.7599 29.1331 23.2603 28.9286C22.4172 28.5835 21.2293 28.8668 20.7538 29.5262C20.1515 30.3616 18.764 33.0805 18.7128 33.5258C18.6478 34.0907 18.9126 34.862 19.286 35.1956C19.9281 35.7693 20.9091 35.9475 21.6698 35.6287ZM16.3868 33.6473C16.7556 33.4082 17.0398 32.9699 18.2162 30.8255C18.9822 29.4293 19.6632 28.0848 19.7295 27.8379C20.0477 26.6536 18.9615 25.3372 17.666 25.3372C17.1785 25.3372 16.4444 25.6572 16.117 26.0124C15.9827 26.1581 15.2678 27.3777 14.5282 28.7228L13.1836 31.1684V31.9552C13.1836 32.6511 13.2214 32.7906 13.5109 33.1623C14.1828 34.0253 15.4691 34.2422 16.3868 33.6473ZM35.8205 32.6413C36.5622 32.2701 36.9843 31.6911 37.0462 30.9596C37.1124 30.1773 36.9379 29.6897 36.4167 29.2006C36.1758 28.9744 34.8179 28.1929 33.2694 27.3892C31.7715 26.6117 30.4566 25.8754 30.3474 25.7528C30.0841 25.4574 30.0959 25.0507 30.3757 24.7765C30.8259 24.3355 30.6798 24.2716 37.7037 27.9851C39.2871 28.8222 39.4638 28.8896 40.0768 28.8896C41.391 28.8896 42.2911 28.002 42.2911 26.7061C42.2911 26.1694 42.2299 25.9485 41.9708 25.5481C41.6752 25.0916 41.4014 24.921 38.4245 23.3396C33.7839 20.8743 33.744 20.8512 33.555 20.5202C33.4011 20.2506 33.4012 20.1868 33.5567 19.9146C33.9104 19.2952 34.175 19.3277 35.7817 20.1882C42.9944 24.0511 44.5113 24.8142 45.0714 24.8616C45.5312 24.9004 45.6985 24.8632 45.954 24.6658C46.6485 24.1287 46.9547 23.0293 46.6735 22.0819C46.2437 20.6335 44.7243 19.5835 38.9306 16.7309C37.2384 15.8977 35.6565 15.0848 35.4152 14.9244C34.0544 14.0198 32.8476 14.1097 29.379 15.3742C27.4462 16.0788 26.4026 16.3375 25.2125 16.407C23.9975 16.4779 23.1465 16.3272 22.2371 15.88C21.135 15.338 19.6864 13.999 19.5264 13.3744C19.382 12.8108 20.0906 11.9507 23.3107 8.78073C25.012 7.10584 26.404 5.72452 26.404 5.71113C26.404 5.61904 24.9442 5.07465 24.2981 4.92583C23.2107 4.67534 21.1414 4.76724 19.1981 5.15232C18.3867 5.31311 17.114 5.4798 16.3698 5.52275L15.0167 5.60083L12.8191 12.2706C10.4334 19.5111 10.2942 19.9845 10.2917 20.8632L10.29 21.4521L10.7155 21.1178C12.1923 19.9576 14.2707 20.1627 15.664 21.606C16.0645 22.021 16.6446 23.1769 16.6447 23.5603C16.6448 23.8427 16.6514 23.8447 17.581 23.8409C18.358 23.8375 18.6262 23.8867 19.1582 24.1287C20.2848 24.6413 21.1431 25.7345 21.2674 26.8153L21.3206 27.2777L22.3587 27.279C23.231 27.2802 23.4875 27.3241 23.9642 27.5542C25.1727 28.1375 25.9414 29.2456 26.0363 30.541L26.0903 31.2795H26.9704H27.8505L27.4427 31.0555C26.8572 30.7338 26.6651 30.3603 26.8699 29.9417C26.9573 29.7632 27.1625 29.5711 27.326 29.5147C27.5833 29.4261 27.8893 29.5521 29.5954 30.4485C33.6724 32.5908 34.317 32.8913 34.8349 32.8913C35.1151 32.8913 35.5323 32.7855 35.8205 32.6413ZM12.0817 29.1237C12.6873 28.821 12.7861 28.6868 13.9375 26.6036C14.852 24.9491 14.9842 24.6396 15.0287 24.0498C15.076 23.4234 15.0541 23.3463 14.6989 22.8929C14.0814 22.1046 13.7836 21.9419 12.9581 21.9419C11.7714 21.9419 11.5013 22.2013 10.2026 24.5894C9.01272 26.7773 8.88233 27.2261 9.1998 28.0404C9.63555 29.1581 10.9926 29.6682 12.0817 29.1237ZM7.68481 22.1364C8.00156 21.8589 8.30038 21.0213 10.9235 13.0586C13.5944 4.95084 13.8037 4.25817 13.6869 3.9115C13.6174 3.70521 13.4495 3.46517 13.3138 3.37806C12.9674 3.15572 8.56322 1.76569 8.20514 1.76569C8.0405 1.76569 7.76254 1.90061 7.57537 2.07139C7.27941 2.34141 6.90845 3.38667 4.39616 11.0292C2.83188 15.7879 1.552 19.8245 1.552 19.9995C1.552 20.6628 1.91621 20.8769 4.40417 21.6763C5.6753 22.0846 6.85493 22.424 7.02559 22.4304C7.21627 22.4376 7.47036 22.3243 7.68481 22.1364ZM52.7498 21.5657C55.8923 20.4382 56.1274 20.3343 56.3074 19.9933C56.4001 19.8177 56.4759 19.557 56.4759 19.414C56.4759 19.2709 55.0187 15.3041 53.2376 10.5987C49.7746 1.44984 49.8179 1.54336 49.0491 1.54336C48.7186 1.54336 44.819 2.88052 44.1402 3.22661C43.754 3.42353 43.507 4.02552 43.6336 4.46141C43.7141 4.73865 48.4596 17.2985 49.8949 21.0332C50.1447 21.683 50.5995 22.1072 51.0476 22.1082C51.1514 22.1084 51.9174 21.8643 52.7498 21.5657ZM47.7993 20.191C47.8405 20.0855 42.9398 6.92839 42.81 6.79584C42.795 6.78055 42.4922 6.82521 42.1371 6.89507C41.1638 7.08656 40.1769 6.87835 37.8725 5.9954C35.2265 4.98152 34.829 4.87297 33.4951 4.80002C32.5721 4.74953 32.1858 4.78077 31.4359 4.96654C30.2411 5.26252 29.022 5.85872 27.8517 6.71947C26.7475 7.53153 23.7484 10.3414 22.2355 11.9812L21.1692 13.1369L21.6475 13.6142C22.1674 14.1332 23.1664 14.7001 23.7884 14.8292C25.0459 15.0902 26.321 14.8418 29.4241 13.7314C31.2803 13.0673 32.528 12.7709 33.4678 12.7709C34.2816 12.7709 35.3258 13.0486 35.8795 13.4123C36.1291 13.5764 37.9419 14.5142 39.908 15.4963C44.1016 17.5913 45.5124 18.4271 46.6981 19.5188C47.6072 20.3559 47.7105 20.4189 47.7993 20.191Z" fill="#1CBBDA"/>
</svg>
