<svg width="43" height="40" viewBox="0 0 43 40" fill="none" xmlns="http://www.w3.org/2000/svg">
<path id="path1" d="M18.7013 39.1415V38.283H29.9597H41.2181L41.217 37.7062C41.2144 36.495 40.9803 34.8671 40.6359 33.6687C39.7286 30.5113 37.8711 28.0714 34.9213 26.162L34.2578 25.7326L33.7471 26.1633C32.2962 27.3869 30.4476 28.2643 28.5034 28.6523C27.6361 28.8254 25.9634 28.8918 25.0307 28.7903C22.6457 28.5306 20.588 27.633 18.6592 26.0111L18.3263 25.7312L17.6656 26.1588C16.9034 26.6522 16.3328 27.0775 15.9156 27.4633L15.6223 27.7345L15.4482 27.5762C15.3524 27.4891 15.0737 27.2083 14.8289 26.9522L14.3837 26.4867L14.8762 26.072C15.147 25.844 15.6578 25.4504 16.0113 25.1976C16.6327 24.753 18.1714 23.8323 18.5324 23.6891L18.709 23.619L19.2409 24.1626C20.9719 25.9317 23.0524 26.9095 25.5403 27.1233C27.2276 27.2683 28.956 26.9439 30.5479 26.1833C31.5222 25.7178 32.1788 25.2572 33.1288 24.3729C33.5647 23.9671 33.9387 23.6351 33.9599 23.6351C33.9812 23.6351 34.2681 23.7834 34.5977 23.9647C38.3575 26.0327 40.7797 28.7444 42.0676 32.3273C42.7458 34.2142 43.0804 36.6512 42.9836 38.9998L42.9424 40H30.8219H18.7013L18.7013 39.1415ZM14.3604 39.7348C9.19381 38.4611 5.89725 35.5265 4.7548 31.1839L4.59682 30.5835L3.09322 30.5689L1.58962 30.5543L1.28939 29.819L0.989158 29.0837L1.40141 28.7088C1.62815 28.5025 3.23093 27.0351 4.96314 25.4479C6.69536 23.8606 8.12877 22.562 8.14851 22.562C8.18954 22.562 8.17329 22.5472 12.2459 26.2776C13.9172 27.8084 15.2846 29.0825 15.2846 29.109C15.2846 29.1355 15.1542 29.4721 14.9948 29.8569L14.7051 30.5566H13.2585H11.8118L11.8121 30.8652C11.8124 31.2662 11.9955 32.4532 12.1416 33.0013C12.5948 34.7014 13.3444 35.9936 14.5509 37.1541C14.9082 37.4978 15.4022 37.9208 15.6486 38.094C15.8951 38.2672 16.1069 38.4166 16.1194 38.4259C16.1319 38.4352 15.9949 38.7811 15.8149 39.1946C15.5137 39.8869 15.4764 39.9462 15.3442 39.9441C15.2652 39.9431 14.8225 39.8487 14.3604 39.7348ZM12.2039 37.1902C12.2039 37.1793 12.0913 37.0096 11.9536 36.8129C10.9387 35.3631 10.3008 33.5491 10.0738 31.4674C10.04 31.1568 10.0076 30.4446 10.0018 29.8846L9.99142 28.8665L11.2188 28.8397L12.4462 28.8129L10.3374 26.8813C9.1775 25.8189 8.19427 24.9497 8.15241 24.9497C8.08757 24.9497 7.41448 25.5538 4.25019 28.452L3.8301 28.8368L4.95989 28.8382L6.08968 28.8396L6.12092 28.9872C6.1381 29.0683 6.19136 29.3762 6.23928 29.6713C6.53823 31.5123 7.25372 33.1158 8.37578 34.4595C9.15369 35.3911 10.2951 36.2708 11.5878 36.935C12.0839 37.1899 12.2039 37.2396 12.2039 37.1902ZM0.763441 25.0121C-0.141137 24.8805 -0.0786905 24.9814 0.130928 23.9906C0.413392 22.6555 0.817453 21.5343 1.44822 20.3353C2.69267 17.9697 4.37625 16.2828 6.85331 14.9195L7.412 14.612L7.91814 15.1128C9.00311 16.1863 9.86134 16.7248 11.1133 17.1177C12.3479 17.5051 13.888 17.5684 15.0605 17.28C15.1987 17.246 15.2031 17.2553 15.3917 17.9856C15.4968 18.3926 15.5936 18.7654 15.6068 18.8141C15.6385 18.9314 15.0901 19.0524 14.1376 19.1384C12.6198 19.2754 10.9839 18.993 9.51719 18.3408C8.90466 18.0685 7.89635 17.4381 7.42696 17.0342L7.10298 16.7554L6.86684 16.9042C5.59071 17.7084 4.34873 18.9471 3.50743 20.2548C2.72044 21.478 2.03991 23.2542 1.7857 24.7484C1.73357 25.0549 1.6998 25.136 1.62657 25.1308C1.57544 25.1271 1.18703 25.0737 0.763441 25.0121ZM24.9186 25.003C21.0031 24.4902 17.6873 21.854 16.462 18.2795C16.0672 17.1278 15.985 16.5948 15.9848 15.1844C15.9847 14.2036 16.0063 13.8401 16.0898 13.4137C16.9451 9.04506 20.5944 5.78684 25.1987 5.2811C25.9141 5.20251 27.3166 5.24333 28.0273 5.36341C31.796 6.00022 34.9227 8.5654 36.1069 11.9919C36.8348 14.0984 36.8394 16.2125 36.1205 18.2812C35.7407 19.3743 35.2799 20.2108 34.5459 21.1401C32.8269 23.3163 30.2368 24.7304 27.4274 25.0265C26.7182 25.1012 25.5875 25.0906 24.9186 25.003ZM27.5869 23.284C30.7392 22.8356 33.4181 20.6737 34.4343 17.7581C34.7619 16.8181 34.8526 16.2541 34.8526 15.1575C34.8526 14.0877 34.7723 13.5679 34.4608 12.621C34.0258 11.2986 33.0868 9.92833 31.9814 9.00253C29.3621 6.80895 25.7007 6.31988 22.5941 7.74863C21.0542 8.45684 19.7903 9.55983 18.9331 10.9435C18.0985 12.2907 17.7294 13.5805 17.7272 15.1575C17.7253 16.3388 17.921 17.2948 18.3746 18.3232C19.5106 20.8984 21.9564 22.7751 24.8066 23.2584C25.5546 23.3852 26.7948 23.3966 27.5869 23.284ZM12.7691 15.956C10.9307 15.7518 9.16995 14.9304 7.8362 13.6548C6.65327 12.5234 5.89738 11.1682 5.53205 9.52371C5.35446 8.72433 5.35235 7.27266 5.52763 6.48871C5.90379 4.80638 6.6192 3.53747 7.85665 2.35779C8.82028 1.43913 9.76116 0.860045 10.9436 0.457839C12.3637 -0.0252014 13.9384 -0.129401 15.4246 0.161328C17.3573 0.539416 19.2017 1.65946 20.3907 3.17714C20.7105 3.58529 21.2242 4.3819 21.2184 4.46055C21.2165 4.48604 20.8652 4.66851 20.4377 4.86601L19.6605 5.22509L19.4821 4.91966C19.0509 4.18147 18.158 3.24816 17.4558 2.80172C16.2394 2.0283 15.1974 1.72641 13.7442 1.72641C12.5489 1.72641 11.7541 1.90119 10.7602 2.38266C6.79826 4.30188 5.94172 9.38809 9.06876 12.4267C10.293 13.6162 11.9868 14.299 13.7137 14.299H14.2567L14.3202 15.1125C14.3552 15.5599 14.3708 15.9462 14.3548 15.971C14.3186 16.0271 13.3248 16.0177 12.7691 15.956Z" fill="#1CBBDA"/>
</svg>
