<svg width="40" height="40" viewBox="0 0 40 40" fill="none" xmlns="http://www.w3.org/2000/svg">
<g id="Group 56111">
<path id="path1" d="M1.23905 39.7895C0.721368 39.5068 0.402319 38.9759 0.402319 38.3973C0.402319 38.1506 0.457879 37.8528 0.525785 37.7356C0.738699 37.368 4.23477 34.1133 4.57433 33.9665C4.86699 33.84 6.32714 33.8268 20 33.8268C33.7595 33.8268 35.1316 33.8394 35.4302 33.9685C35.7249 34.0959 39.2093 37.2975 39.4171 37.6319C39.8602 38.3448 39.5127 39.4061 38.6999 39.8222C38.3514 40.0006 38.3339 40.0007 19.987 39.9999L1.62291 39.9992L1.23905 39.7895ZM38.1205 38.4994C38.1632 38.2977 37.919 38.0376 36.2029 36.4572L34.7629 35.1311H19.9943H5.22566L3.54362 36.7004C2.01478 38.1267 1.73344 38.4637 1.92547 38.6386C1.96061 38.6706 10.1116 38.6869 20.0387 38.6749C37.2005 38.654 38.0897 38.6453 38.1205 38.4994ZM12.078 32.6715C11.7924 32.5398 11.6434 32.1978 11.7319 31.8767C11.8382 31.4909 12.2586 31.392 13.7917 31.392H15.1313V28.3557V25.3194L10.0477 25.282C5.71539 25.2502 4.88661 25.2238 4.43914 25.1032C2.37844 24.548 0.804547 23.1298 0.175627 21.2615C0.010409 20.7707 0 20.2553 0 12.5658V4.39183L0.292117 3.64885C0.452781 3.24022 0.746972 2.68255 0.945873 2.4096C1.4527 1.71409 2.44081 0.918947 3.23957 0.563846C4.59098 -0.0369387 3.47714 0.000499451 20 0.000499451C36.5487 0.000499451 35.4057 -0.0385435 36.7825 0.573765C37.5917 0.93367 38.5345 1.69654 39.0582 2.41515C39.2548 2.68505 39.5472 3.24022 39.7079 3.64885L40 4.39183V12.5658C40 20.2553 39.9896 20.7707 39.8244 21.2615C39.335 22.7153 38.1538 24.0361 36.8019 24.6413C35.4311 25.2549 35.5832 25.2406 29.9523 25.282L24.8687 25.3194V28.3557V31.392H26.2083C27.7414 31.392 28.1618 31.4909 28.2681 31.8767C28.3566 32.1978 28.2076 32.5398 27.922 32.6715C27.7376 32.7565 25.9798 32.7807 20 32.7807C14.0202 32.7807 12.2624 32.7565 12.078 32.6715ZM23.4368 28.3485V25.305H20H16.5632V28.3485V31.392H20H23.4368V28.3485ZM35.3981 23.739C36.2099 23.5106 37.1035 22.9595 37.5648 22.403C37.9933 21.8859 38.4225 21.0875 38.4239 20.805L38.425 20.6093H20H1.57518L1.57612 20.805C1.57662 20.9126 1.68701 21.2158 1.8214 21.4789C2.38355 22.5792 3.28931 23.33 4.51282 23.7098L5.15514 23.9092L19.9661 23.9115C34.5337 23.9138 34.7872 23.9108 35.3981 23.739ZM38.6139 12.3701C38.6128 8.21671 38.5736 5.19118 38.5164 4.82661C38.3221 3.58833 37.4163 2.37334 36.2658 1.80772C35.1896 1.27859 36.0392 1.30485 20 1.30485C3.96084 1.30485 4.81045 1.27859 3.7342 1.80772C2.58372 2.37334 1.67793 3.58833 1.48357 4.82661C1.42635 5.19118 1.38727 8.21671 1.38614 12.3701L1.38426 19.305H20H38.6158L38.6139 12.3701Z" fill="#1CBBDA"/>
<path id="path1_2" d="M19.3143 17.2493C19.2041 17.1429 19.1493 17.0033 19.1347 16.792L19.1136 16.4879L18.1084 16.4704L17.1032 16.453L17.0155 16.6452C16.7386 17.2516 15.829 17.3875 15.3135 16.8993C15.1501 16.7446 15.107 16.6405 15.0843 16.346C15.061 16.0433 15.0835 15.9466 15.2203 15.7624C15.4433 15.4621 15.7908 15.3069 16.1632 15.3412C16.5147 15.3736 16.8893 15.6126 17.0129 15.8833L17.1004 16.075L18.3267 16.0922L19.553 16.1094L19.5736 16.5352L19.5941 16.961H20.6608H21.7274L21.7546 16.524C21.7876 15.9936 21.8748 15.8903 22.4199 15.735C22.6404 15.6722 23.0311 15.525 23.2883 15.4078C23.5454 15.2906 23.8054 15.1947 23.866 15.1947C23.9266 15.1947 24.1467 15.3411 24.3552 15.5199C24.5636 15.6988 24.7573 15.8263 24.7856 15.8033C24.8138 15.7802 25.1566 15.4724 25.5473 15.1192L26.2576 14.4771L25.9123 14.1458C25.5042 13.7543 25.483 13.6161 25.748 13.0736C25.8476 12.8698 25.9892 12.5269 26.0628 12.3115C26.1363 12.0961 26.2347 11.8974 26.2815 11.8699C26.3282 11.8424 26.6168 11.8058 26.9227 11.7884L27.4789 11.7569V10.7791V9.8014L26.8879 9.76986C26.5629 9.75252 26.2599 9.71649 26.2146 9.68981C26.1692 9.66314 26.068 9.48564 25.9895 9.29539C25.9111 9.10514 25.7526 8.78005 25.6374 8.57297C25.337 8.03305 25.3554 7.93509 25.8436 7.47374L26.2594 7.08094L25.5209 6.40685C25.1147 6.0361 24.7624 5.73276 24.738 5.73276C24.7135 5.73276 24.5078 5.90307 24.2807 6.11124C23.8019 6.55022 23.6177 6.58541 23.0791 6.34074C22.8988 6.2588 22.5906 6.14408 22.3943 6.08581C21.8605 5.92729 21.7908 5.82659 21.7558 5.16231L21.7261 4.59732H20.6596H19.5932L19.5731 5.14927L19.553 5.70122L19.2054 5.743C19.0142 5.76598 18.4619 5.78727 17.9782 5.79031L17.0986 5.79584L16.9554 6.01604C16.732 6.35955 16.4273 6.50161 15.9786 6.47142C15.6436 6.44888 15.5732 6.4177 15.3355 6.1865C15.0956 5.95312 15.0687 5.89317 15.0689 5.59327C15.0691 5.37375 15.1156 5.19059 15.2049 5.05771C15.5984 4.47216 16.6545 4.5189 16.9773 5.13616L17.0931 5.35761L18.1013 5.34017L19.1095 5.32274L19.1263 4.89854C19.14 4.55162 19.1731 4.44532 19.308 4.31505C19.4721 4.15657 19.4791 4.15576 20.6807 4.15576C21.8703 4.15576 21.891 4.15809 22.0591 4.31059C22.2149 4.45196 22.2297 4.51462 22.2297 5.03094V5.59646L22.5947 5.70487C22.7955 5.7645 23.1115 5.88224 23.297 5.96652L23.6342 6.11975L24.1157 5.69793C24.77 5.12487 24.7968 5.13113 25.8763 6.10955C26.6271 6.78995 26.7072 6.88419 26.7072 7.08733C26.7072 7.27702 26.6433 7.37066 26.2986 7.68678L25.8899 8.06143L26.1424 8.55294C26.2812 8.82327 26.4268 9.1225 26.4658 9.21791C26.5353 9.3875 26.5494 9.39138 27.098 9.39138C27.601 9.39138 27.6767 9.4074 27.8297 9.54621C27.9974 9.69841 28.0003 9.71921 28.0003 10.7693C28.0003 12.1175 27.9985 12.1206 27.1701 12.1669L26.6052 12.1984L26.4117 12.7031C26.3053 12.9806 26.1676 13.2929 26.1058 13.3969L25.9935 13.5862L26.3503 13.9163C26.6448 14.1888 26.7072 14.2857 26.7072 14.4711C26.7072 14.674 26.6268 14.7685 25.8763 15.4487C24.8315 16.3957 24.7605 16.4174 24.2215 15.9549L23.8411 15.6285L23.472 15.7982C23.2689 15.8916 22.9142 16.0321 22.6837 16.1106L22.2645 16.2532L22.2297 16.7074C22.1772 17.3935 22.1571 17.4025 20.6698 17.4025C19.4924 17.4025 19.4704 17.4 19.3143 17.2493ZM16.4586 16.6145C16.9338 16.1556 16.2152 15.4619 15.7083 15.8903C15.4981 16.068 15.4546 16.2818 15.5829 16.5069C15.7055 16.7219 15.778 16.7597 16.082 16.7667C16.2249 16.7701 16.3498 16.7196 16.4586 16.6145ZM16.4591 5.922C16.6404 5.75755 16.6477 5.35138 16.472 5.20711C16.4025 5.1501 16.2474 5.08561 16.1271 5.06379C15.9437 5.0305 15.8732 5.05614 15.689 5.22327C15.5041 5.39103 15.4763 5.45432 15.5126 5.6249C15.5363 5.73626 15.6217 5.87705 15.7023 5.93777C15.9014 6.08775 16.2853 6.07975 16.4591 5.922ZM18.1699 15.158C18.1467 15.1031 18.1277 14.7341 18.1277 14.338V13.6177L16.3722 13.6191L14.6167 13.6205L14.5067 13.8241C14.1508 14.4828 13.0563 14.4717 12.6875 13.8057C12.5332 13.527 12.5332 13.2668 12.6875 12.9881C13.0563 12.3221 14.1508 12.311 14.5067 12.9697L14.6167 13.1732L16.5321 13.1747C17.9274 13.1757 18.4702 13.1966 18.531 13.2518C18.5865 13.3021 18.6144 13.577 18.6144 14.0718V14.8162H19.7914C20.7687 14.8162 20.9869 14.833 21.0776 14.9153C21.2087 15.0343 21.2134 15.0823 21.1034 15.182C21.0441 15.2359 20.6153 15.2577 19.6161 15.2577C18.4 15.2577 18.2065 15.2444 18.1699 15.158ZM14.0084 13.7037C14.2222 13.4903 14.2064 13.2673 13.9616 13.0452C13.7411 12.8451 13.6128 12.8207 13.3781 12.9342C13.1552 13.0419 13.0568 13.1836 13.0568 13.3969C13.0568 13.6216 13.1763 13.7811 13.4063 13.8638C13.629 13.9438 13.8183 13.8935 14.0084 13.7037ZM19.7964 14.2403C19.1764 14.0876 19.035 13.9762 19.2005 13.7708C19.2864 13.6642 19.3102 13.6644 19.7346 13.7747C21.3663 14.1986 23.0639 13.4834 23.8155 12.0552C24.069 11.5736 24.0722 11.5579 24.0722 10.7791C24.0722 10.0003 24.069 9.98464 23.8155 9.50304C23.0639 8.07492 21.3663 7.35964 19.7346 7.78359C19.3102 7.89385 19.2864 7.89403 19.2005 7.78748C19.0318 7.57808 19.1775 7.46851 19.8311 7.31337C20.2375 7.21693 21.1647 7.23213 21.6416 7.34305C23.365 7.74394 24.5915 9.17256 24.5915 10.7791C24.5915 12.3783 23.3539 13.8202 21.6416 14.2159C21.1862 14.3211 20.1785 14.3344 19.7964 14.2403ZM16.0587 11.5995C15.6965 11.3992 15.5428 11.1219 15.5749 10.7273C15.5982 10.4429 15.6404 10.3571 15.8519 10.1652C16.0629 9.97374 16.1598 9.93431 16.4776 9.9104C16.949 9.87493 17.23 9.9966 17.4685 10.3394L17.6428 10.5899H19.3726C20.8461 10.5899 21.1084 10.6039 21.1425 10.6845C21.1645 10.7366 21.1645 10.8217 21.1425 10.8738C21.1084 10.9543 20.8468 10.9684 19.3784 10.9684H17.6543L17.4712 11.2519C17.3704 11.4078 17.1969 11.5781 17.0856 11.6304C16.8009 11.764 16.3304 11.7498 16.0587 11.5995ZM16.998 11.1175C17.2118 10.904 17.196 10.681 16.9512 10.4589C16.7267 10.2552 16.6254 10.2372 16.3482 10.3518C15.9252 10.5267 15.9244 11.0901 16.3468 11.2559C16.6125 11.3601 16.7933 11.3217 16.998 11.1175ZM13.304 9.19997C13.061 9.13396 12.7979 8.91936 12.6557 8.67128C12.4152 8.25184 12.7263 7.58559 13.2335 7.43371C13.7424 7.28136 14.3337 7.4859 14.5117 7.87583L14.5988 8.06671H16.3633H18.1277V7.32237C18.1277 6.82754 18.1557 6.55265 18.2112 6.50233C18.2704 6.44858 18.6913 6.42663 19.6627 6.42663C20.8261 6.42663 21.0445 6.44158 21.1222 6.52654C21.1884 6.59899 21.1935 6.65533 21.1406 6.73155C21.0777 6.82203 20.8969 6.83905 19.841 6.85388L18.6144 6.8711V7.58991C18.6144 7.98525 18.5954 8.35361 18.5722 8.40849C18.5351 8.49623 18.2919 8.50827 16.556 8.50827C14.8685 8.50827 14.582 8.52169 14.582 8.60069C14.582 8.76535 14.1618 9.13388 13.8984 9.20026C13.6062 9.27389 13.5761 9.2739 13.304 9.19997ZM13.8391 8.75028C14.1876 8.58189 14.2634 8.26055 14.0207 7.9806C13.7285 7.64357 13.0524 7.84641 13.0524 8.27109C13.0524 8.69584 13.4503 8.93818 13.8391 8.75028Z" fill="#1CBBDA"/>
</g>
</svg>
