<svg xmlns="http://www.w3.org/2000/svg" width="11" height="11" viewBox="0 0 11 11" fill="none">
  <path d="M4.28109 1.89351C4.74345 0.69733 4.97462 0.0992395 5.35021 0.016347C5.44897 -0.00544899 5.55103 -0.00544899 5.64979 0.016347C6.02538 0.0992395 6.25655 0.69733 6.71891 1.89351C6.98184 2.57376 7.1133 2.91388 7.3593 3.14521C7.4283 3.2101 7.5032 3.26789 7.58294 3.31777C7.86727 3.49561 8.22219 3.5286 8.93205 3.59457C10.1337 3.70626 10.7345 3.7621 10.918 4.11762C10.956 4.19125 10.9819 4.27097 10.9945 4.35347C11.0553 4.75179 10.6136 5.16883 9.73019 6.0029L9.48487 6.23451C9.07187 6.62445 8.86536 6.81942 8.74592 7.06275C8.67427 7.20871 8.62623 7.3659 8.60372 7.52803C8.56619 7.79831 8.62666 8.08116 8.7476 8.64685L8.79081 8.84896C9.0077 9.86343 9.11615 10.3707 8.98077 10.62C8.85918 10.844 8.63519 10.9873 8.38777 10.9996C8.11232 11.0132 7.7242 10.685 6.94795 10.0286C6.43654 9.59615 6.18083 9.37991 5.89696 9.29544C5.63755 9.21825 5.36245 9.21825 5.10304 9.29544C4.81917 9.37991 4.56346 9.59615 4.05205 10.0286C3.2758 10.685 2.88768 11.0132 2.61223 10.9996C2.36481 10.9873 2.14082 10.844 2.01923 10.62C1.88385 10.3707 1.9923 9.86343 2.20919 8.84896L2.2524 8.64685C2.37334 8.08116 2.43381 7.79831 2.39628 7.52803C2.37377 7.3659 2.32573 7.20871 2.25408 7.06275C2.13464 6.81942 1.92813 6.62445 1.51513 6.23451L1.26981 6.0029C0.386409 5.16883 -0.055293 4.75179 0.00553583 4.35347C0.018134 4.27097 0.0439704 4.19125 0.0819706 4.11762C0.26545 3.7621 0.866283 3.70626 2.06795 3.59457C2.77781 3.5286 3.13274 3.49561 3.41706 3.31777C3.4968 3.26789 3.5717 3.2101 3.6407 3.14521C3.88669 2.91388 4.01816 2.57376 4.28109 1.89351Z" fill="#FFD600"/>
</svg>