<svg xmlns="http://www.w3.org/2000/svg" xmlns:xlink="http://www.w3.org/1999/xlink" width="48 " height="48" viewBox="0 0 26 26">
  <defs>
    <clipPath id="clip-path">
      <rect id="Rectangle_203" data-name="Rectangle 203" width="26" height="26" fill="#fff" />
    </clipPath>
  </defs>
  <g id="AWS" clip-path="url(#clip-path)">
    <path id="Path_12129" data-name="Path 12129" d="M7.585,16.372,5.2,17.4l2.206.948L9.967,17.4Zm-3.58,1.286-.08,4.631L7.41,23.833V19.025Zm7.161,0L8.018,18.864V23.4l3.149-1.286V17.658ZM14.925,3.25l-2.4,1.029,2.222.949,2.558-.949L14.924,3.25ZM11.6,4.617V9.248l2.974.869.1-4.214Zm6.652.258L15.436,6.081v4.55L18.25,9.345V4.875ZM3.659,9.768,1.278,10.8l2.206.949L6.041,10.8ZM.08,11.054,0,15.687,3.485,17.23V12.423Zm7.161,0L4.093,12.261v4.534l3.149-1.286V11.054ZM11.335,9.6,8.953,10.626l2.206.949,2.558-.949ZM7.753,10.884l-.08,4.631,3.485,1.544V12.251Zm7.162,0L11.766,12.09v4.535l3.149-1.287Zm7.5-7.634L20.037,4.279l2.206.949L24.8,4.279ZM18.839,4.536l-.08,4.631,3.485,1.544V5.9Zm7.162,0L22.852,5.743v4.535L26,8.991V4.536Z" fill="#f7a80d" />
  </g>
</svg>