<svg xmlns="http://www.w3.org/2000/svg" width="56" height="56.812" viewBox="0 0 56 56.812">
  <g id="circleci" transform="translate(-0.835)">
    <circle id="Ellipse_492" data-name="Ellipse 492" cx="6.736" cy="6.736" r="6.736" transform="translate(21.693 21.67)" fill="#fff"/>
    <path id="Path_22177" data-name="Path 22177" d="M.916,21.264c0,.081-.081.243-.081.325a1.368,1.368,0,0,0,1.38,1.38H13.658a1.329,1.329,0,0,0,1.217-.812,14.812,14.812,0,1,1,0,12.417,1.289,1.289,0,0,0-1.218-.893H2.215a1.368,1.368,0,0,0-1.38,1.38.488.488,0,0,0,.081.325,28.324,28.324,0,1,0,0-14.122Z" fill="#fff"/>
  </g>
</svg>
