<svg xmlns="http://www.w3.org/2000/svg" width="48" height="48" viewBox="0 0 26 11.759">
  <g id="CloudFlare" transform="translate(0 -6.5)">
    <path id="Path_12141" data-name="Path 12141" d="M17.909,17.5a1.54,1.54,0,0,0-.162-1.4,1.669,1.669,0,0,0-1.133-.593L7.228,15.4c-.054,0-.108-.054-.162-.054a.1.1,0,0,1,0-.162c.054-.108.108-.162.216-.162l9.44-.108a3.394,3.394,0,0,0,2.751-2.05l.539-1.4c0-.054.054-.108,0-.162A6.147,6.147,0,0,0,8.2,10.653a2.945,2.945,0,0,0-1.942-.539A2.81,2.81,0,0,0,3.776,12.6a2.947,2.947,0,0,0,.054.971A3.939,3.939,0,0,0,0,17.5a2.213,2.213,0,0,0,.054.593.172.172,0,0,0,.162.162H17.531c.108,0,.216-.054.216-.162Z" fill="#e7863c"/>
    <path id="Path_12142" data-name="Path 12142" d="M20.875,11.463h-.27c-.054,0-.108.054-.162.108l-.378,1.295a1.54,1.54,0,0,0,.162,1.4,1.669,1.669,0,0,0,1.133.593l2,.108c.054,0,.108.054.162.054a.1.1,0,0,1,0,.162c-.054.108-.108.162-.216.162l-2.05.108A3.394,3.394,0,0,0,18.5,17.5l-.108.485c-.054.054,0,.162.108.162h7.12a.143.143,0,0,0,.162-.162,5.868,5.868,0,0,0,.216-1.4A5.157,5.157,0,0,0,20.875,11.463Z" fill="#f1af55"/>
  </g>
</svg>
