<svg xmlns="http://www.w3.org/2000/svg" xmlns:xlink="http://www.w3.org/1999/xlink" width="48" height="48" viewBox="0 0 26 26">
  <defs>
    <clipPath id="clip-path">
      <rect id="Rectangle_205" data-name="Rectangle 205" width="26" height="26" fill="#fff"/>
    </clipPath>
  </defs>
  <g id="Digital_Ocean" data-name="Digital Ocean" clip-path="url(#clip-path)">
    <path id="Path_12134" data-name="Path 12134" d="M12.995,26V21.008A7.942,7.942,0,0,0,20.426,10.2a7.508,7.508,0,0,0-4.494-4.455,7.991,7.991,0,0,0-10.9,7.369,0,0,0,0,1,0,0H0A13.022,13.022,0,0,1,17.136.862,12.516,12.516,0,0,1,25.346,9,12.95,12.95,0,0,1,13,26" fill="#0069ff"/>
    <path id="Path_12135" data-name="Path 12135" d="M13.006,21.021H7.988V16.046h5.018ZM7.987,24.845H4.133V21.021H7.988v3.823ZM4.135,21.021H.9v-3.2a0,0,0,0,1,0,0h3.23v3.207Z" fill="#0069ff"/>
  </g>
</svg>
