<svg xmlns="http://www.w3.org/2000/svg" xmlns:xlink="http://www.w3.org/1999/xlink" width="48" height="48" viewBox="0 0 26 26">
  <defs>
    <clipPath id="clip-path">
      <rect id="Rectangle_204" data-name="Rectangle 204" width="26" height="26" fill="#fff"/>
    </clipPath>
  </defs>
  <g id="GCP" clip-path="url(#clip-path)">
    <path id="Path_12130" data-name="Path 12130" d="M16.493,7.715h.793l2.26-2.26.111-.96A10.159,10.159,0,0,0,3.13,9.452,1.223,1.223,0,0,1,3.923,9.4l4.52-.746s.229-.381.35-.357a5.638,5.638,0,0,1,7.716-.587Z" fill="#ea4335"/>
    <path id="Path_12131" data-name="Path 12131" d="M22.765,9.452A10.173,10.173,0,0,0,19.7,4.5L16.525,7.676a5.639,5.639,0,0,1,2.07,4.473v.563a2.823,2.823,0,0,1,0,5.647H12.948l-.563.571v3.387l.563.563h5.647a7.345,7.345,0,0,0,4.17-13.428Z" fill="#4285f4"/>
    <path id="Path_12132" data-name="Path 12132" d="M7.295,22.844h5.647v-4.52H7.295a2.811,2.811,0,0,1-1.166-.254l-.793.247-2.276,2.26-.2.793A7.288,7.288,0,0,0,7.295,22.844Z" fill="#34a853"/>
    <path id="Path_12133" data-name="Path 12133" d="M7.295,8.183A7.342,7.342,0,0,0,2.862,21.346l3.274-3.274a2.823,2.823,0,1,1,3.735-3.735l3.274-3.274A7.326,7.326,0,0,0,7.295,8.183Z" fill="#fbbc05"/>
  </g>
</svg>
