<svg xmlns="http://www.w3.org/2000/svg" width="53.399" height="60" viewBox="0 0 53.399 60">
  <path id="graphql" d="M31.826,6.876,44.163,14A5.35,5.35,0,1,1,49.3,22.876V37.128a5.349,5.349,0,1,1-5.26,8.76l-12.262,7.08a5.347,5.347,0,1,1-10.208.173L9.235,46.018A5.35,5.35,0,1,1,4.1,37.128V22.876a5.351,5.351,0,1,1,5.13-8.883L21.571,6.868a5.347,5.347,0,1,1,10.255.008ZM30.54,9.071l12.367,7.14a5.342,5.342,0,0,0,3.849,6.653v14.27c-.069.017-.139.035-.207.055L30.4,9.213q.073-.07.144-.143Zm-7.535.146L6.854,37.191q-.1-.03-.211-.056V22.863A5.342,5.342,0,0,0,10.49,16.2L22.853,9.065q.075.077.153.152Zm5.188,1.267L44.341,38.452a5.368,5.368,0,0,0-1.5,2.611H10.563a5.324,5.324,0,0,0-1.5-2.6L25.21,10.485a5.4,5.4,0,0,0,2.984,0Zm2.46,40.566L42.94,43.956q-.055-.174-.1-.351H10.556c-.017.069-.036.138-.055.207l12.347,7.129a5.354,5.354,0,0,1,7.807.109Z" transform="translate(0)" fill="#e535ab" fill-rule="evenodd" opacity="0.8"/>
</svg>
