<svg id="InVision" xmlns="http://www.w3.org/2000/svg" width="48" height="48" viewBox="0 0 26 26">
  <path id="Path_12159" data-name="Path 12159" d="M26,8.635V23.751A2.25,2.25,0,0,1,23.757,26H2.243A2.235,2.235,0,0,1,0,23.827V2.249A2.226,2.226,0,0,1,2.243,0h21.4A2.4,2.4,0,0,1,26,2.3Z" fill="#ed4969"/>
  <path id="Path_12160" data-name="Path 12160" d="M18.131,9.149c1.444,0,2.585.991,2.585,3.012a7.061,7.061,0,0,1-.228,1.677l-.722,2.592a3.1,3.1,0,0,0-.152.724c0,.419.228.724.494.724.342,0,.8-.3,1.292-1.677l.988.343c-.57,2.1-1.672,2.974-3,2.974a2.083,2.083,0,0,1-2.319-2.249,6.786,6.786,0,0,1,.152-1.144l.722-2.669a3.65,3.65,0,0,0,.152-.8,1.243,1.243,0,0,0-1.368-1.373c-1.064,0-1.786.8-2.167,2.249l-1.444,5.833H10.643l.418-1.868a3.637,3.637,0,0,1-3.079,2.021A2.027,2.027,0,0,1,5.739,17.27a5.9,5.9,0,0,1,.152-1.144l1.14-4.765H5.245L5.739,9.34h4.333L8.362,16.126a2.985,2.985,0,0,0-.152,1.067c0,.419.228.572.57.648h.152A3.016,3.016,0,0,0,11.517,15.9l1.14-4.537H10.795l.57-2.021h3.877l-.494,2.326A4.3,4.3,0,0,1,18.131,9.149ZM9.046,7.929A1.481,1.481,0,0,1,7.526,6.4,1.527,1.527,0,0,1,9.046,4.88,1.481,1.481,0,0,1,10.567,6.4,1.438,1.438,0,0,1,9.046,7.929Z" fill="#fff"/>
</svg>
