<svg xmlns="http://www.w3.org/2000/svg" width="56" height="77.433" viewBox="0 0 56 77.433">
  <g id="jenkins" transform="translate(-0.893 -0.296)">
    <path id="Path_22178" data-name="Path 22178" d="M59,71.241c0,15.336-12.16,27.781-27.167,27.781S4.664,86.577,4.664,71.241,16.824,43.46,31.831,43.46,59,55.9,59,71.241" transform="translate(-2.938 -33.633)" fill="#d33833"/>
    <path id="Path_22179" data-name="Path 22179" d="M4.7,84.306s-1.972-28.964,24.736-29.8L27.571,51.4,13.089,56.262,8.949,61.016,5.334,67.939,3.274,76l.614,5.39" transform="translate(-1.855 -39.819)" fill="#ef3d3a"/>
    <path id="Path_22180" data-name="Path 22180" d="M10.292,49.661a27.412,27.412,0,0,0,0,38.122,25.878,25.878,0,0,0,37.2,0,27.412,27.412,0,0,0,0-38.122,25.878,25.878,0,0,0-37.2,0Zm-1.2,39.283a29.077,29.077,0,0,1,0-40.466,27.57,27.57,0,0,1,39.612,0,29.077,29.077,0,0,1,0,40.466,27.57,27.57,0,0,1-39.612,0Z" transform="translate(0 -31.005)" fill="#231f20"/>
    <path id="Path_22181" data-name="Path 22181" d="M76.513,41.551l-4.141.613-5.587.635-3.615.088-3.527-.11-2.695-.832L54.56,39.36,52.7,34.08l-.416-1.139-2.476-.832L48.36,29.72,47.33,26.3l1.139-3,2.695-.942,2.169,1.03,1.03,2.279,1.249-.2.416-.526-.416-2.388-.11-3,.613-4.141-.022-2.366,1.884-3.023,3.308-2.388L67.07,5.16,73.49,6.1l5.587,4.031,2.585,4.141,1.665,3,.416,7.449-1.249,6.419-2.279,5.7-2.147,3.045" transform="translate(-36.184 -3.79)" fill="#f0d6b7"/>
    <path id="Path_22182" data-name="Path 22182" d="M60.56,182.692l-14.789.613v2.476l1.249,8.7-.614.723-10.341-3.527-.723-1.249-1.03-11.7-2.432-7.011-.526-1.665,8.282-5.7,2.585-1.03,2.278,2.8,1.972,1.753,2.279.723,1.03.307,1.249,5.39.942,1.139,2.388-.833-1.665,3.22,8.983,4.25-1.117.613" transform="translate(-23.736 -127.031)" fill="#335061"/>
    <path id="Path_22183" data-name="Path 22183" d="M51.021,26.824l2.695-.942,2.169,1.03,1.03,2.279,1.249-.2.307-1.249-.614-2.388.613-5.7-.526-3.111,1.862-2.169,4.031-3.2L62.7,9.625l-5.7,2.8-2.388,1.862-1.337,2.892-2.059,2.8L50.6,23.3l.416,3.527" transform="translate(-38.735 -7.269)" fill="#6d6b6d"/>
    <path id="Path_22184" data-name="Path 22184" d="M55.272,18.4s1.555-3.834,7.756-5.7.307-1.337.307-1.337l-6.727,2.585-2.585,2.585L52.883,18.6l2.388-.2m-3.111,9s-2.169-7.252,6.113-8.282l-.307-1.249-5.7,1.337L50.6,24.6l.416,3.527,1.139-.723" transform="translate(-38.735 -8.573)" fill="#dcd9d8"/>
    <path id="Path_22185" data-name="Path 22185" d="M52.608,29.418,53.967,28.1a.873.873,0,0,1,.723.789c.11.723.416,7.252,4.864,10.758.416.329-3.308-.526-3.308-.526l-3.309-5.171m18.711-6.507s.241-3.133,1.1-2.892a1.171,1.171,0,0,1,.855,1.1s-2.059,1.315-1.95,1.8m8.588-11.48s-1.709.35-1.862,1.862,1.862.307,2.169.2m-12.817-1.95s-2.279.307-2.279,1.753,2.585,1.336,3.308.723M53.66,22.8s-3.921-2.388-4.338-.11-1.337,3.921.613,6.31L48.6,28.585l-1.249-3.2-.416-3.111L49.322,19.8l2.695.2,1.556,1.249L53.66,22.8m1.862-6.529S57.275,7.158,66.17,5.405c7.317-1.446,11.174.307,12.62,1.972,0,0-6.529-7.756-12.729-5.39C59.86,4.376,55.3,8.714,55.413,11.5c.175,4.776.11,4.776.11,4.776M79.513,8.407s-3-.11-3.111,2.585a2.169,2.169,0,0,0,.2.833s2.388-2.695,3.834-1.249" transform="translate(-35.875 -0.968)" fill="#f7e4cd"/>
    <path id="Path_22186" data-name="Path 22186" d="M114.06,40.678s-.526-4.119-4.031-1.731c-2.279,1.556-2.06,3.725-1.665,4.141.416.416.307,1.249.613.679s.219-2.432,1.358-2.958c1.117-.526,3-1.1,3.725-.131" transform="translate(-83.546 -29.536)" fill="#f7e4cd"/>
    <path id="Path_22187" data-name="Path 22187" d="M44.6,165.818l-9.728,4.338s4.031,16.038,1.972,21.011l-1.446-.526-.11-6.113-2.695-11.568-1.139-3.2L41.6,162.926l3,2.892m.986,8.873,1.38,1.687v6.2H45.322s-.2-4.338-.2-4.864.2-2.388.2-2.388m.307,8.194-4.667.2,1.337.942,3.308.526" transform="translate(-23.812 -126.721)" fill="#49728b"/>
    <path id="Path_22188" data-name="Path 22188" d="M167.789,251.149l3.834-.11.942,9.508-3.922.526-.855-9.925" transform="translate(-130.045 -195.378)" fill="#335061"/>
    <path id="Path_22189" data-name="Path 22189" d="M172.453,177.39l5.784-.307s2.388-6,2.388-6.31,2.059-8.7,2.059-8.7l-4.667-4.864-.942-.832-2.476,2.476v9.618l-2.147,8.917" transform="translate(-133.679 -121.619)" fill="#335061"/>
    <path id="Path_22190" data-name="Path 22190" d="M171.4,176.744l-3.615.723.526,2.892c1.336.613,3.615-1.03,3.615-1.03m-.416-20.7,7.252,5.39.2-2.476-5.477-5.061-1.972,2.147" transform="translate(-130.045 -121.696)" fill="#49728b"/>
    <path id="Path_22191" data-name="Path 22191" d="M99.942,271.833l-2.147-8.7-1.074-6.419-.175-4.754,9.706-.526h6.025l-.548,10.867.942,8.391-.11,1.556-7.865.614-4.754-1.03" transform="translate(-74.532 -195.687)" fill="#fff"/>
    <path id="Path_22192" data-name="Path 22192" d="M138.387,248.874s-.526,10.758,1.03,18.426a19.627,19.627,0,0,1-7.646,2.476l8.7-.307,1.03-.613L140.249,251.9l-.329-3.637" transform="translate(-101.979 -193.213)" fill="#dcd9d8"/>
    <path id="Path_22193" data-name="Path 22193" d="M186.249,249.84l4.031-1.139,7.646-.416,1.139-3.527-2.06-6.113-2.388-.307-3.308,1.03-3.155,1.556-1.687-.307-1.315.526" transform="translate(-143.575 -185.481)" fill="#fff"/>
    <path id="Path_22194" data-name="Path 22194" d="M189.817,255.027a14.828,14.828,0,0,1,3.111-1.139l-1.139-5.7,1.337-.526s.942,5.39.942,6c0,0,5.784.307,6.31.307a9.419,9.419,0,0,0,.942-4.864l1.139,3.308.11,1.862-1.665,2.476-1.862.416-3.111-.11-1.03-1.337-3.615.526-1.139.416" transform="translate(-147.209 -192.749)" fill="#dcd9d8"/>
    <path id="Path_22195" data-name="Path 22195" d="M154.893,210.189l-2.279-5.784-2.388-3.418s.526-1.446,1.249-1.446h2.388l2.279.832-.2,3.834-1.052,5.981" transform="translate(-116.36 -155.251)" fill="#fff"/>
    <path id="Path_22196" data-name="Path 22196" d="M154.812,207.367s-2.892-5.587-2.892-6.419c0,0,.526-1.249,1.249-.942s2.279,1.139,2.279,1.139v-1.972l-3.528-.723-2.388.307,4.031,9.552.832.11" transform="translate(-115.819 -154.401)" fill="#dcd9d8"/>
    <path id="Path_22197" data-name="Path 22197" d="M96.455,173l-2.87-.307-2.695-.832v.942l1.314,1.446,4.141,1.862" transform="translate(-70.125 -133.68)" fill="#fff"/>
    <path id="Path_22198" data-name="Path 22198" d="M94.152,178.406s3.2,1.337,4.25,1.03l.109,1.249-2.892-.614-1.753-1.249.285-.416" transform="translate(-72.445 -138.783)" fill="#dcd9d8"/>
    <path id="Path_22199" data-name="Path 22199" d="M171.945,180.893a19.13,19.13,0,0,1-4.732-.657,10.82,10.82,0,0,1,.066-1.534,3.615,3.615,0,0,1,1.621-.35,2.8,2.8,0,0,0-1.8-.2,2.977,2.977,0,0,0-.307-.942c.986-.351,3.309-2.651,4.623-1.906.635.372.9,2.432.942,3.462a3.625,3.625,0,0,1-.416,2.125" transform="translate(-129.271 -136.252)" fill="#d33833"/>
    <path id="Path_22200" data-name="Path 22200" d="M171.945,180.893a19.13,19.13,0,0,1-4.732-.657,10.82,10.82,0,0,1,.066-1.534,3.615,3.615,0,0,1,1.621-.35,2.8,2.8,0,0,0-1.8-.2,2.977,2.977,0,0,0-.307-.942c.986-.351,3.309-2.651,4.623-1.906.635.372.9,2.432.942,3.462A3.625,3.625,0,0,1,171.945,180.893Z" transform="translate(-129.271 -136.252)"/>
    <path id="Path_22200_-_Outline" data-name="Path 22200 - Outline" d="M172.45,181.906l-.531-.013a20.089,20.089,0,0,1-4.982-.7l-.848-.242.134-.871a2.786,2.786,0,0,0,0-.54c0-.038,0-.077-.006-.116l-.047.013-.069-1.23a.917.917,0,0,0-.11-.324c-.044-.1-.094-.208-.14-.338l-.338-.943.944-.336a7.47,7.47,0,0,0,.988-.612,6.76,6.76,0,0,1,3.375-1.5,2.178,2.178,0,0,1,1.088.277l.013.007a3.054,3.054,0,0,1,1.164,2.134,13.542,13.542,0,0,1,.271,2.144,4.712,4.712,0,0,1-.6,2.753Zm-4.225-2.444a18.45,18.45,0,0,0,3.068.4,3.764,3.764,0,0,0,.076-.783l-2.36.262c-.12.013-.238.024-.352.034s-.286.026-.434.046v.008Zm.481-2.241a3.628,3.628,0,0,1,.625.228l2.006.96a7.153,7.153,0,0,0-.471-2.249l-.043,0A5.549,5.549,0,0,0,168.706,177.221Z" transform="translate(-129.271 -136.252)" fill="#d33833"/>
    <path id="Path_22201" data-name="Path 22201" d="M124.993,179.528a2.363,2.363,0,0,1-.022.394c-.548.351-1.424.351-2.038.657a5.742,5.742,0,0,1,2.191.548c-.022.329-.022.679-.044,1.008-1.008.679-1.928,1.709-3.111,2.366a7.959,7.959,0,0,1-3.111.942c-.329-.088-.372-.5-.5-.9a13.009,13.009,0,0,1-1.008-3.462c-.066-1.6-.241-4.294,1.49-3.966a15.108,15.108,0,0,1,4.1,1.49,4.16,4.16,0,0,0,2.06.92" transform="translate(-90.71 -137.758)" fill="#d33833"/>
    <path id="Path_22202" data-name="Path 22202" d="M124.993,179.528a2.363,2.363,0,0,1-.022.394c-.548.351-1.424.351-2.038.657a5.742,5.742,0,0,1,2.191.548c-.022.329-.022.679-.044,1.008-1.008.679-1.928,1.709-3.111,2.366a7.959,7.959,0,0,1-3.111.942c-.329-.088-.372-.5-.5-.9a13.009,13.009,0,0,1-1.008-3.462c-.066-1.6-.241-4.294,1.49-3.966a15.108,15.108,0,0,1,4.1,1.49A4.16,4.16,0,0,0,124.993,179.528Z" transform="translate(-90.71 -137.758)"/>
    <path id="Path_22202_-_Outline" data-name="Path 22202 - Outline" d="M118.561,176.091a2.486,2.486,0,0,1,.462.045,16.084,16.084,0,0,1,4.393,1.6l.02.011c.193.112.361.224.509.324a2.063,2.063,0,0,0,1.135.465l.913.079v.917a3.263,3.263,0,0,1-.036.56l-.05.3.261.121-.046.685c-.01.149-.015.307-.02.474s-.011.353-.023.532l-.032.489-.407.274a13.639,13.639,0,0,0-1.15.911,12.583,12.583,0,0,1-2.034,1.5l-.011.006a10.206,10.206,0,0,1-3.4,1.081,1.713,1.713,0,0,1-.435-.052l-.006,0a1.7,1.7,0,0,1-1.137-1.355c-.02-.068-.038-.133-.057-.19-.059-.173-.142-.386-.23-.612a10.4,10.4,0,0,1-.829-3.117l-.007-.176c-.062-1.468-.14-3.294.8-4.27A1.927,1.927,0,0,1,118.561,176.091Zm3.88,3.388a14.172,14.172,0,0,0-3.789-1.377.52.52,0,0,0-.087-.01,1.959,1.959,0,0,0-.226.912,14.825,14.825,0,0,0,0,1.872l.007.162a8.749,8.749,0,0,0,.7,2.492c.1.248.187.482.26.694l0,.008c.022.065.041.128.058.187a7.747,7.747,0,0,0,3.833-2.064c.238-.2.481-.409.732-.607a4.718,4.718,0,0,0-1.043-.166l-3.8-.19,3.407-1.7q.082-.041.165-.076C122.582,179.564,122.513,179.52,122.441,179.478Z" transform="translate(-90.71 -137.758)" fill="#d33833"/>
    <path id="Path_22203" data-name="Path 22203" d="M155.6,188.89a5.993,5.993,0,0,1-.263-1.884c2.344-1.556,2.76,2.673.263,1.884" transform="translate(-120.33 -145.213)" fill="#d33833"/>
    <path id="Path_22204" data-name="Path 22204" d="M155.6,188.89a5.993,5.993,0,0,1-.263-1.884c2.344-1.556,2.76,2.673.263,1.884Z" transform="translate(-120.33 -145.213)"/>
    <path id="Path_22204_-_Outline" data-name="Path 22204 - Outline" d="M156.183,189.989a2.951,2.951,0,0,1-.886-.145l.143-.926-.826.145c-.044-.252-.09-.442-.134-.627a4.186,4.186,0,0,1-.141-1.515l.041-.481.4-.267a2.75,2.75,0,0,1,1.514-.514,2.037,2.037,0,0,1,1.995,2.161,2.251,2.251,0,0,1-.5,1.443A2.046,2.046,0,0,1,156.183,189.989Z" transform="translate(-120.33 -145.213)" fill="#d33833"/>
    <path id="Path_22205" data-name="Path 22205" d="M126.7,177.98s-.723-1.03-.2-1.337,1.03,0,1.337-.526,0-.832.11-1.446.613-.723,1.139-.832,1.972-.307,2.169.2l-.613-1.862-1.249-.416-3.922,2.279-.2,1.139v2.278m-9.443,3.944c-.131-1.621-.263-3.221-.394-4.842-.219-2.41.57-1.994,2.673-1.994a5.4,5.4,0,0,1,2.082.614c.57,1.161-.942.9.657,1.774,1.337.723,3.725-.438,3.177-2.081-.307-.372-1.577-.11-2.038-.351l-2.432-1.249c-1.03-.526-3.4-1.315-4.491-.57-2.783,1.884.175,6.617,1.161,8.588" transform="translate(-88.057 -133.603)" fill="#ef3d3a"/>
    <path id="Path_22206" data-name="Path 22206" d="M73.579,43.527c-2.826-.657-4.228,1.183-5.083,3.089-.767-.175-.46-1.227-.263-1.753.5-1.38,2.541-3.243,4.206-2.98.7.088,1.665.745,1.139,1.643m13.737,3.2h.131a29.647,29.647,0,0,0,1.994,3.9c-.548,1.271-4.075,2.366-4.031.131.767-.329,2.082-.066,2.761-.5a7.686,7.686,0,0,1-.855-3.527M75,46.77c.613,1.117.81,2.278,1.665,3.111.395.372,1.139.832.767,1.884a2.411,2.411,0,0,1-1.1.9c-1.336.394-4.47.088-3.418-1.6,1.117.044,2.607.723,3.44-.088-.635-1.008-1.775-3.023-1.358-4.206M86.812,58.031c-2.016,1.293-4.273,2.717-7.6,2.388a2.242,2.242,0,0,1-.285-2.892c.35.613.131,1.753,1.139,1.928,1.884.329,4.075-1.161,5.433-1.665.832-1.424-.066-1.928-.832-2.848-1.556-1.862-3.615-4.185-3.549-6.967.635-.46.679.7.767.9A26.3,26.3,0,0,0,86.2,54.81c.372.394.964.789,1.03,1.052.2.745-.5,1.665-.416,2.169M60.126,56.672c-.635-.372-.788-1.95-1.533-1.994-1.074-.066-.876,2.06-.876,3.308-.723-.657-.855-2.717-.329-3.768-.613-.307-.877.329-1.227.548.46-3.177,4.667-1.468,3.966,1.906m27.956,2.695c-.942,1.8-2.279,3.768-5.039,3.834a6.27,6.27,0,0,1,0-1.819c2.125-.219,3.44-1.293,5.039-2.016M74.85,60.528c1.753.92,5,1.03,7.405.964a7.989,7.989,0,0,1,.131,1.819c-3.089.131-6.726-.635-7.537-2.783m-.329,1.709c1.227,3.067,5.411,2.717,8.939,2.629a1.774,1.774,0,0,1-.92,1.03c-1.139.46-4.25.811-5.828-.022a8.134,8.134,0,0,1-2.191-2.432c-.241-.329-1.556-1.183,0-1.2" transform="translate(-43.065 -32.385)" fill="#231f20"/>
    <path id="Path_22207" data-name="Path 22207" d="M178.433,205.729a61.289,61.289,0,0,1-4.491,7.12,34.872,34.872,0,0,0,1.117-8.26,2.6,2.6,0,0,1,3.374,1.139" transform="translate(-134.839 -158.985)" fill="#81b0c4"/>
    <path id="Path_22208" data-name="Path 22208" d="M213.956,250.543c-1.6.329-2.717,1.884-4.294,1.775.876-1.205,2.366-1.731,4.294-1.775m.7,2.5a24.118,24.118,0,0,1-4.163.241c.635-.964,3.045-.614,4.163-.241m.46,2.169c-1.468.022-3.286,0-4.689-.11.832-.9,3.746-.329,4.689.11" transform="translate(-162.672 -194.992)" fill="#231f20"/>
    <path id="Path_22209" data-name="Path 22209" d="M175.555,298.377c.219,1.84.942,3.7.854,5.718a6.2,6.2,0,0,1-2.366.5c-.066-1.709-.307-4.338-.241-5.981.526.044,1.314-.372,1.753-.241" transform="translate(-134.721 -232.244)" fill="#dcd9d8"/>
    <path id="Path_22210" data-name="Path 22210" d="M151.117,175.429c-.745.482-1.358,1.073-2.082,1.6a4.494,4.494,0,0,1-3.571-1.008c.022-.066.131-.044.131-.132,1.687.745,3.834-.307,5.521-.46" transform="translate(-112.649 -136.463)" fill="#f0d6b7"/>
    <path id="Path_22211" data-name="Path 22211" d="M131.175,212.712c.46-1.994,2.279-3.045,3.922-4.141,1.687,2.147,2.717,4.908,3.856,7.58a38.822,38.822,0,0,1-7.778-3.44" transform="translate(-101.515 -162.287)" fill="#81b0c4"/>
    <path id="Path_22212" data-name="Path 22212" d="M59.62,66.4c-.066,1.643.153,4.25.241,5.981a6.194,6.194,0,0,0,2.366-.5c.088-2.016-.635-3.878-.855-5.718C60.934,66,60.146,66.418,59.62,66.4ZM42.706,57.107a85.9,85.9,0,0,0,3.659,17.965,23.7,23.7,0,0,0,13.058.241c-.679-3.286-.394-7.3-.789-10.823-.307-2.651-.153-5.3-.57-8-4.535-.942-10.933-.219-15.358.614Zm16.432-.57c-.044,2.826.131,5.63.351,8.457a26.99,26.99,0,0,0,2.826-.5c-.329-2.717-.285-5.806-.964-8.216a6.97,6.97,0,0,0-2.213.263Zm5.5-.46a7.8,7.8,0,0,0-1.6,0c.241,2.3.789,4.842.986,7.274.767.022,1.183-.351,1.819-.46.044-2.125-.175-5.061-1.205-6.814ZM72.984,63.7c1.621-.394,2.629-2.366,2.169-4.4-.307-1.358-.832-3.944-1.424-4.82-.416-.635-1.577-1.49-2.519-.9-1.512.964-4.163,1.249-5.258,2.41a38.385,38.385,0,0,1,.942,6.66c1.884.11,4.185-.526,5.762.153-1.1.351-2.5.351-3.44.876a7.258,7.258,0,0,0,3.768.022Zm-15.03-9.837c-1.139-2.673-2.169-5.433-3.856-7.58-1.643,1.1-3.44,2.147-3.922,4.141a39.957,39.957,0,0,0,7.778,3.44Zm2.8-8.26a34.849,34.849,0,0,1-1.117,8.26,63.168,63.168,0,0,0,4.491-7.12A2.6,2.6,0,0,0,60.759,45.6Zm-3.177-1.117c-.635-.066-1.183.745-2.016.394-.2.219-.372.438-.57.657,1.84,2.235,2.695,5.39,4.119,8,.767-2.519.679-5.258.855-8-1.052.044-1.643-.986-2.388-1.052Zm-2.038-2.7a6,6,0,0,0,.263,1.884C58.305,44.465,57.889,40.237,55.545,41.792Zm-2.783-.92a15.09,15.09,0,0,0-4.1-1.49c-1.731-.329-1.556,2.366-1.49,3.966a13.262,13.262,0,0,0,1.008,3.462c.131.394.175.811.5.9a8.224,8.224,0,0,0,3.111-.942A32.137,32.137,0,0,0,54.909,44.4c.022-.329.022-.679.044-1.008a5.275,5.275,0,0,0-2.191-.548c.592-.307,1.49-.307,2.038-.657a2.366,2.366,0,0,1,.022-.395,4.585,4.585,0,0,1-2.06-.92Zm-10.3-1.862c-.9.92,2.519,2.147,3.593,2.213,0-.57.329-1.117.263-1.534C45.028,39.47,43.341,39.623,42.465,39.01Zm11.042.416c0,.088-.11.066-.132.132a4.543,4.543,0,0,0,3.571,1.008c.7-.5,1.337-1.117,2.082-1.6-1.709.153-3.856,1.205-5.521.46Zm10.122,3.067c-.044-1.008-.307-3.089-.942-3.462-1.314-.767-3.637,1.556-4.623,1.906a2.976,2.976,0,0,1,.307.942,2.787,2.787,0,0,1,1.8.2,3.618,3.618,0,0,0-1.621.351c-.132.416.044.964-.066,1.534a20.209,20.209,0,0,0,4.732.657,3.548,3.548,0,0,0,.416-2.125ZM40.953,39.886c-.285-.2-2.191-2.673-2.454-2.564a40.431,40.431,0,0,0-9.531,5.937c2.739,5.894,3.856,13.1,4.053,20.047,3.133,1.468,5.893,3.593,10.166,3.812-.5-3.483-.942-6.617-1.227-9.9-1.074-.46-2.607.022-3.615-.131,0-1.2,1.533-.526,1.665-1.336.088-.614-.855-.657-.548-1.621.789.285,1.2.92,2.038,1.161.767-1.665,0-4.623.11-6.025.022-.263.131-1.446.723-1.249.526.175-.022,3.177.022,4.491.044,1.227-.153,2.388.35,3.155a117.654,117.654,0,0,1,12.773-1.052,28.489,28.489,0,0,1-3.418-1.534c-.7-.394-2.87-1.2-3.067-1.862-.329-1.052.832-1.6,1.03-2.5-2.081,1.139-2.476-1.1-2.98-2.651a21.85,21.85,0,0,1-.811-3.308,41.544,41.544,0,0,1-5.28-2.87Zm20.858-2.279c2.87-1.38,3.4,5.193,2.257,7.318.175.635.767.876,1.008,1.446-1.6,2.87-3.374,5.543-5.017,8.369,1.205-.767,2.958-.131,4.382-.7.526-.2.9-1.4,1.293-2.366a50.549,50.549,0,0,0,2.739-8.457,9.959,9.959,0,0,0,.35-2.323c-.131-.92-1.358-1.6-1.994-2.147-1.161-1.052-1.884-1.95-3.111-2.936-.46.723-1.512,1.2-1.906,1.8ZM34.4,12.171c-1.358,1.512-1.074,4.316-.92,6.332,2.476-1.555,5.74.132,5.718,2.761,1.183-.022.438-1.468.219-2.41-.7-3.045,1.183-6.332.087-9.114a7.448,7.448,0,0,0-5.1,2.432Zm9.771-8.742c-3.089.876-7.055,3.133-8.325,5.915.986-.153,1.665-.635,2.629-.7a6.06,6.06,0,0,0,1.271.044c.832-.219,1.556-2.1,2.191-2.8C42.553,5.2,43.3,4.9,43.8,4.284c.329-.153.81-.153.832-.635a.475.475,0,0,0-.46-.219Zm16.1.832c-3.22-1.818-8.654-3.177-12.072-1.468-2.761,1.38-6.485,3.659-7.756,6.529,1.183,2.782-.35,5.324-.46,8.15-.044,1.512.7,2.8.767,4.448-.416.679-1.643.745-2.5.7-.285-1.446-.789-3.067-2.279-3.243a3.449,3.449,0,0,0-3.746,3.33c-.11,2.147,1.643,5.7,4.141,5.455.964-.088,1.205-1.052,2.257-1.052.57,1.139-.876,1.49-1.03,2.3a5.5,5.5,0,0,0,.219,1.424,19.791,19.791,0,0,0,2.454,5.718c1.271,1.818,3.747,2.081,6.419,2.257.482-1.03,2.235-.942,3.374-.679a11.276,11.276,0,0,1-3.7-3.023c-1.205-1.337-2.432-2.76-2.5-4.513,2.3,3.177,4.185,5.959,8.347,7.362,3.155,1.051,6.836-.482,9.268-2.191A10.941,10.941,0,0,0,63.8,32.919c2.673-3.856,3.922-9.333,3.659-14.657-.11-2.191-.11-4.382-.855-5.85-.767-1.534-3.374-2.936-4.908-1.534-.285-1.512,1.271-2.432,3.089-1.884C63.5,7.307,62.139,5.314,60.277,4.262Zm6,49.537c2.52-1.249,7.208-3.352,8.764,0A26.062,26.062,0,0,1,76.6,58.421c.416,1.8-.46,5.609-2.322,6.2a11.124,11.124,0,0,1-5.521.11,3.2,3.2,0,0,1-.679-.877,7.558,7.558,0,0,0-3.834.658c.11,1.051-.592,1.2-1.271,1.424-.482,1.95.986,4.491.635,6.244-.241,1.271-1.8,1.468-2.936,1.687a8.574,8.574,0,0,0,.131,1.884,2.834,2.834,0,0,1-2.541,1.643c-3.659.438-9.2.635-12.707-.635-.986-2.41-1.753-5.324-2.564-8.062-3.418.372-6.2-1.468-8.807-2.695-.9-.416-2.147-.657-2.5-1.38a12.5,12.5,0,0,1-.285-3.286,50.508,50.508,0,0,0-1.227-9.618c-.372-1.49-1.052-2.782-1.512-4.206a29.353,29.353,0,0,1-1.38-4.273C27,41.289,28.837,41.179,30,40.324c1.819-1.314,3.243-2.038,5.214-3.221a11.311,11.311,0,0,0,2.541-1.643c.395-.81-.679-1.95-.964-2.585a7.789,7.789,0,0,1-.767-2.848,5.516,5.516,0,0,1-3.659-2.344c-1.249-1.84-2.125-5.236-1.03-7.8.088-.2.5-.614.57-.92a10.033,10.033,0,0,0-.263-2.081c-.11-3.352.57-6.244,2.826-7.252.92-3.659,4.206-4.864,7.3-6.682a22.964,22.964,0,0,1,3.746-1.6C50.221-.383,57.473-.054,61.394,2.9a20.9,20.9,0,0,1,5.258,5.828c2.519,5.061,2.322,13.54.57,19.718A20.272,20.272,0,0,1,66.171,31.5c-.329.7-1.358,2.081-1.249,2.695.132.635,2.366,2.322,2.848,2.783.855.832,2.5,1.928,2.629,2.98a10.172,10.172,0,0,1-.81,3.725c-1.052,3.593-2.1,6.9-3.309,10.122Z" transform="translate(-20.539)" fill="#231f20"/>
    <path id="Path_22213" data-name="Path 22213" d="M127.847,129.037c.131-.175.876-.46,1.928.044,0,0-1.249.2-1.139,2.279l-.526-.11c.022.022-.526-1.862-.263-2.213" transform="translate(-98.867 -100.128)" fill="#f7e4cd"/>
    <path id="Path_22214" data-name="Path 22214" d="M165.157,208.446a.57.57,0,1,1-.57-.57.566.566,0,0,1,.57.57m.57,2.651a.57.57,0,1,1-.57-.57.553.553,0,0,1,.57.57" transform="translate(-127.106 -161.746)" fill="#1d1919"/>
  </g>
</svg>
