<svg xmlns="http://www.w3.org/2000/svg" width="73.027" height="50" viewBox="0 0 73.027 50">
  <path id="laravel" d="M72.74,23.347c-.521-.521-7.2-8.94-8.333-10.329-1.215-1.389-1.736-1.128-2.517-1.042s-9.2,1.562-10.156,1.649c-.955.174-1.562.521-.955,1.389.521.781,6.076,8.593,7.291,10.416L35.936,30.726,18.4,1.3C17.708.258,17.535-.089,15.972,0S2.171,1.126,1.3,1.126C.435,1.213-.52,1.56.348,3.644S15.1,35.586,15.451,36.454a2.984,2.984,0,0,0,3.732,1.736c2.43-.608,10.763-2.778,15.364-3.993,2.43,4.34,7.291,13.194,8.246,14.5,1.215,1.736,2.083,1.389,3.906.868,1.476-.434,22.742-8.072,23.7-8.506s1.562-.694.868-1.649c-.521-.694-6.076-8.246-9.027-12.152,2-.521,9.2-2.43,9.982-2.691.868-.26,1.042-.694.521-1.215ZM32.551,31.594c-.26.087-12.673,3.038-13.281,3.212-.694.174-.694.087-.694-.174C18.4,34.371,3.82,4.164,3.56,3.817c-.174-.347-.174-.694,0-.694S15.278,2.081,15.625,2.081c.434,0,.347.087.521.347,0,0,16.232,28.037,16.492,28.471.347.434.174.608-.087.694ZM67.445,38.1c.174.347.434.521-.26.694-.608.26-20.919,7.118-21.353,7.291s-.694.26-1.215-.521S37.5,33.416,37.5,33.416l21.613-5.642c.521-.174.694-.26,1.042.26.347.608,7.118,9.808,7.291,10.069Zm1.389-15.277c-.521.087-8.42,2.083-8.42,2.083L53.9,16.056c-.174-.26-.347-.521.087-.608S61.8,14.06,62.15,13.973s.608-.174,1.042.434c.434.521,5.989,7.638,6.25,7.9s-.087.434-.608.521Z" transform="translate(-0.006 0.015)" fill="#fb503b" opacity="0.8"/>
</svg>
