<svg id="mongodb" xmlns="http://www.w3.org/2000/svg" width="26.867" height="60" viewBox="0 0 26.867 60">
  <path id="Path_291" data-name="Path 291" d="M28.218,70.511l-1.6-.546s.2-8.142-2.727-8.727c-1.948-2.26.312-95.844,7.325-.312,0,0-2.416,1.207-2.844,3.273A30.05,30.05,0,0,0,28.218,70.511Z" transform="translate(-13.419 -10.511)" fill="#fff" fill-rule="evenodd"/>
  <path id="Path_292" data-name="Path 292" d="M28.218,70.511l-1.6-.546s.2-8.142-2.727-8.727c-1.948-2.26.312-95.844,7.325-.312,0,0-2.416,1.207-2.844,3.273A30.05,30.05,0,0,0,28.218,70.511Z" transform="translate(-13.419 -10.511)" fill="#a6a385" fill-rule="evenodd"/>
  <path id="Path_293" data-name="Path 293" d="M33.725,52.546s13.987-9.195,10.714-28.325C41.283,10.313,33.842,5.755,33.023,4A19.668,19.668,0,0,1,31.27.573l.585,38.687c0,.039-1.208,11.844,1.87,13.286" transform="translate(-18.068 -0.416)" fill="#fff" fill-rule="evenodd"/>
  <path id="Path_294" data-name="Path 294" d="M33.725,52.546s13.987-9.195,10.714-28.325C41.283,10.313,33.842,5.755,33.023,4A19.668,19.668,0,0,1,31.27.573l.585,38.687c0,.039-1.208,11.844,1.87,13.286" transform="translate(-18.068 -0.416)" fill="#499d4a" fill-rule="evenodd"/>
  <path id="Path_295" data-name="Path 295" d="M12.384,52.839S-.746,43.878.033,28.1C.773,12.32,10.046,4.567,11.838,3.164A3.628,3.628,0,0,0,13.124.2c.818,1.753.662,26.221.779,29.1C14.254,40.41,13.28,50.735,12.384,52.839Z" transform="translate(0 -0.203)" fill="#fff" fill-rule="evenodd"/>
  <path id="Path_296" data-name="Path 296" d="M12.384,52.839S-.746,43.878.033,28.1C.773,12.32,10.046,4.567,11.838,3.164A3.628,3.628,0,0,0,13.124.2c.818,1.753.662,26.221.779,29.1C14.254,40.41,13.28,50.735,12.384,52.839Z" transform="translate(0 -0.203)" fill="#58aa50" fill-rule="evenodd"/>
</svg>
