<svg xmlns="http://www.w3.org/2000/svg" width="61.123" height="60" viewBox="0 0 61.123 60">
  <g id="mysql" transform="translate(7)">
    <path id="Path_303" data-name="Path 303" d="M56.325,46.406a19.243,19.243,0,0,0-8.065,1.164c-.624.249-1.621.249-1.7,1.039.333.333.374.873.665,1.33a9.746,9.746,0,0,0,2.162,2.536c.873.665,1.746,1.33,2.66,1.912,1.621,1,3.451,1.58,5.031,2.577.915.582,1.829,1.33,2.744,1.954.457.332.748.873,1.33,1.081v-.124c-.291-.374-.374-.915-.665-1.33-.415-.416-.832-.79-1.247-1.206a19.718,19.718,0,0,0-4.323-4.2c-1.33-.915-4.241-2.162-4.781-3.7l-.083-.083a16.907,16.907,0,0,0,2.869-.665c1.413-.374,2.7-.291,4.157-.665.665-.166,1.33-.374,2-.582v-.374c-.748-.748-1.288-1.746-2.078-2.453a55.428,55.428,0,0,0-6.859-5.113c-1.289-.832-2.952-1.372-4.324-2.079-.5-.25-1.33-.374-1.621-.79a16.768,16.768,0,0,1-1.7-3.2c-1.205-2.287-2.37-4.822-3.409-7.233a44.217,44.217,0,0,0-2.12-4.739C32.671,14.4,28.015,10.114,20.865,5.915a19.983,19.983,0,0,0-5.321-1.7c-1.039-.042-2.079-.125-3.118-.167A16.54,16.54,0,0,1,10.513,2.59C8.144,1.093,2.033-2.149.287,2.132-.836,4.834,1.95,7.495,2.905,8.867a19.581,19.581,0,0,1,2.12,3.118c.291.706.374,1.455.665,2.2a49.914,49.914,0,0,0,2.162,5.571,20.1,20.1,0,0,0,1.538,2.577c.333.457.914.665,1.039,1.413-.582.832-.624,2.079-.956,3.118-1.5,4.7-.914,10.518,1.206,13.968.665,1.039,2.245,3.326,4.365,2.453,1.871-.748,1.455-3.118,2-5.2.125-.5.042-.832.291-1.164v.083c.582,1.164,1.164,2.286,1.7,3.45a23.74,23.74,0,0,0,5.4,5.571c1,.748,1.788,2.037,3.035,2.494V48.4h-.083a4.6,4.6,0,0,0-.956-.832,20.155,20.155,0,0,1-2.162-2.494,53.49,53.49,0,0,1-4.656-7.566c-.665-1.288-1.247-2.7-1.788-3.991-.25-.5-.25-1.247-.665-1.5a15.648,15.648,0,0,0-2,2.827c-.789,1.788-.873,3.991-1.164,6.277-.166.042-.083,0-.167.084-1.33-.333-1.787-1.7-2.286-2.869a17.978,17.978,0,0,1-.374-11.1c.291-.873,1.538-3.617,1.039-4.448-.249-.79-1.081-1.247-1.538-1.871a16.75,16.75,0,0,1-1.5-2.661c-1-2.328-1.5-4.906-2.577-7.234a22.126,22.126,0,0,0-2.079-3.2A20.582,20.582,0,0,1,2.24,4.585c-.208-.457-.5-1.205-.166-1.7a.662.662,0,0,1,.582-.54c.54-.458,2.079.124,2.619.374A21.189,21.189,0,0,1,9.391,4.793C9.973,5.209,10.6,6,11.345,6.206h.873c1.33.291,2.827.083,4.074.457a26.566,26.566,0,0,1,5.987,2.869A36.882,36.882,0,0,1,35.249,23.75c.5.956.707,1.829,1.164,2.827.873,2.037,1.954,4.116,2.827,6.111a27.338,27.338,0,0,0,2.952,5.571c.624.873,3.118,1.33,4.24,1.788A29.484,29.484,0,0,1,49.3,41.21c1.413.873,2.827,1.871,4.157,2.827.665.5,2.744,1.538,2.869,2.37Z" transform="translate(-7.025 0)" fill="#0c96bc"/>
    <path id="Path_304" data-name="Path 304" d="M52.758,43.022a6.588,6.588,0,0,0-1.7.208v.083h.083a13.4,13.4,0,0,0,1.33,1.7c.333.665.624,1.33.956,2l.083-.083a2.345,2.345,0,0,0,.873-2.079,9.309,9.309,0,0,1-.5-.873C53.632,43.562,53.091,43.355,52.758,43.022Z" transform="translate(-39.896 -32.742)" fill="#0c96bc"/>
  </g>
</svg>
