<svg id="next-js" xmlns="http://www.w3.org/2000/svg" width="59.991" height="60.367" viewBox="0 0 59.991 60.367">
  <path id="Path_365" data-name="Path 365" d="M28.531.341c-.129.012-.54.053-.909.082A30.067,30.067,0,0,0,6.065,12.855,29.7,29.7,0,0,0,.77,25.962,22.962,22.962,0,0,0,.5,30.33,22.962,22.962,0,0,0,.77,34.7,30.12,30.12,0,0,0,21.289,58.936a31.713,31.713,0,0,0,6.333,1.314,55.248,55.248,0,0,0,5.747,0,30.285,30.285,0,0,0,10.808-3.161c.516-.264.616-.334.545-.393-.047-.035-2.246-2.985-4.885-6.55l-4.8-6.48-6.011-8.9c-3.307-4.891-6.028-8.89-6.052-8.89s-.047,3.947-.059,8.773c-.018,8.45-.023,8.79-.129,8.99a1.066,1.066,0,0,1-.516.534c-.188.094-.352.111-1.237.111H20.022l-.27-.17a1.1,1.1,0,0,1-.393-.428l-.123-.264.012-11.758L19.266,19.9l.182-.229a1.609,1.609,0,0,1,.434-.358c.24-.117.334-.129,1.349-.129,1.2,0,1.4.047,1.706.387.088.094,3.343,5,7.236,10.9S39.392,44.446,42.007,48.4l4.75,7.2.24-.158a30.793,30.793,0,0,0,6.163-5.407A29.863,29.863,0,0,0,60.221,34.7a22.961,22.961,0,0,0,.27-4.369,22.961,22.961,0,0,0-.27-4.369A30.12,30.12,0,0,0,39.7,1.725,31.492,31.492,0,0,0,33.457.417C32.894.358,29.018.294,28.531.341Zm12.28,18.144a1.183,1.183,0,0,1,.592.692c.047.152.059,3.413.047,10.761l-.018,10.544-1.859-2.85-1.865-2.85V27.117c0-4.955.023-7.741.059-7.876a1.2,1.2,0,0,1,.581-.739c.24-.123.328-.135,1.249-.135.868,0,1.02.012,1.214.117Z" transform="translate(-0.5 -0.325)" fill="#78afb9"/>
  <path id="Path_366" data-name="Path 366" d="M758.759,943.132c-.22.138-.289.232-.094.126.138-.082.364-.251.327-.257A1.3,1.3,0,0,0,758.759,943.132Zm-.433.283c-.113.088-.113.094.025.025a.382.382,0,0,0,.138-.094C758.489,943.3,758.458,943.308,758.326,943.414Zm-.314.188c-.113.088-.113.094.025.025a.385.385,0,0,0,.138-.094C758.175,943.484,758.144,943.5,758.012,943.6Zm-.314.188c-.113.088-.113.094.025.025a.382.382,0,0,0,.138-.094C757.861,943.672,757.83,943.685,757.7,943.791Zm-.477.251c-.239.126-.226.176.013.057a.657.657,0,0,0,.188-.125C757.422,943.93,757.416,943.936,757.221,944.042Z" transform="translate(-709.537 -883.8)" fill="#78afb9"/>
</svg>
