<svg xmlns="http://www.w3.org/2000/svg" width="54.447" height="60" viewBox="0 0 54.447 60">
  <g id="node-js" opacity="0.75">
    <path id="Path_286" data-name="Path 286" d="M25.37,1.225a5.032,5.032,0,0,1,4.912,0Q41.5,7.563,52.718,13.9a4.618,4.618,0,0,1,2.333,3.978V43.3a4.669,4.669,0,0,1-2.507,4.064q-11.18,6.3-22.356,12.612a4.889,4.889,0,0,1-4.966-.138q-3.352-1.943-6.708-3.879a3.949,3.949,0,0,1-1.294-.932c.285-.384.795-.432,1.209-.6a15.656,15.656,0,0,0,2.646-1.235.618.618,0,0,1,.689.041c1.911,1.1,3.8,2.223,5.722,3.308.409.236.823-.077,1.173-.272q10.971-6.2,21.95-12.387a.726.726,0,0,0,.4-.715q.008-12.58,0-25.161a.786.786,0,0,0-.468-.784Q39.4,10.946,28.264,4.664a.774.774,0,0,0-.875,0Q16.25,10.941,5.114,17.225a.777.777,0,0,0-.471.781q0,12.58,0,25.162a.711.711,0,0,0,.4.706Q8.02,45.559,11,47.233a4.6,4.6,0,0,0,3.72.5,2.822,2.822,0,0,0,1.827-2.651c.01-8.337-.005-16.676.008-25.012a.628.628,0,0,1,.684-.641c.952-.006,1.906-.013,2.858,0a.659.659,0,0,1,.622.762c0,8.39.01,16.781-.006,25.171,0,2.236-.916,4.669-2.984,5.763A9.191,9.191,0,0,1,9.508,50.9c-2.179-1.088-4.259-2.371-6.4-3.537A4.658,4.658,0,0,1,.6,43.3V17.875a4.627,4.627,0,0,1,2.413-4.028Q14.194,7.538,25.37,1.225Z" transform="translate(-0.603 -0.584)" fill="#8cc84b"/>
    <path id="Path_287" data-name="Path 287" d="M113.786,85.685c3.25-.209,6.73-.124,9.655,1.477A7.3,7.3,0,0,1,127,93.48a.684.684,0,0,1-.742.5c-.943,0-1.886.013-2.829-.006a.729.729,0,0,1-.683-.707,4.307,4.307,0,0,0-2.06-2.977,12.214,12.214,0,0,0-5.652-.809,7.673,7.673,0,0,0-4.046,1.008,2.564,2.564,0,0,0-.853,2.864c.3.72,1.134.952,1.814,1.166,3.917,1.024,8.068.923,11.91,2.271a5.607,5.607,0,0,1,3.691,3.284,7.015,7.015,0,0,1-1.188,6.692,9.378,9.378,0,0,1-5.035,2.713,24.188,24.188,0,0,1-7.6.323,11.975,11.975,0,0,1-6.685-2.515,7.015,7.015,0,0,1-2.259-5.534.634.634,0,0,1,.694-.559c.95-.008,1.9-.01,2.849,0a.666.666,0,0,1,.68.658,4.316,4.316,0,0,0,1.606,3.031c1.93,1.245,4.352,1.16,6.562,1.195,1.831-.081,3.886-.106,5.38-1.316a2.972,2.972,0,0,0,.809-2.838c-.231-.839-1.108-1.23-1.862-1.485-3.867-1.223-8.064-.779-11.893-2.163a5.788,5.788,0,0,1-3.655-3.185,6.524,6.524,0,0,1,1.3-6.788,10.517,10.517,0,0,1,6.529-2.623Z" transform="translate(-82.517 -67.435)" fill="#8cc84b"/>
  </g>
</svg>
