<svg id="php" xmlns="http://www.w3.org/2000/svg" width="79.608" height="40" viewBox="0 0 79.608 40">
  <path id="Path_15042" data-name="Path 15042" d="M6.3,10.123H18.106q5.2.044,7.533,3t1.542,8.062a15.463,15.463,0,0,1-1.366,4.581A13.619,13.619,0,0,1,23,29.815a9.841,9.841,0,0,1-4.714,2.907,21.7,21.7,0,0,1-5.2.617H7.8l-1.674,8.37H0L6.3,10.123h0m5.154,5.022L8.811,28.361a3.241,3.241,0,0,0,.529.044h.617A23.164,23.164,0,0,0,17,27.568q2.819-.925,3.789-6.432.793-4.626-1.586-5.33a19.768,19.768,0,0,0-5.859-.661q-.529.044-1.013.044H11.41l.044-.044" transform="translate(0 -1.709)" fill="#3994f8"/>
  <path id="Path_15043" data-name="Path 15043" d="M39.8,0h6.079L44.166,8.414h5.463q4.493.089,6.7,1.85,2.247,1.762,1.322,6.7L54.694,31.63H48.527l2.819-14.009q.44-2.2-.264-3.128t-3.04-.925l-4.89-.044L39.54,31.63H33.461L39.8,0h0" transform="translate(-5.649)" fill="#3994f8"/>
  <path id="Path_15044" data-name="Path 15044" d="M69.133,10.123H80.939q5.2.044,7.533,3t1.542,8.062a15.463,15.463,0,0,1-1.366,4.581,13.619,13.619,0,0,1-2.819,4.053,9.841,9.841,0,0,1-4.714,2.907,21.7,21.7,0,0,1-5.2.617H70.63l-1.674,8.37H62.833l6.3-31.586h0m5.154,5.022L71.644,28.361a3.241,3.241,0,0,0,.529.044h.617a23.164,23.164,0,0,0,7.048-.837q2.819-.925,3.789-6.432.793-4.626-1.586-5.33a19.768,19.768,0,0,0-5.859-.661q-.529.044-1.013.044h-.925l.044-.044" transform="translate(-10.607 -1.709)" fill="#3994f8"/>
</svg>
