<svg xmlns="http://www.w3.org/2000/svg" width="64.375" height="66.369" viewBox="0 0 64.375 66.369">
  <g id="postgresql" opacity="0.8">
    <path id="Path_299" data-name="Path 299" d="M64.5,40.121a3.266,3.266,0,0,0-2.711-2.184,6.208,6.208,0,0,0-2.164.12,19.445,19.445,0,0,1-3.334.438A64.3,64.3,0,0,0,63.1,22.305c2.259-8.744,1.052-12.727-.359-14.529C59.009,3.007,53.563.445,46.994.366a27.906,27.906,0,0,0-8.186,1.147,30.478,30.478,0,0,0-4.787-.438,15.562,15.562,0,0,0-8.338,2.054,38.017,38.017,0,0,0-5.889-1.478C14.037.706,9.4,1.442,6,3.84,1.892,6.744-.014,11.788.339,18.833a86.163,86.163,0,0,0,3.333,15.5,53.52,53.52,0,0,0,3.589,9.158c1.771,3.356,3.667,5.333,5.794,6.043a5.7,5.7,0,0,0,5.638-1.223,4.93,4.93,0,0,0,1.186,1.02,7.889,7.889,0,0,0,2.237.943,12.014,12.014,0,0,0,7.821-.466c.014.406.025.795.034,1.13.015.544.03,1.077.05,1.575a27.592,27.592,0,0,0,1.044,7.826c.037.1.087.255.14.418a9.422,9.422,0,0,0,2.348,4.137,7,7,0,0,0,4.955,1.842,11.135,11.135,0,0,0,2.316-.258c2.475-.531,5.287-1.339,7.32-4.234C50.068,59.5,51,55.381,51.172,48.884c.022-.184.042-.359.062-.526l.04-.343.453.04.117.008a17.924,17.924,0,0,0,7.5-1.3c1.5-.694,6.29-3.225,5.161-6.642" transform="translate(-0.297 -0.364)"/>
    <path id="Path_300" data-name="Path 300" d="M67.7,48.553c-7.4,1.526-7.905-.978-7.905-.978,7.81-11.588,11.075-26.3,8.257-29.9C60.363,7.855,47.058,12.5,46.835,12.62l-.071.013a26.38,26.38,0,0,0-4.935-.514,12.189,12.189,0,0,0-7.812,2.338S10.282,4.68,11.386,26.755c.235,4.7,6.731,35.535,14.48,26.22,2.832-3.406,5.569-6.286,5.569-6.286a7.183,7.183,0,0,0,4.692,1.2l.133-.112a5.168,5.168,0,0,0,.053,1.326c-2,2.23-1.409,2.622-5.4,3.443-4.038.832-1.666,2.314-.117,2.7,1.878.469,6.221,1.134,9.156-2.974l-.117.469c.782.627,1.331,4.075,1.239,7.2s-.153,5.272.463,6.948,1.231,5.448,6.477,4.324c4.383-.939,6.655-3.374,6.971-7.434.224-2.887.732-2.46.764-5.041l.407-1.222c.469-3.913.075-5.176,2.775-4.588l.657.058A14.958,14.958,0,0,0,65.7,51.956c3.288-1.526,5.237-4.073,2-3.4h0" transform="translate(-8.563 -8.632)" fill="#336791" opacity="0.9"/>
    <path id="Path_301" data-name="Path 301" d="M102.6,80.036a2.326,2.326,0,0,0-1.6.227.586.586,0,0,0-.242.39,1.138,1.138,0,0,0,.276.745,2.088,2.088,0,0,0,1.325.827,1.509,1.509,0,0,0,.212.015,1.718,1.718,0,0,0,1.627-1.107c.082-.589-.773-.981-1.6-1.1m22.38.018c-.065-.462-.886-.593-1.665-.485s-1.533.46-1.47.922a1.58,1.58,0,0,0,1.469.974,1.4,1.4,0,0,0,.2-.014,1.894,1.894,0,0,0,1.069-.585,1.178,1.178,0,0,0,.4-.813" transform="translate(-75.436 -59.578)" fill="#fff"/>
    <path id="Path_302" data-name="Path 302" d="M68.037,45.847c-.286-.864-1.206-1.142-2.734-.827-4.538.937-6.164.288-6.7-.105a62.4,62.4,0,0,0,8-17.931,34.071,34.071,0,0,0,1.185-7.711c.037-2.385-.369-4.138-1.207-5.209C63.2,9.748,58.242,7.432,52.24,7.369a24.565,24.565,0,0,0-8.288,1.306,20.662,20.662,0,0,0-4.664-.6,13.474,13.474,0,0,0-7.992,2.2,35.675,35.675,0,0,0-6.495-1.7c-5.261-.847-9.442-.205-12.425,1.908-3.56,2.522-5.2,7.031-4.885,13.4a84.12,84.12,0,0,0,3.255,15.048c2.536,8.309,5.293,13.013,8.194,13.981a3.67,3.67,0,0,0,1.163.192,4.858,4.858,0,0,0,3.705-2.1q2.47-2.963,5.107-5.779a8.229,8.229,0,0,0,3.674.988c0,.034.006.067.009.1q-.331.395-.648.8c-.888,1.127-1.073,1.362-3.93,1.95-.813.168-2.972.613-3,2.126-.034,1.654,2.552,2.348,2.847,2.422a12.192,12.192,0,0,0,2.96.384,8.613,8.613,0,0,0,5.928-2.213c-.05,5.895.2,11.7.9,13.473.58,1.449,2,4.99,6.469,4.989A10.377,10.377,0,0,0,46.3,70c4.669-1,6.7-3.064,7.48-7.613.42-2.431,1.14-8.237,1.479-11.351a9.147,9.147,0,0,0,2.63.325,15.655,15.655,0,0,0,5.971-1.138c1.687-.783,4.731-2.706,4.179-4.376ZM56.92,24.8a18.885,18.885,0,0,1-.276,2.625,24.245,24.245,0,0,0-.331,3.082A23.368,23.368,0,0,0,56.556,34c.279,2.324.566,4.717-.543,7.078a9.2,9.2,0,0,1-.492-1.011c-.138-.334-.437-.871-.852-1.614-1.613-2.893-5.39-9.667-3.457-12.431.576-.823,2.038-1.669,5.707-1.213ZM52.472,9.23c5.378.119,9.632,2.13,12.643,5.979,2.31,2.952-.234,16.384-7.6,27.972l-.223-.282-.093-.116c1.9-3.143,1.531-6.252,1.2-9.008a21.6,21.6,0,0,1-.232-3.2,22.689,22.689,0,0,1,.311-2.858,18.049,18.049,0,0,0,.29-3.538,1.467,1.467,0,0,0,.031-.5c-.12-1.272-1.572-5.078-4.531-8.522a20.41,20.41,0,0,0-7.2-5.415,24.287,24.287,0,0,1,5.4-.508ZM22.381,49.818c-1.487,1.788-2.514,1.445-2.852,1.333-2.2-.734-4.754-5.385-7.005-12.761a83.358,83.358,0,0,1-3.177-14.6c-.284-5.691,1.1-9.657,4.1-11.789,4.891-3.468,12.933-1.392,16.164-.34-.046.046-.095.089-.141.135-5.3,5.355-5.177,14.5-5.164,15.063,0,.216.018.521.042.941a37.852,37.852,0,0,1-.193,7.646,9.67,9.67,0,0,0,2.549,8.094q.314.327.66.622C26.457,45.138,24.483,47.29,22.381,49.818Zm5.666-7.56A7.824,7.824,0,0,1,26,35.707a39.572,39.572,0,0,0,.207-8.013c-.013-.224-.025-.421-.032-.576.775-.687,4.364-2.61,6.924-2.024a2.817,2.817,0,0,1,2.176,2.431c1.532,7.084.2,10.036-.865,12.409-.22.489-.428.951-.605,1.429l-.138.37a24.223,24.223,0,0,0-.873,2.628,6.609,6.609,0,0,1-4.744-2.1Zm.268,9.553a4.107,4.107,0,0,1-1.239-.533,6.053,6.053,0,0,1,1.32-.393c3.362-.692,3.881-1.18,5.015-2.62.26-.33.555-.7.963-1.16h0c.608-.681.886-.565,1.39-.356a1.966,1.966,0,0,1,.968,1.245,1.386,1.386,0,0,1-.118,1.165C34.245,52.474,30.794,52.431,28.316,51.811ZM45.91,68.183c-4.113.881-5.569-1.217-6.529-3.616-.619-1.549-.924-8.532-.708-16.245a.929.929,0,0,0-.04-.295,3.893,3.893,0,0,0-.115-.545,3.765,3.765,0,0,0-2.043-2.45A2.881,2.881,0,0,0,34.6,44.8a22.721,22.721,0,0,1,.81-2.423l.138-.372c.156-.419.351-.854.558-1.313,1.117-2.482,2.648-5.883.987-13.564-.622-2.877-2.7-4.282-5.849-3.956a13.5,13.5,0,0,0-4.477,1.394c-.185.094-.355.185-.513.273.24-2.9,1.149-8.316,4.547-11.744a11.166,11.166,0,0,1,8.461-3.166,17.936,17.936,0,0,1,13.7,6.548,20.8,20.8,0,0,1,3.75,6.43c-3.467-.353-5.825.332-7.021,2.041-2.6,3.717,1.423,10.933,3.356,14.4.355.635.661,1.185.757,1.418a12.876,12.876,0,0,0,2.04,3.288c.182.228.359.449.494.642-1.05.3-2.936,1-2.764,4.5-.139,1.754-1.124,9.968-1.625,12.87-.661,3.834-2.072,5.262-6.039,6.113ZM63.076,48.538a13.545,13.545,0,0,1-4.578.953,5.741,5.741,0,0,1-3.071-.4c-.106-2.179.705-2.406,1.563-2.647.135-.038.266-.075.393-.119a3.21,3.21,0,0,0,.26.191c1.515,1,4.218,1.108,8.034.32l.042-.008a10.274,10.274,0,0,1-2.644,1.707Z" transform="translate(-5.649 -5.602)" fill="#fff"/>
  </g>
</svg>
