<svg xmlns="http://www.w3.org/2000/svg" width="67.375" height="60" viewBox="0 0 67.375 60">
  <g id="react" transform="translate(-101.39 -326.713)">
    <circle id="Ellipse_1" data-name="Ellipse 1" cx="6.276" cy="6.276" r="6.276" transform="translate(127.871 350.444)" fill="#61dafb"/>
    <path id="Path_288" data-name="Path 288" d="M243.075,108.007c0-4.463-5.589-8.693-14.159-11.316,1.978-8.734,1.1-15.683-2.774-17.908a6.021,6.021,0,0,0-3.076-.769v3.062a3.18,3.18,0,0,1,1.566.357c1.868,1.071,2.678,5.15,2.046,10.4-.151,1.291-.4,2.651-.7,4.038a66.553,66.553,0,0,0-8.721-1.5,66.986,66.986,0,0,0-5.713-6.867c4.477-4.161,8.679-6.441,11.536-6.441V78c-3.777,0-8.721,2.692-13.719,7.361-5-4.642-9.943-7.306-13.719-7.306v3.062c2.843,0,7.059,2.266,11.536,6.4A64.86,64.86,0,0,0,201.5,94.37a64.13,64.13,0,0,0-8.734,1.511c-.316-1.373-.549-2.705-.714-3.983-.645-5.246.151-9.325,2.005-10.41a3.057,3.057,0,0,1,1.579-.357V78.069a6.124,6.124,0,0,0-3.1.769C188.678,81.063,187.813,88,189.8,96.7c-8.542,2.637-14.1,6.853-14.1,11.3s5.589,8.693,14.159,11.316c-1.978,8.734-1.1,15.683,2.774,17.908a6.037,6.037,0,0,0,3.09.769c3.777,0,8.721-2.692,13.719-7.361,5,4.642,9.943,7.306,13.719,7.306a6.123,6.123,0,0,0,3.1-.769c3.859-2.225,4.724-9.16,2.733-17.867,8.515-2.623,14.076-6.853,14.076-11.3Zm-17.881-9.16c-.508,1.772-1.14,3.6-1.854,5.425-.563-1.1-1.154-2.2-1.8-3.3s-1.3-2.17-1.978-3.214C221.514,98.05,223.4,98.407,225.194,98.847Zm-6.29,14.626c-1.071,1.854-2.17,3.612-3.31,5.246-2.046.179-4.12.275-6.207.275s-4.147-.1-6.18-.261q-1.71-2.451-3.323-5.219-1.566-2.7-2.856-5.466c.851-1.84,1.813-3.68,2.843-5.48,1.071-1.854,2.17-3.612,3.31-5.246,2.046-.179,4.12-.275,6.207-.275s4.147.1,6.18.261q1.71,2.451,3.323,5.219,1.566,2.7,2.856,5.466C220.882,109.833,219.934,111.674,218.9,113.473Zm4.436-1.785c.742,1.84,1.373,3.68,1.9,5.466-1.8.439-3.694.81-5.658,1.1.673-1.057,1.346-2.142,1.978-3.255S222.777,112.786,223.34,111.687Zm-13.925,14.653a56.607,56.607,0,0,1-3.818-4.395c1.236.055,2.5.1,3.777.1s2.568-.027,3.818-.1A53.607,53.607,0,0,1,209.415,126.341ZM199.2,118.252c-1.95-.288-3.832-.645-5.631-1.085.508-1.772,1.14-3.6,1.854-5.425.563,1.1,1.154,2.2,1.8,3.3S198.525,117.208,199.2,118.252Zm10.149-28.579a56.618,56.618,0,0,1,3.818,4.395c-1.236-.055-2.5-.1-3.777-.1s-2.568.027-3.818.1A53.6,53.6,0,0,1,209.346,89.673Zm-10.163,8.089c-.673,1.057-1.346,2.142-1.978,3.255s-1.222,2.2-1.785,3.3c-.742-1.84-1.373-3.68-1.9-5.466C195.325,98.421,197.22,98.05,199.184,97.762Zm-12.428,17.194c-4.862-2.074-8.006-4.793-8.006-6.949s3.145-4.889,8.006-6.949c1.181-.508,2.472-.961,3.8-1.387a65.955,65.955,0,0,0,3.09,8.363,65.024,65.024,0,0,0-3.049,8.322C189.241,115.931,187.95,115.464,186.755,114.956Zm7.388,19.625c-1.868-1.071-2.678-5.15-2.046-10.4.151-1.291.4-2.65.7-4.038a66.555,66.555,0,0,0,8.72,1.5,67,67,0,0,0,5.713,6.867c-4.477,4.161-8.679,6.441-11.536,6.441A3.277,3.277,0,0,1,194.144,134.581Zm32.575-10.465c.645,5.246-.151,9.325-2.005,10.41a3.056,3.056,0,0,1-1.579.357c-2.843,0-7.059-2.266-11.536-6.4a64.861,64.861,0,0,0,5.672-6.853A64.131,64.131,0,0,0,226,120.12,38.45,38.45,0,0,1,226.719,124.116Zm5.287-9.16c-1.181.508-2.472.961-3.8,1.387a65.956,65.956,0,0,0-3.09-8.363,65.037,65.037,0,0,0,3.049-8.322c1.36.426,2.65.893,3.859,1.4,4.862,2.074,8.006,4.793,8.006,6.949S236.867,112.9,232.006,114.956Z" transform="translate(-74.311 248.713)" fill="#61dafb"/>
  </g>
</svg>
