<svg xmlns="http://www.w3.org/2000/svg" width="56" height="50.303" viewBox="0 0 56 50.303">
  <path id="sentry" d="M54.954,41.094a6.26,6.26,0,0,1,.336,6.335A6.213,6.213,0,0,1,49.654,50.3H44.882c.057-.89.094-1.787.094-2.691,0-1.012-.047-2.012-.116-3.009L48,44.6a1.4,1.4,0,0,0,1.4-1.4,1.413,1.413,0,0,0-.168-.668L29.22,7.757a1.392,1.392,0,0,0-2.406-.033l-3.177,5.522A42.977,42.977,0,0,1,40.669,44.6c.069.995.116,1.995.116,3.008,0,.9-.038,1.8-.093,2.691H25.108c.085-.887.134-1.782.134-2.691a27.177,27.177,0,0,0-.17-3.008,27.357,27.357,0,0,0-9.3-17.695l-2.188,3.8A23.046,23.046,0,0,1,20.754,44.6a23.143,23.143,0,0,1,.2,3.008,23.427,23.427,0,0,1-.162,2.691H6.346A6.214,6.214,0,0,1,.709,47.423a6.26,6.26,0,0,1,.336-6.335l2.966-5.083a17.373,17.373,0,0,1,4.531,3.511L6.775,42.529a1.427,1.427,0,0,0-.168.668A1.4,1.4,0,0,0,8,44.6l7.007,0a17.348,17.348,0,0,0-4.357-8.79,17.457,17.457,0,0,0-4.536-3.516l7.825-13.6a33.125,33.125,0,0,1,4.717,3.2A33.051,33.051,0,0,1,30.781,44.6h4.194a37.252,37.252,0,0,0-14.2-26.37,37.451,37.451,0,0,0-4.741-3.162l6.679-11.6A6.221,6.221,0,0,1,28.008,0a6.223,6.223,0,0,1,5.3,3.461Z" transform="translate(0)" fill="#fb2d26"/>
</svg>
