<svg xmlns="http://www.w3.org/2000/svg" width="48" height="48" viewBox="0 0 25.948 23.484">
  <g id="Sketch" transform="translate(0 -1.95)">
    <path id="Path_12148" data-name="Path 12148" d="M5.661,2.723l7.313-.773,7.313.773,5.661,7.614-12.974,15.1L0,10.337Z" fill="#fdb300"/>
    <path id="Path_12149" data-name="Path 12149" d="M5.255,10.337l7.719,15.1L0,10.337Z" fill="#ea6c00"/>
    <path id="Path_12150" data-name="Path 12150" d="M20.693,10.337l-7.719,15.1,12.974-15.1Z" fill="#ea6c00"/>
    <path id="Path_12151" data-name="Path 12151" d="M5.255,10.337H20.692l-7.719,15.1Z" fill="#fdad00"/>
    <path id="Path_12152" data-name="Path 12152" d="M12.974,1.95l-7.313.773-.406,7.614Z" fill="#fdd231"/>
    <path id="Path_12153" data-name="Path 12153" d="M12.974,1.95l7.313.773.406,7.614Z" fill="#fdd231"/>
    <path id="Path_12154" data-name="Path 12154" d="M25.947,10.337,20.286,2.723l.407,7.614ZM0,10.337,5.661,2.723l-.406,7.614Z" fill="#fdad00"/>
    <path id="Path_12155" data-name="Path 12155" d="M12.974,1.95,5.255,10.337H20.692Z" fill="#feeeb7"/>
  </g>
</svg>
