<?xml version="1.0" standalone="no"?>
<!DOCTYPE svg PUBLIC "-//W3C//DTD SVG 20010904//EN"
 "http://www.w3.org/TR/2001/REC-SVG-20010904/DTD/svg10.dtd">
<svg version="1.0" xmlns="http://www.w3.org/2000/svg"
 width="944.000000pt" height="944.000000pt" viewBox="0 0 944.000000 944.000000"
 preserveAspectRatio="xMidYMid meet">
<metadata>
Created by potrace 1.14, written by Peter Selinger 2001-2017
</metadata>
<g transform="translate(0.000000,944.000000) scale(0.100000,-0.100000)"
fill="#000000" stroke="none">
<path d="M6278 9430 c-144 -26 -249 -81 -354 -185 -89 -88 -148 -192 -181
-315 -24 -88 -23 -271 1 -360 93 -345 430 -561 754 -485 351 83 569 436 498
807 -28 147 -94 266 -206 372 -73 69 -190 133 -281 155 -67 16 -177 21 -231
11z"/>
<path d="M3899 8925 c-77 -19 -159 -57 -227 -105 -32 -22 -168 -154 -302 -293
-135 -139 -662 -683 -1171 -1209 -510 -526 -946 -980 -970 -1009 -52 -66 -113
-194 -134 -280 -19 -82 -19 -255 0 -337 19 -80 58 -171 102 -241 20 -31 159
-181 313 -336 152 -154 366 -381 475 -505 110 -124 262 -290 340 -370 77 -80
338 -350 580 -600 242 -250 477 -491 522 -536 93 -95 199 -161 318 -201 73
-25 94 -27 235 -28 149 0 158 1 243 31 116 42 185 84 275 168 132 125 192 261
192 438 0 115 -25 204 -84 304 -25 42 -252 283 -782 829 -1082 1116 -1129
1165 -1129 1180 0 8 124 142 275 297 1240 1276 1566 1613 1601 1655 59 70 125
213 145 313 34 172 1 367 -87 517 -52 87 -180 211 -266 256 -138 72 -322 96
-464 62z"/>
<path d="M7492 8140 c-117 -31 -206 -84 -298 -175 -94 -94 -154 -202 -180
-325 -22 -101 -14 -261 16 -350 47 -142 79 -181 465 -570 198 -201 453 -459
566 -573 226 -231 300 -288 425 -329 148 -49 287 -46 442 11 173 64 316 217
378 407 26 79 29 102 28 209 0 101 -5 132 -27 200 -28 85 -77 174 -128 234
-18 20 -275 283 -573 585 -581 589 -607 613 -752 662 -108 37 -257 43 -362 14z"/>
<path d="M5285 6550 c-245 -65 -439 -239 -504 -454 -45 -147 -22 -329 60 -467
36 -63 -36 13 1062 -1119 472 -486 856 -890 855 -897 -2 -7 -410 -432 -908
-944 -498 -512 -929 -959 -958 -992 -160 -185 -214 -468 -134 -700 41 -120 84
-188 177 -282 138 -140 299 -202 499 -193 191 9 304 66 481 243 247 245 2286
2357 2316 2398 46 61 106 194 125 273 11 50 15 103 12 194 -3 108 -8 137 -35
213 -53 149 -77 181 -379 487 -154 157 -372 389 -485 515 -112 127 -323 353
-469 504 -842 872 -997 1030 -1048 1073 -73 61 -196 123 -296 148 -105 26
-272 26 -371 0z"/>
<path d="M645 3646 c-151 -36 -228 -74 -319 -157 -79 -72 -147 -178 -182 -285
-26 -79 -29 -102 -28 -209 0 -101 5 -132 27 -200 28 -85 77 -174 128 -234 18
-20 275 -283 573 -585 391 -397 559 -561 607 -592 140 -91 324 -125 483 -90
247 55 450 260 502 506 23 108 15 262 -19 358 -48 137 -72 167 -462 562 -204
206 -460 466 -570 578 -223 227 -296 283 -423 325 -102 34 -230 43 -317 23z"/>
<path d="M2934 1351 c-390 -106 -598 -541 -445 -929 76 -192 263 -356 461
-403 133 -32 298 -8 435 64 94 49 211 173 263 277 91 184 105 372 41 564 -45
135 -163 283 -282 354 -140 84 -327 113 -473 73z"/>
</g>
</svg>
