<svg width="56" height="56" viewBox="0 0 56 56" fill="none" xmlns="http://www.w3.org/2000/svg">
<g clip-path="url(#clip0_150_164)">
<path d="M23.4217 0.411095C16.7877 0.411095 12.5246 3.47499 11.1927 6.76398C5.96826 7.87571 2.29395 13.5916 2.29395 19.8797C2.39177 22.6824 3.09141 25.4314 4.34539 27.9399C3.03294 29.4059 2.30313 31.302 2.29395 33.2696C2.29395 36.415 4.35817 39.4524 8.02953 41.1421C7.4658 42.2623 7.21191 43.5128 7.29417 44.7642C7.37644 46.0155 7.79188 47.222 8.49742 48.2588C9.28251 49.202 10.2597 49.9669 11.3639 50.5026C12.468 51.0382 13.6737 51.3322 14.9004 51.3649C15.2171 52.2718 15.7116 53.1064 16.3548 53.8199C16.998 54.5333 17.7771 55.1113 18.6465 55.5199C20.1622 56.133 21.7872 56.4297 23.4217 56.3918C24.2776 56.3923 25.1221 56.1963 25.8902 55.8188C26.6583 55.4413 27.3295 54.8924 27.852 54.2145C28.3753 54.888 29.0448 55.4339 29.8098 55.8111C30.5748 56.1882 31.4155 56.3868 32.2684 56.3918V56.3918C33.8837 56.429 35.4896 56.1346 36.9866 55.5268C38.723 54.7176 40.0712 53.2575 40.7396 51.4622C42.7052 51.4836 44.6474 51.0336 46.4034 50.15C47.4483 49.5602 48.3124 48.6964 48.9026 47.6517C49.4927 46.6071 49.7865 45.4211 49.7524 44.2217C49.6956 43.1294 49.4011 42.0626 48.8893 41.0959C50.3218 40.4692 51.5309 39.4233 52.3572 38.0959C53.1095 36.6015 53.4694 34.9403 53.4031 33.2686C53.392 32.313 53.1857 31.3697 52.7969 30.4966C52.4082 29.6236 51.8451 28.8392 51.1423 28.1916C52.4971 25.6139 53.2689 22.7699 53.4031 19.861C53.29 12.761 48.505 7.77643 43.3159 6.74531C42.1629 3.70599 38.8739 0.411095 32.2782 0.411095C31.4772 0.347816 30.6725 0.471913 29.9278 0.773557C29.183 1.0752 28.5188 1.54611 27.9876 2.14897C27.9375 2.21385 27.8962 2.28659 27.85 2.35343C27.8028 2.28659 27.7625 2.21385 27.7124 2.14897C27.1812 1.54611 26.5169 1.0752 25.7722 0.773557C25.0275 0.471913 24.2227 0.347816 23.4217 0.411095V0.411095ZM23.4217 2.84491C24.735 2.84491 25.3356 3.05428 25.7887 3.63914C26.2419 4.22401 26.6321 5.53626 26.6321 7.93862V14.8105C26.6108 14.9407 26.6108 15.0735 26.6321 15.2037V19.8787H22.9824V13.7941H17.8837C17.5967 12.9822 17.0318 12.2979 16.289 11.8621C15.5462 11.4264 14.6732 11.2673 13.8245 11.4129C12.9757 11.5585 12.2057 11.9995 11.6506 12.658C11.0955 13.3164 10.7911 14.1498 10.7911 15.011C10.7911 15.8722 11.0955 16.7057 11.6506 17.3641C12.2057 18.0226 12.9757 18.4636 13.8245 18.6092C14.6732 18.7548 15.5462 18.5957 16.289 18.1599C17.0318 17.7242 17.5967 17.0399 17.8837 16.2279H20.5456V22.3125H26.6321V32.0438H18.1147V39.5822C17.3028 39.8692 16.6185 40.4341 16.1827 41.1769C15.747 41.9197 15.5879 42.7926 15.7335 43.6414C15.8791 44.4902 16.3201 45.2602 16.9785 45.8153C17.637 46.3704 18.4704 46.6748 19.3316 46.6748C20.1928 46.6748 21.0263 46.3704 21.6847 45.8153C22.3432 45.2602 22.7842 44.4902 22.9298 43.6414C23.0754 42.7926 22.9163 41.9197 22.4805 41.1769C22.0448 40.4341 21.3605 39.8692 20.5485 39.5822V34.4865H26.6321V42.8014C26.6108 42.9316 26.6108 43.0643 26.6321 43.1945V50.7083C26.6632 51.1395 26.6017 51.5723 26.4518 51.9778C26.3019 52.3833 26.067 52.752 25.7628 53.0592C25.4587 53.3664 25.0923 53.605 24.6884 53.759C24.2844 53.913 23.8522 53.9789 23.4208 53.9521C22.1215 53.9789 20.8295 53.7512 19.6177 53.2817C18.92 53.0126 18.3018 52.5714 17.8205 51.9991C17.3393 51.4267 17.0107 50.7419 16.8654 50.0084L16.6373 49.0835H15.6839C14.696 49.1208 13.7125 48.9346 12.8067 48.5387C11.9008 48.1428 11.0961 47.5475 10.4525 46.7971C9.4391 45.4396 9.17468 43.6644 10.6491 41.1873L11.4188 39.8918L9.98268 39.415C6.26905 38.1667 4.72776 35.6709 4.72776 33.2656C4.71215 32.4488 4.87143 31.6381 5.1949 30.8879C5.51838 30.1377 5.99857 29.4654 6.60325 28.916L7.07606 28.398H11.0403C11.3274 29.2099 11.8923 29.8943 12.6351 30.33C13.3779 30.7658 14.2508 30.9249 15.0996 30.7792C15.9484 30.6336 16.7184 30.1926 17.2735 29.5342C17.8286 28.8758 18.133 28.0423 18.133 27.1811C18.133 26.3199 17.8286 25.4864 17.2735 24.828C16.7184 24.1696 15.9484 23.7286 15.0996 23.5829C14.2508 23.4373 13.3779 23.5964 12.6351 24.0322C11.8923 24.4679 11.3274 25.1523 11.0403 25.9642H6.10587C5.24842 24.0462 4.78065 21.977 4.72973 19.8767C4.72973 14.2915 8.22907 9.40225 12.1786 8.91667L12.9817 8.81837L13.1999 8.04085C13.7435 6.12997 17.1888 2.84884 23.4217 2.84884V2.84491ZM32.2782 2.84491C38.5112 2.84491 40.6462 5.80559 41.2841 8.04577L41.5053 8.82329L42.3064 8.92158C46.4093 9.42584 50.872 13.5916 50.9722 19.9032C51.0086 22.1424 50.0876 24.8731 48.6573 27.878L48.2887 28.6506L48.8874 29.2571C50.1564 30.5438 50.9722 31.2289 50.9722 33.2715C51.031 34.5331 50.7746 35.7895 50.2261 36.9272C49.8233 37.6375 49.2414 38.2299 48.5384 38.6454V33.2696H37.5862V29.3888C38.3982 29.1018 39.0825 28.5369 39.5182 27.7941C39.954 27.0513 40.1131 26.1783 39.9675 25.3296C39.8218 24.4808 39.3808 23.7108 38.7224 23.1557C38.064 22.6006 37.2305 22.2962 36.3693 22.2962C35.5081 22.2962 34.6747 22.6006 34.0162 23.1557C33.3578 23.7108 32.9168 24.4808 32.7712 25.3296C32.6255 26.1783 32.7847 27.0513 33.2204 27.7941C33.6562 28.5369 34.3405 29.1018 35.1524 29.3888V35.7014H46.1046V40.398C46.0628 40.6758 46.1184 40.9596 46.2619 41.2011V41.2011C46.798 42.1333 47.1566 43.1568 47.3195 44.2198C47.396 44.9938 47.2351 45.7729 46.8583 46.4534C46.4816 47.1339 45.9067 47.6837 45.2101 48.0297C43.5902 48.7954 41.8095 49.1589 40.0191 49.0894H39.0656L38.8375 50.0143C38.6834 50.7536 38.3448 51.4419 37.853 52.0151C37.3613 52.5883 36.7326 53.0278 36.0253 53.2925C34.8355 53.7558 33.5666 53.9818 32.29 53.958C31.8581 53.9848 31.4255 53.919 31.021 53.7651C30.6165 53.6113 30.2496 53.3729 29.9446 53.0658C29.6397 52.7587 29.4038 52.3901 29.2528 51.9846C29.1018 51.579 29.0391 51.1459 29.0689 50.7142V44.2267H34.1645C34.4516 45.0386 35.0165 45.7229 35.7593 46.1587C36.5021 46.5944 37.375 46.7535 38.2238 46.6079C39.0726 46.4623 39.8426 46.0213 40.3977 45.3628C40.9528 44.7044 41.2572 43.8709 41.2572 43.0097C41.2572 42.1486 40.9528 41.3151 40.3977 40.6567C39.8426 39.9982 39.0726 39.5572 38.2238 39.4116C37.375 39.266 36.5021 39.4251 35.7593 39.8608C35.0165 40.2966 34.4516 40.9809 34.1645 41.7928H29.0669V33.474C29.0883 33.3438 29.0883 33.211 29.0669 33.0808V21.304C29.0883 21.1738 29.0883 21.041 29.0669 20.9108V16.2319H39.0312C39.3183 17.0438 39.8831 17.7281 40.6259 18.1639C41.3687 18.5996 42.2417 18.7587 43.0905 18.6131C43.9393 18.4675 44.7092 18.0265 45.2643 17.3681C45.8194 16.7096 46.1238 15.8762 46.1238 15.015C46.1238 14.1538 45.8194 13.3203 45.2643 12.6619C44.7092 12.0035 43.9393 11.5625 43.0905 11.4168C42.2417 11.2712 41.3687 11.4303 40.6259 11.8661C39.8831 12.3018 39.3183 12.9861 39.0312 13.7981H29.0669V7.93862C29.0669 5.53626 29.4601 4.22302 29.9113 3.63914C30.3624 3.05526 30.965 2.84884 32.2782 2.84884V2.84491ZM14.463 13.7981C14.7737 13.7945 15.0735 13.9126 15.2983 14.1272C15.5231 14.3417 15.6552 14.6356 15.6662 14.9462C15.6635 14.993 15.6635 15.0399 15.6662 15.0867C15.651 15.3227 15.5671 15.549 15.4248 15.7379C15.2825 15.9267 15.0881 16.0697 14.8655 16.1493C14.6428 16.229 14.4018 16.2417 14.172 16.1859C13.9422 16.1301 13.7338 16.0083 13.5725 15.8355C13.4111 15.6627 13.3039 15.4464 13.264 15.2134C13.2241 14.9803 13.2533 14.7407 13.348 14.524C13.4427 14.3074 13.5987 14.1232 13.7969 13.9942C13.995 13.8652 14.2266 13.797 14.463 13.7981V13.7981ZM42.4529 13.7981C42.6912 13.7956 42.9249 13.8631 43.1252 13.9922C43.3255 14.1214 43.4834 14.3065 43.5794 14.5245C43.6754 14.7426 43.7053 14.9841 43.6653 15.219C43.6254 15.4539 43.5173 15.672 43.3546 15.846C43.1918 16.0201 42.9815 16.1425 42.7498 16.1982C42.5181 16.2538 42.2752 16.2402 42.0511 16.159C41.8271 16.0779 41.6318 15.9327 41.4895 15.7415C41.3472 15.5504 41.2642 15.3217 41.2507 15.0838C41.2534 15.037 41.2534 14.99 41.2507 14.9432C41.2625 14.6325 41.3954 14.3387 41.621 14.1247C41.8465 13.9107 42.1469 13.7935 42.4578 13.7981H42.4529ZM36.3683 24.7512C36.6835 24.7513 36.9863 24.8742 37.2123 25.0939C37.4383 25.3136 37.5697 25.6127 37.5787 25.9278C37.5877 26.2429 37.4734 26.549 37.2603 26.7812C37.0471 27.0134 36.7518 27.1533 36.4372 27.1713C36.4077 27.1713 36.3782 27.1713 36.3487 27.1713H36.2966C35.9817 27.1533 35.6863 27.0132 35.4731 26.7808C35.2599 26.5484 35.1458 26.2421 35.155 25.9268C35.1643 25.6116 35.2961 25.3124 35.5225 25.0928C35.7489 24.8733 36.052 24.7507 36.3674 24.7512H36.3683ZM14.463 25.9671C14.7014 25.9641 14.9355 26.0311 15.1361 26.1599C15.3367 26.2886 15.4951 26.4735 15.5916 26.6916C15.6881 26.9096 15.7184 27.1511 15.6787 27.3862C15.6391 27.6213 15.5313 27.8396 15.3687 28.014C15.206 28.1883 14.9958 28.3111 14.764 28.3669C14.5322 28.4228 14.2892 28.4094 14.0649 28.3283C13.8407 28.2473 13.6453 28.1021 13.5029 27.9109C13.3604 27.7197 13.2773 27.4909 13.2638 27.2529C13.2665 27.206 13.2665 27.1591 13.2638 27.1123C13.2756 26.8029 13.4073 26.5104 13.6312 26.2966C13.8551 26.0828 14.1535 25.9646 14.463 25.9671ZM37.5862 41.7879C37.8245 41.7854 38.0583 41.8529 38.2585 41.9821C38.4588 42.1112 38.6167 42.2963 38.7128 42.5144C38.8088 42.7325 38.8387 42.974 38.7987 43.2089C38.7587 43.4438 38.6507 43.6618 38.4879 43.8359C38.3252 44.0099 38.1149 44.1324 37.8832 44.188C37.6515 44.2437 37.4085 44.2301 37.1845 44.1489C36.9605 44.0677 36.7652 43.9226 36.6229 43.7314C36.4806 43.5403 36.3976 43.3115 36.3841 43.0736C36.3867 43.0268 36.3867 42.9799 36.3841 42.9331C36.3958 42.6232 36.528 42.3302 36.7525 42.1163C36.9771 41.9024 37.2762 41.7846 37.5862 41.7879ZM19.2599 41.8027C19.3067 41.8053 19.3536 41.8053 19.4004 41.8027C19.7168 41.821 20.0136 41.9619 20.2278 42.1954C20.442 42.429 20.5567 42.7369 20.5475 43.0537C20.5384 43.3705 20.4061 43.6712 20.1788 43.892C19.9515 44.1129 19.6471 44.2364 19.3302 44.2364C19.0132 44.2364 18.7088 44.1129 18.4815 43.892C18.2542 43.6712 18.1219 43.3705 18.1128 43.0537C18.1036 42.7369 18.2183 42.429 18.4325 42.1954C18.6467 41.9619 18.9435 41.821 19.2599 41.8027V41.8027Z" fill="#1CBBDA"/>
</g>
<defs>
<clipPath id="clip0_150_164">
<rect width="56" height="56" fill="white"/>
</clipPath>
</defs>
</svg>
