<svg width="56" height="56" viewBox="0 0 56 56" fill="none" xmlns="http://www.w3.org/2000/svg">
<g clip-path="url(#clip0_150_167)">
<path d="M18.0259 0.399053C17.9787 0.407972 17.932 0.419492 17.886 0.433562C17.7047 0.473551 17.5363 0.557996 17.3958 0.679291C17.2553 0.800586 17.1471 0.954923 17.0811 1.1284C17.0143 1.30174 16.9921 1.48908 17.0165 1.67322C17.041 1.85737 17.1113 2.03243 17.221 2.18233L19.5993 5.74981C17.6304 6.72185 15.9176 8.14318 14.5991 9.89907C13.2807 11.655 12.3935 13.6962 12.0092 15.8581V16.1025C12.0046 16.1621 12.0046 16.222 12.0092 16.2816V17.855C11.3331 17.4481 10.5599 17.2306 9.77079 17.2254C8.58459 17.2291 7.44803 17.702 6.60926 18.5408C5.77049 19.3795 5.29763 20.5161 5.29395 21.7023V35.1328C5.29763 36.319 5.77049 37.4556 6.60926 38.2943C7.44803 39.1331 8.58459 39.606 9.77079 39.6097C10.5602 39.6036 11.3333 39.3852 12.0092 38.9773V41.8453C12.0139 42.7343 12.3691 43.5857 12.9978 44.2143C13.6265 44.843 14.4778 45.1983 15.3668 45.2029H16.4861V51.9182C16.4861 53.1055 16.9577 54.2442 17.7973 55.0838C18.6369 55.9234 19.7756 56.395 20.9629 56.395C22.1502 56.395 23.2889 55.9234 24.1285 55.0838C24.9681 54.2442 25.4397 53.1055 25.4397 51.9182V45.2029H29.9166V51.9182C29.9166 52.5061 30.0324 53.0882 30.2574 53.6314C30.4823 54.1745 30.8121 54.6681 31.2278 55.0838C31.6435 55.4995 32.1371 55.8293 32.6802 56.0542C33.2234 56.2792 33.8055 56.395 34.3934 56.395C34.9813 56.395 35.5635 56.2792 36.1066 56.0542C36.6498 55.8293 37.1433 55.4995 37.559 55.0838C37.9747 54.6681 38.3045 54.1745 38.5295 53.6314C38.7545 53.0882 38.8703 52.5061 38.8703 51.9182V45.2029H39.9895C40.8785 45.1983 41.7299 44.843 42.3585 44.2143C42.9872 43.5857 43.3424 42.7343 43.3471 41.8453V38.9773C44.0233 39.3842 44.7964 39.6016 45.5855 39.6069C46.7717 39.6032 47.9083 39.1303 48.7471 38.2916C49.5858 37.4528 50.0587 36.3162 50.0624 35.13V21.6995C50.0587 20.5133 49.5858 19.3767 48.7471 18.538C47.9083 17.6992 46.7717 17.2263 45.5855 17.2227C44.7964 17.2278 44.0232 17.4453 43.3471 17.8522V16.3133C43.3601 16.2089 43.3601 16.1033 43.3471 15.999V15.929C42.9758 13.7536 42.0946 11.697 40.7754 9.92766C39.4563 8.15836 37.7369 6.72666 35.7579 5.74981L38.1362 2.18233C38.2189 2.06064 38.2768 1.92387 38.3066 1.77981C38.3364 1.63575 38.3376 1.48722 38.31 1.34272C38.2824 1.19822 38.2267 1.06056 38.1459 0.937614C38.0651 0.814666 37.9609 0.708833 37.8392 0.626159C37.7175 0.543485 37.5807 0.485587 37.4367 0.455773C37.2926 0.425958 37.1441 0.42481 36.9996 0.452394C36.8551 0.479979 36.7174 0.535755 36.5945 0.616539C36.4715 0.697323 36.3657 0.801532 36.283 0.923216L33.6594 4.80967C29.7869 3.45733 25.5704 3.45733 21.6978 4.80967L19.0752 0.923216C18.9653 0.747856 18.8093 0.606158 18.6242 0.513688C18.4391 0.421219 18.2321 0.381554 18.0259 0.399053V0.399053ZM27.6782 6.02961C29.6716 6.01691 31.6469 6.40942 33.4841 7.18333C33.5185 7.19681 33.5537 7.20833 33.5895 7.21784C35.2569 7.92053 36.7502 8.97977 37.9646 10.3211C39.1791 11.6625 40.0851 13.2535 40.619 14.9824H14.7382C15.2648 13.2792 16.1531 11.7099 17.3424 10.3818C18.5317 9.0538 19.9938 7.99837 21.6288 7.28779C21.7028 7.26182 21.7733 7.22673 21.8387 7.18333C23.6863 6.40505 25.6734 6.01245 27.6782 6.02961V6.02961ZM21.5225 9.38725C21.1905 9.38725 20.8659 9.48571 20.5898 9.67018C20.3137 9.85465 20.0985 10.1168 19.9715 10.4236C19.8444 10.7304 19.8112 11.0679 19.8759 11.3936C19.9407 11.7192 20.1006 12.0184 20.3354 12.2532C20.5702 12.4879 20.8693 12.6478 21.195 12.7126C21.5206 12.7774 21.8582 12.7442 22.165 12.6171C22.4717 12.49 22.7339 12.2748 22.9184 11.9988C23.1029 11.7227 23.2013 11.3981 23.2013 11.0661C23.2013 10.8456 23.1579 10.6273 23.0735 10.4236C22.9892 10.2199 22.8655 10.0349 22.7096 9.87896C22.5537 9.72307 22.3686 9.59941 22.165 9.51504C21.9613 9.43067 21.743 9.38725 21.5225 9.38725V9.38725ZM33.8338 9.38725C33.5018 9.38725 33.1772 9.48571 32.9011 9.67018C32.625 9.85465 32.4099 10.1168 32.2828 10.4236C32.1557 10.7304 32.1225 11.0679 32.1873 11.3936C32.252 11.7192 32.4119 12.0184 32.6467 12.2532C32.8815 12.4879 33.1806 12.6478 33.5063 12.7126C33.832 12.7774 34.1695 12.7442 34.4763 12.6171C34.783 12.49 35.0452 12.2748 35.2297 11.9988C35.4142 11.7227 35.5126 11.3981 35.5126 11.0661C35.5126 10.6208 35.3358 10.1938 35.0209 9.87896C34.7061 9.56412 34.2791 9.38725 33.8338 9.38725V9.38725ZM14.2476 17.2217H41.1087V41.8444C41.1106 41.9918 41.0829 42.1382 41.0273 42.2749C40.9717 42.4115 40.8894 42.5356 40.7851 42.6399C40.6808 42.7442 40.5566 42.8266 40.42 42.8822C40.2834 42.9378 40.137 42.9654 39.9895 42.9636H31.2466C31.0964 42.9328 30.9416 42.9328 30.7914 42.9636H17.816C17.6659 42.9328 17.5111 42.9328 17.3609 42.9636H15.3668C15.2193 42.9654 15.073 42.9378 14.9363 42.8822C14.7997 42.8266 14.6756 42.7442 14.5713 42.6399C14.4669 42.5356 14.3846 42.4115 14.329 42.2749C14.2734 42.1382 14.2457 41.9918 14.2476 41.8444V17.2217ZM9.77079 19.4601C10.0654 19.4578 10.3575 19.5141 10.6302 19.6257C10.9028 19.7374 11.1505 19.9022 11.3589 20.1105C11.5672 20.3188 11.732 20.5665 11.8436 20.8392C11.9553 21.1118 12.0116 21.4039 12.0092 21.6986V35.1291C12.0092 35.7228 11.7734 36.2921 11.3536 36.7119C10.9338 37.1317 10.3645 37.3675 9.77079 37.3675C9.17712 37.3675 8.60777 37.1317 8.18798 36.7119C7.7682 36.2921 7.53237 35.7228 7.53237 35.1291V21.6986C7.53013 21.404 7.58651 21.112 7.69822 20.8395C7.80993 20.5669 7.97474 20.3193 8.18306 20.1111C8.39137 19.9029 8.63903 19.7382 8.91161 19.6266C9.1842 19.515 9.47625 19.4587 9.77079 19.4611V19.4601ZM45.5855 19.4601C45.8801 19.4578 46.1723 19.5141 46.4449 19.6257C46.7176 19.7374 46.9653 19.9022 47.1736 20.1105C47.3819 20.3188 47.5467 20.5665 47.6584 20.8392C47.77 21.1118 47.8263 21.4039 47.8239 21.6986V35.1291C47.8239 35.423 47.766 35.7141 47.6536 35.9857C47.5411 36.2573 47.3762 36.504 47.1683 36.7119C46.9605 36.9197 46.7137 37.0846 46.4421 37.1971C46.1706 37.3096 45.8795 37.3675 45.5855 37.3675C45.2916 37.3675 45.0005 37.3096 44.7289 37.1971C44.4573 37.0846 44.2106 36.9197 44.0027 36.7119C43.7949 36.504 43.63 36.2573 43.5175 35.9857C43.405 35.7141 43.3471 35.423 43.3471 35.1291V21.6986C43.3449 21.404 43.4012 21.112 43.513 20.8395C43.6247 20.5669 43.7895 20.3193 43.9978 20.1111C44.2061 19.9029 44.4538 19.7382 44.7264 19.6266C44.9989 19.515 45.291 19.4587 45.5855 19.4611V19.4601ZM18.7245 45.202H23.2013V51.9172C23.2013 52.5109 22.9655 53.0803 22.5457 53.5C22.1259 53.9198 21.5566 54.1557 20.9629 54.1557C20.3692 54.1557 19.7999 53.9198 19.3801 53.5C18.9603 53.0803 18.7245 52.5109 18.7245 51.9172V45.202ZM32.155 45.202H36.6318V51.9172C36.6318 52.5109 36.396 53.0803 35.9762 53.5C35.5564 53.9198 34.9871 54.1557 34.3934 54.1557C33.7998 54.1557 33.2304 53.9198 32.8106 53.5C32.3908 53.0803 32.155 52.5109 32.155 51.9172V45.202Z" fill="#1CBBDA"/>
</g>
<defs>
<clipPath id="clip0_150_167">
<rect width="56" height="56" fill="white"/>
</clipPath>
</defs>
</svg>
