<svg width="56" height="56" viewBox="0 0 56 56" fill="none" xmlns="http://www.w3.org/2000/svg">
<path d="M34.8579 49.5642C34.9001 49.5653 34.9423 49.5623 34.9839 49.5552H34.9909C35.0304 49.5472 35.0689 49.5352 35.1059 49.5192C35.146 49.5019 35.1842 49.4804 35.2199 49.4552C35.2559 49.4325 35.2894 49.406 35.3199 49.3762C35.3493 49.3458 35.3755 49.3122 35.3979 49.2762C35.4227 49.2382 35.4435 49.1976 35.4599 49.1552C35.476 49.1158 35.4884 49.075 35.4969 49.0332C35.5053 48.9921 35.5097 48.9502 35.5099 48.9082C35.5097 48.8662 35.5054 48.8244 35.4969 48.7832C35.4892 48.7395 35.4772 48.6966 35.4609 48.6552C35.4432 48.6169 35.4218 48.5804 35.3969 48.5462C35.3519 48.4775 35.2938 48.4184 35.2259 48.3722C35.1894 48.3478 35.1505 48.327 35.1099 48.3102C35.0719 48.2939 35.0324 48.2815 34.9919 48.2732H34.9849C34.8575 48.2485 34.7257 48.2621 34.6061 48.3123C34.4865 48.3625 34.3845 48.4471 34.3129 48.5552C34.2897 48.5896 34.27 48.6261 34.2539 48.6642C34.2371 48.7049 34.2244 48.7471 34.2159 48.7902C34.1998 48.8735 34.1998 48.959 34.2159 49.0422C34.2242 49.0843 34.2366 49.1255 34.2529 49.1652C34.2693 49.2052 34.2897 49.2434 34.3139 49.2792C34.3383 49.3151 34.3661 49.3486 34.3969 49.3792C34.519 49.4972 34.682 49.5635 34.8519 49.5642H34.8579V49.5642Z" fill="#1CBBDA"/>
<path d="M20.7839 44.556H35.2939L41.0659 53.278C41.1481 53.4031 41.2602 53.5058 41.392 53.5767C41.5238 53.6476 41.6713 53.6845 41.8209 53.684H48.5089C48.6725 53.6852 48.8333 53.6419 48.974 53.5586C49.1148 53.4753 49.2302 53.3552 49.3078 53.2112C49.3854 53.0673 49.4224 52.9049 49.4146 52.7415C49.4069 52.5782 49.3548 52.42 49.2639 52.284L44.1529 44.561H50.8859C51.1242 44.5594 51.3522 44.4641 51.5206 44.2957C51.689 44.1272 51.7844 43.8992 51.7859 43.661V37.797C51.7844 37.5588 51.689 37.3308 51.5206 37.1624C51.3522 36.9939 51.1242 36.8986 50.8859 36.897H46.2789V8.46502C46.2774 8.22681 46.182 7.9988 46.0136 7.83036C45.8452 7.66192 45.6172 7.56659 45.3789 7.56502H32.2869V3.30002C32.2876 3.18141 32.2648 3.06384 32.2199 2.95407C32.1749 2.8443 32.1088 2.74449 32.0251 2.66039C31.9415 2.57629 31.842 2.50954 31.7325 2.464C31.623 2.41846 31.5056 2.39502 31.3869 2.39502H24.6949C24.455 2.39528 24.225 2.49072 24.0553 2.66038C23.8856 2.83004 23.7902 3.06008 23.7899 3.30002V7.56002H10.7089C10.4707 7.56159 10.2427 7.65692 10.0743 7.82536C9.90584 7.9938 9.81052 8.22181 9.80895 8.46002V36.892H5.19395C4.95574 36.8936 4.72773 36.9889 4.55929 37.1574C4.39084 37.3258 4.29552 37.5538 4.29395 37.792V43.646C4.29552 43.8842 4.39084 44.1122 4.55929 44.2807C4.72773 44.4491 4.95574 44.5444 5.19395 44.546H11.9269L6.81595 52.279C6.72508 52.415 6.67299 52.5732 6.66526 52.7365C6.65754 52.8999 6.69448 53.0623 6.77211 53.2062C6.84974 53.3502 6.96513 53.4703 7.10587 53.5536C7.24662 53.6369 7.4074 53.6802 7.57095 53.679H14.2579C14.4076 53.6795 14.5551 53.6426 14.6869 53.5717C14.8187 53.5008 14.9308 53.3981 15.0129 53.273L17.3129 49.814H31.4679C31.708 49.814 31.9382 49.7187 32.1079 49.549C32.2776 49.3792 32.3729 49.149 32.3729 48.909C32.3729 48.669 32.2776 48.4388 32.1079 48.2691C31.9382 48.0994 31.708 48.004 31.4679 48.004H18.5029L20.7839 44.556V44.556ZM46.8229 51.874H42.3089L37.4669 44.556H41.9829L46.8229 51.874ZM13.7749 51.874H9.25495L14.0969 44.556H18.6089L13.7749 51.874ZM49.9789 42.745H6.09895V38.702H49.9789V42.745ZM44.4689 36.891H11.6089V9.37002H18.7339V13.963C18.7355 14.2012 18.8308 14.4292 18.9993 14.5977C19.1677 14.7661 19.3957 14.8614 19.6339 14.863H36.4389C36.6772 14.8614 36.9052 14.7661 37.0736 14.5977C37.242 14.4292 37.3374 14.2012 37.3389 13.963V9.37002H44.4689V36.891ZM35.5329 13.057H20.5449V9.37002H35.5329V13.057ZM30.4769 7.55702H25.6009V4.20502H30.4779L30.4769 7.55702Z" fill="#1CBBDA"/>
<path d="M33.3359 34.439C33.4284 34.4389 33.5199 34.4192 33.6044 34.3812C33.6888 34.3433 33.7642 34.2878 33.8256 34.2185C33.887 34.1493 33.933 34.0678 33.9607 33.9794C33.9883 33.8911 33.9969 33.7979 33.9859 33.706L33.3279 28.206L37.0929 24.143C37.1721 24.0575 37.2272 23.9524 37.2523 23.8386C37.2774 23.7247 37.2717 23.6062 37.2357 23.4953C37.1997 23.3845 37.1348 23.2852 37.0476 23.2078C36.9605 23.1303 36.8542 23.0776 36.7399 23.055L31.3049 21.981L28.6049 17.145C28.548 17.0431 28.4651 16.9583 28.3645 16.8993C28.264 16.8402 28.1495 16.8091 28.0329 16.8091C27.9162 16.8091 27.8018 16.8402 27.7012 16.8993C27.6006 16.9583 27.5177 17.0431 27.4609 17.145L24.7619 21.981L19.3279 23.055C19.2135 23.0776 19.1072 23.1303 19.0201 23.2078C18.9329 23.2852 18.868 23.3845 18.832 23.4953C18.796 23.6062 18.7903 23.7247 18.8154 23.8386C18.8405 23.9524 18.8956 24.0575 18.9749 24.143L22.7399 28.211L22.0819 33.711C22.0681 33.8268 22.0855 33.9441 22.1322 34.051C22.1789 34.1578 22.2533 34.2503 22.3476 34.3188C22.442 34.3874 22.5529 34.4296 22.6689 34.441C22.785 34.4525 22.902 34.4328 23.0079 34.384L28.0349 32.054L33.0619 34.379C33.1477 34.4187 33.2412 34.4391 33.3359 34.439V34.439ZM28.0359 18.811L30.3119 22.887C30.3581 22.9699 30.4219 23.0417 30.4988 23.0975C30.5756 23.1533 30.6637 23.1917 30.7569 23.21L35.3369 24.115L32.1639 27.539C32.0992 27.6085 32.0505 27.6914 32.0211 27.7817C31.9918 27.872 31.9825 27.9677 31.9939 28.062L32.5479 32.698L28.3109 30.738C28.2246 30.6983 28.1308 30.6777 28.0359 30.6777C27.9409 30.6777 27.8471 30.6983 27.7609 30.738L23.5239 32.698L24.0779 28.062C24.0893 27.9677 24.08 27.872 24.0506 27.7817C24.0212 27.6914 23.9725 27.6085 23.9079 27.539L20.7349 24.111L25.3149 23.211C25.408 23.1927 25.4961 23.1543 25.573 23.0985C25.6498 23.0427 25.7136 22.9709 25.7599 22.888L28.0359 18.811Z" fill="#1CBBDA"/>
</svg>
