<svg width="56" height="57" viewBox="0 0 56 57" fill="none" xmlns="http://www.w3.org/2000/svg">
<path d="M5.23 6C4.90385 6.00079 4.59131 6.13077 4.36078 6.36149C4.13025 6.5922 4.00053 6.90485 4 7.231V49.077C4.00525 50.0546 4.39592 50.9906 5.08717 51.6818C5.77841 52.3731 6.71444 52.7637 7.692 52.769H37.23C38.2072 52.7632 39.1427 52.3723 39.8335 51.6811C40.5244 50.9899 40.9148 50.0542 40.92 49.077V39.154C42.5446 38.981 44.1125 38.4582 45.5159 37.6217C46.9193 36.7852 48.125 35.6547 49.05 34.308C50.9836 31.4898 52.0117 28.1488 51.997 24.731C52.0695 23.0915 51.5355 21.4827 50.497 20.212C49.8586 19.5635 49.0894 19.0586 48.2404 18.731C47.3915 18.4034 46.4825 18.2605 45.574 18.312H40.92V7.231C40.9195 6.9052 40.79 6.59285 40.5599 6.36219C40.3298 6.13153 40.0178 6.00132 39.692 6H5.23ZM6.461 8.461H38.461V19.331C38.4368 19.4632 38.4368 19.5988 38.461 19.731V37.793C38.4368 37.9252 38.4368 38.0608 38.461 38.193V49.077C38.464 49.2395 38.4342 49.4009 38.3734 49.5516C38.3126 49.7023 38.222 49.8392 38.1071 49.9541C37.9922 50.069 37.8553 50.1596 37.7046 50.2204C37.5539 50.2812 37.3925 50.311 37.23 50.308H7.692C7.52952 50.311 7.36811 50.2812 7.21741 50.2204C7.06671 50.1596 6.92981 50.069 6.8149 49.9541C6.7 49.8392 6.60943 49.7023 6.54862 49.5516C6.48782 49.4009 6.45802 49.2395 6.461 49.077V8.461ZM27.269 15.846C22.038 16.654 22.456 21.952 22.461 21.985C21.5909 21.9576 20.7333 22.1977 20.004 22.673C19.3984 23.1125 18.9246 23.7094 18.634 24.399C18.062 25.659 17.874 26.981 17.384 28.187C17.3748 28.2035 17.3684 28.2214 17.365 28.24C16.891 29.4601 16.2096 30.5891 15.351 31.577C14.3773 32.8108 13.8488 34.3373 13.851 35.909C13.8158 37.0045 14.061 38.0909 14.5633 39.0651C15.0655 40.0393 15.8082 40.8692 16.721 41.476C18.4607 42.4904 20.4537 42.9875 22.466 42.909C24.4783 42.9875 26.4713 42.4904 28.211 41.476C29.1238 40.8692 29.8665 40.0393 30.3687 39.0651C30.871 38.0909 31.1162 37.0045 31.081 35.909C31.0832 34.3373 30.5547 32.8108 29.581 31.577C28.7188 30.5898 28.034 29.4608 27.557 28.24C27.5536 28.2214 27.5472 28.2035 27.538 28.187C27.052 26.98 26.86 25.663 26.288 24.403C25.9987 23.7113 25.5248 23.1124 24.918 22.672C24.2165 22.215 23.3941 21.9788 22.557 21.994C27.279 21.928 27.49 17.226 27.269 15.846V15.846ZM40.92 20.769H45.574C46.1358 20.7089 46.704 20.7748 47.2372 20.962C47.7703 21.1491 48.255 21.4528 48.656 21.851C49.2931 22.6703 49.6064 23.6955 49.536 24.731C49.5365 27.6363 48.6694 30.4756 47.046 32.885C46.3604 33.9243 45.4578 34.8028 44.4003 35.46C43.3428 36.1172 42.1555 36.5375 40.92 36.692V20.769ZM22.461 24.447C22.8307 24.415 23.201 24.5008 23.519 24.692C23.7562 24.8821 23.9373 25.133 24.043 25.418C24.394 26.182 24.643 27.567 25.243 29.072C25.7945 30.5185 26.5886 31.8603 27.591 33.04C28.2966 33.8247 28.6645 34.8559 28.615 35.91C28.6834 36.5985 28.556 37.2924 28.2472 37.9116C27.9385 38.5309 27.4611 39.0503 26.87 39.41C25.5239 40.1556 23.9985 40.5164 22.461 40.453C20.9235 40.5164 19.3982 40.1556 18.052 39.41C17.4609 39.0503 16.9835 38.5309 16.6748 37.9116C16.366 37.2924 16.2386 36.5985 16.307 35.91C16.2576 34.8559 16.6255 33.8248 17.331 33.04C18.3325 31.8608 19.1259 30.5196 19.677 29.074C20.283 27.574 20.528 26.185 20.877 25.42C20.9826 25.135 21.1638 24.884 21.401 24.694C21.7193 24.5017 22.0904 24.4152 22.461 24.447V24.447Z" fill="#1CBBDA"/>
</svg>
