<svg width="56" height="57" viewBox="0 0 56 57" fill="none" xmlns="http://www.w3.org/2000/svg">
<path d="M50.23 12.391H39.596V10.621C39.5941 8.93187 38.9223 7.31246 37.7279 6.11807C36.5335 4.92368 34.9141 4.25185 33.225 4.25H23.275C21.5859 4.25185 19.9665 4.92368 18.7721 6.11807C17.5777 7.31246 16.9059 8.93187 16.904 10.621V12.391H6.27C5.20433 12.3921 4.18259 12.8158 3.42895 13.5692C2.67532 14.3227 2.25132 15.3443 2.25 16.41L2.25 48.16C2.25106 49.2258 2.67493 50.2477 3.4286 51.0014C4.18227 51.7551 5.20415 52.1789 6.27 52.18H50.23C51.2958 52.1789 52.3177 51.7551 53.0714 51.0014C53.8251 50.2477 54.2489 49.2258 54.25 48.16V16.41C54.2487 15.3443 53.8247 14.3227 53.071 13.5692C52.3174 12.8158 51.2957 12.3921 50.23 12.391V12.391ZM18.43 10.621C18.4313 9.33643 18.9422 8.10486 19.8505 7.19653C20.7589 6.2882 21.9904 5.77732 23.275 5.776H33.225C34.5096 5.77732 35.7411 6.2882 36.6495 7.19653C37.5578 8.10486 38.0687 9.33643 38.07 10.621V12.391H36.34V10.621C36.3392 9.79509 36.0108 9.00324 35.4268 8.41924C34.8428 7.83524 34.0509 7.50679 33.225 7.506H23.275C22.4491 7.50679 21.6572 7.83524 21.0732 8.41924C20.4892 9.00324 20.1608 9.79509 20.16 10.621V12.391H18.43V10.621ZM34.814 12.391H21.686V10.621C21.6865 10.2 21.854 9.79639 22.1517 9.4987C22.4494 9.20101 22.853 9.03353 23.274 9.033H33.224C33.645 9.03353 34.0486 9.20101 34.3463 9.4987C34.644 9.79639 34.8115 10.2 34.812 10.621L34.814 12.391ZM50.23 50.65H6.27C5.60973 50.6484 4.97689 50.3857 4.50963 49.9192C4.04237 49.4527 3.77864 48.8203 3.776 48.16V37.47C4.48457 38.0338 5.36348 38.3405 6.269 38.34H10.391V41.65C10.391 42.2843 10.643 42.8926 11.0915 43.341C11.5399 43.7895 12.1482 44.0415 12.7825 44.0415C13.4168 44.0415 14.0251 43.7895 14.4735 43.341C14.922 42.8926 15.174 42.2843 15.174 41.65V33.506C15.174 32.8717 14.922 32.2634 14.4735 31.815C14.0251 31.3665 13.4168 31.1145 12.7825 31.1145C12.1482 31.1145 11.5399 31.3665 11.0915 31.815C10.643 32.2634 10.391 32.8717 10.391 33.506V36.813H6.27C5.60921 36.8114 4.97592 36.5483 4.50858 36.0811C4.04123 35.614 3.77785 34.9808 3.776 34.32V16.41C3.77785 15.7492 4.04123 15.116 4.50858 14.6489C4.97592 14.1817 5.60921 13.9186 6.27 13.917H50.23C50.8906 13.9188 51.5236 14.1821 51.9908 14.6492C52.4579 15.1164 52.7212 15.7494 52.723 16.41V34.32C52.7212 34.9806 52.4579 35.6136 51.9908 36.0808C51.5236 36.5479 50.8906 36.8112 50.23 36.813H47.788C47.5856 36.813 47.3916 36.8934 47.2485 37.0365C47.1054 37.1796 47.025 37.3736 47.025 37.576C47.025 37.7784 47.1054 37.9724 47.2485 38.1155C47.3916 38.2586 47.5856 38.339 47.788 38.339H50.23C51.1355 38.3395 52.0144 38.0328 52.723 37.469V48.16C52.7204 48.8201 52.4568 49.4524 51.9897 49.9188C51.5227 50.3853 50.8901 50.6482 50.23 50.65ZM11.917 39.806C12.4733 40.0227 13.0907 40.0227 13.647 39.806V41.65C13.647 41.8794 13.5559 42.0994 13.3936 42.2616C13.2314 42.4239 13.0114 42.515 12.782 42.515C12.5526 42.515 12.3326 42.4239 12.1704 42.2616C12.0081 42.0994 11.917 41.8794 11.917 41.65V39.806ZM13.647 37.577C13.647 37.8064 13.5559 38.0264 13.3936 38.1886C13.2314 38.3509 13.0114 38.442 12.782 38.442C12.5526 38.442 12.3326 38.3509 12.1704 38.1886C12.0081 38.0264 11.917 37.8064 11.917 37.577V33.507C11.917 33.2776 12.0081 33.0576 12.1704 32.8954C12.3326 32.7331 12.5526 32.642 12.782 32.642C13.0114 32.642 13.2314 32.7331 13.3936 32.8954C13.5559 33.0576 13.647 33.2776 13.647 33.507V37.577Z" fill="#1CBBDA"/>
<path d="M23.275 4H33.225C34.981 4.00106 36.6649 4.69884 37.907 5.94017C39.1491 7.18151 39.8479 8.86496 39.85 10.621V12.141H50.23C51.3621 12.1421 52.4476 12.5923 53.2482 13.3928C54.0487 14.1934 54.4989 15.2788 54.5 16.411V48.16C54.4989 49.2921 54.0487 50.3776 53.2482 51.1782C52.4476 51.9787 51.3621 52.4289 50.23 52.43H6.27C5.13785 52.4289 4.05237 51.9787 3.25182 51.1782C2.45127 50.3776 2.00106 49.2921 2 48.16V16.41C2.00106 15.2779 2.45127 14.1924 3.25182 13.3918C4.05237 12.5913 5.13785 12.1411 6.27 12.14H16.65V10.62C16.6524 8.86413 17.3513 7.18094 18.5934 5.93982C19.8354 4.6987 21.5191 4.00106 23.275 4ZM50.23 51.93C51.2295 51.9289 52.1878 51.5314 52.8946 50.8246C53.6014 50.1178 53.9989 49.1595 54 48.16V16.41C53.9989 15.4105 53.6014 14.4522 52.8946 13.7454C52.1878 13.0386 51.2295 12.6411 50.23 12.64H39.35V10.62C39.3481 8.99718 38.7027 7.44135 37.5552 6.29385C36.4076 5.14634 34.8518 4.50085 33.229 4.499H23.279C21.6546 4.49873 20.0966 5.14342 18.9473 6.29137C17.7981 7.43933 17.1516 8.99662 17.15 10.621V12.641H6.27C5.27063 12.6421 4.31248 13.0395 3.60573 13.746C2.89898 14.4526 2.50132 15.4106 2.5 16.41V48.16C2.50106 49.1595 2.89859 50.1178 3.60538 50.8246C4.31216 51.5314 5.27046 51.9289 6.27 51.93H50.23ZM23.274 5.53H33.224C34.5749 5.53132 35.87 6.06854 36.8252 7.02375C37.7805 7.97896 38.3177 9.27413 38.319 10.625V12.645H36.09V10.625C36.0892 9.8654 35.7871 9.13714 35.25 8.60002C34.7129 8.0629 33.9846 7.76079 33.225 7.76H23.275C22.5154 7.76079 21.7871 8.0629 21.25 8.60002C20.7129 9.13714 20.4108 9.8654 20.41 10.625V12.645H18.18V10.625C18.1803 9.27343 18.717 7.97724 19.6723 7.02117C20.6277 6.06509 21.9234 5.52732 23.275 5.526L23.274 5.53ZM37.82 12.141V10.621C37.8187 9.40274 37.3341 8.23475 36.4727 7.37331C35.6113 6.51186 34.4433 6.02732 33.225 6.026H23.275C22.0567 6.02732 20.8887 6.51186 20.0273 7.37331C19.1659 8.23475 18.6813 9.40274 18.68 10.621V12.141H19.91V10.621C19.9111 9.72887 20.2659 8.87358 20.8968 8.24275C21.5276 7.61192 22.3829 7.25706 23.275 7.256H33.225C34.1171 7.25706 34.9724 7.61192 35.6032 8.24275C36.2341 8.87358 36.5889 9.72887 36.59 10.621V12.141H37.82ZM23.275 8.783H33.225C33.7122 8.78379 34.1793 8.97769 34.5238 9.32221C34.8683 9.66673 35.0622 10.1338 35.063 10.621V12.641H21.436V10.621C21.4365 10.1335 21.6305 9.66618 21.9753 9.32157C22.3201 8.97696 22.7875 8.78327 23.275 8.783ZM34.564 12.141V10.621C34.5635 10.2663 34.4223 9.92629 34.1715 9.67548C33.9207 9.42467 33.5807 9.28353 33.226 9.283H23.276C22.9213 9.28353 22.5813 9.42467 22.3305 9.67548C22.0797 9.92629 21.9385 10.2663 21.938 10.621V12.141H34.564ZM6.27 13.667H50.23C50.9572 13.6678 51.6545 13.957 52.1687 14.4713C52.683 14.9855 52.9722 15.6828 52.973 16.41V34.32C52.9722 35.0472 52.683 35.7445 52.1687 36.2587C51.6545 36.773 50.9572 37.0622 50.23 37.063H47.788C47.6519 37.063 47.5215 37.117 47.4253 37.2133C47.329 37.3095 47.275 37.4399 47.275 37.576C47.275 37.7121 47.329 37.8425 47.4253 37.9387C47.5215 38.035 47.6519 38.089 47.788 38.089H50.23C51.0796 38.0915 51.9045 37.8036 52.568 37.273L52.973 36.951V48.16C52.9722 48.8872 52.683 49.5845 52.1687 50.0987C51.6545 50.613 50.9572 50.9022 50.23 50.903H6.27C5.54258 50.9025 4.84509 50.6133 4.33064 50.0991C3.81618 49.5848 3.52679 48.8874 3.526 48.16V36.95L3.931 37.272C4.59451 37.8026 5.41943 38.0905 6.269 38.088H10.641V41.65C10.641 42.218 10.8666 42.7627 11.2682 43.1643C11.6698 43.5659 12.2145 43.7915 12.7825 43.7915C13.3505 43.7915 13.8952 43.5659 14.2968 43.1643C14.6984 42.7627 14.924 42.218 14.924 41.65V33.506C14.924 32.938 14.6984 32.3933 14.2968 31.9917C13.8952 31.5901 13.3505 31.3645 12.7825 31.3645C12.2145 31.3645 11.6698 31.5901 11.2682 31.9917C10.8666 32.3933 10.641 32.938 10.641 33.506V37.063H6.27C5.54258 37.0625 4.84509 36.7733 4.33064 36.2591C3.81618 35.7448 3.52679 35.0474 3.526 34.32V16.41C3.52679 15.6826 3.81618 14.9852 4.33064 14.4709C4.84509 13.9567 5.54258 13.6675 6.27 13.667V13.667ZM50.231 36.567C50.8256 36.5662 51.3957 36.3296 51.8162 35.9092C52.2366 35.4887 52.4732 34.9186 52.474 34.324V16.41C52.4732 15.8154 52.2366 15.2453 51.8162 14.8248C51.3957 14.4044 50.8256 14.1678 50.231 14.167H6.27C5.67519 14.1675 5.10488 14.404 4.68419 14.8245C4.2635 15.245 4.02679 15.8152 4.026 16.41V34.32C4.02653 34.915 4.26312 35.4854 4.68384 35.9062C5.10455 36.3269 5.67502 36.5635 6.27 36.564H10.141V33.506C10.141 32.8054 10.4193 32.1336 10.9147 31.6382C11.4101 31.1428 12.0819 30.8645 12.7825 30.8645C13.4831 30.8645 14.1549 31.1428 14.6503 31.6382C15.1457 32.1336 15.424 32.8054 15.424 33.506V41.65C15.424 42.3506 15.1457 43.0224 14.6503 43.5178C14.1549 44.0132 13.4831 44.2915 12.7825 44.2915C12.0819 44.2915 11.4101 44.0132 10.9147 43.5178C10.4193 43.0224 10.141 42.3506 10.141 41.65V38.59H6.27C5.47666 38.5922 4.69882 38.3704 4.026 37.95V48.16C4.02679 48.7548 4.2635 49.325 4.68419 49.7455C5.10488 50.166 5.67519 50.4025 6.27 50.403H50.23C50.8246 50.4022 51.3947 50.1656 51.8152 49.7452C52.2356 49.3247 52.4722 48.7546 52.473 48.16V37.95C51.8003 38.3695 51.0228 38.5906 50.23 38.588H47.788C47.5193 38.588 47.2617 38.4813 47.0717 38.2913C46.8817 38.1013 46.775 37.8437 46.775 37.575C46.775 37.3063 46.8817 37.0487 47.0717 36.8587C47.2617 36.6687 47.5193 36.562 47.788 36.562L50.231 36.567ZM12.782 32.391C13.0776 32.3913 13.3611 32.5088 13.5701 32.7179C13.7792 32.9269 13.8967 33.2104 13.897 33.506V37.576C13.897 37.8717 13.7795 38.1553 13.5704 38.3644C13.3613 38.5735 13.0777 38.691 12.782 38.691C12.4863 38.691 12.2027 38.5735 11.9936 38.3644C11.7845 38.1553 11.667 37.8717 11.667 37.576V33.506C11.6673 33.2104 11.7848 32.9269 11.9939 32.7179C12.2029 32.5088 12.4864 32.3913 12.782 32.391V32.391ZM12.782 38.191C12.945 38.1907 13.1013 38.1259 13.2166 38.0106C13.3319 37.8953 13.3967 37.739 13.397 37.576V33.506C13.397 33.3429 13.3322 33.1865 13.2169 33.0711C13.1015 32.9558 12.9451 32.891 12.782 32.891C12.6189 32.891 12.4625 32.9558 12.3471 33.0711C12.2318 33.1865 12.167 33.3429 12.167 33.506V37.576C12.167 37.7392 12.2318 37.8957 12.3471 38.0112C12.4624 38.1267 12.6188 38.1917 12.782 38.192V38.191ZM11.667 39.44L12.008 39.573C12.5061 39.7671 13.0589 39.7671 13.557 39.573L13.898 39.44V41.65C13.898 41.9457 13.7805 42.2293 13.5714 42.4384C13.3623 42.6475 13.0787 42.765 12.783 42.765C12.4873 42.765 12.2037 42.6475 11.9946 42.4384C11.7855 42.2293 11.668 41.9457 11.668 41.65L11.667 39.44ZM12.782 42.262C12.945 42.2617 13.1013 42.1969 13.2166 42.0816C13.3319 41.9663 13.3967 41.81 13.397 41.647V40.15C12.9927 40.2466 12.5713 40.2466 12.167 40.15V41.65C12.1681 41.8125 12.2333 41.968 12.3485 42.0826C12.4637 42.1973 12.6195 42.2617 12.782 42.262V42.262Z" fill="#1CBBDA"/>
<path d="M42.9041 31.1152C42.2702 31.116 41.6625 31.3682 41.2142 31.8164C40.766 32.2646 40.5138 32.8723 40.513 33.5062V36.8152H17.6671C17.4647 36.8152 17.2706 36.8956 17.1275 37.0387C16.9844 37.1818 16.9041 37.3759 16.9041 37.5782C16.9041 37.7806 16.9844 37.9747 17.1275 38.1178C17.2706 38.2609 17.4647 38.3412 17.6671 38.3412H40.5121V41.6482C40.5121 42.2825 40.764 42.8908 41.2125 43.3393C41.661 43.7878 42.2693 44.0397 42.9035 44.0397C43.5378 44.0397 44.1461 43.7878 44.5946 43.3393C45.0431 42.8908 45.2951 42.2825 45.2951 41.6482V33.5072C45.2945 32.8732 45.0425 32.2652 44.5942 31.8168C44.146 31.3683 43.5381 31.116 42.9041 31.1152V31.1152ZM42.039 33.5062C42.039 33.2768 42.1302 33.0568 42.2924 32.8946C42.4546 32.7324 42.6746 32.6412 42.9041 32.6412C43.1335 32.6412 43.3535 32.7324 43.5157 32.8946C43.6779 33.0568 43.7691 33.2768 43.7691 33.5062V37.5762C43.7691 37.8056 43.6779 38.0257 43.5157 38.1879C43.3535 38.3501 43.1335 38.4412 42.9041 38.4412C42.6746 38.4412 42.4546 38.3501 42.2924 38.1879C42.1302 38.0257 42.039 37.8056 42.039 37.5762V33.5062ZM42.9041 42.5152C42.6747 42.515 42.4549 42.4238 42.2927 42.2616C42.1305 42.0994 42.0393 41.8796 42.039 41.6502V39.8082C42.5954 40.0249 43.2128 40.0249 43.7691 39.8082V41.6502C43.7688 41.8796 43.6776 42.0994 43.5154 42.2616C43.3532 42.4238 43.1334 42.515 42.9041 42.5152V42.5152Z" fill="#1CBBDA"/>
<path d="M42.9039 30.8652C43.6041 30.866 44.2754 31.1445 44.7705 31.6396C45.2656 32.1348 45.5441 32.806 45.5449 33.5062V41.6472C45.5449 42.3478 45.2666 43.0197 44.7713 43.515C44.2759 44.0104 43.604 44.2887 42.9034 44.2887C42.2029 44.2887 41.531 44.0104 41.0356 43.515C40.5402 43.0197 40.2619 42.3478 40.2619 41.6472V38.5902H17.6619C17.3933 38.5902 17.1356 38.4835 16.9456 38.2935C16.7557 38.1036 16.6489 37.8459 16.6489 37.5772C16.6489 37.3086 16.7557 37.0509 16.9456 36.8609C17.1356 36.671 17.3933 36.5642 17.6619 36.5642H40.2619V33.5072C40.2625 32.8067 40.541 32.135 41.0363 31.6396C41.5317 31.1443 42.2034 30.8658 42.9039 30.8652V30.8652ZM42.9039 43.7892C43.4715 43.7885 44.0156 43.5626 44.417 43.1613C44.8183 42.7599 45.0441 42.2158 45.0449 41.6482V33.5072C45.0449 32.9393 44.8193 32.3946 44.4177 31.993C44.0161 31.5913 43.4714 31.3657 42.9034 31.3657C42.3355 31.3657 41.7908 31.5913 41.3892 31.993C40.9876 32.3946 40.7619 32.9393 40.7619 33.5072V37.0642H17.6619C17.5259 37.0642 17.3954 37.1183 17.2992 37.2145C17.203 37.3107 17.1489 37.4412 17.1489 37.5772C17.1489 37.7133 17.203 37.8438 17.2992 37.94C17.3954 38.0362 17.5259 38.0902 17.6619 38.0902H40.7619V41.6472C40.7625 42.2152 40.9883 42.7597 41.3899 43.1613C41.7915 43.5629 42.336 43.7887 42.9039 43.7892ZM42.9039 32.3892C43.1996 32.3895 43.483 32.507 43.6921 32.7161C43.9011 32.9251 44.0187 33.2086 44.0189 33.5042V37.5742C44.0189 37.87 43.9015 38.1536 43.6924 38.3627C43.4832 38.5718 43.1996 38.6892 42.9039 38.6892C42.6082 38.6892 42.3246 38.5718 42.1155 38.3627C41.9064 38.1536 41.7889 37.87 41.7889 37.5742V33.5042C41.7897 33.209 41.9075 32.926 42.1165 32.7174C42.3255 32.5088 42.6086 32.3915 42.9039 32.3912V32.3892ZM42.9039 38.1892C43.067 38.189 43.2232 38.1241 43.3385 38.0088C43.4538 37.8935 43.5187 37.7373 43.5189 37.5742V33.5042C43.5189 33.3411 43.4541 33.1847 43.3388 33.0694C43.2235 32.954 43.067 32.8892 42.9039 32.8892C42.7408 32.8892 42.5844 32.954 42.4691 33.0694C42.3537 33.1847 42.2889 33.3411 42.2889 33.5042V37.5742C42.2887 37.6552 42.3044 37.7355 42.3351 37.8104C42.3659 37.8853 42.4112 37.9533 42.4683 38.0107C42.5254 38.0681 42.5933 38.1137 42.668 38.1449C42.7428 38.176 42.823 38.1921 42.9039 38.1922V38.1892ZM41.7889 39.4372L42.1299 39.5702C42.628 39.7643 43.1808 39.7643 43.6789 39.5702L44.0199 39.4372V41.6442C44.0199 41.9399 43.9025 42.2235 43.6934 42.4326C43.4843 42.6418 43.2007 42.7592 42.9049 42.7592C42.6092 42.7592 42.3256 42.6418 42.1165 42.4326C41.9074 42.2235 41.7899 41.9399 41.7899 41.6442L41.7889 39.4372ZM42.9039 42.2622C43.067 42.262 43.2232 42.1971 43.3385 42.0818C43.4538 41.9665 43.5187 41.8103 43.5189 41.6472V40.1472C43.1146 40.2439 42.6932 40.2439 42.2889 40.1472V41.6472C42.2892 41.8103 42.3541 41.9665 42.4693 42.0818C42.5846 42.1971 42.7409 42.262 42.9039 42.2622V42.2622Z" fill="#1CBBDA"/>
<path d="M23.3651 35.0831H33.134C33.3364 35.0831 33.5305 35.0027 33.6736 34.8596C33.8167 34.7166 33.897 34.5225 33.897 34.3201C33.897 34.1178 33.8167 33.9237 33.6736 33.7806C33.5305 33.6375 33.3364 33.5571 33.134 33.5571H23.3651C23.1627 33.5571 22.9686 33.6375 22.8255 33.7806C22.6824 33.9237 22.6021 34.1178 22.6021 34.3201C22.6021 34.5225 22.6824 34.7166 22.8255 34.8596C22.9686 35.0027 23.1627 35.0831 23.3651 35.0831V35.0831Z" fill="#1CBBDA"/>
<path d="M33.134 35.3331H23.3651C23.0964 35.3331 22.8387 35.2264 22.6488 35.0364C22.4588 34.8465 22.3521 34.5888 22.3521 34.3201C22.3521 34.0515 22.4588 33.7938 22.6488 33.6038C22.8387 33.4138 23.0964 33.3071 23.3651 33.3071H33.134C33.4027 33.3071 33.6604 33.4138 33.8504 33.6038C34.0403 33.7938 34.147 34.0515 34.147 34.3201C34.147 34.5888 34.0403 34.8465 33.8504 35.0364C33.6604 35.2264 33.4027 35.3331 33.134 35.3331ZM23.3651 33.8071C23.229 33.8071 23.0985 33.8612 23.0023 33.9574C22.9061 34.0536 22.8521 34.1841 22.8521 34.3201C22.8521 34.4562 22.9061 34.5867 23.0023 34.6829C23.0985 34.7791 23.229 34.8331 23.3651 34.8331H33.134C33.2701 34.8331 33.4006 34.7791 33.4968 34.6829C33.593 34.5867 33.647 34.4562 33.647 34.3201C33.647 34.1841 33.593 34.0536 33.4968 33.9574C33.4006 33.8612 33.2701 33.8071 33.134 33.8071H23.3651Z" fill="#1CBBDA"/>
</svg>
