<svg width="56" height="56" viewBox="0 0 56 56" fill="none" xmlns="http://www.w3.org/2000/svg">
<g clip-path="url(#clip0_150_28)">
<path d="M52.544 2.001H32.866C32.0092 2.00206 31.1877 2.34291 30.5818 2.9488C29.9759 3.55469 29.6351 4.37615 29.634 5.233V18.043C29.6372 18.8173 29.9166 19.5651 30.4221 20.1517C30.9275 20.7384 31.6257 21.1253 32.391 21.243L32.818 21.306V25.706C32.8178 25.8634 32.8636 26.0174 32.9497 26.1491C33.0358 26.2809 33.1585 26.3846 33.3027 26.4476C33.4469 26.5105 33.6064 26.53 33.7615 26.5036C33.9167 26.4773 34.0607 26.4061 34.176 26.299L39.592 21.277H52.768C53.6249 21.2759 54.4463 20.9351 55.0522 20.3292C55.6581 19.7233 55.999 18.9019 56 18.045V5.233C55.999 4.37588 55.658 3.55417 55.0519 2.94809C54.4459 2.34202 53.6241 2.00106 52.767 2H52.544V2.001ZM32.866 3.617H52.766C53.1939 3.61832 53.6039 3.7891 53.9062 4.09196C54.2085 4.39482 54.3785 4.80509 54.379 5.233V18.043C54.3785 18.4714 54.2081 18.8822 53.9051 19.1851C53.6022 19.488 53.1915 19.6585 52.763 19.659H39.273C39.0693 19.6582 38.873 19.7351 38.724 19.874L34.433 23.853V20.467C34.4328 20.2528 34.3476 20.0474 34.1961 19.896C34.0446 19.7445 33.8392 19.6593 33.625 19.659H32.866C32.4376 19.6585 32.0269 19.488 31.7239 19.1851C31.421 18.8822 31.2506 18.4714 31.25 18.043V5.233C31.2506 4.80457 31.421 4.39384 31.7239 4.0909C32.0269 3.78796 32.4376 3.61753 32.866 3.617V3.617Z" fill="#1CBBDA"/>
<path d="M51.16 9.13316C51.2753 9.13316 51.3858 9.08738 51.4673 9.0059C51.5487 8.92441 51.5945 8.8139 51.5945 8.69866C51.5945 8.58342 51.5487 8.47291 51.4673 8.39142C51.3858 8.30994 51.2753 8.26416 51.16 8.26416H34.694C34.5788 8.26416 34.4683 8.30994 34.3868 8.39142C34.3053 8.47291 34.2595 8.58342 34.2595 8.69866C34.2595 8.8139 34.3053 8.92441 34.3868 9.0059C34.4683 9.08738 34.5788 9.13316 34.694 9.13316H51.16Z" fill="#1CBBDA"/>
<path d="M42.9269 14.6688C43.0385 14.6635 43.1438 14.6153 43.2209 14.5344C43.298 14.4535 43.341 14.3461 43.341 14.2343C43.341 14.1226 43.298 14.0151 43.2209 13.9342C43.1438 13.8533 43.0385 13.8052 42.9269 13.7998H34.5789C34.5201 13.797 34.4613 13.8061 34.4061 13.8267C34.351 13.8473 34.3005 13.8788 34.2579 13.9194C34.2153 13.9601 34.1814 14.0089 34.1582 14.063C34.135 14.1172 34.123 14.1754 34.123 14.2343C34.123 14.2932 34.135 14.3515 34.1582 14.4056C34.1814 14.4597 34.2153 14.5086 34.2579 14.5492C34.3005 14.5898 34.351 14.6214 34.4061 14.6419C34.4613 14.6625 34.5201 14.6716 34.5789 14.6688H42.9269Z" fill="#1CBBDA"/>
<path d="M38.858 38.839H38.358V35.469C38.3567 34.2022 37.8529 32.9877 36.9571 32.0919C36.0613 31.1961 34.8468 30.6923 33.58 30.691H31.123V29.549C31.1217 28.5066 30.707 27.5072 29.9699 26.7701C29.2328 26.033 28.2334 25.6183 27.191 25.617H23.648V21.617C23.6406 21.4075 23.5522 21.209 23.4014 21.0634C23.2506 20.9178 23.0491 20.8364 22.8395 20.8364C22.6299 20.8364 22.4284 20.9178 22.2776 21.0634C22.1268 21.209 22.0384 21.4075 22.031 21.617V25.617H18.631C17.5886 25.6183 16.5892 26.033 15.8521 26.7701C15.115 27.5072 14.7003 28.5066 14.699 29.549V30.691H12.099C10.8322 30.6923 9.61767 31.1961 8.72191 32.0919C7.82615 32.9877 7.32232 34.2022 7.321 35.469V38.839H3.77C3.0356 38.8398 2.3315 39.1319 1.81219 39.6512C1.29289 40.1705 1.00079 40.8746 1 41.609V45.368C1.00106 46.1022 1.29327 46.8061 1.81255 47.3252C2.33182 47.8442 3.03577 48.1362 3.77 48.137H7.321V51.507C7.32232 52.7738 7.82615 53.9883 8.72191 54.8841C9.61767 55.7798 10.8322 56.2837 12.099 56.285H33.579C34.8458 56.2837 36.0603 55.7798 36.9561 54.8841C37.8519 53.9883 38.3557 52.7738 38.357 51.507V48.133H41.908C42.6417 48.1325 43.3453 47.8412 43.8647 47.3229C44.3841 46.8047 44.6769 46.1017 44.679 45.368V41.609C44.6782 40.8745 44.3861 40.1703 43.8669 39.6508C43.3476 39.1314 42.6435 38.839 41.909 38.838H38.859L38.858 38.839ZM27.191 27.233C27.805 27.2338 28.3936 27.478 28.8278 27.9122C29.2619 28.3464 29.5062 28.935 29.507 29.549V30.691H16.319V29.549C16.3198 28.935 16.5641 28.3464 16.9982 27.9122C17.4324 27.478 18.021 27.2338 18.635 27.233H27.191ZM12.099 32.308H33.579C34.4174 32.3088 35.2212 32.6422 35.814 33.235C36.4068 33.8278 36.7402 34.6316 36.741 35.47V46.533H8.941V35.469C8.94206 34.6315 9.27502 33.8285 9.86694 33.236C10.4589 32.6436 11.2615 32.3098 12.099 32.308V32.308ZM38.358 40.456H41.909C42.2146 40.4565 42.5076 40.5782 42.7237 40.7943C42.9398 41.0104 43.0615 41.3034 43.062 41.609V45.368C43.0617 45.6737 42.9402 45.9668 42.724 46.183C42.5078 46.3992 42.2147 46.5207 41.909 46.521H38.358V40.456V40.456ZM3.769 40.456H7.32V46.524H3.769C3.46328 46.5237 3.17017 46.4022 2.954 46.186C2.73783 45.9698 2.61626 45.6767 2.616 45.371V41.612C2.61573 41.3058 2.73703 41.0121 2.95323 40.7953C3.16943 40.5786 3.46285 40.4565 3.769 40.456V40.456ZM17.62 47.404H28.063L27.893 48.034C27.6572 48.901 27.1431 49.6665 26.4298 50.2129C25.7165 50.7593 24.8435 51.0562 23.945 51.058H21.738C20.8395 51.0562 19.9665 50.7593 19.2532 50.2129C18.5399 49.6665 18.0258 48.901 17.79 48.034L17.62 47.404V47.404ZM8.94 47.404H16.788L16.86 47.818C17.0572 48.9687 17.6552 50.0125 18.5482 50.7646C19.4412 51.5166 20.5715 51.9284 21.739 51.927H23.946C25.1134 51.9282 26.2436 51.5164 27.1366 50.7643C28.0295 50.0123 28.6276 48.9686 28.825 47.818L28.897 47.404H36.744V51.504C36.7429 52.3423 36.4095 53.1459 35.8167 53.7387C35.2239 54.3315 34.4203 54.6649 33.582 54.666H12.098C11.2596 54.6652 10.4558 54.3318 9.86301 53.739C9.27019 53.1462 8.9368 52.3424 8.936 51.504V47.404H8.94Z" fill="#1CBBDA"/>
<path d="M16.6461 36.9258C16.1077 36.9258 15.5814 37.0854 15.1338 37.3845C14.6862 37.6836 14.3373 38.1087 14.1313 38.6061C13.9253 39.1035 13.8713 39.6508 13.9764 40.1788C14.0814 40.7068 14.3406 41.1919 14.7213 41.5725C15.102 41.9532 15.587 42.2125 16.115 42.3175C16.6431 42.4225 17.1904 42.3686 17.6877 42.1626C18.1851 41.9566 18.6102 41.6077 18.9093 41.16C19.2084 40.7124 19.3681 40.1861 19.3681 39.6478C19.3681 38.9259 19.0813 38.2335 18.5708 37.723C18.0603 37.2126 17.368 36.9258 16.6461 36.9258ZM16.6461 41.5008C16.2796 41.5008 15.9213 41.3921 15.6166 41.1885C15.3119 40.9849 15.0744 40.6955 14.9341 40.3569C14.7939 40.0183 14.7572 39.6457 14.8287 39.2863C14.9002 38.9268 15.0767 38.5967 15.3358 38.3375C15.595 38.0784 15.9251 37.9019 16.2846 37.8304C16.644 37.7589 17.0166 37.7956 17.3552 37.9358C17.6938 38.0761 17.9832 38.3136 18.1868 38.6183C18.3904 38.923 18.4991 39.2813 18.4991 39.6478C18.4991 40.1392 18.3038 40.6105 17.9563 40.958C17.6088 41.3056 17.1375 41.5008 16.6461 41.5008V41.5008Z" fill="#1CBBDA"/>
<path d="M16.646 36.7759C17.2621 36.776 17.8619 36.9743 18.3567 37.3414C18.8515 37.7085 19.2151 38.225 19.3939 38.8146C19.5727 39.4042 19.5571 40.0357 19.3494 40.6157C19.1418 41.1958 18.7531 41.6938 18.2408 42.036C17.7285 42.3783 17.1197 42.5467 16.5043 42.5164C15.889 42.4861 15.2996 42.2588 14.8234 41.8679C14.3471 41.477 14.0092 40.9434 13.8595 40.3457C13.7098 39.7481 13.7563 39.1181 13.992 38.5489C14.2103 38.0246 14.5787 37.5766 15.051 37.2611C15.5232 36.9456 16.0781 36.7768 16.646 36.7759V36.7759ZM16.646 42.2199C17.3282 42.2199 17.9824 41.9489 18.4647 41.4666C18.947 40.9842 19.218 40.33 19.218 39.6479C19.218 38.9657 18.947 38.3115 18.4647 37.8292C17.9824 37.3469 17.3282 37.0759 16.646 37.0759V37.0759C15.9639 37.0759 15.3097 37.3469 14.8273 37.8292C14.345 38.3115 14.074 38.9657 14.074 39.6479C14.074 40.33 14.345 40.9842 14.8273 41.4666C15.3097 41.9489 15.9639 42.2199 16.646 42.2199V42.2199ZM16.646 37.6449C17.1773 37.6449 17.6867 37.8559 18.0624 38.2315C18.438 38.6072 18.649 39.1166 18.649 39.6479C18.649 40.1791 18.438 40.6886 18.0624 41.0642C17.6867 41.4398 17.1773 41.6509 16.646 41.6509C16.1148 41.6509 15.6053 41.4398 15.2297 41.0642C14.8541 40.6886 14.643 40.1791 14.643 39.6479C14.643 39.1166 14.8541 38.6072 15.2297 38.2315C15.6053 37.8559 16.1148 37.6449 16.646 37.6449ZM16.646 41.3509C16.9823 41.3509 17.3109 41.2512 17.5905 41.0644C17.8701 40.8776 18.088 40.6121 18.2166 40.3014C18.3453 39.9908 18.379 39.649 18.3134 39.3192C18.2478 38.9895 18.0859 38.6865 17.8481 38.4488C17.6104 38.211 17.3074 38.0491 16.9777 37.9835C16.6479 37.9179 16.3061 37.9516 15.9955 38.0803C15.6848 38.209 15.4193 38.4268 15.2325 38.7064C15.0457 38.986 14.946 39.3147 14.946 39.6509C14.9481 40.1011 15.1279 40.5323 15.4463 40.8506C15.7646 41.169 16.1958 41.3488 16.646 41.3509V41.3509Z" fill="#1CBBDA"/>
<path d="M29.0111 36.9258C28.4727 36.9258 27.9464 37.0854 27.4988 37.3845C27.0512 37.6836 26.7023 38.1087 26.4963 38.6061C26.2902 39.1035 26.2363 39.6508 26.3414 40.1788C26.4464 40.7068 26.7056 41.1919 27.0863 41.5725C27.467 41.9532 27.952 42.2125 28.48 42.3175C29.008 42.4225 29.5553 42.3686 30.0527 42.1626C30.5501 41.9566 30.9752 41.6077 31.2743 41.16C31.5734 40.7124 31.7331 40.1861 31.7331 39.6478C31.7331 38.9259 31.4463 38.2335 30.9358 37.723C30.4253 37.2126 29.733 36.9258 29.0111 36.9258V36.9258ZM29.0111 41.5008C28.6446 41.5008 28.2863 41.3921 27.9816 41.1885C27.6769 40.9849 27.4394 40.6955 27.2991 40.3569C27.1589 40.0183 27.1222 39.6457 27.1937 39.2863C27.2652 38.9268 27.4416 38.5967 27.7008 38.3375C27.9599 38.0784 28.2901 37.9019 28.6496 37.8304C29.009 37.7589 29.3816 37.7956 29.7202 37.9358C30.0588 38.0761 30.3482 38.3136 30.5518 38.6183C30.7554 38.923 30.8641 39.2813 30.8641 39.6478C30.8641 40.1392 30.6688 40.6105 30.3213 40.958C29.9738 41.3056 29.5025 41.5008 29.0111 41.5008V41.5008Z" fill="#1CBBDA"/>
<path d="M29.011 36.7759C29.6271 36.776 30.2269 36.9743 30.7217 37.3414C31.2165 37.7085 31.5801 38.225 31.7589 38.8146C31.9376 39.4042 31.9221 40.0357 31.7144 40.6157C31.5068 41.1958 31.1181 41.6938 30.6058 42.036C30.0935 42.3783 29.4847 42.5467 28.8693 42.5164C28.254 42.4861 27.6646 42.2588 27.1884 41.8679C26.7121 41.477 26.3742 40.9434 26.2245 40.3457C26.0748 39.7481 26.1213 39.1181 26.357 38.5489C26.5753 38.0246 26.9437 37.5766 27.4159 37.2611C27.8882 36.9456 28.4431 36.7768 29.011 36.7759V36.7759ZM29.011 42.2199C29.6932 42.2199 30.3474 41.9489 30.8297 41.4666C31.312 40.9842 31.583 40.33 31.583 39.6479C31.583 38.9657 31.312 38.3115 30.8297 37.8292C30.3474 37.3469 29.6932 37.0759 29.011 37.0759C28.3289 37.0759 27.6747 37.3469 27.1923 37.8292C26.71 38.3115 26.439 38.9657 26.439 39.6479C26.439 40.33 26.71 40.9842 27.1923 41.4666C27.6747 41.9489 28.3289 42.2199 29.011 42.2199V42.2199ZM29.011 37.6449C29.5422 37.6449 30.0517 37.8559 30.4274 38.2315C30.803 38.6072 31.014 39.1166 31.014 39.6479C31.014 40.1791 30.803 40.6886 30.4274 41.0642C30.0517 41.4398 29.5422 41.6509 29.011 41.6509V41.6509C28.4798 41.6509 27.9703 41.4398 27.5947 41.0642C27.219 40.6886 27.008 40.1791 27.008 39.6479C27.008 39.1166 27.219 38.6072 27.5947 38.2315C27.9703 37.8559 28.4798 37.6449 29.011 37.6449V37.6449ZM29.011 41.3509C29.3472 41.3509 29.6759 41.2512 29.9555 41.0644C30.235 40.8776 30.4529 40.6121 30.5816 40.3014C30.7103 39.9908 30.7439 39.649 30.6784 39.3192C30.6128 38.9895 30.4508 38.6865 30.2131 38.4488C29.9753 38.211 29.6724 38.0491 29.3427 37.9835C29.0129 37.9179 28.6711 37.9516 28.3605 38.0803C28.0498 38.209 27.7843 38.4268 27.5975 38.7064C27.4107 38.986 27.311 39.3147 27.311 39.6509C27.3131 40.1011 27.4929 40.5323 27.8113 40.8506C28.1296 41.169 28.5608 41.3488 29.011 41.3509V41.3509Z" fill="#1CBBDA"/>
</g>
<defs>
<clipPath id="clip0_150_28">
<rect width="56" height="56" fill="white"/>
</clipPath>
</defs>
</svg>
