<svg width="56" height="56" viewBox="0 0 56 56" fill="none" xmlns="http://www.w3.org/2000/svg">
<g clip-path="url(#clip0_150_121)">
<path d="M11.0419 39.2389C10.8848 39.2391 10.7291 39.2083 10.5839 39.1482C10.4386 39.088 10.3067 38.9998 10.1957 38.8885L0.144525 28.8373C0.0333795 28.7262 -0.0547875 28.5943 -0.114941 28.4491C-0.175094 28.3039 -0.206055 28.1483 -0.206055 27.9911C-0.206055 27.8339 -0.175094 27.6783 -0.114941 27.5331C-0.0547875 27.3879 0.0333795 27.256 0.144525 27.1449L10.1957 17.0937C10.4202 16.8692 10.7245 16.7432 11.0419 16.7432C11.3593 16.7432 11.6637 16.8692 11.8882 17.0937C12.1126 17.3181 12.2387 17.6225 12.2387 17.9399C12.2387 18.2573 12.1126 18.5617 11.8882 18.7861L2.68317 27.9921L11.8882 37.197C12.0555 37.3644 12.1695 37.5776 12.2157 37.8098C12.2619 38.0419 12.2382 38.2825 12.1476 38.5012C12.0571 38.7199 11.9037 38.9068 11.7068 39.0382C11.51 39.1697 11.2786 39.2399 11.0419 39.2398V39.2389Z" fill="#1CBBDA"/>
<path d="M44.5459 39.2394C44.3092 39.2394 44.0778 39.1693 43.881 39.0378C43.6842 38.9063 43.5308 38.7194 43.4402 38.5007C43.3496 38.2821 43.3259 38.0414 43.3721 37.8093C43.4183 37.5772 43.5323 37.3639 43.6997 37.1966L52.9047 27.9926L43.6997 18.7876C43.4753 18.5631 43.3492 18.2588 43.3492 17.9414C43.3492 17.624 43.4753 17.3196 43.6997 17.0951C43.9241 16.8707 44.2285 16.7446 44.5459 16.7446C44.8633 16.7446 45.1677 16.8707 45.3921 17.0951L55.4433 27.1463C55.5545 27.2575 55.6426 27.3894 55.7028 27.5346C55.763 27.6798 55.7939 27.8354 55.7939 27.9926C55.7939 28.1497 55.763 28.3053 55.7028 28.4505C55.6426 28.5957 55.5545 28.7277 55.4433 28.8388L45.3921 38.89C45.281 39.0011 45.1491 39.0891 45.0039 39.1491C44.8587 39.2091 44.703 39.2397 44.5459 39.2394V39.2394Z" fill="#1CBBDA"/>
<path d="M21.0921 42.5913C20.9066 42.5913 20.7237 42.5481 20.5579 42.465C20.2741 42.323 20.0582 42.0742 19.9579 41.7731C19.8575 41.4721 19.8809 41.1435 20.0228 40.8596L33.4244 14.0564C33.5663 13.7726 33.8152 13.5568 34.1162 13.4564C34.4173 13.3561 34.7459 13.3794 35.0297 13.5213C35.3134 13.6634 35.529 13.9124 35.6292 14.2134C35.7293 14.5144 35.7058 14.8429 35.5639 15.1267L22.1623 41.9299C22.0629 42.1286 21.9101 42.2958 21.7211 42.4126C21.5321 42.5294 21.3143 42.5913 21.0921 42.5913V42.5913Z" fill="#1CBBDA"/>
</g>
<defs>
<clipPath id="clip0_150_121">
<rect width="56" height="56" fill="white"/>
</clipPath>
</defs>
</svg>
