<svg width="56" height="56" viewBox="0 0 56 56" fill="none" xmlns="http://www.w3.org/2000/svg">
<path d="M25.3381 22.7447H27.5291V11.3907C27.5291 11.3129 27.4982 11.2384 27.4433 11.1835C27.3884 11.1285 27.3138 11.0977 27.2361 11.0977H23.1191C23.0836 11.0976 23.0484 11.1047 23.0157 11.1186C22.9829 11.1324 22.9533 11.1526 22.9285 11.178C22.9037 11.2035 22.8843 11.2336 22.8713 11.2667C22.8584 11.2998 22.8522 11.3351 22.8531 11.3707V17.0797L25.3381 22.7447Z" fill="#1CBBDA"/>
<path d="M19.6072 43.5406C18.4388 43.5435 17.3194 44.0101 16.4948 44.8378C15.6701 45.6655 15.2078 46.7867 15.2092 47.9551C15.2107 49.1235 15.6759 50.2435 16.5025 51.0692C17.3292 51.8948 18.4498 52.3586 19.6182 52.3586C20.7866 52.3586 21.9072 51.8948 22.7339 51.0692C23.5606 50.2435 24.0258 49.1235 24.0272 47.9551C24.0287 46.7867 23.5663 45.6655 22.7417 44.8378C21.9171 44.0101 20.7976 43.5435 19.6292 43.5406H19.6072ZM45.0802 43.5406C43.9118 43.5441 42.7924 44.0111 41.968 44.8392C41.1436 45.6672 40.6815 46.7886 40.6832 47.9571C40.685 49.1256 41.1503 50.2456 41.9772 51.0712C42.804 51.8969 43.9248 52.3606 45.0932 52.3606C46.2617 52.3606 47.3824 51.8969 48.2093 51.0712C49.0361 50.2456 49.5015 49.1256 49.5032 47.9571C49.5049 46.7886 49.0429 45.6672 48.2185 44.8392C47.394 44.0111 46.2747 43.5441 45.1062 43.5406H45.0802ZM30.7622 22.7406H35.4432L35.5432 8.64061C35.5427 8.56325 35.5116 8.48924 35.4567 8.43472C35.4018 8.3802 35.3276 8.34961 35.2502 8.34961H31.0232C30.9876 8.34947 30.9523 8.35647 30.9195 8.37022C30.8866 8.38396 30.8569 8.40416 30.832 8.42962C30.8071 8.45508 30.7875 8.48528 30.7745 8.51843C30.7615 8.55159 30.7553 8.58701 30.7562 8.62261V22.7446L30.7622 22.7406Z" fill="#1CBBDA"/>
<path d="M11.6152 3.0005H4.34518C4.1703 2.99567 3.99622 3.02593 3.83324 3.08952C3.67026 3.1531 3.52168 3.24871 3.39628 3.37069C3.27087 3.49268 3.1712 3.63856 3.10313 3.79972C3.03507 3.96088 3 4.13405 3 4.309C3 4.48395 3.03507 4.65712 3.10313 4.81828C3.1712 4.97944 3.27087 5.12532 3.39628 5.24731C3.52168 5.36929 3.67026 5.4649 3.83324 5.52848C3.99622 5.59207 4.1703 5.62233 4.34518 5.6175H10.7562L20.8752 27.6785L17.5332 34.4485C17.2809 34.9584 17.1647 35.5249 17.1959 36.0929C17.2271 36.661 17.4046 37.2113 17.7112 37.6905V37.6985C18.0101 38.18 18.4272 38.577 18.923 38.8516C19.4187 39.1263 19.9765 39.2694 20.5432 39.2675H50.2372C50.5779 39.2581 50.9016 39.1161 51.1393 38.8717C51.377 38.6274 51.51 38.2999 51.51 37.959C51.51 37.6181 51.377 37.2906 51.1393 37.0463C50.9016 36.8019 50.5779 36.6599 50.2372 36.6505H19.3692L23.1172 28.9165L41.5372 29.0295C42.1321 29.0269 42.7156 28.8656 43.2273 28.5622C43.739 28.2588 44.1605 27.8243 44.4482 27.3035L53.3712 11.3525C53.4548 11.2024 53.508 11.0373 53.5277 10.8666C53.5475 10.696 53.5335 10.5231 53.4865 10.3579C53.4394 10.1926 53.3603 10.0382 53.2536 9.90358C53.1469 9.76892 53.0148 9.65659 52.8647 9.573C52.7146 9.48941 52.5495 9.43621 52.3788 9.41643C52.2082 9.39665 52.0353 9.41067 51.87 9.4577C51.7048 9.50474 51.5504 9.58386 51.4158 9.69054C51.2811 9.79723 51.1688 9.9294 51.0852 10.0795L41.9752 26.3035H23.1322L12.8032 3.7705C12.6994 3.54206 12.5324 3.34813 12.3218 3.21167C12.1113 3.07521 11.8661 3.00193 11.6152 3.0005V3.0005V3.0005ZM38.9942 22.7445H39.9692L43.5872 16.1655V3.3485C43.5872 3.31294 43.5802 3.27773 43.5664 3.24493C43.5527 3.21213 43.5326 3.18241 43.5072 3.1575C43.4577 3.10925 43.3913 3.08232 43.3222 3.0825H39.2322C39.2004 3.08262 39.1689 3.0891 39.1396 3.10154C39.1103 3.11398 39.0838 3.13215 39.0617 3.15497C39.0395 3.17779 39.0221 3.2048 39.0105 3.23443C38.9989 3.26405 38.9934 3.2957 38.9942 3.3275V22.7445Z" fill="#1CBBDA"/>
</svg>
