<svg width="56" height="56" viewBox="0 0 56 56" fill="none" xmlns="http://www.w3.org/2000/svg">
<g clip-path="url(#clip0_150_60)">
<path d="M23.8177 13.9743C26.0012 15.9532 28.8418 17.0508 31.7887 17.0543H35.6767V34.7843C35.6767 35.0316 35.775 35.2688 35.9499 35.4436C36.1247 35.6185 36.3619 35.7168 36.6092 35.7168C36.8565 35.7168 37.0937 35.6185 37.2686 35.4436C37.4435 35.2688 37.5417 35.0316 37.5417 34.7843V11.4843C37.5914 8.47067 36.4912 5.55135 34.4647 3.32025C32.2959 1.32778 29.4528 0.230845 26.5077 0.250253H21.6787C21.4313 0.250253 21.194 0.348551 21.019 0.523523C20.844 0.698494 20.7457 0.935806 20.7457 1.18325V5.80925C20.6928 8.82278 21.7915 11.743 23.8177 13.9743V13.9743ZM22.6177 5.84825V2.11925H26.5177C28.9623 2.11607 31.3221 3.01518 33.1447 4.64425C35.7947 7.29425 35.6807 11.3743 35.6787 11.4513V13.8613L26.0717 4.25525C25.8967 4.08021 25.6593 3.98187 25.4117 3.98187C25.1642 3.98187 24.9268 4.08021 24.7517 4.25525C24.5767 4.4303 24.4783 4.66771 24.4783 4.91525C24.4783 5.1628 24.5767 5.40021 24.7517 5.57525L34.3667 15.1893H31.7877C29.3338 15.1939 26.9647 14.2914 25.1357 12.6553C22.4897 10.0053 22.6107 5.92625 22.6127 5.84425L22.6177 5.84825Z" fill="#1CBBDA"/>
<path d="M26.5078 0.000236961C29.5193 -0.0187571 32.4259 1.10475 34.6418 3.14424C36.7176 5.42241 37.8444 8.40765 37.7918 11.4892V34.7842C37.7918 35.0979 37.6672 35.3986 37.4454 35.6204C37.2237 35.8421 36.9229 35.9667 36.6093 35.9667C36.2957 35.9667 35.9949 35.8421 35.7731 35.6204C35.5514 35.3986 35.4268 35.0979 35.4268 34.7842V17.3032H31.7888C28.7758 17.2988 25.8719 16.1751 23.6408 14.1502C21.5675 11.8707 20.4435 8.88512 20.4988 5.80424V1.18524C20.4993 0.872166 20.6237 0.572025 20.8448 0.350369C21.0659 0.128714 21.3657 0.0035575 21.6788 0.00223696L26.5078 0.000236961ZM36.6078 35.4682C36.7888 35.468 36.9624 35.3959 37.0904 35.2679C37.2185 35.1399 37.2905 34.9663 37.2908 34.7852V11.4752C37.3441 8.53136 36.2709 5.67828 34.2908 3.49924C32.1698 1.55197 29.39 0.480103 26.5108 0.499237H21.6818C21.5919 0.499368 21.5029 0.517223 21.4199 0.551781C21.3369 0.586339 21.2615 0.636922 21.1981 0.700636C21.1346 0.76435 21.0844 0.839946 21.0502 0.923098C21.016 1.00625 20.9985 1.09533 20.9988 1.18524V5.81924C20.9449 8.76382 22.018 11.6177 23.9988 13.7972C26.135 15.7304 28.9127 16.8019 31.7938 16.8042H35.9318V34.7842C35.9315 34.9645 36.0025 35.1376 36.1293 35.2657C36.2562 35.3939 36.4285 35.4667 36.6088 35.4682H36.6078ZM26.5078 1.86824C29.0221 1.86428 31.4491 2.79035 33.3218 4.46824C35.9988 7.13824 35.9338 11.2442 35.9288 11.4512V14.4612L25.8988 4.42924C25.7707 4.30114 25.5969 4.22917 25.4158 4.22917C25.2346 4.22917 25.0609 4.30114 24.9328 4.42924C24.8047 4.55734 24.7327 4.73108 24.7327 4.91224C24.7327 5.0934 24.8047 5.26714 24.9328 5.39524L34.9738 15.4352H31.7918C29.2717 15.439 26.8393 14.5104 24.9628 12.8282C23.7841 11.5895 22.9807 10.042 22.6458 8.36524C22.4571 7.53722 22.3632 6.69046 22.3658 5.84124V1.86924L26.5078 1.86824ZM35.4288 13.2542V11.4442C35.4288 11.2772 35.5008 7.35324 32.9678 4.82024C31.1899 3.23533 28.8895 2.36253 26.5078 2.36924H22.8618V5.85424C22.8618 6.02224 22.7878 9.95424 25.3128 12.4772C27.0941 14.0675 29.3999 14.9439 31.7878 14.9382H33.7638L24.5758 5.74424C24.4652 5.63455 24.3773 5.5041 24.3173 5.36038C24.2572 5.21665 24.2261 5.06248 24.2258 4.90671C24.2255 4.75094 24.2559 4.59664 24.3153 4.45267C24.3748 4.30869 24.4621 4.17788 24.5723 4.06773C24.6824 3.95758 24.8132 3.87027 24.9572 3.81081C25.1012 3.75135 25.2555 3.72091 25.4112 3.72124C25.567 3.72157 25.7212 3.75265 25.8649 3.81271C26.0086 3.87278 26.1391 3.96063 26.2488 4.07124L35.4288 13.2542Z" fill="#1CBBDA"/>
<path d="M39.4108 23.5792C39.4098 23.7065 39.4346 23.8327 39.4838 23.9502C39.4908 23.9652 39.5038 23.9752 39.5098 23.9892C39.5522 24.0848 39.6107 24.1724 39.6828 24.2482C39.7537 24.3141 39.8348 24.3681 39.9229 24.4082C39.9439 24.4192 39.9598 24.4382 39.9828 24.4482C40.0968 24.4963 40.2191 24.5214 40.3428 24.5222H44.9678H45.1678C48.1134 24.5199 50.9532 23.4241 53.1368 21.4472C55.1564 19.2274 56.2552 16.3219 56.2098 13.3212V8.65419C56.2098 8.40674 56.1115 8.16943 55.9366 7.99446C55.7616 7.81949 55.5243 7.72119 55.2768 7.72119H50.6498H50.4498C47.5042 7.72428 44.6646 8.82038 42.4808 10.7972C40.4623 13.0174 39.3646 15.9229 39.4108 18.9232V23.5812V23.5792ZM43.7998 12.1142C45.6289 10.4809 47.9966 9.58032 50.4488 9.58519H54.3398V13.3552C54.3398 13.3962 54.4628 17.4762 51.8128 20.1252C49.9839 21.7586 47.616 22.6589 45.1638 22.6532H42.5948L52.2018 13.0462C52.3769 12.8712 52.4752 12.6337 52.4752 12.3862C52.4752 12.1386 52.3769 11.9012 52.2018 11.7262C52.0268 11.5512 51.7894 11.4528 51.5418 11.4528C51.2943 11.4528 51.0569 11.5512 50.8818 11.7262L41.2748 21.3332V18.8802C41.2455 16.3893 42.1458 13.9769 43.7998 12.1142V12.1142Z" fill="#1CBBDA"/>
<path d="M45.1648 24.7722H44.9648H40.3428C40.1861 24.7716 40.0312 24.74 39.8868 24.6792H39.8778C39.8488 24.6655 39.8216 24.6484 39.7968 24.6282C39.6896 24.5777 39.5914 24.5101 39.5058 24.4282C39.4184 24.3373 39.3468 24.2326 39.2938 24.1182C39.2782 24.0982 39.2652 24.0763 39.2548 24.0532C39.1915 23.9036 39.1595 23.7426 39.1608 23.5802V18.9272C39.1474 17.928 39.2562 16.931 39.4848 15.9582C39.9024 13.9484 40.8796 12.0976 42.3038 10.6192C44.5349 8.59677 47.4374 7.4746 50.4488 7.47021H50.6488H55.2718C55.5854 7.47074 55.886 7.59555 56.1077 7.81729C56.3294 8.03903 56.4542 8.33962 56.4548 8.65321V13.3142C56.4683 14.3138 56.3592 15.3112 56.1298 16.2842C55.7124 18.2955 54.7348 20.1478 53.3098 21.6272C51.0782 23.6485 48.1756 24.7692 45.1648 24.7722V24.7722ZM44.9648 24.2722H45.1648C48.0432 24.2707 50.8188 23.2018 52.9548 21.2722C54.9198 19.0991 55.9914 16.2638 55.9548 13.3342V8.65421C55.9545 8.47315 55.8825 8.29958 55.7544 8.17155C55.6264 8.04352 55.4528 7.97148 55.2718 7.97121H50.6448H50.4448C47.5674 7.97357 44.793 9.04243 42.6578 10.9712C40.6941 13.1452 39.6228 15.9799 39.6578 18.9092V23.6002C39.6594 23.6792 39.6746 23.7574 39.7028 23.8312C39.7148 23.8475 39.7251 23.8649 39.7338 23.8832C39.7599 23.9515 39.8001 24.0135 39.8518 24.0652C39.9035 24.1169 39.9655 24.1571 40.0338 24.1832C40.056 24.1946 40.077 24.208 40.0968 24.2232C40.1705 24.2521 40.2487 24.268 40.3278 24.2702H44.9668L44.9648 24.2722ZM45.1648 22.9082H41.9928L52.0268 12.8742C52.0902 12.8108 52.1405 12.7355 52.1748 12.6526C52.2092 12.5697 52.2268 12.4809 52.2268 12.3912C52.2268 12.3015 52.2092 12.2127 52.1748 12.1298C52.1405 12.0469 52.0902 11.9716 52.0268 11.9082C51.9633 11.8448 51.888 11.7945 51.8052 11.7601C51.7223 11.7258 51.6335 11.7082 51.5438 11.7082C51.4541 11.7082 51.3652 11.7258 51.2824 11.7601C51.1995 11.7945 51.1242 11.8448 51.0608 11.9082L41.0268 21.9372V18.8842C40.9378 17.6181 41.1195 16.3475 41.5599 15.1571C42.0002 13.9666 42.689 12.8836 43.5805 11.9801C44.472 11.0767 45.5457 10.3734 46.7301 9.91718C47.9145 9.46095 49.1825 9.26222 50.4498 9.33421H54.5908V13.3502C54.5958 13.5602 54.6578 17.6332 51.9908 20.3002C50.1149 21.9812 47.6837 22.9094 45.1648 22.9062V22.9082ZM43.1998 22.4082H45.1648C47.5508 22.4147 49.8553 21.5405 51.6368 19.9532C53.239 18.1356 54.1129 15.7901 54.0908 13.3672V9.83722H50.4498C48.0637 9.83129 45.7592 10.7058 43.9778 12.2932C42.3766 14.1088 41.5036 16.4525 41.5268 18.8732V20.7272L50.7068 11.5472C50.9296 11.3254 51.2313 11.2011 51.5457 11.2018C51.8601 11.2024 52.1614 11.3279 52.3833 11.5507C52.6051 11.7735 52.7294 12.0753 52.7287 12.3897C52.7281 12.7041 52.6025 13.0054 52.3798 13.2272L43.1998 22.4082Z" fill="#1CBBDA"/>
<path d="M53.4407 37.7101C52.5069 37.4523 51.5089 37.5753 50.6657 38.0521L39.9247 43.2801C38.2547 44.1151 36.5697 44.1151 32.8757 44.1151C29.7991 44.0056 26.7328 43.6983 23.6957 43.1951C23.5748 43.175 23.4511 43.1789 23.3318 43.2066C23.2124 43.2343 23.0996 43.2853 23 43.3565C22.9003 43.4278 22.8156 43.518 22.7508 43.622C22.686 43.726 22.6423 43.8417 22.6222 43.9626C22.6021 44.0835 22.606 44.2071 22.6337 44.3265C22.6614 44.4459 22.7123 44.5586 22.7836 44.6583C22.8548 44.758 22.9451 44.8427 23.049 44.9075C23.153 44.9723 23.2688 45.016 23.3897 45.0361C26.5272 45.5611 29.6962 45.8772 32.8757 45.9821C36.7507 45.9821 38.6957 45.9821 40.7497 44.9541L51.5417 39.6991C51.7538 39.5765 51.9881 39.4968 52.2311 39.4648C52.4741 39.4327 52.721 39.4489 52.9577 39.5123C53.1945 39.5757 53.4164 39.6852 53.6108 39.8344C53.8052 39.9837 53.9682 40.1698 54.0907 40.3821C54.2135 40.5969 54.2926 40.8338 54.3235 41.0793C54.3544 41.3248 54.3364 41.5739 54.2706 41.8124C54.2048 42.0509 54.0925 42.2741 53.9401 42.469C53.7877 42.6639 53.5982 42.8267 53.3827 42.9481L40.7637 50.8021C40.7377 50.8201 38.0447 52.5161 31.9427 52.5161C26.6517 52.5161 18.4777 48.0161 18.3607 47.9471C16.4516 47.1779 14.3999 46.8263 12.3437 46.9161C12.0961 46.9161 11.8586 47.0145 11.6836 47.1896C11.5085 47.3646 11.4102 47.602 11.4102 47.8496C11.4102 48.0972 11.5085 48.3346 11.6836 48.5097C11.8586 48.6848 12.0961 48.7831 12.3437 48.7831C14.0965 48.7118 15.8461 48.9895 17.4907 49.6001V49.6001C17.8437 49.8001 26.1677 54.3841 31.9427 54.3841C38.6817 54.3841 41.6697 52.4431 41.7687 52.3761L54.3427 44.5501C54.9823 44.1812 55.4981 43.6309 55.8248 42.9687C56.1515 42.3066 56.2745 41.5624 56.1782 40.8303C56.0818 40.0982 55.7705 39.4112 55.2835 38.8562C54.7966 38.3011 54.1559 37.903 53.4427 37.7121L53.4407 37.7101Z" fill="#1CBBDA"/>
<path d="M52.4568 37.3301C52.8111 37.3303 53.1637 37.3771 53.5058 37.4691C54.2666 37.6727 54.9499 38.0972 55.4694 38.689C55.9888 39.2808 56.3212 40.0134 56.4244 40.7941C56.5275 41.5748 56.3969 42.3686 56.049 43.075C55.7011 43.7815 55.1516 44.369 54.4698 44.7631L41.9028 52.5851C41.7308 52.6991 38.7098 54.6321 31.9418 54.6321C26.1858 54.6321 17.9558 50.1411 17.3878 49.8321C15.7745 49.2445 14.0626 48.9752 12.3468 49.0391C12.0329 49.0391 11.7319 48.9144 11.51 48.6925C11.288 48.4705 11.1633 48.1695 11.1633 47.8556C11.1633 47.5418 11.288 47.2407 11.51 47.0188C11.7319 46.7968 12.0329 46.6721 12.3468 46.6721C14.4417 46.5795 16.532 46.9401 18.4748 47.7291H18.4838C18.8258 47.9161 26.8168 52.2671 31.9458 52.2671C37.9458 52.2671 40.6038 50.6111 40.6298 50.5941L53.2558 42.7361C53.6322 42.5227 53.9085 42.1686 54.0241 41.7517C54.1398 41.3348 54.0854 40.889 53.8728 40.5121C53.7669 40.3283 53.6257 40.1671 53.4574 40.0378C53.2891 39.9086 53.097 39.8137 52.892 39.7587C52.6871 39.7038 52.4733 39.6897 52.2629 39.7174C52.0525 39.7451 51.8496 39.814 51.6658 39.9201L51.6498 39.9281L40.8578 45.1831C38.7578 46.2361 36.7888 46.2361 32.8738 46.2361C29.6803 46.1313 26.4972 45.8139 23.3458 45.2861C23.0529 45.2375 22.789 45.0804 22.6065 44.8462C22.4241 44.612 22.3363 44.3177 22.3607 44.0218C22.3852 43.7259 22.52 43.45 22.7384 43.2489C22.9568 43.0477 23.2429 42.9361 23.5398 42.9361C23.6052 42.9362 23.6704 42.9415 23.7348 42.9521H23.7558C26.7718 43.4566 29.8177 43.762 32.8738 43.8661C36.5268 43.8661 38.1948 43.8661 39.8108 43.0571L50.5468 37.8311C51.1285 37.4995 51.7872 37.3268 52.4568 37.3301V37.3301ZM31.9428 54.1301C34.4203 54.1721 36.8902 53.8458 39.2718 53.1621C40.0978 52.9322 40.8904 52.596 41.6298 52.1621H41.6368L54.2178 44.3321C54.8146 43.9879 55.2959 43.4744 55.6007 42.8566C55.9055 42.2388 56.0203 41.5444 55.9303 40.8614C55.8404 40.1783 55.5499 39.5373 55.0955 39.0195C54.6411 38.5016 54.0434 38.1301 53.3778 37.9521C53.0778 37.8714 52.7685 37.8303 52.4578 37.8301C51.874 37.827 51.2996 37.9781 50.7928 38.2681L50.7768 38.2771L40.0358 43.5051C38.3158 44.3651 36.6118 44.3651 32.8768 44.3651C29.7933 44.2611 26.7199 43.9538 23.6768 43.4451H23.6568C23.6185 43.4386 23.5797 43.4353 23.5408 43.4351C23.3692 43.435 23.2039 43.4995 23.0777 43.6157C22.9514 43.7319 22.8736 43.8914 22.8596 44.0625C22.8456 44.2335 22.8965 44.4035 23.0022 44.5387C23.1078 44.6739 23.2605 44.7644 23.4298 44.7921C26.5538 45.3156 29.7091 45.6306 32.8748 45.7351C36.7108 45.7351 38.6358 45.7351 40.6368 44.7351L51.4228 39.4821C51.9082 39.2054 52.483 39.131 53.0228 39.2751C53.2919 39.3462 53.5441 39.4701 53.7649 39.6395C53.9857 39.809 54.1706 40.0206 54.3088 40.2621C54.5852 40.7532 54.6562 41.3337 54.5063 41.877C54.3565 42.4202 53.9979 42.8822 53.5088 43.1621L40.8928 51.0141C40.7238 51.1191 37.9658 52.7651 31.9398 52.7651C28.9023 52.5658 25.9287 51.801 23.1718 50.5101C20.5308 49.4101 18.4718 48.2951 18.2418 48.1681C16.3675 47.4233 14.357 47.0825 12.3418 47.1681C12.1606 47.1681 11.9867 47.2402 11.8585 47.3683C11.7303 47.4965 11.6583 47.6704 11.6583 47.8516C11.6583 48.0329 11.7303 48.2068 11.8585 48.3349C11.9867 48.4631 12.1606 48.5351 12.3418 48.5351C14.0027 48.4941 15.6589 48.7306 17.2418 49.2351V49.1761L17.6128 49.3811C17.9608 49.5731 26.2328 54.1321 31.9428 54.1321V54.1301Z" fill="#1CBBDA"/>
<path d="M4.87666 50.1822C4.87666 49.9053 4.79455 49.6347 4.64072 49.4044C4.48688 49.1742 4.26823 48.9947 4.01242 48.8888C3.7566 48.7828 3.47511 48.7551 3.20354 48.8091C2.93196 48.8632 2.68251 48.9965 2.48671 49.1923C2.29092 49.3881 2.15758 49.6375 2.10356 49.9091C2.04954 50.1807 2.07727 50.4622 2.18323 50.718C2.28919 50.9738 2.46863 51.1924 2.69886 51.3463C2.92909 51.5001 3.19977 51.5822 3.47666 51.5822C3.84796 51.5822 4.20406 51.4347 4.46661 51.1722C4.72916 50.9096 4.87666 50.5535 4.87666 50.1822Z" fill="#1CBBDA"/>
<path d="M3.47666 48.5322C3.803 48.5322 4.12201 48.629 4.39335 48.8103C4.66469 48.9916 4.87618 49.2493 5.00106 49.5508C5.12595 49.8523 5.15862 50.1841 5.09496 50.5042C5.03129 50.8242 4.87414 51.1182 4.64339 51.349C4.41263 51.5797 4.11863 51.7369 3.79856 51.8005C3.47849 51.8642 3.14673 51.8315 2.84523 51.7066C2.54374 51.5817 2.28604 51.3703 2.10474 51.0989C1.92343 50.8276 1.82666 50.5086 1.82666 50.1823C1.82719 49.7448 2.0012 49.3254 2.31052 49.0161C2.61984 48.7068 3.03922 48.5328 3.47666 48.5322V48.5322ZM3.47666 51.3322C3.70411 51.3322 3.92645 51.2648 4.11557 51.1384C4.30468 51.0121 4.45208 50.8324 4.53912 50.6223C4.62616 50.4122 4.64894 50.181 4.60456 49.9579C4.56019 49.7348 4.45066 49.5299 4.28983 49.369C4.129 49.2082 3.92409 49.0987 3.70102 49.0543C3.47794 49.0099 3.24671 49.0327 3.03658 49.1198C2.82644 49.2068 2.64684 49.3542 2.52047 49.5433C2.39411 49.7325 2.32666 49.9548 2.32666 50.1823C2.32692 50.4872 2.44817 50.7795 2.66378 50.9951C2.87939 51.2107 3.17174 51.332 3.47666 51.3322Z" fill="#1CBBDA"/>
<path d="M6.74273 30.1162H1.14273C0.895149 30.1162 0.65771 30.2146 0.482644 30.3896C0.307579 30.5647 0.209229 30.8021 0.209229 31.0497C0.209229 31.2973 0.307579 31.5347 0.482644 31.7098C0.65771 31.8849 0.895149 31.9832 1.14273 31.9832H6.74273C6.99009 31.9835 7.22725 32.0819 7.40217 32.2568C7.57708 32.4317 7.67546 32.6688 7.67573 32.9162V53.4492C7.67546 53.6966 7.57708 53.9337 7.40217 54.1086C7.22725 54.2836 6.99009 54.3819 6.74273 54.3822H1.14273C0.895149 54.3822 0.65771 54.4806 0.482644 54.6556C0.307579 54.8307 0.209229 55.0681 0.209229 55.3157C0.209229 55.5633 0.307579 55.8007 0.482644 55.9758C0.65771 56.1509 0.895149 56.2492 1.14273 56.2492H6.74273C7.48533 56.2492 8.19753 55.9542 8.72263 55.4291C9.24773 54.904 9.54273 54.1918 9.54273 53.4492V32.9162C9.54273 32.1736 9.24773 31.4614 8.72263 30.9363C8.19753 30.4112 7.48533 30.1162 6.74273 30.1162Z" fill="#1CBBDA"/>
<path d="M1.14273 29.8662H6.74273C7.5514 29.867 8.32671 30.1886 8.89853 30.7604C9.47034 31.3322 9.79193 32.1075 9.79273 32.9162V53.4492C9.79193 54.2579 9.47034 55.0332 8.89853 55.605C8.32671 56.1768 7.5514 56.4984 6.74273 56.4992H1.14273C0.828845 56.4992 0.527817 56.3745 0.305868 56.1526C0.0839183 55.9306 -0.0407715 55.6296 -0.0407715 55.3157C-0.0407715 55.0018 0.0839183 54.7008 0.305868 54.4789C0.527817 54.2569 0.828845 54.1322 1.14273 54.1322H6.74273C6.92379 54.1319 7.09736 54.0599 7.22539 53.9319C7.35342 53.8039 7.42546 53.6303 7.42573 53.4492V32.9162C7.42546 32.7351 7.35342 32.5616 7.22539 32.4336C7.09736 32.3055 6.92379 32.2335 6.74273 32.2332H1.14273C0.828845 32.2332 0.527817 32.1085 0.305868 31.8866C0.0839183 31.6646 -0.0407715 31.3636 -0.0407715 31.0497C-0.0407715 30.7358 0.0839183 30.4348 0.305868 30.2129C0.527817 29.9909 0.828845 29.8662 1.14273 29.8662V29.8662ZM6.74273 55.9982C7.41879 55.9974 8.06693 55.7285 8.54497 55.2505C9.02302 54.7724 9.29193 54.1243 9.29273 53.4482V32.9162C9.29193 32.2401 9.02302 31.592 8.54497 31.114C8.06693 30.6359 7.41879 30.367 6.74273 30.3662H1.14273C0.961453 30.3662 0.787602 30.4382 0.659421 30.5664C0.53124 30.6946 0.459229 30.8684 0.459229 31.0497C0.459229 31.231 0.53124 31.4048 0.659421 31.533C0.787602 31.6612 0.961453 31.7332 1.14273 31.7332H6.74273C7.05632 31.7337 7.35691 31.8586 7.57865 32.0803C7.80039 32.302 7.9252 32.6026 7.92573 32.9162V53.4492C7.9252 53.7628 7.80039 54.0634 7.57865 54.2851C7.35691 54.5069 7.05632 54.6317 6.74273 54.6322H1.14273C0.961453 54.6322 0.787602 54.7042 0.659421 54.8324C0.53124 54.9606 0.459229 55.1344 0.459229 55.3157C0.459229 55.497 0.53124 55.6708 0.659421 55.799C0.787602 55.9272 0.961453 55.9992 1.14273 55.9992L6.74273 55.9982Z" fill="#1CBBDA"/>
<path d="M12.3427 35.7161H19.8097C20.8987 35.7161 22.7497 37.1051 24.3827 38.3291C26.4307 39.8651 28.3647 41.3161 30.0757 41.3161H35.6757C36.4447 41.2753 37.2032 41.5092 37.8157 41.9761C37.9023 42.0628 38.0052 42.1316 38.1185 42.1785C38.2317 42.2254 38.3531 42.2495 38.4757 42.2495C38.5982 42.2495 38.7196 42.2254 38.8329 42.1785C38.9461 42.1316 39.049 42.0628 39.1357 41.9761C39.2223 41.8895 39.2911 41.7866 39.338 41.6733C39.3849 41.5601 39.409 41.4387 39.409 41.3161C39.409 41.1936 39.3849 41.0722 39.338 40.9589C39.2911 40.8457 39.2223 40.7428 39.1357 40.6561C38.1788 39.8266 36.9408 39.3947 35.6757 39.4491H30.0757C28.9867 39.4491 27.1357 38.0601 25.5027 36.8361C23.4547 35.3001 21.5207 33.8491 19.8097 33.8491H12.3437C12.0961 33.8491 11.8586 33.9475 11.6836 34.1225C11.5085 34.2976 11.4102 34.535 11.4102 34.7826C11.4102 35.0302 11.5085 35.2677 11.6836 35.4427C11.8586 35.6178 12.0961 35.7161 12.3437 35.7161H12.3427Z" fill="#1CBBDA"/>
<path d="M12.3427 33.5991H19.8097C21.6097 33.5991 23.5717 35.0741 25.6527 36.6361L25.6607 36.6421C27.1807 37.7811 29.0717 39.1991 30.0757 39.1991H35.6757C37.007 39.1459 38.3082 39.6039 39.3127 40.4791C39.5353 40.7003 39.661 41.0009 39.662 41.3147C39.6631 41.6286 39.5394 41.93 39.3182 42.1526C39.097 42.3753 38.7964 42.501 38.4826 42.502C38.1687 42.503 37.8673 42.3793 37.6447 42.1581C37.0767 41.7387 36.3808 41.5295 35.6757 41.5661H30.0757C28.2757 41.5661 26.3137 40.0911 24.2327 38.5291L24.2247 38.5231C22.7047 37.3841 20.8137 35.9661 19.8097 35.9661H12.3427C12.0288 35.9661 11.7278 35.8414 11.5058 35.6195C11.2839 35.3975 11.1592 35.0965 11.1592 34.7826C11.1592 34.4687 11.2839 34.1677 11.5058 33.9458C11.7278 33.7238 12.0288 33.5991 12.3427 33.5991ZM38.4757 41.9991C38.6108 41.9991 38.7429 41.9591 38.8552 41.8841C38.9675 41.809 39.0551 41.7023 39.1068 41.5775C39.1585 41.4527 39.172 41.3154 39.1457 41.1829C39.1193 41.0504 39.0542 40.9286 38.9587 40.8331C38.0493 40.0498 36.8747 39.6441 35.6757 39.6991H30.0757C28.9047 39.6991 27.1027 38.3481 25.3607 37.0421L25.3527 37.0361C23.3397 35.5261 21.4387 34.0991 19.8097 34.0991H12.3437C12.1624 34.0991 11.9886 34.1711 11.8604 34.2993C11.7322 34.4275 11.6602 34.6013 11.6602 34.7826C11.6602 34.9639 11.7322 35.1377 11.8604 35.2659C11.9886 35.3941 12.1624 35.4661 12.3437 35.4661H19.8097C20.9807 35.4661 22.7827 36.8171 24.5247 38.1231L24.5327 38.1291C26.5457 39.6391 28.4467 41.0661 30.0757 41.0661H35.6757C36.5063 41.0257 37.3241 41.2824 37.9827 41.7901L37.9927 41.7991C38.056 41.8627 38.1313 41.9132 38.2142 41.9475C38.2971 41.9818 38.386 41.9993 38.4757 41.9991Z" fill="#1CBBDA"/>
</g>
<defs>
<clipPath id="clip0_150_60">
<rect width="56" height="56" fill="white"/>
</clipPath>
</defs>
</svg>
