<svg width="56" height="56" viewBox="0 0 56 56" fill="none" xmlns="http://www.w3.org/2000/svg">
<g clip-path="url(#clip0_150_39)">
<path d="M8.909 4C7.14709 4.00059 5.42493 4.5236 3.96024 5.5029C2.49556 6.48219 1.35414 7.87379 0.680296 9.50175C0.00645536 11.1297 -0.169545 12.9209 0.17455 14.6489C0.518644 16.3769 1.36738 17.964 2.61345 19.2097C3.85951 20.4553 5.44695 21.3035 7.17504 21.647C8.90314 21.9905 10.6943 21.8139 12.322 21.1396C13.9498 20.4652 15.341 19.3233 16.3198 17.8583C17.2986 16.3933 17.821 14.6709 17.821 12.909C17.8157 10.5473 16.875 8.28387 15.2047 6.61416C13.5345 4.94446 11.2707 4.00449 8.909 4V4ZM42 4V6.545H51.851L41.951 17.428L36.909 12.379L22.909 26.379L17.853 21.323L0.41 37.429L2.135 39.298L17.783 24.856L22.909 29.979L36.909 15.979L42.045 21.115L53.454 8.564V18H55.999V4H42ZM8.909 6.545C10.1677 6.545 11.3981 6.91824 12.4446 7.61753C13.4912 8.31681 14.3069 9.31073 14.7886 10.4736C15.2702 11.6365 15.3963 12.9161 15.1507 14.1506C14.9052 15.385 14.299 16.519 13.409 17.409C12.519 18.299 11.385 18.9052 10.1506 19.1507C8.91606 19.3963 7.63647 19.2702 6.4736 18.7886C5.31073 18.3069 4.31681 17.4912 3.61753 16.4446C2.91824 15.3981 2.545 14.1677 2.545 12.909C2.54262 12.0726 2.70561 11.244 3.02459 10.4708C3.34357 9.69761 3.81225 8.9951 4.40367 8.40367C4.9951 7.81225 5.69761 7.34357 6.47079 7.02459C7.24398 6.70561 8.0726 6.54262 8.909 6.545V6.545ZM8.26 9.451L5.96 11.751H7.76V16.362H10.067V9.451H8.26ZM45.821 20.545V51.091H48.366V20.545H45.821ZM53.457 23.09V51.09H56.002V23.09H53.457ZM30.545 26.909V51.091H33.091V26.909H30.545ZM38.181 26.909V51.091H40.726V26.909H38.181ZM15.273 33.272V51.091H17.821V33.272H15.273ZM22.909 34.545V51.091H25.454V34.545H22.909ZM7.636 39.636V51.091H10.181V39.636H7.636ZM0 44.727V51.091H2.545V44.727H0Z" fill="#1CBBDA"/>
</g>
<defs>
<clipPath id="clip0_150_39">
<rect width="56" height="56" fill="white"/>
</clipPath>
</defs>
</svg>
