<svg width="56" height="56" viewBox="0 0 56 56" fill="none" xmlns="http://www.w3.org/2000/svg">
<path d="M19.899 21.1299C20.0714 21.1299 20.2367 21.0614 20.3586 20.9395C20.4805 20.8176 20.549 20.6523 20.549 20.4799V18.2579C20.549 18.0855 20.4805 17.9202 20.3586 17.7983C20.2367 17.6764 20.0714 17.6079 19.899 17.6079C19.7266 17.6079 19.5613 17.6764 19.4394 17.7983C19.3175 17.9202 19.249 18.0855 19.249 18.2579V20.4799C19.2493 20.6522 19.3179 20.8174 19.4397 20.9392C19.5615 21.0611 19.7267 21.1296 19.899 21.1299V21.1299Z" fill="#1CBBDA"/>
<path d="M19.899 21.3799C19.6603 21.3799 19.4314 21.2851 19.2626 21.1163C19.0939 20.9475 18.999 20.7186 18.999 20.4799V18.2579C18.999 18.0192 19.0939 17.7903 19.2626 17.6215C19.4314 17.4527 19.6603 17.3579 19.899 17.3579C20.1377 17.3579 20.3666 17.4527 20.5354 17.6215C20.7042 17.7903 20.799 18.0192 20.799 18.2579V20.4799C20.799 20.7186 20.7042 20.9475 20.5354 21.1163C20.3666 21.2851 20.1377 21.3799 19.899 21.3799V21.3799ZM19.899 17.8579C19.7929 17.8579 19.6912 17.9001 19.6162 17.9751C19.5412 18.0501 19.499 18.1518 19.499 18.2579V20.4799C19.499 20.586 19.5412 20.6877 19.6162 20.7628C19.6912 20.8378 19.7929 20.8799 19.899 20.8799C20.0051 20.8799 20.1068 20.8378 20.1819 20.7628C20.2569 20.6877 20.299 20.586 20.299 20.4799V18.2579C20.299 18.2054 20.2887 18.1534 20.2686 18.1048C20.2485 18.0563 20.219 18.0122 20.1819 17.9751C20.1447 17.9379 20.1006 17.9085 20.0521 17.8884C20.0036 17.8683 19.9515 17.8579 19.899 17.8579Z" fill="#1CBBDA"/>
<path d="M23.806 21.1299C23.9784 21.1299 24.1437 21.0614 24.2656 20.9395C24.3875 20.8176 24.456 20.6523 24.456 20.4799V18.2579C24.456 18.0855 24.3875 17.9202 24.2656 17.7983C24.1437 17.6764 23.9784 17.6079 23.806 17.6079C23.6336 17.6079 23.4683 17.6764 23.3464 17.7983C23.2245 17.9202 23.156 18.0855 23.156 18.2579V20.4799C23.156 20.6523 23.2245 20.8176 23.3464 20.9395C23.4683 21.0614 23.6336 21.1299 23.806 21.1299V21.1299Z" fill="#1CBBDA"/>
<path d="M23.806 21.3799C23.5673 21.3799 23.3384 21.2851 23.1696 21.1163C23.0008 20.9475 22.906 20.7186 22.906 20.4799V18.2579C22.906 18.0192 23.0008 17.7903 23.1696 17.6215C23.3384 17.4527 23.5673 17.3579 23.806 17.3579C24.0447 17.3579 24.2736 17.4527 24.4424 17.6215C24.6112 17.7903 24.706 18.0192 24.706 18.2579V20.4799C24.706 20.7186 24.6112 20.9475 24.4424 21.1163C24.2736 21.2851 24.0447 21.3799 23.806 21.3799V21.3799ZM23.806 17.8579C23.6999 17.8579 23.5982 17.9001 23.5232 17.9751C23.4481 18.0501 23.406 18.1518 23.406 18.2579V20.4799C23.406 20.586 23.4481 20.6877 23.5232 20.7628C23.5982 20.8378 23.6999 20.8799 23.806 20.8799C23.9121 20.8799 24.0138 20.8378 24.0888 20.7628C24.1639 20.6877 24.206 20.586 24.206 20.4799V18.2579C24.206 18.1518 24.1639 18.0501 24.0888 17.9751C24.0138 17.9001 23.9121 17.8579 23.806 17.8579V17.8579Z" fill="#1CBBDA"/>
<path d="M27.7111 21.1299C27.8835 21.1299 28.0488 21.0614 28.1707 20.9395C28.2926 20.8176 28.3611 20.6523 28.3611 20.4799V18.2579C28.3611 18.0855 28.2926 17.9202 28.1707 17.7983C28.0488 17.6764 27.8835 17.6079 27.7111 17.6079C27.5387 17.6079 27.3733 17.6764 27.2514 17.7983C27.1295 17.9202 27.061 18.0855 27.061 18.2579V20.4799C27.061 20.6523 27.1295 20.8176 27.2514 20.9395C27.3733 21.0614 27.5387 21.1299 27.7111 21.1299V21.1299Z" fill="#1CBBDA"/>
<path d="M27.7111 21.3799C27.4724 21.3799 27.2434 21.2851 27.0746 21.1163C26.9059 20.9475 26.811 20.7186 26.811 20.4799V18.2579C26.811 18.0192 26.9059 17.7903 27.0746 17.6215C27.2434 17.4527 27.4724 17.3579 27.7111 17.3579C27.9498 17.3579 28.1787 17.4527 28.3474 17.6215C28.5162 17.7903 28.6111 18.0192 28.6111 18.2579V20.4799C28.6111 20.7186 28.5162 20.9475 28.3474 21.1163C28.1787 21.2851 27.9498 21.3799 27.7111 21.3799V21.3799ZM27.7111 17.8579C27.605 17.8579 27.5032 17.9001 27.4282 17.9751C27.3532 18.0501 27.311 18.1518 27.311 18.2579V20.4799C27.311 20.586 27.3532 20.6877 27.4282 20.7628C27.5032 20.8378 27.605 20.8799 27.7111 20.8799C27.8171 20.8799 27.9189 20.8378 27.9939 20.7628C28.0689 20.6877 28.1111 20.586 28.1111 20.4799V18.2579C28.1111 18.1518 28.0689 18.0501 27.9939 17.9751C27.9189 17.9001 27.8171 17.8579 27.7111 17.8579Z" fill="#1CBBDA"/>
<path d="M31.6171 21.1299C31.7895 21.1299 31.9548 21.0614 32.0767 20.9395C32.1986 20.8176 32.2671 20.6523 32.2671 20.4799V18.2579C32.2671 18.0855 32.1986 17.9202 32.0767 17.7983C31.9548 17.6764 31.7895 17.6079 31.6171 17.6079C31.4447 17.6079 31.2793 17.6764 31.1574 17.7983C31.0355 17.9202 30.967 18.0855 30.967 18.2579V20.4799C30.9673 20.6522 31.0359 20.8174 31.1577 20.9392C31.2796 21.0611 31.4448 21.1296 31.6171 21.1299V21.1299Z" fill="#1CBBDA"/>
<path d="M31.6171 21.3799C31.3784 21.3799 31.1494 21.2851 30.9807 21.1163C30.8119 20.9475 30.717 20.7186 30.717 20.4799V18.2579C30.717 18.0192 30.8119 17.7903 30.9807 17.6215C31.1494 17.4527 31.3784 17.3579 31.6171 17.3579C31.8558 17.3579 32.0847 17.4527 32.2534 17.6215C32.4222 17.7903 32.5171 18.0192 32.5171 18.2579V20.4799C32.5171 20.5981 32.4938 20.7151 32.4485 20.8243C32.4033 20.9335 32.337 21.0327 32.2534 21.1163C32.1699 21.1999 32.0706 21.2662 31.9615 21.3114C31.8523 21.3566 31.7353 21.3799 31.6171 21.3799V21.3799ZM31.6171 17.8579C31.511 17.8579 31.4092 17.9001 31.3342 17.9751C31.2592 18.0501 31.217 18.1518 31.217 18.2579V20.4799C31.217 20.586 31.2592 20.6877 31.3342 20.7628C31.4092 20.8378 31.511 20.8799 31.6171 20.8799C31.7232 20.8799 31.8249 20.8378 31.8999 20.7628C31.9749 20.6877 32.0171 20.586 32.0171 20.4799V18.2579C32.0171 18.1518 31.9749 18.0501 31.8999 17.9751C31.8249 17.9001 31.7232 17.8579 31.6171 17.8579V17.8579Z" fill="#1CBBDA"/>
<path d="M35.5221 21.1299C35.6945 21.1299 35.8598 21.0614 35.9817 20.9395C36.1036 20.8176 36.1721 20.6523 36.1721 20.4799V18.2579C36.1721 18.0855 36.1036 17.9202 35.9817 17.7983C35.8598 17.6764 35.6945 17.6079 35.5221 17.6079C35.3497 17.6079 35.1843 17.6764 35.0624 17.7983C34.9405 17.9202 34.8721 18.0855 34.8721 18.2579V20.4799C34.8721 20.6523 34.9405 20.8176 35.0624 20.9395C35.1843 21.0614 35.3497 21.1299 35.5221 21.1299V21.1299Z" fill="#1CBBDA"/>
<path d="M35.5221 21.3799C35.2834 21.3799 35.0545 21.2851 34.8857 21.1163C34.7169 20.9475 34.6221 20.7186 34.6221 20.4799V18.2579C34.6221 18.0192 34.7169 17.7903 34.8857 17.6215C35.0545 17.4527 35.2834 17.3579 35.5221 17.3579C35.7608 17.3579 35.9897 17.4527 36.1584 17.6215C36.3272 17.7903 36.4221 18.0192 36.4221 18.2579V20.4799C36.4221 20.7186 36.3272 20.9475 36.1584 21.1163C35.9897 21.2851 35.7608 21.3799 35.5221 21.3799V21.3799ZM35.5221 17.8579C35.416 17.8579 35.3142 17.9001 35.2392 17.9751C35.1642 18.0501 35.1221 18.1518 35.1221 18.2579V20.4799C35.1221 20.586 35.1642 20.6877 35.2392 20.7628C35.3142 20.8378 35.416 20.8799 35.5221 20.8799C35.6282 20.8799 35.7299 20.8378 35.8049 20.7628C35.8799 20.6877 35.9221 20.586 35.9221 20.4799V18.2579C35.9221 18.1518 35.8799 18.0501 35.8049 17.9751C35.7299 17.9001 35.6282 17.8579 35.5221 17.8579Z" fill="#1CBBDA"/>
<path d="M2.36021 54.25H53.0602C53.2326 54.25 53.3979 54.1815 53.5198 54.0596C53.6417 53.9377 53.7102 53.7724 53.7102 53.6V48.535C53.7102 48.3626 53.6417 48.1973 53.5198 48.0754C53.3979 47.9535 53.2326 47.885 53.0602 47.885H52.0542V32.469H53.0602C53.2326 32.469 53.3979 32.4005 53.5198 32.2786C53.6417 32.1567 53.7102 31.9914 53.7102 31.819V27.58C53.7102 27.4484 53.6702 27.3199 53.5956 27.2115C53.5209 27.1031 53.4151 27.02 53.2922 26.973L48.3122 25.067C45.7463 24.0834 43.0575 23.4562 40.3212 23.203V15.475H40.8742C41.0466 15.475 41.2119 15.4065 41.3338 15.2846C41.4557 15.1627 41.5242 14.9974 41.5242 14.825V14.75C41.5205 11.4359 40.2023 8.25866 37.8589 5.91526C35.5155 3.57185 32.3383 2.25371 29.0242 2.25H26.3962C23.0821 2.25371 19.9049 3.57185 17.5615 5.91526C15.2181 8.25866 13.8999 11.4359 13.8962 14.75V14.829C13.8962 14.9144 13.913 14.9989 13.9457 15.0777C13.9783 15.1566 14.0262 15.2283 14.0866 15.2886C14.1469 15.349 14.2186 15.3969 14.2975 15.4295C14.3763 15.4622 14.4608 15.479 14.5462 15.479H15.0992V23.207C12.3629 23.4604 9.67421 24.0875 7.1082 25.071L2.1282 26.977C2.00519 27.0238 1.89934 27.107 1.82468 27.2154C1.75003 27.3238 1.7101 27.4524 1.71021 27.584V31.822C1.71021 31.9944 1.77868 32.1597 1.90058 32.2816C2.02248 32.4035 2.18782 32.472 2.36021 32.472H3.59521V47.885H2.36021C2.18782 47.885 2.02248 47.9535 1.90058 48.0754C1.77868 48.1973 1.71021 48.3626 1.71021 48.535V53.599C1.71021 53.7714 1.77868 53.9367 1.90058 54.0586C2.02248 54.1805 2.18782 54.249 2.36021 54.249V54.25ZM50.7542 47.886H40.8422V34.172H42.0732C42.1586 34.172 42.2431 34.1552 42.3219 34.1225C42.4008 34.0899 42.4725 34.042 42.5328 33.9816C42.5932 33.9213 42.6411 33.8496 42.6737 33.7707C42.7064 33.6919 42.7232 33.6074 42.7232 33.522V32.47H50.7552L50.7542 47.886ZM13.9992 32.876V29.95L22.0362 28.381C25.7838 27.646 29.6386 27.646 33.3862 28.381L41.4222 29.95V32.869L13.9992 32.876ZM23.0532 34.176V47.886H16.1122V34.172L23.0532 34.176ZM24.3532 34.176H31.2972V47.886H24.3522L24.3532 34.176ZM32.5972 34.176H39.5422V47.886H32.5972V34.176ZM26.3972 3.552H29.0252C31.8952 3.55493 34.6549 4.65816 36.736 6.63453C38.8171 8.61089 40.0612 11.31 40.2122 14.176H15.2122C15.3627 11.3101 16.6062 8.61099 18.6867 6.63428C20.7672 4.65757 23.5264 3.55373 26.3962 3.55L26.3972 3.552ZM16.3972 15.481H39.0222V23.119C38.5222 23.095 38.0222 23.08 37.5222 23.08H17.9022C17.4022 23.08 16.9022 23.095 16.4022 23.119L16.3972 15.481ZM3.01221 28.028L7.5742 26.282C10.8707 25.0177 14.3716 24.3706 17.9022 24.373H37.5222C41.0528 24.3705 44.5538 25.0176 47.8502 26.282L52.4132 28.028V31.17H42.7222V29.418C42.7222 29.2673 42.6699 29.1212 42.5741 29.0049C42.4783 28.8885 42.3451 28.809 42.1972 28.78L33.6352 27.108C29.7235 26.3404 25.6999 26.3404 21.7882 27.108L13.2262 28.78C13.0783 28.809 12.9451 28.8885 12.8493 29.0049C12.7535 29.1212 12.7012 29.2673 12.7012 29.418V31.17H3.01221V28.028ZM4.8972 32.469H12.6972V33.521C12.6972 33.6934 12.7657 33.8587 12.8876 33.9806C13.0095 34.1025 13.1748 34.171 13.3472 34.171H14.8122V47.881H4.90021L4.8972 32.469ZM3.01221 49.183H52.4122V52.95H3.01221V49.183Z" fill="#1CBBDA"/>
<path d="M53.0591 54.497H2.14611V54.47C1.95136 54.4214 1.77845 54.309 1.65488 54.1509C1.5313 53.9927 1.46416 53.7977 1.46411 53.597V48.533C1.46411 48.2943 1.55893 48.0654 1.72771 47.8966C1.8965 47.7278 2.12542 47.633 2.36411 47.633H3.34911V32.719H2.36411C2.12542 32.719 1.8965 32.6242 1.72771 32.4554C1.55893 32.2866 1.46411 32.0577 1.46411 31.819V27.58C1.46428 27.3978 1.51971 27.22 1.62309 27.07C1.72647 26.9201 1.87293 26.805 2.04311 26.74L7.02211 24.834C9.53854 23.8703 12.172 23.2454 14.8531 22.976V15.725H14.5531C14.3144 15.725 14.0855 15.6302 13.9167 15.4614C13.7479 15.2926 13.6531 15.0637 13.6531 14.825V14.75C13.6568 11.3696 15.0013 8.12877 17.3916 5.73848C19.7819 3.34819 23.0227 2.00371 26.4031 2H29.0311C32.4115 2.00371 35.6523 3.34819 38.0426 5.73848C40.4329 8.12877 41.7774 11.3696 41.7811 14.75V14.829C41.7811 15.0677 41.6863 15.2966 41.5175 15.4654C41.3487 15.6342 41.1198 15.729 40.8811 15.729H40.5811V22.98C43.2623 23.2493 45.8957 23.8741 48.4121 24.838L53.3921 26.744C53.5618 26.8099 53.7077 26.9254 53.8108 27.0754C53.9139 27.2254 53.9694 27.403 53.9701 27.585V31.823C53.9701 32.0617 53.8753 32.2906 53.7065 32.4594C53.5377 32.6282 53.3088 32.723 53.0701 32.723H52.3141V47.636H53.0701C53.3088 47.636 53.5377 47.7308 53.7065 47.8996C53.8753 48.0684 53.9701 48.2973 53.9701 48.536V53.601C53.9696 53.7198 53.9456 53.8373 53.8994 53.9467C53.8533 54.0562 53.7859 54.1554 53.7012 54.2387C53.6165 54.322 53.5162 54.3877 53.406 54.4321C53.2958 54.4764 53.1779 54.4985 53.0591 54.497V54.497ZM2.57411 53.997H53.0591C53.1116 53.997 53.1637 53.9867 53.2122 53.9666C53.2607 53.9465 53.3048 53.917 53.3419 53.8798C53.3791 53.8427 53.4086 53.7986 53.4287 53.7501C53.4488 53.7015 53.4591 53.6495 53.4591 53.597V48.532C53.4591 48.4795 53.4488 48.4275 53.4287 48.3789C53.4086 48.3304 53.3791 48.2863 53.3419 48.2492C53.3048 48.212 53.2607 48.1825 53.2122 48.1624C53.1637 48.1423 53.1116 48.132 53.0591 48.132H51.8031V32.219H53.0591C53.1116 32.219 53.1637 32.2087 53.2122 32.1886C53.2607 32.1685 53.3048 32.139 53.3419 32.1018C53.3791 32.0647 53.4086 32.0206 53.4287 31.9721C53.4488 31.9235 53.4591 31.8715 53.4591 31.819V27.58C53.4592 27.499 53.4347 27.4198 53.3888 27.353C53.3429 27.2862 53.2778 27.235 53.2021 27.206L48.2231 25.3C45.6782 24.3251 43.0118 23.703 40.2981 23.451L40.0711 23.43V15.225H40.8711C40.9236 15.225 40.9757 15.2147 41.0242 15.1945C41.0727 15.1744 41.1168 15.145 41.154 15.1078C41.1911 15.0707 41.2206 15.0266 41.2407 14.9781C41.2608 14.9295 41.2711 14.8775 41.2711 14.825V14.75C41.2674 11.5022 39.9756 8.38855 37.6791 6.09203C35.3826 3.79552 32.2689 2.50371 29.0211 2.5H26.3931C23.1453 2.50371 20.0317 3.79552 17.7352 6.09203C15.4386 8.38855 14.1468 11.5022 14.1431 14.75V14.829C14.1431 14.9351 14.1853 15.0368 14.2603 15.1118C14.3353 15.1869 14.437 15.229 14.5431 15.229H15.3431V23.435L15.1161 23.456C12.4025 23.7082 9.73614 24.3303 7.19112 25.305L2.21111 27.211C2.13559 27.2399 2.07061 27.291 2.02473 27.3576C1.97885 27.4242 1.95422 27.5031 1.95411 27.584V31.822C1.95411 31.8745 1.96446 31.9265 1.98456 31.9751C2.00466 32.0236 2.03412 32.0677 2.07127 32.1048C2.10841 32.142 2.15251 32.1714 2.20104 32.1916C2.24957 32.2117 2.30158 32.222 2.35411 32.222H3.83911V48.135H2.35411C2.30158 48.135 2.24957 48.1453 2.20104 48.1655C2.15251 48.1856 2.10841 48.215 2.07127 48.2522C2.03412 48.2893 2.00466 48.3334 1.98456 48.3819C1.96446 48.4305 1.95411 48.4825 1.95411 48.535V53.599C1.95411 53.7051 1.99625 53.8068 2.07127 53.8818C2.14628 53.9569 2.24802 53.999 2.35411 53.999L2.57411 53.997ZM52.6581 53.197H2.75811V48.932H52.6581V53.197ZM3.25811 52.697H52.1581V49.432H3.25811V52.697ZM51.0021 48.132H40.5921V33.922H42.0731C42.1256 33.922 42.1777 33.9117 42.2262 33.8915C42.2747 33.8714 42.3188 33.842 42.356 33.8048C42.3931 33.7677 42.4226 33.7236 42.4427 33.6751C42.4628 33.6265 42.4731 33.5745 42.4731 33.522V32.222H51.0051L51.0021 48.132ZM41.0901 47.632H50.5021V32.72H42.9721V33.52C42.9721 33.7587 42.8773 33.9876 42.7085 34.1564C42.5397 34.3252 42.3108 34.42 42.0721 34.42H41.0911L41.0901 47.632ZM39.7901 48.132H32.3451V33.922H39.7901V48.132ZM32.8451 47.632H39.2901V34.422H32.8451V47.632ZM31.5451 48.132H24.1021V33.922H31.5461L31.5451 48.132ZM24.6011 47.632H31.0451V34.422H24.6021L24.6011 47.632ZM23.3011 48.132H15.8561V33.922H23.3011V48.132ZM16.3561 47.632H22.8011V34.422H16.3561V47.632ZM15.0561 48.132H4.64511V32.22H12.9451V33.52C12.9451 33.5725 12.9555 33.6245 12.9756 33.6731C12.9957 33.7216 13.0251 33.7657 13.0623 33.8028C13.0994 33.84 13.1435 33.8694 13.192 33.8895C13.2406 33.9097 13.2926 33.92 13.3451 33.92H15.0541L15.0561 48.132ZM5.14412 47.632H14.5561V34.422H13.3471C13.1084 34.422 12.8795 34.3272 12.7107 34.1584C12.5419 33.9896 12.4471 33.7607 12.4471 33.522V32.722H5.14711L5.14412 47.632ZM41.6711 33.122H13.7491V29.75L21.9881 28.141C25.7675 27.3998 29.6548 27.3998 33.4341 28.141L41.6721 29.75L41.6711 33.122ZM14.2481 32.622H41.1711V30.16L33.3371 28.63C29.6212 27.9012 25.7991 27.9012 22.0831 28.63L14.2491 30.16L14.2481 32.622ZM52.6601 31.422H42.4721V29.422C42.4722 29.329 42.4399 29.239 42.3808 29.1673C42.3216 29.0955 42.2394 29.0467 42.1481 29.029L33.5861 27.35C29.7058 26.5885 25.7144 26.5885 21.8341 27.35L13.2721 29.022C13.181 29.0399 13.099 29.0888 13.0401 29.1605C12.9812 29.2322 12.949 29.3222 12.9491 29.415V31.415H2.76011V27.856L7.48212 26.05C10.807 24.775 14.3381 24.1225 17.8991 24.125H37.5191C41.0805 24.1223 44.6119 24.7748 47.9371 26.05L52.6601 27.857V31.422ZM42.9721 30.922H52.1601V28.2L47.7601 26.516C44.492 25.2627 41.0213 24.6214 37.5211 24.624H17.9011C14.401 24.6215 10.9302 25.2628 7.66211 26.516L3.26212 28.2V30.92H12.4511V29.42C12.4512 29.2114 12.5237 29.0092 12.6563 28.8482C12.7889 28.6871 12.9734 28.5771 13.1781 28.537L21.7401 26.865C25.6835 26.0912 29.7397 26.0912 33.6831 26.865L42.2451 28.537C42.45 28.5769 42.6347 28.6868 42.7675 28.8479C42.9003 29.009 42.973 29.2112 42.9731 29.42L42.9721 30.922ZM39.2721 23.379L39.0101 23.366C38.4731 23.34 37.9861 23.327 37.5201 23.327H17.9001C17.4351 23.327 16.9481 23.34 16.4101 23.366L16.1481 23.379V15.229H39.2721V23.379ZM16.6481 15.729V22.85C17.0921 22.831 17.5031 22.822 17.9001 22.822H37.5201C37.9201 22.822 38.3281 22.831 38.7721 22.85V15.726L16.6481 15.729ZM15.2101 14.429H14.9471L14.9601 14.166C15.1129 11.2352 16.3839 8.47465 18.5113 6.45296C20.6387 4.43127 23.4603 3.30244 26.3951 3.299H29.0231C31.9579 3.30217 34.7797 4.43075 36.9072 6.45225C39.0348 8.47375 40.306 11.2342 40.4591 14.165L40.4721 14.428L15.2101 14.429ZM26.3961 3.8C23.6334 3.79747 20.972 4.84039 18.9466 6.71928C16.9212 8.59817 15.6817 11.1739 15.4771 13.929H39.9451C39.7403 11.1738 38.5006 8.59808 36.475 6.71921C34.4494 4.84034 31.7879 3.79745 29.0251 3.8H26.3971H26.3961Z" fill="#1CBBDA"/>
</svg>
