<svg width="56" height="56" viewBox="0 0 56 56" fill="none" xmlns="http://www.w3.org/2000/svg">
<g clip-path="url(#clip0_150_57)">
<path d="M26.3321 56.6001C23.4267 56.5458 20.5893 55.7114 18.1171 54.1841L10.0641 50.0221V30.5931H19.1641L19.2511 30.6091C22.8841 31.2571 26.4861 33.2641 29.5581 35.1831H35.5581C36.4046 35.1887 37.2284 35.457 37.9158 35.9508C38.6033 36.4447 39.1205 37.1397 39.3961 37.9401C39.5669 38.702 39.4877 39.4986 39.1701 40.2119C38.8526 40.9252 38.3136 41.5172 37.6331 41.9001C35.9226 43.0474 33.8831 43.6024 31.8271 43.4801C30.8331 43.4801 29.8271 43.4031 28.9711 43.3261H28.9291C28.6381 43.3261 28.4771 43.4341 28.4761 43.6261C28.4761 43.9331 28.8711 43.9681 29.0411 43.9681H29.0791H29.1171C29.1931 43.9741 29.2761 43.9771 29.3641 43.9771C29.6431 43.9771 29.9421 43.9481 30.2591 43.9171C30.5911 43.8851 30.9341 43.8511 31.2751 43.8511C35.2961 43.8511 37.5331 42.9511 38.9661 40.7611L40.0071 38.3221L49.6641 33.5461L49.7321 33.5241C50.3907 33.3028 51.0804 33.188 51.7751 33.1841C52.799 33.162 53.8062 33.4457 54.668 33.999C55.5298 34.5522 56.207 35.3499 56.6131 36.2901C56.9858 37.2485 57.0558 38.298 56.8139 39.2974C56.572 40.2968 56.0298 41.1982 55.2601 41.8801L55.2061 41.9331L55.1451 41.9771C48.6467 46.7177 41.6992 50.8096 34.4021 54.1941C31.9853 55.7245 29.1924 56.5571 26.3321 56.6001V56.6001ZM12.0641 48.8001L19.1091 52.4431C21.2796 53.7971 23.7745 54.5422 26.3321 54.6001C28.8453 54.5539 31.2963 53.811 33.4121 52.4541L33.4611 52.4241L33.5131 52.4001C40.6855 49.0757 47.5148 45.0565 53.9031 40.4001C54.37 39.9953 54.7025 39.4579 54.8563 38.8594C55.0101 38.2609 54.9779 37.6298 54.7641 37.0501C54.5077 36.4775 54.0865 35.9942 53.5544 35.6619C53.0222 35.3296 52.4032 35.1632 51.7761 35.1841C51.317 35.1873 50.861 35.2609 50.4241 35.4021L41.5601 39.7951L40.7431 41.7101L40.6981 41.7801C39.7419 43.3103 38.2973 44.473 36.5981 45.0801C34.8852 45.6571 33.0827 45.9226 31.2761 45.8641C31.0321 45.8641 30.7511 45.8911 30.4531 45.9211C30.1031 45.9551 29.7401 45.9911 29.3641 45.9911C29.2361 45.9911 29.1121 45.9911 28.9941 45.9781C28.3147 45.9904 27.6575 45.7363 27.1631 45.2701C26.9439 45.0574 26.77 44.8025 26.6519 44.5209C26.5338 44.2392 26.474 43.9365 26.4761 43.6311C26.4796 43.3169 26.5466 43.0068 26.673 42.7192C26.7995 42.4316 26.9828 42.1726 27.212 41.9578C27.4411 41.7429 27.7114 41.5766 28.0065 41.4689C28.3016 41.3612 28.6154 41.3143 28.9291 41.3311C28.9811 41.3311 29.0291 41.3311 29.0861 41.3311H29.1261C29.9431 41.4041 30.9021 41.4791 31.8261 41.4791C33.4611 41.6 35.0903 41.1782 36.4611 40.2791L36.4881 40.2601C37.2881 39.7131 37.6361 39.0781 37.4691 38.4741C37.3016 38.0845 37.022 37.7536 36.6658 37.5235C36.3097 37.2935 35.8931 37.1746 35.4691 37.1821H28.9861L28.7421 37.0291C25.8051 35.1831 22.3541 33.2161 18.9891 32.5931H12.0641V48.8001ZM9.64611 52.2001H-1.03589V28.8791H9.64611V52.2001ZM0.964111 50.2001H7.64611V30.8791H0.964111V50.2001ZM34.7401 34.3351L34.0401 33.6571C32.6831 32.3511 31.2611 31.0481 29.7561 29.6691C26.6394 26.9188 23.6712 24.0047 20.8641 20.9391L19.4141 19.2811H25.9491L27.4641 16.8231L31.1411 22.1611L34.5911 15.1491L38.1911 22.0641L38.2531 22.0001L40.6921 19.4891H48.1501V19.3421H40.6571L40.6381 19.3621L38.2491 21.8361L34.6041 14.8361L31.1271 21.8911L27.4641 16.5721L27.4071 16.6641L25.8801 19.1381H19.3801L19.0801 18.7261C17.0693 16.2131 15.8696 13.1483 15.6401 9.93807C15.5684 8.67988 15.7565 7.4204 16.1928 6.23811C16.6291 5.05581 17.3043 3.97604 18.1761 3.06607C19.1544 2.08969 20.321 1.32233 21.6049 0.810571C22.8888 0.298816 24.2634 0.0533475 25.6451 0.0890701C27.5094 0.0640158 29.3441 0.556613 30.9451 1.51207C32.319 2.41649 33.5808 3.48058 34.7041 4.68207C35.6627 3.5918 36.7295 2.60172 37.8881 1.72707C39.2005 0.797127 40.7317 0.223763 42.3321 0.0630702C42.7239 0.0196542 43.1179 -0.00138001 43.5121 7.01507e-05C45.3776 0.00605486 47.2094 0.497867 48.8271 1.42707C50.4088 2.32658 51.7411 3.60658 52.7031 5.15107C53.5945 6.57331 54.099 8.20374 54.1665 9.8809C54.2341 11.5581 53.8623 13.2238 53.0881 14.7131C52.2122 16.3253 51.143 17.8247 49.9041 19.1781L49.6361 19.4861H49.6641L49.2821 19.8941L48.1501 21.1941V21.1001L48.0891 21.1651C48.0191 21.2401 47.9481 21.3131 47.8771 21.3871C47.8061 21.4611 47.7501 21.5181 47.6881 21.5871L47.6771 21.5981C45.2261 24.1371 42.6121 26.6651 40.0841 29.1101C38.5481 30.6001 36.9641 32.1331 35.4341 33.6471L34.7401 34.3351ZM23.8861 21.2811C26.0921 23.6001 28.6321 25.9301 31.1041 28.2001C32.3041 29.3001 33.5451 30.4371 34.7171 31.5481C36.0351 30.2481 37.3831 28.9481 38.6931 27.6791C40.7831 25.6571 42.9331 23.5791 44.9931 21.4911H41.5371L39.6891 23.3911L37.6961 25.4541L34.6391 19.5811L31.4261 26.1141L29.4261 23.2061L27.5531 20.4871L27.0621 21.2871L23.8861 21.2811ZM34.5541 10.4121L38.7391 18.4471L39.8031 17.3401H48.8441C49.7914 16.2608 50.6151 15.0792 51.3001 13.8171C51.927 12.6345 52.2294 11.307 52.1767 9.96962C52.124 8.63223 51.7181 7.33265 51.0001 6.20307C50.201 4.93412 49.0974 3.88497 47.7897 3.15096C46.482 2.41694 45.0116 2.02133 43.5121 2.00007C43.1937 2.00025 42.8755 2.01861 42.5591 2.05507C39.6201 2.39107 38.1641 3.93107 36.1491 6.06407C35.9221 6.30407 35.6871 6.55307 35.4491 6.80507L34.7491 7.53007L34.0281 6.83007C33.8001 6.60874 33.5781 6.39107 33.3621 6.17707C30.8921 3.74607 29.2621 2.14007 25.6201 2.09507H25.4991C24.41 2.0775 23.3284 2.27795 22.3179 2.68462C21.3074 3.09129 20.3884 3.69597 19.6151 4.46307C18.932 5.18127 18.404 6.03241 18.0641 6.96349C17.7241 7.89457 17.5795 8.88567 17.6391 9.87507C17.8335 12.5164 18.7948 15.0434 20.4051 17.1461H24.7641L25.7061 15.6201L27.3641 12.9231L29.1641 15.5231L30.8371 17.9501L34.5541 10.4121Z" fill="#1CBBDA"/>
</g>
<defs>
<clipPath id="clip0_150_57">
<rect width="56" height="56" fill="white"/>
</clipPath>
</defs>
</svg>
