<svg width="56" height="56" viewBox="0 0 56 56" fill="none" xmlns="http://www.w3.org/2000/svg">
<path d="M17.091 4C13.6204 4.0045 10.2933 5.38517 7.83923 7.83923C5.38517 10.2933 4.0045 13.6204 4 17.091V38.909C4.0045 42.3796 5.38517 45.7067 7.83923 48.1608C10.2933 50.6148 13.6204 51.9955 17.091 52H38.909C42.3796 51.9955 45.7067 50.6148 48.1608 48.1608C50.6148 45.7067 51.9955 42.3796 52 38.909V17.091C51.9955 13.6204 50.6148 10.2933 48.1608 7.83923C45.7067 5.38517 42.3796 4.0045 38.909 4H17.091ZM17.091 6.182H38.909C40.3424 6.1795 41.7623 6.45994 43.0871 7.00724C44.4119 7.55455 45.6157 8.35796 46.6295 9.37141C47.6432 10.3849 48.4469 11.5884 48.9946 12.9131C49.5423 14.2378 49.8231 15.6576 49.821 17.091V38.909C49.8232 40.3425 49.5425 41.7624 48.9949 43.0872C48.4473 44.412 47.6436 45.6157 46.6298 46.6292C45.6161 47.6428 44.4122 48.4463 43.0873 48.9937C41.7624 49.541 40.3425 49.8215 38.909 49.819H17.091C15.6577 49.8211 14.2381 49.5403 12.9136 48.9928C11.589 48.4453 10.3855 47.6417 9.37212 46.6282C8.35869 45.6147 7.55524 44.4111 7.00782 43.0865C6.4604 41.7619 6.17976 40.3423 6.182 38.909V17.091C6.17989 15.6578 6.46063 14.2383 7.00811 12.9138C7.55559 11.5893 8.35906 10.3859 9.37247 9.37247C10.3859 8.35906 11.5893 7.55559 12.9138 7.00811C14.2383 6.46063 15.6578 6.17989 17.091 6.182V6.182ZM13.398 20.436C13.2273 20.4277 13.0567 20.4541 12.8965 20.5137C12.7363 20.5733 12.5899 20.6648 12.4661 20.7826C12.3424 20.9005 12.2438 21.0423 12.1765 21.1994C12.1092 21.3565 12.0745 21.5256 12.0745 21.6965C12.0745 21.8674 12.1092 22.0365 12.1765 22.1936C12.2438 22.3507 12.3424 22.4925 12.4661 22.6104C12.5899 22.7282 12.7363 22.8197 12.8965 22.8793C13.0567 22.9389 13.2273 22.9653 13.398 22.957C13.5687 22.9653 13.7393 22.9389 13.8995 22.8793C14.0597 22.8197 14.2061 22.7282 14.3299 22.6104C14.4536 22.4925 14.5522 22.3507 14.6195 22.1936C14.6868 22.0365 14.7215 21.8674 14.7215 21.6965C14.7215 21.5256 14.6868 21.3565 14.6195 21.1994C14.5522 21.0423 14.4536 20.9005 14.3299 20.7826C14.2061 20.6648 14.0597 20.5733 13.8995 20.5137C13.7393 20.4541 13.5687 20.4277 13.398 20.436ZM24.767 21.058C20.797 21.058 18.305 23.838 18.305 28.307C18.305 32.776 20.75 35.564 24.767 35.564C28.784 35.564 31.21 32.756 31.21 28.307C31.21 23.858 28.756 21.059 24.768 21.058H24.767ZM38.872 21.058C35.852 21.058 33.837 22.697 33.837 25.158C33.837 27.19 34.978 28.4 37.481 28.985L39.264 29.418C41.096 29.849 41.902 30.481 41.902 31.536C41.902 32.763 40.636 33.654 38.911 33.654C37.062 33.654 35.777 32.821 35.594 31.508H33.463C33.617 33.982 35.677 35.563 38.745 35.563C42.024 35.563 44.076 33.906 44.076 31.263C44.076 29.183 42.907 28.031 40.068 27.37L38.545 26.995C36.745 26.573 36.014 26.007 36.014 25.02C36.014 23.773 37.146 22.96 38.844 22.96C40.455 22.96 41.565 23.754 41.767 25.029H43.857C43.732 22.697 41.682 21.058 38.873 21.058H38.872ZM24.767 23.058C27.395 23.058 29.016 25.092 29.016 28.304C29.016 31.496 27.394 33.558 24.767 33.558C22.112 33.558 20.501 31.497 20.501 28.304C20.502 25.095 22.159 23.062 24.768 23.061L24.767 23.058ZM12.373 24.789V35.229H14.421V24.789H12.373Z" fill="#1CBBDA"/>
</svg>
