<svg width="56" height="56" viewBox="0 0 56 56" fill="none" xmlns="http://www.w3.org/2000/svg">
<path d="M5.83723 5C4.94299 5.00316 4.08622 5.35952 3.45352 5.99147C2.82082 6.62342 2.46344 7.47977 2.45923 8.374V46.844C2.46344 47.7382 2.82082 48.5946 3.45352 49.2265C4.08622 49.8585 4.94299 50.2148 5.83723 50.218H51.0852C51.9788 50.2138 52.8345 49.857 53.4664 49.2251C54.0982 48.5933 54.455 47.7375 54.4592 46.844V8.374C54.455 7.48046 54.0982 6.62471 53.4664 5.99287C52.8345 5.36103 51.9788 5.00421 51.0852 5H5.83723ZM5.83723 7.261H51.0852C51.2319 7.25926 51.3774 7.28685 51.5132 7.34217C51.649 7.39749 51.7724 7.4794 51.8761 7.5831C51.9798 7.68681 52.0617 7.8102 52.1171 7.94602C52.1724 8.08184 52.2 8.22736 52.1982 8.374V11.783H4.72023V8.374C4.71861 8.2271 4.74643 8.08136 4.80205 7.94538C4.85768 7.80941 4.93998 7.68596 5.04409 7.58231C5.14821 7.47866 5.27203 7.39692 5.40825 7.3419C5.54447 7.28689 5.69034 7.25972 5.83723 7.262V7.261ZM8.11623 8.391C7.85484 8.39122 7.60161 8.48205 7.39967 8.64802C7.19774 8.81398 7.05958 9.04483 7.00874 9.30123C6.95791 9.55762 6.99753 9.82372 7.12086 10.0542C7.2442 10.2846 7.44362 10.4652 7.68515 10.5652C7.92668 10.6651 8.19539 10.6782 8.4455 10.6022C8.69561 10.5263 8.91166 10.366 9.05684 10.1486C9.20202 9.93126 9.26736 9.67029 9.24172 9.41016C9.21608 9.15003 9.10105 8.90684 8.91623 8.722C8.81051 8.61653 8.68493 8.53306 8.54676 8.47642C8.40859 8.41978 8.26056 8.39109 8.11123 8.392L8.11623 8.391ZM11.5072 8.391C11.2458 8.39122 10.9926 8.48205 10.7907 8.64802C10.5887 8.81398 10.4506 9.04483 10.3997 9.30123C10.3489 9.55762 10.3885 9.82372 10.5119 10.0542C10.6352 10.2846 10.8346 10.4652 11.0761 10.5652C11.3177 10.6651 11.5864 10.6782 11.8365 10.6022C12.0866 10.5263 12.3027 10.366 12.4478 10.1486C12.593 9.93126 12.6584 9.67029 12.6327 9.41016C12.6071 9.15003 12.4921 8.90684 12.3072 8.722C12.2015 8.61653 12.0759 8.53306 11.9378 8.47642C11.7996 8.41978 11.6516 8.39109 11.5022 8.392L11.5072 8.391ZM14.8982 8.391C14.6368 8.39122 14.3836 8.48205 14.1817 8.64802C13.9797 8.81398 13.8416 9.04483 13.7907 9.30123C13.7399 9.55762 13.7795 9.82372 13.9029 10.0542C14.0262 10.2846 14.2256 10.4652 14.4671 10.5652C14.7087 10.6651 14.9774 10.6782 15.2275 10.6022C15.4776 10.5263 15.6937 10.366 15.8388 10.1486C15.984 9.93126 16.0494 9.67029 16.0237 9.41016C15.9981 9.15003 15.8831 8.90684 15.6982 8.722C15.5926 8.61665 15.4672 8.53325 15.3292 8.47661C15.1912 8.41998 15.0434 8.39122 14.8942 8.392L14.8982 8.391ZM4.72023 14.044H52.1982V46.844C52.2 46.9906 52.1724 47.1362 52.1171 47.272C52.0617 47.4078 51.9798 47.5312 51.8761 47.6349C51.7724 47.7386 51.649 47.8205 51.5132 47.8758C51.3774 47.9311 51.2319 47.9587 51.0852 47.957H5.83723C5.69058 47.9587 5.54507 47.9311 5.40925 47.8758C5.27342 47.8205 5.15003 47.7386 5.04633 47.6349C4.94263 47.5312 4.86072 47.4078 4.8054 47.272C4.75008 47.1362 4.72249 46.9906 4.72423 46.844L4.72023 14.044ZM19.4202 15.174C19.1588 15.1742 18.9056 15.265 18.7037 15.431C18.5017 15.597 18.3636 15.8278 18.3127 16.0842C18.2619 16.3406 18.3015 16.6067 18.4249 16.8372C18.5482 17.0676 18.7476 17.2482 18.9891 17.3482C19.2307 17.4481 19.4994 17.4612 19.7495 17.3852C19.9996 17.3093 20.2157 17.149 20.3608 16.9316C20.506 16.7143 20.5714 16.4533 20.5457 16.1932C20.5201 15.933 20.4051 15.6898 20.2202 15.505C20.1145 15.3995 19.9889 15.3161 19.8508 15.2594C19.7126 15.2028 19.5646 15.1741 19.4152 15.175L19.4202 15.174ZM27.4152 17.435L23.9372 31H26.2692L26.7832 28.739H30.1832L30.7202 31H33.0522L29.5762 17.436L27.4152 17.435ZM34.1152 17.435V31H35.2372C36.5906 31.1591 37.9551 30.8142 39.0702 30.031C40.2972 29.008 40.8892 27.194 40.8892 24.218C40.8892 21.242 40.2972 19.428 39.0702 18.405C37.9551 17.6218 36.5906 17.2769 35.2372 17.436L34.1152 17.435ZM45.4152 17.435C44.8472 17.4472 44.2888 17.5837 43.7792 17.835C43.2422 18.1263 42.7949 18.5588 42.4856 19.0857C42.1763 19.6127 42.0168 20.2141 42.0242 20.825C42.0632 21.6981 42.391 22.5335 42.9562 23.2C43.4654 23.844 44.0194 24.4512 44.6142 25.017V25.017C45.1312 25.5092 45.6159 26.0343 46.0652 26.589C46.3184 26.8759 46.4845 27.2291 46.5442 27.607C46.5442 28.361 46.3342 28.426 46.0382 28.574C45.8417 28.6662 45.6298 28.7215 45.4132 28.737C45.1592 28.7545 44.9049 28.7066 44.6746 28.5981C44.4443 28.4896 44.2455 28.324 44.0972 28.117L42.2072 29.358C42.5826 29.8562 43.0662 30.2627 43.6216 30.5468C44.1769 30.8309 44.7895 30.9852 45.4132 30.998C45.9812 30.9858 46.5397 30.8493 47.0492 30.598C47.5861 30.3067 48.0333 29.8744 48.3426 29.3477C48.6519 28.821 48.8115 28.2198 48.8042 27.609C48.7648 26.7367 48.437 25.902 47.8722 25.236C47.3631 24.592 46.8091 23.9848 46.2142 23.419C45.6982 22.9267 45.2145 22.4016 44.7662 21.847C44.5128 21.56 44.3461 21.207 44.2852 20.829C44.2852 20.075 44.4952 20.01 44.7912 19.862C44.9878 19.7697 45.1997 19.7145 45.4162 19.699C45.6702 19.6816 45.9245 19.7295 46.1548 19.838C46.3851 19.9465 46.5839 20.1121 46.7322 20.319L48.6222 19.078C48.247 18.5793 47.7633 18.1723 47.2077 17.8879C46.6522 17.6034 46.0392 17.4489 45.4152 17.436V17.435ZM19.4152 18.565C19.1536 18.5651 18.9001 18.656 18.6979 18.822C18.4957 18.9881 18.3573 19.2192 18.3064 19.4758C18.2555 19.7325 18.2951 19.9989 18.4185 20.2296C18.542 20.4603 18.7416 20.641 18.9834 20.7411C19.2251 20.8411 19.4941 20.8542 19.7445 20.7782C19.9948 20.7021 20.2111 20.5416 20.3564 20.324C20.5017 20.1064 20.567 19.8451 20.5413 19.5848C20.5155 19.3244 20.4003 19.081 20.2152 18.896C20.1101 18.7911 19.9853 18.708 19.8481 18.6514C19.7108 18.5948 19.5637 18.5657 19.4152 18.566V18.565ZM36.3722 19.905C36.7982 19.965 37.3802 19.934 37.6262 20.139C38.0942 20.529 38.6332 21.539 38.6332 24.217C38.6332 26.895 38.0942 27.905 37.6262 28.295C37.3802 28.5 36.7982 28.469 36.3722 28.529V19.905ZM28.4462 21.422L29.6462 26.478H27.2952L28.4462 21.422ZM19.4162 21.956C19.1546 21.9561 18.9011 22.047 18.6989 22.213C18.4967 22.3791 18.3583 22.6102 18.3074 22.8668C18.2565 23.1235 18.2961 23.3899 18.4195 23.6206C18.543 23.8513 18.7426 24.032 18.9844 24.1321C19.2261 24.2321 19.4951 24.2452 19.7455 24.1692C19.9958 24.0931 20.2121 23.9326 20.3574 23.715C20.5027 23.4974 20.568 23.2361 20.5423 22.9758C20.5165 22.7154 20.4013 22.472 20.2162 22.287C20.111 22.182 19.9861 22.0988 19.8486 22.0422C19.7112 21.9856 19.5639 21.9566 19.4152 21.957L19.4162 21.956ZM19.4162 25.347C19.1546 25.3471 18.9011 25.438 18.6989 25.604C18.4967 25.7701 18.3583 26.0012 18.3074 26.2578C18.2565 26.5145 18.2961 26.7809 18.4195 27.0116C18.543 27.2423 18.7426 27.423 18.9844 27.5231C19.2261 27.6231 19.4951 27.6362 19.7455 27.5602C19.9958 27.4841 20.2121 27.3236 20.3574 27.106C20.5027 26.8884 20.568 26.6271 20.5423 26.3668C20.5165 26.1064 20.4013 25.863 20.2162 25.678C20.1109 25.5732 19.9859 25.4902 19.8485 25.4337C19.711 25.3773 19.5638 25.3485 19.4152 25.349L19.4162 25.347ZM19.4162 28.738C19.1546 28.7381 18.9011 28.829 18.6989 28.995C18.4967 29.1611 18.3583 29.3922 18.3074 29.6488C18.2565 29.9055 18.2961 30.1719 18.4195 30.4026C18.543 30.6333 18.7426 30.814 18.9844 30.9141C19.2261 31.0141 19.4951 31.0272 19.7455 30.9512C19.9958 30.8751 20.2121 30.7146 20.3574 30.497C20.5027 30.2794 20.568 30.0181 20.5423 29.7578C20.5165 29.4974 20.4013 29.254 20.2162 29.069C20.1109 28.9642 19.9859 28.8812 19.8485 28.8247C19.711 28.7683 19.5638 28.7395 19.4152 28.74L19.4162 28.738ZM19.4162 32.129C19.1546 32.1291 18.9011 32.22 18.6989 32.386C18.4967 32.5521 18.3583 32.7832 18.3074 33.0398C18.2565 33.2965 18.2961 33.5629 18.4195 33.7936C18.543 34.0243 18.7426 34.205 18.9844 34.3051C19.2261 34.4051 19.4951 34.4182 19.7455 34.3422C19.9958 34.2661 20.2121 34.1056 20.3574 33.888C20.5027 33.6704 20.568 33.4091 20.5423 33.1488C20.5165 32.8884 20.4013 32.645 20.2162 32.46C20.1109 32.3552 19.9859 32.2722 19.8485 32.2157C19.711 32.1593 19.5638 32.1305 19.4152 32.131L19.4162 32.129ZM19.4162 35.52C19.1546 35.5201 18.9011 35.611 18.6989 35.777C18.4967 35.9431 18.3583 36.1742 18.3074 36.4308C18.2565 36.6875 18.2961 36.9539 18.4195 37.1846C18.543 37.4153 18.7426 37.596 18.9844 37.6961C19.2261 37.7961 19.4951 37.8092 19.7455 37.7332C19.9958 37.6571 20.2121 37.4966 20.3574 37.279C20.5027 37.0614 20.568 36.8001 20.5423 36.5398C20.5165 36.2794 20.4013 36.036 20.2162 35.851C20.1108 35.7464 19.9858 35.6635 19.8484 35.6073C19.7109 35.551 19.5637 35.5224 19.4152 35.523L19.4162 35.52ZM22.8072 35.52C22.5456 35.5201 22.2921 35.611 22.0899 35.777C21.8877 35.9431 21.7493 36.1742 21.6984 36.4308C21.6475 36.6875 21.6871 36.9539 21.8105 37.1846C21.934 37.4153 22.1336 37.596 22.3754 37.6961C22.6171 37.7961 22.8861 37.8092 23.1365 37.7332C23.3868 37.6571 23.6031 37.4966 23.7484 37.279C23.8937 37.0614 23.959 36.8001 23.9333 36.5398C23.9075 36.2794 23.7923 36.036 23.6072 35.851C23.3946 35.6399 23.1068 35.522 22.8072 35.523V35.52ZM26.1982 35.52C25.9366 35.5201 25.6831 35.611 25.4809 35.777C25.2787 35.9431 25.1403 36.1742 25.0894 36.4308C25.0385 36.6875 25.0781 36.9539 25.2015 37.1846C25.325 37.4153 25.5246 37.596 25.7663 37.6961C26.0081 37.7961 26.2771 37.8092 26.5275 37.7332C26.7778 37.6571 26.9941 37.4966 27.1394 37.279C27.2847 37.0614 27.35 36.8001 27.3243 36.5398C27.2985 36.2794 27.1833 36.036 26.9982 35.851C26.7856 35.6399 26.4978 35.522 26.1982 35.523V35.52ZM29.5892 35.52C29.3276 35.5201 29.0741 35.611 28.8719 35.777C28.6697 35.9431 28.5313 36.1742 28.4804 36.4308C28.4295 36.6875 28.4691 36.9539 28.5925 37.1846C28.716 37.4153 28.9156 37.596 29.1574 37.6961C29.3991 37.7961 29.6681 37.8092 29.9185 37.7332C30.1688 37.6571 30.3851 37.4966 30.5304 37.279C30.6757 37.0614 30.741 36.8001 30.7153 36.5398C30.6895 36.2794 30.5743 36.036 30.3892 35.851C30.1766 35.6399 29.8888 35.522 29.5892 35.523V35.52ZM32.9802 35.52C32.7186 35.5201 32.4651 35.611 32.2629 35.777C32.0607 35.9431 31.9223 36.1742 31.8714 36.4308C31.8205 36.6875 31.8601 36.9539 31.9835 37.1846C32.107 37.4153 32.3066 37.596 32.5484 37.6961C32.7901 37.7961 33.0591 37.8092 33.3095 37.7332C33.5598 37.6571 33.7761 37.4966 33.9214 37.279C34.0667 37.0614 34.132 36.8001 34.1063 36.5398C34.0805 36.2794 33.9653 36.036 33.7802 35.851C33.5678 35.6402 33.2805 35.5222 32.9812 35.523L32.9802 35.52ZM36.3712 35.52C36.1096 35.5201 35.8561 35.611 35.6539 35.777C35.4517 35.9431 35.3133 36.1742 35.2624 36.4308C35.2115 36.6875 35.2511 36.9539 35.3745 37.1846C35.498 37.4153 35.6976 37.596 35.9394 37.6961C36.1811 37.7961 36.4501 37.8092 36.7005 37.7332C36.9508 37.6571 37.1671 37.4966 37.3124 37.279C37.4577 37.0614 37.523 36.8001 37.4973 36.5398C37.4715 36.2794 37.3563 36.036 37.1712 35.851C36.9588 35.6402 36.6715 35.5222 36.3722 35.523L36.3712 35.52ZM39.7622 35.52C39.5006 35.5201 39.2471 35.611 39.0449 35.777C38.8427 35.9431 38.7043 36.1742 38.6534 36.4308C38.6025 36.6875 38.6421 36.9539 38.7655 37.1846C38.889 37.4153 39.0886 37.596 39.3303 37.6961C39.5721 37.7961 39.8411 37.8092 40.0915 37.7332C40.3418 37.6571 40.5581 37.4966 40.7034 37.279C40.8487 37.0614 40.914 36.8001 40.8883 36.5398C40.8625 36.2794 40.7473 36.036 40.5622 35.851C40.3498 35.6402 40.0625 35.5222 39.7632 35.523L39.7622 35.52ZM43.1532 35.52C42.8916 35.5201 42.6381 35.611 42.4359 35.777C42.2337 35.9431 42.0953 36.1742 42.0444 36.4308C41.9935 36.6875 42.0331 36.9539 42.1565 37.1846C42.28 37.4153 42.4796 37.596 42.7214 37.6961C42.9631 37.7961 43.2321 37.8092 43.4825 37.7332C43.7328 37.6571 43.9491 37.4966 44.0944 37.279C44.2397 37.0614 44.305 36.8001 44.2793 36.5398C44.2535 36.2794 44.1383 36.036 43.9532 35.851C43.7411 35.6404 43.4541 35.5225 43.1552 35.523L43.1532 35.52ZM46.5442 35.52C46.2826 35.5201 46.0291 35.611 45.8269 35.777C45.6247 35.9431 45.4863 36.1742 45.4354 36.4308C45.3845 36.6875 45.4241 36.9539 45.5475 37.1846C45.671 37.4153 45.8706 37.596 46.1124 37.6961C46.3541 37.7961 46.6231 37.8092 46.8735 37.7332C47.1238 37.6571 47.3401 37.4966 47.4854 37.279C47.6307 37.0614 47.696 36.8001 47.6703 36.5398C47.6445 36.2794 47.5293 36.036 47.3442 35.851C47.1321 35.6404 46.8451 35.5225 46.5462 35.523L46.5442 35.52ZM49.9352 35.52C49.6736 35.5201 49.4201 35.611 49.2179 35.777C49.0157 35.9431 48.8773 36.1742 48.8264 36.4308C48.7755 36.6875 48.8151 36.9539 48.9385 37.1846C49.062 37.4153 49.2616 37.596 49.5033 37.6961C49.7451 37.7961 50.0141 37.8092 50.2645 37.7332C50.5148 37.6571 50.7311 37.4966 50.8764 37.279C51.0217 37.0614 51.087 36.8001 51.0613 36.5398C51.0355 36.2794 50.9203 36.036 50.7352 35.851C50.5231 35.6404 50.2361 35.5225 49.9372 35.523L49.9352 35.52Z" fill="#1CBBDA"/>
</svg>
