<svg width="56" height="56" viewBox="0 0 56 56" fill="none" xmlns="http://www.w3.org/2000/svg">
<path d="M5.85023 4C4.95161 4.00238 4.09048 4.3604 3.45505 4.99582C2.81963 5.63125 2.4616 6.49238 2.45923 7.391V41.304C2.4616 42.2026 2.81963 43.0638 3.45505 43.6992C4.09048 44.3346 4.95161 44.6926 5.85023 44.695H30.0332C29.8408 43.9536 29.7117 43.1972 29.6472 42.434H5.85023C5.5507 42.4335 5.26358 42.3142 5.05178 42.1024C4.83998 41.8906 4.72076 41.6035 4.72023 41.304V13.043H47.6762V28.527C48.4604 28.8032 49.2173 29.1513 49.9372 29.567V7.391C49.9349 6.49238 49.5768 5.63125 48.9414 4.99582C48.306 4.3604 47.4448 4.00238 46.5462 4H5.85023ZM5.85023 6.261H46.5502C46.8498 6.26153 47.1369 6.38075 47.3487 6.59255C47.5605 6.80435 47.6797 7.09147 47.6802 7.391V10.779H4.71923V7.391C4.71976 7.09129 4.83912 6.80403 5.05114 6.5922C5.26315 6.38037 5.55052 6.26126 5.85023 6.261ZM6.98023 7.391C6.71884 7.39122 6.46561 7.48205 6.26367 7.64802C6.06174 7.81398 5.92358 8.04483 5.87274 8.30123C5.82191 8.55762 5.86153 8.82372 5.98486 9.05418C6.1082 9.28464 6.30762 9.46522 6.54915 9.56515C6.79068 9.66509 7.05939 9.6782 7.3095 9.60225C7.55961 9.5263 7.77566 9.36599 7.92084 9.14863C8.06602 8.93126 8.13136 8.67029 8.10572 8.41016C8.08008 8.15003 7.96505 7.90684 7.78023 7.722C7.56832 7.51008 7.28092 7.39102 6.98123 7.391H6.98023ZM10.3712 7.391C10.1098 7.39122 9.85661 7.48205 9.65467 7.64802C9.45273 7.81398 9.31458 8.04483 9.26374 8.30123C9.21291 8.55762 9.25253 8.82372 9.37586 9.05418C9.4992 9.28464 9.69862 9.46522 9.94015 9.56515C10.1817 9.66509 10.4504 9.6782 10.7005 9.60225C10.9506 9.5263 11.1667 9.36599 11.3118 9.14863C11.457 8.93126 11.5224 8.67029 11.4967 8.41016C11.4711 8.15003 11.3561 7.90684 11.1712 7.722C10.9593 7.51008 10.6719 7.39102 10.3722 7.391H10.3712ZM13.7622 7.391C13.5008 7.39122 13.2476 7.48205 13.0457 7.64802C12.8437 7.81398 12.7056 8.04483 12.6547 8.30123C12.6039 8.55762 12.6435 8.82372 12.7669 9.05418C12.8902 9.28464 13.0896 9.46522 13.3311 9.56515C13.5727 9.66509 13.8414 9.6782 14.0915 9.60225C14.3416 9.5263 14.5577 9.36599 14.7028 9.14863C14.848 8.93126 14.9134 8.67029 14.8877 8.41016C14.8621 8.15003 14.7471 7.90684 14.5622 7.722C14.3503 7.51008 14.0629 7.39102 13.7632 7.391H13.7622ZM43.1542 30C40.9193 30 38.7346 30.6627 36.8763 31.9044C35.018 33.1461 33.5697 34.9109 32.7144 36.9757C31.8591 39.0405 31.6353 41.3125 32.0714 43.5045C32.5074 45.6965 33.5836 47.71 35.1639 49.2903C36.7443 50.8706 38.7577 51.9469 40.9497 52.3829C43.1417 52.8189 45.4137 52.5951 47.4785 51.7398C49.5434 50.8846 51.3082 49.4362 52.5498 47.5779C53.7915 45.7197 54.4542 43.5349 54.4542 41.3C54.4442 38.3061 53.2505 35.4378 51.1335 33.3208C49.0165 31.2038 46.1481 30.01 43.1542 30V30ZM43.1542 32.261C44.9428 32.261 46.6911 32.7914 48.1782 33.785C49.6654 34.7787 50.8244 36.191 51.5089 37.8434C52.1933 39.4958 52.3724 41.314 52.0235 43.0682C51.6745 44.8224 50.8133 46.4337 49.5486 47.6984C48.2839 48.9631 46.6726 49.8243 44.9184 50.1732C43.1643 50.5222 41.346 50.3431 39.6936 49.6586C38.0412 48.9742 36.6289 47.8151 35.6353 46.328C34.6416 44.8409 34.1112 43.0925 34.1112 41.304C34.1184 38.9078 35.0734 36.6119 36.7677 34.9175C38.4621 33.2232 40.7581 32.2681 43.1542 32.261V32.261ZM38.6322 40.174C38.3708 40.1742 38.1176 40.265 37.9157 40.431C37.7137 40.597 37.5756 40.8278 37.5247 41.0842C37.4739 41.3406 37.5135 41.6067 37.6369 41.8372C37.7602 42.0676 37.9596 42.2482 38.2011 42.3482C38.4427 42.4481 38.7114 42.4612 38.9615 42.3852C39.2116 42.3093 39.4277 42.149 39.5728 41.9316C39.718 41.7143 39.7834 41.4533 39.7577 41.1932C39.7321 40.933 39.6171 40.6898 39.4322 40.505C39.2203 40.2931 38.9329 40.174 38.6332 40.174H38.6322ZM43.1542 40.174C42.8928 40.1742 42.6396 40.265 42.4377 40.431C42.2357 40.597 42.0976 40.8278 42.0467 41.0842C41.9959 41.3406 42.0355 41.6067 42.1589 41.8372C42.2822 42.0676 42.4816 42.2482 42.7231 42.3482C42.9647 42.4481 43.2334 42.4612 43.4835 42.3852C43.7336 42.3093 43.9497 42.149 44.0948 41.9316C44.24 41.7143 44.3054 41.4533 44.2797 41.1932C44.2541 40.933 44.1391 40.6898 43.9542 40.505C43.8492 40.3999 43.7245 40.3166 43.5872 40.2598C43.4499 40.203 43.3028 40.1739 43.1542 40.174V40.174ZM47.6762 40.174C47.4148 40.1742 47.1616 40.265 46.9597 40.431C46.7577 40.597 46.6196 40.8278 46.5687 41.0842C46.5179 41.3406 46.5575 41.6067 46.6809 41.8372C46.8042 42.0676 47.0036 42.2482 47.2451 42.3482C47.4867 42.4481 47.7554 42.4612 48.0055 42.3852C48.2556 42.3093 48.4717 42.149 48.6168 41.9316C48.762 41.7143 48.8274 41.4533 48.8017 41.1932C48.7761 40.933 48.661 40.6898 48.4762 40.505C48.3712 40.3999 48.2465 40.3166 48.1092 40.2598C47.9719 40.203 47.8248 40.1739 47.6762 40.174V40.174Z" fill="#1CBBDA"/>
</svg>
