<svg width="56" height="56" viewBox="0 0 56 56" fill="none" xmlns="http://www.w3.org/2000/svg">
<path d="M33.497 53.5312H21.697C21.4318 53.5312 21.1775 53.4258 20.9899 53.2383C20.8024 53.0507 20.697 52.7964 20.697 52.5312V42.4312C20.697 42.1659 20.8024 41.9116 20.9899 41.7241C21.1775 41.5365 21.4318 41.4312 21.697 41.4312H33.497C33.7622 41.4312 34.0166 41.5365 34.2041 41.7241C34.3917 41.9116 34.497 42.1659 34.497 42.4312V52.5312C34.497 52.7964 34.3917 53.0507 34.2041 53.2383C34.0166 53.4258 33.7622 53.5312 33.497 53.5312ZM22.697 51.5312H32.497V43.4312H22.697V51.5312Z" fill="#1CBBDA"/>
<path d="M35.68 53.5288H19.52C19.2548 53.5288 19.0004 53.4235 18.8129 53.2359C18.6254 53.0484 18.52 52.794 18.52 52.5288C18.52 52.2636 18.6254 52.0093 18.8129 51.8217C19.0004 51.6342 19.2548 51.5288 19.52 51.5288H35.681C35.9462 51.5288 36.2006 51.6342 36.3881 51.8217C36.5757 52.0093 36.681 52.2636 36.681 52.5288C36.681 52.794 36.5757 53.0484 36.3881 53.2359C36.2006 53.4235 35.9462 53.5288 35.681 53.5288H35.68Z" fill="#1CBBDA"/>
<path d="M54.2 36.904H1C0.734784 36.904 0.480429 36.7986 0.292892 36.6111C0.105356 36.4236 0 36.1692 0 35.904V5.448C0.00105865 4.53386 0.364667 3.65746 1.01106 3.01106C1.65746 2.36467 2.53386 2.00106 3.448 2H51.748C52.6621 2.00106 53.5385 2.36467 54.1849 3.01106C54.8313 3.65746 55.1949 4.53386 55.196 5.448V35.904C55.196 36.1692 55.0906 36.4236 54.9031 36.6111C54.7156 36.7986 54.4612 36.904 54.196 36.904H54.2ZM2 34.904H53.2V5.448C53.1995 5.06413 53.0467 4.69613 52.7753 4.42469C52.5039 4.15325 52.1359 4.00053 51.752 4H3.452C3.06813 4.00053 2.70013 4.15325 2.42869 4.42469C2.15725 4.69613 2.00453 5.06413 2.004 5.448L2 34.904Z" fill="#1CBBDA"/>
<path d="M51.7519 43.4378H3.45191C2.53777 43.4367 1.66137 43.0732 1.01497 42.4268C0.368577 41.7804 0.0049649 40.9039 0.00390625 39.9898V35.9038C0.00390625 35.6386 0.109262 35.3843 0.296799 35.1967C0.484335 35.0092 0.73869 34.9038 1.00391 34.9038H54.2039C54.4691 34.9038 54.7235 35.0092 54.911 35.1967C55.0986 35.3843 55.2039 35.6386 55.2039 35.9038V39.9898C55.2028 40.9046 54.8387 41.7817 54.1914 42.4282C53.5442 43.0747 52.6667 43.4378 51.7519 43.4378V43.4378ZM1.9999 36.9038V39.9898C2.00043 40.3737 2.15316 40.7417 2.4246 41.0131C2.69604 41.2846 3.06404 41.4373 3.44791 41.4378H51.7479C52.1318 41.4373 52.4998 41.2846 52.7712 41.0131C53.0427 40.7417 53.1954 40.3737 53.1959 39.9898V36.9038H1.9999Z" fill="#1CBBDA"/>
<path d="M12.6599 20.0792L22.5369 14.9912V16.4602L14.2129 20.6332V20.6762L22.5369 24.8492V26.3182L12.6599 21.2302V20.0792Z" fill="#1CBBDA"/>
<path d="M23.929 27.1689L29.868 11.7349H31.3159L25.356 27.1689H23.929Z" fill="#1CBBDA"/>
<path d="M42.5391 21.2502L32.6621 26.3172V24.8482L41.0491 20.6752V20.6322L32.6621 16.4592V14.9902L42.5391 20.0572V21.2502Z" fill="#1CBBDA"/>
</svg>
