<svg width="56" height="56" viewBox="0 0 56 56" fill="none" xmlns="http://www.w3.org/2000/svg">
<path d="M27.8 1.39503C26.3747 1.39306 24.963 1.67232 23.6458 2.21682C22.3286 2.76132 21.1318 3.56036 20.1239 4.56816C19.116 5.57597 18.3168 6.77273 17.7722 8.08989C17.2276 9.40705 16.9482 10.8187 16.95 12.244V14.414H8.38705L8.27705 15.376L3.80005 54.557H17.853C17.9702 54.5765 18.0899 54.5765 18.207 54.557H27.618C27.7352 54.5765 27.8548 54.5765 27.972 54.557H37.383C37.5002 54.5765 37.6199 54.5765 37.737 54.557H51.8L47.2121 14.414H38.6491V12.244C38.6509 10.8188 38.3715 9.40721 37.827 8.09012C37.2824 6.77303 36.4833 5.57631 35.4756 4.56852C34.4678 3.56073 33.2711 2.76167 31.954 2.21711C30.6369 1.67255 29.2253 1.39319 27.8 1.39503V1.39503ZM27.8 3.56503C28.9423 3.55611 30.075 3.7745 31.132 4.20749C32.1891 4.64048 33.1495 5.27942 33.9573 6.08711C34.765 6.89479 35.4041 7.8551 35.8372 8.91212C36.2703 9.96914 36.4888 11.1018 36.48 12.244V14.414H19.12V12.244C19.1113 11.1018 19.3298 9.96914 19.7629 8.91212C20.196 7.8551 20.8351 6.89479 21.6428 6.08711C22.4506 5.27942 23.411 4.64048 24.4681 4.20749C25.5251 3.7745 26.6578 3.55611 27.8 3.56503V3.56503ZM10.324 16.584H16.95V19.049C16.5372 19.2878 16.2147 19.6561 16.0325 20.0968C15.8503 20.5375 15.8185 21.026 15.9421 21.4865C16.0657 21.9471 16.3378 22.3541 16.7162 22.6443C17.0946 22.9345 17.5582 23.0918 18.035 23.0918C18.5119 23.0918 18.9755 22.9345 19.3539 22.6443C19.7323 22.3541 20.0044 21.9471 20.128 21.4865C20.2516 21.026 20.2198 20.5375 20.0376 20.0968C19.8554 19.6561 19.5329 19.2878 19.12 19.049V16.584H36.479V19.049C36.0662 19.2878 35.7437 19.6561 35.5615 20.0968C35.3793 20.5375 35.3475 21.026 35.4711 21.4865C35.5947 21.9471 35.8668 22.3541 36.2452 22.6443C36.6236 22.9345 37.0872 23.0918 37.564 23.0918C38.0409 23.0918 38.5045 22.9345 38.8829 22.6443C39.2613 22.3541 39.5334 21.9471 39.657 21.4865C39.7806 21.026 39.7488 20.5375 39.5666 20.0968C39.3844 19.6561 39.0619 19.2878 38.6491 19.049V16.584H45.2751L49.3671 52.384H38.6491V35.028H27.967C27.8542 35.0082 27.7388 35.0082 27.626 35.028H16.95V52.387H6.23405L10.324 16.584ZM19.124 37.198H26.719V52.387H19.12L19.124 37.198ZM28.888 37.198H36.4831V52.387H28.885L28.888 37.198ZM23.463 43.708C23.212 43.7079 22.9687 43.7949 22.7746 43.9541C22.5805 44.1132 22.4476 44.3348 22.3986 44.581C22.3495 44.8272 22.3873 45.0827 22.5056 45.3042C22.6238 45.5256 22.8152 45.6992 23.0471 45.7953C23.279 45.8914 23.537 45.9042 23.7773 45.8314C24.0175 45.7586 24.2251 45.6048 24.3646 45.3961C24.5041 45.1874 24.567 44.9368 24.5424 44.687C24.5179 44.4372 24.4075 44.2036 24.23 44.026C24.129 43.9248 24.009 43.8445 23.8769 43.7897C23.7447 43.735 23.6031 43.7069 23.46 43.707L23.463 43.708ZM32.143 43.708C31.892 43.7079 31.6487 43.7949 31.4546 43.9541C31.2605 44.1132 31.1276 44.3348 31.0786 44.581C31.0295 44.8272 31.0673 45.0827 31.1856 45.3042C31.3038 45.5256 31.4952 45.6992 31.7271 45.7953C31.959 45.8914 32.217 45.9042 32.4573 45.8314C32.6975 45.7586 32.9051 45.6048 33.0446 45.3961C33.1841 45.1874 33.247 44.9368 33.2224 44.687C33.1979 44.4372 33.0875 44.2036 32.91 44.026C32.8089 43.9246 32.6887 43.8443 32.5564 43.7895C32.4241 43.7348 32.2822 43.7067 32.139 43.707L32.143 43.708Z" fill="#1CBBDA"/>
</svg>
