<svg width="56" height="56" viewBox="0 0 56 56" fill="none" xmlns="http://www.w3.org/2000/svg">
<path d="M27.2964 21.1252C28.6383 21.1252 29.9501 21.5231 31.0659 22.2686C32.1817 23.0142 33.0514 24.0738 33.5649 25.3136C34.0784 26.5534 34.2128 27.9177 33.951 29.2338C33.6892 30.55 33.043 31.759 32.0941 32.7079C31.1452 33.6568 29.9362 34.303 28.6201 34.5648C27.3039 34.8266 25.9397 34.6922 24.6999 34.1787C23.4601 33.6651 22.4004 32.7955 21.6549 31.6797C20.9093 30.5639 20.5114 29.2521 20.5114 27.9102C20.5054 27.0175 20.6768 26.1325 21.0157 25.3066C21.3545 24.4807 21.8541 23.7303 22.4853 23.0991C23.1166 22.4679 23.8669 21.9683 24.6928 21.6294C25.5187 21.2906 26.4037 21.1192 27.2964 21.1252V21.1252ZM27.2964 32.6952C28.5654 32.6952 29.7825 32.191 30.6799 31.2937C31.5772 30.3963 32.0814 29.1792 32.0814 27.9102C32.0814 26.6411 31.5772 25.424 30.6799 24.5266C29.7825 23.6293 28.5654 23.1252 27.2964 23.1252C26.0273 23.1252 24.8102 23.6293 23.9129 24.5266C23.0155 25.424 22.5114 26.6411 22.5114 27.9102C22.5114 29.1792 23.0155 30.3963 23.9129 31.2937C24.8102 32.191 26.0273 32.6952 27.2964 32.6952Z" fill="#1CBBDA"/>
<path d="M45.1745 22.9262C44.9094 23.1914 44.7444 23.5404 44.7077 23.9136C44.671 24.2868 44.7649 24.6613 44.9734 24.973C45.1818 25.2848 45.4919 25.5147 45.8508 25.6235C46.2097 25.7323 46.5952 25.7132 46.9416 25.5696C47.2881 25.426 47.574 25.1668 47.7508 24.836C47.9275 24.5052 47.984 24.1233 47.9107 23.7555C47.8375 23.3877 47.639 23.0567 47.349 22.8189C47.059 22.581 46.6956 22.4511 46.3205 22.4512C45.8906 22.4513 45.4784 22.6221 45.1745 22.9262V22.9262Z" fill="#1CBBDA"/>
<path d="M31.0306 45.5815C30.6553 45.5813 30.2915 45.7113 30.0013 45.9493C29.7111 46.1872 29.5124 46.5184 29.439 46.8865C29.3656 47.2546 29.4222 47.6367 29.599 47.9677C29.7758 48.2988 30.062 48.5582 30.4087 48.7019C30.7554 48.8456 31.1412 48.8647 31.5003 48.7558C31.8595 48.6469 32.1697 48.4168 32.3783 48.1048C32.5868 47.7928 32.6807 47.4181 32.6439 47.0446C32.6071 46.6711 32.442 46.3219 32.1766 46.0565C31.8726 45.7526 31.4604 45.5818 31.0306 45.5815V45.5815Z" fill="#1CBBDA"/>
<path d="M48.0415 21.1164C48.2651 21.1175 48.484 21.0513 48.6696 20.9265C48.8552 20.8017 48.9991 20.624 49.0825 20.4164C51.5385 14.2924 51.3645 9.39339 48.5925 6.61639C47.7782 5.85705 46.819 5.26998 45.7724 4.89039C44.7257 4.5108 43.6132 4.34652 42.5015 4.40739C39.9382 4.48421 37.4111 5.03376 35.0475 6.02839C32.432 7.07916 29.929 8.39078 27.5765 9.94339L27.3015 10.1194L27.0295 9.94239C24.6769 8.38977 22.174 7.07815 19.5585 6.02739C17.1938 5.0328 14.6657 4.48359 12.1015 4.40739C10.9899 4.34679 9.87746 4.5113 8.83098 4.89105C7.7845 5.27081 6.82549 5.85799 6.01146 6.61739C3.28146 9.34739 3.07246 14.1574 5.42246 20.1634C6.47317 22.7789 7.78479 25.2819 9.33746 27.6344L9.51346 27.9074L9.33646 28.1794C7.78378 30.5319 6.47215 33.0348 5.42146 35.6504C3.07246 41.6554 3.28146 46.4664 6.01146 49.1964C6.82538 49.956 7.78434 50.5434 8.83084 50.9233C9.87733 51.3033 10.9898 51.4679 12.1015 51.4074C14.6651 51.3306 17.1924 50.7811 19.5565 49.7864C25.2625 47.5534 31.4785 43.2504 37.0565 37.6684C39.2991 35.4332 41.3747 33.0365 43.2665 30.4974L43.7085 29.8974L44.0945 30.5304C45.2611 32.418 46.2616 34.4035 47.0845 36.4644C47.9711 38.5568 48.4683 40.7934 48.5515 43.0644C48.6104 43.8868 48.5035 44.7127 48.2373 45.4931C47.971 46.2735 47.5508 46.9925 47.0015 47.6074C46.3909 48.1549 45.6768 48.5746 44.9013 48.8417C44.1258 49.1088 43.3047 49.2178 42.4865 49.1624C40.124 49.0774 37.7984 48.5499 35.6305 47.6074C35.4929 47.5479 35.3448 47.5166 35.195 47.5153C35.0451 47.514 34.8965 47.5427 34.7579 47.5998C34.6194 47.6568 34.4936 47.7411 34.3881 47.8475C34.2827 47.954 34.1996 48.0805 34.1438 48.2196C34.088 48.3587 34.0607 48.5075 34.0633 48.6574C34.066 48.8072 34.0987 48.955 34.1595 49.092C34.2202 49.229 34.3078 49.3525 34.417 49.4551C34.5262 49.5577 34.6549 49.6373 34.7955 49.6894C37.2331 50.7418 39.8476 51.3247 42.5015 51.4074C43.6131 51.4678 44.7254 51.3029 45.7717 50.9228C46.818 50.5427 47.7768 49.9552 48.5905 49.1954C51.3205 46.4654 51.5295 41.6554 49.1795 35.6494C46.9465 29.9434 42.6425 23.7274 37.0615 18.1494C34.8261 15.9061 32.4297 13.8292 29.8915 11.9354L29.2915 11.4934L29.9245 11.1074C31.8131 9.94054 33.7995 8.94011 35.8615 8.11739C37.9617 7.22701 40.2076 6.73009 42.4875 6.65139C43.3056 6.59639 44.1265 6.70573 44.9018 6.97296C45.677 7.24019 46.391 7.65992 47.0015 8.20739C47.5607 8.83396 47.9868 9.56762 48.254 10.3639C48.5211 11.1601 48.6237 12.0023 48.5555 12.8394C48.4514 15.1612 47.9248 17.4445 47.0015 19.5774C46.9334 19.7476 46.908 19.932 46.9276 20.1143C46.9472 20.2966 47.0111 20.4714 47.1138 20.6233C47.2165 20.7752 47.3548 20.8997 47.5167 20.9858C47.6786 21.0719 47.8591 21.1171 48.0425 21.1174L48.0415 21.1164ZM12.1135 6.65139C14.3933 6.73 16.6393 7.22692 18.7395 8.11739C20.7996 8.9404 22.7844 9.94082 24.6715 11.1074L25.3015 11.4924L24.7015 11.9344C19.6284 15.7341 15.1251 20.2401 11.3285 25.3154L10.8865 25.9154L10.5015 25.2784C9.33482 23.3911 8.33439 21.4059 7.51146 19.3454C6.62478 17.253 6.12762 15.0163 6.04446 12.7454C5.98712 11.9233 6.09539 11.098 6.36284 10.3185C6.63029 9.53902 7.05148 8.82113 7.60146 8.20739C8.21171 7.66017 8.9253 7.24059 9.70019 6.97336C10.4751 6.70613 11.2956 6.59666 12.1135 6.65139V6.65139ZM27.3015 12.8274L27.5905 13.0274C30.4013 15.0366 33.0388 17.2778 35.4755 19.7274C37.9248 22.1624 40.166 24.7983 42.1755 27.6074L42.3805 27.8964L42.1755 28.1854C40.1673 30.9986 37.9261 33.6379 35.4755 36.0754C33.0404 38.5247 30.4045 40.7659 27.5955 42.7754L27.3015 42.9754L27.0125 42.7704C24.1995 40.7623 21.5605 38.521 19.1235 36.0704C16.6738 33.6338 14.4326 30.9962 12.4235 28.1854L12.2205 27.9074L12.4205 27.6184C16.4623 21.9985 21.3902 17.0723 27.0115 13.0324L27.3015 12.8274ZM10.8865 29.9074L11.3285 30.5074C13.2216 33.0452 15.2978 35.4413 17.5405 37.6764C19.7756 39.919 22.1724 41.9946 24.7115 43.8864L25.3115 44.3284L24.6775 44.7144C22.7897 45.881 20.8043 46.8814 18.7435 47.7044C16.6433 48.5951 14.3973 49.0924 12.1175 49.1714C11.2984 49.2256 10.4768 49.1151 9.70115 48.8465C8.92551 48.5779 8.21156 48.1565 7.60146 47.6074C7.05161 46.9927 6.63083 46.2738 6.36406 45.4934C6.09728 44.7131 5.98996 43.887 6.04846 43.0644C6.13162 40.7934 6.62878 38.5567 7.51546 36.4644C8.33731 34.4054 9.3364 32.4216 10.5015 30.5354L10.8865 29.9074Z" fill="#1CBBDA"/>
</svg>
