<svg width="56" height="56" viewBox="0 0 56 56" fill="none" xmlns="http://www.w3.org/2000/svg">
<path d="M55.0345 18.4081H0.965517C0.709446 18.4081 0.463863 18.3064 0.282793 18.1253C0.101724 17.9442 0 17.6986 0 17.4426C0 17.1865 0.101724 16.9409 0.282793 16.7598C0.463863 16.5788 0.709446 16.4771 0.965517 16.4771H55.0345C55.2906 16.4771 55.5361 16.5788 55.7172 16.7598C55.8983 16.9409 56 17.1865 56 17.4426C56 17.6986 55.8983 17.9442 55.7172 18.1253C55.5361 18.3064 55.2906 18.4081 55.0345 18.4081Z" fill="#1CBBDA"/>
<path d="M9.28433 13.2844C9.01095 13.2922 8.73915 13.2404 8.48775 13.1327C8.23634 13.025 8.01135 12.864 7.82833 12.6607C7.6251 12.4777 7.46405 12.2527 7.35636 12.0013C7.24866 11.7499 7.19689 11.4781 7.20461 11.2047C7.19689 10.9313 7.24866 10.6595 7.35636 10.4081C7.46405 10.1567 7.6251 9.93174 7.82833 9.74872L8.03592 9.54114C8.24351 9.54114 8.24351 9.33355 8.45206 9.33355C8.66061 9.125 8.66061 9.125 8.8682 9.125H9.70047C9.90806 9.125 9.90806 9.125 10.1166 9.33259C10.3242 9.33259 10.3242 9.54017 10.5327 9.54017L10.7403 9.74776C10.9479 9.95534 11.1565 10.1639 11.1565 10.3715C11.3213 10.6159 11.3947 10.9106 11.3641 11.2038C11.3947 11.497 11.3213 11.7916 11.1565 12.036C11.1565 12.2436 10.9489 12.4522 10.7403 12.6598C10.5574 12.8632 10.3325 13.0244 10.081 13.1323C9.82964 13.2401 9.5578 13.2921 9.28433 13.2844Z" fill="#1CBBDA"/>
<path d="M15.5228 13.2838C15.2494 13.2915 14.9776 13.2397 14.7262 13.132C14.4748 13.0244 14.2498 12.8633 14.0668 12.6601C13.8637 12.4772 13.7027 12.2523 13.595 12.0011C13.4873 11.7499 13.4355 11.4783 13.4431 11.205C13.4131 10.9128 13.4866 10.6193 13.6507 10.3757C13.8583 10.1681 13.8583 9.95952 14.0668 9.75193C14.2754 9.54435 14.4829 9.3358 14.6905 9.3358C15.064 9.1418 15.4913 9.0774 15.9053 9.15273C16.3194 9.22806 16.6967 9.43884 16.9778 9.75193C17.1854 9.95952 17.394 10.1681 17.394 10.3757C17.5588 10.6201 17.6323 10.9147 17.6016 11.2079C17.6093 11.4813 17.5575 11.7531 17.4498 12.0045C17.3421 12.2559 17.1811 12.4809 16.9778 12.6639C16.7946 12.8663 16.5696 13.0266 16.3184 13.1336C16.0672 13.2406 15.7957 13.2919 15.5228 13.2838V13.2838Z" fill="#1CBBDA"/>
<path d="M21.7618 13.2844C21.4686 13.3151 21.174 13.2416 20.9296 13.0768C20.722 12.8693 20.5134 12.8693 20.3058 12.6607C20.0983 12.4521 19.8897 12.2446 19.8897 12.037C19.7249 11.7925 19.6514 11.4979 19.6821 11.2047C19.6514 10.9115 19.7249 10.6169 19.8897 10.3724C20.0973 10.1648 20.0973 9.95629 20.3058 9.7487C20.4936 9.55161 20.7194 9.3947 20.9696 9.28749C21.2198 9.18028 21.4892 9.125 21.7614 9.125C22.0336 9.125 22.3029 9.18028 22.5531 9.28749C22.8033 9.3947 23.0291 9.55161 23.2169 9.7487C23.4245 9.95629 23.633 10.1648 23.633 10.3724C23.7978 10.6169 23.8713 10.9115 23.8406 11.2047C23.8713 11.4979 23.7978 11.7925 23.633 12.037C23.4254 12.2446 23.4254 12.4531 23.2169 12.6607C23.034 12.8638 22.8091 13.0248 22.5579 13.1325C22.3067 13.2402 22.0351 13.292 21.7618 13.2844V13.2844Z" fill="#1CBBDA"/>
<path d="M5.12497 4H50.875C52.2338 4.00153 53.5365 4.54198 54.4972 5.50276C55.458 6.46355 55.9985 7.76621 56 9.12497V46.5571C55.9985 47.9159 55.458 49.2185 54.4972 50.1793C53.5365 51.1401 52.2338 51.6805 50.875 51.6821H5.12497C3.76621 51.6805 2.46355 51.1401 1.50276 50.1793C0.541976 49.2185 0.0015333 47.9159 0 46.5571V9.12497C0.0015333 7.76621 0.541976 6.46355 1.50276 5.50276C2.46355 4.54198 3.76621 4.00153 5.12497 4V4ZM50.875 49.751C51.7219 49.7503 52.5338 49.4135 53.1326 48.8147C53.7314 48.2159 54.0682 47.404 54.069 46.5571V9.12497C54.0682 8.27812 53.7314 7.46617 53.1326 6.86736C52.5338 6.26855 51.7219 5.9318 50.875 5.93103H5.12497C4.27812 5.9318 3.46617 6.26855 2.86736 6.86736C2.26855 7.46617 1.9318 8.27812 1.93103 9.12497V46.5571C1.9318 47.404 2.26855 48.2159 2.86736 48.8147C3.46617 49.4135 4.27812 49.7503 5.12497 49.751H50.875Z" fill="#1CBBDA"/>
<path d="M17.6024 41.2836C17.3464 41.2835 17.1008 41.1817 16.9198 41.0007L10.6806 34.7625C10.4996 34.5814 10.3979 34.3359 10.3979 34.0798C10.3979 33.8238 10.4996 33.5783 10.6806 33.3972L16.9198 27.158C17.0089 27.0658 17.1154 26.9923 17.2332 26.9417C17.351 26.8911 17.4777 26.8644 17.6059 26.8633C17.7341 26.8622 17.8612 26.8866 17.9799 26.9352C18.0986 26.9837 18.2064 27.0554 18.297 27.1461C18.3877 27.2367 18.4594 27.3445 18.5079 27.4632C18.5565 27.5818 18.5809 27.709 18.5798 27.8372C18.5787 27.9654 18.552 28.0921 18.5014 28.2099C18.4508 28.3277 18.3773 28.4342 18.2851 28.5233L12.7285 34.0798L18.2841 39.6354C18.4191 39.7705 18.511 39.9425 18.5482 40.1297C18.5855 40.317 18.5664 40.5111 18.4933 40.6875C18.4202 40.8639 18.2965 41.0147 18.1378 41.1208C17.979 41.2269 17.7924 41.2835 17.6015 41.2836H17.6024Z" fill="#1CBBDA"/>
<path d="M38.3977 41.2833C38.2068 41.2832 38.0201 41.2266 37.8614 41.1205C37.7026 41.0144 37.5789 40.8636 37.5059 40.6872C37.4328 40.5108 37.4137 40.3167 37.4509 40.1295C37.4882 39.9422 37.5801 39.7702 37.7151 39.6351L43.2707 34.0796L37.7151 28.524C37.5392 28.3419 37.4419 28.098 37.4441 27.8448C37.4463 27.5917 37.5478 27.3495 37.7268 27.1705C37.9058 26.9915 38.148 26.8899 38.4012 26.8877C38.6543 26.8855 38.8982 26.9829 39.0803 27.1587L45.3195 33.3979C45.5005 33.579 45.6022 33.8245 45.6022 34.0805C45.6022 34.3365 45.5005 34.5821 45.3195 34.7631L39.0803 41.0004C38.8993 41.1815 38.6537 41.2832 38.3977 41.2833Z" fill="#1CBBDA"/>
<path d="M23.8408 43.363C23.6913 43.3627 23.5438 43.3277 23.4102 43.2607C23.2967 43.204 23.1956 43.1255 23.1125 43.0296C23.0294 42.9338 22.966 42.8226 22.9259 42.7022C22.8859 42.5819 22.8699 42.4549 22.8789 42.3284C22.8879 42.2019 22.9218 42.0784 22.9786 41.965L31.2955 25.3291C31.3523 25.2157 31.4308 25.1145 31.5266 25.0314C31.6224 24.9484 31.7337 24.885 31.854 24.8449C31.9743 24.8048 32.1014 24.7888 32.2279 24.7979C32.3544 24.8069 32.4779 24.8408 32.5913 24.8975C32.8201 25.0121 32.9941 25.2128 33.075 25.4556C33.156 25.6984 33.1372 25.9633 33.0229 26.1923L24.704 42.8291C24.6238 42.9895 24.5006 43.1243 24.3482 43.2186C24.1957 43.3129 24.02 43.3629 23.8408 43.363V43.363Z" fill="#1CBBDA"/>
</svg>
