<svg width="56" height="56" viewBox="0 0 56 56" fill="none" xmlns="http://www.w3.org/2000/svg">
<path d="M29.194 36.562H27.394V55.462H29.194V36.562Z" fill="#1CBBDA"/>
<path d="M24.694 36.562H22.894V50.962H24.694V36.562Z" fill="#1CBBDA"/>
<path d="M20.194 44.6621H18.394V46.4621H20.194V44.6621Z" fill="#1CBBDA"/>
<path d="M20.194 36.562H18.394V42.862H20.194V36.562Z" fill="#1CBBDA"/>
<path d="M33.694 49.1631H31.894V50.9631H33.694V49.1631Z" fill="#1CBBDA"/>
<path d="M33.694 36.562H31.894V47.362H33.694V36.562Z" fill="#1CBBDA"/>
<path d="M38.194 36.562H36.394V46.462H38.194V36.562Z" fill="#1CBBDA"/>
<path d="M28.2939 22.162C31.7733 22.162 34.5939 19.3414 34.5939 15.862C34.5939 12.3826 31.7733 9.56201 28.2939 9.56201C24.8145 9.56201 21.9939 12.3826 21.9939 15.862C21.9939 19.3414 24.8145 22.162 28.2939 22.162Z" fill="#1CBBDA"/>
<path d="M39.094 22.295V16.388C39.1014 13.5919 38.3996 10.8396 37.0542 8.38838C35.7088 5.9372 33.7638 3.86723 31.401 2.37202L28.294 0.39502L25.187 2.37102C22.8243 3.86653 20.8794 5.9367 19.534 8.38802C18.1886 10.8393 17.4868 13.5918 17.494 16.388V22.295C15.2132 22.7349 13.1568 23.9556 11.6785 25.7474C10.2003 27.5393 9.39247 29.7901 9.39405 32.113V42.863H11.194C11.1954 41.4313 11.7647 40.0585 12.7771 39.0461C13.7895 38.0337 15.1623 37.4643 16.594 37.463H39.994C41.4258 37.4643 42.7986 38.0337 43.811 39.0461C44.8234 40.0585 45.3927 41.4313 45.394 42.863H47.194V32.113C47.1956 29.7901 46.3878 27.5393 44.9095 25.7474C43.4313 23.9556 41.3749 22.7349 39.094 22.295V22.295ZM26.154 3.89502L28.294 2.53402L30.434 3.89502C32.5413 5.22843 34.2758 7.07452 35.4756 9.26061C36.6753 11.4467 37.301 13.9014 37.294 16.395V27.562H19.294V16.388C19.2886 13.8956 19.9149 11.4425 21.1146 9.25775C22.3142 7.07303 24.048 5.22801 26.154 3.89502V3.89502ZM16.594 35.667C15.572 35.6667 14.5616 35.8845 13.6304 36.3058C12.6992 36.7271 11.8686 37.3422 11.194 38.11V32.113C11.1929 30.2687 11.8143 28.4779 12.9577 27.0307C14.1011 25.5835 15.6995 24.5646 17.494 24.139V35.662L16.594 35.667ZM19.294 35.667V29.367H37.294V35.667H19.294ZM45.394 38.11C44.7195 37.3422 43.8888 36.7271 42.9576 36.3059C42.0265 35.8846 41.0161 35.6668 39.994 35.667H39.094V24.138C40.8885 24.5638 42.4868 25.5827 43.6302 27.0299C44.7735 28.477 45.395 30.2677 45.394 32.112V38.105V38.11Z" fill="#1CBBDA"/>
<path d="M4.89395 7.76221H3.09395V9.56221H1.29395V11.3622H3.09395V13.1622H4.89395V11.3622H6.69395V9.56221H4.89395V7.76221Z" fill="#1CBBDA"/>
<path d="M9.39897 9.56182H11.199V6.86182H13.899V5.06182H11.199V2.36182H9.39897V5.06182H6.69897V6.86182H9.39897V9.56182Z" fill="#1CBBDA"/>
<path d="M12.994 17.6622V15.8622H14.794V14.0622H12.994V12.2622H11.194V14.0622H9.39404V15.8622H11.194V17.6622H12.994Z" fill="#1CBBDA"/>
<path d="M44.4939 12.2618H46.2938V10.4618H48.0938V8.66182H46.2938V6.86182H44.4939V8.66182H42.6938V10.4618H44.4939V12.2618Z" fill="#1CBBDA"/>
<path d="M55.294 14.9622H52.594V12.2622H50.794V14.9622H48.094V16.7622H50.794V19.4622H52.594V16.7622H55.294V14.9622Z" fill="#1CBBDA"/>
<path d="M42.694 20.3619H44.494V18.5619H46.294V16.7619H44.494V14.9619H42.694V16.7619H40.894V18.5619H42.694V20.3619Z" fill="#1CBBDA"/>
</svg>
