<svg width="56" height="56" viewBox="0 0 56 56" fill="none" xmlns="http://www.w3.org/2000/svg">
<path d="M39.768 11.1464C39.8847 11.2287 40.0168 11.2867 40.1563 11.3171C40.2959 11.3475 40.4401 11.3496 40.5805 11.3233C40.7209 11.297 40.8546 11.2429 40.9737 11.1641C41.0928 11.0852 41.1949 10.9833 41.274 10.8644C41.3955 10.6874 41.4632 10.479 41.469 10.2644C41.4707 10.0319 41.3979 9.80502 41.2612 9.61694C41.1246 9.42886 40.9313 9.2895 40.7096 9.21928C40.488 9.14905 40.2497 9.15167 40.0297 9.22674C39.8097 9.3018 39.6195 9.44538 39.487 9.63641C39.3692 9.81715 39.3054 10.0277 39.303 10.2434C39.2991 10.4204 39.3398 10.5956 39.4212 10.7528C39.5026 10.9101 39.6222 11.0444 39.769 11.1434L39.768 11.1464Z" fill="#1CBBDA"/>
<path d="M43.7119 13.0426C43.8979 12.8376 44.0019 12.5713 44.0039 12.2946C44.0039 12.1485 43.9741 12.0041 43.9163 11.8699C43.8585 11.7358 43.774 11.6149 43.6679 11.5146C43.4576 11.3174 43.1779 11.2114 42.8898 11.2197C42.6017 11.2279 42.3286 11.3497 42.1299 11.5586C41.9418 11.7622 41.8375 12.0293 41.8379 12.3066C41.8375 12.4537 41.8682 12.5992 41.928 12.7336C41.9878 12.8681 42.0754 12.9883 42.1849 13.0866C42.3941 13.2819 42.6719 13.3868 42.958 13.3785C43.244 13.3703 43.5153 13.2496 43.7129 13.0426H43.7119Z" fill="#1CBBDA"/>
<path d="M50.287 23.2795C50.232 23.0165 50.0812 22.7833 49.864 22.6251C49.6468 22.467 49.3786 22.3952 49.1114 22.4236C48.8442 22.452 48.5971 22.5786 48.418 22.7788C48.2389 22.9791 48.1405 23.2388 48.142 23.5074C48.1434 23.5803 48.1508 23.6528 48.164 23.7245C48.1859 23.8306 48.2262 23.9321 48.283 24.0244C47.3395 24.3657 46.5536 25.0404 46.0735 25.9214C45.5934 26.8024 45.4524 27.8286 45.6771 28.8064C45.9018 29.7842 46.4766 30.646 47.2931 31.229C48.1096 31.812 49.1113 32.076 50.1091 31.9711C51.1069 31.8663 52.0317 31.3998 52.7092 30.6597C53.3866 29.9197 53.7697 28.9573 53.7862 27.9541C53.8027 26.951 53.4514 25.9765 52.7986 25.2146C52.1459 24.4527 51.2368 23.956 50.243 23.8185C50.2768 23.7133 50.295 23.6038 50.297 23.4935C50.3046 23.421 50.3012 23.3479 50.287 23.2765V23.2795ZM51.62 27.8945C51.62 28.2801 51.5056 28.6571 51.2914 28.9778C51.0771 29.2985 50.7726 29.5484 50.4162 29.696C50.0599 29.8436 49.6678 29.8822 49.2896 29.807C48.9113 29.7317 48.5639 29.546 48.2912 29.2733C48.0184 29.0006 47.8327 28.6531 47.7575 28.2749C47.6822 27.8966 47.7209 27.5045 47.8685 27.1482C48.016 26.7919 48.266 26.4874 48.5867 26.2731C48.9073 26.0588 49.2843 25.9445 49.67 25.9445C50.1865 25.9463 50.6813 26.1524 51.0465 26.5177C51.4116 26.883 51.6174 27.3779 51.619 27.8945H51.62Z" fill="#1CBBDA"/>
<path d="M47.9369 19.3628C47.7287 19.4416 47.5498 19.5827 47.4245 19.7668C47.2993 19.9509 47.2338 20.1691 47.2369 20.3917C47.2374 20.5172 47.2594 20.6417 47.3019 20.7597C47.3803 20.9661 47.5196 21.1437 47.7015 21.2688C47.8834 21.3939 48.0992 21.4605 48.3199 21.4598C48.4502 21.4617 48.5794 21.4358 48.6989 21.3838C48.9065 21.3073 49.0853 21.1683 49.2107 20.986C49.336 20.8037 49.4018 20.587 49.3989 20.3657C49.3984 20.2367 49.3764 20.1086 49.3339 19.9868C49.2283 19.7203 49.0229 19.5056 48.7615 19.3883C48.5 19.2711 48.2031 19.2604 47.9339 19.3587L47.9369 19.3628Z" fill="#1CBBDA"/>
<path d="M44.4589 13.8557C44.3301 13.9563 44.2252 14.0843 44.152 14.2305C44.0789 14.3767 44.0392 14.5373 44.0359 14.7007C44.0338 14.9454 44.118 15.1831 44.2739 15.3717C44.3756 15.502 44.5054 15.6077 44.6536 15.681C44.8018 15.7542 44.9646 15.7931 45.1299 15.7947C45.3713 15.7951 45.6052 15.7109 45.7909 15.5567C45.9183 15.4548 46.022 15.3264 46.095 15.1806C46.168 15.0347 46.2086 14.8748 46.2139 14.7117C46.2161 14.467 46.1318 14.2294 45.9759 14.0407C45.8889 13.9283 45.7805 13.8343 45.6569 13.7641C45.5333 13.6939 45.397 13.649 45.2559 13.6318C45.1148 13.6147 44.9717 13.6258 44.8348 13.6644C44.698 13.703 44.5703 13.7684 44.4589 13.8567V13.8557Z" fill="#1CBBDA"/>
<path d="M46.409 16.4773C46.2408 16.5677 46.1004 16.7023 46.003 16.8665C45.9055 17.0307 45.8547 17.2184 45.856 17.4093C45.8552 17.5524 45.8826 17.6943 45.9367 17.8268C45.9907 17.9592 46.0704 18.0798 46.171 18.1815C46.2717 18.2832 46.3915 18.364 46.5234 18.4194C46.6553 18.4748 46.7969 18.5037 46.94 18.5043C47.1263 18.505 47.3095 18.4564 47.471 18.3633C47.6353 18.2684 47.7725 18.1328 47.8693 17.9696C47.9662 17.8064 48.0194 17.621 48.024 17.4313C48.0245 17.2415 47.976 17.0548 47.883 16.8893C47.742 16.6394 47.5076 16.4556 47.2312 16.3784C46.9549 16.3011 46.6591 16.3367 46.409 16.4773V16.4773Z" fill="#1CBBDA"/>
<path d="M8.04785 18.1775C7.97407 18.3215 7.93697 18.4816 7.93985 18.6435C7.94008 18.8478 7.99826 19.0479 8.10765 19.2205C8.21705 19.393 8.37316 19.5311 8.55785 19.6185C8.70236 19.6911 8.86213 19.7281 9.02385 19.7265C9.22819 19.7262 9.42826 19.668 9.60085 19.5587C9.77343 19.4493 9.91145 19.2932 9.99886 19.1085C10.0703 18.9635 10.1073 18.8041 10.1069 18.6425C10.1066 18.3972 10.0231 18.1593 9.86989 17.9678C9.71672 17.7762 9.50301 17.6424 9.26381 17.5882C9.02461 17.5341 8.77409 17.5628 8.55335 17.6697C8.3326 17.7765 8.15472 17.9552 8.04885 18.1765L8.04785 18.1775Z" fill="#1CBBDA"/>
<path d="M12.6961 14.3647C12.8448 14.3652 12.992 14.3346 13.1282 14.2748C13.2645 14.2151 13.3867 14.1275 13.4871 14.0177C13.6823 13.8085 13.7872 13.5307 13.779 13.2446C13.7708 12.9586 13.6501 12.6873 13.4431 12.4897C13.2882 12.3455 13.0947 12.2496 12.8863 12.2136C12.6778 12.1776 12.4634 12.2032 12.2692 12.2871C12.075 12.371 11.9094 12.5096 11.7927 12.686C11.676 12.8625 11.6132 13.0691 11.6121 13.2807C11.6151 13.4289 11.6473 13.575 11.7068 13.7107C11.7664 13.8464 11.8521 13.9691 11.959 14.0717C12.1587 14.2591 12.4222 14.3635 12.6961 14.3637V14.3647Z" fill="#1CBBDA"/>
<path d="M6.80387 21.3636C6.77325 21.4692 6.75841 21.5787 6.75986 21.6886C6.76035 21.92 6.83543 22.1451 6.97396 22.3305C7.11248 22.5159 7.30709 22.6516 7.52887 22.7176C7.63054 22.7489 7.73653 22.7638 7.84287 22.7616C8.07479 22.7633 8.30089 22.689 8.48667 22.5502C8.67245 22.4113 8.80772 22.2155 8.87186 21.9926V22.0036C8.90564 21.8985 8.92384 21.789 8.92586 21.6786C8.92408 21.4195 8.82972 21.1696 8.6598 20.974C8.48987 20.7783 8.25561 20.6499 7.99929 20.6119C7.74297 20.5738 7.4815 20.6287 7.26209 20.7666C7.04269 20.9044 6.8798 21.1162 6.80286 21.3636H6.80387Z" fill="#1CBBDA"/>
<path d="M9.75993 15.2107C9.64164 15.3886 9.5777 15.5971 9.57593 15.8107C9.57572 15.9885 9.61789 16.1638 9.69893 16.322C9.77997 16.4803 9.89755 16.617 10.0419 16.7207C10.2238 16.8449 10.4398 16.9092 10.6599 16.9047C10.8346 16.9046 11.0066 16.8622 11.1613 16.781C11.316 16.6999 11.4486 16.5824 11.5479 16.4387C11.6302 16.322 11.6882 16.1899 11.7186 16.0504C11.749 15.9108 11.7511 15.7666 11.7248 15.6262C11.6986 15.4858 11.6444 15.3521 11.5656 15.233C11.4868 15.1139 11.3849 15.0118 11.2659 14.9327C11.149 14.8508 11.017 14.7931 10.8775 14.763C10.738 14.7328 10.5939 14.7308 10.4536 14.7571C10.3134 14.7834 10.1798 14.8373 10.0606 14.9159C9.94152 14.9945 9.83928 15.0961 9.75993 15.2147V15.2107Z" fill="#1CBBDA"/>
<path d="M17.2889 8.31941C17.1207 8.40979 16.9803 8.54433 16.8829 8.70856C16.7854 8.87278 16.7346 9.06046 16.7359 9.25141C16.7334 9.44172 16.7812 9.62932 16.8745 9.79523C16.9678 9.96115 17.1032 10.0995 17.267 10.1963C17.4309 10.2931 17.6174 10.3449 17.8078 10.3465C17.9981 10.3481 18.1854 10.2994 18.3509 10.2054C18.5166 10.1092 18.6545 9.97186 18.7514 9.80663C18.8483 9.6414 18.9009 9.45393 18.9039 9.26241C18.9033 9.07349 18.8533 8.88801 18.759 8.72433C18.6646 8.56065 18.5292 8.42445 18.366 8.32918C18.2029 8.23392 18.0177 8.18291 17.8288 8.1812C17.6399 8.17948 17.4538 8.22713 17.2889 8.31941V8.31941Z" fill="#1CBBDA"/>
<path d="M15.7719 11.9265C15.9008 11.8243 16.0049 11.6941 16.0763 11.5459C16.1476 11.3976 16.1844 11.2351 16.1839 11.0705C16.1832 10.8277 16.1031 10.5917 15.9559 10.3985C15.8145 10.2247 15.6231 10.0986 15.4076 10.0373C15.192 9.97597 14.9629 9.98244 14.7512 10.0558C14.5395 10.1292 14.3555 10.2659 14.2241 10.4474C14.0927 10.629 14.0204 10.8465 14.0169 11.0705C14.0145 11.3156 14.0988 11.5536 14.2549 11.7425C14.4325 11.9669 14.6915 12.112 14.9756 12.1465C15.2596 12.1809 15.5458 12.1019 15.7719 11.9265V11.9265Z" fill="#1CBBDA"/>
<path d="M2.80497 27.8978C2.80132 28.6935 3.02833 29.4732 3.45854 30.1425C3.88874 30.8119 4.50371 31.3423 5.22903 31.6695C5.95435 31.9967 6.75896 32.1067 7.54548 31.9862C8.33201 31.8656 9.06675 31.5198 9.66083 30.9904C10.2549 30.4611 10.6829 29.7709 10.8929 29.0034C11.1029 28.2359 11.0861 27.424 10.8444 26.6659C10.6026 25.9078 10.1464 25.236 9.53085 24.7318C8.91531 24.2276 8.16683 23.9125 7.37597 23.8248C7.34297 23.8138 7.32197 23.8028 7.28897 23.7918C7.25597 23.7808 7.20198 23.8028 7.15898 23.8028C7.08298 23.8028 7.00697 23.7808 6.92097 23.7808C6.38033 23.7806 5.84496 23.887 5.34546 24.0939C4.84596 24.3008 4.39212 24.604 4.00987 24.9864C3.62762 25.3687 3.32448 25.8226 3.11773 26.3222C2.91099 26.8217 2.80471 27.3571 2.80497 27.8978V27.8978ZM6.92198 25.9478C7.30765 25.9478 7.68466 26.0621 8.00534 26.2764C8.32601 26.4907 8.57595 26.7952 8.72354 27.1515C8.87113 27.5079 8.90974 27.8999 8.8345 28.2782C8.75926 28.6564 8.57355 29.0039 8.30084 29.2766C8.02813 29.5493 7.68066 29.735 7.3024 29.8103C6.92413 29.8855 6.53206 29.8469 6.17575 29.6993C5.81943 29.5517 5.51488 29.3018 5.30061 28.9811C5.08634 28.6604 4.97198 28.2834 4.97198 27.8978C4.97304 27.3807 5.17875 26.8851 5.54416 26.5194C5.90957 26.1536 6.40495 25.9474 6.92198 25.9458V25.9478Z" fill="#1CBBDA"/>
<path d="M3.37894 10.1295H8.43794C8.72493 10.1288 8.99994 10.0144 9.20287 9.81147C9.4058 9.60854 9.52016 9.33353 9.52095 9.04655V7.59455H19.726C19.7007 7.68658 19.6859 7.78119 19.6819 7.87655C19.6917 8.00552 19.7172 8.13281 19.7579 8.25555C19.8352 8.45991 19.973 8.6358 20.153 8.75965C20.333 8.8835 20.5465 8.94941 20.7649 8.94855C20.8976 8.948 21.0293 8.92606 21.1549 8.88355C21.4077 8.79275 21.616 8.60846 21.7369 8.36864C21.8579 8.12883 21.8822 7.85177 21.8049 7.59455H23.0399C23.1394 7.73128 23.2696 7.84271 23.42 7.91984C23.5704 7.99697 23.7369 8.03763 23.9059 8.03855C23.9826 8.04207 24.0594 8.03466 24.1339 8.01655C24.2461 7.9941 24.3528 7.94994 24.448 7.88655C24.7401 8.71031 25.2878 9.41915 26.0112 9.90965C26.7347 10.4001 27.5959 10.6466 28.4693 10.6131C29.3427 10.5796 30.1825 10.2679 30.8662 9.72344C31.5499 9.17898 32.0418 8.43026 32.2699 7.58655H33.4699C33.4984 7.78578 33.5828 7.97288 33.7132 8.12614C33.8436 8.27941 34.0148 8.39259 34.2069 8.45255C34.3089 8.48242 34.4147 8.49724 34.521 8.49655C34.7528 8.4986 34.9792 8.42588 35.1665 8.28917C35.3539 8.15246 35.4922 7.95903 35.5609 7.73755C35.5719 7.68355 35.5719 7.62955 35.5829 7.58555H37.2079C36.9387 7.67788 36.7166 7.87262 36.59 8.12755C36.5173 8.27596 36.4803 8.43931 36.4819 8.60455C36.4822 8.80889 36.5404 9.00896 36.6497 9.18154C36.7591 9.35413 36.9153 9.49214 37.0999 9.57955C37.2445 9.65216 37.4042 9.68919 37.5659 9.68755C37.7703 9.68732 37.9704 9.62914 38.1429 9.51974C38.3155 9.41035 38.4535 9.25424 38.5409 9.06955C38.6124 8.92462 38.6493 8.76513 38.6489 8.60355C38.6487 8.39921 38.5905 8.19914 38.4811 8.02656C38.3717 7.85397 38.2156 7.71596 38.0309 7.62855C37.9729 7.60249 37.9105 7.58756 37.8469 7.58455H47.077V9.03455C47.0777 9.32153 47.1921 9.59654 47.395 9.79947C47.598 10.0024 47.873 10.1168 48.1599 10.1175H53.2099C53.4969 10.117 53.772 10.0029 53.9752 9.80018C54.1783 9.59744 54.2929 9.32254 54.2939 9.03555V3.98655C54.2932 3.69956 54.1788 3.42456 53.9759 3.22163C53.7729 3.0187 53.4979 2.90434 53.211 2.90355H48.1539C47.867 2.90434 47.592 3.0187 47.389 3.22163C47.1861 3.42456 47.0717 3.69956 47.0709 3.98655V5.42755H32.2509C32.0174 4.55746 31.5033 3.78871 30.7885 3.24044C30.0736 2.69218 29.1979 2.39502 28.297 2.39502C27.3961 2.39502 26.5203 2.69218 25.8054 3.24044C25.0906 3.78871 24.5765 4.55746 24.3429 5.42755H9.52295V3.98755C9.52216 3.70056 9.4078 3.42556 9.20486 3.22263C9.00193 3.0197 8.72693 2.90534 8.43994 2.90455H3.37994C3.09269 2.90481 2.81722 3.01876 2.61373 3.22151C2.41024 3.42425 2.29527 3.6993 2.29395 3.98655V9.04455C2.29474 9.33153 2.40909 9.60654 2.61202 9.80947C2.81495 10.0124 3.08996 10.1268 3.37695 10.1275L3.37894 10.1295ZM49.2369 5.07055H52.129V7.96355H49.2359L49.2369 5.07055ZM28.2939 4.56055C28.6796 4.56055 29.0566 4.67491 29.3773 4.88918C29.698 5.10345 29.9479 5.408 30.0955 5.76432C30.2431 6.12064 30.2817 6.51271 30.2065 6.89098C30.1312 7.26924 29.9455 7.61669 29.6728 7.8894C29.4001 8.16212 29.0526 8.34784 28.6744 8.42308C28.2961 8.49832 27.904 8.4597 27.5477 8.31211C27.1914 8.16452 26.8868 7.91459 26.6726 7.59391C26.4583 7.27323 26.3439 6.89623 26.3439 6.51055C26.3455 5.99387 26.5515 5.49879 26.9168 5.13344C27.2822 4.76808 27.7773 4.56213 28.2939 4.56055V4.56055ZM4.46095 5.06955H7.35394V7.96255H4.46095V5.06955Z" fill="#1CBBDA"/>
<path d="M29.378 12.7625C29.3469 12.4999 29.2206 12.2579 29.0229 12.0822C28.8252 11.9066 28.57 11.8096 28.3055 11.8096C28.0411 11.8096 27.7859 11.9066 27.5882 12.0822C27.3905 12.2579 27.2641 12.4999 27.233 12.7625C26.453 19.0785 21.762 23.0325 17.277 26.0625C17.0816 26.1969 16.9349 26.3907 16.8587 26.6153C16.7825 26.8398 16.7808 27.083 16.854 27.3085L21.469 41.1435L19.358 51.9535C19.3267 52.1103 19.3307 52.2721 19.3697 52.4271C19.4086 52.5822 19.4815 52.7266 19.5832 52.85C19.6848 52.9734 19.8127 53.0726 19.9574 53.1405C20.1021 53.2084 20.2602 53.2432 20.42 53.2425H36.161C36.3209 53.2432 36.4789 53.2084 36.6237 53.1405C36.7684 53.0726 36.8962 52.9734 36.9979 52.85C37.0995 52.7266 37.1725 52.5822 37.2114 52.4271C37.2504 52.2721 37.2543 52.1103 37.223 51.9535L35.123 41.1415L39.749 27.3065C39.8223 27.0826 39.8206 26.841 39.7443 26.6182C39.668 26.3954 39.5212 26.2035 39.326 26.0715C34.841 23.0165 30.15 19.0625 29.381 12.7565L29.378 12.7625ZM28.198 26.2535C28.4587 26.2525 28.7139 26.329 28.9311 26.4732C29.1482 26.6174 29.3177 26.8229 29.4179 27.0636C29.5181 27.3043 29.5446 27.5693 29.494 27.825C29.4434 28.0808 29.3179 28.3157 29.1336 28.5C28.9492 28.6844 28.7143 28.8098 28.4586 28.8605C28.2028 28.9111 27.9378 28.8846 27.6971 28.7844C27.4564 28.6841 27.251 28.5147 27.1067 28.2975C26.9625 28.0803 26.8861 27.8252 26.887 27.5645C26.8889 27.2174 27.0276 26.885 27.273 26.6395C27.5185 26.3941 27.8509 26.2553 28.198 26.2535ZM21.741 51.0835L23.485 42.1675H33.105L34.849 51.0835H21.741ZM33.214 39.9895H23.366L19.166 27.4015C22.3458 25.3388 25.0553 22.6293 27.118 19.4495V24.2705C26.3288 24.5283 25.6574 25.0592 25.2245 25.7676C24.7915 26.476 24.6254 27.3156 24.7559 28.1356C24.8865 28.9555 25.3051 29.702 25.9367 30.241C26.5682 30.7799 27.3713 31.076 28.2015 31.076C29.0318 31.076 29.8348 30.7799 30.4664 30.241C31.0979 29.702 31.5166 28.9555 31.6472 28.1356C31.7777 27.3156 31.6115 26.476 31.1786 25.7676C30.7456 25.0592 30.0742 24.5283 29.285 24.2705V19.1245C31.3591 22.4423 34.1366 25.2641 37.421 27.3905L33.214 39.9895Z" fill="#1CBBDA"/>
</svg>
