<svg xmlns="http://www.w3.org/2000/svg" width="59.088" height="59.088" viewBox="0 0 59.088 59.088">
  <path id="5-day-working" data-name="5-day-working" d="M38.906,2.255A2.54,2.54,0,0,1,41.657,0a2.54,2.54,0,0,1,2.751,2.255v9.879a2.54,2.54,0,0,1-2.751,2.255,2.54,2.54,0,0,1-2.751-2.255V2.255ZM29.189,49.481q-1.607,0-3.552-.191c-1.292-.124-2.556-.253-3.781-.386V44.475h7.6a1.907,1.907,0,0,0,1.235-.3,1.168,1.168,0,0,0,.405-.72,5.4,5.4,0,0,0,.057-.706v-.892a1.964,1.964,0,0,0-.277-1.125,1.182,1.182,0,0,0-1.049-.4H28.56a1.516,1.516,0,0,0-.992.257,1.111,1.111,0,0,0-.362.749H21.932l.606-13.4h13.3v5H27.291l-.143,3.252a2.5,2.5,0,0,1,1.178-.477,9.692,9.692,0,0,1,1.383-.1H31.9a4.959,4.959,0,0,1,2.732.691,4.229,4.229,0,0,1,1.607,1.874,6.556,6.556,0,0,1,.477,2.651v3.133a5.593,5.593,0,0,1-.82,3.18A4.625,4.625,0,0,1,33.4,48.918a13.526,13.526,0,0,1-4.229.563ZM14.118,2.279A2.541,2.541,0,0,1,16.869,0,2.54,2.54,0,0,1,19.62,2.255v9.879a2.54,2.54,0,0,1-2.751,2.255,2.54,2.54,0,0,1-2.751-2.255V2.255ZM3.051,18.48H55.527V10.237a1.43,1.43,0,0,0-.41-.987,1.392,1.392,0,0,0-.987-.41H49.109a1.526,1.526,0,0,1,0-3.051h5.03a4.463,4.463,0,0,1,4.448,4.448v43.9a4.463,4.463,0,0,1-4.448,4.448H4.448A4.463,4.463,0,0,1,0,54.135v-43.9A4.463,4.463,0,0,1,4.448,5.788H9.822a1.526,1.526,0,1,1,0,3.051H4.448a1.43,1.43,0,0,0-.987.41,1.392,1.392,0,0,0-.41.987Zm52.48,3.056H3.051v32.6a1.43,1.43,0,0,0,.41.987,1.392,1.392,0,0,0,.987.41H54.135a1.43,1.43,0,0,0,.987-.41,1.392,1.392,0,0,0,.41-.987ZM24.064,8.84a1.526,1.526,0,0,1,0-3.051H34.286a1.526,1.526,0,0,1,0,3.051Z" transform="translate(0.25 0.25)" fill="#1cbbda" stroke="#000" stroke-width="0.5"/>
</svg>
