<svg xmlns="http://www.w3.org/2000/svg" width="27.182" height="20" viewBox="0 0 27.182 20">
  <g id="about-us" transform="translate(-10 -139.5)">
    <path id="Path_23122" data-name="Path 23122" d="M679.507,204.1a4.836,4.836,0,0,0-2.175-9.2,4.779,4.779,0,0,0-.632.042,6.436,6.436,0,0,1,.716,1.085,3.726,3.726,0,1,1-.086,7.451l1.978,1.734a4.979,4.979,0,0,1,4.963,4.926v.344a.3.3,0,0,1-.133.28,2.3,2.3,0,0,1-.907.333,10.751,10.751,0,0,1-1.526.161,2.464,2.464,0,0,1-.286,1.135c2.28-.078,3.969-.419,3.969-1.906v-.344A6.09,6.09,0,0,0,679.507,204.1Z" transform="translate(-648.206 -53.863)" fill="#1cbbda"/>
    <path id="Path_23123" data-name="Path 23123" d="M191.887,150a5.614,5.614,0,1,0-4.921.022A6.956,6.956,0,0,0,180.6,156.9v.394c0,1.024.707,1.662,2.161,1.956a27.323,27.323,0,0,0,4.849.25H191.6c3.761,0,7.01,0,7.01-2.205V156.9A6.962,6.962,0,0,0,191.887,150Zm-6.818-4.965a4.336,4.336,0,1,1,4.336,4.258A4.3,4.3,0,0,1,185.069,145.037Zm12.255,12.258a.337.337,0,0,1-.15.319,2.581,2.581,0,0,1-1.035.38,26.869,26.869,0,0,1-4.544.225H187.61a26.708,26.708,0,0,1-4.6-.225,2.465,2.465,0,0,1-.99-.369.361.361,0,0,1-.144-.33V156.9a5.687,5.687,0,0,1,5.731-5.628H191.6a5.687,5.687,0,0,1,5.731,5.628l0,.391Z" transform="translate(-165.868 0)" fill="#1cbbda"/>
    <path id="Path_23124" data-name="Path 23124" d="M12.161,211.094a2.3,2.3,0,0,1-.907-.333.3.3,0,0,1-.133-.28v-.344a4.979,4.979,0,0,1,4.963-4.926l1.978-1.734a3.726,3.726,0,1,1-.086-7.451,6.433,6.433,0,0,1,.716-1.085,5.262,5.262,0,0,0-.632-.042,4.836,4.836,0,0,0-2.175,9.2A6.094,6.094,0,0,0,10,210.137v.344c0,1.487,1.689,1.828,3.969,1.906a2.466,2.466,0,0,1-.286-1.135A10.344,10.344,0,0,1,12.161,211.094Z" transform="translate(0 -53.863)" fill="#1cbbda"/>
  </g>
</svg>
