<svg xmlns="http://www.w3.org/2000/svg" width="60" height="60" viewBox="0 0 60 60" fill="none">
  <path d="M14.5636 59.9272C13.7864 59.6968 13.4032 59.3952 10.0778 56.3959L6.63539 53.2911L6.2921 53.6248C5.40015 54.4918 3.7239 54.7607 2.58375 54.2197C1.84378 53.8686 0.478803 52.5928 0.206372 51.9977C-0.0948584 51.3396 -0.0628927 50.2996 0.279808 49.6082C0.497654 49.1688 2.71747 47.0798 9.83271 40.6183L19.1018 32.2008L18.8429 31.7128C18.7005 31.4445 18.4473 30.8861 18.2802 30.4721L17.9763 29.7192L16.9401 29.3603C15.4038 28.8283 15.413 28.8463 15.413 26.3835C15.413 23.9238 15.4285 23.8948 17.0429 23.3368C17.9873 23.0104 18.0512 22.9628 18.215 22.4647C18.3102 22.1749 18.5607 21.5917 18.7717 21.1686L19.1552 20.3995L18.6826 19.4226C18.3702 18.7767 18.2388 18.3421 18.2948 18.1396C18.3413 17.9713 19.1217 17.1683 20.0289 16.3553C21.9194 14.6611 21.911 14.6638 23.4327 15.2698L24.4187 15.6624L25.4893 15.2235C26.078 14.9821 26.7209 14.7498 26.9179 14.7074C27.2081 14.6449 27.3375 14.4724 27.5997 13.7984C28.1892 12.2833 28.0768 12.3327 30.9405 12.3327C32.975 12.3327 33.4503 12.3673 33.6487 12.5303C33.7811 12.6391 34.0688 13.1543 34.2881 13.6753C34.5073 14.1964 34.751 14.6233 34.8295 14.6242C34.9081 14.6252 35.4614 14.8195 36.059 15.0562C36.8906 15.3856 37.1457 15.4429 37.1457 15.3004C37.1457 15.1979 36.926 14.2029 36.6576 13.0893C36.3112 11.6523 36.2061 10.9807 36.2955 10.7762C36.3649 10.6177 39.0312 8.12645 42.2207 5.24014C48.4717 -0.416588 48.3557 -0.333304 49.1295 0.278549C49.4499 0.531909 49.5738 0.915571 50.2073 3.61808C50.601 5.29739 50.9468 6.69557 50.9757 6.72514C51.0046 6.75471 51.2981 6.52333 51.628 6.21095C52.7725 5.12716 53.2981 4.96795 53.9072 5.52061C54.5018 6.06008 54.3812 6.50712 53.3879 7.4457C52.913 7.89446 52.5773 8.26162 52.642 8.26162C52.7067 8.26162 54.2468 8.55332 56.0644 8.90983C59.725 9.62785 60 9.74167 60 10.5384C60 10.9631 59.6591 11.2995 54.2163 16.2455C51.0353 19.1361 48.2936 21.5334 48.1236 21.5728C47.9536 21.6122 46.7611 21.4376 45.4735 21.1848C44.1859 20.932 43.1087 20.7467 43.0798 20.7729C43.0509 20.7992 43.2181 21.2533 43.4515 21.7821C43.6849 22.3109 43.8758 22.7965 43.8758 22.8612C43.8758 22.926 44.3332 23.1372 44.8923 23.3305C46.5185 23.8929 46.5402 23.9321 46.5377 26.3022C46.5361 27.6477 46.4782 28.4025 46.3595 28.6169C46.2351 28.8416 45.8584 29.0533 45.0761 29.338L43.9689 29.7411L43.6583 30.4907C43.4875 30.903 43.2132 31.4795 43.0488 31.7719L42.7499 32.3035L43.1726 33.1494C43.8839 34.5727 43.8471 34.6741 42.018 36.3305C41.0728 37.1864 40.2839 37.794 40.0496 37.8465C39.7639 37.9105 39.3803 37.8239 38.6249 37.5251L37.5913 37.1162L36.1112 37.6611L34.6312 38.2061L34.2547 39.1427C34.0476 39.6579 33.7475 40.1624 33.5879 40.2639C33.163 40.5339 28.7847 40.5307 28.3588 40.26C28.1953 40.1561 27.8909 39.6451 27.6798 39.1199C27.3295 38.2483 27.2543 38.1555 26.7883 38.0191C26.5084 37.9372 25.8718 37.7042 25.3737 37.5013L24.468 37.1325L21.3463 39.9628L18.2246 42.7932L20.5079 44.8967C21.7988 46.086 22.9005 47.2145 23.0428 47.4932C23.3589 48.1121 23.377 49.2614 23.0807 49.8959C22.7962 50.505 21.5295 51.7254 20.86 52.0353C20.1164 52.3795 19.3241 52.4595 18.4725 52.2764C17.7727 52.1259 17.5765 51.9815 15.303 49.9432C12.7682 47.6707 12.6978 47.6314 12.2685 48.249C12.1434 48.4289 12.6707 48.9637 15.584 51.6118C17.8557 53.6767 19.1225 54.9235 19.2637 55.2337C19.5831 55.9351 19.5359 56.9355 19.1479 57.6868C18.798 58.3642 17.7228 59.3622 16.9546 59.7226C16.4238 59.9717 15.0966 60.0852 14.5636 59.9272ZM16.5407 57.4149C17.1218 56.9217 17.2358 56.7508 17.2358 56.3725C17.2358 55.9501 16.976 55.6835 13.3099 52.3435C9.98183 49.3115 9.38397 48.7108 9.38397 48.3988C9.38397 48.1004 9.67057 47.7706 10.8982 46.6567C12.1208 45.5474 12.4901 45.2827 12.8152 45.2827C13.151 45.2827 13.6872 45.7053 16.044 47.8271C19.3101 50.7677 19.226 50.7301 20.3542 49.7536C21.5348 48.7316 21.5514 48.7636 18.3107 45.8097C15.8159 43.5357 15.5532 43.2553 15.5532 42.8656C15.5532 42.4758 15.8163 42.195 18.3184 39.9143L21.0837 37.3939L19.9678 36.3754L18.8519 35.357L10.5426 42.8957C1.15306 51.4144 1.71908 50.7617 2.79907 51.8248C3.75057 52.7614 4.12811 52.7245 5.48272 51.5629C6.80794 50.4264 6.54299 50.2915 11.1366 54.4426C14.3736 57.3678 15.1471 58.0048 15.4621 58.0048C15.725 58.0048 16.0644 57.8192 16.5407 57.4149ZM32.5036 37.6177C32.6873 37.1804 32.9294 36.7264 33.0416 36.6088C33.1538 36.4912 33.6972 36.2715 34.2492 36.1207C34.8012 35.9698 35.6609 35.6509 36.1596 35.4121C37.2518 34.8891 37.5719 34.877 38.6894 35.3168L39.5506 35.6557L40.3857 34.898L41.2207 34.1403L40.7956 33.2897C40.5618 32.8219 40.3705 32.352 40.3705 32.2456C40.3705 32.1392 40.594 31.6542 40.8672 31.1678C41.1404 30.6814 41.518 29.8725 41.7063 29.3702C41.8945 28.8679 42.1173 28.3819 42.2012 28.2901C42.2852 28.1983 42.7933 27.9668 43.3303 27.7756L44.3066 27.4281L44.2665 26.3493L44.2263 25.2705L43.3165 24.9622C42.8161 24.7925 42.3329 24.5982 42.2427 24.5303C42.1525 24.4624 41.9095 23.9372 41.7026 23.3631C41.4957 22.7891 41.1325 22.0046 40.8954 21.6198C40.6583 21.2349 40.4253 20.7483 40.3774 20.5384C40.3072 20.2303 40.2104 20.1496 39.8748 20.1197C39.5308 20.089 39.3265 20.2046 38.6903 20.7899C38.0279 21.3992 37.9452 21.5276 38.0934 21.7175C38.5378 22.2868 39.2508 23.6892 39.4494 24.3844C39.7297 25.3659 39.7335 27.317 39.457 28.3039C38.9465 30.1262 37.4975 31.9863 35.785 33.0177C35.3449 33.2827 34.4457 33.6725 33.7868 33.8839C32.7198 34.2261 32.4125 34.2681 30.9764 34.2681C29.5403 34.2681 29.233 34.2261 28.166 33.8839C22.4495 32.0503 20.4067 25.9001 24.0525 21.4995C25.1516 20.1728 27.0436 19.0741 29.0126 18.6191C29.6868 18.4633 30.2871 18.4254 31.326 18.4732C32.9574 18.5483 34.1807 18.8633 35.375 19.516C35.8277 19.7634 36.276 19.9659 36.3712 19.9659C36.4663 19.9659 36.8598 19.6631 37.2456 19.2929C37.8524 18.7108 37.9381 18.5649 37.881 18.2116C37.8288 17.8893 37.7477 17.8031 37.4965 17.8031C37.3214 17.8031 36.6818 17.5789 36.0753 17.3048C35.4687 17.0308 34.6195 16.7144 34.1881 16.6019C33.1179 16.3226 32.9941 16.2171 32.5382 15.1951L32.1408 14.3046H30.9738H29.8067L29.4068 15.1951C28.9455 16.2226 28.826 16.325 27.7647 16.6019C27.3333 16.7144 26.4841 17.0308 25.8775 17.3048C25.271 17.5789 24.657 17.8031 24.5133 17.8031C24.3695 17.8031 23.8377 17.6488 23.3315 17.4602L22.4111 17.1173L21.5716 17.879L20.7321 18.6407L21.1572 19.4913C21.391 19.9592 21.5823 20.4052 21.5823 20.4825C21.5823 20.5598 21.3291 21.0868 21.0197 21.6536C20.7103 22.2204 20.3313 23.0678 20.1774 23.5366C20.0235 24.0055 19.8185 24.4487 19.7218 24.5214C19.6252 24.5942 19.1367 24.7925 18.6363 24.9622L17.7265 25.2705L17.6863 26.3493L17.6462 27.4281L18.6226 27.7756C19.1596 27.9668 19.6641 28.1945 19.7437 28.2815C19.8234 28.3686 20.0705 28.9234 20.2929 29.5143C20.5153 30.1053 20.8963 30.926 21.1397 31.3382C21.3831 31.7504 21.5823 32.1601 21.5823 32.2487C21.5823 32.3373 21.3901 32.7984 21.1553 33.2733L20.7283 34.1369L21.5652 34.8963L22.4022 35.6557L23.2634 35.3168C23.737 35.1304 24.2797 34.9779 24.4693 34.9779C24.659 34.9779 25.2412 35.173 25.7631 35.4115C26.285 35.65 27.161 35.9688 27.7096 36.1201C28.2583 36.2713 28.8003 36.4912 28.9141 36.6088C29.0279 36.7264 29.263 37.1804 29.4365 37.6177L29.7521 38.4128H30.9608H32.1696L32.5036 37.6177ZM32.5092 32.1096C36.321 31.2944 38.4375 27.5431 37.0045 24.1423C36.425 22.7671 36.562 22.7351 34.2947 24.7749C32.0571 26.7878 31.8473 26.8822 31.1058 26.2095C30.8804 26.0049 30.696 25.7273 30.696 25.5925C30.696 25.194 31.3906 24.4375 33.0557 23.0223C33.9171 22.2902 34.6219 21.6263 34.6219 21.5471C34.6219 21.4678 34.1644 21.2084 33.6053 20.9707C32.6341 20.5576 32.517 20.5384 30.9764 20.5384C29.404 20.5384 29.3368 20.5502 28.2691 21.0127C25.5123 22.2071 23.9831 24.8645 24.5764 27.4297C25.1215 29.7868 26.8591 31.498 29.2939 32.0755C30.4367 32.3465 31.3559 32.3563 32.5092 32.1096ZM52.0502 15.284L56.6477 11.1111L53.6618 10.5206L50.676 9.93006L46.0895 14.0836C43.567 16.368 41.5315 18.2629 41.5662 18.2944C41.6353 18.357 46.899 19.4234 47.2416 19.4442C47.3577 19.4512 49.5216 17.5792 52.0502 15.284ZM44.5067 12.6459L49.0883 8.50646L48.4422 5.81586C48.0868 4.33603 47.7787 3.10956 47.7575 3.09037C47.7364 3.07118 45.653 4.93076 43.1278 7.22279L38.5366 11.3901L39.1731 14.0339C39.5232 15.4879 39.8097 16.7019 39.8097 16.7315C39.8097 16.7611 39.8356 16.7854 39.8673 16.7854C39.899 16.7854 41.9867 14.9226 44.5067 12.6459Z" fill="white"/>
</svg>