<svg xmlns="http://www.w3.org/2000/svg" width="85.765" height="81" viewBox="0 0 85.765 81">
  <path id="agile-scrum" d="M61.687,80.235H86.382a2.382,2.382,0,0,1,0,4.765h-81a2.382,2.382,0,1,1,0-4.765h40.5A23.832,23.832,0,0,0,56.717,35.187a2.254,2.254,0,0,1-.265-.133,23.852,23.852,0,0,0-24.869,2.3h7.152a2.382,2.382,0,1,1,0,4.765H24.441a2.382,2.382,0,0,1-2.382-2.382V25.441a2.382,2.382,0,1,1,4.765,0V35.1a28.57,28.57,0,0,1,24.918-6.675,14.948,14.948,0,0,1-1.095-5.368A14.294,14.294,0,0,1,64.941,8.765h1.4l-.7-.7A2.382,2.382,0,0,1,69.008,4.7l4.765,4.765a2.383,2.383,0,0,1,0,3.369L69.008,17.6a2.382,2.382,0,0,1-3.37-3.369l.7-.7h-1.4a9.529,9.529,0,0,0-9.529,9.529A12.114,12.114,0,0,0,58.993,31a28.6,28.6,0,0,1,2.694,49.237Z" transform="translate(-3 -4)" fill="#1cbbda"/>
</svg>
