<svg xmlns="http://www.w3.org/2000/svg" width="65.27" height="57.966" viewBox="0 0 65.27 57.966">
  <g id="analysis-process" transform="translate(0.5 0)">
    <g id="Group_44653" data-name="Group 44653" transform="translate(0 0.981)">
      <path id="Path_10006" data-name="Path 10006" d="M12.674,152.043q-.579-1.1-1.051-2.24L8.3,153.314A5.447,5.447,0,1,0,9.973,154.9Zm-7.21,9.1a3.161,3.161,0,1,1,3.161-3.161A3.164,3.164,0,0,1,5.464,161.141Z" transform="translate(0 -121.006)" fill="#1cbbda"/>
      <path id="Path_10006_-_Outline" data-name="Path 10006 - Outline" d="M11.792,148.9l.294.715c.3.733.648,1.472,1.03,2.2l.168.317-2.679,2.83a6,6,0,1,1-2.4-2.27Zm.274,3.06c-.213-.417-.415-.838-.6-1.259l-3.081,3.252-.345-.21a4.947,4.947,0,1,0,1.524,1.437l-.228-.333Zm-6.6,2.361A3.661,3.661,0,1,1,1.8,157.98,3.665,3.665,0,0,1,5.464,154.319Zm0,6.322A2.661,2.661,0,1,0,2.8,157.98,2.664,2.664,0,0,0,5.464,160.641Z" transform="translate(0 -121.006)" fill="#1cbbda"/>
      <path id="Path_10007" data-name="Path 10007" d="M202.441,18.712a5.877,5.877,0,0,0-4.916,9.1L185.9,40.087q.606,1.207,1.089,2.456l1.112-1.174h0l11.192-11.813a5.879,5.879,0,1,0,3.148-10.842Zm0,9.284a3.4,3.4,0,1,1,3.4-3.4A3.406,3.406,0,0,1,202.441,28Z" transform="translate(-144.052 -18.712)" fill="#1cbbda"/>
      <path id="Path_10007_-_Outline" data-name="Path 10007 - Outline" d="M202.441,18.212a6.381,6.381,0,1,1-3.059,11.976L186.807,43.462l-.285-.739c-.312-.809-.672-1.621-1.069-2.411L185.3,40,196.9,27.75a6.377,6.377,0,0,1,5.543-9.538Zm0,11.762a5.389,5.389,0,1,0-4.5-2.433l.218.331L186.5,40.178c.234.48.454.967.659,1.456l12.051-12.722.348.221A5.363,5.363,0,0,0,202.441,29.974Zm0-9.282a3.9,3.9,0,1,1-3.9,3.9A3.907,3.907,0,0,1,202.441,20.692Zm0,6.8a2.9,2.9,0,1,0-2.9-2.9A2.905,2.905,0,0,0,202.441,27.5Z" transform="translate(-144.052 -18.712)" fill="#1cbbda"/>
    </g>
    <g id="noun-analytics-2612255" transform="translate(6.621 0)">
      <path id="Path_10036" data-name="Path 10036" d="M180.753,69.429a21.2,21.2,0,1,0,6.21,14.991A21.063,21.063,0,0,0,180.753,69.429Zm-28.276,1.708A18.792,18.792,0,0,1,184.29,81.3l-6.581,6.436a4.3,4.3,0,0,0-5.684,1.361l-9.673-3.035c0-.028,0-.056,0-.084a4.3,4.3,0,1,0-8.038,2.133l-5.075,5.261a18.818,18.818,0,0,1,3.236-22.231ZM177.49,91.481a1.888,1.888,0,1,1-1.888-1.888A1.89,1.89,0,0,1,177.49,91.481Zm-17.551-5.507a1.888,1.888,0,1,1-1.888-1.888A1.89,1.89,0,0,1,159.939,85.975Zm19.107,11.731a18.792,18.792,0,0,1-28.479-2.234l5.487-5.688a4.3,4.3,0,0,0,5.574-1.422L171.3,91.4c0,.028,0,.056,0,.084a4.3,4.3,0,1,0,8.1-2.024l5.151-5.037a18.66,18.66,0,0,1-5.5,13.284Z" transform="translate(-144.568 -63.219)" fill="#1cbbda"/>
      <path id="Path_10037" data-name="Path 10037" d="M214.83,98.87l1.135,1.305a9.984,9.984,0,0,1,9.813-1.876l.569-1.633a11.717,11.717,0,0,0-11.517,2.2Z" transform="translate(-201.294 -86.488)" fill="#1cbbda"/>
      <path id="Path_10038" data-name="Path 10038" d="M335.634,111.88l-.9,1.477a9.9,9.9,0,0,1,1.305.95L337.167,113a11.677,11.677,0,0,0-1.533-1.116Z" transform="translate(-308.362 -100.655)" fill="#1cbbda"/>
      <path id="Path_10039" data-name="Path 10039" d="M252.082,291.829a9.97,9.97,0,0,1-5.784-.5l-.643,1.605a11.7,11.7,0,0,0,6.784.586Z" transform="translate(-228.819 -260.894)" fill="#1cbbda"/>
      <path id="Path_10040" data-name="Path 10040" d="M115.227,43.9l-1.256,1.256-3.115-3.33a21.012,21.012,0,0,0,2.662-18.173,6.07,6.07,0,0,0-.654-1.779,20.945,20.945,0,1,0-36.494,20.1,15.906,15.906,0,0,0,1.06,1.391q.622.75,1.323,1.454a20.981,20.981,0,0,0,26.583,2.514l3.122,3.338-1.3,1.3,15.123,15.071,8.067-8.067Zm-35.251-.307a19.216,19.216,0,1,1,27.175,0A19.238,19.238,0,0,1,79.976,43.593Zm26.758,2.7a21.077,21.077,0,0,0,3.071-3.059l2.943,3.145-3.066,3.066Zm15.547,18.3L109.607,51.964l5.621-5.621L127.9,58.971Z" transform="translate(-72.628 -9.072)" fill="#1cbbda"/>
    </g>
  </g>
</svg>
