<svg xmlns="http://www.w3.org/2000/svg" width="37.671" height="37.497" viewBox="0 0 37.671 37.497">
  <path id="analyst" d="M43.361,36.725l-.4-1.389H38.509L38.144,36.6l-.431-1.266H21.263l.09-.83a8.085,8.085,0,0,1,3.15-6.065,15.026,15.026,0,0,1,5.3-2.086,11,11,0,0,0,4.677-1.924l.845-.762,2.7,7.933.783-2.711-.517-.561-.03-.044A1.958,1.958,0,0,1,37.98,26.2a2.131,2.131,0,0,1,2.1-1.094c.114,0,.227,0,.336.005.2,0,.384.005.58,0,.1,0,.213,0,.323,0a2.07,2.07,0,0,1,2.265,1.47,2.125,2.125,0,0,1-.364,1.686l-.035.055-.525.57.747,2.588,2.414-7.835.873.787a11.335,11.335,0,0,0,4.381,2.008c3.342,1.017,7.129,2.17,7.768,8.066l.09.831H43.789Zm.89-2.889H57.234c-.754-4.185-3.475-5.013-6.6-5.962a16.038,16.038,0,0,1-4.044-1.643Zm-5.309,0h3.585L40.985,28.5,41.991,27.4a.672.672,0,0,0,.137-.463c-.049-.2-.082-.33-.809-.33-.1,0-.2,0-.292,0-.225,0-.442,0-.647,0-.1,0-.2,0-.3,0-.583,0-.677.1-.761.269-.054.108,0,.283.15.517l1.015,1.1Zm-15.979,0H37.2L34.6,26.2a15.578,15.578,0,0,1-4.433,1.6C26.885,28.641,23.771,29.429,22.963,33.836ZM40.631,23.91h-.095A6.5,6.5,0,0,1,36.044,22.1l-.095-.088,0,0a16.385,16.385,0,0,1-2.529-3.314l-.015-.024.044-.028-.045.027-1.725-2.744a5.768,5.768,0,0,1-1.116-2.943v-.018a2.808,2.808,0,0,1,.249-1.26l0-.006a2.525,2.525,0,0,1,.885-1.031l.014-.01.08-.049a43.01,43.01,0,0,1-.038-4.454l0-.039a7.618,7.618,0,0,1,.235-1.25A7.334,7.334,0,0,1,35.236.7l.006,0a8.762,8.762,0,0,1,1.726-.839,11.039,11.039,0,0,1,3.707-.626A11.278,11.278,0,0,1,44.6-.078,8.406,8.406,0,0,1,47.87,2.061a7.5,7.5,0,0,1,1.895,4.705l0,.036-.1,3.957a2.052,2.052,0,0,1,.8.871c.4.8.287,1.866-.362,3.343l-.016.034-.046.093-1.991,3.275h0l-.154.251a16.081,16.081,0,0,1-2.51,3.357l0,0-.039.037h0A6.6,6.6,0,0,1,40.631,23.91Zm-.079-1.5h.038v0H40.6a6.409,6.409,0,0,0,3.713-1.48l.031-.029a16.552,16.552,0,0,0,2.267-3.057l.151-.247,1.949-3.269a4.97,4.97,0,0,0,.353-1.211,7,7,0,0,0-.963-.1,2.75,2.75,0,0,1-1.37-.058l-.713-.2.718-2.752a15.253,15.253,0,0,1-5.79-1.429,10.277,10.277,0,0,0-3.612-1.005,3.943,3.943,0,0,0-2.714,1.166l.628,3.9-.7.146a4.636,4.636,0,0,1-.889.054h-.2a4.16,4.16,0,0,0-1.4.137,3.362,3.362,0,0,0,.465,1.343l.554.789,1.6,2.78a16.96,16.96,0,0,0,2.294,3.027l.077.071-.3.324.3-.323,0,0A6.345,6.345,0,0,0,40.552,22.409Zm7.62-11.952-.279,1.069.068,0c.053,0,.114,0,.183,0ZM33.245,9.625c.018.469.043.933.076,1.378l.025.339h.176Zm4.092-3.546a11.456,11.456,0,0,1,4.171,1.113,13.806,13.806,0,0,0,5.258,1.321,8.6,8.6,0,0,0,.879-.045l.581-.06.041-1.57a5.952,5.952,0,0,0-1.5-3.758A8.349,8.349,0,0,0,40.675.729a9.528,9.528,0,0,0-3.2.538,7.269,7.269,0,0,0-1.43.695,5.939,5.939,0,0,0-2.607,3.3,6.114,6.114,0,0,0-.187.982c-.027.551-.039,1.153-.038,1.775l.077-.077A5.605,5.605,0,0,1,37.336,6.079Z" transform="translate(-21.263 0.771)" fill="#1cbbda"/>
</svg>
