<svg xmlns="http://www.w3.org/2000/svg" width="44.53" height="51.612" viewBox="0 0 44.53 51.612">
  <g id="android" transform="translate(0 2.062)">
    <path id="Path_328" data-name="Path 328" d="M90.66,207.092a3.016,3.016,0,0,1,3.016,3.016v12.936a3.015,3.015,0,0,1-6.031,0V210.108a3.016,3.016,0,0,1,3.015-3.015Z" transform="translate(-75.454 -176.508)" fill="#a4c639"/>
    <path id="Path_329" data-name="Path 329" d="M69.306,133.645c-.01.114-.02.23-.02.347v19.6a3.862,3.862,0,0,0,3.93,3.806H94.164a3.862,3.862,0,0,0,3.931-3.806v-19.6c0-.117,0-.233-.015-.347Z" transform="translate(-61.425 -119.305)" fill="#a4c639"/>
    <path id="Path_330" data-name="Path 330" d="M61.452,102.133a3.114,3.114,0,0,1,3.113,3.115v13.361a3.113,3.113,0,1,1-6.226,0V105.248a3.114,3.114,0,0,1,3.113-3.114ZM35.277,87.872a3.114,3.114,0,0,1,3.113,3.115v13.361a3.113,3.113,0,1,1-6.226,0V90.986A3.114,3.114,0,0,1,35.277,87.872Zm38.3,0a3.114,3.114,0,0,1,3.113,3.115v13.361a3.113,3.113,0,1,1-6.226,0V90.986A3.114,3.114,0,0,1,73.581,87.872ZM40.39,84.741c.087-6.218,5.511-11.316,12.475-11.988h3.129c6.964.672,12.388,5.77,12.475,11.988Z" transform="translate(-32.164 -72.172)" fill="#a4c639"/>
    <path id="Path_331" data-name="Path 331" d="M74.743,70.009l3.358,5.51m23.14-5.51-3.358,5.51" transform="translate(-65.727 -70.009)" fill="none" stroke="#a4c639" stroke-linecap="round" stroke-linejoin="round" stroke-width="3"/>
    <path id="Path_332" data-name="Path 332" d="M103.263,96.4a1.561,1.561,0,0,1-3.12.008V96.4a1.561,1.561,0,0,1,3.12-.008Zm11.646,0a1.561,1.561,0,0,1-3.12.008V96.4a1.561,1.561,0,0,1,3.12-.008Z" transform="translate(-85.039 -89.606)" fill="#fff"/>
  </g>
</svg>
