<svg xmlns="http://www.w3.org/2000/svg" width="22" height="22.382" viewBox="0 0 22 22.382">
  <g id="App_development" transform="translate(-4.373)">
    <g id="Group_44870" data-name="Group 44870" transform="translate(9.213)">
      <g id="Group_44869" data-name="Group 44869">
        <path id="Path_10175" data-name="Path 10175" d="M126.285,0h-9.7a1.5,1.5,0,0,0-1.492,1.492v19.4a1.5,1.5,0,0,0,1.492,1.492h9.7a1.5,1.5,0,0,0,1.492-1.492V1.492A1.5,1.5,0,0,0,126.285,0Zm.746,20.89a.748.748,0,0,1-.746.746h-9.7a.748.748,0,0,1-.746-.746V1.492a.748.748,0,0,1,.746-.746h9.7a.748.748,0,0,1,.746.746v19.4Z" transform="translate(-115.094)" fill="#1cbbda"/>
      </g>
    </g>
    <g id="Group_44872" data-name="Group 44872" transform="translate(9.213 2.238)">
      <g id="Group_44871" data-name="Group 44871">
        <path id="Path_10176" data-name="Path 10176" d="M115.093,51.2V68.36h12.683V51.2ZM127.03,67.614H115.839V51.946H127.03Z" transform="translate(-115.093 -51.2)" fill="#1cbbda"/>
      </g>
    </g>
    <g id="Group_44874" data-name="Group 44874" transform="translate(14.809 1.119)">
      <g id="Group_44873" data-name="Group 44873" transform="translate(0)">
        <path id="Path_10177" data-name="Path 10177" d="M245.331,25.6h-1.865a.373.373,0,1,0,0,.746h1.865a.373.373,0,0,0,0-.746Z" transform="translate(-243.093 -25.6)" fill="#1cbbda"/>
      </g>
    </g>
    <g id="Group_44876" data-name="Group 44876" transform="translate(13.317 1.119)">
      <g id="Group_44875" data-name="Group 44875" transform="translate(0)">
        <path id="Path_10178" data-name="Path 10178" d="M209.707,25.6h-.373a.373.373,0,1,0,0,.746h.373a.373.373,0,1,0,0-.746Z" transform="translate(-208.961 -25.6)" fill="#1cbbda"/>
      </g>
    </g>
    <g id="Group_44878" data-name="Group 44878" transform="translate(8.84 3.357)">
      <g id="Group_44877" data-name="Group 44877" transform="translate(0)">
        <path id="Path_10179" data-name="Path 10179" d="M106.933,76.8a.352.352,0,0,0-.373.373v.373a.373.373,0,0,0,.746,0v-.373A.352.352,0,0,0,106.933,76.8Z" transform="translate(-106.56 -76.8)" fill="#1cbbda"/>
      </g>
    </g>
    <g id="Group_44880" data-name="Group 44880" transform="translate(8.84 4.85)">
      <g id="Group_44879" data-name="Group 44879" transform="translate(0)">
        <path id="Path_10180" data-name="Path 10180" d="M106.933,110.933a.352.352,0,0,0-.373.373v.373a.373.373,0,0,0,.746,0v-.373A.352.352,0,0,0,106.933,110.933Z" transform="translate(-106.56 -110.933)" fill="#1cbbda"/>
      </g>
    </g>
    <g id="Group_44882" data-name="Group 44882" transform="translate(8.84 6.342)">
      <g id="Group_44881" data-name="Group 44881" transform="translate(0)">
        <path id="Path_10181" data-name="Path 10181" d="M106.933,145.067a.352.352,0,0,0-.373.373v.373a.373.373,0,1,0,.746,0v-.373A.352.352,0,0,0,106.933,145.067Z" transform="translate(-106.56 -145.067)" fill="#1cbbda"/>
      </g>
    </g>
    <g id="Group_44884" data-name="Group 44884" transform="translate(14.063 19.025)">
      <g id="Group_44883" data-name="Group 44883">
        <path id="Path_10182" data-name="Path 10182" d="M227.519,435.2a1.492,1.492,0,1,0,1.492,1.492A1.5,1.5,0,0,0,227.519,435.2Zm0,2.238a.746.746,0,1,1,.746-.746A.748.748,0,0,1,227.519,437.438Z" transform="translate(-226.027 -435.2)" fill="#1cbbda"/>
      </g>
    </g>
    <g id="Group_44896" data-name="Group 44896" transform="translate(4.373 0.009)">
      <g id="Group_44895" data-name="Group 44895" transform="translate(0)">
        <path id="Path_10188" data-name="Path 10188" d="M7.721,1.7A1.1,1.1,0,0,1,6.6.577a.373.373,0,0,0-.746,0A1.1,1.1,0,0,1,4.737,1.7a.373.373,0,0,0,0,.746A1.1,1.1,0,0,1,5.856,3.561a.373.373,0,0,0,.746,0A1.1,1.1,0,0,1,7.721,2.442.373.373,0,0,0,7.721,1.7Zm-1.492.746a1.769,1.769,0,0,0-.373-.373A1.769,1.769,0,0,0,6.229,1.7a1.769,1.769,0,0,0,.373.373A1.769,1.769,0,0,0,6.229,2.442Z" transform="translate(-4.373 -0.213)" fill="#1cbbda"/>
      </g>
    </g>
    <g id="Group_44898" data-name="Group 44898" transform="translate(24.135 5.223)">
      <g id="Group_44897" data-name="Group 44897">
        <path id="Path_10189" data-name="Path 10189" d="M456.8,119.467a.352.352,0,0,0-.373.373v1.492a.373.373,0,0,0,.746,0V119.84A.352.352,0,0,0,456.8,119.467Z" transform="translate(-456.427 -119.467)" fill="#1cbbda"/>
      </g>
    </g>
    <g id="Group_44900" data-name="Group 44900" transform="translate(23.389 5.969)">
      <g id="Group_44899" data-name="Group 44899">
        <path id="Path_10190" data-name="Path 10190" d="M441.226,136.533h-1.492a.373.373,0,0,0,0,.746h1.492a.373.373,0,0,0,0-.746Z" transform="translate(-439.361 -136.533)" fill="#1cbbda"/>
      </g>
    </g>
    <g id="Group_44902" data-name="Group 44902" transform="translate(6.602 16.041)">
      <g id="Group_44901" data-name="Group 44901" transform="translate(0)">
        <path id="Path_10191" data-name="Path 10191" d="M55.733,366.933a.373.373,0,1,0,.373.373A.352.352,0,0,0,55.733,366.933Z" transform="translate(-55.36 -366.933)" fill="#1cbbda"/>
      </g>
    </g>
    <g id="Group_44904" data-name="Group 44904" transform="translate(4.737 9.326)">
      <g id="Group_44903" data-name="Group 44903" transform="translate(0)">
        <path id="Path_10192" data-name="Path 10192" d="M13.067,213.333a.373.373,0,1,0,.373.373A.352.352,0,0,0,13.067,213.333Z" transform="translate(-12.694 -213.333)" fill="#1cbbda"/>
      </g>
    </g>
    <g id="Group_44906" data-name="Group 44906" transform="translate(23.016 13.056)">
      <g id="Group_44905" data-name="Group 44905">
        <path id="Path_10193" data-name="Path 10193" d="M431.2,298.667a.373.373,0,1,0,.373.373A.352.352,0,0,0,431.2,298.667Z" transform="translate(-430.827 -298.667)" fill="#1cbbda"/>
      </g>
    </g>
    <g id="Group_44908" data-name="Group 44908" transform="translate(25.627 20.89)">
      <g id="Group_44907" data-name="Group 44907">
        <path id="Path_10194" data-name="Path 10194" d="M490.933,477.867a.373.373,0,1,0,.373.373A.352.352,0,0,0,490.933,477.867Z" transform="translate(-490.56 -477.867)" fill="#1cbbda"/>
      </g>
    </g>
  </g>
</svg>
