<svg id="SvgjsSvg1016" width="288" height="288" xmlns="http://www.w3.org/2000/svg" version="1.1" xmlns:xlink="http://www.w3.org/1999/xlink" xmlns:svgjs="http://svgjs.com/svgjs"><defs id="SvgjsDefs1017"></defs><g id="SvgjsG1018"><svg xmlns="http://www.w3.org/2000/svg" viewBox="0 0 25.4 25.4" width="288" height="288"><path d="M2.902 272.394c-.577 0-1.05.474-1.05 1.05v21.714c0 .577.473 1.048 1.05 1.048h19.596c.577 0 1.05-.471 1.05-1.048v-21.713c0-.577-.473-1.051-1.05-1.051zm0 .529h19.596c.293 0 .522.229.522.522v21.713c0 .293-.229.52-.522.52H2.902a.513.513 0 0 1-.521-.52v-21.713c0-.293.228-.522.521-.522zm6.887 1.586a.265.265 0 0 0 0 .53h1.059a.265.265 0 0 0 0-.53zm2.381 0a.265.265 0 0 0 0 .53h1.058a.265.265 0 0 0 0-.53zm2.383 0a.265.265 0 0 0 0 .53h1.058a.265.265 0 0 0 0-.53zm-9.554 2.118c-.577 0-1.05.474-1.05 1.051v2.015l1.4-1.4a.265.265 0 0 1 .157-.077.265.265 0 0 1 .218.076l1.93 1.93 2.46-2.46a.265.265 0 0 1 .18-.075.265.265 0 0 1 .192.076l1.4 1.4v-1.485c0-.577-.472-1.05-1.049-1.05zm8.733.53a.265.265 0 0 0 .026.53h2.117a.265.265 0 0 0 0-.53h-2.117a.265.265 0 0 0-.026 0zm4.26 0a.265.265 0 0 0-.266.264v2.117a.265.265 0 0 0 .266.266h3.174a.265.265 0 0 0 .266-.266v-2.117a.265.265 0 0 0-.266-.264zm-7.693 1.169-2.27 2.272.34.34a.265.265 0 1 1-.373.376l-.524-.524-1.935-1.935-1.588 1.588v.956c0 .577.473 1.05 1.05 1.05h5.838c.577 0 1.05-.473 1.05-1.05v-1.487zm3.433.948a.265.265 0 0 0 .026.53h2.117a.265.265 0 0 0 0-.53h-2.117a.265.265 0 0 0-.026 0zm.026 2.116a.265.265 0 0 0 0 .53h7.408a.265.265 0 0 0 0-.53zm-2.805 2.646a.265.265 0 0 0 .027.53h1.059a.265.265 0 0 0 0-.53H10.98a.265.265 0 0 0-.027 0zm2.383 0a.265.265 0 0 0 .025.53h1.059a.265.265 0 0 0 0-.53h-1.059a.265.265 0 0 0-.025 0zm1.51 2.646a.265.265 0 0 0-.03 0H4.226a.265.265 0 0 0-.027 0 .265.265 0 0 0 .027.528h10.59a.265.265 0 1 0 .03-.528zm6.357 0a.265.265 0 0 0-.03 0h-4.236a.265.265 0 0 0-.027 0 .265.265 0 0 0 .027.528h4.237a.265.265 0 1 0 .03-.528zm-16.977 2.116a.265.265 0 0 0-.265.266v2.115a.265.265 0 0 0 .265.266h16.948a.265.265 0 0 0 .265-.266v-2.115a.265.265 0 0 0-.265-.266zm7.919 4.764a.265.265 0 0 0 .025.53h1.058a.265.265 0 0 0 0-.53H12.17a.265.265 0 0 0-.025 0z" color="#000" font-family="sans-serif" font-weight="400" overflow="visible" transform="translate(0 -271.6)" style="line-height:normal;font-variant-ligatures:normal;font-variant-position:normal;font-variant-caps:normal;font-variant-numeric:normal;font-variant-alternates:normal;font-feature-settings:normal;text-indent:0;text-align:start;text-decoration-line:none;text-decoration-style:solid;text-decoration-color:#000;text-transform:none;text-orientation:mixed;shape-padding:0;isolation:auto;mix-blend-mode:normal" fill="#1cbbda" class="color000 svgShape"></path></svg></g></svg>