<svg xmlns="http://www.w3.org/2000/svg" width="44" height="42.07" viewBox="0 0 44 42.07">
  <path id="call-us" d="M13.258,2.511a5.021,5.021,0,0,1,4.972,4.319v.009a24.854,24.854,0,0,0,1.353,5.431,5.035,5.035,0,0,1-1.131,5.3l0,0-2.008,2.008a31.186,31.186,0,0,0,10.65,10.65L29.1,28.219l0,0a5.021,5.021,0,0,1,5.3-1.13,24.849,24.849,0,0,0,5.429,1.352h.009a5.021,5.021,0,0,1,4.319,5.084v6.021a5.021,5.021,0,0,1-5.021,5.038c-.15,0-.3-.007-.452-.02l-.018,0a40.792,40.792,0,0,1-17.785-6.326A40.209,40.209,0,0,1,8.516,25.867,40.792,40.792,0,0,1,2.19,8l0-.016a5.021,5.021,0,0,1,5-5.473Zm2.991,4.595a3.035,3.035,0,0,0-2.991-2.595H7.185A3.021,3.021,0,0,0,4.179,7.8,38.975,38.975,0,0,0,10.2,24.783l0,.007A38.459,38.459,0,0,0,21.958,36.547l.008,0a38.984,38.984,0,0,0,16.907,6.017c.087.008.176.012.264.012a3.021,3.021,0,0,0,3.021-3.034V33.511q0-.012,0-.025a3.021,3.021,0,0,0-2.6-3.066A26.858,26.858,0,0,1,33.7,28.958a3.021,3.021,0,0,0-3.187.677l-2.552,2.552a1,1,0,0,1-1.2.162A33.187,33.187,0,0,1,14.319,19.91a1,1,0,0,1,.162-1.2l2.552-2.552a3.03,3.03,0,0,0,.677-3.185A26.861,26.861,0,0,1,16.248,7.105Zm25.453.4c.667,0,1.134.566,1.539,1.177a14.778,14.778,0,0,1,1.12,2.109,23.093,23.093,0,0,1,1.8,6.559,1,1,0,0,1-1.887.562,72.752,72.752,0,0,1-3.036-6.654c-.785-2.085-.772-2.743-.473-3.229A1.093,1.093,0,0,1,41.7,7.508Zm-6.464,4.707c.53,0,1.011.308,1.766,1.84a13.386,13.386,0,0,1,1.1,3.24,1,1,0,0,1-1.858.672c-.733-1.337-1.281-2.424-1.629-3.231-.418-.971-.566-1.519-.274-2.011A1.041,1.041,0,0,1,35.236,12.214Z" transform="translate(-2.168 -2.51)" fill="#1cbbda"/>
</svg>
