<svg xmlns="http://www.w3.org/2000/svg" width="44.98" height="61" viewBox="0 0 44.98 61">
  <g id="client-expectation" transform="translate(514.554 -372.676)">
    <path id="Path_15420" data-name="Path 15420" d="M-300.835,418.166c.648,0,1.3-.017,1.943,0a1.308,1.308,0,0,1,1.376,1.3,1.3,1.3,0,0,1-1.331,1.347q-1.986.049-3.974,0a1.306,1.306,0,0,1-1.334-1.348,1.316,1.316,0,0,1,1.377-1.3c.029,0,.059,0,.088,0Z" transform="translate(-172.558 -36.981)" fill="#1cbbda"/>
    <path id="Path_15420_-_Outline" data-name="Path 15420 - Outline" d="M-299.639,417.66c.293,0,.536,0,.764.011a1.807,1.807,0,0,1,1.86,1.79,1.808,1.808,0,0,1-1.819,1.855c-.659.016-1.334.024-2.007.024-.653,0-1.323-.008-1.99-.023a1.808,1.808,0,0,1-1.823-1.855,1.811,1.811,0,0,1,1.85-1.793c.038,0,.077,0,.116,0h1.855c.2,0,.4,0,.594,0S-299.84,417.66-299.639,417.66Zm-1.2,2.68c.665,0,1.332-.008,1.982-.024a.8.8,0,0,0,.844-.839.818.818,0,0,0-.893-.806c-.216-.007-.449-.01-.731-.01-.2,0-.4,0-.594,0s-.4,0-.6,0h-1.916a.843.843,0,0,0-.9.81.811.811,0,0,0,.846.84C-302.149,420.332-301.487,420.339-300.841,420.339Z" transform="translate(-172.558 -36.981)" fill="#18191b"/>
    <path id="Path_15421" data-name="Path 15421" d="M-510.685,418.165c.648,0,1.3-.02,1.943.006a1.291,1.291,0,0,1,1.325,1.258,1.3,1.3,0,0,1-1.295,1.382q-2.03.053-4.062,0a1.286,1.286,0,0,1-1.279-1.306,1.3,1.3,0,0,1,1.337-1.334C-512.04,418.143-511.362,418.164-510.685,418.165Z" transform="translate(0 -36.978)" fill="#1cbbda"/>
    <path id="Path_15421_-_Outline" data-name="Path 15421 - Outline" d="M-511.938,417.656c.217,0,.433,0,.65,0,.2,0,.4,0,.6,0h.03c.191,0,.382,0,.573,0s.388,0,.583,0c.3,0,.546,0,.777.014a1.8,1.8,0,0,1,1.8,1.736,1.822,1.822,0,0,1-.482,1.334,1.822,1.822,0,0,1-1.3.569c-.679.018-1.363.026-2.034.026-.687,0-1.378-.009-2.055-.028a1.791,1.791,0,0,1-1.766-1.8,1.8,1.8,0,0,1,1.818-1.839C-512.5,417.66-512.244,417.656-511.938,417.656Zm1.284,1.009h-.031c-.2,0-.409,0-.613,0s-.427,0-.64,0c-.292,0-.533,0-.758.013a.806.806,0,0,0-.857.829.788.788,0,0,0,.793.812c.668.018,1.35.027,2.028.027.662,0,1.337-.009,2.008-.026a.82.82,0,0,0,.594-.252.83.83,0,0,0,.214-.609.791.791,0,0,0-.846-.779c-.217-.009-.451-.013-.736-.013-.191,0-.382,0-.573,0S-510.46,418.665-510.654,418.665Z" transform="translate(0 -36.978)" fill="#18191b"/>
    <path id="Path_15422" data-name="Path 15422" d="M-302.659,374.705a1.367,1.367,0,0,1-.771,1.151c-.865.436-1.72.893-2.6,1.294a1.322,1.322,0,0,1-1.817-.573,1.3,1.3,0,0,1,.63-1.787c.854-.457,1.72-.9,2.6-1.293A1.329,1.329,0,0,1-302.659,374.705Z" transform="translate(-169.4 -0.146)" fill="#1cbbda"/>
    <path id="Path_15422_-_Outline" data-name="Path 15422 - Outline" d="M-303.972,372.853a1.8,1.8,0,0,1,1.279.519,1.858,1.858,0,0,1,.534,1.333l0,.047A1.875,1.875,0,0,1-303.2,376.3q-.354.179-.707.361c-.62.318-1.262.647-1.912.942a2.09,2.09,0,0,1-.869.2,1.768,1.768,0,0,1-1.6-1,1.8,1.8,0,0,1,.841-2.453c.965-.517,1.827-.945,2.633-1.308A2.055,2.055,0,0,1-303.972,372.853Zm.813,1.828a.848.848,0,0,0-.239-.6.8.8,0,0,0-.574-.228,1.063,1.063,0,0,0-.438.1c-.785.354-1.627.772-2.572,1.278a.808.808,0,0,0-.419,1.122.766.766,0,0,0,.709.449,1.1,1.1,0,0,0,.455-.106c.629-.286,1.26-.609,1.87-.922q.356-.183.713-.364A.868.868,0,0,0-303.159,374.681Z" transform="translate(-169.4 -0.146)" fill="#18191b"/>
    <path id="Path_15423" data-name="Path 15423" d="M-302.642,458.218a1.326,1.326,0,0,1-1.826,1.242c-.97-.416-1.914-.9-2.838-1.41a1.219,1.219,0,0,1-.537-1.675,1.171,1.171,0,0,1,1.605-.7,33.319,33.319,0,0,1,3.067,1.535A1.167,1.167,0,0,1-302.642,458.218Z" transform="translate(-169.413 -67.736)" fill="#1cbbda"/>
    <path id="Path_15423_-_Outline" data-name="Path 15423 - Outline" d="M-303.96,460.066a1.777,1.777,0,0,1-.7-.147,32.184,32.184,0,0,1-2.883-1.432,1.723,1.723,0,0,1-.754-2.311,1.7,1.7,0,0,1,1.554-1.106,1.82,1.82,0,0,1,.7.147,33.762,33.762,0,0,1,3.106,1.554l.007,0a1.6,1.6,0,0,1,.789,1.409l0,.024v.024A1.844,1.844,0,0,1-303.96,460.066Zm-2.787-4a.732.732,0,0,0-.636.5.726.726,0,0,0,.32,1.04c1.025.567,1.939,1.022,2.793,1.388a.783.783,0,0,0,.31.066.847.847,0,0,0,.818-.839.669.669,0,0,0-.267-.574l-.007,0a33.025,33.025,0,0,0-3.013-1.509A.829.829,0,0,0-306.747,456.07Z" transform="translate(-169.413 -67.736)" fill="#18191b"/>
    <path id="Path_15424" data-name="Path 15424" d="M-501.492,373.216a2.232,2.232,0,0,1,.5.132c.925.448,1.859.881,2.754,1.382a1.267,1.267,0,0,1,.5,1.757,1.232,1.232,0,0,1-1.658.6,25.5,25.5,0,0,1-2.906-1.467,1.161,1.161,0,0,1-.528-1.453A1.314,1.314,0,0,1-501.492,373.216Z" transform="translate(-9.166 -0.033)" fill="#1cbbda"/>
    <path id="Path_15424_-_Outline" data-name="Path 15424 - Outline" d="M-501.443,372.713l.074.019.075.015a1.975,1.975,0,0,1,.518.152l.493.237c.756.363,1.538.739,2.287,1.158a1.759,1.759,0,0,1,.7,2.435,1.753,1.753,0,0,1-1.539.98,1.937,1.937,0,0,1-.75-.158,25.88,25.88,0,0,1-2.964-1.5,1.658,1.658,0,0,1-.753-2.04,1.805,1.805,0,0,1,1.786-1.3Zm2.605,4a.756.756,0,0,0,.663-.462.771.771,0,0,0-.31-1.079c-.723-.4-1.49-.773-2.232-1.13l-.5-.239a1.14,1.14,0,0,0-.262-.069l-.054-.01a.8.8,0,0,0-.825.6.663.663,0,0,0,.3.866,24.9,24.9,0,0,0,2.849,1.439A.947.947,0,0,0-498.838,376.708Z" transform="translate(-9.166 -0.033)" fill="#18191b"/>
    <path id="Path_15425" data-name="Path 15425" d="M-497.6,457.067a1.26,1.26,0,0,1-.761,1.193c-.862.441-1.722.887-2.6,1.286a1.3,1.3,0,0,1-1.8-.591,1.273,1.273,0,0,1,.638-1.777c.85-.463,1.71-.915,2.6-1.306A1.306,1.306,0,0,1-497.6,457.067Z" transform="translate(-9.158 -67.869)" fill="#1cbbda"/>
    <path id="Path_15425_-_Outline" data-name="Path 15425 - Outline" d="M-498.889,455.231a1.772,1.772,0,0,1,1.271.521,1.828,1.828,0,0,1,.516,1.314,1.745,1.745,0,0,1-1.033,1.638l-.2.1c-.787.4-1.6.82-2.424,1.194a2.067,2.067,0,0,1-.855.193,1.757,1.757,0,0,1-1.594-1.018,1.777,1.777,0,0,1,.847-2.437c.775-.422,1.694-.909,2.632-1.324A2.074,2.074,0,0,1-498.889,455.231Zm-2.726,3.963a1.077,1.077,0,0,0,.443-.1c.8-.363,1.6-.775,2.381-1.173l.2-.1a.765.765,0,0,0,.489-.742v-.011a.826.826,0,0,0-.227-.606.779.779,0,0,0-.561-.224,1.081,1.081,0,0,0-.437.1c-.9.4-1.8.875-2.558,1.288a.787.787,0,0,0-.428,1.117A.758.758,0,0,0-501.616,459.194Z" transform="translate(-9.158 -67.869)" fill="#18191b"/>
    <path id="Path_15426" data-name="Path 15426" d="M-468.951,413.675A20.159,20.159,0,0,0-476.6,408.9l.886-.588a13.328,13.328,0,0,0,4.929-16.391,4.115,4.115,0,0,0-4.124-2.746c-.65.006-1.3.016-1.95-.006-.274-.01-.651.168-.806-.128-.2-.384.213-.552.434-.764a8.518,8.518,0,0,0,2.728-7.847,8.636,8.636,0,0,0-10.143-7.085,8.654,8.654,0,0,0-6.808,10.562,8.761,8.761,0,0,0,2.584,4.349c.223.207.648.365.476.752-.165.37-.575.145-.868.159-.708.035-1.419,0-2.127.015a3.933,3.933,0,0,0-3.726,2.388,12.918,12.918,0,0,0-.587,9.741,13.1,13.1,0,0,0,6.17,7.513c-.083.116-.093.148-.113.155A20.1,20.1,0,0,0-503.061,429.1a4,4,0,0,0,4.031,4.061q16,.022,32.009,0a3.919,3.919,0,0,0,3.984-3.823A20.124,20.124,0,0,0-468.951,413.675Zm-18.464-35.931a6.006,6.006,0,0,1,8.76.012,5.945,5.945,0,0,1-.622,8.72,2.244,2.244,0,0,0-1.1,2.219c.059.4-.126.5-.5.486-.738-.025-1.477-.008-2.216-.008-.709,0-1.419-.022-2.127.008-.4.017-.535-.128-.481-.505a2.239,2.239,0,0,0-1.116-2.212A5.953,5.953,0,0,1-487.415,377.744Zm-6.1,21.353a10.255,10.255,0,0,1,.675-6.147,1.627,1.627,0,0,1,1.695-1.122c2.717.022,5.434.008,8.152.008,2.658,0,5.317.015,7.975-.008a1.655,1.655,0,0,1,1.772,1.141,10.306,10.306,0,0,1-1.82,11.234,10.038,10.038,0,0,1-10.908,3.2A10.179,10.179,0,0,1-493.51,399.1Zm13.3,12.133c-.5.966-.986,1.941-1.464,2.919a.621.621,0,0,1-.6.386c-1.862.123-1.861.134-2.707-1.558-.342-.683-.682-1.367-1.078-2.162a16.041,16.041,0,0,1,5.614-.1C-480.073,410.766-480.046,410.917-480.209,411.23Zm-6.544,7.014c-.736,3.879-1.339,7.784-1.967,11.683-.083.513-.321.59-.767.584-1.564-.022-3.129-.008-4.694-.009s-3.13.009-4.694,0a1.324,1.324,0,0,1-1.507-1.367,17.508,17.508,0,0,1,10.841-17.348c.65-.267.975-.223,1.224.474a7.675,7.675,0,0,0,.87,1.733A5.3,5.3,0,0,1-486.753,418.244Zm6.2,12.27c-.825-.043-1.654-.011-2.481-.011s-1.656-.026-2.481.01c-.473.021-.615-.113-.534-.589.694-4.07,1.391-8.14,2.039-12.218.116-.73.579-.518.962-.508s.847-.257.966.5c.648,4.078,1.352,8.147,2.047,12.217C-479.957,430.358-480.047,430.54-480.551,430.514Zm14.858-1.522a1.357,1.357,0,0,1-1.549,1.507c-1.565.012-3.13,0-4.695,0s-3.13-.017-4.694.01c-.477.008-.658-.136-.736-.619q-1.075-6.679-2.208-13.348a1.4,1.4,0,0,1,.135-.926c.611-1.208,1.233-2.411,1.817-3.633.189-.395.344-.509.792-.319a17.184,17.184,0,0,1,11.014,14.319A18.329,18.329,0,0,1-465.693,428.992Z" transform="translate(-9.024 0)" fill="#1cbbda"/>
    <path id="Path_15426_-_Outline" data-name="Path 15426 - Outline" d="M-483.153,433.676c-5.23,0-10.572,0-15.878-.011a4.443,4.443,0,0,1-3.2-1.308,4.842,4.842,0,0,1-1.326-3.235,21.1,21.1,0,0,1,3.874-13.253,20.6,20.6,0,0,1,9.127-7.091,13.523,13.523,0,0,1-5.623-7.317,13.431,13.431,0,0,1,.609-10.106,4.554,4.554,0,0,1,1.68-1.978,4.821,4.821,0,0,1,2.486-.7c.142,0,.3-.006.472-.006l.477,0,.468,0c.274,0,.5,0,.7-.015a1.162,1.162,0,0,1,.13,0l-.054-.047a9.3,9.3,0,0,1-2.728-4.592,8.918,8.918,0,0,1,1.107-7,9.2,9.2,0,0,1,2.541-2.664,9.438,9.438,0,0,1,3.544-1.511,8.805,8.805,0,0,1,1.749-.176,9.132,9.132,0,0,1,5.867,2.169,9.009,9.009,0,0,1,3.121,5.506,9.037,9.037,0,0,1-2.876,8.285l-.035.032h.078c.264.009.546.013.886.013.259,0,.524,0,.781,0l.32,0a4.606,4.606,0,0,1,4.53,3.049,13.855,13.855,0,0,1,.538,9.418,13.945,13.945,0,0,1-5.651,7.587l-.076.051a20.266,20.266,0,0,1,6.923,4.544,20.628,20.628,0,0,1,4.778,7.368,22.2,22.2,0,0,1,1.28,8.67,4.428,4.428,0,0,1-4.483,4.3C-472.335,433.672-477.763,433.676-483.153,433.676Zm-7.781-44c-.167,0-.313,0-.446.005a3.428,3.428,0,0,0-3.286,2.1,12.46,12.46,0,0,0-.564,9.376,12.674,12.674,0,0,0,5.944,7.234l.478.276-.321.448c-.029.04-.047.068-.059.087a.564.564,0,0,1-.294.248,19.717,19.717,0,0,0-13.079,19.639,3.494,3.494,0,0,0,3.532,3.579c5.305.007,10.647.011,15.876.011,5.39,0,10.817,0,16.131-.012a3.4,3.4,0,0,0,3.486-3.344,19.719,19.719,0,0,0-5.769-15.293,19.6,19.6,0,0,0-7.469-4.657l-.937-.337,1.716-1.138a12.865,12.865,0,0,0,4.746-15.778,3.6,3.6,0,0,0-3.61-2.443l-.31,0c-.259,0-.526.005-.79.005-.352,0-.645,0-.921-.014h-.005a1.4,1.4,0,0,0-.155.017,2.136,2.136,0,0,1-.3.027.818.818,0,0,1-.767-.44.953.953,0,0,1,.409-1.257c.048-.037.094-.072.123-.1A7.988,7.988,0,0,0-475,380.5a8.134,8.134,0,0,0-8-6.828,7.806,7.806,0,0,0-1.55.156,8.3,8.3,0,0,0-5.438,3.727,7.927,7.927,0,0,0-.985,6.221,8.208,8.208,0,0,0,2.44,4.105,1.622,1.622,0,0,0,.129.1.971.971,0,0,1,.463,1.222.833.833,0,0,1-.8.51,2.021,2.021,0,0,1-.333-.035,1.32,1.32,0,0,0-.161-.021c-.223.011-.46.016-.752.016l-.477,0Zm10.472,41.344c-.036,0-.075,0-.115,0-.287-.015-.6-.022-.98-.022-.243,0-.491,0-.732.005-.485.005-1,.005-1.482,0-.24,0-.487,0-.729,0-.386,0-.7.006-.991.019l-.11,0a.994.994,0,0,1-.778-.3,1.051,1.051,0,0,1-.162-.878l.135-.791c.638-3.742,1.3-7.611,1.9-11.422a.987.987,0,0,1,1.012-.966,2.539,2.539,0,0,1,.294.022c.061.007.118.014.163.015h.008a1.536,1.536,0,0,0,.164-.015,2.313,2.313,0,0,1,.29-.023c.311,0,.853.124.985.955.559,3.515,1.169,7.084,1.76,10.535l.287,1.676a1.061,1.061,0,0,1-.159.895A.971.971,0,0,1-480.462,431.017Zm-1.1-1.025c.4,0,.727.007,1.032.023h0l0-.021-.286-1.676c-.591-3.454-1.2-7.026-1.762-10.547a.776.776,0,0,0-.025-.111c-.039,0-.088.008-.139.014a2.177,2.177,0,0,1-.323.022c-.089,0-.175-.012-.25-.021s-.128-.015-.175-.015a.712.712,0,0,0-.029.123c-.607,3.816-1.267,7.688-1.905,11.433l-.135.791v.006h.021c.306-.013.635-.02,1.035-.02.247,0,.5,0,.739,0s.487,0,.729,0,.491,0,.732-.005S-481.806,429.992-481.558,429.992Zm4.889,1.022a1.08,1.08,0,0,1-1.192-1.04c-.689-4.283-1.432-8.773-2.208-13.344a1.905,1.905,0,0,1,.182-1.235l.392-.772c.474-.932.963-1.895,1.42-2.851a1.016,1.016,0,0,1,.9-.693,1.384,1.384,0,0,1,.543.129,18.888,18.888,0,0,1,7.742,5.751,18.577,18.577,0,0,1,3.572,8.96,18.485,18.485,0,0,1,.129,3.087A1.845,1.845,0,0,1-467.239,431c-.562,0-1.168.006-1.908.006l-2.733,0h-.078l-1.292,0-1.288,0c-.818,0-1.481,0-2.085.016Zm-.158-1.013a.681.681,0,0,0,.158.013h.029c.61-.011,1.279-.016,2.1-.016l1.291,0,1.289,0h.078l2.733,0c.737,0,1.341,0,1.9-.006.767-.006,1.033-.263,1.053-1.021a17.542,17.542,0,0,0-.12-2.924c-.923-6.7-4.427-11.259-10.714-13.927-.037-.016-.067-.027-.089-.034-.014.025-.033.06-.056.108-.462.967-.955,1.936-1.431,2.872l-.391.77a.9.9,0,0,0-.088.617c.776,4.574,1.519,9.066,2.209,13.352A.758.758,0,0,0-476.827,430Zm-12.615,1.011h-.053c-.61-.008-1.279-.012-2.107-.012-.851,0-1.7,0-2.554,0h-.116c-.894,0-1.788,0-2.683,0-.748,0-1.36,0-1.926-.007a1.82,1.82,0,0,1-2-1.841,18.347,18.347,0,0,1,2.851-10.952,17.906,17.906,0,0,1,8.3-6.884,2.045,2.045,0,0,1,.775-.189,1.23,1.23,0,0,1,1.11.957,7.215,7.215,0,0,0,.812,1.619,5.744,5.744,0,0,1,.773,4.629c-.614,3.238-1.145,6.552-1.658,9.757q-.153.956-.307,1.912A1.082,1.082,0,0,1-489.442,431.012ZM-491.6,430c.832,0,1.506,0,2.121.013h.039a.877.877,0,0,0,.189-.014.633.633,0,0,0,.039-.15q.154-.955.307-1.911c.514-3.212,1.046-6.533,1.663-9.786a4.762,4.762,0,0,0-.617-3.878,8.114,8.114,0,0,1-.927-1.846.732.732,0,0,0-.152-.293h-.016a1.186,1.186,0,0,0-.395.114,17.011,17.011,0,0,0-10.532,16.86c.032.628.325.887,1.012.892.563,0,1.172.007,1.918.007.894,0,1.788,0,2.683,0h.116C-493.3,430-492.453,430-491.6,430Zm8.35-14.916c-1.239,0-1.515-.551-2.18-1.882-.227-.454-.454-.909-.7-1.4l-.671-1.347.636-.131a15.144,15.144,0,0,1,3.1-.311,18.788,18.788,0,0,1,2.691.2.874.874,0,0,1,.688.414.9.9,0,0,1-.076.829c-.434.836-.884,1.733-1.459,2.908a1.118,1.118,0,0,1-1.02.665l-.036,0C-482.675,415.062-482.987,415.083-483.251,415.083Zm-2.066-3.895.085.17c.242.487.469.941.7,1.395.665,1.329.688,1.329,1.286,1.329.232,0,.529-.02.905-.044l.036,0c.14-.009.142-.013.188-.107.538-1.1.968-1.96,1.378-2.753a17.529,17.529,0,0,0-2.323-.161A14.307,14.307,0,0,0-485.318,411.188Zm2.589-2.813a12.419,12.419,0,0,1-3.377-.492,10.867,10.867,0,0,1-5.238-3.15A11.646,11.646,0,0,1-494,399.2a10.794,10.794,0,0,1,.7-6.441,2.125,2.125,0,0,1,2.13-1.429h.029c1.048.009,2.192.013,3.6.013l2.294,0q2.246,0,4.493,0l2.239,0c1.365,0,2.474,0,3.49-.013h.037a2.144,2.144,0,0,1,2.205,1.46,11.914,11.914,0,0,1,.805,6.174,10.957,10.957,0,0,1-2.715,5.57,11.6,11.6,0,0,1-3.7,2.874A10,10,0,0,1-482.729,408.375Zm-8.436-16.047a1.134,1.134,0,0,0-1.208.815,9.812,9.812,0,0,0-.647,5.853,9.66,9.66,0,0,0,7.187,7.925,11.421,11.421,0,0,0,3.1.454,9.441,9.441,0,0,0,7.291-3.5,9.818,9.818,0,0,0,1.73-10.723,1.156,1.156,0,0,0-1.273-.822h-.028c-1.02.009-2.131.013-3.5.013l-2.241,0q-2.245,0-4.49,0l-2.3,0c-1.412,0-2.559,0-3.61-.013Zm5.886-2.643a.925.925,0,0,1-.736-.287.974.974,0,0,1-.18-.791c.1-.679-.145-1.136-.929-1.746a6.318,6.318,0,0,1-2.391-4.5,6.522,6.522,0,0,1,1.736-4.962,6.532,6.532,0,0,1,4.745-2.048,6.49,6.49,0,0,1,4.746,2.063,6.546,6.546,0,0,1,1.726,4.951,6.287,6.287,0,0,1-2.406,4.5c-.775.609-1.015,1.068-.915,1.754a.928.928,0,0,1-.177.772.975.975,0,0,1-.755.287h-.079c-.265-.009-.553-.013-.905-.013l-.643,0q-.641,0-1.283,0c-.208,0-.416,0-.624,0-.331,0-.6,0-.85.015Zm3.481-1.016c.354,0,.646,0,.916.013a2.759,2.759,0,0,1,1.3-2.6,5.3,5.3,0,0,0,2.026-3.794,5.543,5.543,0,0,0-1.462-4.193,5.414,5.414,0,0,0-4.013-1.743,5.455,5.455,0,0,0-4.016,1.733,5.52,5.52,0,0,0-1.468,4.2,5.246,5.246,0,0,0,2.008,3.785,2.759,2.759,0,0,1,1.313,2.61c.251-.01.522-.014.848-.014.211,0,.422,0,.633,0q.634.006,1.267,0Z" transform="translate(-9.024 0)" fill="#18191b"/>
  </g>
</svg>
