<svg xmlns="http://www.w3.org/2000/svg" width="64.642" height="63.658" viewBox="0 0 64.642 63.658">
  <path id="client" d="M58.972,62.637l-.479-1.658H50.324l-.431,1.494-.509-1.494h-28.4l.119-1.107c.506-4.691,2.252-8.062,5.338-10.305,2.675-1.945,5.936-2.77,9.089-3.569,3.19-.808,6.2-1.571,8.237-3.4L44.9,41.579l4.841,14.226,1.669-5.78-1-1.082-.04-.059a3.112,3.112,0,0,1-.467-3.307l0,0a3.426,3.426,0,0,1,3.372-1.726c.194,0,.388,0,.575.009s.359.009.53.009c.155,0,.317,0,.488-.007s.366-.008.554-.008c.837,0,3.059,0,3.636,2.32a3.4,3.4,0,0,1-.592,2.688l-.047.073-1.007,1.093,1.622,5.616,4.343-14.1,1.164,1.049c2.009,1.812,4.778,2.654,7.708,3.546,2.907.885,5.912,1.8,8.362,3.751,2.809,2.238,4.41,5.5,4.9,9.979l.12,1.108H59.483ZM60.1,58.979h23.27c-1.261-7.747-6.339-9.292-11.7-10.924A26.094,26.094,0,0,1,64.4,45.021Zm-9.2,0h7.014L55.179,49.5l1.65-1.79c.392-.639.315-.951.289-1.056-.14-.564-.407-.8-1.694-.8-.168,0-.343,0-.512.007s-.353.007-.53.007c-.2,0-.391,0-.579-.009s-.357-.009-.526-.009c-1.077,0-1.371.2-1.587.629-.063.127-.219.454.289,1.219l1.661,1.8Zm-27.661,0H48.7L43.942,44.985c-2.271,1.521-5.135,2.247-7.919,2.952C30.136,49.427,24.564,50.837,23.241,58.979ZM54.229,41.168h-.162A10.971,10.971,0,0,1,46.478,38.1l-.16-.148a28.138,28.138,0,0,1-4.342-5.693l-.027-.042.059-.037-.06.036-2.992-4.761a9.856,9.856,0,0,1-1.887-4.946c0-.011,0-.023,0-.034a4.571,4.571,0,0,1,.4-2.049l0-.008a4.082,4.082,0,0,1,1.431-1.667l.019-.013c.094-.06.19-.117.287-.171a74.386,74.386,0,0,1-.077-7.875l0-.052a12.909,12.909,0,0,1,.4-2.117A11.221,11.221,0,0,1,41.659,4.47a14.177,14.177,0,0,1,3.38-2.992l.008-.005A14.893,14.893,0,0,1,47.979.047a18.837,18.837,0,0,1,6.326-1.068,19.25,19.25,0,0,1,6.7,1.183,14.277,14.277,0,0,1,5.553,3.63,12.719,12.719,0,0,1,3.206,7.975l0,.049-.182,7.026A3.275,3.275,0,0,1,71,20.308c.655,1.312.455,3.074-.631,5.546l-.021.045-.075.15-3.446,5.667h0l-.266.436h0a27.621,27.621,0,0,1-4.3,5.762l0,0-.06.057-.006.006A11.152,11.152,0,0,1,54.229,41.168Zm-.14-2h.069v0h.021a11.465,11.465,0,0,0,6.641-2.645h0l.056-.053a28.943,28.943,0,0,0,3.979-5.359h0l.263-.431,3.389-5.686a8.394,8.394,0,0,0,.673-2.48,12.6,12.6,0,0,0-2.024-.226h-.01a3.782,3.782,0,0,1-.907.107,5.1,5.1,0,0,1-1.352-.2l-.95-.263,1.269-4.865c-.115,0-.23,0-.344,0-3.859,0-7.106-1.3-9.971-2.456-2.356-.947-4.391-1.764-6.374-1.764a7.194,7.194,0,0,0-5.028,2.209L44.558,21.7l-.936.194a7.839,7.839,0,0,1-1.481.087H41.8a12.032,12.032,0,0,0-1.976.111c-.551.1-.732.244-.75.278a.168.168,0,0,0-.006.055,6.246,6.246,0,0,0,.871,2.592l.955,1.36,2.773,4.819A29.663,29.663,0,0,0,47.692,36.5l.137.127-.393.431.394-.43,0,0A11.36,11.36,0,0,0,54.089,39.167ZM67.671,15.546l-1.263,4.842a1.617,1.617,0,0,0,.315-.057l.112-.033.117-.006a7.405,7.405,0,0,1,.875.025l-.278-.085ZM41.133,10.819a72.522,72.522,0,0,0,.122,8.295l.055.752-.333.122c.27-.008.545-.01.824-.01h.454L41.35,14.36,41.712,14a9.433,9.433,0,0,1,6.8-3.144c2.37,0,4.677.927,7.12,1.908,2.829,1.136,5.754,2.312,9.226,2.312h0a15.21,15.21,0,0,0,1.555-.08l1.269-.131.078-3A10.615,10.615,0,0,0,65.09,5.15C62.678,2.538,58.647.979,54.305.979a16.823,16.823,0,0,0-5.651.951,12.9,12.9,0,0,0-2.538,1.233,10.592,10.592,0,0,0-4.649,5.9A10.906,10.906,0,0,0,41.133,10.819Z" transform="translate(-20.984 1.021)" fill="#1cbbda"/>
</svg>
