<svg xmlns="http://www.w3.org/2000/svg" width="70" height="19.88" viewBox="0 0 70 19.88">
  <g id="clutch-logo" transform="translate(-21 -235.9)">
    <path id="Path_10053" data-name="Path 10053" d="M177,235.9h3.22v19.88H177Z" transform="translate(-137.8 0)" fill="#17313b"/>
    <path id="Path_10054" data-name="Path 10054" d="M233.82,298.24a3.122,3.122,0,0,1-3.36,3.36c-1.96,0-2.24-1.82-2.24-2.8v-7.7H225v7.56a5.912,5.912,0,0,0,1.68,4.48,5.068,5.068,0,0,0,3.78,1.4,4.888,4.888,0,0,0,3.36-1.12v1.12h3.22V291.1h-3.22Z" transform="translate(-180.2 -48.76)" fill="#17313b"/>
    <path id="Path_10055" data-name="Path 10055" d="M339.8,249.1h-3.22V254H334.2v3.08h2.38v10.36h3.22V257.08h2.38V254H339.8Z" transform="translate(-276.66 -11.66)" fill="#17313b"/>
    <path id="Path_10056" data-name="Path 10056" d="M416.92,298.36a4.42,4.42,0,0,1-2.66.98,3.715,3.715,0,0,1-3.78-3.92,3.6,3.6,0,0,1,3.78-3.78,3.7,3.7,0,0,1,2.66.98l.42.42,2.24-2.1-.56-.42a7.179,7.179,0,0,0-4.76-1.82,6.86,6.86,0,1,0,0,13.72,7.178,7.178,0,0,0,4.76-1.82l.56-.42-2.24-2.24Z" transform="translate(-341.32 -46.64)" fill="#17313b"/>
    <path id="Path_10057" data-name="Path 10057" d="M534.8,243.46a4.443,4.443,0,0,0-3.5-1.4,4.211,4.211,0,0,0-3.08,1.12V235.9H525v19.88h3.22v-7.42c0-3.08,2.1-3.36,2.94-3.36,1.96,0,1.82,1.82,1.82,2.8v7.84h3.22v-7.7A6.376,6.376,0,0,0,534.8,243.46Z" transform="translate(-445.2 0)" fill="#17313b"/>
    <circle id="Ellipse_288" data-name="Ellipse 288" cx="2.24" cy="2.24" r="2.24" transform="translate(70.56 246.68)" fill="#ef4335"/>
    <path id="Path_10058" data-name="Path 10058" d="M34.72,256.154a6.565,6.565,0,0,1-4.62,1.82c-3.5,0-6.02-2.8-6.02-6.58s2.52-6.58,6.16-6.58a6.588,6.588,0,0,1,4.62,1.96l.42.42,2.1-2.1-.42-.42a9.428,9.428,0,0,0-6.72-2.8c-5.32-.14-9.24,4.06-9.24,9.52s3.92,9.66,9.1,9.66a9.2,9.2,0,0,0,6.72-2.8l.42-.42-2.1-2.1Z" transform="translate(0 -5.274)" fill="#17313b"/>
  </g>
</svg>
