<svg xmlns="http://www.w3.org/2000/svg" width="66.353" height="60" viewBox="0 0 66.353 60">
  <g id="coding" transform="translate(513.129 -378.101)">
    <g id="coding-svgrepo-com" transform="translate(-513.129 378.101)">
      <path id="Path_15427" data-name="Path 15427" d="M80.69,205.991a1.087,1.087,0,0,0-1.491-.378l-12.669,7.546a1.087,1.087,0,0,0,0,1.868L79.2,222.573a1.087,1.087,0,0,0,1.113-1.868l-11.1-6.611,11.1-6.611A1.087,1.087,0,0,0,80.69,205.991Z" transform="translate(-56.43 -179.902)" fill="#1cbbda"/>
      <path id="Path_15428" data-name="Path 15428" d="M301.783,222.2a1.087,1.087,0,0,0,1.491.378l12.669-7.546a1.087,1.087,0,0,0,0-1.868l-12.669-7.546a1.087,1.087,0,1,0-1.113,1.868l11.1,6.611-11.1,6.611A1.087,1.087,0,0,0,301.783,222.2Z" transform="translate(-259.69 -179.903)" fill="#1cbbda"/>
      <path id="Path_15429" data-name="Path 15429" d="M202.872,205.941l-10.134,15.091a1.088,1.088,0,1,0,1.806,1.212l10.134-15.091a1.088,1.088,0,1,0-1.806-1.212Z" transform="translate(-165.531 -179.903)" fill="#1cbbda"/>
      <path id="Path_15430" data-name="Path 15430" d="M65.294,22.5H1.059A1.059,1.059,0,0,0,0,23.559V81.441A1.059,1.059,0,0,0,1.059,82.5H65.294a1.059,1.059,0,0,0,1.059-1.059V70.147a1.059,1.059,0,1,0-2.118,0V80.382H2.118V33.088H64.235V65.912a1.059,1.059,0,0,0,2.118,0V23.559A1.059,1.059,0,0,0,65.294,22.5ZM2.118,24.618H41.294v6.353H2.118Zm41.294,6.353V24.618H64.235v6.353Z" transform="translate(0 -22.5)" fill="#1cbbda"/>
      <path id="Path_15431" data-name="Path 15431" d="M374.66,52a1.16,1.16,0,1,0,1.16,1.16A1.161,1.161,0,0,0,374.66,52Z" transform="translate(-320.821 -47.722)" fill="#1cbbda"/>
      <path id="Path_15432" data-name="Path 15432" d="M333.66,52a1.16,1.16,0,1,0,1.16,1.16A1.161,1.161,0,0,0,333.66,52Z" transform="translate(-285.604 -47.722)" fill="#1cbbda"/>
      <path id="Path_15433" data-name="Path 15433" d="M415.66,52a1.16,1.16,0,1,0,1.16,1.16A1.161,1.161,0,0,0,415.66,52Z" transform="translate(-356.195 -47.722)" fill="#1cbbda"/>
    </g>
  </g>
</svg>
