<svg xmlns="http://www.w3.org/2000/svg" width="39.302" height="37.82" viewBox="0 0 39.302 37.82">
  <g id="company_focus" transform="translate(-372.001 -2189.001)">
    <g id="Union_13" data-name="Union 13" transform="translate(-13151.801 -4492)" fill="none">
      <path d="M13541.955,6708.624a10.581,10.581,0,1,1,10.572,10.2A10.39,10.39,0,0,1,13541.955,6708.624Zm-18.153-.143a6.418,6.418,0,1,1,6.417,6.417A6.418,6.418,0,0,1,13523.8,6708.48Zm22.511-21.06a6.419,6.419,0,1,1,6.419,6.42A6.417,6.417,0,0,1,13546.313,6687.42Zm-19.491-.377a3.777,3.777,0,1,1,3.778,3.775A3.776,3.776,0,0,1,13526.821,6687.043Z" stroke="none"/>
      <path d="M 13552.52734375 6716.8212890625 C 13557.255859375 6716.8212890625 13561.103515625 6713.1435546875 13561.103515625 6708.62353515625 C 13561.103515625 6704.10498046875 13557.255859375 6700.4287109375 13552.52734375 6700.4287109375 C 13547.80078125 6700.4287109375 13543.955078125 6704.10498046875 13543.955078125 6708.62353515625 C 13543.955078125 6713.1435546875 13547.80078125 6716.8212890625 13552.52734375 6716.8212890625 M 13530.21875 6712.89697265625 C 13532.65625 6712.89697265625 13534.638671875 6710.91552734375 13534.638671875 6708.48046875 C 13534.638671875 6706.04345703125 13532.65625 6704.060546875 13530.21875 6704.060546875 C 13527.783203125 6704.060546875 13525.8017578125 6706.04345703125 13525.8017578125 6708.48046875 C 13525.8017578125 6710.91552734375 13527.783203125 6712.89697265625 13530.21875 6712.89697265625 M 13552.7314453125 6691.84033203125 C 13555.1689453125 6691.84033203125 13557.1513671875 6689.857421875 13557.1513671875 6687.42041015625 C 13557.1513671875 6684.9833984375 13555.1689453125 6683.0009765625 13552.7314453125 6683.0009765625 C 13550.294921875 6683.0009765625 13548.3125 6684.9833984375 13548.3125 6687.42041015625 C 13548.3125 6689.857421875 13550.294921875 6691.84033203125 13552.7314453125 6691.84033203125 M 13530.599609375 6688.81787109375 C 13531.578125 6688.81787109375 13532.375 6688.021484375 13532.375 6687.04296875 C 13532.375 6686.064453125 13531.578125 6685.26806640625 13530.599609375 6685.26806640625 C 13529.619140625 6685.26806640625 13528.8212890625 6686.064453125 13528.8212890625 6687.04296875 C 13528.8212890625 6688.021484375 13529.619140625 6688.81787109375 13530.599609375 6688.81787109375 M 13552.52734375 6718.8212890625 C 13546.6904296875 6718.8212890625 13541.955078125 6714.25341796875 13541.955078125 6708.62353515625 C 13541.955078125 6702.9931640625 13546.6904296875 6698.4287109375 13552.52734375 6698.4287109375 C 13558.369140625 6698.4287109375 13563.103515625 6702.9931640625 13563.103515625 6708.62353515625 C 13563.103515625 6714.25341796875 13558.369140625 6718.8212890625 13552.52734375 6718.8212890625 Z M 13530.21875 6714.89697265625 C 13526.6748046875 6714.89697265625 13523.8017578125 6712.02392578125 13523.8017578125 6708.48046875 C 13523.8017578125 6704.93359375 13526.6748046875 6702.060546875 13530.21875 6702.060546875 C 13533.765625 6702.060546875 13536.638671875 6704.93359375 13536.638671875 6708.48046875 C 13536.638671875 6712.02392578125 13533.765625 6714.89697265625 13530.21875 6714.89697265625 Z M 13552.7314453125 6693.84033203125 C 13549.1845703125 6693.84033203125 13546.3125 6690.9638671875 13546.3125 6687.42041015625 C 13546.3125 6683.87353515625 13549.1845703125 6681.0009765625 13552.7314453125 6681.0009765625 C 13556.2783203125 6681.0009765625 13559.1513671875 6683.87353515625 13559.1513671875 6687.42041015625 C 13559.1513671875 6690.9638671875 13556.2783203125 6693.84033203125 13552.7314453125 6693.84033203125 Z M 13530.599609375 6690.81787109375 C 13528.513671875 6690.81787109375 13526.8212890625 6689.12939453125 13526.8212890625 6687.04296875 C 13526.8212890625 6684.9560546875 13528.513671875 6683.26806640625 13530.599609375 6683.26806640625 C 13532.6826171875 6683.26806640625 13534.375 6684.9560546875 13534.375 6687.04296875 C 13534.375 6689.12939453125 13532.6826171875 6690.81787109375 13530.599609375 6690.81787109375 Z" stroke="none" fill="#1cbbda"/>
    </g>
  </g>
</svg>
