<svg xmlns="http://www.w3.org/2000/svg" width="27" height="30.137" viewBox="0 0 27 30.137">
  <g id="company" transform="translate(-61 -10)">
    <path id="Path_10051" data-name="Path 10051" d="M61,40.137V38.882H88v1.255H61m19.466-1.885h-3.14l-.012-16.129-3.755-2.706-8.792,3.77V38.255H61V37h2.512V22.556l10.047-4.394,5.022,3.767V37h1.885ZM66.624,25.139l4.422-1.953V25.7l-4.394,1.885-.028-2.445Zm4.422,3.7v2.512L66.652,32.6l-.028-2.371Zm-4.394,6.279,4.394-1.255V37H66.652ZM81.721,13.14V38.255H83.6V15.363ZM73.559,21.3v16.95h1.882v-15.7ZM88,38.252H84.86V15.022l-3.14-3.767L69.792,16.279v1.885l-1.258,1.252V15.649L82.348,10l3.767,5.022V37H88Z" fill="#ababab"/>
  </g>
</svg>
