<svg xmlns="http://www.w3.org/2000/svg" width="54.281" height="48" viewBox="0 0 54.281 48">
  <g id="consumers" transform="translate(0 -28.35)">
    <g id="Group_45478" data-name="Group 45478" transform="translate(0 28.35)">
      <path id="Path_14167" data-name="Path 14167" d="M168.461,51.347a1.092,1.092,0,0,0,1.1-1.1V47.537a2.981,2.981,0,0,0-1.1-2.326,32.127,32.127,0,0,0-5.339-3.489V38.974a2.872,2.872,0,0,0,.8-1.994V33.014a4.671,4.671,0,0,0-4.664-4.664H158.4a4.671,4.671,0,0,0-4.664,4.664V36.98a2.872,2.872,0,0,0,.8,1.994V41.71A32.594,32.594,0,0,0,149.2,45.2a3,3,0,0,0-1.1,2.326V50.24a1.1,1.1,0,0,0,2.193,0V47.526a.821.821,0,0,1,.3-.631,30.327,30.327,0,0,1,5.417-3.478,1.249,1.249,0,0,0,.709-1.141V38.453a1.1,1.1,0,0,0-.487-.908.71.71,0,0,1-.31-.576V33.014a2.473,2.473,0,0,1,2.47-2.47h.853a2.473,2.473,0,0,1,2.47,2.47v3.955a.682.682,0,0,1-.31.576,1.073,1.073,0,0,0-.487.908v3.822a1.268,1.268,0,0,0,.709,1.141,30.6,30.6,0,0,1,5.417,3.478.821.821,0,0,1,.3.631V50.24A1.135,1.135,0,0,0,168.461,51.347Z" transform="translate(-131.694 -28.35)" fill="#1cbbda"/>
      <path id="Path_14168" data-name="Path 14168" d="M317.758,275.94v-2.714a2.981,2.981,0,0,0-1.1-2.326,31.672,31.672,0,0,0-5.34-3.49v-2.747a2.872,2.872,0,0,0,.8-1.994v-3.955a4.671,4.671,0,0,0-4.664-4.664H306.6a4.671,4.671,0,0,0-4.664,4.664v3.966a2.872,2.872,0,0,0,.8,1.994v2.747a32.6,32.6,0,0,0-5.34,3.489,3,3,0,0,0-1.1,2.326v2.714a1.1,1.1,0,1,0,2.193,0v-2.714a.821.821,0,0,1,.3-.631,30.329,30.329,0,0,1,5.417-3.478,1.291,1.291,0,0,0,.72-1.141v-3.822a1.1,1.1,0,0,0-.487-.908.71.71,0,0,1-.31-.576v-3.966a2.473,2.473,0,0,1,2.47-2.47h.853a2.473,2.473,0,0,1,2.47,2.47v3.955a.682.682,0,0,1-.31.576,1.073,1.073,0,0,0-.487.908v3.822a1.268,1.268,0,0,0,.709,1.141,30.6,30.6,0,0,1,5.417,3.478.821.821,0,0,1,.3.631v2.714a1.1,1.1,0,0,0,2.2,0Z" transform="translate(-263.477 -229.047)" fill="#1cbbda"/>
      <path id="Path_14169" data-name="Path 14169" d="M20.35,277.036a1.092,1.092,0,0,0,1.1-1.1v-2.714a2.981,2.981,0,0,0-1.1-2.326,31.672,31.672,0,0,0-5.339-3.49v-2.747a2.872,2.872,0,0,0,.8-1.994v-3.955a4.671,4.671,0,0,0-4.664-4.664H10.3a4.671,4.671,0,0,0-4.664,4.664v3.966a2.872,2.872,0,0,0,.8,1.994v2.747A32.6,32.6,0,0,0,1.1,270.91,3,3,0,0,0,0,273.237v2.714a1.1,1.1,0,1,0,2.193,0v-2.714a.821.821,0,0,1,.3-.631,30.6,30.6,0,0,1,5.417-3.478,1.291,1.291,0,0,0,.72-1.141v-3.822a1.1,1.1,0,0,0-.487-.908.71.71,0,0,1-.31-.576v-3.966a2.473,2.473,0,0,1,2.47-2.47h.853a2.473,2.473,0,0,1,2.47,2.47v3.955a.682.682,0,0,1-.31.576,1.073,1.073,0,0,0-.487.908v3.822a1.268,1.268,0,0,0,.709,1.141,30.6,30.6,0,0,1,5.417,3.478.821.821,0,0,1,.3.631v2.714A1.1,1.1,0,0,0,20.35,277.036Z" transform="translate(0 -229.047)" fill="#1cbbda"/>
    </g>
  </g>
</svg>
