<svg xmlns="http://www.w3.org/2000/svg" width="97.407" height="100" viewBox="0 0 97.407 100">
  <g id="corousal-btn" transform="translate(-556.475 -273.182)">
    <path id="Path_16899" data-name="Path 16899" d="M650.172,342.663l3.71,1.674q-.423.91-.882,1.8h0l-.035.067h0l-.009.016v0l-.034.065,0,0-.008.015v0l-.024.047,0,0-.007.015,0,0-.025.048h0l-.008.015v0l-.034.063,0,.005-.007.014,0,0-.023.043,0,.006-.007.013,0,.006-.007.013,0,0-.014.026,0,.005-.007.012,0,.007-.007.012,0,.007-.021.04,0,.007-.006.012,0,.007-.006.012,0,.006-.012.023,0,.006-.006.012-.005.008-.005.011-.005.009-.006.01-.009.017-.005.01-.005.009-.006.011-.005.009-.005.01-.006.012-.008.013-.006.012-.005.009-.005.01-.005.01-.006.01-.006.011-.008.016-.005.008-.006.011-.005.009-.006.011-.005.009-.007.014-.006.011-.007.012,0,.008-.007.012,0,.008-.006.012-.006.01-.008.015-.005.009-.006.011,0,.009-.006.011,0,.008-.01.018,0,.007-.007.013,0,.008-.007.012,0,.008-.008.014,0,0-.01.019,0,.006-.007.014,0,.006-.008.015,0,.005-.011.02h0l-.01.018,0,.006-.009.015,0,.005-.009.018,0,0-.01.02,0,.005-.008.014,0,.007-.008.015,0,0-.011.02,0,0-.009.016,0,.006-.008.014,0,0-.022.04,0,.005-.008.015,0,0-.009.016,0,0-.011.02,0,0-.009.017,0,.005-.009.015,0,.005-.022.04,0,0-.009.016,0,.005-.01.017v0l-.012.02,0,0-.009.017,0,0-.009.017,0,0-.023.041,0,0-.009.017,0,0-.011.019h0l-.012.021h0l-.011.019,0,0-.01.018,0,0-.023.041v0l-.01.017,0,0-.024.041h0l-.01.019,0,0-.011.018v0l-.024.041v0l-.011.019v0l-.036.062v0l-.036.062h0l-.012.02h0l-.036.063h0l-.036.062v0l-.012.019h0l-.037.063h0l-.036.062v0l-.012.019h0l-.037.063h0l-.037.062h0l-.227.378h0q-1.145,1.885-2.448,3.661h0c-.116.157-.232.313-.35.47h0l-.058.076v0l-.044.058h0l-.044.058h0l-.015.019h0l-.044.057v0l-.044.057h0l-.013.018h0l-.028.038,0,0-.013.017,0,0-.013.018h0l-.029.038,0,0-.012.016,0,0-.029.038h0l-.013.017,0,0-.014.018h0l-.029.037,0,0-.013.016,0,0-.029.037h0l-.013.017,0,0-.013.017h0l-.028.037,0,0-.012.016,0,0-.029.038,0,0-.012.016,0,0-.013.017h0l-.014.018,0,0-.013.016,0,0-.013.016,0,0-.028.036,0,0-.012.015,0,0-.013.017h0l-.014.019,0,0-.012.015,0,.005-.011.014,0,0-.029.037,0,0-.012.015,0,0-.014.017h0l-.015.019h0l-.013.017,0,0-.012.015,0,0-.014.017h0l-.014.017,0,0-.011.014,0,0-.012.016,0,0-.014.018,0,0-.011.014-.005.006-.01.013,0,0-.014.017,0,0-.012.015,0,.005-.01.013,0,.005-.014.017h0l-.014.018,0,0-.011.012,0,.006-.01.013,0,0-.014.017,0,0-.011.013-.005.007-.009.011-.005.006-.012.014,0,0-.014.016-.005.006-.009.012-.005.006-.01.012,0,0-.014.017,0,0-.01.013-.005.006-.009.012-.005.006-.012.015,0,0-.014.017,0,.005-.009.012-.005.006-.01.012-.005.006-.013.016,0,.005-.01.012-.006.007-.009.011-.005.006-.01.013-.007.008-.01.012-.006.007-.008.011-.006.007-.01.011,0,.005-.014.017,0,.005-.01.012-.005.006-.009.011L647,355.2l-.012.014,0,.006-.011.013-.006.007-.008.01-.006.007-.01.012,0,.005-.014.016-.005.006-.009.011-.006.007-.009.011-.005.006-.012.015-.005.006-.011.013-.005.006-.009.011-.006.006-.01.013,0,0-.014.017,0,.005-.01.012-.005.006-.01.011-.005.007-.014.015,0,.005-.01.012-.005.007-.009.01-.006.008-.008.009-.008.01-.011.013-.007.007-.008.01-.006.008-.008.009-.006.007-.013.015-.006.007-.009.011-.006.007-.008.009-.007.008-.008.01-.008.009-.011.013-.007.008-.007.009-.007.008-.007.008-.008.009-.012.015-.007.007-.007.009-.008.009-.006.008-.008.009-.007.008-.012.014-.008.009-.007.009-.007.007-.007.009-.007.008-.007.009-.009.01-.012.013-.006.008-.008.009-.006.007-.008.009-.007.008-.014.017-.006.006-.008.01-.006.007-.008.009-.006.006-.03.036,0,.005-.009.01-.006.006-.008.01,0,0-.018.021-.005.005-.008.01-.006.007-.008.01-.005,0-.031.036,0,.005-.01.01,0,0-.01.011,0,0-.019.022,0,0-.009.011,0,.005-.01.011,0,0-.032.036,0,.005-.009.011-.005,0-.009.011,0,.005-.017.019-.005.006-.009.01-.005.006-.01.01,0,.005-.031.035-.005.006-.009.01,0,.005-.01.011,0,0-.021.024,0,0-.01.011,0,.005-.01.011,0,0-.033.037,0,0-.009.011-.005.005-.034.038v0l-.011.011,0,.005-.01.011h0l-.035.04,0,0-.011.012,0,0-.036.04h0l-.012.013v0l-.012.013h0l-.025.027h0l-.01.012,0,0-.01.012,0,0-.035.039v0l-.012.012,0,0-.048.053,0,0-.011.013h0l-.037.041h0l-.012.013,0,0-.011.013h0l-.037.041v0l-.012.012,0,0-.036.039h0l-.012.013,0,0-.049.053,0,0-.012.013h0l-.037.04,0,0-.012.013h0l-.1.111h0l-.012.013h0l-.051.055h0l-.051.055h0l-.181.193h0a50.853,50.853,0,0,1-3.99,3.79h0c-.13.111-.26.22-.391.33h0l-.056.047,0,0-.013.011h0l-.057.047,0,0-.013.011h0l-.042.036h0l-.013.011,0,0-.042.034h0l-.013.011,0,0-.013.01,0,0-.039.033,0,0-.012.01,0,0-.04.033,0,0-.012.01,0,0-.012.01h0l-.027.022h0l-.011.009-.006.005-.011.008-.005.005-.035.028-.008.007-.009.007-.007.006-.01.008-.006,0-.021.016-.005.005-.01.008-.006.005-.011.008-.006.006-.035.028-.007.005-.01.008-.007.006-.01.008-.006,0-.02.016-.005,0-.01.009-.007.005-.01.008-.007.006-.016.013-.009.006-.009.008-.007.006-.01.008-.007.005-.01.008-.007.006-.017.013-.008.007-.009.007-.008.006-.009.008-.009.007-.011.008-.013.01-.008.007-.009.007-.008.007-.009.007-.009.007-.013.011-.008.006-.012.009-.007.006-.01.008-.008.006-.009.008-.012.009-.012.009-.008.007-.01.007-.008.006-.01.008-.007.006-.015.012-.007,0-.012.01-.007.005-.01.009-.007.005-.013.01-.005,0-.016.013-.007.005-.011.009-.007.005-.011.009-.006.005-.018.013,0,0-.015.012-.006.005-.012.009-.006.005-.014.011,0,0-.017.014-.006,0-.012.01-.007,0-.013.01,0,0-.018.014,0,0-.015.012-.005,0-.013.01-.005,0-.036.028,0,0-.015.012,0,0-.016.012,0,0-.019.014h0l-.017.013,0,0-.016.012,0,0-.037.028,0,0-.016.012,0,0-.017.013h0l-.018.014,0,0-.016.012,0,0-.016.012,0,0-.037.029h0l-.017.013,0,0-.056.043,0,0-.018.014h0l-.04.029h0l-.018.014,0,0-.058.043h0l-.058.044h0l-.275.206-.276.2h0l-.078.057h0l-.059.043h0l-.019.014h0l-.039.028,0,0-.017.012,0,0-.018.013h0l-.02.014h0l-.018.013,0,0-.017.012h0l-.038.028,0,0-.015.011-.005,0-.017.013h0l-.019.014h0l-.017.012,0,0-.015.01,0,0-.037.027-.005,0-.014.01,0,0-.016.011,0,0-.018.013-.005,0-.014.01-.006,0-.013.01-.005,0-.018.013,0,0-.016.011-.005,0-.013.009-.006,0-.015.011,0,0-.018.013-.007.005-.011.008-.007.005-.013.009-.006,0-.017.012,0,0-.014.01-.007.005-.012.008-.007.005-.014.01,0,0-.017.012-.007.005-.011.008-.008.005-.012.008-.006.005-.018.012-.005,0-.013.009-.007.005-.011.008-.008.005-.012.009-.009.006-.014.01-.008.005-.01.007-.009.006-.009.006-.009.007-.016.011-.009.006-.009.007-.009.006-.009.006-.009.007-.01.007-.014.009-.011.007-.009.007-.009.006-.009.006-.01.007-.008.006-.016.011-.01.007-.008.006-.01.006-.009.006-.009.006-.011.008-.013.009-.01.007-.01.007-.008.006-.009.006-.01.006-.016.011-.009.007-.01.007-.007.005-.011.007-.008,0-.01.007-.008.006-.016.011-.01.007-.009.006-.009.006-.01.006-.008.006-.016.011-.01.007-.01.006-.008.006-.01.007-.007.005-.011.007-.005,0-.021.014-.008.005-.011.007-.006.005-.012.008-.005,0-.026.018h0l-.012.008-.005,0-.012.008-.006,0-.012.008h0l-.027.018-.005,0-.011.008-.006,0-.012.008-.005,0-.04.027-.006,0-.011.008-.007,0-.011.008-.006,0-.022.014-.005,0-.012.008-.007,0-.011.007-.007.005-.021.014-.005,0-.011.007-.007.005-.011.007L636,365.1l-.011.007h0l-.027.018-.006,0-.011.008-.007,0-.012.008,0,0-.027.017,0,0-.012.008-.007,0-.011.008-.006,0-.04.027-.005,0-.012.008-.006,0-.012.008,0,0-.027.017,0,0-.013.008-.005,0-.012.008-.005,0-.042.028,0,0-.013.009,0,0-.06.039,0,0-.014.009,0,0-.043.028,0,0-.013.009,0,0-.013.008h0l-.029.019h0l-.013.009-.005,0-.013.008,0,0-.044.029,0,0-.013.008-.005,0-.045.029h0l-.014.009,0,0-.014.009h0l-.044.028,0,0-.013.008,0,0-.044.028,0,0-.013.008,0,0-.014.008,0,0-.045.028,0,0-.014.009,0,0-.043.028,0,0-.013.008-.005,0-.013.009h0l-.044.028,0,0-.013.009,0,0-.044.028,0,0-.013.008,0,0-.014.008,0,0-.044.027-.005,0-.013.008,0,0-.043.027,0,0-.013.008-.006,0-.012.008h0l-.044.028-.005,0-.014.009,0,0-.044.027,0,0-.014.008,0,0-.061.038,0,0-.014.008,0,0-.044.028h0l-.013.009-.005,0-.045.029h0l-.014.009,0,0-.014.008,0,0-.045.027h0l-.014.009,0,0-.047.028h0l-.014.008,0,0-.014.008,0,0-.044.027,0,0-.014.008,0,0-.046.027h0l-.013.008-.006,0-.013.008,0,0-.043.026-.006,0-.012.007-.006,0-.041.025-.006,0-.012.008-.006,0-.012.008-.005,0-.026.015,0,0-.013.008-.005,0-.013.008-.005,0-.043.026,0,0-.013.007,0,0-.014.008h0l-.046.027-.005,0-.013.008,0,0-.043.026-.005,0-.013.008-.005,0-.013.008h0l-.03.018h0l-.014.008,0,0-.013.008-.006,0-.043.025,0,0-.012.007-.006,0-.013.007,0,0-.028.016,0,0-.012.007-.007,0-.012.007-.006,0-.041.024-.006,0-.013.007-.005,0-.013.007,0,0-.026.015-.005,0-.012.007-.006,0-.013.008,0,0-.043.025-.006,0-.012.008-.006,0-.044.025,0,0-.013.007-.005,0-.014.008,0,0-.044.025-.005,0-.013.007-.006,0-.013.007h0l-.028.017,0,0-.013.007-.005,0-.014.008,0,0-.045.025,0,0-.013.007-.006,0-.043.024,0,0-.013.007-.006,0-.013.007,0,0-.029.017h0l-.013.007-.006,0-.013.007-.005,0-.043.024-.005,0-.013.007-.005,0-.014.007,0,0-.027.014,0,0-.013.007-.006,0-.013.007,0,0-.044.024-.005,0-.013.007-.006,0-.012.007,0,0-.028.015,0,0-.013.007-.006,0-.013.007,0,0-.043.024-.005,0-.013.007-.006,0-.012.007-.008,0-.022.012-.006,0-.012.007-.007,0-.012.006-.006,0-.043.023,0,0-.013.007-.006,0-.014.007h0l-.03.017h0l-.013.007-.006,0-.013.007-.006,0-.041.022-.007,0-.012.007-.007,0-.012.007,0,0-.026.013-.007,0-.012.007-.006,0-.013.007-.005,0-.027.014,0,0-.012.007-.007,0-.012.007-.007,0-.012.007h0l-.027.015-.006,0-.012.007-.007,0-.012.007-.008,0-.022.012-.006,0-.012.006-.007,0-.012.006-.007,0-.012.007,0,0-.026.014-.005,0-.013.006-.007,0-.011.006-.007,0-.043.022-.005,0-.013.007-.005,0-.044.023-.005,0-.013.006-.006,0-.014.008h0l-.046.024-.006,0-.013.007-.005,0-.044.023-.006,0-.013.007-.005,0-.014.007,0,0-.029.015h0l-.014.007-.005,0-.014.007-.005,0-.044.023-.005,0-.013.007-.006,0-.014.007h0l-.049.026,0,0-.014.007,0,0-.046.024h0l-.015.008,0,0-.014.008h0l-.033.017h0l-.015.008,0,0-.015.007,0,0-.047.024h0l-.015.008,0,0-.065.033h0l-.066.034h0l-.016.008h0l-.049.024h0l-.015.008,0,0-.067.033h0l-.016.008h0l-.068.034h0a51.215,51.215,0,0,1-15.831,4.911l-.572-3.98a47.048,47.048,0,0,0,21.593-8.844A46.657,46.657,0,0,0,650.172,342.663Z" fill="#333"/>
    <path id="Path_16900" data-name="Path 16900" d="M558.549,309.2l3.915,1.136a45.7,45.7,0,0,0,9.517,43.327L568.9,356.3q-.714-.813-1.393-1.656h0l-.01-.013h0l-.01-.012,0,0-.009-.012h0l-.064-.08h0l-.009-.011,0,0-.008-.011,0,0-.009-.011,0,0-.009-.012h0l-.01-.012v0l-.042-.052h0l-.009-.01,0,0-.008-.01,0-.005-.007-.009,0,0-.007-.008,0-.006-.007-.009,0-.005-.007-.008,0-.006-.006-.009-.005-.006-.006-.007-.006-.008-.01-.012-.006-.008-.005-.006-.006-.008-.005-.007-.007-.008-.005-.006-.006-.008-.005-.007-.006-.008-.005,0-.007-.01,0,0-.008-.011,0,0-.009-.011,0,0-.01-.012,0,0-.022-.029,0,0-.009-.011,0,0-.008-.01,0,0-.009-.011,0,0-.008-.011,0,0-.008-.01,0,0-.008-.011,0,0L567,354.01l0,0-.046-.059h0l-.011-.014h0l-.01-.013v0l-.011-.013h0l-.01-.014h0a50.017,50.017,0,0,1-6.455-10.967h0c-.026-.058-.05-.117-.075-.176h0q-.065-.15-.126-.3h0l-.006-.016v0l-.007-.016h0l-.007-.017h0l-.043-.106h0l-.008-.018h0l-.007-.017h0l-.007-.017h0l-.051-.124h0l-.007-.017h0l-.007-.016v0l-.05-.124h0l-.007-.017v0l-.007-.016h0l-.007-.016v0l-.006-.017h0l-.043-.107h0l-.007-.017h0l-.007-.017h0l-.007-.017h0l-.042-.106h0l-.007-.017v0l-.006-.015v0l-.006-.015v0l-.049-.124v0l-.007-.016h0l-.007-.017h0l-.007-.017h0l-.006-.017h0l-.041-.106v0l-.006-.016v0l-.006-.016v0l-.007-.017h0l-.034-.089h0l-.007-.017h0l-.007-.016v0l-.006-.016h0l-.006-.016v0l-.006-.017h0l-.006-.017h0l-.027-.071v0l-.006-.016v0l-.006-.015v0l-.005-.015v0l-.006-.014v0l-.006-.015v0l-.026-.071h0l-.007-.017v0l-.005-.015,0,0,0-.013,0-.005-.005-.013,0,0-.005-.014v0l-.006-.017h0l-.02-.054h0l-.006-.017v0l-.005-.014,0,0-.005-.014v0l-.005-.014,0,0-.005-.014v0l-.006-.015v0l-.006-.017h0l-.02-.053v0l-.005-.013V340.4l0-.013,0,0-.005-.013v0l0-.014,0,0-.005-.015v0l-.006-.016v0l-.026-.071v0l-.006-.016v0l-.005-.015v0l-.005-.014,0,0-.005-.013v-.005l-.005-.014v0l-.005-.014,0,0-.019-.054v0l-.005-.015v0l-.005-.014,0,0-.005-.014v0l-.005-.013v0l-.005-.014,0,0-.005-.016h0l-.025-.072v0l-.005-.015,0-.005,0-.013,0,0,0-.012,0-.006-.005-.013v0l-.005-.014,0,0-.005-.015v0l-.019-.054h0l-.006-.017v0l-.006-.015v0l-.005-.014v0l-.005-.014v0l-.005-.014v0l-.006-.015v0l-.024-.07,0,0,0-.014,0,0,0-.013,0-.005-.005-.013v-.005l-.005-.013v-.005l-.005-.013v0l-.006-.016h0l-.019-.055h0l-.006-.016v0l-.005-.015v0l-.005-.014v0l-.005-.014v0l-.005-.014v0l-.005-.014v0l-.005-.015v0l-.018-.055h0l-.006-.017v0l-.005-.015v0l-.005-.014,0,0,0-.013,0-.005,0-.013v-.005l-.005-.015v0l-.024-.072v0l-.005-.014v0l0-.013v-.005l-.005-.013v-.006l0-.012,0-.005,0-.013,0-.005-.005-.016h0l-.018-.055h0l-.005-.017,0,0,0-.014,0-.005,0-.013v0l-.005-.013v0l-.005-.015v0l-.005-.014v0l-.005-.017h0l-.011-.036h0l-.005-.017v0l-.005-.014v0l-.005-.014v0l0-.013,0-.005,0-.013,0-.006,0-.013v0l-.005-.015v0l-.012-.036v0l-.005-.016v0l-.005-.015,0-.006,0-.012v-.006l0-.012,0-.006,0-.012,0-.006,0-.012v-.006l0-.012,0-.005,0-.014,0,0-.011-.036v0l0-.016,0-.005,0-.012,0-.007,0-.011,0-.006,0-.012,0-.006,0-.012,0-.006,0-.012v-.006l-.005-.013v0l-.005-.017h0l-.012-.037v0l-.005-.016v0l-.005-.014v-.005l0-.013,0-.005,0-.013v-.005l0-.013,0-.005,0-.014v0l-.006-.017h0l-.017-.056h0l-.005-.017v0l-.005-.014v-.005l0-.013v0l-.005-.015v0l-.005-.016v0l-.005-.016v0l-.016-.054h0l-.005-.017v0l0-.014v0l-.005-.014v0l0-.013v-.005l0-.014v0l0-.015v0l-.005-.016v0l-.016-.055h0l-.005-.017v0l-.005-.015v0l0-.016v0l-.005-.015v0l0-.014v0l-.005-.015v0l-.005-.016v0l-.016-.055v0l-.005-.016v0l-.005-.014v0l0-.015v0l0-.015v0l-.005-.014v0l0-.016v0l-.016-.055h0l-.005-.017v0l0-.015,0,0,0-.014V337.2l0-.013v-.005l0-.014v0l-.005-.015v0l-.021-.073h0l-.005-.018h0l-.005-.017v0l0-.016v0l0-.015v0l-.005-.016v0l-.005-.018h0l-.021-.074h0l-.005-.017v0l-.005-.015v0l0-.016v0l0-.015v0l0-.016v0l-.026-.092v0l-.005-.017v0l0-.016v0l0-.014v0l0-.015v0l0-.016v0l0-.017v0l-.015-.055h0l-.005-.017v0l0-.016v0l0-.016v0l0-.016v0l0-.015v0l-.025-.093h0l-.005-.018v0l0-.015v0l0-.014v0l0-.015v0l0-.017h0l-.02-.075h0l-.005-.017v0l0-.015v0l0-.015v0l0-.015v0l-.005-.017h0l-.005-.018h0l-.02-.074v0l0-.016v0l0-.015v0l0-.016v0l0-.016v0l0-.017v0l-.025-.093h0l0-.019h0l0-.016v0l0-.015v0l0-.016v0l-.028-.112v0l0-.017v0l0-.016v0l-.005-.016v0l0-.017v0l-.023-.093v0l-.005-.017v0l0-.017h0l0-.017v0l0-.016v0l0-.017v0l-.018-.075h0l-.005-.019h0l0-.018v0l0-.016v0l-.005-.017h0l-.027-.113h0l-.005-.018h0l0-.017v0l0-.017v0l0-.017v0l-.035-.15v0l0-.018h0l0-.019h0l-.026-.113v0l0-.017v0l0-.017v0l0-.017h0l0-.018h0l-.022-.1h0l0-.017v0l0-.016v0l0-.016v0l0-.016v0l0-.018h0l-.022-.1h0l0-.018v0l0-.017h0l0-.018h0l0-.018h0l-.021-.1v0l0-.017h0l0-.017v0l0-.016v0l0-.016v0l0-.018h0l-.021-.1h0l0-.017v0l0-.016v0l0-.016v0l0-.017v0l-.024-.113v0l0-.017h0l0-.018h0l0-.018h0l0-.018h0l-.02-.1h0l0-.018v0l0-.015v0l0-.015v0l0-.015v0l0-.017v0l-.02-.1h0l0-.017v0l0-.017v0l0-.017h0l-.023-.115v0l0-.016v0l0-.016v0l0-.017h0l0-.018h0l-.022-.115h0l0-.018v0l0-.016v0l0-.017v0l0-.017v0l0-.018h0l-.019-.1v0l0-.017v0l0-.017v0l0-.018h0l0-.018h0l-.022-.115v0l0-.017v0l0-.017v0l-.025-.134h0l0-.019v0l0-.017v0l0-.017v0l-.021-.115h0l0-.018v0l0-.017v0l0-.017v0l0-.017v0l-.024-.134v0l0-.018h0l-.027-.154h0l0-.018h0l0-.019h0l0-.019h0l0-.019h0l-.016-.1h0l0-.019h0l0-.017v0l0-.016v0l0-.017v0l-.016-.1h0l0-.019h0l0-.018v0l0-.017h0l0-.019h0l-.018-.116v0l0-.017v0l0-.017v0l0-.017v0l0-.017v0l-.019-.115v0l0-.017v0l0-.016v0l0-.017v0l0-.018h0l-.018-.116v0l0-.017v0l0-.016v0l0-.017h0l0-.019h0l-.015-.1h0l0-.019v0l0-.017v0l0-.017v0l0-.018h0l-.017-.117h0l0-.018v0l0-.018h0l0-.019h0l-.017-.116v0l0-.018h0l0-.018v0l0-.018h0l-.019-.136h0l0-.019h0l0-.018h0l0-.019h0l0-.018h0l-.016-.117v0l0-.017v0l0-.017v0l0-.017v0l0-.018h0l-.011-.078h0l0-.019h0l0-.018v0l0-.015v-.005l0-.015v0l0-.017h0l-.013-.1h0l0-.018v0l0-.016v0l0-.017v0l0-.017v0l0-.017v0l-.012-.1v0l0-.018v0l0-.017v0l0-.017v0l0-.017v0l-.014-.117v0l0-.017v0l0-.016v0l0-.016v0l0-.018h0l-.012-.1v0l0-.017v0l0-.016v-.023l0-.016v0l0-.017v0l-.009-.078h0l0-.018v0l0-.017v-.043l0-.016v0l0-.017v0l-.006-.059h0l0-.018v-.044l0-.014v-.005l0-.015v0l0-.016v0l0-.018h0l0-.04h0l0-.019v0l0-.016v-.1l-.006-.059h0v-.06l0-.016v0l0-.016v0l0-.017v0l-.008-.079h0l0-.018v-.062l0-.017v0l0-.019h0l-.007-.079v-.022l0-.017v0l0-.015v-.062l-.005-.059h0v-.022l0-.016v-.062l0-.016V327.7h0l-.005-.059v-.081l0-.016v-.022h0l0-.059v-.1l0-.015v-.024l0-.039h0v-.14l-.006-.077v-.024l0-.015v-.082h0l0-.06v-.14l0-.04v-.159h0l0-.04v-.141l0-.039v-.16h0l0-.039v-.142l0-.039v-.16h0l0-.04V325.6l0-.059v-.324l0-.059v-1.721h0v-.2h0v-2.277l0-.023v-.261l0-.025v-.033l0-.025v-.058l0-.026v-.064l0-.02v-.007l0-.025v-.059l0-.025v-.091l0-.051v-.006l0-.022v0l0-.025v-.033l0-.026v-.058l0-.025v-.232l0-.025V319.7l0-.019v-.007l0-.025v0l0-.023v-.032l0-.026v-.033l0-.025v0l0-.022v-.006l0-.025v0l0-.024v-.007l0-.022v0l0-.026v-.032l0-.025V319.3l0-.02v-.007l0-.025h0l0-.025v-.006l0-.021v-.005l0-.025v-.006l0-.02v-.007l0-.025v0l0-.02v-.008l0-.024h0l0-.025v-.033l0-.025v-.032l0-.025v0l0-.021v-.007l0-.022v0l0-.025v-.033l0-.025v-.006l0-.019v-.008l0-.024v0l0-.022v-.007l0-.021v-.005l0-.024v-.007l0-.02v-.006l0-.025v-.006l0-.02v-.006l0-.026v0l0-.023v-.007l0-.023v0l0-.025v-.007l0-.02V318.4l0-.025v-.005l0-.021v-.006l0-.025h0l0-.025v-.006l0-.022v0l0-.025v-.006l0-.021V318.2l0-.025v-.005l0-.021v-.006l.005-.051v-.007l0-.02v-.006l0-.024v-.007l0-.019V318l0-.025v0l0-.021v-.008l0-.022v0l0-.024v-.008l0-.019v-.006l0-.024v-.007l0-.02V317.8l0-.025v0l0-.021v-.007l0-.022v0l0-.024v-.007l0-.021v-.005l0-.025v-.005l0-.02v-.007l0-.025v0l0-.022v-.007l0-.021v0l0-.025v-.008l0-.018v-.007l0-.024v-.006l0-.02v-.007l0-.024v0l0-.021v-.008l0-.02v-.005l0-.025V317.3l0-.02v-.006l0-.025v-.005l0-.02v-.008l0-.024h0l0-.023v-.009l0-.019v-.006l0-.024V317.1l0-.018v-.008l0-.024v-.006l0-.019v-.007l0-.023v0l0-.023v-.008l0-.018v-.007l0-.024V316.9l0-.02v-.007l0-.024v-.005l0-.02v-.008l0-.021v0l0-.024v-.007l0-.02v-.005l0-.025v-.006l0-.019v-.008l0-.023v-.007l0-.018v-.009l0-.019V316.6l0-.023v-.008l0-.019v-.007l0-.023v-.007l0-.018,0-.008,0-.024v0l0-.021,0-.008,0-.02V316.4l0-.023,0-.009,0-.017v-.008l0-.023v-.008l0-.017v-.009l0-.021v-.008l0-.019,0-.009,0-.017v-.008l0-.022v-.01l0-.015,0-.01,0-.022v-.008l0-.017V316.1l0-.02v-.009l0-.019,0-.009,0-.017v-.008l0-.022v-.009l0-.017,0-.009,0-.023v-.006l0-.019V315.9l0-.021v0l0-.023v-.008l0-.018v-.007l0-.024,0-.007,0-.018,0-.008,0-.023v-.007l0-.018v-.009l0-.019v-.005l0-.024v-.008l0-.018v-.006l0-.024v-.008l0-.017v-.008l0-.024v-.005l0-.019v-.009l0-.019v-.006l0-.023v-.008l0-.017v-.008l0-.023V315.4l0-.017,0-.009,0-.022v-.007l0-.018,0-.009,0-.018v-.007l0-.023v-.009l0-.016v-.008l0-.023v-.008l0-.017,0-.009,0-.022v0l0-.02v-.009l0-.017V315.1l0-.023,0-.008,0-.016v-.009l0-.023v-.008l0-.017,0-.009,0-.019,0-.009,0-.018v-.01l0-.016,0-.009,0-.022v-.009l0-.016v-.009l0-.022,0-.009,0-.016v-.009l0-.018,0-.009,0-.02v-.009l0-.016,0-.009,0-.022v-.009l0-.016,0-.01,0-.021v-.009l0-.016,0-.01,0-.017v-.008l0-.021,0-.009,0-.016v-.009l0-.022,0-.01,0-.015,0-.009,0-.019,0-.013,0-.014,0-.011,0-.015,0-.012,0-.019,0-.01,0-.014,0-.01,0-.022,0-.01,0-.014,0-.011,0-.017,0-.013,0-.015,0-.011,0-.014,0-.012,0-.019,0-.011,0-.013,0-.011,0-.021,0-.011,0-.013,0-.011,0-.015,0-.016,0-.014,0-.012,0-.013,0-.01,0-.021,0-.012,0-.012,0-.012,0-.021,0-.01,0-.013,0-.012,0-.013,0-.018,0-.013,0-.012,0-.012,0-.012,0-.02,0-.012,0-.013,0-.011,0-.015,0-.017,0-.012,0-.012,0-.013,0-.017,0-.014,0-.012,0-.012,0-.012,0-.02,0-.012,0-.012,0-.012,0-.013,0-.02,0-.01,0-.014,0-.01,0-.02,0-.013,0-.012,0-.011,0-.013,0-.02,0-.012,0-.012,0-.011,0-.014,0-.018,0-.012,0-.012,0-.013,0-.017,0-.014,0-.013,0-.011,0-.012.005-.02,0-.013,0-.01,0-.013,0-.012,0-.02,0-.011,0-.013,0-.01.005-.024,0-.009,0-.014,0-.009,0-.014,0-.009.005-.023,0-.01,0-.014,0-.009.005-.024,0-.009,0-.014,0-.009.006-.027v-.006l0-.014,0-.008,0-.015v0l.007-.03V312.8l0-.015v-.006l.006-.029v-.006l0-.015v-.007l.011-.05,0-.006,0-.016h0l.008-.034v-.005l0-.016v-.005l.007-.032v0l0-.016,0-.006.011-.051v-.005l0-.016v0l.007-.031v-.006l0-.016v0l.007-.032v0l0-.016,0-.007.011-.05,0-.005,0-.017v0l.007-.033v-.005l0-.016v0l.012-.052v0l.012-.051,0,0,0-.017v0l.008-.033v0l0-.017v0l.013-.054v0l.012-.053v0l0-.018h0l.013-.056h0l.013-.055v0l.032-.131h0l.014-.056h0Q558.2,310.384,558.549,309.2Z" fill="#333"/>
    <path id="Path_16901" data-name="Path 16901" d="M649.58,295.046h0l-.041-.059v0l-.055-.078h0l-.041-.059h0l-.014-.02h0l-.028-.04h0l-.014-.019h0l-.041-.059h0l-.013-.018v0l-.027-.039h0l-.013-.018,0,0-.012-.017h0l-.027-.039,0,0-.012-.017,0,0-.027-.037v0l-.012-.016,0,0-.011-.016,0,0-.027-.038,0,0-.01-.015,0,0-.012-.016,0,0-.013-.019h0l-.012-.017,0,0-.01-.015,0,0-.013-.017h0l-.013-.018,0-.005-.01-.014,0-.005-.011-.014,0,0-.014-.018v0l-.012-.016,0,0-.01-.014,0-.005-.011-.015,0,0-.013-.018,0-.005-.009-.013-.005-.006-.009-.013,0-.005-.026-.035-.005-.007-.008-.011-.005-.007-.008-.012-.005-.006-.012-.017-.005-.007-.008-.011-.006-.007-.008-.011-.005-.007-.009-.013-.006-.008-.011-.014,0-.006-.008-.011-.006-.008-.008-.011-.005-.007-.012-.015-.006-.009-.007-.01-.006-.007-.008-.011-.005-.007-.009-.012,0-.006-.012-.016-.007-.008-.006-.01-.007-.008-.006-.009-.007-.009-.008-.01-.01-.014-.006-.009-.008-.01-.005-.007-.008-.01,0-.006-.017-.022,0,0-.008-.011,0-.006-.008-.011-.006-.007-.007-.01-.006-.007-.013-.018,0-.007-.008-.01,0-.007-.008-.011,0-.006-.008-.01,0,0-.016-.022-.005-.007-.008-.01-.005-.007-.007-.01-.006-.007-.015-.02,0-.005-.008-.011-.005-.006-.007-.01-.005-.007-.028-.036-.005-.006-.007-.01-.006-.008-.007-.01-.005-.006-.028-.036-.005-.007-.008-.011,0-.005-.009-.012h0l-.02-.026,0,0-.008-.011,0-.005-.009-.012,0,0-.031-.041,0,0-.01-.012,0,0-.043-.056,0,0-.011-.013v0l-.045-.058v0l-.011-.014h0l-.034-.043h0l-.011-.014v0l-.045-.057,0,0-.1-.133h0a51.008,51.008,0,0,0-11.342-10.623h0l-.141-.1h0l-.14-.1,0,0-.014-.009h0l-.046-.031h0l-.014-.009,0,0-.06-.04,0,0-.013-.009,0,0-.043-.029h0l-.014-.009,0,0-.013-.009,0,0-.042-.028,0,0-.013-.009,0,0-.044-.029h0l-.014-.009,0,0-.013-.008-.005,0-.042-.028h0l-.013-.009-.005,0-.012-.009,0,0-.027-.017,0,0-.012-.008-.006,0-.012-.008-.005,0-.041-.027-.005,0-.012-.008-.005,0-.013-.009,0,0-.027-.017,0,0-.011-.008-.007,0-.011-.008-.006,0-.013-.008h0l-.026-.017-.007,0-.011-.007-.007-.005-.011-.007-.007-.005-.019-.012-.008-.005-.01-.007-.008-.005-.011-.007-.008,0-.01-.006-.007-.005-.02-.013-.007-.005-.011-.006-.007-.005-.011-.007-.008-.006-.01-.006-.005,0-.022-.014-.008-.005-.009-.006-.009-.006-.01-.006-.009-.006-.015-.01-.011-.007-.009-.005-.01-.007-.008-.005-.01-.007-.009,0-.014-.009-.012-.007-.009-.007-.01-.006-.009-.006-.009-.005-.01-.007-.012-.007-.014-.009-.008-.005-.01-.007-.009-.006-.011-.006-.008-.005-.015-.01-.008-.005-.013-.008-.008-.005-.01-.007-.009-.005-.012-.008-.006,0-.018-.011-.007,0-.012-.008-.007,0-.012-.007-.007-.005-.016-.01,0,0-.017-.011-.007,0-.013-.008-.006,0-.013-.008-.006,0-.019-.012,0,0-.015-.009-.006,0-.013-.008-.006,0-.016-.009,0,0-.019-.011-.005,0-.014-.009-.006,0-.014-.009-.006,0-.018-.011,0,0-.016-.01-.005,0-.014-.009-.006,0-.016-.011h0l-.019-.012,0,0-.017-.01,0,0-.015-.009-.005,0-.039-.024,0,0-.016-.009,0,0-.019-.012h0l-.021-.012h0l-.019-.011,0,0-.017-.01,0,0-.041-.024,0,0-.017-.01,0,0-.018-.01h0l-.04-.025,0,0-.018-.01,0,0-.061-.037h0l-.019-.012h0l-.041-.025h0l-.019-.012h0l-.061-.037h0l-.02-.012h0l-.063-.037h0q-.819-.49-1.658-.952c-.237-.13-.474-.258-.713-.385h0l-.065-.034h0l-.021-.011h0l-.063-.033,0,0-.019-.01h0l-.042-.022h0l-.018-.009,0,0-.019-.01h0l-.021-.011,0,0-.017-.009-.005,0-.016-.008-.005,0-.04-.021-.006,0-.014-.007-.007,0-.014-.007-.006,0-.019-.01-.006,0-.014-.007-.008,0-.012-.007-.008,0-.013-.006-.01-.006-.015-.008-.01,0-.01-.006-.01-.005-.01,0-.009-.005-.011-.005-.017-.009-.01-.005-.01-.005-.009,0-.011-.005-.008,0-.042-.022-.005,0-.013-.006-.006,0-.013-.007,0,0-.029-.015h0l-.014-.007-.006,0-.013-.007-.005,0-.045-.023,0,0-.014-.007-.005,0-.013-.007,0,0-.046-.023,0,0-.015-.008h0l-.066-.033h0l-.068-.034h0a51.105,51.105,0,0,0-6.989-2.864l-.092-.03h0l-.072-.023h0l-.016,0-.005,0-.049-.016h0l-.013,0-.008,0-.014,0-.005,0-.047-.015-.007,0-.013,0-.008,0-.013,0-.007,0-.024-.008-.009,0-.011,0-.01,0-.012,0-.01,0-.011,0-.019-.006-.011,0-.011,0-.01,0-.012,0-.01,0-.015,0-.008,0-.018,0-.009,0-.013,0-.009,0-.014,0-.008,0-.02-.006-.008,0-.014,0-.009,0-.014,0-.007,0-.019-.006h0l-.022-.007h0l-.018-.006-.006,0-.019-.005h0l-.046-.014h0l-.02-.006,0,0-.07-.021h0l-.022-.007h0l-.071-.022h0q-.971-.294-1.958-.55a51.538,51.538,0,0,0-9.239-1.518h0l-.078-.006h-.026l-.077-.006h0l-.077-.005h0l-.024,0h0l-.076-.005h0l-.024,0h0l-.051,0h0l-.023,0h0l-.076,0-.026,0h0l-.051,0h0l-.023,0H610.6l-.05,0-.026,0-.054,0h-.052l-.054,0h-.025l-.075,0-.026,0-.054,0h-.028l-.075,0h-.025l-.053,0h-.054l-.05,0h-.025l-.055,0h-.05l-.053,0h-.024l-.027,0h-.077l-.055,0h-.416l-.054,0H605.38l-.033,0h-.111l-.033,0h-.084l-.027,0h-.057l-.034,0h-.052l-.032,0h-.025l-.034,0H604.8l-.031,0h-.025l-.033,0h-.025l-.027,0h-.032l-.025,0-.035,0h-.025l-.03,0h-.053l-.034,0h-.025l-.028,0-.031,0h-.025l-.034,0-.024,0-.035,0H604.2l-.025,0-.034,0-.025,0-.034,0-.024,0h-.024l-.035,0-.024,0-.035,0-.024,0-.023,0-.036,0-.024,0-.035,0-.024,0h-.017l-.043,0-.022,0-.037,0-.024,0-.05,0h-.032l-.035,0-.024,0-.052,0h-.007l-.022,0-.037,0-.023,0-.054,0h-.005l-.019,0-.041,0-.022,0-.054,0h-.006l-.055.005h0l-.022,0-.037,0-.023,0-.055.005h0l-.02,0-.058.005h0l-.057.005h0l-.058.006h0l-.022,0-.056.005h0l-.057.006h0l-.021,0-.058,0h0l-.058.006h0l-.079.008h0l-.058.006h0l-.079.008h0l-.059.006h0l-.08.008h0a51.437,51.437,0,0,0-7.886,1.44h0l-.056.015h0l-.075.02h0l-.056.015h0l-.055.015h0l-.018,0h0l-.054.015h0l-.053.015h0l-.017,0,0,0-.052.014h-.005l-.051.014h-.005l-.016,0h-.005l-.03.009h0l-.016,0-.006,0-.049.013-.007,0-.015.005-.007,0-.025.006-.009,0-.014,0-.009,0-.022.007-.01,0-.013,0-.01,0-.013,0-.01,0-.022.007-.023.006-.011,0-.017.005-.014,0-.012,0-.011,0-.012,0-.015,0-.016.005-.012,0-.012,0-.013,0-.012,0-.018.005h0l1.141,3.86a47.964,47.964,0,0,1,25.141-.317,47,47,0,0,1,27.5,19.726l3.432-2.176Q650,295.654,649.58,295.046Z" fill="#1cbbda"/>
    <path id="Path_16987" data-name="Path 16987" d="M650.172,342.663l3.71,1.674q-.423.91-.882,1.8h0l-.035.067h0l-.009.016v0l-.034.065,0,0-.008.015v0l-.024.047,0,0-.007.015,0,0-.025.048h0l-.008.015v0l-.034.063,0,.005-.007.014,0,0-.023.043,0,.006-.007.013,0,.006-.007.013,0,0-.014.026,0,.005-.007.012,0,.007-.007.012,0,.007-.021.04,0,.007-.006.012,0,.007-.006.012,0,.006-.012.023,0,.006-.006.012-.005.008-.005.011-.005.009-.006.01-.009.017-.005.01-.005.009-.006.011-.005.009-.005.01-.006.012-.008.013-.006.012-.005.009-.005.01-.005.01-.006.01-.006.011-.008.016-.005.008-.006.011-.005.009-.006.011-.005.009-.007.014-.006.011-.007.012,0,.008-.007.012,0,.008-.006.012-.006.01-.008.015-.005.009-.006.011,0,.009-.006.011,0,.008-.01.018,0,.007-.007.013,0,.008-.007.012,0,.008-.008.014,0,0-.01.019,0,.006-.007.014,0,.006-.008.015,0,.005-.011.02h0l-.01.018,0,.006-.009.015,0,.005-.009.018,0,0-.01.02,0,.005-.008.014,0,.007-.008.015,0,0-.011.02,0,0-.009.016,0,.006-.008.014,0,0-.022.04,0,.005-.008.015,0,0-.009.016,0,0-.011.02,0,0-.009.017,0,.005-.009.015,0,.005-.022.04,0,0-.009.016,0,.005-.01.017v0l-.012.02,0,0-.009.017,0,0-.009.017,0,0-.023.041,0,0-.009.017,0,0-.011.019h0l-.012.021h0l-.011.019,0,0-.01.018,0,0-.023.041v0l-.01.017,0,0-.024.041h0l-.01.019,0,0-.011.018v0l-.024.041v0l-.011.019v0l-.036.062v0l-.036.062h0l-.012.02h0l-.036.063h0l-.036.062v0l-.012.019h0l-.037.063h0l-.036.062v0l-.012.019h0l-.037.063h0l-.037.062h0l-.227.378h0q-1.145,1.885-2.448,3.661h0c-.116.157-.232.313-.35.47h0l-.058.076v0l-.044.058h0l-.044.058h0l-.015.019h0l-.044.057v0l-.044.057h0l-.013.018h0l-.028.038,0,0-.013.017,0,0-.013.018h0l-.029.038,0,0-.012.016,0,0-.029.038h0l-.013.017,0,0-.014.018h0l-.029.037,0,0-.013.016,0,0-.029.037h0l-.013.017,0,0-.013.017h0l-.028.037,0,0-.012.016,0,0-.029.038,0,0-.012.016,0,0-.013.017h0l-.014.018,0,0-.013.016,0,0-.013.016,0,0-.028.036,0,0-.012.015,0,0-.013.017h0l-.014.019,0,0-.012.015,0,.005-.011.014,0,0-.029.037,0,0-.012.015,0,0-.014.017h0l-.015.019h0l-.013.017,0,0-.012.015,0,0-.014.017h0l-.014.017,0,0-.011.014,0,0-.012.016,0,0-.014.018,0,0-.011.014-.005.006-.01.013,0,0-.014.017,0,0-.012.015,0,.005-.01.013,0,.005-.014.017h0l-.014.018,0,0-.011.012,0,.006-.01.013,0,0-.014.017,0,0-.011.013-.005.007-.009.011-.005.006-.012.014,0,0-.014.016-.005.006-.009.012-.005.006-.01.012,0,0-.014.017,0,0-.01.013-.005.006-.009.012-.005.006-.012.015,0,0-.014.017,0,.005-.009.012-.005.006-.01.012-.005.006-.013.016,0,.005-.01.012-.006.007-.009.011-.005.006-.01.013-.007.008-.01.012-.006.007-.008.011-.006.007-.01.011,0,.005-.014.017,0,.005-.01.012-.005.006-.009.011L647,355.2l-.012.014,0,.006-.011.013-.006.007-.008.01-.006.007-.01.012,0,.005-.014.016-.005.006-.009.011-.006.007-.009.011-.005.006-.012.015-.005.006-.011.013-.005.006-.009.011-.006.006-.01.013,0,0-.014.017,0,.005-.01.012-.005.006-.01.011-.005.007-.014.015,0,.005-.01.012-.005.007-.009.01-.006.008-.008.009-.008.01-.011.013-.007.007-.008.01-.006.008-.008.009-.006.007-.013.015-.006.007-.009.011-.006.007-.008.009-.007.008-.008.01-.008.009-.011.013-.007.008-.007.009-.007.008-.007.008-.008.009-.012.015-.007.007-.007.009-.008.009-.006.008-.008.009-.007.008-.012.014-.008.009-.007.009-.007.007-.007.009-.007.008-.007.009-.009.01-.012.013-.006.008-.008.009-.006.007-.008.009-.007.008-.014.017-.006.006-.008.01-.006.007-.008.009-.006.006-.03.036,0,.005-.009.01-.006.006-.008.01,0,0-.018.021-.005.005-.008.01-.006.007-.008.01-.005,0-.031.036,0,.005-.01.01,0,0-.01.011,0,0-.019.022,0,0-.009.011,0,.005-.01.011,0,0-.032.036,0,.005-.009.011-.005,0-.009.011,0,.005-.017.019-.005.006-.009.01-.005.006-.01.01,0,.005-.031.035-.005.006-.009.01,0,.005-.01.011,0,0-.021.024,0,0-.01.011,0,.005-.01.011,0,0-.033.037,0,0-.009.011-.005.005-.034.038v0l-.011.011,0,.005-.01.011h0l-.035.04,0,0-.011.012,0,0-.036.04h0l-.012.013v0l-.012.013h0l-.025.027h0l-.01.012,0,0-.01.012,0,0-.035.039v0l-.012.012,0,0-.048.053,0,0-.011.013h0l-.037.041h0l-.012.013,0,0-.011.013h0l-.037.041v0l-.012.012,0,0-.036.039h0l-.012.013,0,0-.049.053,0,0-.012.013h0l-.037.04,0,0-.012.013h0l-.1.111h0l-.012.013h0l-.051.055h0l-.051.055h0l-.181.193h0a50.853,50.853,0,0,1-3.99,3.79h0c-.13.111-.26.22-.391.33h0l-.056.047,0,0-.013.011h0l-.057.047,0,0-.013.011h0l-.042.036h0l-.013.011,0,0-.042.034h0l-.013.011,0,0-.013.01,0,0-.039.033,0,0-.012.01,0,0-.04.033,0,0-.012.01,0,0-.012.01h0l-.027.022h0l-.011.009-.006.005-.011.008-.005.005-.035.028-.008.007-.009.007-.007.006-.01.008-.006,0-.021.016-.005.005-.01.008-.006.005-.011.008-.006.006-.035.028-.007.005-.01.008-.007.006-.01.008-.006,0-.02.016-.005,0-.01.009-.007.005-.01.008-.007.006-.016.013-.009.006-.009.008-.007.006-.01.008-.007.005-.01.008-.007.006-.017.013-.008.007-.009.007-.008.006-.009.008-.009.007-.011.008-.013.01-.008.007-.009.007-.008.007-.009.007-.009.007-.013.011-.008.006-.012.009-.007.006-.01.008-.008.006-.009.008-.012.009-.012.009-.008.007-.01.007-.008.006-.01.008-.007.006-.015.012-.007,0-.012.01-.007.005-.01.009-.007.005-.013.01-.005,0-.016.013-.007.005-.011.009-.007.005-.011.009-.006.005-.018.013,0,0-.015.012-.006.005-.012.009-.006.005-.014.011,0,0-.017.014-.006,0-.012.01-.007,0-.013.01,0,0-.018.014,0,0-.015.012-.005,0-.013.01-.005,0-.036.028,0,0-.015.012,0,0-.016.012,0,0-.019.014h0l-.017.013,0,0-.016.012,0,0-.037.028,0,0-.016.012,0,0-.017.013h0l-.018.014,0,0-.016.012,0,0-.016.012,0,0-.037.029h0l-.017.013,0,0-.056.043,0,0-.018.014h0l-.04.029h0l-.018.014,0,0-.058.043h0l-.058.044h0l-.275.206-.276.2h0l-.078.057h0l-.059.043h0l-.019.014h0l-.039.028,0,0-.017.012,0,0-.018.013h0l-.02.014h0l-.018.013,0,0-.017.012h0l-.038.028,0,0-.015.011-.005,0-.017.013h0l-.019.014h0l-.017.012,0,0-.015.01,0,0-.037.027-.005,0-.014.01,0,0-.016.011,0,0-.018.013-.005,0-.014.01-.006,0-.013.01-.005,0-.018.013,0,0-.016.011-.005,0-.013.009-.006,0-.015.011,0,0-.018.013-.007.005-.011.008-.007.005-.013.009-.006,0-.017.012,0,0-.014.01-.007.005-.012.008-.007.005-.014.01,0,0-.017.012-.007.005-.011.008-.008.005-.012.008-.006.005-.018.012-.005,0-.013.009-.007.005-.011.008-.008.005-.012.009-.009.006-.014.01-.008.005-.01.007-.009.006-.009.006-.009.007-.016.011-.009.006-.009.007-.009.006-.009.006-.009.007-.01.007-.014.009-.011.007-.009.007-.009.006-.009.006-.01.007-.008.006-.016.011-.01.007-.008.006-.01.006-.009.006-.009.006-.011.008-.013.009-.01.007-.01.007-.008.006-.009.006-.01.006-.016.011-.009.007-.01.007-.007.005-.011.007-.008,0-.01.007-.008.006-.016.011-.01.007-.009.006-.009.006-.01.006-.008.006-.016.011-.01.007-.01.006-.008.006-.01.007-.007.005-.011.007-.005,0-.021.014-.008.005-.011.007-.006.005-.012.008-.005,0-.026.018h0l-.012.008-.005,0-.012.008-.006,0-.012.008h0l-.027.018-.005,0-.011.008-.006,0-.012.008-.005,0-.04.027-.006,0-.011.008-.007,0-.011.008-.006,0-.022.014-.005,0-.012.008-.007,0-.011.007-.007.005-.021.014-.005,0-.011.007-.007.005-.011.007L636,365.1l-.011.007h0l-.027.018-.006,0-.011.008-.007,0-.012.008,0,0-.027.017,0,0-.012.008-.007,0-.011.008-.006,0-.04.027-.005,0-.012.008-.006,0-.012.008,0,0-.027.017,0,0-.013.008-.005,0-.012.008-.005,0-.042.028,0,0-.013.009,0,0-.06.039,0,0-.014.009,0,0-.043.028,0,0-.013.009,0,0-.013.008h0l-.029.019h0l-.013.009-.005,0-.013.008,0,0-.044.029,0,0-.013.008-.005,0-.045.029h0l-.014.009,0,0-.014.009h0l-.044.028,0,0-.013.008,0,0-.044.028,0,0-.013.008,0,0-.014.008,0,0-.045.028,0,0-.014.009,0,0-.043.028,0,0-.013.008-.005,0-.013.009h0l-.044.028,0,0-.013.009,0,0-.044.028,0,0-.013.008,0,0-.014.008,0,0-.044.027-.005,0-.013.008,0,0-.043.027,0,0-.013.008-.006,0-.012.008h0l-.044.028-.005,0-.014.009,0,0-.044.027,0,0-.014.008,0,0-.061.038,0,0-.014.008,0,0-.044.028h0l-.013.009-.005,0-.045.029h0l-.014.009,0,0-.014.008,0,0-.045.027h0l-.014.009,0,0-.047.028h0l-.014.008,0,0-.014.008,0,0-.044.027,0,0-.014.008,0,0-.046.027h0l-.013.008-.006,0-.013.008,0,0-.043.026-.006,0-.012.007-.006,0-.041.025-.006,0-.012.008-.006,0-.012.008-.005,0-.026.015,0,0-.013.008-.005,0-.013.008-.005,0-.043.026,0,0-.013.007,0,0-.014.008h0l-.046.027-.005,0-.013.008,0,0-.043.026-.005,0-.013.008-.005,0-.013.008h0l-.03.018h0l-.014.008,0,0-.013.008-.006,0-.043.025,0,0-.012.007-.006,0-.013.007,0,0-.028.016,0,0-.012.007-.007,0-.012.007-.006,0-.041.024-.006,0-.013.007-.005,0-.013.007,0,0-.026.015-.005,0-.012.007-.006,0-.013.008,0,0-.043.025-.006,0-.012.008-.006,0-.044.025,0,0-.013.007-.005,0-.014.008,0,0-.044.025-.005,0-.013.007-.006,0-.013.007h0l-.028.017,0,0-.013.007-.005,0-.014.008,0,0-.045.025,0,0-.013.007-.006,0-.043.024,0,0-.013.007-.006,0-.013.007,0,0-.029.017h0l-.013.007-.006,0-.013.007-.005,0-.043.024-.005,0-.013.007-.005,0-.014.007,0,0-.027.014,0,0-.013.007-.006,0-.013.007,0,0-.044.024-.005,0-.013.007-.006,0-.012.007,0,0-.028.015,0,0-.013.007-.006,0-.013.007,0,0-.043.024-.005,0-.013.007-.006,0-.012.007-.008,0-.022.012-.006,0-.012.007-.007,0-.012.006-.006,0-.043.023,0,0-.013.007-.006,0-.014.007h0l-.03.017h0l-.013.007-.006,0-.013.007-.006,0-.041.022-.007,0-.012.007-.007,0-.012.007,0,0-.026.013-.007,0-.012.007-.006,0-.013.007-.005,0-.027.014,0,0-.012.007-.007,0-.012.007-.007,0-.012.007h0l-.027.015-.006,0-.012.007-.007,0-.012.007-.008,0-.022.012-.006,0-.012.006-.007,0-.012.006-.007,0-.012.007,0,0-.026.014-.005,0-.013.006-.007,0-.011.006-.007,0-.043.022-.005,0-.013.007-.005,0-.044.023-.005,0-.013.006-.006,0-.014.008h0l-.046.024-.006,0-.013.007-.005,0-.044.023-.006,0-.013.007-.005,0-.014.007,0,0-.029.015h0l-.014.007-.005,0-.014.007-.005,0-.044.023-.005,0-.013.007-.006,0-.014.007h0l-.049.026,0,0-.014.007,0,0-.046.024h0l-.015.008,0,0-.014.008h0l-.033.017h0l-.015.008,0,0-.015.007,0,0-.047.024h0l-.015.008,0,0-.065.033h0l-.066.034h0l-.016.008h0l-.049.024h0l-.015.008,0,0-.067.033h0l-.016.008h0l-.068.034h0a51.215,51.215,0,0,1-15.831,4.911l-.572-3.98a47.048,47.048,0,0,0,21.593-8.844A46.657,46.657,0,0,0,650.172,342.663Z" fill="#333"/>
  </g>
</svg>
