<svg xmlns="http://www.w3.org/2000/svg" width="19.792" height="17.057" viewBox="0 0 19.792 17.057">
  <g id="database" transform="translate(-926.104 -308.901)">
    <g id="Group_44938" data-name="Group 44938" transform="translate(-24.896 5.654)">
      <path id="XMLID_1908_" d="M52.73,397.013H51.64a.358.358,0,1,0,0,.716h1.09a.358.358,0,1,0,0-.716Z" transform="translate(902.17 -91.595)" fill="#1cbbda"/>
      <path id="XMLID_1911_" d="M18.155,351.626H1.637A1.638,1.638,0,0,0,0,353.263v1.784a1.638,1.638,0,0,0,1.637,1.637H18.155a1.638,1.638,0,0,0,1.637-1.637v-1.784A1.638,1.638,0,0,0,18.155,351.626Zm.921,3.421a.922.922,0,0,1-.921.921H1.637a.922.922,0,0,1-.921-.921v-1.784a.922.922,0,0,1,.921-.921H18.155a.922.922,0,0,1,.921.921v1.784Z" transform="translate(951 -48.379)" fill="#1cbbda"/>
    </g>
    <g id="Group_44938-2" data-name="Group 44938" transform="translate(-24.896 11.654)">
      <path id="XMLID_1908_2" data-name="XMLID_1908_" d="M52.73,397.013H51.64a.358.358,0,1,0,0,.716h1.09a.358.358,0,1,0,0-.716Z" transform="translate(902.17 -91.595)" fill="#1cbbda"/>
      <path id="XMLID_1911_2" data-name="XMLID_1911_" d="M18.155,351.626H1.637A1.638,1.638,0,0,0,0,353.263v1.784a1.638,1.638,0,0,0,1.637,1.637H18.155a1.638,1.638,0,0,0,1.637-1.637v-1.784A1.638,1.638,0,0,0,18.155,351.626Zm.921,3.421a.922.922,0,0,1-.921.921H1.637a.922.922,0,0,1-.921-.921v-1.784a.922.922,0,0,1,.921-.921H18.155a.922.922,0,0,1,.921.921v1.784Z" transform="translate(951 -48.379)" fill="#1cbbda"/>
    </g>
    <g id="Group_44938-3" data-name="Group 44938" transform="translate(-24.896 17.654)">
      <path id="XMLID_1908_3" data-name="XMLID_1908_" d="M52.73,397.013H51.64a.358.358,0,1,0,0,.716h1.09a.358.358,0,1,0,0-.716Z" transform="translate(902.17 -91.595)" fill="#1cbbda"/>
      <path id="XMLID_1911_3" data-name="XMLID_1911_" d="M18.155,351.626H1.637A1.638,1.638,0,0,0,0,353.263v1.784a1.638,1.638,0,0,0,1.637,1.637H18.155a1.638,1.638,0,0,0,1.637-1.637v-1.784A1.638,1.638,0,0,0,18.155,351.626Zm.921,3.421a.922.922,0,0,1-.921.921H1.637a.922.922,0,0,1-.921-.921v-1.784a.922.922,0,0,1,.921-.921H18.155a.922.922,0,0,1,.921.921v1.784Z" transform="translate(951 -48.379)" fill="#1cbbda"/>
    </g>
  </g>
</svg>
