<svg xmlns="http://www.w3.org/2000/svg" width="64.218" height="63.817" viewBox="0 0 64.218 63.817">
  <path id="Deploy_process" d="M-2664.853,1120.452a2.822,2.822,0,0,0-2.843-2.105c-.75,0-1.5.085-2.25.149a37.443,37.443,0,0,0-15.937,5.133,38.967,38.967,0,0,0-10.948,9.72c-.629.8-1.165,1.892-2,2.259-.868.38-2.05.041-3.095.02a45.344,45.344,0,0,0-6.762.068,20.692,20.692,0,0,0-11.5,5.213c-2.839,2.566-5.437,5.382-8.169,8.06a1.347,1.347,0,0,0-.493,1.556,1.427,1.427,0,0,0,1.468.845q5.418.26,10.835.537c1.45.074,2.9.162,4.417.247-.089.128-.131.193-.178.255-.917,1.206-.921,1.277-.156,2.6a1.359,1.359,0,0,0,.127.215c.253.292.189.52-.058.806-1.094,1.264-2.153,2.558-3.242,3.827a1.5,1.5,0,0,0-.2,1.838,16.517,16.517,0,0,0,7.383,7.414,1.568,1.568,0,0,0,1.943-.189c1.287-1.1,2.607-2.159,3.9-3.249.234-.2.427-.3.7-.084a1.837,1.837,0,0,0,2.77-.168.655.655,0,0,1,.19-.084c.025.205.058.389.067.573.1,1.962.193,3.925.294,5.887.156,3.027.312,6.054.482,9.08a1.235,1.235,0,0,0,1.629,1.219,2.055,2.055,0,0,0,.8-.582q3.234-3.241,6.473-6.478a25.992,25.992,0,0,0,3.063-3.558,20.96,20.96,0,0,0,3.756-10.533c.2-2.673.067-5.351.089-8.026a1.042,1.042,0,0,1,.444-.937,61.418,61.418,0,0,0,5.145-4.2,37.587,37.587,0,0,0,11.635-22.517,12.758,12.758,0,0,1,.351-2.37v-2.258C-2664.827,1120.616-2664.828,1120.53-2664.853,1120.452Zm-59.507,28.54-.29-.015c0-.079-.007-.132.012-.151,2.462-2.378,4.672-5.026,7.424-7.093a18.363,18.363,0,0,1,11.393-3.686c1.643.006,3.286,0,4.93,0,.012.086.025.171.037.257-2.843,3.5-5.706,6.984-8.51,10.516a2.029,2.029,0,0,1-1.979.859C-2715.678,1149.4-2720.021,1149.212-2724.36,1148.992Zm16.959,17.4a.473.473,0,0,1-.647.083,13.971,13.971,0,0,1-5.119-5.119.435.435,0,0,1,.064-.6c.746-.872,1.482-1.754,2.221-2.633.135-.161.241-.355.462-.063a29.4,29.4,0,0,0,5.969,5.864C-2705.481,1164.79-2706.448,1165.586-2707.4,1166.4Zm22.267-3.759a18.182,18.182,0,0,1-4.019,8.631c-2,2.364-4.325,4.411-6.473,6.634-.211-.132-.151-.318-.159-.464q-.352-6.825-.7-13.65a.713.713,0,0,1,.3-.686q5.554-4.288,11.094-8.595c.06-.046.129-.08.29-.179C-2684.87,1157.178-2684.642,1159.92-2685.135,1162.638Zm17.888-40.937c-.734,10.88-5.273,19.783-13.881,26.534-6.343,4.974-12.735,9.885-19.091,14.841a.692.692,0,0,1-.959.036,32.691,32.691,0,0,1-3.623-2.676c-.352-.3-.4-.453-.038-.8,1.986-1.945,3.941-3.92,5.906-5.886.814-.815.934-1.525.358-2.116-.592-.607-1.32-.49-2.161.351-1.951,1.95-3.912,3.89-5.842,5.862-.369.377-.538.313-.841-.049a31.481,31.481,0,0,1-2.581-3.538.539.539,0,0,1,.034-.754c5.59-6.842,11.066-13.78,16.774-20.521a34.124,34.124,0,0,1,19.822-11.467,35.061,35.061,0,0,1,5.28-.637C-2667.268,1120.838-2667.22,1120.887-2667.247,1121.7Z" transform="translate(2728.945 -1118.347)" fill="#1cbbda"/>
</svg>
