<svg xmlns="http://www.w3.org/2000/svg" width="20.5" height="20.498" viewBox="0 0 20.5 20.498">
  <g transform="translate(-9.75 -9.75)">
    <path id="description" d="M16.259,15.006a1.406,1.406,0,1,0,1.406,1.406A1.407,1.407,0,0,0,16.259,15.006Zm.469,1.406a.469.469,0,1,1-.469-.469A.469.469,0,0,1,16.728,16.412Zm-.469,2.345a1.406,1.406,0,1,0,1.406,1.406A1.407,1.407,0,0,0,16.259,18.756Zm.469,1.406a.469.469,0,1,1-.469-.469A.469.469,0,0,1,16.728,20.162ZM16.259,22.5a1.406,1.406,0,1,0,1.406,1.406A1.407,1.407,0,0,0,16.259,22.5Zm.469,1.406a.469.469,0,1,1-.469-.469A.469.469,0,0,1,16.728,23.911Zm8.436-3.755a.469.469,0,0,1-.469.469H19.071a.469.469,0,1,1,0-.939h5.624A.469.469,0,0,1,25.164,20.156Zm0-3.751a.469.469,0,0,1-.469.469H19.071a.469.469,0,0,1,0-.939h5.624A.469.469,0,0,1,25.164,16.405Zm0,7.5a.469.469,0,0,1-.469.469H19.071a.469.469,0,0,1,0-.939h5.624A.469.469,0,0,1,25.164,23.9ZM30,11.377A1.378,1.378,0,0,0,28.621,10H11.377A1.377,1.377,0,0,0,10,11.377V28.623A1.376,1.376,0,0,0,11.377,30H28.623A1.376,1.376,0,0,0,30,28.623V11.377Zm-.624,17.245a.752.752,0,0,1-.751.751H11.377a.752.752,0,0,1-.751-.751V11.377a.752.752,0,0,1,.751-.751H28.623a.752.752,0,0,1,.751.751Z" fill="#ababab"/>
    <path id="description_-_Outline" data-name="description - Outline" d="M11.377,9.75H28.621a1.63,1.63,0,0,1,1.608,1.377h.019l0,.25V28.623a1.628,1.628,0,0,1-1.627,1.625H11.377A1.628,1.628,0,0,1,9.75,28.623V11.377A1.629,1.629,0,0,1,11.377,9.75ZM29.75,11.627l0-.25a1.129,1.129,0,0,0-1.127-1.127H11.377a1.129,1.129,0,0,0-1.127,1.127V28.623a1.128,1.128,0,0,0,1.127,1.125H28.623a1.128,1.128,0,0,0,1.127-1.125ZM11.377,10.376H28.623a1,1,0,0,1,1,1V28.623a1,1,0,0,1-1,1H11.377a1,1,0,0,1-1-1V11.377A1,1,0,0,1,11.377,10.376ZM28.623,29.124a.5.5,0,0,0,.5-.5V11.377a.5.5,0,0,0-.5-.5H11.377a.5.5,0,0,0-.5.5V28.623a.5.5,0,0,0,.5.5ZM16.259,14.756A1.656,1.656,0,1,1,14.6,16.412,1.658,1.658,0,0,1,16.259,14.756Zm0,2.812A1.156,1.156,0,1,0,15.1,16.412,1.157,1.157,0,0,0,16.259,17.568Zm2.812-1.881h5.624a.719.719,0,1,1,0,1.439H19.07a.719.719,0,0,1,0-1.439Zm5.624.939a.219.219,0,1,0,0-.439H19.07a.219.219,0,0,0,0,.439Zm-8.436-.933a.719.719,0,1,1-.719.719A.724.724,0,0,1,16.259,15.692Zm0,.939a.22.22,0,0,0,.219-.219.222.222,0,0,0-.221-.219.219.219,0,0,0,0,.439Zm0,1.875A1.656,1.656,0,1,1,14.6,20.162,1.658,1.658,0,0,1,16.259,18.506Zm0,2.812A1.156,1.156,0,1,0,15.1,20.162,1.157,1.157,0,0,0,16.259,21.318Zm2.812-1.881h5.624a.719.719,0,1,1,0,1.439H19.07a.719.719,0,0,1,0-1.439Zm5.624.939a.219.219,0,1,0,0-.439H19.07a.219.219,0,0,0,0,.439Zm-8.436-.933a.719.719,0,1,1-.719.719A.72.72,0,0,1,16.259,19.443Zm0,.939a.219.219,0,1,0-.219-.219A.22.22,0,0,0,16.259,20.382Zm0,1.873A1.656,1.656,0,1,1,14.6,23.911,1.658,1.658,0,0,1,16.259,22.255Zm0,2.812A1.156,1.156,0,1,0,15.1,23.911,1.157,1.157,0,0,0,16.259,25.067Zm2.812-1.881h5.624a.719.719,0,1,1,0,1.439H19.07a.719.719,0,0,1,0-1.439Zm5.624.939a.219.219,0,1,0,0-.439H19.07a.219.219,0,0,0,0,.439Zm-8.436-.933a.719.719,0,1,1-.719.719A.724.724,0,0,1,16.259,23.191Zm0,.939a.22.22,0,0,0,.219-.219.222.222,0,0,0-.221-.219.219.219,0,0,0,0,.439Z" fill="#ababab"/>
  </g>
</svg>
