<svg xmlns="http://www.w3.org/2000/svg" width="60.012" height="67" viewBox="0 0 60.012 67">
  <g id="Design_process" transform="translate(-111.045 -12.377)">
    <path id="Path_10067" data-name="Path 10067" d="M201.815,103.733l-.219-.7c-1.1-3.528-3.7-6.893-7.939-10.286a2,2,0,0,1-.542-2.469l18.094-36.188a1.926,1.926,0,0,1,1.034-.956L212.6,53v-.38l.5.19.5-.19V53l.36.137a1.87,1.87,0,0,1,1.013.946l18.086,36.2a2,2,0,0,1-.506,2.44l-.144.12c-3.915,3.3-6.485,6.656-7.853,10.247l-.245.644ZM194.9,91.179l0,0c4.288,3.432,7.032,6.891,8.364,10.552h19.677a28.216,28.216,0,0,1,8.327-10.548h0l0-.007L214.6,57.815V79.468a4.925,4.925,0,1,1-3,0V57.781Zm18.2-9.966-.378.047a2.925,2.925,0,1,0,.756,0Z" transform="translate(-71.875 -35.731)" fill="#1cbbda"/>
    <path id="Path_10068" data-name="Path 10068" d="M271.125,468.786h0a2.006,2.006,0,0,1,1.736,1h.268v8.358a2.006,2.006,0,0,1-2,2H247.6a2.006,2.006,0,0,1-2-2V470.79a2.006,2.006,0,0,1,2-2Zm0,3v-1s0,0,0,0H247.6l0,0v7.357l0,0h23.52l0,0Z" transform="translate(-118.154 -400.774)" fill="#1cbbda"/>
    <path id="Path_10069" data-name="Path 10069" d="M115.358,12.377a4.319,4.319,0,0,1,4.041,2.811h17.613a4.054,4.054,0,0,1,1.337-1.883,4.474,4.474,0,0,1,5.414,0,4.08,4.08,0,0,1,1.345,1.886h17.6a4.318,4.318,0,1,1,0,3h-9.593a25.273,25.273,0,0,1,7.119,5.727A24.973,24.973,0,0,1,166,36.172a4.324,4.324,0,1,1-3,.261,22.14,22.14,0,0,0-18.053-17.919l-.832,1.844-1-2.012a2.016,2.016,0,0,0-1.864-1.12,2.066,2.066,0,0,0-1.9,1.1l-.011.023-1.065,2.131-.928-1.619q-.083-.145-.154-.29A22.2,22.2,0,0,0,119.427,36.43a4.315,4.315,0,1,1-3-.259A24.982,24.982,0,0,1,122.2,23.93a25.38,25.38,0,0,1,7.127-5.738H119.4a4.312,4.312,0,1,1-4.041-5.814Zm2.337,4.313-.053-.352a2.313,2.313,0,1,0,0,.7ZM166.745,19a2.313,2.313,0,1,0-2.273-2.67l-.08.548.037-.009.343,1.014A2.313,2.313,0,0,0,166.745,19Zm-23.6-3.336a2.239,2.239,0,0,0-2.09-1.275,2.2,2.2,0,0,0-2.186,1.546,4.271,4.271,0,0,1,2.376-.712A4.186,4.186,0,0,1,143.146,15.667Zm-25.57,26.966a2.308,2.308,0,0,0,.52-4.558L117.738,38l-.357.027a2.308,2.308,0,0,0,.194,4.608Zm47.272,0a2.308,2.308,0,0,0,.194-4.608L164.678,38l-.344.077a2.308,2.308,0,0,0,.514,4.559Z" transform="translate(0 0)" fill="#1cbbda"/>
  </g>
</svg>
