<svg xmlns="http://www.w3.org/2000/svg" width="61.125" height="61.125" viewBox="0 0 61.125 61.125">
  <g id="Development_process" transform="translate(-69.998 0.042)">
    <path id="Path_10027" data-name="Path 10027" d="M181.812,93.33H129.606a1.273,1.273,0,0,0,0,2.547h50.934V113.7a1.273,1.273,0,1,0,2.547,0V94.6a1.274,1.274,0,0,0-1.273-1.273Z" transform="translate(-51.967 -83.181)" fill="#1cbbda"/>
    <path id="Path_10028" data-name="Path 10028" d="M100.558,58.536H76.365a3.821,3.821,0,0,1-3.82-3.82V6.329a3.821,3.821,0,0,1,3.82-3.82h48.387a3.633,3.633,0,0,1,3.82,3.82,1.273,1.273,0,1,0,2.547,0,6.139,6.139,0,0,0-6.367-6.367H76.365A6.374,6.374,0,0,0,70,6.329V54.716a6.374,6.374,0,0,0,6.367,6.367h24.194a1.273,1.273,0,1,0,0-2.547Z" fill="#1cbbda"/>
    <path id="Path_10029" data-name="Path 10029" d="M129.605,46.668a1.273,1.273,0,1,0,0,2.547h2.547a1.273,1.273,0,1,0,0-2.547Z" transform="translate(-51.967 -41.612)" fill="#1cbbda"/>
    <path id="Path_10030" data-name="Path 10030" d="M199.605,46.668a1.273,1.273,0,1,0,0,2.547h2.547a1.273,1.273,0,1,0,0-2.547Z" transform="translate(-114.327 -41.612)" fill="#1cbbda"/>
    <path id="Path_10031" data-name="Path 10031" d="M537.939,46.668a1.273,1.273,0,0,0,0,2.547h2.547a1.273,1.273,0,0,0,0-2.547Z" transform="translate(-415.734 -41.612)" fill="#1cbbda"/>
    <path id="Path_10032" data-name="Path 10032" d="M366.346,279.79h-1.938a11.765,11.765,0,0,0-.461-1.112l1.37-1.371a2.546,2.546,0,0,0,0-3.6l-1.8-1.8a2.547,2.547,0,0,0-3.6,0l-1.371,1.37h0a11.764,11.764,0,0,0-1.112-.461v-1.938a2.546,2.546,0,0,0-2.546-2.547H352.34a2.547,2.547,0,0,0-2.547,2.547v1.938h0a11.76,11.76,0,0,0-1.112.461l-1.372-1.37a2.546,2.546,0,0,0-3.6,0l-1.8,1.8a2.546,2.546,0,0,0,0,3.6l1.37,1.371a11.74,11.74,0,0,0-.461,1.112H340.88a2.547,2.547,0,0,0-2.547,2.547v2.547a2.547,2.547,0,0,0,2.547,2.547h1.938a11.744,11.744,0,0,0,.461,1.112l-1.37,1.371a2.547,2.547,0,0,0,0,3.6l1.8,1.8a2.547,2.547,0,0,0,3.6,0l1.371-1.37a11.74,11.74,0,0,0,1.112.461v1.938a2.546,2.546,0,0,0,2.547,2.547h2.547a2.546,2.546,0,0,0,2.546-2.547v-1.938a11.747,11.747,0,0,0,1.112-.461l1.371,1.37h0a2.547,2.547,0,0,0,3.6,0l1.8-1.8a2.547,2.547,0,0,0,0-3.6l-1.37-1.371h0a11.761,11.761,0,0,0,.461-1.112h1.938a2.546,2.546,0,0,0,2.547-2.547v-2.547a2.547,2.547,0,0,0-2.547-2.547Zm0,5.093h-2.88a1.273,1.273,0,0,0-1.233.955,8.9,8.9,0,0,1-.949,2.292,1.273,1.273,0,0,0,.2,1.549l2.038,2.038-1.8,1.8-2.038-2.037a1.273,1.273,0,0,0-1.548-.2,8.9,8.9,0,0,1-2.292.949,1.273,1.273,0,0,0-.955,1.233v2.879H352.34v-2.88a1.274,1.274,0,0,0-.955-1.233,8.9,8.9,0,0,1-2.292-.949,1.273,1.273,0,0,0-1.548.2l-2.038,2.037-1.8-1.8,2.037-2.037a1.274,1.274,0,0,0,.2-1.549,8.9,8.9,0,0,1-.949-2.292,1.274,1.274,0,0,0-1.233-.955H340.88v-2.545h2.88a1.274,1.274,0,0,0,1.233-.955,8.9,8.9,0,0,1,.949-2.292,1.274,1.274,0,0,0-.2-1.549l-2.038-2.037,1.8-1.8,2.037,2.037a1.274,1.274,0,0,0,1.549.2,8.9,8.9,0,0,1,2.292-.949,1.274,1.274,0,0,0,.955-1.233v-2.879h2.546v2.88a1.274,1.274,0,0,0,.955,1.233,8.9,8.9,0,0,1,2.292.949,1.274,1.274,0,0,0,1.548-.2l2.037-2.037,1.8,1.8-2.037,2.037a1.273,1.273,0,0,0-.2,1.549,8.9,8.9,0,0,1,.949,2.292,1.273,1.273,0,0,0,1.233.955h2.878Z" transform="translate(-239.048 -239.082)" fill="#1cbbda"/>
    <path id="Path_10033" data-name="Path 10033" d="M436.759,361.67a5.093,5.093,0,1,0,3.6,1.492A5.091,5.091,0,0,0,436.759,361.67Zm0,7.64a2.547,2.547,0,1,1,1.8-.746A2.547,2.547,0,0,1,436.759,369.31Z" transform="translate(-322.194 -322.234)" fill="#1cbbda"/>
    <path id="Path_10034" data-name="Path 10034" d="M136.872,175.377a1.273,1.273,0,0,0-1.8,0l-6.367,6.367h0a1.274,1.274,0,0,0,0,1.8l6.367,6.367h0a1.273,1.273,0,0,0,1.8-1.8l-5.467-5.467,5.467-5.467a1.273,1.273,0,0,0,0-1.8Z" transform="translate(-51.967 -155.941)" fill="#1cbbda"/>
    <path id="Path_10035" data-name="Path 10035" d="M268.707,190.032a1.274,1.274,0,0,0,1.8,0l6.367-6.367a1.274,1.274,0,0,0,0-1.8l-6.367-6.367a1.273,1.273,0,0,0-1.8,1.8l5.467,5.467-5.467,5.467a1.273,1.273,0,0,0,0,1.8Z" transform="translate(-176.689 -156.063)" fill="#1cbbda"/>
  </g>
</svg>
