<svg xmlns="http://www.w3.org/2000/svg" width="54.742" height="56" viewBox="0 0 54.742 56">
  <g id="discovery-workshop" transform="translate(-114.598 -30.797)">
    <path id="Path_15349" data-name="Path 15349" d="M159.422,69.843,156.983,67.4l8.194-8.485a.415.415,0,0,0,0-.573l-22.7-23.5a.382.382,0,0,0-.553,0l-22.7,23.5a.415.415,0,0,0,0,.573l22.7,23.5a.381.381,0,0,0,.553,0l8.857-9.17,2.4,2.4L143.324,86.312a1.594,1.594,0,0,1-2.289,0L115.282,59.967a1.684,1.684,0,0,1,0-2.342l25.752-26.344a1.594,1.594,0,0,1,2.289,0l25.752,26.344a1.684,1.684,0,0,1,0,2.342Z" transform="translate(-0.21 0)" fill="#1cbbda" fill-rule="evenodd"/>
    <path id="Path_15350" data-name="Path 15350" d="M280.469,191.375a1.8,1.8,0,0,1,.147.132l6.484,6.484a1.8,1.8,0,1,1-2.548,2.548l-6.484-6.484a1.817,1.817,0,0,1-.165-.189,11.135,11.135,0,1,1,2.565-2.49Zm-8.937,1.217a7.86,7.86,0,1,0-7.86-7.86A7.86,7.86,0,0,0,271.532,192.592Z" transform="translate(-128.557 -126.099)" fill="#1cbbda" fill-rule="evenodd"/>
  </g>
</svg>
