<svg xmlns="http://www.w3.org/2000/svg" width="26" height="26.598" viewBox="0 0 26 26.598">
  <g id="discovery" transform="translate(-114.808 -30.797)">
    <path id="Path_15349" data-name="Path 15349" d="M136,49.342l-1.158-1.158,3.892-4.03a.2.2,0,0,0,0-.272l-10.78-11.162a.181.181,0,0,0-.263,0l-10.78,11.162a.2.2,0,0,0,0,.272l10.78,11.162a.181.181,0,0,0,.263,0l4.207-4.356L133.3,52.1l-4.948,5.062a.757.757,0,0,1-1.087,0L115.033,44.651a.8.8,0,0,1,0-1.112l12.231-12.512a.757.757,0,0,1,1.087,0l12.231,12.512a.8.8,0,0,1,0,1.112Z" transform="translate(0 0)" fill="#1cbbda" fill-rule="evenodd"/>
    <path id="Path_15350" data-name="Path 15350" d="M269.93,182.041a.856.856,0,0,1,.07.062l3.08,3.079a.856.856,0,0,1-1.21,1.21l-3.08-3.08a.863.863,0,0,1-.078-.09,5.289,5.289,0,1,1,1.218-1.183Zm-4.245.578a3.733,3.733,0,1,0-3.733-3.733A3.733,3.733,0,0,0,265.685,182.619Z" transform="translate(-137.501 -134.868)" fill="#1cbbda" fill-rule="evenodd"/>
  </g>
</svg>
