<svg xmlns="http://www.w3.org/2000/svg" width="20.592" height="16.673" viewBox="0 0 20.592 16.673">
  <g id="E-mail" transform="translate(-2.908 -5.5)">
    <path id="Path_10041" data-name="Path 10041" d="M4.959,5.5H20.633a2.462,2.462,0,0,1,2.459,2.459V19.714a2.462,2.462,0,0,1-2.459,2.459H4.959A2.462,2.462,0,0,1,2.5,19.714V7.959A2.462,2.462,0,0,1,4.959,5.5ZM20.633,21.173a1.461,1.461,0,0,0,1.459-1.459V7.959A1.461,1.461,0,0,0,20.633,6.5H4.959A1.461,1.461,0,0,0,3.5,7.959V19.714a1.461,1.461,0,0,0,1.459,1.459Z" transform="translate(0.408 0)" fill="#1cbbda"/>
    <path id="Path_10042" data-name="Path 10042" d="M12.313,18.054a.5.5,0,0,1-.338-.132L2.662,9.368a.5.5,0,0,1,.676-.736l8.974,8.244,8.974-8.244a.5.5,0,0,1,.676.736l-9.312,8.554A.5.5,0,0,1,12.313,18.054Z" transform="translate(1 -2.041)" fill="#1cbbda"/>
  </g>
</svg>
