<svg xmlns="http://www.w3.org/2000/svg" width="54.883" height="48" viewBox="0 0 54.883 48">
  <g id="enterprise" transform="translate(-251.458 580.248)">
    <g id="company-enterprise" transform="translate(251.458 -580.248)">
      <path id="Path_15867" data-name="Path 15867" d="M16.566,36.673a.643.643,0,1,1-1.286,0l-.487-21.706H1.286V46.714h48.67a.643.643,0,1,1,0,1.286H.643A.643.643,0,0,1,0,47.357V14.623a.961.961,0,0,1,.277-.67.945.945,0,0,1,.67-.277H14.793V1.13a1.113,1.113,0,0,1,.331-.8v0a1.124,1.124,0,0,1,.8-.331H38.857a1.124,1.124,0,0,1,.8.331l.049.054a1.138,1.138,0,0,1,.286.746V13.676H53.936a.942.942,0,0,1,.665.277l0,0a.942.942,0,0,1,.277.665V47.357a.643.643,0,0,1-.643.643H50.157a.643.643,0,1,1,0-1.286H53.6V14.967H39.987L40.3,36.03a.643.643,0,1,1-1.286,0L38.7,1.286H16.079l.487,35.387Zm26.825-6.061h7.1c.058,0,.107.036.107.076v2.1c0,.045-.049.08-.107.08h-7.1c-.058,0-.107-.036-.107-.08v-2.1c0-.04.049-.076.107-.076Zm-39.054,0h7.1c.058,0,.107.036.107.076v2.1c0,.045-.049.08-.107.08h-7.1c-.058,0-.107-.036-.107-.08v-2.1c0-.04.049-.076.107-.076ZM18.964,3.783H35.82a.517.517,0,0,1,.514.514v5.5a.517.517,0,0,1-.514.514H18.964a.517.517,0,0,1-.514-.514V4.3a.511.511,0,0,1,.514-.514ZM43.391,26.025h7.1c.058,0,.107.036.107.08v2.1c0,.045-.049.08-.107.08h-7.1c-.058,0-.107-.036-.107-.08v-2.1c0-.045.049-.08.107-.08Zm0-4.591h7.1c.058,0,.107.036.107.08v2.1c0,.045-.049.08-.107.08h-7.1c-.058,0-.107-.036-.107-.08v-2.1c0-.045.049-.08.107-.08ZM4.337,26.025h7.1c.058,0,.107.036.107.08v2.1c0,.045-.049.08-.107.08h-7.1c-.058,0-.107-.036-.107-.08v-2.1c0-.045.049-.08.107-.08Zm0-4.591h7.1c.058,0,.107.036.107.08v2.1c0,.045-.049.08-.107.08h-7.1c-.058,0-.107-.036-.107-.08v-2.1c0-.045.049-.08.107-.08Zm27.674.487H35.8a.109.109,0,0,1,.107.107V25.82a.109.109,0,0,1-.107.107H32.01a.109.109,0,0,1-.107-.107V22.028a.109.109,0,0,1,.107-.107Zm-6.516,0h3.792a.109.109,0,0,1,.107.107V25.82a.109.109,0,0,1-.107.107H25.494a.109.109,0,0,1-.107-.107V22.028a.109.109,0,0,1,.107-.107Zm-6.516,0H22.77a.109.109,0,0,1,.107.107V25.82a.109.109,0,0,1-.107.107H18.978a.109.109,0,0,1-.107-.107V22.028a.109.109,0,0,1,.107-.107ZM32.01,14.565H35.8a.109.109,0,0,1,.107.107v3.792a.109.109,0,0,1-.107.107H32.01a.109.109,0,0,1-.107-.107V14.672a.106.106,0,0,1,.107-.107Zm-6.516,0h3.792a.109.109,0,0,1,.107.107v3.792a.109.109,0,0,1-.107.107H25.494a.109.109,0,0,1-.107-.107V14.672a.106.106,0,0,1,.107-.107Zm-6.516,0H22.77a.109.109,0,0,1,.107.107v3.792a.109.109,0,0,1-.107.107H18.978a.109.109,0,0,1-.107-.107V14.672a.106.106,0,0,1,.107-.107Z" transform="translate(0 0)" fill="#1cbbda"/>
      <rect id="Rectangle_11105" data-name="Rectangle 11105" width="4.025" height="4.025" rx="0.1" transform="translate(18.904 28.234)" fill="#1cbbda"/>
      <rect id="Rectangle_11106" data-name="Rectangle 11106" width="4.025" height="4.025" rx="0.1" transform="translate(25.429 28.234)" fill="#1cbbda"/>
      <rect id="Rectangle_11107" data-name="Rectangle 11107" width="4.025" height="4.025" rx="0.1" transform="translate(31.954 28.234)" fill="#1cbbda"/>
    </g>
  </g>
</svg>
