<svg xmlns="http://www.w3.org/2000/svg" width="26.42" height="26.42" viewBox="0 0 26.42 26.42">
  <g id="explore" transform="translate(-10 -10)">
    <path id="Path_23129" data-name="Path 23129" d="M23.21,35.363h0A12.153,12.153,0,1,0,11.057,23.21,12.152,12.152,0,0,0,23.21,35.363Zm0,1.057h0A13.21,13.21,0,1,1,36.42,23.21,13.211,13.211,0,0,1,23.21,36.42ZM16.5,29.877l7.8-5.532.31.429-9.031,6.411-.065.092-.421-.321.1-.135,0-.005L15.2,30.8l6.365-8.964.421.321ZM31.163,15.292,24.72,24.714,21.708,21.7Z" fill="#fff"/>
  </g>
</svg>
