<svg xmlns="http://www.w3.org/2000/svg" width="68.762" height="60.215" viewBox="0 0 68.762 60.215">
  <g id="flexible-timing" transform="translate(-8009.582 -1184.579)">
    <path id="Path_14705" data-name="Path 14705" d="M8048.881,1235.876h5.352c.313,0,.628-.011.939.006a1.117,1.117,0,0,1,1.165,1.128,1.133,1.133,0,0,1-1.082,1.211,4.1,4.1,0,0,1-.683.019q-20.314,0-40.629,0a2.871,2.871,0,0,1-.762-.059,1.1,1.1,0,0,1-.9-1.188,1.109,1.109,0,0,1,1.1-1.1c.454-.034.912-.011,1.368-.011,7.7,0,15.4.034,23.095-.014a24.266,24.266,0,0,0,2.541-48.356,23.464,23.464,0,0,0-5.121-.066c-1.031.1-1.569-.286-1.619-1.063s.451-1.212,1.465-1.3a26.621,26.621,0,0,1,14.734,50.1c-.325.173-.653.342-.98.512Z" transform="translate(-0.653 0)" fill="#1cbbda" stroke="#1cbbda" stroke-width="0.8"/>
    <path id="Path_14706" data-name="Path 14706" d="M8013.085,1202.617c1.039-1.494,1.985-2.979,3.1-4.352a1.572,1.572,0,0,1,.845-.679,1.125,1.125,0,0,1,1.283.449,1.142,1.142,0,0,1-.074,1.429,26.115,26.115,0,0,0-2.43,3.506,1.715,1.715,0,0,0-.392,1.022l3.959-.654c.2-.033.391-.081.589-.1a1.12,1.12,0,0,1,1.371.968,1.1,1.1,0,0,1-1,1.341c-1.454.28-2.916.512-4.375.762-1.038.177-2.073.376-3.116.521-1.025.142-1.421-.143-1.6-1.166q-.632-3.53-1.213-7.068a1.169,1.169,0,1,1,2.285-.422C8012.581,1199.653,8012.827,1201.136,8013.085,1202.617Z" transform="translate(0 -3.456)" fill="#1cbbda" stroke="#1cbbda" stroke-width="0.8"/>
    <path id="Path_14707" data-name="Path 14707" d="M8097.427,1256.223c-.529,0-1.059.019-1.587,0-.843-.036-1.373-.541-1.342-1.241.029-.678.53-1.1,1.354-1.119.528-.013,1.059,0,1.588,0l.14-.235q-1.367-1.315-2.73-2.63c-.327-.316-.655-.634-.963-.971a1.155,1.155,0,0,1-.089-1.741,1.13,1.13,0,0,1,1.736.074c1.1,1.072,2.18,2.17,3.267,3.258.8.806,1.615,1.608,2.411,2.422a1.206,1.206,0,0,1,0,1.986q-2.889,2.911-5.8,5.8a1.2,1.2,0,0,1-1.809.151c-.526-.516-.494-1.164.135-1.8,1.242-1.253,2.5-2.489,3.755-3.731Z" transform="translate(-23.783 -17.975)" fill="#1cbbda" stroke="#1cbbda" stroke-width="0.8"/>
    <path id="Path_14708" data-name="Path 14708" d="M8032.362,1189.907a1.146,1.146,0,0,1-1.094-.806.991.991,0,0,1,.405-1.274,16.455,16.455,0,0,1,5.038-1.764,1.151,1.151,0,0,1,.635,2.133c-1.618.53-3.229,1.076-4.817,1.688A.676.676,0,0,1,8032.362,1189.907Z" transform="translate(-6.056 -0.302)" fill="#1cbbda" stroke="#1cbbda" stroke-width="0.8"/>
    <path id="Path_14709" data-name="Path 14709" d="M8026.186,1190.817a1.168,1.168,0,0,1,1.139.753,1.026,1.026,0,0,1-.321,1.3c-1.15.831-2.271,1.694-3.353,2.616a1.05,1.05,0,0,1-1.476-.1,1.007,1.007,0,0,1-.165-1.459,15.963,15.963,0,0,1,3.855-3.043A1.04,1.04,0,0,1,8026.186,1190.817Z" transform="translate(-3.363 -1.665)" fill="#1cbbda" stroke="#1cbbda" stroke-width="0.8"/>
    <path id="Path_14710" data-name="Path 14710" d="M8087.89,1258.591c-.57,0-1.143.032-1.71-.007a1.166,1.166,0,0,1-1.217-1.257,1.134,1.134,0,0,1,1.276-1.1c1.141,0,2.28-.008,3.421,0a1.1,1.1,0,0,1,1.2,1.069,1.15,1.15,0,0,1-1.095,1.279,1.119,1.119,0,0,1-.17.009Z" transform="translate(-21.416 -20.352)" fill="#1cbbda" stroke="#1cbbda" stroke-width="0.8"/>
    <path id="Path_14711" data-name="Path 14711" d="M8078.545,1256.234c.484,0,.969-.026,1.451.006a1.165,1.165,0,0,1,.087,2.319,21.489,21.489,0,0,1-3.07.007,1.166,1.166,0,0,1,.081-2.327C8077.576,1256.213,8078.061,1256.234,8078.545,1256.234Z" transform="translate(-18.843 -20.351)" fill="#1cbbda" stroke="#1cbbda" stroke-width="0.8"/>
    <path id="Path_14712" data-name="Path 14712" d="M8040.846,1199.9a15.973,15.973,0,1,0,16.35,15.613A15.988,15.988,0,0,0,8040.846,1199.9Zm.368,29.6a13.629,13.629,0,1,1,13.614-13.588A13.639,13.639,0,0,1,8041.214,1229.5Z" transform="translate(-4.353 -4.261)" fill="#1cbbda" stroke="#1cbbda" stroke-width="0.8"/>
    <path id="Path_14713" data-name="Path 14713" d="M8047.967,1211.825c0,1.226.006,2.452,0,3.678,0,.735.325,1.1,1.083,1.1,1.283-.014,2.566-.006,3.85,0,1.1,0,1.636.382,1.654,1.165s-.513,1.2-1.607,1.2c-1,0-2,0-2.994,0a2.88,2.88,0,0,0-2.133.558,1.886,1.886,0,0,1-2.55-.349,1.993,1.993,0,0,1-.114-2.589,2.02,2.02,0,0,0,.476-1.477c-.016-2.338-.012-4.677,0-7.015,0-.983.393-1.465,1.15-1.474s1.171.475,1.184,1.448C8047.978,1209.315,8047.966,1210.57,8047.967,1211.825Z" transform="translate(-9.924 -6.178)" fill="#1cbbda" stroke="#1cbbda" stroke-width="0.8"/>
  </g>
</svg>
