<svg xmlns="http://www.w3.org/2000/svg" xmlns:xlink="http://www.w3.org/1999/xlink" width="30.092" height="26.173" viewBox="0 0 30.092 26.173">
  <defs>
    <filter id="Path_10041" x="0" y="0" width="30.092" height="26.173" filterUnits="userSpaceOnUse">
      <feOffset dx="3" dy="3" input="SourceAlpha"/>
      <feGaussianBlur stdDeviation="1.5" result="blur"/>
      <feFlood flood-opacity="0.161"/>
      <feComposite operator="in" in2="blur"/>
      <feComposite in="SourceGraphic"/>
    </filter>
    <filter id="Path_10042" x="0.282" y="0.649" width="29.744" height="19.364" filterUnits="userSpaceOnUse">
      <feOffset dx="3" dy="3" input="SourceAlpha"/>
      <feGaussianBlur stdDeviation="1.5" result="blur-2"/>
      <feFlood flood-opacity="0.161"/>
      <feComposite operator="in" in2="blur-2"/>
      <feComposite in="SourceGraphic"/>
    </filter>
  </defs>
  <g id="e-mail" transform="translate(-1.158 -3.75)">
    <g transform="matrix(1, 0, 0, 1, 1.16, 3.75)" filter="url(#Path_10041)">
      <path id="Path_10041-2" data-name="Path 10041" d="M4.959,6H20.633a1.965,1.965,0,0,1,1.959,1.959V19.714a1.965,1.965,0,0,1-1.959,1.959H4.959A1.965,1.965,0,0,1,3,19.714V7.959A1.965,1.965,0,0,1,4.959,6Z" transform="translate(-0.75 -3.75)" fill="none" stroke="#1cbbda" stroke-linecap="round" stroke-linejoin="round" stroke-width="1.5"/>
    </g>
    <g transform="matrix(1, 0, 0, 1, 1.16, 3.75)" filter="url(#Path_10042)">
      <path id="Path_10042-2" data-name="Path 10042" d="M21.625,9l-9.312,8.554L3,9" transform="translate(-0.16 -5.79)" fill="none" stroke="#1cbbda" stroke-linecap="round" stroke-linejoin="round" stroke-width="1.5"/>
    </g>
  </g>
</svg>
