<svg xmlns="http://www.w3.org/2000/svg" width="76.924" height="58" viewBox="0 0 76.924 58">
  <g id="implementation" transform="translate(1.013 1)">
    <path id="Path_15407" data-name="Path 15407" d="M19.6,19.775,38.067,36.238,21.789,54.88l-.569-9.141a31.119,31.119,0,0,0-3.7-.232,19.061,19.061,0,0,0-16.7,8.738L-1.013,56.9-1,53.672A28.58,28.58,0,0,1,.793,43.483a22.124,22.124,0,0,1,4.817-7.56,22.82,22.82,0,0,1,7.05-4.87,27.363,27.363,0,0,1,7.51-2.106ZM35.258,36.414,21.9,24.5l.39,6.218-.955.1c-9.1.945-18.795,6.662-20.166,19.753a20.945,20.945,0,0,1,6.012-4.731,22.331,22.331,0,0,1,10.346-2.337,33.982,33.982,0,0,1,4.785.358l.806.115.369,5.92Z" transform="translate(0 -8.643)" fill="#1cbbda"/>
    <path id="Path_15408" data-name="Path 15408" d="M73.724,37.46a5.164,5.164,0,1,1-5.164,5.164,5.162,5.162,0,0,1,5.164-5.164Z" transform="translate(-26.764 -14.624)" fill="#1cbbda" fill-rule="evenodd"/>
    <path id="Path_15409" data-name="Path 15409" d="M65.243,57H59.561a3.723,3.723,0,0,1-3.719-3.719V49.432a22.33,22.33,0,0,1-4.053-1.839l-2.414,2.414a3.734,3.734,0,0,1-5.261,0l-2.485-2.476.674-.758,8.727-9.989.752.881a14.895,14.895,0,1,0,.789-20.182l-.309.309-3.728-.14-8.358-7.445.522-.731a4.346,4.346,0,0,1,.387-.466l.019-.019,4.017-4.017a3.734,3.734,0,0,1,5.261,0L53.1,7.7a22.469,22.469,0,0,1,4.162-1.57V2.7A3.744,3.744,0,0,1,60.994-1h5.676a3.723,3.723,0,0,1,3.719,3.719V6.568a22.541,22.541,0,0,1,4.052,1.84l2.416-2.416a3.734,3.734,0,0,1,5.261,0l4.017,4.017a3.724,3.724,0,0,1,0,5.261l-2.721,2.721a22.469,22.469,0,0,1,1.57,4.162H88.4a3.723,3.723,0,0,1,3.719,3.719v5.682A3.723,3.723,0,0,1,88.4,35.273H84.553a22.33,22.33,0,0,1-1.839,4.053l2.414,2.414A3.724,3.724,0,0,1,85.122,47L81.1,51.019a3.734,3.734,0,0,1-5.261,0L73.122,48.3a22.957,22.957,0,0,1-4.16,1.57v3.414A3.723,3.723,0,0,1,65.243,57ZM51.494,45.059l.676.427a20.322,20.322,0,0,0,4.962,2.26l.71.215v5.32A1.721,1.721,0,0,0,59.561,55h5.682a1.721,1.721,0,0,0,1.719-1.719V48.293l.774-.18a20.949,20.949,0,0,0,5.108-1.92l.654-.348,3.761,3.761a1.734,1.734,0,0,0,2.433,0l4.017-4.017a1.722,1.722,0,0,0,.006-2.433L80.18,39.621l.427-.676a20.323,20.323,0,0,0,2.26-4.962l.215-.71H88.4a1.721,1.721,0,0,0,1.719-1.719V25.872A1.742,1.742,0,0,0,88.4,24.153H83.405l-.178-.777a20.463,20.463,0,0,0-1.918-5.1l-.351-.655,3.762-3.762a1.743,1.743,0,0,0,0-2.432L80.7,7.407a1.734,1.734,0,0,0-2.433,0l-3.532,3.532-.675-.424A20.54,20.54,0,0,0,69.1,8.254l-.71-.215V2.719A1.721,1.721,0,0,0,66.669,1H60.994a1.738,1.738,0,0,0-1.731,1.718V7.7l-.777.178a20.463,20.463,0,0,0-5.1,1.918l-.655.351L48.966,6.389a1.734,1.734,0,0,0-2.433,0l-3.6,3.6,6.392,5.693,2.144.08a16.9,16.9,0,1,1-.433,24.054l-6.664,7.628,1.153,1.149a1.734,1.734,0,0,0,2.434,0Z" transform="translate(-16.205)" fill="#1cbbda"/>
  </g>
</svg>
