<svg xmlns="http://www.w3.org/2000/svg" width="80" height="41.417" viewBox="0 0 80 41.417">
  <g id="job-opening" transform="translate(0 0.021)">
    <path id="Path_10305" data-name="Path 10305" d="M60.955,27.54l1.25-.033,1.042-.026c-1.218-3.737-.807-7.169,2.11-10.085a6.534,6.534,0,0,0,3.5,3.9,18.36,18.36,0,0,1,2.624,2.416c.15-.619-.417-1.367-1.113-2.142a3.4,3.4,0,0,1,1.654,1.615,4.442,4.442,0,0,1,.319,2.9,6.162,6.162,0,0,1-.371,1.393h1.725c1.823-3.907.664-9.7-3.067-12.156a5.086,5.086,0,0,0-3.308-.723,5.386,5.386,0,0,0-3.64.918c-1.94,1.283-3.132,3.5-3.633,6.589-.1,1.543-.169,4.2.912,5.437ZM0,41.389C.15,37.17,6.583,37,10.528,34.54l2.643,6.85Zm18.517-2.318h.521a.856.856,0,0,0,.853-.853v-1.38a.856.856,0,0,0-.853-.853H15.952a.856.856,0,0,0-.853.853v1.38a.856.856,0,0,0,.853.853h.527l-.456,2.318H18.96l-.443-2.318Zm-5.4-7.507c.1-.8-2.266-3.438-2.7-4.9a3.951,3.951,0,0,1-.247-4.558c.4-.619.234-2.292.234-3.145,0-8.464,14.832-8.471,14.832,0,0,1.068-.247,2.461.332,3.308.97,1.406.469,3.093-.352,4.4-.521,1.537-3,4.024-2.832,4.9.15,4.336-9.3,4.193-9.265-.007Zm24.4-1.66L41.227,40.81,43.1,34.338l-.918-1A1.507,1.507,0,0,1,41.9,31.76c.495-.977,1.517-.8,2.474-.8,1,0,2.246-.189,2.559,1.068a1.678,1.678,0,0,1-.319,1.315l-.918,1,1.869,6.472L50.929,29.9c4.369,3.939,13.178,1.634,14.246,11.485H22.1c1.12-10.378,11.01-7.514,15.418-11.485ZM34.488,15.463a4.823,4.823,0,0,0,.97,2.35l.013.013h0l2.077,3.295a17.432,17.432,0,0,0,2.774,3.64,5.587,5.587,0,0,0,3.913,1.576,5.761,5.761,0,0,0,4.141-1.647A18.281,18.281,0,0,0,51.228,20.8l2.331-3.835c.475-1.081.619-1.738.462-2.057-.085-.182-.41-.247-.931-.221a2.325,2.325,0,0,1-1.276-.039l.944-3.62c-7.312.755-11.427-6.088-16.635-.885l.69,4.284c-.846.176-2.376-.371-2.324,1.035Zm19.683-2.012a1.658,1.658,0,0,1,1.061.866c.352.7.208,1.745-.449,3.242h0l-.039.078-2.363,3.887a19.521,19.521,0,0,1-3.086,4.18,7.025,7.025,0,0,1-5.072,2.012,6.908,6.908,0,0,1-4.831-1.934,18.667,18.667,0,0,1-3.008-3.92l-2.07-3.295a6.116,6.116,0,0,1-1.192-3.06,2.455,2.455,0,0,1,.215-1.126,2.14,2.14,0,0,1,.749-.872,2.861,2.861,0,0,1,.547-.273,50.946,50.946,0,0,1-.085-5.827A8.18,8.18,0,0,1,34.8,6.061a7.964,7.964,0,0,1,3.5-4.467A9.571,9.571,0,0,1,40.192.676c3.985-1.439,9.259-.658,12.084,2.4a8.041,8.041,0,0,1,2.031,5.085l-.137,5.287ZM65.708,34.644,66.64,31.4l-.456-.5a.755.755,0,0,1-.137-.788c.247-.488.762-.4,1.237-.4.5,0,1.12-.1,1.276.534a.852.852,0,0,1-.156.658l-.456.5.931,3.242-1.589,1.257-1.582-1.263Zm8.354-1.126a15.857,15.857,0,0,0-2.65-3.75,33.412,33.412,0,0,1,5.463,2.448,4.464,4.464,0,0,1,1.817,1.758,10.4,10.4,0,0,1,1.022,4.558L80,41.4H68.508A19.246,19.246,0,0,0,67.375,37.5c1.979-1.966,4.1-3.555,6.687-3.985Zm-14.1-2.474c1.1-.482,2.233-.9,3.223-1.276a18.013,18.013,0,0,0-1.556,1.914c-.527-.221-1.087-.436-1.667-.638Z" fill="#1cbbda" fill-rule="evenodd"/>
  </g>
</svg>
