<svg xmlns="http://www.w3.org/2000/svg" width="70.106" height="48" viewBox="0 0 70.106 48">
  <path id="laravel" d="M69.83,22.413c-.5-.5-6.916-8.583-8-9.916-1.167-1.333-1.667-1.083-2.417-1S50.581,13,49.665,13.08c-.917.167-1.5.5-.917,1.333.5.75,5.833,8.25,7,10L34.5,29.5,17.667,1.247C17,.248,16.833-.086,15.333,0S2.084,1.081,1.251,1.081C.418,1.164-.5,1.5.334,3.5S14.5,34.162,14.833,35a2.864,2.864,0,0,0,3.583,1.667C20.75,36.079,28.749,34,33.166,32.829,35.5,37,40.165,45.5,41.082,46.745c1.167,1.667,2,1.333,3.75.833,1.417-.417,21.832-7.75,22.749-8.166s1.5-.667.833-1.583c-.5-.667-5.833-7.916-8.666-11.666,1.917-.5,8.833-2.333,9.583-2.583.833-.25,1-.667.5-1.167ZM31.249,30.329c-.25.083-12.166,2.917-12.749,3.083-.667.167-.667.083-.667-.167C17.667,33,3.667,4,3.417,3.664,3.251,3.331,3.251,3,3.417,3S14.667,2,15,2c.417,0,.333.083.5.333,0,0,15.582,26.915,15.832,27.332.333.417.167.583-.083.667Zm33.5,6.25c.167.333.417.5-.25.667-.583.25-20.082,6.833-20.5,7s-.667.25-1.167-.5S36,32.079,36,32.079l20.749-5.416c.5-.167.667-.25,1,.25.333.583,6.833,9.416,7,9.666Zm1.333-14.666c-.5.083-8.083,2-8.083,2l-6.25-8.5c-.167-.25-.333-.5.083-.583s7.5-1.333,7.833-1.417.583-.167,1,.417c.417.5,5.75,7.333,6,7.583s-.083.417-.583.5Z" transform="translate(-0.006 0.015)" fill="#fb503b" opacity="0.8"/>
</svg>
