<svg xmlns="http://www.w3.org/2000/svg" width="38.698" height="41" viewBox="0 0 38.698 41">
  <path id="live-chat" d="M5.738,0H25.58a5.752,5.752,0,0,1,5.738,5.738v12.8a5.752,5.752,0,0,1-5.738,5.738H15.657l-8.714,7.49a.966.966,0,0,1-1.591-.8l.464-6.7H5.738A5.752,5.752,0,0,1,0,18.537V5.738A5.752,5.752,0,0,1,5.738,0Zm28.4,9.335A5.646,5.646,0,0,1,38.7,14.857v12.8a5.639,5.639,0,0,1-5.622,5.622h-.2l.474,6.819h0a.846.846,0,0,1-1.395.7L23.2,33.056H11.68l5.675-5.772H29.38a4.785,4.785,0,0,0,4.771-4.771V9.712c0-.127-.007-.254-.017-.377ZM8.568,14.573a.968.968,0,0,1,0-1.935H18.693a.968.968,0,0,1,0,1.935Zm0-4.791a.968.968,0,0,1,0-1.935H22.92a.968.968,0,1,1,0,1.935ZM25.576,1.935H5.738a3.816,3.816,0,0,0-3.8,3.8v12.8a3.816,3.816,0,0,0,3.8,3.8H6.853v0l.063,0a.966.966,0,0,1,.9,1.028L7.437,28.8l7.186-6.179a.958.958,0,0,1,.681-.28H25.576a3.816,3.816,0,0,0,3.8-3.8V5.738a3.816,3.816,0,0,0-3.8-3.8Z" fill="#1cbbda"/>
</svg>
