<svg xmlns="http://www.w3.org/2000/svg" width="45.389" height="48" viewBox="0 0 45.389 48">
  <path id="looping-process-icon-1" d="M22.695,0A22.72,22.72,0,0,0,0,22.694v2.162a2.008,2.008,0,0,0,2.005,2.005,2,2,0,0,0,.227-.015L21.619,47.533a1.474,1.474,0,0,0,2.152,0L43.165,26.839a1.927,1.927,0,0,0,2.225-1.913V22.694A22.72,22.72,0,0,0,22.695,0ZM14.5,26.628,19.165,40.6,4.431,24.881a5.5,5.5,0,0,1,8.766.65A2.9,2.9,0,0,0,14.5,26.628Zm2.976-.4a2.9,2.9,0,0,0,.638-.7,5.508,5.508,0,0,1,9.26,0,2.9,2.9,0,0,0,.644.706L22.706,41.9Zm13.524.391a2.9,2.9,0,0,0,1.3-1.092,5.5,5.5,0,0,1,8.713-.708L26.282,40.541ZM22.695,2.949A19.769,19.769,0,0,1,42.431,22.092,8.455,8.455,0,0,0,29.84,23.906a8.457,8.457,0,0,0-14.181,0,8.454,8.454,0,0,0-12.7-1.715A19.77,19.77,0,0,1,22.695,2.949Z" fill="#1cbbda"/>
</svg>
