<svg xmlns="http://www.w3.org/2000/svg" width="48.006" height="41.005" viewBox="0 0 48.006 41.005">
  <g id="looping-process-icon-3" transform="translate(-3.997 -9.25)">
    <g id="ic-methodology-discovery-process-1" transform="translate(0 0)">
      <g id="application-coding-web-code-write-svgrepo-com" transform="translate(2.247 7.248)">
        <path id="Line_29" data-name="Line 29" d="M45.506,1.25H0A1.25,1.25,0,0,1-1.25,0,1.25,1.25,0,0,1,0-1.25H45.506A1.25,1.25,0,0,1,46.756,0,1.25,1.25,0,0,1,45.506,1.25Z" transform="translate(3 15.501)" fill="#1cbbda"/>
        <g id="Group_44866" data-name="Group 44866" transform="translate(8.251 8.5)">
          <path id="Path_10169" data-name="Path 10169" d="M7.75,10.5a1.589,1.589,0,0,1-1.225-.525A1.589,1.589,0,0,1,6,8.75a1.589,1.589,0,0,1,.525-1.225L6.7,7.35c.175,0,.175-.175.35-.175C7.225,7,7.225,7,7.4,7h.7c.175,0,.175,0,.35.175.175,0,.175.175.35.175l.175.175c.175.175.35.35.35.525a1.052,1.052,0,0,1,.175.7,1.052,1.052,0,0,1-.175.7c0,.175-.175.35-.35.525A1.589,1.589,0,0,1,7.75,10.5Z" transform="translate(-6 -7)" fill="#1cbbda"/>
        </g>
        <g id="Group_44867" data-name="Group 44867" transform="translate(13.501 8.493)">
          <path id="Path_10170" data-name="Path 10170" d="M10.75,10.5a1.589,1.589,0,0,1-1.225-.525A1.589,1.589,0,0,1,9,8.753a1.052,1.052,0,0,1,.175-.7c.175-.175.175-.35.35-.525s.35-.35.525-.35a1.6,1.6,0,0,1,1.925.35c.175.175.35.35.35.525a1.052,1.052,0,0,1,.175.7,1.589,1.589,0,0,1-.525,1.225A1.589,1.589,0,0,1,10.75,10.5Z" transform="translate(-9 -6.996)" fill="#1cbbda"/>
        </g>
        <g id="Group_44868" data-name="Group 44868" transform="translate(18.752 8.5)">
          <path id="Path_10171" data-name="Path 10171" d="M13.75,10.5a1.052,1.052,0,0,1-.7-.175c-.175-.175-.35-.175-.525-.35s-.35-.35-.35-.525A1.052,1.052,0,0,1,12,8.75a1.052,1.052,0,0,1,.175-.7c.175-.175.175-.35.35-.525a1.692,1.692,0,0,1,2.45,0c.175.175.35.35.35.525a1.052,1.052,0,0,1,.175.7,1.052,1.052,0,0,1-.175.7c-.175.175-.175.35-.35.525A1.589,1.589,0,0,1,13.75,10.5Z" transform="translate(-12 -7)" fill="#1cbbda"/>
        </g>
        <path id="Path_10172" data-name="Path 10172" d="M6.5,3.75h38.5a4.756,4.756,0,0,1,4.75,4.75V40a4.756,4.756,0,0,1-4.75,4.75H6.5A4.756,4.756,0,0,1,1.75,40V8.5A4.756,4.756,0,0,1,6.5,3.75Zm38.5,38.5A2.253,2.253,0,0,0,47.256,40V8.5a2.253,2.253,0,0,0-2.25-2.25H6.5A2.253,2.253,0,0,0,4.25,8.5V40a2.253,2.253,0,0,0,2.25,2.25Z" transform="translate(0 -1.748)" fill="#1cbbda"/>
        <path id="Path_10173" data-name="Path 10173" d="M13.251,27.751a1.246,1.246,0,0,1-.884-.366L7.116,22.135a1.25,1.25,0,0,1,0-1.768l5.251-5.251a1.25,1.25,0,1,1,1.768,1.768L9.768,21.251l4.367,4.367a1.25,1.25,0,0,1-.884,2.134Z" transform="translate(3.751 8.252)" fill="#1cbbda"/>
        <path id="Path_10174" data-name="Path 10174" d="M21,27.751a1.25,1.25,0,0,1-.884-2.134l4.367-4.367-4.367-4.367a1.25,1.25,0,1,1,1.768-1.768l5.251,5.251a1.25,1.25,0,0,1,0,1.768l-5.251,5.251A1.246,1.246,0,0,1,21,27.751Z" transform="translate(13.504 8.252)" fill="#1cbbda"/>
        <path id="Line_30" data-name="Line 30" d="M0,15.252a1.245,1.245,0,0,1-.558-.132,1.25,1.25,0,0,1-.559-1.677l7-14A1.25,1.25,0,0,1,7.56-1.118,1.25,1.25,0,0,1,8.119.559l-7,14A1.25,1.25,0,0,1,0,15.252Z" transform="translate(22.252 22.502)" fill="#1cbbda"/>
      </g>
    </g>
  </g>
</svg>
