<svg xmlns="http://www.w3.org/2000/svg" width="32" height="32" viewBox="0 0 32 32" fill="none">
  <path d="M5.33325 22V13.576C5.33325 13.4645 5.4506 13.392 5.55033 13.4419L14.6583 17.9958C15.5029 18.4181 16.497 18.4181 17.3416 17.9958L26.4495 13.4419C26.5492 13.392 26.6666 13.4645 26.6666 13.576V22C26.6666 23.1046 25.7712 24 24.6666 24H7.33325C6.22868 24 5.33325 23.1046 5.33325 22Z" fill="#1CBBDA"/>
  <path d="M5.33325 9.99992V11.9072C5.33325 11.964 5.36535 12.016 5.41617 12.0414L14.6583 16.6624C15.5029 17.0847 16.497 17.0847 17.3416 16.6624L26.5837 12.0414C26.6345 12.016 26.6666 11.964 26.6666 11.9072V9.99992C26.6666 8.89535 25.7712 7.99992 24.6666 7.99992H7.33325C6.22868 7.99992 5.33325 8.89535 5.33325 9.99992Z" fill="#1CBBDA"/>
</svg>