<svg xmlns="http://www.w3.org/2000/svg" width="60" height="60" viewBox="0 0 60 60" fill="none">
  <path d="M25.1371 59.8674C20.1729 59.3922 15.5094 57.6191 11.3971 54.6433C10.1747 53.7587 9.96136 53.5277 9.96136 53.0883C9.96136 52.7542 10.4706 52.2656 10.8188 52.2656C10.9843 52.2656 11.5559 52.6023 12.2011 53.08C22.5466 60.7383 36.8572 59.7478 45.9443 50.7446C50.2858 46.4432 52.8993 41.0204 53.5603 34.9421C53.7402 33.2883 53.646 29.6743 53.3827 28.1266C52.6208 23.6475 50.7773 19.4783 48.0449 16.0547C47.6076 15.5068 47.1241 14.9413 46.9704 14.798L46.691 14.5373L44.7124 16.5185L42.7338 18.4996L43.0761 18.9308C44.2 20.3466 44.6012 20.9007 45.1285 21.7655C46.831 24.5576 47.8542 27.8774 48.0121 31.1209L48.0809 32.5347L47.7553 32.7908C47.3852 33.0819 47.2403 33.1013 46.8303 32.9145C46.4266 32.7306 46.3177 32.3588 46.248 30.9271C46.1077 28.0456 44.9963 24.7249 43.3186 22.1749C42.7 21.2347 41.5936 19.8059 41.4835 19.8051C41.4506 19.8049 40.5442 20.688 39.4694 21.7676L37.5152 23.7305L38.1642 24.6094C39.0402 25.7958 39.8969 27.5889 40.2649 29.0067C40.6706 30.5698 40.7724 32.8743 40.5037 34.4145C39.0315 42.852 29.9873 47.6145 22.2973 44.0016C14.1207 40.1601 12.2248 29.5044 18.5826 23.1234C21.1865 20.51 24.4938 19.2251 28.2426 19.3707C30.911 19.4742 33.3531 20.3148 35.3911 21.8313L36.27 22.4853L38.2328 20.531C39.3124 19.4562 40.1955 18.5499 40.1953 18.5169C40.1944 18.4068 38.7658 17.3004 37.8255 16.6818C35.5661 15.1953 32.8226 14.1844 30.059 13.8199C28.4134 13.6029 25.3139 13.7416 23.7895 14.1005C22.0942 14.4996 21.251 14.795 19.722 15.5257C13.5063 18.496 9.48646 24.5683 9.17739 31.4541C8.61961 43.8807 20.2216 53.3251 32.298 50.2752C38.7853 48.6368 44.0806 43.3729 45.7185 36.9343C45.8714 36.3331 46.0936 35.7369 46.2122 35.6095C46.5227 35.2757 47.1903 35.3524 47.4905 35.7562C47.6985 36.036 47.7062 36.1242 47.5776 36.7523C47.5 37.1313 47.253 37.9951 47.0289 38.6719C45.0138 44.7551 40.128 49.5991 33.9848 51.6041C23.7254 54.9525 12.642 49.64 8.72686 39.4974C6.72536 34.3123 7.01644 28.2409 9.50415 23.2845C12.4543 17.4067 17.719 13.447 24.1996 12.2315C26.0021 11.8934 29.7124 11.9187 31.5044 12.2812C33.9466 12.7753 36.2513 13.6624 38.2349 14.8719C39.0997 15.3992 39.6539 15.8004 41.0696 16.9243L41.5008 17.2666L43.4812 15.2887C45.7632 13.0097 45.69 13.3697 44.1288 12.1045C40.656 9.28988 36.4116 7.38961 31.8738 6.61772C30.3261 6.35445 26.7121 6.26026 25.0584 6.4401C20.7866 6.90465 16.8553 8.32571 13.3267 10.6808C4.1611 16.7982 -0.16257 28.0993 2.58525 38.7565C3.50952 42.3411 5.34309 45.9496 7.63225 48.6891C8.62014 49.8713 8.80551 50.216 8.6596 50.5998C8.40959 51.2574 7.83971 51.3827 7.27189 50.9049C6.14336 49.9553 4.08729 46.9535 2.87188 44.481C1.54074 41.773 0.752909 39.2299 0.273655 36.0937C-0.0122006 34.2232 -0.0117053 30.2243 0.274628 28.3594C1.33773 21.435 4.71323 15.3831 9.96138 10.9922C14.0901 7.53778 19.1706 5.36029 24.5672 4.73204C26.5071 4.50621 30.094 4.56722 31.934 4.85734C36.5981 5.59276 41.3931 7.68024 44.9125 10.5075C45.3476 10.857 45.703 11.0747 45.7024 10.9914C45.702 10.908 45.6473 10.0868 45.5813 9.16643C45.4702 7.61696 45.478 7.4564 45.6863 6.99847C45.8426 6.65504 46.9107 5.51013 49.1814 3.25195C52.1399 0.30991 52.4884 0 52.8387 0C53.2862 0 53.8001 0.271167 54.02 0.623296C54.1617 0.85015 54.3557 2.64956 54.3695 3.86499L54.3755 4.39013L55.5201 3.24975C56.5405 2.23324 56.7103 2.10937 57.084 2.10937C57.6059 2.10937 57.8911 2.40178 57.8911 2.93682C57.8911 3.28473 57.7455 3.4818 56.7507 4.48032L55.6103 5.625L56.1355 5.63097C57.3509 5.64478 59.1503 5.83876 59.3772 5.98043C59.7293 6.20034 60.0005 6.71425 60.0005 7.1617C60.0005 7.51204 59.6905 7.86058 56.7485 10.819C54.4903 13.0898 53.3454 14.1578 53.002 14.3141C52.5441 14.5225 52.3835 14.5302 50.834 14.4192C49.9136 14.3532 49.0984 14.2987 49.0224 14.298C48.9464 14.2976 49.2911 14.8374 49.7883 15.498C52.4237 18.9992 54.1618 22.867 54.9472 26.978C55.6983 30.9096 55.5572 35.3869 54.5603 39.2578C53.4098 43.7252 51.0207 48.0042 47.7842 51.394C41.9209 57.5352 33.5381 60.6716 25.1371 59.8674ZM30.5278 43.1254C34.5018 42.0561 37.5108 39.0235 38.6211 34.9685C38.8826 34.0136 38.9743 31.6269 38.7928 30.4968C38.5052 28.7051 37.5697 26.5495 36.6005 25.4452L36.2269 25.0195L34.2455 26.9919L32.2641 28.9643L32.644 29.6872C33.1465 30.6434 33.3268 31.5197 33.2544 32.6533C33.0773 35.4275 30.9471 37.5711 28.1254 37.8147C25.1814 38.0689 22.4657 35.7484 22.1846 32.7382C21.7773 28.3764 26.5142 25.2915 30.3932 27.3924L31.0334 27.7391L33.0007 25.7693C35.2729 23.4941 35.2177 23.7402 33.6712 22.7763C31.3212 21.3116 28.3213 20.7445 25.6455 21.2591C21.405 22.0747 18.0135 25.2526 16.8529 29.498C16.4796 30.8631 16.4833 33.6473 16.86 35.039C17.4275 37.1348 18.4129 38.7903 20.0089 40.3288C21.7587 42.0156 23.5849 42.9161 26.2504 43.4064C26.9937 43.5431 29.6156 43.3709 30.5278 43.1254ZM29.5464 35.605C30.8173 34.9098 31.5239 33.7236 31.5239 32.2851C31.5239 31.5682 31.2555 30.534 31.034 30.3971C30.9699 30.3575 30.2645 30.9708 29.4662 31.7599C28.0795 33.1309 27.9979 33.1913 27.6323 33.1182C27.15 33.0217 26.9787 32.8504 26.8823 32.3681C26.8091 32.0024 26.8699 31.9205 28.2566 30.516C29.6335 29.1214 29.6958 29.0379 29.4785 28.8776C28.9082 28.457 27.3857 28.3434 26.4764 28.6536C25.6304 28.9422 24.8545 29.6155 24.3847 30.4687C23.9958 31.175 23.9654 31.303 23.9664 32.2266C23.9678 33.4192 24.2376 34.1202 24.9963 34.902C25.8415 35.773 26.7147 36.1116 27.9643 36.0529C28.6531 36.0205 28.9302 35.9421 29.5464 35.605ZM54.9486 10.1495C57.9666 7.12926 57.9126 7.44637 55.4301 7.32382L53.9653 7.2515L51.3414 9.88339L48.7176 12.5153L49.7008 12.5871C50.2416 12.6265 50.895 12.6757 51.1528 12.6964C52.4014 12.7966 52.1042 12.996 54.9486 10.1495ZM52.6766 4.57031C52.5541 2.0878 52.8722 2.03361 49.8447 5.05276L47.2144 7.67578L47.2756 8.4375C47.3093 8.85644 47.3702 9.66804 47.411 10.241L47.4851 11.2829L50.117 8.65902L52.7489 6.03515L52.6766 4.57031Z" fill="white"/>
</svg>