<svg xmlns="http://www.w3.org/2000/svg" width="36.212" height="60" viewBox="0 0 36.212 60">
  <path id="moderator" d="M109.32,81.9l-4.6-.775a2.484,2.484,0,0,1-2.183-2.369l-.018-.738c.181-.178.356-.364.526-.552h5.638a3.12,3.12,0,0,0,3.116-3.117V61.582c0-7.461-6.961-13.532-15.517-13.532S80.765,54.121,80.765,61.582V74.354a3.12,3.12,0,0,0,3.117,3.117H89.5c.176.2.357.387.546.57l-.018.745a2.48,2.48,0,0,1-2.183,2.344l-4.6.775a5.882,5.882,0,0,0-5.07,5.672v19.407a1.066,1.066,0,0,0,1.066,1.066h34.08a1.065,1.065,0,0,0,1.066-1.066V87.577A5.878,5.878,0,0,0,109.32,81.9ZM97.474,78.735a3.53,3.53,0,0,1-2.4,0,9.94,9.94,0,0,1-6.514-8.48l-.326-5.4c1.227-3.2,3.99-2.985,8.358-2.354,2.65.383,5.363.756,7.688-.1l-.292,7.839A9.949,9.949,0,0,1,97.474,78.735Zm-13.591-3.4a.985.985,0,0,1-.984-.984V61.582c0-6.286,6-11.4,13.386-11.4s13.385,5.113,13.385,11.4V74.354a.984.984,0,0,1-.983.984h-4.1a12.021,12.021,0,0,0,1.527-4.93.194.194,0,0,0,0-.025c0-.009.005-.016.006-.026l.363-9.727a1.042,1.042,0,0,0-.022-.141,1.02,1.02,0,0,0-.037-.226.986.986,0,0,0-.1-.193,1.018,1.018,0,0,0-.068-.136c-.01-.013-.026-.018-.036-.031a1.083,1.083,0,0,0-.167-.144,1.214,1.214,0,0,0-.156-.114,1.062,1.062,0,0,0-.176-.058,1.089,1.089,0,0,0-.224-.054c-.015,0-.028-.01-.043-.011a.97.97,0,0,0-.135.022,1.028,1.028,0,0,0-.235.039,68.733,68.733,0,0,0-.325.163c-1.924,1.5-4.807,1.083-7.862.642-4.179-.6-8.913-1.288-10.748,3.934a0,0,0,0,1,0,0h0a1.053,1.053,0,0,0-.058.422l.342,5.657a12.014,12.014,0,0,0,1.526,4.93H83.883Zm8.195,4.3a12,12,0,0,0,2.273,1.108,5.662,5.662,0,0,0,3.848,0,11.966,11.966,0,0,0,2.294-1.12,4.512,4.512,0,0,0,2.145,2.965L96.275,89.1l-6.355-6.5A4.509,4.509,0,0,0,92.078,79.633Zm20.18,26.284h-6.795V99.04a1.066,1.066,0,1,0-2.133,0v6.877H89.238V99.04a1.066,1.066,0,1,0-2.133,0v6.877H80.311V87.576A3.758,3.758,0,0,1,83.6,84.007l4.048-.682,7.862,8.043a1.066,1.066,0,0,0,1.525,0l7.864-8.047,4.065.685a3.758,3.758,0,0,1,3.292,3.569Z" transform="translate(-78.176 -48.051)" fill="#1cbbda"/>
</svg>
