<svg xmlns="http://www.w3.org/2000/svg" width="46.628" height="51.383" viewBox="0 0 46.628 51.383">
  <g id="nodejs" opacity="0.75">
    <path id="Path_286" data-name="Path 286" d="M21.813,1.133a4.309,4.309,0,0,1,4.206,0q9.606,5.428,19.213,10.853a3.955,3.955,0,0,1,2,3.406V37.163a4,4,0,0,1-2.147,3.481q-9.575,5.4-19.145,10.8a4.187,4.187,0,0,1-4.253-.118Q18.816,49.662,15.942,48a3.382,3.382,0,0,1-1.108-.8c.244-.329.681-.37,1.035-.514a13.408,13.408,0,0,0,2.266-1.057.529.529,0,0,1,.59.035c1.636.938,3.258,1.9,4.9,2.833.35.2.7-.066,1-.233q9.4-5.31,18.8-10.608a.622.622,0,0,0,.341-.612q.007-10.773,0-21.547a.673.673,0,0,0-.4-.672Q33.829,9.458,24.292,4.078a.663.663,0,0,0-.749,0Q14,9.454,4.466,14.835a.665.665,0,0,0-.4.669q0,10.773,0,21.548a.609.609,0,0,0,.346.6Q6.954,39.1,9.5,40.533a3.937,3.937,0,0,0,3.186.426,2.416,2.416,0,0,0,1.564-2.271c.009-7.14,0-14.281.007-21.42a.538.538,0,0,1,.586-.549c.815-.005,1.632-.011,2.447,0a.565.565,0,0,1,.533.653c0,7.185.009,14.371-.005,21.556a5.466,5.466,0,0,1-2.556,4.936,7.871,7.871,0,0,1-7.035-.193c-1.866-.931-3.647-2.031-5.48-3.029A3.989,3.989,0,0,1,.6,37.163V15.392a3.962,3.962,0,0,1,2.066-3.45Q12.242,6.54,21.813,1.133Z" transform="translate(-0.603 -0.584)" fill="#8cc84b"/>
    <path id="Path_287" data-name="Path 287" d="M112.492,85.673c2.783-.179,5.763-.106,8.268,1.265a6.253,6.253,0,0,1,3.049,5.411.586.586,0,0,1-.635.431c-.808,0-1.615.011-2.423-.006a.624.624,0,0,1-.585-.606A3.689,3.689,0,0,0,118.4,89.62a10.46,10.46,0,0,0-4.841-.693,6.571,6.571,0,0,0-3.465.863,2.2,2.2,0,0,0-.73,2.453c.259.617.971.815,1.553,1,3.354.877,6.909.79,10.2,1.945A4.8,4.8,0,0,1,124.28,98a6.007,6.007,0,0,1-1.018,5.731,8.031,8.031,0,0,1-4.312,2.324,20.714,20.714,0,0,1-6.508.276,10.255,10.255,0,0,1-5.725-2.154,6.008,6.008,0,0,1-1.935-4.739.543.543,0,0,1,.594-.479c.813-.007,1.627-.009,2.44,0a.57.57,0,0,1,.582.564,3.7,3.7,0,0,0,1.376,2.6c1.653,1.066,3.727.993,5.619,1.023,1.568-.07,3.328-.091,4.608-1.127a2.545,2.545,0,0,0,.693-2.431c-.2-.718-.949-1.053-1.594-1.272-3.311-1.048-6.906-.667-10.185-1.852a4.957,4.957,0,0,1-3.13-2.728,5.587,5.587,0,0,1,1.116-5.813,9.006,9.006,0,0,1,5.591-2.246Z" transform="translate(-85.715 -70.044)" fill="#8cc84b"/>
  </g>
</svg>
