<svg xmlns="http://www.w3.org/2000/svg" width="65.063" height="63.086" viewBox="0 0 65.063 63.086">
  <path id="parental-leaves" d="M51.741,62.925a.935.935,0,0,1-.482-.129,17.994,17.994,0,0,1-7.237-7.989,17.823,17.823,0,0,1-6.057-6.124c-.724.759-1.421,1.454-2.1,2.11A18.222,18.222,0,0,1,27,55a26.084,26.084,0,0,1-3.591.489c-.509.039-.884.051-1.166.051l-7.424,7.127a.966.966,0,0,1-1.34,0,.876.876,0,0,1,0-1.286l7.719-7.41a.959.959,0,0,1,.831-.257c1.1.077,8.429-.309,12.476-4.207.643-.618,1.3-1.274,1.983-1.994a9.012,9.012,0,0,1-7.1-2.419L24.456,40.36a13.517,13.517,0,0,1-2.2,2.8.966.966,0,0,1-1.34,0,.876.876,0,0,1,0-1.286,11.815,11.815,0,0,0,2.144-2.856l-.6-.579a3.98,3.98,0,0,1-1.541-3.461,3.788,3.788,0,0,1,1.8-2.444c-1.072-1.209-.9-2.817.5-4.155a4.074,4.074,0,0,1,1.675-1.016,2.5,2.5,0,0,1-.067-.836,24.547,24.547,0,0,0-1.273-4.606,9.952,9.952,0,0,1-5.186.63A.918.918,0,0,1,17.6,21.5a.943.943,0,0,1,1.1-.733c.04,0,3.444.54,5.535-1.467l4.744-4.554c1.581-1.518,1.367-3.191.5-4.1A1.726,1.726,0,0,0,27,10.488a26.463,26.463,0,0,1-7.545,4.361,3.034,3.034,0,0,0-1.434,1.029L14.3,20.818a.972.972,0,0,1-1.327.206.885.885,0,0,1-.214-1.274l3.725-4.94a4.8,4.8,0,0,1,2.332-1.672A24.364,24.364,0,0,0,25.8,9.1a3.642,3.642,0,0,1,5.066.334A4.207,4.207,0,0,1,32,11.851l3.4-3.268a.966.966,0,0,1,1.34,0,.876.876,0,0,1,0,1.286L25.555,20.612c-.121.116-.255.232-.389.347a25.3,25.3,0,0,1,1.059,3.178,3.254,3.254,0,0,1,3.069-.836,4.064,4.064,0,0,1,1.045-1.544,3.888,3.888,0,0,1,2.1-1.119,2.822,2.822,0,0,1,2.426.81l2.3,2.213a4.45,4.45,0,0,1,1.421-1.467,2.789,2.789,0,0,1,2.211-.45,5.3,5.3,0,0,1,.764.309L53.041,11.041c2.2-2.11,2.814-4.04,1.648-5.159a2.085,2.085,0,0,0-1.93-.515,7.4,7.4,0,0,0-3.444,2.1l-2.4,2.3L36.638,19.635a.966.966,0,0,1-1.34,0,.876.876,0,0,1,0-1.286L45.59,8.468c2.184-2.11,2.8-4.027,1.635-5.146a2.085,2.085,0,0,0-1.93-.515,7.4,7.4,0,0,0-3.444,2.1L39.345,7.31a.966.966,0,0,1-1.34,0,.876.876,0,0,1,0-1.286l2.506-2.406a9.137,9.137,0,0,1,4.409-2.6,4.035,4.035,0,0,1,3.632,1.016A3.733,3.733,0,0,1,49.69,4.75a7.037,7.037,0,0,1,2.68-1.171A4.035,4.035,0,0,1,56,4.6c.63.6,2.211,2.586.04,5.763a4.063,4.063,0,0,1,2.921,1.094c.75.72,2.841,3.409-1.648,7.719l-1.5,1.441A3.9,3.9,0,0,1,58.4,21.706a3.671,3.671,0,0,1,1.059,3.486,8.45,8.45,0,0,1-2.707,4.233l-4.784,4.593a.966.966,0,0,1-1.34,0,.876.876,0,0,1,0-1.286l4.784-4.593A7.011,7.011,0,0,0,57.6,24.832a1.9,1.9,0,0,0-.536-1.853,2.085,2.085,0,0,0-1.93-.515,7.4,7.4,0,0,0-3.444,2.1h0l-3.9,3.744c1.139,2.174,1.206,4.9.214,8.774a19.388,19.388,0,0,1,7.612,6.535A18.484,18.484,0,0,1,64,50.485a.885.885,0,0,1-.322,1.248.965.965,0,0,1-1.3-.309A16.821,16.821,0,0,0,54.649,45.2a.942.942,0,0,1-.482-.386,17.857,17.857,0,0,0-7.625-6.394.9.9,0,0,1-.563-1.081c1.514-5.442.67-7.6-.348-8.993-2.024-2.753-4.248-4.541-5.4-4.9a1.392,1.392,0,0,0-.8.36,2.406,2.406,0,0,0-.858,1.2L40.4,26.762a28.835,28.835,0,0,0,3.551,2.444.88.88,0,0,1,.295,1.248.961.961,0,0,1-1.3.283,32.208,32.208,0,0,1-3.873-2.7l-2.2-2.11-.013-.013L33.5,22.684a.893.893,0,0,0-.8-.309,2.11,2.11,0,0,0-1.059.6A1.9,1.9,0,0,0,31.009,24a.828.828,0,0,0,.322.772L35.2,28.486a.876.876,0,0,1,0,1.286.966.966,0,0,1-1.34,0l-3.873-3.718-.831-.8c-.777-.746-1.595.039-1.863.3-1.085,1.042-.509,1.6-.308,1.788l.71.682.013.013h0l3.967,3.808a.876.876,0,0,1,0,1.286.966.966,0,0,1-1.34,0l-3.98-3.821c-.764-.733-1.581.051-1.849.309-1.085,1.042-.509,1.6-.308,1.788l.643.618.027.026,4.02,3.859a.876.876,0,0,1,0,1.286.966.966,0,0,1-1.34,0l-3.524-3.383a2.433,2.433,0,0,0-1.273,1.4c-.107.656.482,1.389,1.005,1.891l6.928,6.651a7.2,7.2,0,0,0,6.727,1.7.96.96,0,0,1,.657-.013.908.908,0,0,1,.576.54A16.332,16.332,0,0,0,45.2,53.341a.922.922,0,0,1,.4.463,16.333,16.333,0,0,0,6.553,7.359.886.886,0,0,1,.335,1.248A.738.738,0,0,1,51.741,62.925ZM43.191,23.1a22.36,22.36,0,0,1,3.6,3.679l9.233-8.864c2.2-2.11,2.814-4.04,1.648-5.159s-3.176-.527-5.36,1.582h0ZM1.031,50.317a.965.965,0,0,1-.67-.27.876.876,0,0,1,0-1.286l7.33-7.037c-1.9-7.359-.536-14.525,1.8-17.6l1.246-1.66a.972.972,0,0,1,1.327-.206.885.885,0,0,1,.214,1.274l-1.246,1.66C9.219,27.6,7.6,34.326,9.675,41.775a.863.863,0,0,1-.241.875L1.715,50.06A1.073,1.073,0,0,1,1.031,50.317Z" transform="translate(0.42 -0.43)" fill="#1cbbda" stroke="#1cbbda" stroke-width="1"/>
</svg>
