<svg xmlns="http://www.w3.org/2000/svg" width="51.207" height="53" viewBox="0 0 51.207 53">
  <g id="partner-attitude" transform="translate(-2.625 -1.063)">
    <path id="Path_14163" data-name="Path 14163" d="M11.172,15.345a7.172,7.172,0,1,1,7.172-7.172A7.172,7.172,0,0,1,11.172,15.345Zm0-10.759a3.586,3.586,0,1,0,3.586,3.586A3.586,3.586,0,0,0,11.172,4.586Z" transform="translate(2.711 0.563)" fill="#1cbbda"/>
    <path id="Path_14163_-_Outline" data-name="Path 14163 - Outline" d="M11.172,15.845a7.672,7.672,0,1,1,7.672-7.672A7.681,7.681,0,0,1,11.172,15.845Zm0-14.345a6.672,6.672,0,1,0,6.672,6.672A6.68,6.68,0,0,0,11.172,1.5Zm0,10.759a4.086,4.086,0,1,1,4.086-4.086A4.091,4.091,0,0,1,11.172,12.259Zm0-7.172a3.086,3.086,0,1,0,3.086,3.086A3.09,3.09,0,0,0,11.172,5.086Z" transform="translate(2.711 0.563)"/>
    <path id="Path_14164" data-name="Path 14164" d="M27.172,15.345a7.172,7.172,0,1,1,7.172-7.172A7.172,7.172,0,0,1,27.172,15.345Zm0-10.759a3.586,3.586,0,1,0,3.586,3.586A3.586,3.586,0,0,0,27.172,4.586Z" transform="translate(15.401 0.563)" fill="#1cbbda"/>
    <path id="Path_14164_-_Outline" data-name="Path 14164 - Outline" d="M27.172,15.845a7.672,7.672,0,1,1,7.672-7.672A7.681,7.681,0,0,1,27.172,15.845Zm0-14.345a6.672,6.672,0,1,0,6.672,6.672A6.68,6.68,0,0,0,27.172,1.5Zm0,10.759a4.086,4.086,0,1,1,4.086-4.086A4.091,4.091,0,0,1,27.172,12.259Zm0-7.172a3.086,3.086,0,1,0,3.086,3.086A3.09,3.09,0,0,0,27.172,5.086Z" transform="translate(15.401 0.563)"/>
    <path id="Path_14165" data-name="Path 14165" d="M45.034,45.862H37.862a3.586,3.586,0,0,1-3.586-3.586V29.724h3.586V42.276h7.172V26.138h3.586V15.379a1.793,1.793,0,0,0-1.793-1.793H35.316L27.1,27.931,18.891,13.586H7.379a1.793,1.793,0,0,0-1.793,1.793V26.138H9.172V42.276h7.172V29.724h3.586V42.276a3.586,3.586,0,0,1-3.586,3.586H9.172a3.586,3.586,0,0,1-3.586-3.586V29.724A3.586,3.586,0,0,1,2,26.138V15.379A5.379,5.379,0,0,1,7.379,10H20.971L27.1,20.759,33.236,10H46.828a5.379,5.379,0,0,1,5.379,5.379V26.138a3.586,3.586,0,0,1-3.586,3.586V42.276A3.586,3.586,0,0,1,45.034,45.862Z" transform="translate(1.125 7.7)" fill="#1cbbda"/>
    <path id="Path_14165_-_Outline" data-name="Path 14165 - Outline" d="M45.034,46.362H37.862a4.091,4.091,0,0,1-4.086-4.086V29.224h4.586V41.776h6.172V25.638h3.586V15.379a1.3,1.3,0,0,0-1.293-1.293H35.606L27.1,28.937,18.6,14.086H7.379a1.3,1.3,0,0,0-1.293,1.293V25.638H9.672V41.776h6.172V29.224h4.586V42.276a4.091,4.091,0,0,1-4.086,4.086H9.172a4.091,4.091,0,0,1-4.086-4.086V30.194A4.092,4.092,0,0,1,1.5,26.138V15.379A5.886,5.886,0,0,1,7.379,9.5H21.262L27.1,19.749,32.945,9.5H46.828a5.886,5.886,0,0,1,5.879,5.879V26.138a4.092,4.092,0,0,1-3.586,4.056V42.276A4.091,4.091,0,0,1,45.034,46.362ZM34.776,30.224V42.276a3.09,3.09,0,0,0,3.086,3.086h7.172a3.09,3.09,0,0,0,3.086-3.086V29.224h.5a3.09,3.09,0,0,0,3.086-3.086V15.379A4.885,4.885,0,0,0,46.828,10.5h-13.3L27.1,21.768,20.681,10.5H7.379A4.885,4.885,0,0,0,2.5,15.379V26.138a3.09,3.09,0,0,0,3.086,3.086h.5V42.276a3.09,3.09,0,0,0,3.086,3.086h7.172a3.09,3.09,0,0,0,3.086-3.086V30.224H16.845V42.776H8.672V26.638H5.086V15.379a2.3,2.3,0,0,1,2.293-2.293h11.8L27.1,26.925l7.923-13.838h11.8a2.3,2.3,0,0,1,2.293,2.293V26.638H45.534V42.776H37.362V30.224Z" transform="translate(1.125 7.7)"/>
  </g>
</svg>
