<svg xmlns="http://www.w3.org/2000/svg" width="22" height="20.277" viewBox="0 0 22 20.277">
  <g id="Portfolio" transform="translate(0 -19.736)">
    <g id="Group_44944" data-name="Group 44944" transform="translate(5.005 25.638)">
      <g id="Group_44943" data-name="Group 44943">
        <path id="Path_10223" data-name="Path 10223" d="M127.983,173.982a1.692,1.692,0,0,0-2.393,0l-.379.378-.009.008-.008.008-7.975,7.975h0a.447.447,0,0,0-.118.213l-.6,2.349a.449.449,0,0,0,.546.546l2.357-.6a.449.449,0,0,0,.207-.118l7.983-7.984.387-.387a1.692,1.692,0,0,0,0-2.393ZM117.559,184.4l.218-.86.642.642Zm1.736-.612-1.124-1.124,7.348-7.348,1.123,1.123Zm8.052-8.053-.069.069-1.123-1.123.069-.069a.794.794,0,1,1,1.123,1.123Z" transform="translate(-116.49 -173.486)" fill="#1cbbda"/>
      </g>
    </g>
    <g id="Group_44946" data-name="Group 44946" transform="translate(0 19.736)">
      <g id="Group_44945" data-name="Group 44945">
        <path id="Path_10224" data-name="Path 10224" d="M20.053,24.265H15.669V22.334a2.292,2.292,0,0,0-2.289-2.289H8.62a2.292,2.292,0,0,0-2.289,2.289v1.931H1.947A2.042,2.042,0,0,0,0,26.387V38.2a2.042,2.042,0,0,0,1.947,2.122H20.053A2.042,2.042,0,0,0,22,38.2V26.387A2.042,2.042,0,0,0,20.053,24.265ZM7.229,22.334A1.393,1.393,0,0,1,8.62,20.943h4.76a1.393,1.393,0,0,1,1.391,1.391v1.931H7.229ZM1.947,39.424h0A1.148,1.148,0,0,1,.9,38.2v-.317a2.051,2.051,0,0,1,1.544,1.541ZM21.1,38.2a1.148,1.148,0,0,1-1.049,1.224h-.495A2.051,2.051,0,0,1,21.1,37.883Zm0-1.23a2.95,2.95,0,0,0-2.457,2.454H3.355A2.95,2.95,0,0,0,.9,36.97V26.387a1.148,1.148,0,0,1,1.049-1.224H20.053A1.148,1.148,0,0,1,21.1,26.387Z" transform="translate(0 -20.045)" fill="#1cbbda"/>
      </g>
    </g>
    <g id="Group_44948" data-name="Group 44948" transform="translate(2.492 28.531)">
      <g id="Group_44947" data-name="Group 44947">
        <path id="Path_10225" data-name="Path 10225" d="M58.451,217.548A.449.449,0,0,0,58,218v6.841a.449.449,0,0,0,.9,0V218A.449.449,0,0,0,58.451,217.548Z" transform="translate(-58.002 -217.548)" fill="#1cbbda"/>
      </g>
    </g>
    <g id="Group_44950" data-name="Group 44950" transform="translate(2.492 26.159)">
      <g id="Group_44949" data-name="Group 44949">
        <path id="Path_10226" data-name="Path 10226" d="M58.451,162.344a.449.449,0,0,0-.449.449v1.019a.449.449,0,0,0,.9,0v-1.019A.449.449,0,0,0,58.451,162.344Z" transform="translate(-58.002 -162.344)" fill="#1cbbda"/>
      </g>
    </g>
  </g>
</svg>
