<svg xmlns="http://www.w3.org/2000/svg" width="51.293" height="62" viewBox="0 0 51.293 62">
  <g id="presenter" transform="translate(0.999 1)">
    <path id="Path_76" data-name="Path 76" d="M-3328.014,277.623a1.107,1.107,0,0,1,.983.6,2.2,2.2,0,0,1,.156.4c.017.055.037.118.062.19.873,2.519,1.688,5.1,2.475,7.592.476,1.508.968,3.067,1.467,4.593.113.344.229.69.347,1.036l.145-.408c.26-.732.529-1.489.8-2.234a11.961,11.961,0,0,1-1.691-3.4,3.6,3.6,0,0,1,.229-2.924,3.542,3.542,0,0,1,2.4-1.6,7.821,7.821,0,0,1,1.673-.2,5.064,5.064,0,0,1,2.7.735,3.03,3.03,0,0,1,1.471,3.138,8.209,8.209,0,0,1-1.573,3.752.821.821,0,0,0-.122,1c.291.7.549,1.421.793,2.131q1.125-3.524,2.249-7.047l1.957-6.131a3.115,3.115,0,0,1,.2-.53,1.149,1.149,0,0,1,1.03-.639,1.847,1.847,0,0,1,.924.319c.341.191.686.387,1.019.577,1.108.631,2.254,1.284,3.414,1.824a35.589,35.589,0,0,0,5.775,2.149,7.09,7.09,0,0,1,5.329,6.037,24.115,24.115,0,0,1,.2,6.164c-.053.791-.144,1.566-.232,2.316a2.432,2.432,0,0,1-1.32,1.918,35.679,35.679,0,0,1-5.308,2.419,53.8,53.8,0,0,1-15.717,3.106c-1.187.065-2.375.1-3.531.1a53.7,53.7,0,0,1-12.513-1.412c-1.432-.344-2.866-.758-4.264-1.231a37.382,37.382,0,0,1-4.511-1.811c-.184-.09-.368-.179-.552-.267-.5-.241-1.02-.49-1.529-.771a2.641,2.641,0,0,1-1.4-1.969,27.426,27.426,0,0,1-.152-7.146c.018-.175.038-.361.062-.569a8.3,8.3,0,0,1,3.112-5.84,7.233,7.233,0,0,1,2.345-1.028l.345-.1a39.375,39.375,0,0,0,9.739-4.433A1.817,1.817,0,0,1-3328.014,277.623Zm8.31,24.985c1.119,0,2.271-.032,3.422-.095a51.8,51.8,0,0,0,15.133-2.985,33.712,33.712,0,0,0,5.013-2.281c.28-.159.3-.251.322-.413.085-.724.172-1.475.222-2.217a22.33,22.33,0,0,0-.166-5.656c-.469-2.468-1.7-3.892-3.885-4.48a37.563,37.563,0,0,1-6.1-2.267c-1.233-.575-2.416-1.248-3.559-1.9l-.47-.268-1.769,5.542q-1.424,4.463-2.849,8.926c-.015.047-.029.095-.043.143a3.2,3.2,0,0,1-.375.886l-.68,1.047-.873-.892a2.1,2.1,0,0,1-.476-.828l-.012-.034c-.151-.431-.3-.864-.439-1.283-.325-.962-.66-1.957-1.048-2.894a2.793,2.793,0,0,1,.355-2.94,6.236,6.236,0,0,0,1.206-2.839,1.052,1.052,0,0,0-.537-1.169,3.054,3.054,0,0,0-1.648-.439,5.861,5.861,0,0,0-1.248.151,1.672,1.672,0,0,0-1.106.662,1.735,1.735,0,0,0-.039,1.333,10.1,10.1,0,0,0,1.479,2.921,1.681,1.681,0,0,1,.206,1.662c-.281.76-.558,1.542-.827,2.3q-.176.495-.352.989c-.153.426-.306.851-.461,1.28l-.663,1.841-1.052-.66a1.478,1.478,0,0,1-.635-.865l-.01-.03q-.125-.362-.251-.724c-.284-.819-.578-1.665-.854-2.507-.5-1.536-1-3.1-1.474-4.613-.721-2.286-1.466-4.643-2.254-6.95a41.6,41.6,0,0,1-9.673,4.312l-.364.109a5.545,5.545,0,0,0-1.724.717,6.348,6.348,0,0,0-2.316,4.463c-.022.2-.042.372-.058.538a25.432,25.432,0,0,0,.136,6.624.649.649,0,0,0,.39.54c.461.254.932.48,1.432.72.189.091.378.182.566.274a35.469,35.469,0,0,0,4.272,1.712c1.341.454,2.717.851,4.09,1.181A51.7,51.7,0,0,0-3319.7,302.608Z" transform="translate(3343.787 -243.608)" fill="#1cbbda"/>
    <path id="Path_77" data-name="Path 77" d="M-3181.994-220.383c.056,0,.116,0,.176.008.943.085,2.063.181,3.218.247.625.035,1.275.053,1.932.053a46.524,46.524,0,0,0,4.739-.263,6.4,6.4,0,0,1,.647-.033,7.65,7.65,0,0,1,6.791,4.377,5.116,5.116,0,0,1,4.086,3.1,8.674,8.674,0,0,1,.786,4.067v.007a27.513,27.513,0,0,1-.481,4.594,2.887,2.887,0,0,1,.908.66c.042.041.083.081.124.119a1.46,1.46,0,0,1,.409,1.323c0,.022-.006.051-.007.064,0,.181,0,.36,0,.538a10.638,10.638,0,0,1-.34,3.183q-.066.217-.131.434a17,17,0,0,1-.98,2.685,3.888,3.888,0,0,1-.836,1.181,1.893,1.893,0,0,1-.975.507,15.741,15.741,0,0,1-1.347,3.748,11.469,11.469,0,0,1-3.225,3.978,10.791,10.791,0,0,1-4.7,2.034,11.91,11.91,0,0,1-2.122.194,10.9,10.9,0,0,1-6.353-2.024,11.275,11.275,0,0,1-4.247-5.656l-.085-.242a18.039,18.039,0,0,1-.634-2.07,1.872,1.872,0,0,1-1.167-.815,9.21,9.21,0,0,1-1.268-2.769,15.181,15.181,0,0,1-.78-4.489,3.445,3.445,0,0,1,.136-1.02,2.348,2.348,0,0,1,1.426-1.564,16.979,16.979,0,0,1-.276-5.446,10.821,10.821,0,0,1,3.37-7.027c.215-.2.436-.373.655-.541a6.377,6.377,0,0,1-.625-1.461,1.282,1.282,0,0,1,.149-1.2A1.227,1.227,0,0,1-3181.994-220.383Zm20.374,11.52a6.768,6.768,0,0,0-.583-3.154,3.152,3.152,0,0,0-2.546-1.992,1.865,1.865,0,0,1-1.575-1.18,5.647,5.647,0,0,0-4.959-3.18,4.387,4.387,0,0,0-.444.022,48.5,48.5,0,0,1-4.942.273c-.695,0-1.383-.019-2.045-.057-.736-.042-1.456-.1-2.126-.151a2.189,2.189,0,0,0,.143.205,1.484,1.484,0,0,1,.439,1.154,1.49,1.49,0,0,1-.724,1l-.1.076c-.277.209-.539.406-.769.616a8.908,8.908,0,0,0-2.735,5.79,15.456,15.456,0,0,0,.378,5.4,1.369,1.369,0,0,1-.189,1.168,1.371,1.371,0,0,1-1.075.491c-.125.005-.262.044-.336.291a1.527,1.527,0,0,0-.051.439,13.3,13.3,0,0,0,.692,3.905,7.432,7.432,0,0,0,.979,2.185l0,.006a1.443,1.443,0,0,1,1.442,1.3,14.154,14.154,0,0,0,.619,2.089l.086.246a9.313,9.313,0,0,0,3.5,4.675,8.938,8.938,0,0,0,5.208,1.664,9.906,9.906,0,0,0,1.765-.162,8.763,8.763,0,0,0,6.494-4.948,13.593,13.593,0,0,0,1.269-3.727,1.729,1.729,0,0,1,.186-.568,1.184,1.184,0,0,1,1.044-.609,1.4,1.4,0,0,1,.3.034,2.142,2.142,0,0,0,.349-.547,15.234,15.234,0,0,0,.859-2.378q.067-.222.134-.443a8.992,8.992,0,0,0,.252-2.6c0-.188,0-.376,0-.564,0-.04,0-.078.005-.113a1.648,1.648,0,0,0-.186-.161,1.37,1.37,0,0,1-1.124-.463,1.469,1.469,0,0,1-.194-1.274A25.487,25.487,0,0,0-3161.62-208.863Z" transform="translate(3197.891 219.383)" fill="#1cbbda"/>
  </g>
</svg>
