<svg xmlns="http://www.w3.org/2000/svg" width="55.169" height="55.169" viewBox="0 0 55.169 55.169">
  <path id="Process" d="M710.109,288.583a4.29,4.29,0,0,0-3.473,1.024,4.527,4.527,0,0,0-1.631,3.125c-.468-.439-.959-.882-1.431-1.345-.741-.727-.728-.725-1.446.014-.175.18-.136.27.022.412.2.181.384.384.624.626-2.244,0-4.4-.007-6.548.008-.3,0-.392-.092-.46-.38a4.549,4.549,0,0,0-8.962.666c-.218-.191-.475-.405-.719-.633s-.48-.477-.72-.716c-.757-.757-.753-.754-1.472.054-.119.134-.117.2,0,.325a3.3,3.3,0,0,1,.622.682,18.036,18.036,0,0,1-2.194-.072,6.823,6.823,0,0,1-3.388-12.066,7.092,7.092,0,0,1,4.921-1.527c.273.011.4.044.476.361a4.535,4.535,0,0,0,7.9,1.91,4.5,4.5,0,0,0,1.066-2.584c.653.633,1.312,1.272,1.973,1.908.067.064.13.209.258.081a3.182,3.182,0,0,0,.756-.829c.072-.169-.349-.394-.533-.608-.051-.059-.106-.115-.213-.231h.479q4.9,0,9.791,0a8.264,8.264,0,0,0,1.5-.112,8.122,8.122,0,0,0-.3-16.071,40.276,40.276,0,0,0-4.18-.062c-.353,0-.49-.076-.584-.438a4.531,4.531,0,0,0-7.875-1.842,4.5,4.5,0,0,0-1.067,2.578c-.465-.441-.951-.888-1.421-1.351-.763-.751-.753-.751-1.474.024-.134.145-.143.226,0,.354.215.191.416.4.691.664-2.223,0-4.332-.012-6.441.011-.391,0-.531-.1-.627-.486a4.523,4.523,0,0,0-4.834-3.408,4.553,4.553,0,1,0,4.88,5.51c.061-.265.144-.335.411-.333,2.058.013,4.117.006,6.175.01.111,0,.237-.051.345.047-.028.036-.05.067-.075.1-.211.244-.64.439-.613.7s.423.459.628.708c.179.218.284.138.441-.023.626-.639,1.265-1.266,1.9-1.9.029.181.058.354.085.528a4.543,4.543,0,0,0,8.926.076c.034-.146.045-.247.235-.241,1.461.044,2.926-.1,4.383.079a6.821,6.821,0,0,1-1.017,13.576q-5,.009-9.994,0h-.372c.08-.091.111-.128.144-.163.212-.226.611-.471.59-.672-.027-.255-.405-.465-.611-.712-.162-.194-.265-.182-.442,0-.631.645-1.282,1.27-1.914,1.891-.04-.222-.072-.477-.133-.725a4.536,4.536,0,0,0-8.86.087c-.061.277-.171.3-.4.3a10.757,10.757,0,0,0-2.223.144,8.126,8.126,0,0,0,1.591,16.106c.409,0,.817,0,1.226,0l.039.1c-.249.229-.657.428-.707.694-.059.316.419.493.621.765.148.2.254.147.409-.008.64-.638,1.293-1.261,1.925-1.874.035.194.065.446.125.691a4.537,4.537,0,0,0,8.862-.07c.059-.263.153-.309.39-.308,2.1.008,4.2,0,6.3,0h.292c-.078.09-.109.127-.141.162-.212.226-.611.469-.591.671.026.254.4.465.61.712.161.192.263.186.441,0,.632-.644,1.284-1.268,1.911-1.883a4.56,4.56,0,0,0,9.1-.048A4.532,4.532,0,0,0,710.109,288.583Zm-30.461-22.149a3.25,3.25,0,1,1,3.251-3.25A3.261,3.261,0,0,1,679.647,266.434Zm18.17,0a3.25,3.25,0,1,1,3.283-3.218A3.262,3.262,0,0,1,697.817,266.434Zm-9.058,8.453a3.25,3.25,0,1,1-3.26,3.239A3.26,3.26,0,0,1,688.759,274.886Zm2.585,21.454a3.25,3.25,0,1,1,3.255-3.246A3.261,3.261,0,0,1,691.344,296.34Zm18.181,0a3.25,3.25,0,1,1,3.276-3.225A3.262,3.262,0,0,1,709.526,296.34Z" transform="translate(-660.241 322.072) rotate(-45)" fill="#1cbbda"/>
</svg>
