<svg xmlns="http://www.w3.org/2000/svg" width="71.833" height="87" viewBox="0 0 71.833 87">
  <g id="product-owner" transform="translate(3344.786 220.383)">
    <path id="Path_76" data-name="Path 76" d="M-3321.442,277.623a1.158,1.158,0,0,1,1.025.633,2.766,2.766,0,0,1,.19.5c.026.083.056.177.091.28,1.239,3.572,2.394,7.233,3.511,10.773.672,2.128,1.366,4.328,2.07,6.482.283.865.582,1.739.88,2.6l.108-.3q.25-.7.5-1.4c.383-1.076.778-2.188,1.181-3.28a.828.828,0,0,0,.027-.083c-.006-.009-.013-.022-.024-.037a16.645,16.645,0,0,1-2.437-4.836,4.7,4.7,0,0,1,.286-3.811,4.615,4.615,0,0,1,3.136-2.073,10.67,10.67,0,0,1,2.281-.269,6.673,6.673,0,0,1,3.6.98,3.9,3.9,0,0,1,1.889,4.035,11.221,11.221,0,0,1-2.153,5.126,1.569,1.569,0,0,0-.22,1.818c.572,1.381,1.055,2.809,1.522,4.191q1.762-5.518,3.523-11.036,1.41-4.419,2.82-8.837a4.114,4.114,0,0,1,.26-.681,1.219,1.219,0,0,1,1.092-.686,2.238,2.238,0,0,1,1.105.4c.483.27.971.548,1.443.817,1.577.9,3.208,1.826,4.865,2.6a50.8,50.8,0,0,0,8.249,3.069,9.526,9.526,0,0,1,4.947,3.029,11.21,11.21,0,0,1,2.3,5.2,33.807,33.807,0,0,1,.272,8.627c-.075,1.1-.2,2.2-.327,3.26a3.016,3.016,0,0,1-1.661,2.4,50.159,50.159,0,0,1-7.459,3.4,75.8,75.8,0,0,1-22.145,4.375c-1.675.091-3.35.138-4.98.138a75.654,75.654,0,0,1-17.63-1.989c-2.017-.484-4.036-1.068-6-1.734a52.526,52.526,0,0,1-6.341-2.544c-.263-.129-.532-.258-.793-.384-.7-.338-1.43-.688-2.139-1.078a3.3,3.3,0,0,1-1.772-2.492,38.447,38.447,0,0,1-.213-10.015c.03-.294.059-.556.088-.8a13.2,13.2,0,0,1,1.268-4.389A9.952,9.952,0,0,1-3340.23,286a9.765,9.765,0,0,1,3.192-1.391c.165-.049.33-.1.493-.148a56.177,56.177,0,0,0,13.9-6.327A2.223,2.223,0,0,1-3321.442,277.623Zm11.772,35.4c1.594,0,3.232-.045,4.871-.135a73.811,73.811,0,0,0,21.56-4.254,48.193,48.193,0,0,0,7.163-3.261,1.051,1.051,0,0,0,.664-.9c.121-1.037.246-2.11.318-3.163a32.032,32.032,0,0,0-.242-8.118c-.7-3.671-2.542-5.791-5.8-6.671a52.77,52.77,0,0,1-8.573-3.187c-1.731-.807-3.4-1.755-5.01-2.673-.366-.208-.741-.422-1.115-.633l-2.71,8.491q-1.994,6.247-3.988,12.494c-.023.071-.044.142-.065.214a4.17,4.17,0,0,1-.481,1.144l-.681,1.046-.872-.892a2.579,2.579,0,0,1-.58-1.024l-.017-.047c-.212-.6-.418-1.214-.617-1.8-.463-1.371-.941-2.788-1.5-4.13a3.533,3.533,0,0,1,.454-3.76,9.25,9.25,0,0,0,1.786-4.213,1.9,1.9,0,0,0-.955-2.066,4.73,4.73,0,0,0-2.554-.683,8.71,8.71,0,0,0-1.856.223,2.761,2.761,0,0,0-1.837,1.133,2.849,2.849,0,0,0-.095,2.22,14.683,14.683,0,0,0,2.154,4.257,1.972,1.972,0,0,1,.241,1.968c-.4,1.08-.792,2.187-1.172,3.258q-.25.7-.5,1.405c-.194.542-.389,1.083-.586,1.628l-.409,1.136-.419,1.167-1.052-.657a1.683,1.683,0,0,1-.725-1c-.006-.018-.011-.036-.017-.054q-.187-.541-.374-1.08c-.4-1.141-.805-2.32-1.189-3.492-.708-2.164-1.4-4.37-2.077-6.5-1.077-3.413-2.191-6.939-3.376-10.379a58.3,58.3,0,0,1-14.05,6.341c-.17.052-.341.1-.512.154a8.137,8.137,0,0,0-2.57,1.081,9.4,9.4,0,0,0-3.447,6.61c-.028.237-.055.489-.084.771a36.453,36.453,0,0,0,.2,9.491,1.329,1.329,0,0,0,.762,1.062c.66.364,1.362.7,2.041,1.027.264.127.537.258.806.39a50.589,50.589,0,0,0,6.1,2.446c1.91.647,3.871,1.213,5.829,1.684A73.651,73.651,0,0,0-3309.67,313.019Z" transform="translate(0 -448.402)" fill="#1cbbda"/>
    <path id="Path_77" data-name="Path 77" d="M-3179.967-220.383c.067,0,.138,0,.212.01,1.26.114,2.919.257,4.572.35.893.051,1.821.076,2.76.076a66.306,66.306,0,0,0,6.756-.374,8.648,8.648,0,0,1,.875-.044,10.4,10.4,0,0,1,9.244,5.964c.083.193.1.206.305.231a6.853,6.853,0,0,1,5.485,4.159,11.888,11.888,0,0,1,1.071,5.573v.007a38.507,38.507,0,0,1-.744,6.8,3.222,3.222,0,0,1,1.473.95c.065.063.126.123.185.178a1.666,1.666,0,0,1,.45,1.518c-.006.045-.013.106-.013.128,0,.258,0,.521,0,.775a14.746,14.746,0,0,1-.463,4.389q-.094.309-.187.617a23.7,23.7,0,0,1-1.363,3.739,5.108,5.108,0,0,1-1.093,1.551,2.145,2.145,0,0,1-1.443.637,21.808,21.808,0,0,1-1.937,5.51,15.837,15.837,0,0,1-4.451,5.492,14.875,14.875,0,0,1-6.473,2.8,16.453,16.453,0,0,1-2.932.269,15.037,15.037,0,0,1-8.761-2.793,15.561,15.561,0,0,1-5.862-7.808l-.117-.334a23.217,23.217,0,0,1-.948-3.182,2.192,2.192,0,0,1-1.661-1.019,12.654,12.654,0,0,1-1.736-3.8,21.074,21.074,0,0,1-1.087-6.237,4.464,4.464,0,0,1,.175-1.323,2.9,2.9,0,0,1,2.107-2.048,23.88,23.88,0,0,1-.462-7.954,14.931,14.931,0,0,1,4.641-9.7c.393-.359.806-.673,1.208-.976a8,8,0,0,1-1.05-2.289,1.419,1.419,0,0,1,.149-1.323A1.317,1.317,0,0,1-3179.967-220.383Zm29.28,15.911a9.986,9.986,0,0,0-.868-4.659,4.848,4.848,0,0,0-3.931-3.053,2.222,2.222,0,0,1-1.9-1.424,8.439,8.439,0,0,0-7.407-4.756,6.639,6.639,0,0,0-.671.034,68.277,68.277,0,0,1-6.959.385c-.976,0-1.943-.027-2.874-.079-1.312-.074-2.621-.178-3.74-.275a4.306,4.306,0,0,0,.579,1.027,1.724,1.724,0,0,1,.536,1.323,1.733,1.733,0,0,1-.863,1.144l-.137.1c-.4.3-.784.59-1.127.9a13.018,13.018,0,0,0-4.006,8.46,22.292,22.292,0,0,0,.543,7.794,1.531,1.531,0,0,1-.193,1.309,1.533,1.533,0,0,1-1.209.532.885.885,0,0,0-.857.708,2.544,2.544,0,0,0-.09.743,19.194,19.194,0,0,0,1,5.654,10.874,10.874,0,0,0,1.447,3.218,1.111,1.111,0,0,0,.159.187c.053,0,.107-.006.159-.006a1.629,1.629,0,0,1,1.659,1.5,20.494,20.494,0,0,0,.9,3.03l.119.338a13.6,13.6,0,0,0,5.119,6.828,13.073,13.073,0,0,0,7.616,2.432,14.45,14.45,0,0,0,2.574-.237,12.813,12.813,0,0,0,9.5-7.231,19.676,19.676,0,0,0,1.835-5.394,2.053,2.053,0,0,1,.216-.674,1.25,1.25,0,0,1,1.116-.65,1.707,1.707,0,0,1,.533.092.945.945,0,0,0,.111-.09,3.219,3.219,0,0,0,.652-.962,21.879,21.879,0,0,0,1.242-3.432c.063-.209.126-.417.19-.626a13.034,13.034,0,0,0,.375-3.808c0-.26,0-.528,0-.794a2.951,2.951,0,0,1,.025-.325l-.044-.043c-.222-.217-.452-.441-.594-.443a1.6,1.6,0,0,1-1.326-.5,1.67,1.67,0,0,1-.193-1.458A36.52,36.52,0,0,0-3150.687-204.472Z" transform="translate(-141.298)" fill="#1cbbda"/>
  </g>
</svg>
