<svg xmlns="http://www.w3.org/2000/svg" width="23.1" height="23.1" viewBox="0 0 23.1 23.1">
  <g id="project_execution" transform="translate(-83.451 -13.448)">
    <path id="Path_15356" data-name="Path 15356" d="M96.158,36.548H93.82a1.624,1.624,0,0,1-1.611-1.405l-.234-1.673c-.318-.13-.509-.211-.813-.339L89.8,34.144A1.615,1.615,0,0,1,87.664,34L86.02,32.358a1.647,1.647,0,0,1-.146-2.128l1.021-1.374c-.13-.318-.21-.508-.339-.812l-1.723-.258a1.657,1.657,0,0,1-1.382-1.63V23.84a1.624,1.624,0,0,1,1.4-1.61l1.7-.254c.131-.32.212-.512.341-.816L85.878,19.8a1.643,1.643,0,0,1,.142-2.134l1.644-1.644a1.607,1.607,0,0,1,1.145-.47,1.647,1.647,0,0,1,.983.324l1.374,1.021c.318-.13.508-.21.812-.339l.255-1.705a1.624,1.624,0,0,1,1.61-1.4h2.316a1.624,1.624,0,0,1,1.61,1.4l.254,1.7c.32.131.511.212.816.341l1.364-1.013a1.577,1.577,0,0,1,.972-.329,1.673,1.673,0,0,1,1.15.459l.012.012,1.644,1.644a1.647,1.647,0,0,1,.146,2.128l-1.021,1.374c.13.318.21.508.339.812l1.705.255a1.624,1.624,0,0,1,1.4,1.61v2.316a1.638,1.638,0,0,1-1.4,1.633l-1.705.255-.168.4-.168.4,1.013,1.364a1.622,1.622,0,0,1-.142,2.134l-1.644,1.644a1.607,1.607,0,0,1-1.145.47,1.647,1.647,0,0,1-.983-.324L98.835,33.1c-.318.13-.508.21-.812.339l-.255,1.705A1.624,1.624,0,0,1,96.158,36.548Zm-5.147-4.676.422.179c.493.208.677.286,1.25.52l.293.12L93.3,35a.522.522,0,0,0,.521.452h2.339a.521.521,0,0,0,.52-.448v-.01l.347-2.32.417-.176c.5-.211.684-.289,1.264-.526l.287-.117,1.87,1.389a.552.552,0,0,0,.329.108.514.514,0,0,0,.367-.148l1.644-1.644a.514.514,0,0,0,.047-.686l-.007-.01-1.392-1.874.123-.29.291-.686.288-.681.12-.284L105,26.7a.529.529,0,0,0,.447-.543V23.84a.521.521,0,0,0-.448-.52h-.01l-2.32-.347-.175-.415c-.211-.5-.29-.685-.527-1.266L101.854,21l1.389-1.87a.539.539,0,0,0-.04-.7L101.566,16.8a.585.585,0,0,0-.391-.155.489.489,0,0,0-.3.1l-.01.007L98.99,18.147l-.423-.179c-.492-.208-.676-.286-1.249-.52l-.29-.118L96.678,15a.521.521,0,0,0-.52-.447H93.843a.521.521,0,0,0-.52.448v.01l-.347,2.32-.414.175c-.5.211-.685.29-1.266.527l-.287.117-1.87-1.389a.553.553,0,0,0-.329-.108.514.514,0,0,0-.367.148L86.8,18.44a.541.541,0,0,0-.047.686l.007.01,1.392,1.874-.178.421c-.209.493-.287.677-.52,1.251l-.118.29L85,23.32a.521.521,0,0,0-.447.52v2.316a.566.566,0,0,0,.465.546l2.312.346.176.417c.211.5.289.684.526,1.264l.117.287-1.389,1.87a.539.539,0,0,0,.04.7l1.644,1.644a.521.521,0,0,0,.37.156.511.511,0,0,0,.316-.109l.01-.007Z" fill="#1cbbda"/>
    <path id="Path_15357" data-name="Path 15357" d="M280.805,228.824a2.232,2.232,0,0,1,1.577,3.809l-4.245,4.246a2.071,2.071,0,0,1-1.568.646,2.215,2.215,0,0,1-1.559-.636l-2.41-2.41a2.231,2.231,0,1,1,3.155-3.155l.814.814,2.659-2.659A2.217,2.217,0,0,1,280.805,228.824Zm-4.236,7.7a1.1,1.1,0,0,0,.831-.322l.02-.021,4.255-4.256a1.231,1.231,0,1,0-1.741-1.741l-3.013,3.013a.5.5,0,0,1-.707,0l-1.167-1.167a1.231,1.231,0,1,0-1.741,1.741l2.41,2.41A1.208,1.208,0,0,0,276.569,236.525Z" transform="translate(-182.595 -207.904)" fill="#1cbbda"/>
  </g>
</svg>
