<svg xmlns="http://www.w3.org/2000/svg" width="22.3" height="27.046" viewBox="0 0 22.3 27.046">
  <g id="project_reviews" transform="translate(103.816 126.187)">
    <g id="Group_46686" data-name="Group 46686" transform="translate(-103.666 -126.037)">
      <path id="Path_15351" data-name="Path 15351" d="M101.924,5.844a.3.3,0,0,1-.138-.034l-1.572-.826-1.572.826A.3.3,0,0,1,98.21,5.5l.3-1.75-1.272-1.24A.3.3,0,0,1,97.4,2l1.758-.255L99.946.152a.31.31,0,0,1,.533,0l.786,1.593L103.023,2a.3.3,0,0,1,.165.507l-1.272,1.24.3,1.75a.3.3,0,0,1-.293.347ZM98.085,2.5l.952.928a.3.3,0,0,1,.086.263L98.9,5l1.177-.619a.3.3,0,0,1,.277,0L101.529,5,101.3,3.693a.3.3,0,0,1,.085-.263l.952-.928-1.316-.191a.3.3,0,0,1-.224-.163L100.213.955l-.588,1.192a.3.3,0,0,1-.224.163Z" transform="translate(-89.213 0.001)" fill="#1cbbda"/>
      <path id="Path_15351_-_Outline" data-name="Path 15351 - Outline" d="M101.924,5.994a.45.45,0,0,1-.208-.051l-1.5-.79-1.5.79a.45.45,0,0,1-.208.051.447.447,0,0,1-.441-.523L98.349,3.8,97.133,2.614a.447.447,0,0,1,.248-.763l1.68-.244L99.812.085a.459.459,0,0,1,.8,0l.751,1.522,1.68.244a.447.447,0,0,1,.248.763L102.077,3.8l.287,1.673a.447.447,0,0,1-.441.523Zm-1.71-1.18,1.642.863a.147.147,0,0,0,.214-.155l-.313-1.828L103.083,2.4A.147.147,0,0,0,103,2.148l-1.836-.267L100.345.218a.162.162,0,0,0-.264,0L99.26,1.881l-1.836.267a.147.147,0,0,0-.082.251l1.328,1.295-.313,1.828a.147.147,0,0,0,.059.144.15.15,0,0,0,.155.011ZM98.7,5.278l.276-1.61a.149.149,0,0,0-.043-.131L97.762,2.4l1.617-.235a.148.148,0,0,0,.111-.081l.723-1.465.724,1.465a.146.146,0,0,0,.111.081l1.617.235-1.17,1.141a.148.148,0,0,0-.042.13l.276,1.61-1.446-.761a.15.15,0,0,0-.137,0ZM100.213,4.2a.449.449,0,0,1,.208.051l.908.478-.173-1.011a.448.448,0,0,1,.128-.4l.735-.716L101,2.459a.446.446,0,0,1-.337-.245l-.454-.92-.454.92a.448.448,0,0,1-.337.245l-1.015.147.735.716a.449.449,0,0,1,.129.4L99.1,4.729l.908-.478A.449.449,0,0,1,100.213,4.2Z" transform="translate(-89.213 0.001)" fill="#1cbbda"/>
      <path id="Path_15352" data-name="Path 15352" d="M43.644,85.458a1.633,1.633,0,0,0,.667-1.317v-.267a1.635,1.635,0,0,0-.78-1.393,1.633,1.633,0,0,0,.621-1.282v-.267A1.637,1.637,0,0,0,42.517,79.3l-5.262.008c.316-3.319.018-5.263-.935-6.1a2.434,2.434,0,0,0-2.29-.379l-.219.051L33.8,73.1c-.138,2.894-1.909,6.807-3.642,7.334V80.24a1.055,1.055,0,0,0-1.094-1.009h-5.6A1.055,1.055,0,0,0,22.37,80.24V90.735a1.055,1.055,0,0,0,1.094,1.008h5.6a1.055,1.055,0,0,0,1.094-1.008v-.008a7.3,7.3,0,0,0,3.933.931h7.539a1.637,1.637,0,0,0,1.635-1.635v-.267a1.628,1.628,0,0,0-.38-1.047,1.637,1.637,0,0,0,1.485-1.627v-.267A1.633,1.633,0,0,0,43.644,85.458Zm.131,1.624a1.041,1.041,0,0,1-1.04,1.04H40.3a.3.3,0,0,0,0,.595h1.333a1.041,1.041,0,0,1,1.04,1.04v.267a1.041,1.041,0,0,1-1.04,1.04H34.084a5.808,5.808,0,0,1-4-1.168l-.517-.569v1.408a.469.469,0,0,1-.5.414h-5.6a.469.469,0,0,1-.5-.414V80.24a.469.469,0,0,1,.5-.414h5.6a.469.469,0,0,1,.5.414v5.752a.3.3,0,1,0,.595,0V81.044c2.185-.464,4-4.768,4.222-7.686a1.755,1.755,0,0,1,1.546.29c.816.72,1.046,2.658.7,5.925L36.6,79.9l5.921-.01a1.041,1.041,0,0,1,1.04,1.04V81.2a1.041,1.041,0,0,1-1.04,1.04H40.3a.3.3,0,0,0,0,.595h2.38a1.041,1.041,0,0,1,1.04,1.04v.267a1.041,1.041,0,0,1-1.04,1.04H40.3a.3.3,0,0,0,0,.595h2.438a1.041,1.041,0,0,1,1.04,1.04Z" transform="translate(-22.37 -64.996)" fill="#1cbbda"/>
      <path id="Path_15352_-_Outline" data-name="Path 15352 - Outline" d="M29.064,91.893h-5.6a1.2,1.2,0,0,1-1.244-1.158V80.24a1.205,1.205,0,0,1,1.244-1.159h5.6a1.207,1.207,0,0,1,1.244,1.135c1.526-.7,3.2-4.227,3.343-7.124l.016-.338.33-.076a4.116,4.116,0,0,1,.923-.116,2.195,2.195,0,0,1,1.5.528c.977.863,1.3,2.793,1,6.066l5.1-.008A1.787,1.787,0,0,1,44.3,80.933V81.2a1.774,1.774,0,0,1-.529,1.267,1.772,1.772,0,0,1,.688,1.408v.267a1.793,1.793,0,0,1-.575,1.312,1.781,1.781,0,0,1,.634,1.362v.267a1.8,1.8,0,0,1-1.372,1.736,1.786,1.786,0,0,1,.267.939v.267a1.787,1.787,0,0,1-1.785,1.785H34.092l-.2,0a7.677,7.677,0,0,1-3.608-.833A1.229,1.229,0,0,1,29.064,91.893Zm-5.6-12.512a.906.906,0,0,0-.944.859V90.735a.905.905,0,0,0,.944.858h5.6a.905.905,0,0,0,.944-.858v-.286l.232.152a7.077,7.077,0,0,0,3.648.909l.2,0h7.542a1.486,1.486,0,0,0,1.485-1.485v-.267a1.486,1.486,0,0,0-.345-.951l-.183-.22.285-.026a1.5,1.5,0,0,0,1.348-1.478v-.267a1.483,1.483,0,0,0-.659-1.232l-.177-.119.172-.127a1.492,1.492,0,0,0,.606-1.2v-.267a1.477,1.477,0,0,0-.709-1.265L43.27,82.5l.168-.133A1.478,1.478,0,0,0,44,81.2v-.267a1.487,1.487,0,0,0-1.485-1.485l-5.427.009.016-.164c.312-3.27.03-5.169-.885-5.977a1.879,1.879,0,0,0-1.3-.453,3.817,3.817,0,0,0-.855.108L33.956,73l-.005.111C33.812,76,32.056,80.013,30.2,80.577l-.194.059v-.4a.906.906,0,0,0-.944-.859Zm5.6,11.918h-5.6a.619.619,0,0,1-.65-.564V80.24a.62.62,0,0,1,.65-.564h5.6a.62.62,0,0,1,.65.564v5.752a.147.147,0,1,0,.295,0V80.923l.119-.025c.948-.2,1.922-1.211,2.744-2.844a13.517,13.517,0,0,0,1.359-4.707l.009-.116.114-.02a3.2,3.2,0,0,1,.558-.054,1.628,1.628,0,0,1,1.114.378c.855.754,1.1,2.734.755,6.053l-.017.163,5.754-.009a1.192,1.192,0,0,1,1.19,1.19V81.2a1.192,1.192,0,0,1-1.19,1.19H40.3a.147.147,0,0,0,0,.295h2.38a1.192,1.192,0,0,1,1.19,1.19v.267a1.192,1.192,0,0,1-1.19,1.19H40.3a.147.147,0,0,0,0,.295h2.438a1.191,1.191,0,0,1,1.19,1.19v.266a1.191,1.191,0,0,1-1.19,1.19H40.3a.147.147,0,0,0,0,.295h1.333a1.191,1.191,0,0,1,1.19,1.19v.267a1.191,1.191,0,0,1-1.19,1.19H34.084l-.208,0A5.772,5.772,0,0,1,29.97,90l-.256-.282v1.02A.619.619,0,0,1,29.064,91.3Zm-5.6-11.323c-.186,0-.35.123-.35.264v10.5c0,.14.163.264.35.264h5.6c.186,0,.35-.123.35-.264v-1.8l.778.856a5.712,5.712,0,0,0,3.888,1.119h7.551a.891.891,0,0,0,.89-.89v-.267a.891.891,0,0,0-.89-.89H40.3a.447.447,0,0,1,0-.895h2.438a.891.891,0,0,0,.89-.89v-.266a.891.891,0,0,0-.89-.89H40.3a.447.447,0,0,1,0-.895h2.38a.891.891,0,0,0,.89-.89v-.267a.891.891,0,0,0-.89-.89H40.3a.447.447,0,0,1,0-.895h2.221a.891.891,0,0,0,.89-.89v-.267a.891.891,0,0,0-.89-.89l-6.088.01.052-.495c.331-3.171.111-5.121-.655-5.8a1.538,1.538,0,0,0-1.307-.273c-.252,2.813-1.976,7.065-4.212,7.674v4.829a.447.447,0,1,1-.895,0V80.24c0-.141-.163-.264-.35-.264Z" transform="translate(-22.37 -64.996)" fill="#1cbbda"/>
      <path id="Path_15353" data-name="Path 15353" d="M47.155,207.827a1.511,1.511,0,1,1,1.511-1.511A1.512,1.512,0,0,1,47.155,207.827Zm0-2.427a.916.916,0,1,0,.916.916A.917.917,0,0,0,47.155,205.4Z" transform="translate(-43.175 -183.074)" fill="#1cbbda"/>
      <path id="Path_15353_-_Outline" data-name="Path 15353 - Outline" d="M47.155,207.977a1.661,1.661,0,1,1,1.661-1.661A1.662,1.662,0,0,1,47.155,207.977Zm0-3.022a1.361,1.361,0,1,0,1.361,1.361A1.362,1.362,0,0,0,47.155,204.956Zm0,2.427a1.066,1.066,0,1,1,1.066-1.066A1.067,1.067,0,0,1,47.155,207.383Zm0-1.832a.766.766,0,1,0,.766.766A.767.767,0,0,0,47.155,205.55Z" transform="translate(-43.175 -183.074)" fill="#1cbbda"/>
      <path id="Path_15354" data-name="Path 15354" d="M166.693,32.833a.3.3,0,0,1-.139-.034l-1.572-.826-1.572.826a.3.3,0,0,1-.431-.314l.3-1.75-1.272-1.24a.3.3,0,0,1,.165-.507l1.758-.255.786-1.593a.31.31,0,0,1,.533,0l.786,1.593,1.758.255a.3.3,0,0,1,.165.507l-1.272,1.24.3,1.75a.3.3,0,0,1-.293.347Zm-3.839-3.343.952.928a.3.3,0,0,1,.085.263l-.225,1.311,1.177-.619a.3.3,0,0,1,.277,0l1.177.619-.225-1.311a.3.3,0,0,1,.085-.263l.952-.928L165.8,29.3a.3.3,0,0,1-.224-.163l-.588-1.192-.588,1.192a.3.3,0,0,1-.224.163Z" transform="translate(-147.11 -24.124)" fill="#1cbbda"/>
      <path id="Path_15354_-_Outline" data-name="Path 15354 - Outline" d="M166.693,32.983a.45.45,0,0,1-.208-.051l-1.5-.79-1.5.79a.447.447,0,0,1-.649-.471l.287-1.673L161.9,29.6a.447.447,0,0,1,.248-.763l1.68-.244.751-1.522a.459.459,0,0,1,.8,0l.751,1.522,1.68.244a.447.447,0,0,1,.248.763l-1.215,1.185.287,1.673a.447.447,0,0,1-.441.523Zm-1.71-1.18,1.642.863a.151.151,0,0,0,.156-.011.149.149,0,0,0,.058-.144l-.313-1.828,1.328-1.295a.147.147,0,0,0-.082-.251l-1.836-.267-.821-1.663a.161.161,0,0,0-.264,0l-.821,1.664-1.836.267a.147.147,0,0,0-.082.251l1.328,1.295-.313,1.828a.147.147,0,0,0,.059.144.15.15,0,0,0,.154.011Zm1.515.463-1.446-.761a.15.15,0,0,0-.137,0l-1.446.76.276-1.61a.147.147,0,0,0-.042-.13l-1.17-1.14,1.618-.235a.148.148,0,0,0,.111-.081l.723-1.465.723,1.465a.146.146,0,0,0,.111.081l1.617.235-1.17,1.141a.147.147,0,0,0-.042.13Zm-3.321-2.672.735.716a.447.447,0,0,1,.128.4l-.173,1.011.908-.478a.455.455,0,0,1,.416,0l.908.478-.173-1.011a.447.447,0,0,1,.128-.4l.735-.716-1.015-.147a.446.446,0,0,1-.337-.245l-.454-.919-.454.92a.448.448,0,0,1-.336.245Z" transform="translate(-147.11 -24.124)" fill="#1cbbda"/>
      <path id="Path_15355" data-name="Path 15355" d="M39.852,32.718a.3.3,0,0,1-.138-.034l-1.572-.826-1.572.826a.3.3,0,0,1-.432-.314l.3-1.75-1.272-1.24a.3.3,0,0,1,.165-.507l1.758-.255.786-1.593a.3.3,0,0,1,.267-.166h0a.3.3,0,0,1,.267.166l.786,1.593,1.758.255a.3.3,0,0,1,.165.507l-1.272,1.24.3,1.75a.3.3,0,0,1-.292.348Zm-1.71-1.494a.3.3,0,0,1,.138.034l1.177.619-.225-1.311a.3.3,0,0,1,.086-.263l.952-.928-1.316-.191a.3.3,0,0,1-.224-.163l-.588-1.193-.589,1.193a.3.3,0,0,1-.224.163l-1.316.191.952.928a.3.3,0,0,1,.086.263l-.225,1.311L38,31.259A.3.3,0,0,1,38.142,31.224Z" transform="translate(-33.728 -24.01)" fill="#1cbbda"/>
      <path id="Path_15355_-_Outline" data-name="Path 15355 - Outline" d="M39.852,32.868a.45.45,0,0,1-.208-.051l-1.5-.79-1.5.79a.447.447,0,0,1-.649-.471l.287-1.673-1.215-1.185a.447.447,0,0,1,.248-.763l1.68-.244.751-1.522a.447.447,0,0,1,.8,0l.751,1.522,1.68.244a.447.447,0,0,1,.248.763l-1.215,1.185.287,1.673a.447.447,0,0,1-.44.523Zm-1.711-1.18,1.642.863A.147.147,0,0,0,40,32.4l-.313-1.828,1.328-1.295a.147.147,0,0,0-.082-.251l-1.836-.267-.821-1.663a.147.147,0,0,0-.264,0l-.821,1.663-1.836.267a.147.147,0,0,0-.082.251L36.6,30.568,36.286,32.4a.147.147,0,0,0,.059.144.15.15,0,0,0,.155.011Zm1.515.464-1.446-.761a.15.15,0,0,0-.137,0l-1.446.761.276-1.61a.149.149,0,0,0-.043-.131l-1.17-1.14,1.617-.235a.148.148,0,0,0,.111-.081l.723-1.465.723,1.465a.147.147,0,0,0,.111.081l1.617.235-1.17,1.141a.148.148,0,0,0-.042.131ZM36.336,29.48l.735.716a.449.449,0,0,1,.129.4L37.026,31.6l.908-.478a.456.456,0,0,1,.417,0l.908.477-.174-1.011a.448.448,0,0,1,.129-.4l.735-.716-1.015-.147a.447.447,0,0,1-.337-.245l-.454-.92-.454.92a.448.448,0,0,1-.336.245Z" transform="translate(-33.728 -24.01)" fill="#1cbbda"/>
    </g>
  </g>
</svg>
