<svg xmlns="http://www.w3.org/2000/svg" width="47.062" height="57" viewBox="0 0 47.062 57">
  <g id="project-review" transform="translate(-114.097 -30.314)">
    <g id="review-like-2798" transform="translate(114.597 30.814)">
      <g id="Group_46686" data-name="Group 46686" transform="translate(0 0)">
        <path id="Path_15351" data-name="Path 15351" d="M107.147,12.238a.625.625,0,0,1-.29-.072l-3.291-1.73-3.292,1.73a.623.623,0,0,1-.9-.656L100,7.845l-2.663-2.6a.622.622,0,0,1,.345-1.062l3.681-.535L103.007.318a.649.649,0,0,1,1.117,0l1.645,3.335,3.68.535a.623.623,0,0,1,.345,1.062l-2.663,2.6.628,3.665a.621.621,0,0,1-.613.727Zm-8.037-7L101.1,7.182a.626.626,0,0,1,.179.551l-.471,2.744,2.465-1.3a.623.623,0,0,1,.579,0l2.465,1.3-.47-2.744a.624.624,0,0,1,.179-.551l1.994-1.944-2.755-.4A.62.62,0,0,1,104.8,4.5L103.566,2l-1.232,2.5a.623.623,0,0,1-.469.341Z" transform="translate(-80.535 0.001)" fill="#1cbbda"/>
        <path id="Path_15351_-_Outline" data-name="Path 15351 - Outline" d="M107.147,12.738a1.13,1.13,0,0,1-.522-.129L103.566,11l-3.059,1.608a1.123,1.123,0,0,1-1.629-1.183l.584-3.406L96.987,5.607a1.122,1.122,0,0,1,.622-1.914l3.421-.5L102.559.1a1.147,1.147,0,0,1,2.014,0L106.1,3.2l3.42.5a1.123,1.123,0,0,1,.622,1.915L107.668,8.02l.584,3.406a1.121,1.121,0,0,1-1.106,1.312Zm-3.581-2.867,3.524,1.853a.122.122,0,0,0,.177-.129l-.673-3.924,2.851-2.779a.124.124,0,0,0,.031-.127.122.122,0,0,0-.1-.083l-3.94-.572L103.676.539a.172.172,0,0,0-.22,0l-1.762,3.57-3.941.572a.123.123,0,0,0-.1.084.121.121,0,0,0,.031.125l2.851,2.78-.673,3.924a.123.123,0,0,0,.178.129Zm-3.418,1.521.643-3.743a.125.125,0,0,0-.036-.109l-2.719-2.65,3.758-.546a.122.122,0,0,0,.093-.067l1.68-3.4,1.682,3.4a.121.121,0,0,0,.092.068l3.758.546-2.72,2.651a.124.124,0,0,0-.035.108l.642,3.743-3.361-1.768a.125.125,0,0,0-.114,0Zm3.419-2.782a1.127,1.127,0,0,1,.522.129l1.568.825-.3-1.745a1.123,1.123,0,0,1,.322-.993l1.269-1.237L105.2,5.333a1.119,1.119,0,0,1-.846-.616l-.784-1.587-.784,1.588a1.124,1.124,0,0,1-.845.614l-1.753.255,1.269,1.237a1.126,1.126,0,0,1,.323.993l-.3,1.746,1.568-.824A1.127,1.127,0,0,1,103.566,8.61Z" transform="translate(-80.535 0.001)" fill="#1cbbda"/>
        <path id="Path_15352" data-name="Path 15352" d="M66.913,99.4a3.42,3.42,0,0,0,1.4-2.758v-.558a3.424,3.424,0,0,0-1.633-2.917,3.419,3.419,0,0,0,1.3-2.684v-.558A3.427,3.427,0,0,0,64.553,86.5l-11.017.017c.662-6.949.037-11.019-1.958-12.78-1.152-1.016-2.721-1.274-4.794-.793l-.459.106-.022.47c-.289,6.059-4,14.253-7.626,15.356v-.406a2.209,2.209,0,0,0-2.291-2.112H24.661a2.209,2.209,0,0,0-2.291,2.112v21.974a2.209,2.209,0,0,0,2.291,2.111H36.386a2.209,2.209,0,0,0,2.291-2.111v-.017a15.292,15.292,0,0,0,8.235,1.95H62.7a3.426,3.426,0,0,0,3.423-3.422V108.4a3.409,3.409,0,0,0-.8-2.192,3.427,3.427,0,0,0,3.109-3.407v-.559A3.42,3.42,0,0,0,66.913,99.4Zm.274,3.4a2.18,2.18,0,0,1-2.178,2.177h-5.1a.623.623,0,0,0,0,1.246H62.7a2.18,2.18,0,0,1,2.178,2.178v.559a2.18,2.18,0,0,1-2.178,2.177H46.9c-3.473.093-7.014-.94-8.382-2.445L37.431,107.5v2.948a.982.982,0,0,1-1.046.866H24.661a.982.982,0,0,1-1.046-.866V88.474a.982.982,0,0,1,1.046-.867H36.386a.982.982,0,0,1,1.046.867v12.042a.623.623,0,0,0,1.246,0V90.158c4.574-.972,8.376-9.984,8.839-16.092a3.675,3.675,0,0,1,3.237.607c1.708,1.508,2.19,5.565,1.475,12.405l-.072.688,12.4-.02a2.18,2.18,0,0,1,2.178,2.178v.558a2.18,2.18,0,0,1-2.178,2.178h-4.65a.623.623,0,0,0,0,1.246h4.982a2.18,2.18,0,0,1,2.178,2.178v.558a2.18,2.18,0,0,1-2.178,2.178H59.905a.623.623,0,0,0,0,1.246h5.1a2.18,2.18,0,0,1,2.178,2.177Z" transform="translate(-22.37 -56.558)" fill="#1cbbda"/>
        <path id="Path_15352_-_Outline" data-name="Path 15352 - Outline" d="M36.386,113.058H24.661a2.709,2.709,0,0,1-2.791-2.611V88.473a2.709,2.709,0,0,1,2.791-2.612H36.385a2.739,2.739,0,0,1,2.768,2.273c1.383-.757,2.86-2.635,4.139-5.292A25.681,25.681,0,0,0,45.8,73.5l.04-.848.827-.192a8.8,8.8,0,0,1,1.974-.247,4.776,4.776,0,0,1,3.265,1.152,7.613,7.613,0,0,1,2.139,4.744,34.12,34.12,0,0,1,.036,7.91L64.552,86a3.928,3.928,0,0,1,3.925,3.923v.558a3.9,3.9,0,0,1-1.02,2.637,3.894,3.894,0,0,1,1.353,2.963v.558a3.94,3.94,0,0,1-1.118,2.74,3.914,3.914,0,0,1,1.241,2.859v.559a3.93,3.93,0,0,1-2.777,3.751,3.924,3.924,0,0,1,.464,1.848v.559A3.927,3.927,0,0,1,62.7,112.88H46.918c-.142,0-.287.005-.43.005a16.255,16.255,0,0,1-7.439-1.654A2.782,2.782,0,0,1,36.386,113.058Zm-11.725-26.2a1.711,1.711,0,0,0-1.791,1.612v21.974a1.71,1.71,0,0,0,1.791,1.611H36.386a1.71,1.71,0,0,0,1.791-1.611V109.5l.774.507a14.626,14.626,0,0,0,7.537,1.873c.137,0,.276,0,.413,0H62.7a2.926,2.926,0,0,0,2.923-2.922V108.4a2.924,2.924,0,0,0-.68-1.872l-.612-.732.95-.087a2.942,2.942,0,0,0,2.654-2.909v-.559a2.92,2.92,0,0,0-1.3-2.426l-.591-.4L66.616,99a2.937,2.937,0,0,0,1.193-2.355v-.558a2.908,2.908,0,0,0-1.4-2.491l-.608-.374.56-.443a2.91,2.91,0,0,0,1.111-2.292v-.558A2.927,2.927,0,0,0,64.553,87l-11.567.018.052-.548a34.532,34.532,0,0,0,.021-8.212,6.7,6.7,0,0,0-1.812-4.146,3.757,3.757,0,0,0-2.6-.9,7.81,7.81,0,0,0-1.747.222l-.09.021,0,.092c-.291,6.114-4.031,14.61-7.98,15.811l-.645.2v-1.08a1.711,1.711,0,0,0-1.791-1.612Zm11.724,24.953H24.661a1.466,1.466,0,0,1-1.546-1.366V88.474a1.466,1.466,0,0,1,1.546-1.367H36.386a1.466,1.466,0,0,1,1.546,1.367v12.042a.123.123,0,0,0,.246,0V89.753l.4-.084c1.928-.41,3.923-2.489,5.619-5.856a28.1,28.1,0,0,0,2.826-9.785l.029-.386.381-.068a6.887,6.887,0,0,1,1.2-.115,3.588,3.588,0,0,1,2.455.839c.958.846,1.551,2.324,1.812,4.519a38.786,38.786,0,0,1-.17,8.313l-.014.135,11.841-.019a2.681,2.681,0,0,1,2.679,2.678v.558a2.681,2.681,0,0,1-2.678,2.678h-4.65a.123.123,0,1,0,0,.246h4.982a2.681,2.681,0,0,1,2.678,2.678v.558a2.681,2.681,0,0,1-2.678,2.678H59.905a.123.123,0,1,0,0,.246h5.1a2.681,2.681,0,0,1,2.678,2.677v.557a2.681,2.681,0,0,1-2.678,2.677h-5.1a.123.123,0,0,0,0,.246H62.7a2.681,2.681,0,0,1,2.678,2.678v.559a2.681,2.681,0,0,1-2.678,2.677H46.9c-.146,0-.294.006-.441.006-3.5,0-6.918-1.075-8.317-2.614l-.213-.235v1.655A1.466,1.466,0,0,1,36.385,111.815ZM24.661,88.107c-.307,0-.546.2-.546.367v21.974c0,.169.239.366.546.366H36.385c.307,0,.546-.2.546-.366v-4.241l1.953,2.149c1.2,1.325,4.391,2.287,7.577,2.287.141,0,.282,0,.421-.006H62.7a1.679,1.679,0,0,0,1.678-1.677V108.4a1.68,1.68,0,0,0-1.678-1.678H59.905a1.123,1.123,0,0,1,0-2.246h5.1a1.679,1.679,0,0,0,1.678-1.677v-.557a1.679,1.679,0,0,0-1.678-1.677h-5.1a1.123,1.123,0,1,1,0-2.246h4.982a1.68,1.68,0,0,0,1.678-1.678v-.558a1.68,1.68,0,0,0-1.678-1.678H59.905a1.123,1.123,0,1,1,0-2.246h4.65a1.68,1.68,0,0,0,1.678-1.678v-.558a1.68,1.68,0,0,0-1.678-1.678L51.6,88.268l.13-1.241c.687-6.575.247-10.605-1.309-11.978a2.957,2.957,0,0,0-2.442-.546,29.019,29.019,0,0,1-2.9,9.761c-1.726,3.427-3.81,5.637-5.908,6.281v9.972a1.123,1.123,0,0,1-2.246,0V88.474c0-.17-.239-.367-.546-.367Z" transform="translate(-22.37 -56.558)" fill="#1cbbda"/>
        <path id="Path_15353" data-name="Path 15353" d="M48.807,211.132a3.163,3.163,0,1,1,3.163-3.163A3.166,3.166,0,0,1,48.807,211.132Zm0-5.081a1.918,1.918,0,1,0,1.918,1.918A1.92,1.92,0,0,0,48.807,206.051Z" transform="translate(-40.474 -159.305)" fill="#1cbbda"/>
        <path id="Path_15353_-_Outline" data-name="Path 15353 - Outline" d="M48.807,211.632a3.663,3.663,0,1,1,3.663-3.663A3.667,3.667,0,0,1,48.807,211.632Zm0-6.326a2.663,2.663,0,1,0,2.663,2.663A2.666,2.666,0,0,0,48.807,205.306Zm0,5.081a2.418,2.418,0,1,1,2.418-2.418A2.42,2.42,0,0,1,48.807,210.387Zm0-3.836a1.418,1.418,0,1,0,1.418,1.418A1.42,1.42,0,0,0,48.807,206.551Z" transform="translate(-40.474 -159.305)" fill="#1cbbda"/>
        <path id="Path_15354" data-name="Path 15354" d="M171.916,39.226a.625.625,0,0,1-.29-.072l-3.291-1.73-3.292,1.73a.622.622,0,0,1-.9-.656l.628-3.665-2.663-2.6a.622.622,0,0,1,.345-1.062l3.68-.535,1.646-3.335a.648.648,0,0,1,1.116,0l1.646,3.335,3.68.535a.623.623,0,0,1,.345,1.062l-2.663,2.6.628,3.665a.621.621,0,0,1-.613.727Zm-8.038-7,1.994,1.944a.623.623,0,0,1,.179.551l-.47,2.744,2.465-1.3a.623.623,0,0,1,.579,0l2.464,1.3-.47-2.744a.624.624,0,0,1,.179-.551l1.994-1.944-2.755-.4a.62.62,0,0,1-.469-.341l-1.232-2.5-1.232,2.5a.623.623,0,0,1-.469.341Z" transform="translate(-130.915 -20.992)" fill="#1cbbda"/>
        <path id="Path_15354_-_Outline" data-name="Path 15354 - Outline" d="M171.916,39.726a1.13,1.13,0,0,1-.522-.129l-3.059-1.608-3.06,1.608a1.122,1.122,0,0,1-1.628-1.183l.584-3.406L161.756,32.6a1.122,1.122,0,0,1,.622-1.914l3.42-.5,1.529-3.1a1.147,1.147,0,0,1,2.013,0l1.529,3.1,3.42.5a1.123,1.123,0,0,1,.622,1.915l-2.475,2.412.584,3.406a1.121,1.121,0,0,1-1.106,1.312Zm-3.581-2.867,3.524,1.853a.126.126,0,0,0,.131-.01.123.123,0,0,0,.047-.119l-.673-3.924,2.851-2.779a.124.124,0,0,0,.031-.127.122.122,0,0,0-.1-.083l-3.94-.572-1.762-3.57a.171.171,0,0,0-.219,0L166.463,31.1l-3.94.572a.122.122,0,0,0-.068.209l2.851,2.779-.673,3.924a.122.122,0,0,0,.121.143.117.117,0,0,0,.055-.013Zm3.418,1.52-3.361-1.768a.125.125,0,0,0-.114,0l-3.362,1.768.642-3.743a.123.123,0,0,0-.035-.109l-2.719-2.65,3.76-.546a.123.123,0,0,0,.092-.067l1.681-3.405,1.68,3.4a.121.121,0,0,0,.092.067l3.758.546-2.72,2.651a.124.124,0,0,0-.035.108Zm-6.8-5.8,1.269,1.237a1.123,1.123,0,0,1,.322.994l-.3,1.745,1.569-.825a1.142,1.142,0,0,1,1.043,0l1.569.825-.3-1.745a1.122,1.122,0,0,1,.322-.993l1.269-1.237-1.752-.254a1.119,1.119,0,0,1-.846-.616l-.783-1.587-.784,1.588a1.124,1.124,0,0,1-.844.614Z" transform="translate(-130.915 -20.992)" fill="#1cbbda"/>
        <path id="Path_15355" data-name="Path 15355" d="M45.076,39.126a.624.624,0,0,1-.29-.072l-3.292-1.73L38.2,39.055a.623.623,0,0,1-.9-.656l.628-3.665-2.663-2.6a.622.622,0,0,1,.345-1.062l3.68-.534,1.646-3.335a.623.623,0,0,1,.558-.347h0a.622.622,0,0,1,.558.347L43.7,30.541l3.681.534a.622.622,0,0,1,.345,1.062l-2.663,2.6.628,3.665a.622.622,0,0,1-.612.728ZM41.5,36a.621.621,0,0,1,.29.072l2.465,1.3-.471-2.744a.624.624,0,0,1,.179-.551l1.994-1.944-2.756-.4a.622.622,0,0,1-.469-.341l-1.232-2.5-1.233,2.5a.623.623,0,0,1-.469.341l-2.756.4,1.994,1.944a.626.626,0,0,1,.179.551l-.471,2.744,2.465-1.3A.621.621,0,0,1,41.5,36Z" transform="translate(-32.254 -20.892)" fill="#1cbbda"/>
        <path id="Path_15355_-_Outline" data-name="Path 15355 - Outline" d="M45.076,39.626a1.129,1.129,0,0,1-.522-.129l-3.06-1.608L38.436,39.5a1.123,1.123,0,0,1-1.629-1.183l.584-3.406L34.916,32.5a1.122,1.122,0,0,1,.622-1.914l3.42-.5,1.529-3.1a1.122,1.122,0,0,1,2.013,0l1.528,3.1,3.42.5a1.122,1.122,0,0,1,.622,1.915L45.6,34.908l.584,3.406a1.122,1.122,0,0,1-1.105,1.313ZM41.494,36.76l3.524,1.853a.123.123,0,0,0,.126-.008.125.125,0,0,0,.05-.122l-.673-3.924,2.851-2.779a.122.122,0,0,0-.069-.209L43.365,31,41.6,27.428a.121.121,0,0,0-.11-.068.123.123,0,0,0-.11.069L39.622,31l-3.94.572a.123.123,0,0,0-.1.084.121.121,0,0,0,.031.125l2.851,2.78-.673,3.924a.123.123,0,0,0,.178.129Zm3.419,1.521-3.362-1.768a.123.123,0,0,0-.114,0L38.076,38.28l.642-3.743a.125.125,0,0,0-.036-.109l-2.719-2.65,3.759-.546a.122.122,0,0,0,.092-.067L41.5,27.759l1.68,3.406a.122.122,0,0,0,.092.067l3.759.546-2.72,2.651a.124.124,0,0,0-.035.11Zm-6.8-5.8,1.269,1.237a1.126,1.126,0,0,1,.323.993l-.3,1.746,1.568-.824a1.123,1.123,0,0,1,1.046,0l1.567.824-.3-1.745a1.124,1.124,0,0,1,.323-.994l1.269-1.237-1.753-.255a1.122,1.122,0,0,1-.846-.615l-.784-1.588-.784,1.589a1.124,1.124,0,0,1-.844.614Z" transform="translate(-32.254 -20.892)" fill="#1cbbda"/>
      </g>
    </g>
  </g>
</svg>
