<svg xmlns="http://www.w3.org/2000/svg" width="58.5" height="58.5" viewBox="0 0 58.5 58.5">
  <g id="project-execution-main" transform="translate(-118.412 -31.106)">
    <g id="noun-settings-4211530" transform="translate(119.662 32.356)">
      <path id="Path_15356" data-name="Path 15356" d="M114.948,71.248h-5.954a3.984,3.984,0,0,1-3.95-3.439l-.608-4.353c-.884-.362-1.381-.571-2.227-.929l-3.543,2.632a3.961,3.961,0,0,1-5.235-.348l-4.185-4.185A3.959,3.959,0,0,1,88.1,58.1a4.072,4.072,0,0,1,.786-2.692l2.648-3.565c-.362-.884-.57-1.377-.928-2.225l-4.465-.668a4.118,4.118,0,0,1-2.425-1.387,4.043,4.043,0,0,1-.968-2.615V39.051a3.984,3.984,0,0,1,3.433-3.95l4.415-.66c.364-.889.574-1.387.932-2.235L88.9,28.665a4.029,4.029,0,0,1,.348-5.235l4.185-4.186a3.941,3.941,0,0,1,2.808-1.154,4.043,4.043,0,0,1,2.413.8l3.565,2.648c.884-.362,1.378-.57,2.225-.928l.661-4.425a3.984,3.984,0,0,1,3.95-3.433h5.894a3.984,3.984,0,0,1,3.949,3.433l.66,4.415c.889.364,1.386.573,2.235.932l3.542-2.631a3.866,3.866,0,0,1,2.384-.806,4.109,4.109,0,0,1,2.824,1.127l.027.026,4.186,4.185a3.959,3.959,0,0,1,1.144,2.53,4.072,4.072,0,0,1-.786,2.692l-2.648,3.565c.362.884.57,1.377.928,2.225l4.425.661a3.984,3.984,0,0,1,3.433,3.95v5.9a4.1,4.1,0,0,1-.968,2.659,3.913,3.913,0,0,1-2.465,1.349l-4.425.661-.466,1.1-.456,1.075,2.631,3.542a3.961,3.961,0,0,1-.348,5.235l-4.185,4.185a3.941,3.941,0,0,1-2.808,1.154,4.043,4.043,0,0,1-2.413-.8l-3.565-2.648c-.884.362-1.377.569-2.225.928l-.661,4.425A3.984,3.984,0,0,1,114.948,71.248ZM101.867,59.667l.995.421c1.255.531,1.724.73,3.185,1.325l.667.272.809,5.794a1.477,1.477,0,0,0,1.472,1.269h5.954a1.478,1.478,0,0,0,1.472-1.27l0-.023.87-5.822.986-.417c1.264-.535,1.737-.735,3.212-1.336l.652-.266,4.691,3.485a1.556,1.556,0,0,0,.927.305,1.458,1.458,0,0,0,1.04-.422l4.185-4.185a1.457,1.457,0,0,0,.133-1.945l-.017-.022-3.492-4.7.279-.659c.323-.764.53-1.25.736-1.736s.413-.974.738-1.742l.273-.646,5.845-.873a1.494,1.494,0,0,0,1.269-1.531v-5.9a1.478,1.478,0,0,0-1.27-1.472l-.023,0-5.822-.87-.416-.982c-.536-1.266-.736-1.739-1.338-3.216l-.266-.652,3.485-4.691a1.523,1.523,0,0,0-.116-1.967l-4.17-4.17a1.617,1.617,0,0,0-1.1-.437,1.388,1.388,0,0,0-.861.289l-.022.017-4.7,3.492-1-.422c-1.253-.53-1.722-.729-3.182-1.323l-.659-.269-.875-5.856a1.477,1.477,0,0,0-1.472-1.269h-5.894a1.478,1.478,0,0,0-1.472,1.27l0,.023-.87,5.822-.981.415c-1.266.536-1.74.736-3.217,1.338l-.652.266L97.166,20.9a1.556,1.556,0,0,0-.927-.305,1.458,1.458,0,0,0-1.04.422L91.015,25.2a1.533,1.533,0,0,0-.133,1.945l.017.022,3.492,4.7-.421.994c-.531,1.255-.73,1.725-1.325,3.186l-.269.659-5.856.875a1.477,1.477,0,0,0-1.269,1.472v5.894a1.593,1.593,0,0,0,1.31,1.537l5.8.867.416.983c.536,1.266.736,1.739,1.337,3.215l.266.652L90.9,56.891a1.523,1.523,0,0,0,.116,1.967L95.2,63.043a1.475,1.475,0,0,0,1.047.441,1.45,1.45,0,0,0,.9-.309l.022-.017Z" transform="translate(-84.001 -13.998)" fill="#1cbbda"/>
      <path id="Path_15357" data-name="Path 15357" d="M293.725,228.074a5.656,5.656,0,0,1,4,9.658L286.918,248.54a5.249,5.249,0,0,1-3.976,1.636,5.616,5.616,0,0,1-3.952-1.612l-6.135-6.135a5.656,5.656,0,1,1,8-8l2.088,2.088,6.785-6.785A5.621,5.621,0,0,1,293.725,228.074Zm-10.783,19.6a2.826,2.826,0,0,0,2.133-.827q.024-.028.05-.054l10.831-10.832a3.156,3.156,0,1,0-4.463-4.463l-7.669,7.669a1.25,1.25,0,0,1-1.768,0l-2.971-2.971a3.156,3.156,0,1,0-4.463,4.463l6.135,6.135A3.1,3.1,0,0,0,282.942,247.676Z" transform="translate(-257.555 -210.432)" fill="#1cbbda"/>
    </g>
  </g>
</svg>
