<svg xmlns="http://www.w3.org/2000/svg" width="58.837" height="67.5" viewBox="0 0 58.837 67.5">
  <g id="QA_process" transform="translate(-121.845 -62.617)">
    <path id="Path_10088" data-name="Path 10088" d="M179.291,81.405c-.04-.78-.134-1.557-.205-2.353-.236,0-.418.013-.6,0a15.255,15.255,0,0,1-1.786-.179,6.739,6.739,0,0,1-3.744-2.136,6.5,6.5,0,0,1-1.518-2.784c-.243-.976-.4-1.973-.6-2.978-.091-.032-.228-.077-.362-.126q-3.966-1.468-7.933-2.938c-2.119-.786-4.235-1.583-6.357-2.362q-2.094-.768-4.2-1.495a2.091,2.091,0,0,0-1.777.029,26.507,26.507,0,0,1-2.869,1.08q-2.328.857-4.653,1.721-3.612,1.342-7.224,2.69c-1.279.479-2.557.96-3.823,1.435a17.1,17.1,0,0,1-.252,1.768,14.7,14.7,0,0,1-.744,2.394,6.111,6.111,0,0,1-1.675,2.181,6.458,6.458,0,0,1-2.915,1.465c-.83.168-1.687.2-2.59.3-.024.262-.054.55-.076.838-.1,1.293-.221,2.584-.279,3.879-.034.74.029,1.486.063,2.228.067,1.42.133,2.841.222,4.26.05.8.11,1.595.227,2.383.187,1.259.374,2.523.654,3.763.426,1.893.858,3.792,1.425,5.645.508,1.659,1.185,3.267,1.819,4.885a34.317,34.317,0,0,0,2.685,5.262,36.816,36.816,0,0,0,3.181,4.493,29.136,29.136,0,0,0,3.257,3.5c1.011.873,2,1.778,3.039,2.615a32.881,32.881,0,0,0,5.568,3.585c1.422.732,2.9,1.348,4.348,2.032a3.665,3.665,0,0,0,2.7.223,24.992,24.992,0,0,0,3.2-1.337,41.554,41.554,0,0,0,6.39-3.763,42.428,42.428,0,0,0,4.552-3.827c.49-.469.949-.974,1.4-1.484.623-.705,1.254-1.406,1.826-2.152a35.123,35.123,0,0,0,3.393-5.167c.767-1.484,1.583-2.952,2.21-4.5.76-1.873,1.393-3.8,1.988-5.738a41.4,41.4,0,0,0,1.465-6.858c.209-1.615.425-3.23.572-4.85.108-1.186.15-2.383.148-3.574,0-1.351-.072-2.7-.141-4.053Zm-5.072,5.232c-.055,1.225-.092,2.453-.213,3.672-.133,1.342-.3,2.686-.547,4.011-.275,1.473-.6,2.942-1.011,4.381-.456,1.589-1.015,3.15-1.573,4.707-.262.732-.618,1.431-.944,2.139a31.427,31.427,0,0,1-2.988,5.136c-.6.835-1.243,1.635-1.894,2.429a23.225,23.225,0,0,1-1.566,1.763c-.645.641-1.332,1.245-2.028,1.831-.752.633-1.511,1.263-2.313,1.829-.918.647-1.867,1.258-2.84,1.818-.946.544-1.933,1.019-2.916,1.5a17.6,17.6,0,0,1-1.934.82,1.145,1.145,0,0,1-.73-.134c-1.141-.505-2.291-1-3.4-1.566a30.285,30.285,0,0,1-4.8-3.025c-.813-.631-1.612-1.285-2.376-1.973a22.911,22.911,0,0,1-1.911-1.913c-.84-.958-1.641-1.953-2.423-2.96a28.055,28.055,0,0,1-2.773-4.487,34.807,34.807,0,0,1-2.492-6.149c-.465-1.61-.9-3.231-1.264-4.867-.262-1.183-.4-2.4-.559-3.6-.124-.965-.229-1.937-.27-2.909-.076-1.772-.1-3.546-.14-5.319a1.615,1.615,0,0,1,.076-.528.36.36,0,0,1,.233-.176A9.778,9.778,0,0,0,133.645,80a9.961,9.961,0,0,0,2.155-4.218c.059-.237.112-.475.173-.736q2.358-.869,4.7-1.732c1.252-.46,2.506-.911,3.757-1.374,2.032-.752,4.067-1.5,6.09-2.273a1.857,1.857,0,0,1,1.429,0c2.4.914,4.813,1.786,7.222,2.673l7.289,2.685a.7.7,0,0,0,.106.02,10.14,10.14,0,0,0,2.283,4.911,9.19,9.19,0,0,0,4.69,2.978,1.68,1.68,0,0,1,.409.137.394.394,0,0,1,.2.244c.04.539.063,1.08.074,1.62.012.567.024,1.135,0,1.7Z" transform="translate(0 0)" fill="#1cbbda"/>
    <path id="Path_10088_-_Outline" data-name="Path 10088 - Outline" d="M151.062,62.617a4.038,4.038,0,0,1,1.329.253c1.491.515,2.874,1.007,4.226,1.5s2.723,1.007,4.049,1.5q1.156.431,2.313.861,3.169,1.176,6.34,2.348l1.592.589c.079.029.162.058.235.083l.105.036.674.236.139.7c.063.316.122.633.179.939.129.69.251,1.341.41,1.98a5.217,5.217,0,0,0,1.236,2.252,5.464,5.464,0,0,0,3.067,1.747,8.381,8.381,0,0,0,1.115.12c.17.011.346.023.524.038.022,0,.054,0,.1,0l.15,0c.076,0,.157,0,.244,0h1.143l.1,1.139c.022.243.046.491.07.73.054.543.11,1.1.138,1.671l.005.105c.066,1.309.134,2.662.137,4.009,0,1.328-.048,2.534-.153,3.69-.137,1.507-.334,3.022-.524,4.487l-.053.411a42.827,42.827,0,0,1-1.51,7.065c-.534,1.736-1.192,3.787-2.025,5.841-.524,1.291-1.17,2.523-1.8,3.715q-.232.443-.462.886a36.792,36.792,0,0,1-3.511,5.353c-.533.7-1.11,1.348-1.668,1.979l-.213.241c-.421.478-.926,1.038-1.471,1.56a43.483,43.483,0,0,1-4.687,3.939,43.026,43.026,0,0,1-6.581,3.876,25.825,25.825,0,0,1-3.358,1.4,4.745,4.745,0,0,1-1.428.22,5.082,5.082,0,0,1-2.184-.5c-.523-.247-1.063-.491-1.586-.728-.921-.416-1.872-.846-2.8-1.323a34.286,34.286,0,0,1-5.779-3.722c-.732-.588-1.44-1.211-2.124-1.813-.311-.274-.632-.556-.948-.829a30.1,30.1,0,0,1-3.384-3.628l-.016-.02a37.756,37.756,0,0,1-3.29-4.645,35.238,35.238,0,0,1-2.78-5.454q-.19-.486-.384-.971c-.514-1.293-1.046-2.63-1.466-4-.6-1.944-1.049-3.959-1.449-5.736-.288-1.28-.481-2.579-.668-3.836l0-.018c-.125-.842-.189-1.694-.238-2.488-.089-1.42-.156-2.86-.222-4.253v-.026c-.008-.162-.016-.324-.025-.485a18.3,18.3,0,0,1-.038-1.858c.043-.955.121-1.913.2-2.84.029-.359.058-.717.085-1.076.016-.212.036-.419.055-.618.008-.082.015-.161.023-.239l.093-1.018,1.016-.111c.3-.032.583-.058.861-.082a14.765,14.765,0,0,0,1.617-.2,5.229,5.229,0,0,0,2.352-1.191,4.872,4.872,0,0,0,1.341-1.731,13.522,13.522,0,0,0,.675-2.191,8.356,8.356,0,0,0,.157-1.047c.021-.191.042-.388.07-.591l.1-.74.7-.262,1.4-.526q1.209-.455,2.425-.91c2.312-.863,4.743-1.769,7.227-2.691,1.548-.575,3.115-1.155,4.657-1.722.313-.115.628-.221.932-.323a13.573,13.573,0,0,0,1.8-.7A3.122,3.122,0,0,1,151.062,62.617Zm18.683,9.292-1.295-.479q-3.171-1.174-6.342-2.349-1.159-.43-2.317-.863c-1.322-.493-2.69-1-4.036-1.5s-2.7-.977-4.181-1.487a1.662,1.662,0,0,0-.512-.116.6.6,0,0,0-.292.079,15.652,15.652,0,0,1-2.139.839c-.3.1-.584.2-.864.3-1.539.567-3.1,1.145-4.65,1.719-2.482.922-4.912,1.827-7.222,2.69q-1.212.453-2.421.908l-.686.258a9.081,9.081,0,0,1-.192,1.164,15.761,15.761,0,0,1-.813,2.6,7.341,7.341,0,0,1-2.009,2.631,7.7,7.7,0,0,1-3.477,1.739,15.216,15.216,0,0,1-1.684.221q-.034.438-.07.874c-.073.905-.149,1.841-.191,2.752-.023.513.006,1.045.037,1.607.009.169.019.337.026.506v.026c.065,1.383.132,2.814.219,4.214.046.74.1,1.527.216,2.277l0,.018c.18,1.212.366,2.465.634,3.654.391,1.734.833,3.7,1.4,5.554.391,1.276.9,2.565,1.4,3.812q.2.492.389.983a32.842,32.842,0,0,0,2.59,5.069,35.288,35.288,0,0,0,3.073,4.341l.016.02a27.788,27.788,0,0,0,3.1,3.336c.326.281.652.568.967.845.663.584,1.349,1.188,2.038,1.741a31.783,31.783,0,0,0,5.358,3.448c.87.448,1.792.864,2.684,1.267.533.241,1.084.489,1.626.746a2.427,2.427,0,0,0,1.792.16,23.821,23.821,0,0,0,3.033-1.273,40.521,40.521,0,0,0,6.2-3.649,41.022,41.022,0,0,0,4.418-3.715c.477-.457.938-.968,1.325-1.408l.216-.244c.553-.625,1.076-1.216,1.555-1.842a34.459,34.459,0,0,0,3.276-4.981q.232-.45.469-.9c.625-1.191,1.215-2.315,1.692-3.493.8-1.965,1.434-3.951,1.952-5.636a40.321,40.321,0,0,0,1.42-6.651l.053-.412c.187-1.442.381-2.932.513-4.391.1-1.078.144-2.209.143-3.459,0-1.286-.069-2.608-.134-3.887l-.005-.1c-.02-.4-.055-.793-.1-1.2l-.038,0a10.37,10.37,0,0,1-1.459-.167,7.986,7.986,0,0,1-4.421-2.525,7.758,7.758,0,0,1-1.8-3.316c-.178-.712-.312-1.431-.442-2.126Zm-18.508-3.634a3.208,3.208,0,0,1,1.157.224c1.754.668,3.548,1.326,5.284,1.962l1.925.707,2.35.866,4.842,1.784h0l.841.159.156.842a8.936,8.936,0,0,0,2,4.317,7.985,7.985,0,0,0,4.059,2.589l.05.013a2.562,2.562,0,0,1,.664.248,1.611,1.611,0,0,1,.827,1.243c.04.534.065,1.086.077,1.683v.025c.012.57.024,1.16,0,1.758q-.014.316-.027.632c-.043,1.014-.087,2.063-.19,3.107-.159,1.608-.338,2.917-.562,4.118-.316,1.691-.655,3.162-1.038,4.5-.464,1.616-1.034,3.209-1.585,4.749l-.012.035c-.219.612-.489,1.184-.75,1.737-.079.167-.158.335-.235.5a32.81,32.81,0,0,1-3.107,5.34c-.629.88-1.305,1.715-1.944,2.495a24.338,24.338,0,0,1-1.651,1.857c-.588.584-1.236,1.17-2.1,1.9-.788.663-1.564,1.306-2.4,1.895-.972.686-1.96,1.318-2.937,1.88-.939.54-1.912,1.013-2.854,1.47l-.139.068a18.626,18.626,0,0,1-2.072.877,1.716,1.716,0,0,1-.561.092,2.675,2.675,0,0,1-1.084-.265l-.509-.225c-.972-.428-1.977-.871-2.953-1.371a31.69,31.69,0,0,1-5-3.151c-.928-.721-1.728-1.385-2.446-2.032a24.013,24.013,0,0,1-2.014-2.017c-.759-.866-1.544-1.824-2.47-3.017a28.949,28.949,0,0,1-2.9-4.685,35.865,35.865,0,0,1-2.58-6.371c-.549-1.9-.957-3.47-1.284-4.943-.247-1.116-.391-2.244-.53-3.335l-.048-.375c-.156-1.208-.242-2.138-.279-3.016-.06-1.409-.09-2.835-.118-4.215q-.012-.565-.024-1.13a2.858,2.858,0,0,1,.135-.936l0-.007a1.575,1.575,0,0,1,1.113-1,8.572,8.572,0,0,0,4.391-2.678,8.755,8.755,0,0,0,1.882-3.7c.038-.149.073-.3.111-.468l.058-.25.153-.655,1.763-.65q1.788-.66,3.57-1.315.786-.288,1.572-.574c.716-.261,1.456-.53,2.182-.8l.949-.351c1.685-.622,3.426-1.266,5.129-1.917A3.211,3.211,0,0,1,151.237,68.275ZM165.493,76l-4.4-1.622-2.35-.866-1.921-.7c-1.743-.639-3.546-1.3-5.314-1.973a.772.772,0,0,0-.267-.06.735.735,0,0,0-.27.061c-1.716.656-3.465,1.3-5.156,1.927l-.948.35c-.731.271-1.475.541-2.194.8q-.783.285-1.565.572-1.782.655-3.567,1.314l-.5.185-.025.1a11.227,11.227,0,0,1-2.428,4.739A10.972,10.972,0,0,1,129.57,84.1q.008.391.016.782c.028,1.366.057,2.778.116,4.159.034.8.115,1.669.261,2.8l.048.378c.138,1.083.269,2.106.491,3.111.315,1.42.71,2.942,1.244,4.79a33.408,33.408,0,0,0,2.4,5.928,26.545,26.545,0,0,0,2.647,4.289c.9,1.152,1.65,2.075,2.375,2.9a21.561,21.561,0,0,0,1.806,1.807c.673.606,1.427,1.232,2.307,1.915a29.187,29.187,0,0,0,4.6,2.9c.912.466,1.884.895,2.823,1.309l.514.227.037.016c.468-.173.975-.393,1.574-.684l.139-.068c.9-.438,1.836-.891,2.7-1.388.91-.524,1.833-1.115,2.743-1.756.754-.531,1.484-1.138,2.228-1.764.813-.685,1.415-1.228,1.952-1.761a22.109,22.109,0,0,0,1.48-1.669c.613-.748,1.26-1.546,1.844-2.363a30.3,30.3,0,0,0,2.87-4.932c.08-.175.163-.35.246-.525.246-.522.479-1.015.657-1.512l.013-.035c.538-1.5,1.094-3.057,1.536-4.6.36-1.257.682-2.653.983-4.266.211-1.129.38-2.369.532-3.905.1-.973.139-1.986.18-2.966q.013-.319.027-.639c.023-.518.012-1.042,0-1.6v-.025c-.006-.311-.016-.607-.031-.895a10.474,10.474,0,0,1-5.034-3.29A11.189,11.189,0,0,1,165.493,76Z" transform="translate(0 0)" fill="#18191b"/>
    <path id="Path_10089" data-name="Path 10089" d="M364.177,342.989l-2.867-2.878a14.8,14.8,0,0,0,2.172-8.166c0-8.967-4.577-14.086-12.072-14.086-7.595,0-12.072,5.205-12.072,14.086,0,8.775,4.736,13.783,12.072,13.783a10.52,10.52,0,0,0,7.516-2.554l2.716,2.575a3.371,3.371,0,0,0,1.207.454,2.581,2.581,0,0,0,1.931-1.851,2.308,2.308,0,0,0-.6-1.363Zm-6.1-6.074-1.541-1.546a2.779,2.779,0,0,0-2.274-.5,1.72,1.72,0,0,0-1.075,1.632,2.476,2.476,0,0,0,.667,1.842l1.926,1.8a7,7,0,0,1-3.911,1.06c-4.621-.171-7.385-3.008-7.385-9.111,0-5.9,2.764-9.148,7.385-9.406,4.535.258,7.385,3.441,7.385,9.406A10.685,10.685,0,0,1,358.074,336.915Z" transform="translate(-200.554 -235.564)" fill="#1cbbda"/>
    <path id="Path_10089_-_Outline" data-name="Path 10089 - Outline" d="M362.794,347.467l-.192-.039a4.55,4.55,0,0,1-1.654-.64l-.089-.059-2-1.894a12.124,12.124,0,0,1-7.452,2.143,12.6,12.6,0,0,1-9.719-4.017c-2.357-2.635-3.6-6.444-3.6-11.016a21.391,21.391,0,0,1,.874-6.318,13.583,13.583,0,0,1,2.615-4.87,13.72,13.72,0,0,1,19.624-.037,13.547,13.547,0,0,1,2.641,4.866,21.292,21.292,0,0,1,.89,6.358,16.055,16.055,0,0,1-1.868,7.955l2.249,2.257.044.056a3.453,3.453,0,0,1,.873,2.139v.089l-.013.088a3.783,3.783,0,0,1-3.029,2.916Zm-.386-2.715a2.009,2.009,0,0,0,.435.166,1.794,1.794,0,0,0,.662-.656,1.84,1.84,0,0,0-.268-.445l-3.5-3.513.5-.835a13.524,13.524,0,0,0,1.995-7.524c0-8.157-3.944-12.836-10.822-12.836s-10.822,4.679-10.822,12.836c0,7.848,4.046,12.533,10.822,12.533a9.269,9.269,0,0,0,6.678-2.232l.858-.775Zm-10.542-2.3h-.046a8.315,8.315,0,0,1-6.332-2.771c-1.5-1.763-2.257-4.317-2.257-7.589a11.872,11.872,0,0,1,2.234-7.6,8.436,8.436,0,0,1,6.331-3.053l.07,0,.07,0a8.456,8.456,0,0,1,6.292,3.022,12.951,12.951,0,0,1,.989,12.96l-.739,1.671-2.8-2.811a2.069,2.069,0,0,0-.89-.25.61.61,0,0,0-.072,0c-.209.1-.231.152-.28.534a1.191,1.191,0,0,0,.322.91l3.191,2.988-1.85.914A7.878,7.878,0,0,1,351.865,342.453Zm0-18.515c-5.068.321-6.134,4.606-6.134,8.153,0,2.663.559,4.672,1.662,5.971a5.92,5.92,0,0,0,4.5,1.891,5.7,5.7,0,0,0,1.656-.188l-.6-.559-.043-.05a3.669,3.669,0,0,1-.97-2.615v-.113l.01-.084a2.958,2.958,0,0,1,1.779-2.609l.043-.021.045-.017a2.712,2.712,0,0,1,.976-.169,4.118,4.118,0,0,1,2.629.954l.2.2a8.128,8.128,0,0,0,.385-2.592C358,328.548,356.934,324.265,351.865,323.939Z" transform="translate(-200.554 -235.564)" fill="#18191b"/>
  </g>
</svg>
