<svg xmlns="http://www.w3.org/2000/svg" width="58.805" height="52" viewBox="0 0 58.805 52">
  <g id="qualified-team" transform="translate(-696 122.54)">
    <g id="about-us" transform="translate(696 -122.539)">
      <g id="teamwork-svgrepo-com" transform="translate(0 0)">
        <g id="Group_45478" data-name="Group 45478" transform="translate(0)">
          <path id="Path_14166" data-name="Path 14166" d="M182.436,236.229a3.97,3.97,0,0,0,2.648-1.016l4.58,2.648a1.245,1.245,0,0,0,1.242-2.158l-4.567-2.635a4.387,4.387,0,0,0,.088-.816,3.984,3.984,0,0,0-2.735-3.777v-5.282a1.242,1.242,0,0,0-2.484,0v5.282a3.959,3.959,0,0,0-2.76,3.764,3.532,3.532,0,0,0,.088.816l-4.567,2.635a1.246,1.246,0,0,0,.627,2.321,1.188,1.188,0,0,0,.615-.163l4.58-2.647A3.92,3.92,0,0,0,182.436,236.229Zm0-5.483a1.493,1.493,0,1,1-1.493,1.493A1.489,1.489,0,0,1,182.436,230.746Z" transform="translate(-152.939 -199.16)" fill="#1cbbda"/>
          <path id="Path_14167" data-name="Path 14167" d="M171.162,54.4a1.237,1.237,0,0,0,1.242-1.242V50.082a3.376,3.376,0,0,0-1.242-2.635,36.39,36.39,0,0,0-6.048-3.952V40.383a3.253,3.253,0,0,0,.9-2.259V33.632a5.291,5.291,0,0,0-5.282-5.282h-.966a5.291,5.291,0,0,0-5.282,5.282v4.492a3.253,3.253,0,0,0,.9,2.259v3.1a36.918,36.918,0,0,0-6.048,3.952A3.4,3.4,0,0,0,148.1,50.07v3.074a1.242,1.242,0,1,0,2.484,0V50.07a.93.93,0,0,1,.339-.715,34.35,34.35,0,0,1,6.136-3.94,1.415,1.415,0,0,0,.8-1.292V39.793a1.245,1.245,0,0,0-.552-1.029.8.8,0,0,1-.351-.652V33.632a2.8,2.8,0,0,1,2.8-2.8h.966a2.8,2.8,0,0,1,2.8,2.8v4.479a.773.773,0,0,1-.351.652,1.215,1.215,0,0,0-.552,1.029v4.329a1.437,1.437,0,0,0,.8,1.292,34.665,34.665,0,0,1,6.136,3.94.93.93,0,0,1,.339.715v3.074A1.286,1.286,0,0,0,171.162,54.4Z" transform="translate(-130.856 -28.35)" fill="#1cbbda"/>
          <path id="Path_14168" data-name="Path 14168" d="M320.6,278.844V275.77a3.376,3.376,0,0,0-1.242-2.635,35.875,35.875,0,0,0-6.048-3.952V266.07a3.253,3.253,0,0,0,.9-2.259v-4.479a5.291,5.291,0,0,0-5.282-5.282h-.966a5.291,5.291,0,0,0-5.282,5.282v4.492a3.253,3.253,0,0,0,.9,2.259v3.112a36.919,36.919,0,0,0-6.048,3.952,3.4,3.4,0,0,0-1.242,2.635v3.074a1.242,1.242,0,0,0,2.484,0v-3.074a.93.93,0,0,1,.339-.715,34.349,34.349,0,0,1,6.136-3.94,1.463,1.463,0,0,0,.816-1.292v-4.329a1.245,1.245,0,0,0-.552-1.029.8.8,0,0,1-.351-.652v-4.492a2.8,2.8,0,0,1,2.8-2.8h.966a2.8,2.8,0,0,1,2.8,2.8v4.479a.773.773,0,0,1-.351.652,1.215,1.215,0,0,0-.552,1.029v4.329a1.437,1.437,0,0,0,.8,1.292,34.663,34.663,0,0,1,6.136,3.94.93.93,0,0,1,.339.715v3.074a1.248,1.248,0,0,0,2.5,0Z" transform="translate(-261.8 -228.098)" fill="#1cbbda"/>
          <path id="Path_14169" data-name="Path 14169" d="M23.05,280.086a1.237,1.237,0,0,0,1.242-1.242V275.77a3.376,3.376,0,0,0-1.242-2.635A35.875,35.875,0,0,0,17,269.182V266.07a3.253,3.253,0,0,0,.9-2.259v-4.479a5.291,5.291,0,0,0-5.282-5.282h-.954a5.291,5.291,0,0,0-5.282,5.282v4.492a3.253,3.253,0,0,0,.9,2.259v3.112a36.92,36.92,0,0,0-6.048,3.952A3.4,3.4,0,0,0,0,275.782v3.074a1.242,1.242,0,0,0,2.484,0v-3.074a.93.93,0,0,1,.339-.715,34.663,34.663,0,0,1,6.136-3.94,1.463,1.463,0,0,0,.816-1.292v-4.329a1.245,1.245,0,0,0-.552-1.029.8.8,0,0,1-.351-.652v-4.492a2.8,2.8,0,0,1,2.8-2.8h.966a2.8,2.8,0,0,1,2.8,2.8v4.479a.773.773,0,0,1-.351.652,1.215,1.215,0,0,0-.552,1.029v4.329a1.437,1.437,0,0,0,.8,1.292,34.663,34.663,0,0,1,6.136,3.94.93.93,0,0,1,.339.715v3.074A1.245,1.245,0,0,0,23.05,280.086Z" transform="translate(0 -228.098)" fill="#1cbbda"/>
        </g>
      </g>
    </g>
  </g>
</svg>
