<svg xmlns="http://www.w3.org/2000/svg" width="53.9" height="48" viewBox="0 0 53.9 48">
  <g id="react-native" transform="translate(-101.39 -326.713)">
    <circle id="Ellipse_1" data-name="Ellipse 1" cx="5.021" cy="5.021" r="5.021" transform="translate(122.575 345.698)" fill="#61dafb"/>
    <path id="Path_288" data-name="Path 288" d="M229.6,102.006c0-3.571-4.472-6.954-11.327-9.053,1.582-6.987.879-12.547-2.219-14.326a4.817,4.817,0,0,0-2.461-.615v2.45a2.544,2.544,0,0,1,1.252.286c1.494.857,2.142,4.12,1.637,8.317-.121,1.033-.319,2.12-.56,3.23a53.243,53.243,0,0,0-6.976-1.2,53.589,53.589,0,0,0-4.57-5.493c3.582-3.329,6.943-5.153,9.229-5.153V78c-3.021,0-6.976,2.153-10.976,5.889-4-3.713-7.954-5.845-10.976-5.845v2.45c2.274,0,5.647,1.813,9.229,5.12a51.892,51.892,0,0,0-4.537,5.482,51.3,51.3,0,0,0-6.987,1.209c-.253-1.1-.439-2.164-.571-3.186-.516-4.2.121-7.46,1.6-8.328a2.445,2.445,0,0,1,1.263-.286v-2.45a4.9,4.9,0,0,0-2.483.615c-3.087,1.78-3.779,7.328-2.186,14.293-6.834,2.109-11.283,5.482-11.283,9.042s4.472,6.954,11.327,9.053c-1.582,6.987-.879,12.547,2.219,14.326a4.83,4.83,0,0,0,2.472.615c3.021,0,6.976-2.153,10.976-5.889,4,3.713,7.954,5.845,10.976,5.845a4.9,4.9,0,0,0,2.483-.615c3.087-1.78,3.779-7.328,2.186-14.293,6.812-2.1,11.261-5.482,11.261-9.042Zm-14.3-7.328c-.406,1.417-.912,2.878-1.483,4.34-.45-.879-.923-1.758-1.439-2.637s-1.044-1.736-1.582-2.571C212.351,94.04,213.856,94.326,215.3,94.678Zm-5.032,11.7c-.857,1.483-1.736,2.889-2.648,4.2-1.637.143-3.3.22-4.966.22s-3.318-.077-4.944-.209q-1.368-1.961-2.659-4.175-1.252-2.159-2.285-4.373c.681-1.472,1.45-2.944,2.274-4.384.857-1.483,1.736-2.889,2.648-4.2,1.637-.143,3.3-.22,4.966-.22s3.318.077,4.944.209q1.368,1.961,2.659,4.175,1.252,2.159,2.285,4.373C211.846,103.467,211.088,104.939,210.264,106.378Zm3.549-1.428c.593,1.472,1.1,2.944,1.516,4.373-1.439.352-2.955.648-4.526.879.538-.846,1.077-1.714,1.582-2.6S213.362,105.829,213.812,104.95Zm-11.14,11.723a45.291,45.291,0,0,1-3.054-3.516c.989.044,2,.077,3.021.077s2.054-.022,3.054-.077A42.887,42.887,0,0,1,202.672,116.673ZM194.5,110.2c-1.56-.231-3.065-.516-4.5-.868.406-1.417.912-2.878,1.483-4.34.45.879.923,1.758,1.439,2.637S193.96,109.367,194.5,110.2Zm8.119-22.863a45.3,45.3,0,0,1,3.054,3.516c-.989-.044-2-.077-3.021-.077s-2.054.022-3.054.077A42.884,42.884,0,0,1,202.617,87.339Zm-8.13,6.471c-.538.846-1.077,1.714-1.582,2.6s-.978,1.758-1.428,2.637c-.593-1.472-1.1-2.944-1.516-4.373C191.4,94.337,192.916,94.04,194.487,93.81Zm-9.943,13.755c-3.889-1.659-6.405-3.834-6.405-5.559s2.516-3.911,6.405-5.559c.945-.407,1.978-.769,3.043-1.11a52.763,52.763,0,0,0,2.472,6.691,52.018,52.018,0,0,0-2.439,6.658C186.533,108.345,185.5,107.971,184.544,107.565Zm5.911,15.7c-1.494-.857-2.142-4.12-1.637-8.317.121-1.033.319-2.12.56-3.23a53.243,53.243,0,0,0,6.976,1.2,53.6,53.6,0,0,0,4.57,5.493c-3.582,3.329-6.943,5.153-9.229,5.153A2.622,2.622,0,0,1,190.455,123.264Zm26.06-8.372c.516,4.2-.121,7.46-1.6,8.328a2.445,2.445,0,0,1-1.263.286c-2.274,0-5.647-1.813-9.229-5.12a51.883,51.883,0,0,0,4.537-5.482,51.3,51.3,0,0,0,6.987-1.209A30.757,30.757,0,0,1,216.515,114.893Zm4.23-7.328c-.945.407-1.978.769-3.043,1.11a52.762,52.762,0,0,0-2.472-6.691,52.024,52.024,0,0,0,2.439-6.658c1.088.341,2.12.714,3.087,1.121,3.889,1.659,6.405,3.834,6.405,5.559S224.634,105.917,220.745,107.565Z" transform="translate(-74.311 248.713)" fill="#61dafb"/>
  </g>
</svg>
