<svg xmlns="http://www.w3.org/2000/svg" width="63.091" height="56" viewBox="0 0 63.091 56">
  <g id="research" transform="translate(0.5)">
    <g id="Group_44653" data-name="Group 44653" transform="translate(0 0.947)">
      <path id="Path_10006" data-name="Path 10006" d="M12.244,151.967q-.56-1.058-1.015-2.164l-3.213,3.391a5.262,5.262,0,1,0,1.619,1.528Zm-6.966,8.789A3.054,3.054,0,1,1,8.333,157.7,3.057,3.057,0,0,1,5.279,160.757Z" transform="translate(0 -121.982)" fill="#1cbbda"/>
      <path id="Path_10006_-_Outline" data-name="Path 10006 - Outline" d="M11.4,148.9l.294.715c.291.708.625,1.421.995,2.12l.168.317-2.588,2.734a5.81,5.81,0,1,1-2.345-2.216Zm.239,2.984c-.2-.392-.39-.787-.567-1.183L8.1,153.832l-.345-.21a4.762,4.762,0,1,0,1.467,1.384l-.228-.333Zm-6.358,2.267A3.554,3.554,0,1,1,1.725,157.7,3.558,3.558,0,0,1,5.279,154.149Zm0,6.108A2.554,2.554,0,1,0,2.725,157.7,2.557,2.557,0,0,0,5.279,160.257Z" transform="translate(0 -121.982)" fill="#1cbbda"/>
      <path id="Path_10007" data-name="Path 10007" d="M201.88,18.712a5.678,5.678,0,0,0-4.749,8.8L185.9,39.362q.586,1.166,1.052,2.373l1.075-1.134h0l10.812-11.413a5.679,5.679,0,1,0,3.041-10.475Zm0,8.969a3.287,3.287,0,1,1,3.287-3.287A3.29,3.29,0,0,1,201.88,27.682Z" transform="translate(-145.471 -18.712)" fill="#1cbbda"/>
      <path id="Path_10007_-_Outline" data-name="Path 10007 - Outline" d="M201.88,18.212a6.182,6.182,0,1,1-2.952,11.608L186.77,42.654l-.285-.739c-.3-.781-.648-1.565-1.032-2.328l-.158-.314L196.5,27.441a6.178,6.178,0,0,1,5.376-9.229Zm0,11.363a5.189,5.189,0,1,0-4.331-2.343l.218.331L186.5,39.453c.22.453.428.912.622,1.373l11.634-12.281.348.221A5.165,5.165,0,0,0,201.88,29.575Zm0-8.968a3.787,3.787,0,1,1-3.787,3.787A3.791,3.791,0,0,1,201.88,20.608Zm0,6.574a2.787,2.787,0,1,0-2.787-2.787A2.79,2.79,0,0,0,201.88,27.182Z" transform="translate(-145.471 -18.712)" fill="#1cbbda"/>
    </g>
    <g id="noun-analytics-2612255" transform="translate(6.396 0)">
      <path id="Path_10036" data-name="Path 10036" d="M179.526,69.219a20.483,20.483,0,1,0,6,14.483A20.349,20.349,0,0,0,179.526,69.219Zm-27.318,1.65a18.155,18.155,0,0,1,30.735,9.815L176.585,86.9a4.149,4.149,0,0,0-5.492,1.315l-9.345-2.932c0-.027,0-.054,0-.081a4.157,4.157,0,1,0-7.765,2.06l-4.9,5.082a18.18,18.18,0,0,1,3.126-21.477Zm24.165,19.655A1.824,1.824,0,1,1,174.55,88.7,1.826,1.826,0,0,1,176.374,90.523ZM159.418,85.2a1.824,1.824,0,1,1-1.824-1.824A1.826,1.826,0,0,1,159.418,85.2Zm18.459,11.333a18.155,18.155,0,0,1-27.513-2.159l5.3-5.495a4.15,4.15,0,0,0,5.385-1.373l9.345,2.932c0,.027,0,.054,0,.081a4.157,4.157,0,1,0,7.824-1.955l4.976-4.866a18.027,18.027,0,0,1-5.315,12.834Z" transform="translate(-144.568 -63.219)" fill="#1cbbda"/>
      <path id="Path_10037" data-name="Path 10037" d="M214.83,98.773l1.1,1.261a9.646,9.646,0,0,1,9.48-1.812l.55-1.578a11.32,11.32,0,0,0-11.126,2.129Z" transform="translate(-201.753 -86.811)" fill="#1cbbda"/>
      <path id="Path_10038" data-name="Path 10038" d="M335.6,111.88l-.869,1.427a9.563,9.563,0,0,1,1.261.918l1.09-1.267a11.278,11.278,0,0,0-1.481-1.078Z" transform="translate(-309.256 -101.035)" fill="#1cbbda"/>
      <path id="Path_10039" data-name="Path 10039" d="M251.864,291.812a9.632,9.632,0,0,1-5.588-.482l-.621,1.551a11.307,11.307,0,0,0,6.554.566Z" transform="translate(-229.39 -261.926)" fill="#1cbbda"/>
      <path id="Path_10040" data-name="Path 10040" d="M113.782,42.719l-1.213,1.213-3.01-3.217a20.3,20.3,0,0,0,2.572-17.557,5.864,5.864,0,0,0-.632-1.719A20.235,20.235,0,1,0,76.242,40.856,15.368,15.368,0,0,0,77.267,42.2q.6.725,1.278,1.4a20.269,20.269,0,0,0,25.682,2.429l3.017,3.225-1.254,1.254,14.61,14.56,7.793-7.793Zm-34.056-.3a18.564,18.564,0,1,1,26.254,0A18.586,18.586,0,0,1,79.726,42.422Zm25.85,2.608a20.363,20.363,0,0,0,2.967-2.956l2.843,3.039-2.962,2.962ZM120.6,62.71l-12.243-12.2,5.43-5.43,12.244,12.2Z" transform="translate(-72.628 -9.072)" fill="#1cbbda"/>
    </g>
  </g>
</svg>
