<svg xmlns="http://www.w3.org/2000/svg" width="34.156" height="57.105" viewBox="0 0 34.156 57.105">
  <path id="rewards" d="M.533.009h11.62L22.622,19.047a2.346,2.346,0,0,0,.924.924H7.92L.533,0V.009ZM16.078,29.753l2.686,6.557,7.073.533-5.413,4.593,1.682,6.88-6.028-3.736L10.05,48.316l1.682-6.88-5.418-4.6,7.073-.534,2.691-6.552Zm0-6.795A16.078,16.078,0,1,1,0,39.031,16.078,16.078,0,0,1,16.078,22.958ZM17.5.009H31.1L25.631,14.8,17.5.009Z" transform="translate(1 0.991)" fill="none" stroke="#1cbbda" stroke-width="2" fill-rule="evenodd"/>
</svg>
