<svg xmlns="http://www.w3.org/2000/svg" width="62.316" height="53.5" viewBox="0 0 62.316 53.5">
  <g id="rnd-lab" transform="translate(-1362.25 -1992.75)">
    <path id="Path_14160" data-name="Path 14160" d="M8.806,37.391h12.74v4.033H15.031a2.022,2.022,0,1,0,0,4.033H41.093a2.022,2.022,0,1,0,0-4.033H34.577V37.391h6.515a2.275,2.275,0,0,0,.764-.143A10.822,10.822,0,0,0,44.5,39.009a11.475,11.475,0,0,0,4.784,1.043,11.682,11.682,0,0,0,1.377-.1l.778,2.122h0a2.034,2.034,0,0,0-1.472,1.922l.046,6.377a1.934,1.934,0,0,0,.115.635,6.182,6.182,0,0,0,3.295,3.481,6.885,6.885,0,0,0,2.867.625,7.007,7.007,0,0,0,2.109-.327,6.354,6.354,0,0,0,3.746-3.055,5.616,5.616,0,0,0,.319-4.622,1.947,1.947,0,0,0-.326-.571l-4.155-5.078a2.274,2.274,0,0,0-2.428-.688l-.771-2.1a10.35,10.35,0,0,0,4.259-4.251,9.365,9.365,0,0,0,.534-7.7,10.28,10.28,0,0,0-5.451-5.778V9.428a6.585,6.585,0,0,0-6.806-6.32H8.806A6.586,6.586,0,0,0,2,9.428V31.071A6.585,6.585,0,0,0,8.806,37.391ZM58.426,48.667a1.872,1.872,0,0,1-.185,1.277,2.111,2.111,0,0,1-1.249,1.018s0,0,0,0a2.269,2.269,0,0,1-1.655-.1,2.086,2.086,0,0,1-.984-.907l-.033-4.538,1.147-.365ZM30.233,41.425H25.89V37.391h4.344Zm25.23-13.411a5.628,5.628,0,0,1-.321,4.62A6.345,6.345,0,0,1,51.4,35.691a6.658,6.658,0,0,1-8.27-3.779,5.628,5.628,0,0,1,.321-4.62A6.35,6.35,0,0,1,47.2,24.235a7.041,7.041,0,0,1,2.1-.325,6.9,6.9,0,0,1,2.871.625A6.176,6.176,0,0,1,55.463,28.014ZM6.344,9.428A2.383,2.383,0,0,1,8.806,7.141h38.51A2.383,2.383,0,0,1,49.78,9.428V19.9a11.575,11.575,0,0,0-3.983.518,10.571,10.571,0,0,0-6.244,5.092,9.357,9.357,0,0,0-.536,7.7c.02.052.052.1.072.147H8.806a2.379,2.379,0,0,1-2.463-2.283Z" transform="translate(1361 1990.392)" fill="#1cbbda"/>
    <path id="Path_14160_-_Outline" data-name="Path 14160 - Outline" d="M56.289,55.858a7.587,7.587,0,0,1-3.179-.693,6.928,6.928,0,0,1-3.687-3.9,2.706,2.706,0,0,1-.161-.886L49.217,44A2.721,2.721,0,0,1,50.5,41.685l-.34-.929c-.289.027-.579.046-.875.046a12.15,12.15,0,0,1-5.1-1.111,11.21,11.21,0,0,1-2.516-1.612,2.78,2.78,0,0,1-.582.063H35.327v2.533h5.765a2.771,2.771,0,1,1,0,5.533H15.031a2.771,2.771,0,1,1,0-5.533H20.8V38.141H8.806a7.334,7.334,0,0,1-7.556-7.07V9.428a7.334,7.334,0,0,1,7.556-7.07H47.319a7.334,7.334,0,0,1,7.556,7.07V20.466a10.975,10.975,0,0,1,5.406,5.989,10.1,10.1,0,0,1-.576,8.308A11.04,11.04,0,0,1,55.7,39l.337.92q.105-.007.212-.007a3,3,0,0,1,2.31,1.071l4.154,5.077a2.7,2.7,0,0,1,.45.79,6.36,6.36,0,0,1-.362,5.229A7.1,7.1,0,0,1,58.623,55.5,7.755,7.755,0,0,1,56.289,55.858Zm-4.722-13.04a1.272,1.272,0,0,0-.85,1.166l.046,6.377a1.182,1.182,0,0,0,.07.385,5.438,5.438,0,0,0,2.9,3.054,6.1,6.1,0,0,0,2.555.557,6.255,6.255,0,0,0,1.883-.292,5.61,5.61,0,0,0,3.31-2.692,4.877,4.877,0,0,0,.278-4.011l0-.005a1.2,1.2,0,0,0-.2-.351L57.4,41.93a1.485,1.485,0,0,0-1.149-.52,1.575,1.575,0,0,0-.474.072L55.1,41.7l-1.241-3.385L54.427,38a9.606,9.606,0,0,0,3.953-3.942,8.62,8.62,0,0,0,.493-7.09,9.542,9.542,0,0,0-5.061-5.355l-.436-.2V9.428a5.835,5.835,0,0,0-6.056-5.57H8.806A5.835,5.835,0,0,0,2.75,9.428V31.071a5.835,5.835,0,0,0,6.056,5.57H22.3v5.533H15.031a1.275,1.275,0,1,0,0,2.533H41.093a1.275,1.275,0,1,0,0-2.533H33.827V36.641h7.265a1.538,1.538,0,0,0,.514-.1l.415-.147.331.291a10.058,10.058,0,0,0,2.462,1.642,10.661,10.661,0,0,0,4.473.975,11.066,11.066,0,0,0,1.288-.1l.589-.07,1.351,3.686Zm4.723,9.006a2.986,2.986,0,0,1-1.269-.28,2.823,2.823,0,0,1-1.33-1.234l-.088-.163-.038-5.275,2.158-.687,3.4,4.149.038.179A2.6,2.6,0,0,1,58.9,50.3a2.81,2.81,0,0,1-1.161,1.16v.256l-.642,0A3.031,3.031,0,0,1,56.289,51.824ZM55.1,49.741a1.369,1.369,0,0,0,.547.44l.005,0a1.5,1.5,0,0,0,.637.141,1.533,1.533,0,0,0,.4-.054l.076-.024a1.368,1.368,0,0,0,.812-.654,1.134,1.134,0,0,0,.136-.611l-2.506-3.059-.135.043ZM30.983,42.175H25.14V36.641h5.844Zm-4.344-1.5h2.844V38.141H26.64ZM49.3,36.764a7.262,7.262,0,0,1-6.88-4.593,6.372,6.372,0,0,1,.362-5.23,7.093,7.093,0,0,1,4.185-3.422,7.783,7.783,0,0,1,2.331-.36,7.612,7.612,0,0,1,3.183.693,6.92,6.92,0,0,1,3.685,3.9,6.371,6.371,0,0,1-.362,5.229,7.09,7.09,0,0,1-4.183,3.422A7.7,7.7,0,0,1,49.3,36.764Zm0-12.1a6.281,6.281,0,0,0-1.88.29,5.6,5.6,0,0,0-3.31,2.692,4.889,4.889,0,0,0-.28,4.012,5.758,5.758,0,0,0,5.472,3.61,6.205,6.205,0,0,0,1.869-.288,5.6,5.6,0,0,0,3.309-2.693,4.889,4.889,0,0,0,.28-4.012,5.431,5.431,0,0,0-2.9-3.054A6.123,6.123,0,0,0,49.3,24.66Zm-9.117,9.446H8.806a3.129,3.129,0,0,1-3.213-3.033V9.428A3.132,3.132,0,0,1,8.806,6.391h38.51A3.132,3.132,0,0,1,50.53,9.428V20.68l-.781-.032c-.158-.006-.317-.01-.473-.01a10.722,10.722,0,0,0-3.252.493,9.829,9.829,0,0,0-5.809,4.729,8.611,8.611,0,0,0-.5,7.064v0a1.3,1.3,0,0,1,.075.158ZM8.806,7.891A1.634,1.634,0,0,0,7.094,9.428V31.073A1.63,1.63,0,0,0,8.8,32.606H38.037a10.09,10.09,0,0,1,.853-7.448A11.319,11.319,0,0,1,45.571,19.7a12.17,12.17,0,0,1,3.459-.561V9.428a1.634,1.634,0,0,0-1.713-1.537Z" transform="translate(1361 1990.392)"/>
    <path id="Path_14161" data-name="Path 14161" d="M7.172,28.826h6.515a2.17,2.17,0,0,0,2.172-2.172V9.28a2.17,2.17,0,0,0-2.172-2.172H7.172A2.17,2.17,0,0,0,5,9.28V26.654A2.17,2.17,0,0,0,7.172,28.826ZM9.344,11.452h2.172V24.482H9.344Z" transform="translate(1364.516 1994.474)" fill="#1cbbda"/>
    <path id="Path_14161_-_Outline" data-name="Path 14161 - Outline" d="M13.687,29.576H7.172A2.925,2.925,0,0,1,4.25,26.654V9.28A2.925,2.925,0,0,1,7.172,6.358h6.515A2.925,2.925,0,0,1,16.609,9.28V26.654A2.925,2.925,0,0,1,13.687,29.576ZM7.172,7.858A1.423,1.423,0,0,0,5.75,9.28V26.654a1.423,1.423,0,0,0,1.422,1.422h6.515a1.423,1.423,0,0,0,1.422-1.422V9.28a1.423,1.423,0,0,0-1.422-1.422Zm5.094,17.374H8.594V10.7h3.672Zm-2.172-1.5h.672V12.2h-.672Z" transform="translate(1364.516 1994.474)"/>
    <path id="Path_14162" data-name="Path 14162" d="M13.172,26.482h6.515a2.17,2.17,0,0,0,2.172-2.172V11.28a2.17,2.17,0,0,0-2.172-2.172H13.172A2.17,2.17,0,0,0,11,11.28V24.311A2.17,2.17,0,0,0,13.172,26.482Zm2.172-13.031h2.172v8.687H15.344Z" transform="translate(1371.546 1996.818)" fill="#1cbbda"/>
    <path id="Path_14162_-_Outline" data-name="Path 14162 - Outline" d="M19.687,27.232H13.172a2.925,2.925,0,0,1-2.922-2.922V11.28a2.925,2.925,0,0,1,2.922-2.922h6.515a2.925,2.925,0,0,1,2.922,2.922V24.311A2.925,2.925,0,0,1,19.687,27.232ZM13.172,9.858A1.423,1.423,0,0,0,11.75,11.28V24.311a1.423,1.423,0,0,0,1.422,1.422h6.515a1.423,1.423,0,0,0,1.422-1.422V11.28a1.423,1.423,0,0,0-1.422-1.422Zm5.094,13.031H14.594V12.7h3.672Zm-2.172-1.5h.672V14.2h-.672Z" transform="translate(1371.546 1996.818)"/>
  </g>
</svg>
