<svg xmlns="http://www.w3.org/2000/svg" width="140.857" height="148.525" viewBox="0 0 140.857 148.525">
  <g id="scroll-slider" transform="translate(-1435.737 -732.908)">
    <g id="Group_55897" data-name="Group 55897">
      <text id="T" transform="matrix(0.971, -0.239, 0.239, 0.971, 1482.218, 759.759)" fill="#fff" font-size="24" font-family="Montserrat-SemiBold, Montserrat" font-weight="600"><tspan x="0" y="0">T</tspan></text>
      <text id="E" transform="translate(1497.297 756.834) rotate(4.494)" fill="#fff" font-size="25" font-family="Montserrat-SemiBold, Montserrat" font-weight="600"><tspan x="0" y="0">E</tspan></text>
      <text id="C" transform="translate(1513.909 757.829) rotate(24.273)" fill="#fff" font-size="25" font-family="Montserrat-SemiBold, Montserrat" font-weight="600"><tspan x="0" y="0">C</tspan></text>
      <text id="H" transform="translate(1530.718 765) rotate(46.236)" fill="#fff" font-size="25" font-family="Montserrat-SemiBold, Montserrat" font-weight="600"><tspan x="0" y="0">H</tspan></text>
      <text id="S" transform="matrix(0.397, 0.918, -0.918, 0.397, 1545.44, 779.329)" fill="#1cbbda" font-size="24" font-family="Montserrat-SemiBold, Montserrat" font-weight="600"><tspan x="0" y="0">S</tspan></text>
      <text id="T-2" data-name="T" transform="matrix(0.1, 0.995, -0.995, 0.1, 1551.823, 793.899)" fill="#1cbbda" font-size="24" font-family="Montserrat-SemiBold, Montserrat" font-weight="600"><tspan x="0" y="0">T</tspan></text>
      <text id="A" transform="translate(1552.971 807.871) rotate(102.821)" fill="#1cbbda" font-size="25" font-family="Montserrat-SemiBold, Montserrat" font-weight="600"><tspan x="0" y="0">A</tspan></text>
      <text id="U" transform="translate(1549.838 827.247) rotate(124.463)" fill="#1cbbda" font-size="24" font-family="Montserrat-SemiBold, Montserrat" font-weight="600"><tspan x="0" y="0">U</tspan></text>
      <text id="N" transform="translate(1538.061 843.036) rotate(147.06)" fill="#1cbbda" font-size="25" font-family="Montserrat-SemiBold, Montserrat" font-weight="600"><tspan x="0" y="0">N</tspan></text>
      <text id="C-2" data-name="C" transform="matrix(-0.982, 0.191, -0.191, -0.982, 1521.146, 854.012)" fill="#1cbbda" font-size="25" font-family="Montserrat-SemiBold, Montserrat" font-weight="600"><tspan x="0" y="0">C</tspan></text>
      <text id="H-2" data-name="H" transform="translate(1503.265 857.859) rotate(-169.197)" fill="#1cbbda" font-size="25" font-family="Montserrat-SemiBold, Montserrat" font-weight="600"><tspan x="0" y="0">H</tspan></text>
    </g>
    <rect id="Rectangle_20339" data-name="Rectangle 20339" width="138" height="138" transform="translate(1435.737 737.638)" fill="none"/>
  </g>
</svg>
