<svg xmlns="http://www.w3.org/2000/svg" width="90.648" height="88.308" viewBox="0 0 90.648 88.308">
  <path id="scrum-master" d="M74.349,87.287l-.378-1.308h-12.2l-.33,1.145-.389-1.145H20.984l.119-1.107c.7-6.522,3.122-11.2,7.393-14.307,3.725-2.708,8.3-3.867,12.733-4.989,4.571-1.157,8.888-2.25,11.845-4.915L54.2,59.645l7.082,20.81,2.8-9.687-1.551-1.683-.04-.059c-1.062-1.543-1.274-2.977-.632-4.262l0,0a3.738,3.738,0,0,1,2.032-1.869,6.585,6.585,0,0,1,2.373-.349c.27,0,.541.007.8.013s.513.012.762.012c.224,0,.455,0,.7-.01s.514-.011.777-.011c1.2,0,4.007,0,4.746,2.971A4.359,4.359,0,0,1,73.27,69l-.047.073-1.562,1.695,2.75,9.523,6.371-20.68,1.164,1.049c2.916,2.629,6.88,3.835,11.078,5.113,4.08,1.242,8.3,2.526,11.708,5.241a16.343,16.343,0,0,1,4.423,5.4,23.758,23.758,0,0,1,2.358,8.457l.12,1.108H74.752Zm1.019-3.308h34.016c-1.686-11.649-9.1-13.906-16.942-16.291-3.726-1.134-7.564-2.3-10.646-4.573Zm-13.019,0H73.394L69.428,70.241l2.2-2.393A2.445,2.445,0,0,0,72.113,66c-.273-1.1-.955-1.452-2.8-1.452-.242,0-.492.005-.735.01s-.5.01-.742.01c-.273,0-.546-.007-.81-.013s-.51-.012-.756-.012c-1.533,0-2.194.282-2.619,1.118-.186.372-.337,1,.453,2.175l2.216,2.4Zm-39.118,0h37.14l-7.112-20.9a19.944,19.944,0,0,1-4.739,2.454,65.5,65.5,0,0,1-6.8,1.982C33.128,69.691,25,71.75,23.232,83.979ZM67.617,57.914h-.225a15.142,15.142,0,0,1-10.47-4.228l0,0q-.111-.1-.221-.205h0a39.465,39.465,0,0,1-6.077-7.971l-.01-.016-.037-.058.06-.038-.06.036-4.242-6.75a13.565,13.565,0,0,1-2.606-6.793c0-.016,0-.032,0-.047a5.98,5.98,0,0,1,.534-2.716l0-.008a5.371,5.371,0,0,1,1.883-2.194l.019-.013a7.065,7.065,0,0,1,.615-.351,105.067,105.067,0,0,1-.126-11.378l0-.052a17.873,17.873,0,0,1,.552-2.931A15.481,15.481,0,0,1,50.133,6.6a19.669,19.669,0,0,1,4.689-4.15l.008-.005A20.678,20.678,0,0,1,58.9.468a26.267,26.267,0,0,1,8.822-1.489A26.851,26.851,0,0,1,77.07.629a19.815,19.815,0,0,1,7.707,5.035,15.83,15.83,0,0,1,3.043,4.792,20.351,20.351,0,0,1,1.39,6.253l0,.048-.264,10.2a4.261,4.261,0,0,1,2.057,2.012c.867,1.739.58,4.123-.9,7.5l-.021.045-.1.2-4.873,8.014q-.187.307-.38.622A38.8,38.8,0,0,1,78.7,53.42l-.006.006-.092.087h0A15.4,15.4,0,0,1,67.617,57.914Zm-.2-2h.1v0h.031a16.467,16.467,0,0,0,9.693-3.86l.075-.071.006-.006A41.365,41.365,0,0,0,83.027,44.3l.373-.611,4.817-8.081a11.431,11.431,0,0,0,1.014-4.033,17.293,17.293,0,0,0-3.3-.408h-.067a4.923,4.923,0,0,1-1.231.151,6.814,6.814,0,0,1-1.8-.263l-.95-.263,1.834-7.033c-.344.015-.687.023-1.031.022-5.387,0-9.947-1.832-13.971-3.449-3.238-1.3-6.3-2.529-9.186-2.529-2.717,0-5.133,1.081-7.569,3.393l1.486,9.225-.936.194a10.844,10.844,0,0,1-2.013.114h-.482c-1.135,0-3.5,0-4.145.66a.5.5,0,0,0-.142.406v0a9.289,9.289,0,0,0,1.308,3.886L48.375,37.6,52.3,44.423l.011.017a42.322,42.322,0,0,0,5.755,7.58h0l.2.186-.391.429.393-.428-.017.019.017-.019-1.348,1.477.088-.1L57,53.594l.593-.647-.059.064.734-.8A16.32,16.32,0,0,0,67.413,55.913ZM85.931,29.166a19.354,19.354,0,0,1,2.644.243q.219.035.414.07a2.5,2.5,0,0,0-1.349-.891l-.726-.223.3-11.562a15.445,15.445,0,0,0-3.9-9.781C79.815,3.237,73.989.979,67.725.979a24.252,24.252,0,0,0-8.147,1.372A18.686,18.686,0,0,0,55.9,4.139a15.415,15.415,0,0,0-6.763,8.592,15.866,15.866,0,0,0-.487,2.574,103.161,103.161,0,0,0,.174,11.813l.055.752-.708.26a4.849,4.849,0,0,0-.918.458,3.483,3.483,0,0,0-.412.327,19.536,19.536,0,0,1,3.172-.186h.482c.192,0,.421,0,.65,0L49.817,20.5l.362-.362a15.64,15.64,0,0,1,4.68-3.346,11.259,11.259,0,0,1,4.666-.986c3.276,0,6.509,1.3,9.931,2.674,4.044,1.625,8.227,3.3,13.227,3.3a21.965,21.965,0,0,0,2.246-.116l1.434-.148-2.031,7.788a3.066,3.066,0,0,0,1.1-.095l.112-.033.117-.006C85.744,29.168,85.834,29.166,85.931,29.166Z" transform="translate(-20.984 1.021)" fill="#1cbbda"/>
</svg>
