<svg xmlns="http://www.w3.org/2000/svg" width="80" height="39.01" viewBox="0 0 80 39.01">
  <path id="sent-mail" d="M209,183.859H159.544a6.044,6.044,0,0,0-5.878,4.681h2.967v.025l19.876,15.615-19.876,14.07h-2.952a6.045,6.045,0,0,0,5.862,4.619H209a6.043,6.043,0,0,0,6.037-6.037V189.9A6.042,6.042,0,0,0,209,183.859Zm-50.192,2.877a3.263,3.263,0,0,1,.731-.089H209a3.112,3.112,0,0,1,.714.086l-25.63,19.857ZM209,220.082H159.544a3.212,3.212,0,0,1-.592-.06l19.842-14.047,4.425,3.477a1.4,1.4,0,0,0,1.715.005l4.648-3.6,20.012,14.167a3.1,3.1,0,0,1-.591.061Zm3.25-3.25a3.214,3.214,0,0,1-.339,1.418l-20.028-14.179,20.058-15.541a3.2,3.2,0,0,1,.31,1.365v26.937Zm-55.271-21.479H143.167a1.393,1.393,0,1,1,0-2.786h13.816a1.393,1.393,0,1,1,0,2.786Zm0,9.171H136.433a1.392,1.392,0,1,1,0-2.784h20.549a1.392,1.392,0,1,1,0,2.784Zm0,9.173H143.167a1.393,1.393,0,1,1,0-2.786h13.816a1.393,1.393,0,1,1,0,2.786Z" transform="translate(-135.039 -183.859)" fill="#1cbbda"/>
</svg>
