<svg xmlns="http://www.w3.org/2000/svg" xmlns:xlink="http://www.w3.org/1999/xlink" width="86" height="86" viewBox="0 0 86 86">
  <defs>
    <filter id="Ellipse_480" x="0" y="0" width="86" height="86" filterUnits="userSpaceOnUse">
      <feOffset dx="2" dy="-3" input="SourceAlpha"/>
      <feGaussianBlur stdDeviation="5" result="blur"/>
      <feFlood flood-opacity="0.702"/>
      <feComposite operator="in" in2="blur"/>
    </filter>
    <filter id="Ellipse_480-2" x="0" y="0" width="86" height="86" filterUnits="userSpaceOnUse">
      <feOffset dx="1" dy="-1" input="SourceAlpha"/>
      <feGaussianBlur stdDeviation="5" result="blur-2"/>
      <feFlood flood-color="#0d0d0d" result="color"/>
      <feComposite operator="out" in="SourceGraphic" in2="blur-2"/>
      <feComposite operator="in" in="color"/>
      <feComposite operator="in" in2="SourceGraphic"/>
    </filter>
    <filter id="Path_17628" x="35.232" y="36.232" width="13.031" height="20.561" filterUnits="userSpaceOnUse">
      <feOffset dx="2" dy="1" input="SourceAlpha"/>
      <feGaussianBlur result="blur-3"/>
      <feFlood/>
      <feComposite operator="in" in2="blur-3"/>
      <feComposite in="SourceGraphic"/>
    </filter>
  </defs>
  <g id="right-arrow" transform="translate(-1591 -1528)">
    <g data-type="innerShadowGroup">
      <g transform="matrix(1, 0, 0, 1, 1591, 1528)" filter="url(#Ellipse_480)">
        <g id="Ellipse_480-3" data-name="Ellipse 480" transform="translate(13 18)" fill="#18191b" stroke="#333" stroke-width="0.5">
          <circle cx="28" cy="28" r="28" stroke="none"/>
          <circle cx="28" cy="28" r="27.75" fill="none"/>
        </g>
      </g>
      <circle id="Ellipse_480-4" data-name="Ellipse 480" cx="28" cy="28" r="28" transform="translate(1604 1546)" fill="#18191b"/>
      <g transform="matrix(1, 0, 0, 1, 1591, 1528)" filter="url(#Ellipse_480-2)">
        <circle id="Ellipse_480-5" data-name="Ellipse 480" cx="28" cy="28" r="28" transform="translate(13 18)" fill="#fff"/>
      </g>
      <g id="Ellipse_480-6" data-name="Ellipse 480" transform="translate(1604 1546)" fill="none" stroke="#333" stroke-width="0.5">
        <circle cx="28" cy="28" r="28" stroke="none"/>
        <circle cx="28" cy="28" r="27.75" fill="none"/>
      </g>
    </g>
    <g id="Icon_feather-arrow-right" data-name="Icon feather-arrow-right" transform="translate(1613.479 1554.579)">
      <g transform="matrix(1, 0, 0, 1, -22.48, -26.58)" filter="url(#Path_17628)">
        <path id="Path_17628-2" data-name="Path 17628" d="M18,7.5l8.013,8.013L18,23.525" transform="translate(19 30.5)" fill="none" stroke="#1cbbda" stroke-linecap="square" stroke-linejoin="round" stroke-width="2.5"/>
      </g>
    </g>
  </g>
</svg>
