<svg xmlns="http://www.w3.org/2000/svg" xmlns:xlink="http://www.w3.org/1999/xlink" width="105.003" height="99" viewBox="0 0 105.003 99">
  <defs>
    <clipPath id="clip-path">
      <path id="Subtraction_7" data-name="Subtraction 7" d="M15653,1408h-105v-30h79l-4-18.459,4-21.539h-79v-29h105v99Z" transform="translate(-15442 -1205)" fill="#fff"/>
    </clipPath>
  </defs>
  <g id="Group_55816" data-name="Group 55816" transform="translate(-105.997 -104.001)">
    <g id="Mask_Group_54515" data-name="Mask Group 54515" clip-path="url(#clip-path)">
      <g id="Group_55885" data-name="Group 55885">
        <path id="Ellipse_7" data-name="Ellipse 7" d="M25.5-1A26.507,26.507,0,0,1,35.815,49.917,26.507,26.507,0,0,1,15.185,1.083,26.335,26.335,0,0,1,25.5-1Zm0,51A24.5,24.5,0,1,0,1,25.5,24.528,24.528,0,0,0,25.5,50Z" transform="translate(134 128)" fill="#1cbbda"/>
        <path id="Path_23115" data-name="Path 23115" d="M75.806,15.834l-.643-.319a40.858,40.858,0,0,0-8.674-2.9l-.766-.184V1.878a.871.871,0,0,0-.87-.87H46.05a.768.768,0,0,0-.109,0,.867.867,0,0,0-.663.86V12.426l-.766.184a40.882,40.882,0,0,0-8.675,2.9l-.643.319L28.07,8.711a.87.87,0,0,0-1.252,0L13.689,21.84a.868.868,0,0,0-.028,1.142l.01.012,7.256,9.052-.32.585a31.844,31.844,0,0,0-2.778,6.918l-.2.732H6.871a.871.871,0,0,0-.871.87v18.7a.872.872,0,0,0,.871.871h10.55l.184.766A41.224,41.224,0,0,0,20.57,70.1l.317.643-7.19,7.19a.874.874,0,0,0,.023,1.2l13.1,13.1a.87.87,0,0,0,1.252,0l.011-.012,7.112-7.112.643.319A41.915,41.915,0,0,0,44.512,88.4l.766.184V99.129a.872.872,0,0,0,.871.871h18.7a.871.871,0,0,0,.87-.871V88.581l.766-.184a41.969,41.969,0,0,0,8.675-2.962l.643-.319,7.123,7.123a.87.87,0,0,0,1.252,0l.011-.012L97.282,79.139a.874.874,0,0,0,0-1.222l-7.166-7.166.316-.642A41.407,41.407,0,0,0,93.4,61.491l.184-.766h10.548a.872.872,0,0,0,.871-.871v-18.7a.871.871,0,0,0-.871-.87H93.374l-.2-.732A31.789,31.789,0,0,0,90.4,32.634l-.32-.585,7.036-8.778v-.009l.23-.279a.868.868,0,0,0-.056-1.171L85.9,10.428v.057L84.181,8.711a.87.87,0,0,0-1.252,0l-.011.012-7.112,7.111ZM48.018,2.749H63.98V13.1a.872.872,0,0,0,.65.843c.434.108.873.215,1.316.324,3.5.856,7.119,1.741,9.7,3.292a.872.872,0,0,0,1.06-.137l6.846-6.846L95.474,22.492l-6.984,8.76a.865.865,0,0,0-.046.967,28.959,28.959,0,0,1,3.621,9.1l.02.081a.867.867,0,0,0,.826.623h10.347V58.985H92.907a.87.87,0,0,0-.843.65q-.15.6-.3,1.215c-.861,3.511-1.752,7.142-3.319,9.749l-.008.014a.869.869,0,0,0,.1,1.054l6.83,6.895L83.556,90.374,76.712,83.53a.872.872,0,0,0-1.063-.139c-2.687,1.614-6.473,2.55-10.135,3.456l-.883.219a.869.869,0,0,0-.649.842V98.259H47.02V87.907a.869.869,0,0,0-.649-.842l-.877-.217C41.83,85.942,38.041,85,35.352,83.39a.87.87,0,0,0-1.058.137l-6.847,6.847L15.631,78.561l6.823-6.889a.869.869,0,0,0,.109-1.06l-.008-.014c-1.568-2.607-2.458-6.238-3.32-9.749q-.15-.612-.3-1.214a.869.869,0,0,0-.842-.65H7.742V42.023H18.089a.866.866,0,0,0,.84-.68l0-.023a28.972,28.972,0,0,1,3.477-8.859l.144-.24a.865.865,0,0,0-.049-.972l-6.979-8.755L27.446,10.576l5.137,5.137V15.7l1.71,1.724a.87.87,0,0,0,1.058.136c2.582-1.551,6.2-2.436,9.7-3.291l1.321-.325a.872.872,0,0,0,.649-.843V4.749h-.446l.51-1.353.936.17,0-.817Z" transform="translate(104 102.994)" fill="#1cbbda"/>
      </g>
    </g>
  </g>
</svg>
