<svg id="left-arrow" xmlns="http://www.w3.org/2000/svg" xmlns:xlink="http://www.w3.org/1999/xlink" width="150" height="150" viewBox="0 0 150 150">
  <defs>
    <filter id="Ellipse_480" x="0" y="0" width="150" height="150" filterUnits="userSpaceOnUse">
      <feOffset dx="1" dy="-1" input="SourceAlpha"/>
      <feGaussianBlur stdDeviation="5" result="blur"/>
      <feFlood flood-color="#0d0d0d" result="color"/>
      <feComposite operator="out" in="SourceGraphic" in2="blur"/>
      <feComposite operator="in" in="color"/>
      <feComposite operator="in" in2="SourceGraphic"/>
    </filter>
    <filter id="Path_17628" x="59.752" y="47.208" width="34.327" height="56.653" filterUnits="userSpaceOnUse">
      <feOffset dx="2" dy="1" input="SourceAlpha"/>
      <feGaussianBlur result="blur-2"/>
      <feFlood/>
      <feComposite operator="in" in2="blur-2"/>
      <feComposite in="SourceGraphic"/>
    </filter>
  </defs>
  <g data-type="innerShadowGroup">
    <g id="Ellipse_480-2" data-name="Ellipse 480" fill="#18191b">
      <path d="M75,0a74.765,74.765,0,1,0,29.193,5.894A74.764,74.764,0,0,0,75,0Z" stroke="none"/>
      <path d="M 75 149.5 C 72.48558044433594 149.5 69.989990234375 149.3768920898438 67.5174560546875 149.1315307617188 C 65.04491424560547 148.8861694335938 62.59542846679688 148.5185546875 60.17322540283203 148.0295562744141 C 57.75102233886719 147.5405578613281 55.35611724853516 146.9301452636719 52.99273681640625 146.1992034912109 C 50.62934875488281 145.46826171875 48.2974853515625 144.6167907714844 46.00138092041016 143.6456146240234 C 44.89779663085938 143.1788330078125 43.80400848388672 142.684326171875 42.72186279296875 142.1630706787109 C 41.63971710205078 141.6418151855469 40.5692138671875 141.0938110351562 39.51219177246094 140.5200805664062 C 38.45516967773438 139.9463500976562 37.41163635253906 139.3468780517578 36.38343811035156 138.7226715087891 C 35.35523223876953 138.0984649658203 34.34236145019531 137.4495239257812 33.3466796875 136.77685546875 C 32.36042785644531 136.1105651855469 31.38888549804688 135.4195404052734 30.43365478515625 134.7051086425781 C 29.47842407226562 133.9906921386719 28.53950500488281 133.2528686523438 27.61851501464844 132.4929809570312 C 26.69752502441406 131.7330932617188 25.79445648193359 130.9511413574219 24.91091918945312 130.1484375 C 24.02738952636719 129.3457489013672 23.16339111328125 128.5223083496094 22.32054138183594 127.6794586181641 C 21.47769165039062 126.8366088867188 20.65425109863281 125.9726104736328 19.8515625 125.0890808105469 C 19.04885864257812 124.2055435180664 18.26690673828125 123.3024749755859 17.50701904296875 122.3814849853516 C 16.74713134765625 121.4604949951172 16.00930786132812 120.5215759277344 15.29489135742188 119.5663452148438 C 14.58045959472656 118.6111145019531 13.88943481445312 117.6395721435547 13.22314453125 116.6533203125 C 12.55047607421875 115.6576385498047 11.90153503417969 114.6447677612305 11.27732849121094 113.6165618896484 C 10.65312194824219 112.5883636474609 10.05364990234375 111.5448303222656 9.47991943359375 110.4878082275391 C 8.90618896484375 109.4307861328125 8.358184814453125 108.3602828979492 7.836929321289062 107.2781372070312 C 7.315673828125 106.1959915161133 6.8211669921875 105.1022033691406 6.354385375976562 103.9986190795898 C 5.383209228515625 101.7025146484375 4.53173828125 99.37065124511719 3.800796508789062 97.00726318359375 C 3.069854736328125 94.64388275146484 2.459442138671875 92.24897766113281 1.970443725585938 89.82677459716797 C 1.4814453125 87.40457153320312 1.11383056640625 84.95508575439453 0.86846923828125 82.4825439453125 C 0.62310791015625 80.010009765625 0.5 77.51441955566406 0.5 75 C 0.5 72.48558044433594 0.62310791015625 69.989990234375 0.86846923828125 67.51744842529297 C 1.11383056640625 65.04490661621094 1.4814453125 62.59542083740234 1.970443725585938 60.17322158813477 C 2.459442138671875 57.75102233886719 3.069854736328125 55.35611724853516 3.800796508789062 52.99273300170898 C 4.53173828125 50.62934875488281 5.383209228515625 48.2974853515625 6.354385375976562 46.00138092041016 C 6.8211669921875 44.89780044555664 7.315673828125 43.80401229858398 7.836929321289062 42.72186279296875 C 8.358184814453125 41.63971710205078 8.90618896484375 40.56920623779297 9.47991943359375 39.51218414306641 C 10.05364990234375 38.45516204833984 10.65312194824219 37.41162872314453 11.27732849121094 36.38343048095703 C 11.90153503417969 35.35523223876953 12.55047607421875 34.34236526489258 13.22314453125 33.3466796875 C 13.88943481445312 32.36042785644531 14.58045959472656 31.38888168334961 15.29489135742188 30.43365097045898 C 16.00930786132812 29.47842025756836 16.74713134765625 28.53950309753418 17.50701904296875 27.61851119995117 C 18.26690673828125 26.69751739501953 19.04885864257812 25.7944507598877 19.8515625 24.91091918945312 C 20.65425109863281 24.02738761901855 21.47769165039062 23.16339111328125 22.32054138183594 22.3205394744873 C 23.16339111328125 21.47768974304199 24.02738952636719 20.65425109863281 24.91091918945312 19.85155487060547 C 25.79445648193359 19.04885864257812 26.69752502441406 18.26690292358398 27.61851501464844 17.50701522827148 C 28.53950500488281 16.74712753295898 29.47842407226562 16.00930786132812 30.43365478515625 15.29488658905029 C 31.38888549804688 14.58046531677246 32.36042785644531 13.88944053649902 33.3466796875 13.22313976287842 C 34.34236145019531 12.55047035217285 35.35523223876953 11.90153121948242 36.38343811035156 11.2773265838623 C 37.41163635253906 10.65312194824219 38.45516967773438 10.05365180969238 39.51219177246094 9.479917526245117 C 40.5692138671875 8.906184196472168 41.63971710205078 8.358187675476074 42.72186279296875 7.836930274963379 C 43.80400848388672 7.315672874450684 44.89779663085938 6.821155548095703 46.00138092041016 6.354380130767822 C 48.2974853515625 5.383210182189941 50.62934875488281 4.531726360321045 52.99273681640625 3.80078387260437 C 55.35611724853516 3.069841384887695 57.75102233886719 2.459439992904663 60.17322540283203 1.9704350233078 C 62.59542846679688 1.481430053710938 65.04491424560547 1.113821268081665 67.5174560546875 0.8684637546539307 C 69.989990234375 0.6231062412261963 72.48558044433594 0.5 75 0.5 C 77.51441955566406 0.5 80.010009765625 0.6231062412261963 82.48255157470703 0.8684637546539307 C 84.95509338378906 1.113821268081665 87.40457916259766 1.481430053710938 89.8267822265625 1.97043514251709 C 92.24897766113281 2.459440231323242 94.64388275146484 3.069841384887695 97.00726318359375 3.80078387260437 C 99.37065124511719 4.531726360321045 101.7025146484375 5.383210182189941 103.9986190795898 6.354380130767822 C 105.1022033691406 6.821155548095703 106.1959838867188 7.315672874450684 107.2781372070312 7.836930274963379 C 108.3602828979492 8.358187675476074 109.430793762207 8.906184196472168 110.4878158569336 9.479917526245117 C 111.5448379516602 10.05365180969238 112.5883712768555 10.65312194824219 113.616569519043 11.2773265838623 C 114.6447677612305 11.90153121948242 115.6576385498047 12.55047035217285 116.6533203125 13.22313976287842 C 117.6395721435547 13.88944053649902 118.6111145019531 14.58046531677246 119.5663452148438 15.29488658905029 C 120.5215759277344 16.00930786132812 121.4604949951172 16.74712753295898 122.3814849853516 17.50701522827148 C 123.3024826049805 18.26690292358398 124.2055511474609 19.04885864257812 125.0890808105469 19.85155487060547 C 125.9726104736328 20.65425109863281 126.8366088867188 21.47768974304199 127.6794586181641 22.3205394744873 C 128.5223083496094 23.16339111328125 129.3457489013672 24.02738761901855 130.1484375 24.91091918945312 C 130.9511413574219 25.7944507598877 131.7330932617188 26.69751739501953 132.4929809570312 27.61851119995117 C 133.2528686523438 28.53950309753418 133.9906921386719 29.47842025756836 134.7051086425781 30.43365097045898 C 135.4195404052734 31.38888168334961 136.1105651855469 32.36042785644531 136.77685546875 33.3466796875 C 137.4495239257812 34.34236526489258 138.0984649658203 35.35523223876953 138.7226715087891 36.38343048095703 C 139.3468780517578 37.41162872314453 139.9463500976562 38.45516204833984 140.5200805664062 39.51218414306641 C 141.0938110351562 40.56920623779297 141.6418151855469 41.63971710205078 142.1630706787109 42.72186279296875 C 142.684326171875 43.80401229858398 143.1788482666016 44.89780044555664 143.6456146240234 46.00138092041016 C 144.6167907714844 48.2974853515625 145.4682769775391 50.62934875488281 146.19921875 52.99273300170898 C 146.9301605224609 55.35611724853516 147.5405578613281 57.75102233886719 148.0295715332031 60.17322158813477 C 148.5185699462891 62.59542083740234 148.8861846923828 65.04490661621094 149.1315307617188 67.51744842529297 C 149.3768920898438 69.989990234375 149.5 72.48558044433594 149.5 75 C 149.5 77.51441955566406 149.3768920898438 80.010009765625 149.1315307617188 82.4825439453125 C 148.8861846923828 84.95508575439453 148.5185699462891 87.40457153320312 148.0295715332031 89.82677459716797 C 147.5405578613281 92.24897766113281 146.9301605224609 94.64388275146484 146.19921875 97.00726318359375 C 145.4682769775391 99.37065124511719 144.6167907714844 101.7025146484375 143.6456146240234 103.9986190795898 C 143.1788482666016 105.1022033691406 142.684326171875 106.1959915161133 142.1630706787109 107.2781372070312 C 141.6418151855469 108.3602828979492 141.0938110351562 109.4307861328125 140.5200805664062 110.4878082275391 C 139.9463500976562 111.5448303222656 139.3468780517578 112.5883636474609 138.7226715087891 113.6165618896484 C 138.0984649658203 114.6447677612305 137.4495239257812 115.6576385498047 136.77685546875 116.6533203125 C 136.1105651855469 117.6395721435547 135.4195404052734 118.6111145019531 134.7051086425781 119.5663452148438 C 133.9906921386719 120.5215759277344 133.2528686523438 121.4604949951172 132.4929809570312 122.3814849853516 C 131.7330932617188 123.3024749755859 130.9511413574219 124.2055435180664 130.1484375 125.0890808105469 C 129.3457489013672 125.9726104736328 128.5223083496094 126.8366088867188 127.6794586181641 127.6794586181641 C 126.8366088867188 128.5223083496094 125.9726104736328 129.3457489013672 125.0890808105469 130.1484375 C 124.2055511474609 130.9511413574219 123.3024826049805 131.7330932617188 122.3814849853516 132.4929809570312 C 121.4604949951172 133.2528686523438 120.5215759277344 133.9906921386719 119.5663452148438 134.7051086425781 C 118.6111145019531 135.4195404052734 117.6395721435547 136.1105651855469 116.6533203125 136.77685546875 C 115.6576385498047 137.4495239257812 114.6447677612305 138.0984649658203 113.616569519043 138.7226715087891 C 112.5883712768555 139.3468780517578 111.5448379516602 139.9463500976562 110.4878158569336 140.5200805664062 C 109.430793762207 141.0938110351562 108.3602828979492 141.6418151855469 107.2781372070312 142.1630706787109 C 106.1959838867188 142.684326171875 105.1022033691406 143.1788330078125 103.9986190795898 143.6456146240234 C 101.7025146484375 144.6167907714844 99.37065124511719 145.46826171875 97.00726318359375 146.1992034912109 C 94.64388275146484 146.9301452636719 92.24897766113281 147.5405578613281 89.8267822265625 148.0295562744141 C 87.40457916259766 148.5185546875 84.95509338378906 148.8861694335938 82.48255157470703 149.1315307617188 C 80.010009765625 149.3768920898438 77.51441955566406 149.5 75 149.5 M 75 150 C 85.35533905029297 150 95.22050476074219 147.9013366699219 104.1933822631836 144.1061401367188 C 113.166259765625 140.3109283447266 121.2468414306641 134.8191833496094 128.0330047607422 128.0330200195312 C 134.8191680908203 121.2468490600586 140.3109283447266 113.166259765625 144.1061248779297 104.1933822631836 C 147.9013366699219 95.22050476074219 150 85.35533905029297 150 75 C 150 64.64466094970703 147.9013366699219 54.77949142456055 144.1061248779297 45.80661773681641 C 140.3109283447266 36.833740234375 134.8191680908203 28.7531566619873 128.0330047607422 21.96699142456055 C 121.2468414306641 15.18082618713379 113.166259765625 9.689078330993652 104.1933822631836 5.893871784210205 C 95.22050476074219 2.098664999008179 85.35533905029297 7.421889031090576e-16 75 8.610791357999408e-16 C 64.64466094970703 9.79969368490824e-16 54.77949523925781 2.098664999008179 45.80661773681641 5.893871307373047 C 36.833740234375 9.689077377319336 28.75315093994141 15.18082618713379 21.96697998046875 21.96699142456055 C 15.18081665039062 28.7531566619873 9.689071655273438 36.833740234375 5.89385986328125 45.80661773681641 C 2.098663330078125 54.77949142456055 0 64.64466094970703 0 75 C 0 85.35533905029297 2.098663330078125 95.22050476074219 5.89385986328125 104.1933822631836 C 9.689071655273438 113.166259765625 15.18081665039062 121.2468490600586 21.96697998046875 128.0330200195312 C 28.75315093994141 134.8191833496094 36.833740234375 140.3109283447266 45.80661773681641 144.1061401367188 C 54.77949523925781 147.9013366699219 64.64466094970703 150 75 150 Z" stroke="none"/>
    </g>
    <g transform="matrix(1, 0, 0, 1, 0, 0)" filter="url(#Ellipse_480)">
      <g id="Ellipse_480-3" data-name="Ellipse 480" fill="#fff">
        <path d="M75,0a74.765,74.765,0,1,0,29.193,5.894A74.764,74.764,0,0,0,75,0Z" stroke="none"/>
        <path d="M 75 149.5 C 72.48558044433594 149.5 69.989990234375 149.3768920898438 67.5174560546875 149.1315307617188 C 65.04491424560547 148.8861694335938 62.59542846679688 148.5185546875 60.17322540283203 148.0295562744141 C 57.75102233886719 147.5405578613281 55.35611724853516 146.9301452636719 52.99273681640625 146.1992034912109 C 50.62934875488281 145.46826171875 48.2974853515625 144.6167907714844 46.00138092041016 143.6456146240234 C 44.89779663085938 143.1788330078125 43.80400848388672 142.684326171875 42.72186279296875 142.1630706787109 C 41.63971710205078 141.6418151855469 40.5692138671875 141.0938110351562 39.51219177246094 140.5200805664062 C 38.45516967773438 139.9463500976562 37.41163635253906 139.3468780517578 36.38343811035156 138.7226715087891 C 35.35523223876953 138.0984649658203 34.34236145019531 137.4495239257812 33.3466796875 136.77685546875 C 32.36042785644531 136.1105651855469 31.38888549804688 135.4195404052734 30.43365478515625 134.7051086425781 C 29.47842407226562 133.9906921386719 28.53950500488281 133.2528686523438 27.61851501464844 132.4929809570312 C 26.69752502441406 131.7330932617188 25.79445648193359 130.9511413574219 24.91091918945312 130.1484375 C 24.02738952636719 129.3457489013672 23.16339111328125 128.5223083496094 22.32054138183594 127.6794586181641 C 21.47769165039062 126.8366088867188 20.65425109863281 125.9726104736328 19.8515625 125.0890808105469 C 19.04885864257812 124.2055435180664 18.26690673828125 123.3024749755859 17.50701904296875 122.3814849853516 C 16.74713134765625 121.4604949951172 16.00930786132812 120.5215759277344 15.29489135742188 119.5663452148438 C 14.58045959472656 118.6111145019531 13.88943481445312 117.6395721435547 13.22314453125 116.6533203125 C 12.55047607421875 115.6576385498047 11.90153503417969 114.6447677612305 11.27732849121094 113.6165618896484 C 10.65312194824219 112.5883636474609 10.05364990234375 111.5448303222656 9.47991943359375 110.4878082275391 C 8.90618896484375 109.4307861328125 8.358184814453125 108.3602828979492 7.836929321289062 107.2781372070312 C 7.315673828125 106.1959915161133 6.8211669921875 105.1022033691406 6.354385375976562 103.9986190795898 C 5.383209228515625 101.7025146484375 4.53173828125 99.37065124511719 3.800796508789062 97.00726318359375 C 3.069854736328125 94.64388275146484 2.459442138671875 92.24897766113281 1.970443725585938 89.82677459716797 C 1.4814453125 87.40457153320312 1.11383056640625 84.95508575439453 0.86846923828125 82.4825439453125 C 0.62310791015625 80.010009765625 0.5 77.51441955566406 0.5 75 C 0.5 72.48558044433594 0.62310791015625 69.989990234375 0.86846923828125 67.51744842529297 C 1.11383056640625 65.04490661621094 1.4814453125 62.59542083740234 1.970443725585938 60.17322158813477 C 2.459442138671875 57.75102233886719 3.069854736328125 55.35611724853516 3.800796508789062 52.99273300170898 C 4.53173828125 50.62934875488281 5.383209228515625 48.2974853515625 6.354385375976562 46.00138092041016 C 6.8211669921875 44.89780044555664 7.315673828125 43.80401229858398 7.836929321289062 42.72186279296875 C 8.358184814453125 41.63971710205078 8.90618896484375 40.56920623779297 9.47991943359375 39.51218414306641 C 10.05364990234375 38.45516204833984 10.65312194824219 37.41162872314453 11.27732849121094 36.38343048095703 C 11.90153503417969 35.35523223876953 12.55047607421875 34.34236526489258 13.22314453125 33.3466796875 C 13.88943481445312 32.36042785644531 14.58045959472656 31.38888168334961 15.29489135742188 30.43365097045898 C 16.00930786132812 29.47842025756836 16.74713134765625 28.53950309753418 17.50701904296875 27.61851119995117 C 18.26690673828125 26.69751739501953 19.04885864257812 25.7944507598877 19.8515625 24.91091918945312 C 20.65425109863281 24.02738761901855 21.47769165039062 23.16339111328125 22.32054138183594 22.3205394744873 C 23.16339111328125 21.47768974304199 24.02738952636719 20.65425109863281 24.91091918945312 19.85155487060547 C 25.79445648193359 19.04885864257812 26.69752502441406 18.26690292358398 27.61851501464844 17.50701522827148 C 28.53950500488281 16.74712753295898 29.47842407226562 16.00930786132812 30.43365478515625 15.29488658905029 C 31.38888549804688 14.58046531677246 32.36042785644531 13.88944053649902 33.3466796875 13.22313976287842 C 34.34236145019531 12.55047035217285 35.35523223876953 11.90153121948242 36.38343811035156 11.2773265838623 C 37.41163635253906 10.65312194824219 38.45516967773438 10.05365180969238 39.51219177246094 9.479917526245117 C 40.5692138671875 8.906184196472168 41.63971710205078 8.358187675476074 42.72186279296875 7.836930274963379 C 43.80400848388672 7.315672874450684 44.89779663085938 6.821155548095703 46.00138092041016 6.354380130767822 C 48.2974853515625 5.383210182189941 50.62934875488281 4.531726360321045 52.99273681640625 3.80078387260437 C 55.35611724853516 3.069841384887695 57.75102233886719 2.459439992904663 60.17322540283203 1.9704350233078 C 62.59542846679688 1.481430053710938 65.04491424560547 1.113821268081665 67.5174560546875 0.8684637546539307 C 69.989990234375 0.6231062412261963 72.48558044433594 0.5 75 0.5 C 77.51441955566406 0.5 80.010009765625 0.6231062412261963 82.48255157470703 0.8684637546539307 C 84.95509338378906 1.113821268081665 87.40457916259766 1.481430053710938 89.8267822265625 1.97043514251709 C 92.24897766113281 2.459440231323242 94.64388275146484 3.069841384887695 97.00726318359375 3.80078387260437 C 99.37065124511719 4.531726360321045 101.7025146484375 5.383210182189941 103.9986190795898 6.354380130767822 C 105.1022033691406 6.821155548095703 106.1959838867188 7.315672874450684 107.2781372070312 7.836930274963379 C 108.3602828979492 8.358187675476074 109.430793762207 8.906184196472168 110.4878158569336 9.479917526245117 C 111.5448379516602 10.05365180969238 112.5883712768555 10.65312194824219 113.616569519043 11.2773265838623 C 114.6447677612305 11.90153121948242 115.6576385498047 12.55047035217285 116.6533203125 13.22313976287842 C 117.6395721435547 13.88944053649902 118.6111145019531 14.58046531677246 119.5663452148438 15.29488658905029 C 120.5215759277344 16.00930786132812 121.4604949951172 16.74712753295898 122.3814849853516 17.50701522827148 C 123.3024826049805 18.26690292358398 124.2055511474609 19.04885864257812 125.0890808105469 19.85155487060547 C 125.9726104736328 20.65425109863281 126.8366088867188 21.47768974304199 127.6794586181641 22.3205394744873 C 128.5223083496094 23.16339111328125 129.3457489013672 24.02738761901855 130.1484375 24.91091918945312 C 130.9511413574219 25.7944507598877 131.7330932617188 26.69751739501953 132.4929809570312 27.61851119995117 C 133.2528686523438 28.53950309753418 133.9906921386719 29.47842025756836 134.7051086425781 30.43365097045898 C 135.4195404052734 31.38888168334961 136.1105651855469 32.36042785644531 136.77685546875 33.3466796875 C 137.4495239257812 34.34236526489258 138.0984649658203 35.35523223876953 138.7226715087891 36.38343048095703 C 139.3468780517578 37.41162872314453 139.9463500976562 38.45516204833984 140.5200805664062 39.51218414306641 C 141.0938110351562 40.56920623779297 141.6418151855469 41.63971710205078 142.1630706787109 42.72186279296875 C 142.684326171875 43.80401229858398 143.1788482666016 44.89780044555664 143.6456146240234 46.00138092041016 C 144.6167907714844 48.2974853515625 145.4682769775391 50.62934875488281 146.19921875 52.99273300170898 C 146.9301605224609 55.35611724853516 147.5405578613281 57.75102233886719 148.0295715332031 60.17322158813477 C 148.5185699462891 62.59542083740234 148.8861846923828 65.04490661621094 149.1315307617188 67.51744842529297 C 149.3768920898438 69.989990234375 149.5 72.48558044433594 149.5 75 C 149.5 77.51441955566406 149.3768920898438 80.010009765625 149.1315307617188 82.4825439453125 C 148.8861846923828 84.95508575439453 148.5185699462891 87.40457153320312 148.0295715332031 89.82677459716797 C 147.5405578613281 92.24897766113281 146.9301605224609 94.64388275146484 146.19921875 97.00726318359375 C 145.4682769775391 99.37065124511719 144.6167907714844 101.7025146484375 143.6456146240234 103.9986190795898 C 143.1788482666016 105.1022033691406 142.684326171875 106.1959915161133 142.1630706787109 107.2781372070312 C 141.6418151855469 108.3602828979492 141.0938110351562 109.4307861328125 140.5200805664062 110.4878082275391 C 139.9463500976562 111.5448303222656 139.3468780517578 112.5883636474609 138.7226715087891 113.6165618896484 C 138.0984649658203 114.6447677612305 137.4495239257812 115.6576385498047 136.77685546875 116.6533203125 C 136.1105651855469 117.6395721435547 135.4195404052734 118.6111145019531 134.7051086425781 119.5663452148438 C 133.9906921386719 120.5215759277344 133.2528686523438 121.4604949951172 132.4929809570312 122.3814849853516 C 131.7330932617188 123.3024749755859 130.9511413574219 124.2055435180664 130.1484375 125.0890808105469 C 129.3457489013672 125.9726104736328 128.5223083496094 126.8366088867188 127.6794586181641 127.6794586181641 C 126.8366088867188 128.5223083496094 125.9726104736328 129.3457489013672 125.0890808105469 130.1484375 C 124.2055511474609 130.9511413574219 123.3024826049805 131.7330932617188 122.3814849853516 132.4929809570312 C 121.4604949951172 133.2528686523438 120.5215759277344 133.9906921386719 119.5663452148438 134.7051086425781 C 118.6111145019531 135.4195404052734 117.6395721435547 136.1105651855469 116.6533203125 136.77685546875 C 115.6576385498047 137.4495239257812 114.6447677612305 138.0984649658203 113.616569519043 138.7226715087891 C 112.5883712768555 139.3468780517578 111.5448379516602 139.9463500976562 110.4878158569336 140.5200805664062 C 109.430793762207 141.0938110351562 108.3602828979492 141.6418151855469 107.2781372070312 142.1630706787109 C 106.1959838867188 142.684326171875 105.1022033691406 143.1788330078125 103.9986190795898 143.6456146240234 C 101.7025146484375 144.6167907714844 99.37065124511719 145.46826171875 97.00726318359375 146.1992034912109 C 94.64388275146484 146.9301452636719 92.24897766113281 147.5405578613281 89.8267822265625 148.0295562744141 C 87.40457916259766 148.5185546875 84.95509338378906 148.8861694335938 82.48255157470703 149.1315307617188 C 80.010009765625 149.3768920898438 77.51441955566406 149.5 75 149.5 M 75 150 C 85.35533905029297 150 95.22050476074219 147.9013366699219 104.1933822631836 144.1061401367188 C 113.166259765625 140.3109283447266 121.2468414306641 134.8191833496094 128.0330047607422 128.0330200195312 C 134.8191680908203 121.2468490600586 140.3109283447266 113.166259765625 144.1061248779297 104.1933822631836 C 147.9013366699219 95.22050476074219 150 85.35533905029297 150 75 C 150 64.64466094970703 147.9013366699219 54.77949142456055 144.1061248779297 45.80661773681641 C 140.3109283447266 36.833740234375 134.8191680908203 28.7531566619873 128.0330047607422 21.96699142456055 C 121.2468414306641 15.18082618713379 113.166259765625 9.689078330993652 104.1933822631836 5.893871784210205 C 95.22050476074219 2.098664999008179 85.35533905029297 7.421889031090576e-16 75 8.610791357999408e-16 C 64.64466094970703 9.79969368490824e-16 54.77949523925781 2.098664999008179 45.80661773681641 5.893871307373047 C 36.833740234375 9.689077377319336 28.75315093994141 15.18082618713379 21.96697998046875 21.96699142456055 C 15.18081665039062 28.7531566619873 9.689071655273438 36.833740234375 5.89385986328125 45.80661773681641 C 2.098663330078125 54.77949142456055 0 64.64466094970703 0 75 C 0 85.35533905029297 2.098663330078125 95.22050476074219 5.89385986328125 104.1933822631836 C 9.689071655273438 113.166259765625 15.18081665039062 121.2468490600586 21.96697998046875 128.0330200195312 C 28.75315093994141 134.8191833496094 36.833740234375 140.3109283447266 45.80661773681641 144.1061401367188 C 54.77949523925781 147.9013366699219 64.64466094970703 150 75 150 Z" stroke="none"/>
      </g>
    </g>
    <g id="Ellipse_480-4" data-name="Ellipse 480" fill="none">
      <path d="M75,0a74.765,74.765,0,1,0,29.193,5.894A74.764,74.764,0,0,0,75,0Z" stroke="none"/>
      <path d="M 75 149.5 C 72.48558044433594 149.5 69.989990234375 149.3768920898438 67.5174560546875 149.1315307617188 C 65.04491424560547 148.8861694335938 62.59542846679688 148.5185546875 60.17322540283203 148.0295562744141 C 57.75102233886719 147.5405578613281 55.35611724853516 146.9301452636719 52.99273681640625 146.1992034912109 C 50.62934875488281 145.46826171875 48.2974853515625 144.6167907714844 46.00138092041016 143.6456146240234 C 44.89779663085938 143.1788330078125 43.80400848388672 142.684326171875 42.72186279296875 142.1630706787109 C 41.63971710205078 141.6418151855469 40.5692138671875 141.0938110351562 39.51219177246094 140.5200805664062 C 38.45516967773438 139.9463500976562 37.41163635253906 139.3468780517578 36.38343811035156 138.7226715087891 C 35.35523223876953 138.0984649658203 34.34236145019531 137.4495239257812 33.3466796875 136.77685546875 C 32.36042785644531 136.1105651855469 31.38888549804688 135.4195404052734 30.43365478515625 134.7051086425781 C 29.47842407226562 133.9906921386719 28.53950500488281 133.2528686523438 27.61851501464844 132.4929809570312 C 26.69752502441406 131.7330932617188 25.79445648193359 130.9511413574219 24.91091918945312 130.1484375 C 24.02738952636719 129.3457489013672 23.16339111328125 128.5223083496094 22.32054138183594 127.6794586181641 C 21.47769165039062 126.8366088867188 20.65425109863281 125.9726104736328 19.8515625 125.0890808105469 C 19.04885864257812 124.2055435180664 18.26690673828125 123.3024749755859 17.50701904296875 122.3814849853516 C 16.74713134765625 121.4604949951172 16.00930786132812 120.5215759277344 15.29489135742188 119.5663452148438 C 14.58045959472656 118.6111145019531 13.88943481445312 117.6395721435547 13.22314453125 116.6533203125 C 12.55047607421875 115.6576385498047 11.90153503417969 114.6447677612305 11.27732849121094 113.6165618896484 C 10.65312194824219 112.5883636474609 10.05364990234375 111.5448303222656 9.47991943359375 110.4878082275391 C 8.90618896484375 109.4307861328125 8.358184814453125 108.3602828979492 7.836929321289062 107.2781372070312 C 7.315673828125 106.1959915161133 6.8211669921875 105.1022033691406 6.354385375976562 103.9986190795898 C 5.383209228515625 101.7025146484375 4.53173828125 99.37065124511719 3.800796508789062 97.00726318359375 C 3.069854736328125 94.64388275146484 2.459442138671875 92.24897766113281 1.970443725585938 89.82677459716797 C 1.4814453125 87.40457153320312 1.11383056640625 84.95508575439453 0.86846923828125 82.4825439453125 C 0.62310791015625 80.010009765625 0.5 77.51441955566406 0.5 75 C 0.5 72.48558044433594 0.62310791015625 69.989990234375 0.86846923828125 67.51744842529297 C 1.11383056640625 65.04490661621094 1.4814453125 62.59542083740234 1.970443725585938 60.17322158813477 C 2.459442138671875 57.75102233886719 3.069854736328125 55.35611724853516 3.800796508789062 52.99273300170898 C 4.53173828125 50.62934875488281 5.383209228515625 48.2974853515625 6.354385375976562 46.00138092041016 C 6.8211669921875 44.89780044555664 7.315673828125 43.80401229858398 7.836929321289062 42.72186279296875 C 8.358184814453125 41.63971710205078 8.90618896484375 40.56920623779297 9.47991943359375 39.51218414306641 C 10.05364990234375 38.45516204833984 10.65312194824219 37.41162872314453 11.27732849121094 36.38343048095703 C 11.90153503417969 35.35523223876953 12.55047607421875 34.34236526489258 13.22314453125 33.3466796875 C 13.88943481445312 32.36042785644531 14.58045959472656 31.38888168334961 15.29489135742188 30.43365097045898 C 16.00930786132812 29.47842025756836 16.74713134765625 28.53950309753418 17.50701904296875 27.61851119995117 C 18.26690673828125 26.69751739501953 19.04885864257812 25.7944507598877 19.8515625 24.91091918945312 C 20.65425109863281 24.02738761901855 21.47769165039062 23.16339111328125 22.32054138183594 22.3205394744873 C 23.16339111328125 21.47768974304199 24.02738952636719 20.65425109863281 24.91091918945312 19.85155487060547 C 25.79445648193359 19.04885864257812 26.69752502441406 18.26690292358398 27.61851501464844 17.50701522827148 C 28.53950500488281 16.74712753295898 29.47842407226562 16.00930786132812 30.43365478515625 15.29488658905029 C 31.38888549804688 14.58046531677246 32.36042785644531 13.88944053649902 33.3466796875 13.22313976287842 C 34.34236145019531 12.55047035217285 35.35523223876953 11.90153121948242 36.38343811035156 11.2773265838623 C 37.41163635253906 10.65312194824219 38.45516967773438 10.05365180969238 39.51219177246094 9.479917526245117 C 40.5692138671875 8.906184196472168 41.63971710205078 8.358187675476074 42.72186279296875 7.836930274963379 C 43.80400848388672 7.315672874450684 44.89779663085938 6.821155548095703 46.00138092041016 6.354380130767822 C 48.2974853515625 5.383210182189941 50.62934875488281 4.531726360321045 52.99273681640625 3.80078387260437 C 55.35611724853516 3.069841384887695 57.75102233886719 2.459439992904663 60.17322540283203 1.9704350233078 C 62.59542846679688 1.481430053710938 65.04491424560547 1.113821268081665 67.5174560546875 0.8684637546539307 C 69.989990234375 0.6231062412261963 72.48558044433594 0.5 75 0.5 C 77.51441955566406 0.5 80.010009765625 0.6231062412261963 82.48255157470703 0.8684637546539307 C 84.95509338378906 1.113821268081665 87.40457916259766 1.481430053710938 89.8267822265625 1.97043514251709 C 92.24897766113281 2.459440231323242 94.64388275146484 3.069841384887695 97.00726318359375 3.80078387260437 C 99.37065124511719 4.531726360321045 101.7025146484375 5.383210182189941 103.9986190795898 6.354380130767822 C 105.1022033691406 6.821155548095703 106.1959838867188 7.315672874450684 107.2781372070312 7.836930274963379 C 108.3602828979492 8.358187675476074 109.430793762207 8.906184196472168 110.4878158569336 9.479917526245117 C 111.5448379516602 10.05365180969238 112.5883712768555 10.65312194824219 113.616569519043 11.2773265838623 C 114.6447677612305 11.90153121948242 115.6576385498047 12.55047035217285 116.6533203125 13.22313976287842 C 117.6395721435547 13.88944053649902 118.6111145019531 14.58046531677246 119.5663452148438 15.29488658905029 C 120.5215759277344 16.00930786132812 121.4604949951172 16.74712753295898 122.3814849853516 17.50701522827148 C 123.3024826049805 18.26690292358398 124.2055511474609 19.04885864257812 125.0890808105469 19.85155487060547 C 125.9726104736328 20.65425109863281 126.8366088867188 21.47768974304199 127.6794586181641 22.3205394744873 C 128.5223083496094 23.16339111328125 129.3457489013672 24.02738761901855 130.1484375 24.91091918945312 C 130.9511413574219 25.7944507598877 131.7330932617188 26.69751739501953 132.4929809570312 27.61851119995117 C 133.2528686523438 28.53950309753418 133.9906921386719 29.47842025756836 134.7051086425781 30.43365097045898 C 135.4195404052734 31.38888168334961 136.1105651855469 32.36042785644531 136.77685546875 33.3466796875 C 137.4495239257812 34.34236526489258 138.0984649658203 35.35523223876953 138.7226715087891 36.38343048095703 C 139.3468780517578 37.41162872314453 139.9463500976562 38.45516204833984 140.5200805664062 39.51218414306641 C 141.0938110351562 40.56920623779297 141.6418151855469 41.63971710205078 142.1630706787109 42.72186279296875 C 142.684326171875 43.80401229858398 143.1788482666016 44.89780044555664 143.6456146240234 46.00138092041016 C 144.6167907714844 48.2974853515625 145.4682769775391 50.62934875488281 146.19921875 52.99273300170898 C 146.9301605224609 55.35611724853516 147.5405578613281 57.75102233886719 148.0295715332031 60.17322158813477 C 148.5185699462891 62.59542083740234 148.8861846923828 65.04490661621094 149.1315307617188 67.51744842529297 C 149.3768920898438 69.989990234375 149.5 72.48558044433594 149.5 75 C 149.5 77.51441955566406 149.3768920898438 80.010009765625 149.1315307617188 82.4825439453125 C 148.8861846923828 84.95508575439453 148.5185699462891 87.40457153320312 148.0295715332031 89.82677459716797 C 147.5405578613281 92.24897766113281 146.9301605224609 94.64388275146484 146.19921875 97.00726318359375 C 145.4682769775391 99.37065124511719 144.6167907714844 101.7025146484375 143.6456146240234 103.9986190795898 C 143.1788482666016 105.1022033691406 142.684326171875 106.1959915161133 142.1630706787109 107.2781372070312 C 141.6418151855469 108.3602828979492 141.0938110351562 109.4307861328125 140.5200805664062 110.4878082275391 C 139.9463500976562 111.5448303222656 139.3468780517578 112.5883636474609 138.7226715087891 113.6165618896484 C 138.0984649658203 114.6447677612305 137.4495239257812 115.6576385498047 136.77685546875 116.6533203125 C 136.1105651855469 117.6395721435547 135.4195404052734 118.6111145019531 134.7051086425781 119.5663452148438 C 133.9906921386719 120.5215759277344 133.2528686523438 121.4604949951172 132.4929809570312 122.3814849853516 C 131.7330932617188 123.3024749755859 130.9511413574219 124.2055435180664 130.1484375 125.0890808105469 C 129.3457489013672 125.9726104736328 128.5223083496094 126.8366088867188 127.6794586181641 127.6794586181641 C 126.8366088867188 128.5223083496094 125.9726104736328 129.3457489013672 125.0890808105469 130.1484375 C 124.2055511474609 130.9511413574219 123.3024826049805 131.7330932617188 122.3814849853516 132.4929809570312 C 121.4604949951172 133.2528686523438 120.5215759277344 133.9906921386719 119.5663452148438 134.7051086425781 C 118.6111145019531 135.4195404052734 117.6395721435547 136.1105651855469 116.6533203125 136.77685546875 C 115.6576385498047 137.4495239257812 114.6447677612305 138.0984649658203 113.616569519043 138.7226715087891 C 112.5883712768555 139.3468780517578 111.5448379516602 139.9463500976562 110.4878158569336 140.5200805664062 C 109.430793762207 141.0938110351562 108.3602828979492 141.6418151855469 107.2781372070312 142.1630706787109 C 106.1959838867188 142.684326171875 105.1022033691406 143.1788330078125 103.9986190795898 143.6456146240234 C 101.7025146484375 144.6167907714844 99.37065124511719 145.46826171875 97.00726318359375 146.1992034912109 C 94.64388275146484 146.9301452636719 92.24897766113281 147.5405578613281 89.8267822265625 148.0295562744141 C 87.40457916259766 148.5185546875 84.95509338378906 148.8861694335938 82.48255157470703 149.1315307617188 C 80.010009765625 149.3768920898438 77.51441955566406 149.5 75 149.5 M 75 150 C 85.35533905029297 150 95.22050476074219 147.9013366699219 104.1933822631836 144.1061401367188 C 113.166259765625 140.3109283447266 121.2468414306641 134.8191833496094 128.0330047607422 128.0330200195312 C 134.8191680908203 121.2468490600586 140.3109283447266 113.166259765625 144.1061248779297 104.1933822631836 C 147.9013366699219 95.22050476074219 150 85.35533905029297 150 75 C 150 64.64466094970703 147.9013366699219 54.77949142456055 144.1061248779297 45.80661773681641 C 140.3109283447266 36.833740234375 134.8191680908203 28.7531566619873 128.0330047607422 21.96699142456055 C 121.2468414306641 15.18082618713379 113.166259765625 9.689078330993652 104.1933822631836 5.893871784210205 C 95.22050476074219 2.098664999008179 85.35533905029297 7.421889031090576e-16 75 8.610791357999408e-16 C 64.64466094970703 9.79969368490824e-16 54.77949523925781 2.098664999008179 45.80661773681641 5.893871307373047 C 36.833740234375 9.689077377319336 28.75315093994141 15.18082618713379 21.96697998046875 21.96699142456055 C 15.18081665039062 28.7531566619873 9.689071655273438 36.833740234375 5.89385986328125 45.80661773681641 C 2.098663330078125 54.77949142456055 0 64.64466094970703 0 75 C 0 85.35533905029297 2.098663330078125 95.22050476074219 5.89385986328125 104.1933822631836 C 9.689071655273438 113.166259765625 15.18081665039062 121.2468490600586 21.96697998046875 128.0330200195312 C 28.75315093994141 134.8191833496094 36.833740234375 140.3109283447266 45.80661773681641 144.1061401367188 C 54.77949523925781 147.9013366699219 64.64466094970703 150 75 150 Z" stroke="none" fill="#333"/>
    </g>
  </g>
  <g id="Icon_feather-arrow-right" data-name="Icon feather-arrow-right" transform="translate(59.752 47.208)">
    <g transform="matrix(1, 0, 0, 1, -59.75, -47.21)" filter="url(#Path_17628)">
      <g id="Path_17628-2" data-name="Path 17628" transform="translate(59.75 47.21)" fill="none" stroke-linecap="square" stroke-linejoin="round">
        <path d="M25.963,6.364,4.5,27.826,25.963,49.289" stroke="none"/>
        <path d="M 25.96288871765137 55.65288543701172 L 32.32684707641602 49.28891372680664 L 29.14486694335938 46.10693359375 L 10.8642692565918 27.82635116577148 L 29.14486694335938 9.545753479003906 L 32.32684707641602 6.363773345947266 L 25.96288871765137 -0.0001964569091796875 L 22.78090858459473 3.181783676147461 L 1.318328857421875 24.64437294006348 C 1.107349395751953 24.85535049438477 0.9194831848144531 25.08512115478516 0.7563629150390625 25.32975006103516 C 0.5932388305664062 25.57437896728516 0.4548568725585938 25.83386421203613 0.3428497314453125 26.10427474975586 C 0.2308425903320312 26.37468528747559 0.1452064514160156 26.65602111816406 0.0875701904296875 26.94434547424316 C 0.029937744140625 27.23266983032227 0.000308990478515625 27.52798461914062 0.000308990478515625 27.82635307312012 C 0.000308990478515625 28.12472152709961 0.029937744140625 28.42003440856934 0.0875701904296875 28.70835876464844 C 0.1452064514160156 28.99668312072754 0.2308425903320312 29.27801895141602 0.3428497314453125 29.54842948913574 C 0.4548568725585938 29.81884002685547 0.5932388305664062 30.07832717895508 0.7563629150390625 30.32295608520508 C 0.9194831848144531 30.56758689880371 1.107349395751953 30.7973575592041 1.318328857421875 31.00833511352539 L 22.78090858459473 52.47090530395508 L 25.96288871765137 55.65288543701172 Z" stroke="none" fill="#1cbbda"/>
      </g>
    </g>
  </g>
</svg>
