<svg xmlns="http://www.w3.org/2000/svg" width="30" height="30" viewBox="0 0 30 30">
  <g id="square-bullet" transform="translate(-370 -8004)">
    <path id="Rectangle_11052" data-name="Rectangle 11052" d="M6,1A5.006,5.006,0,0,0,1,6V24a5.006,5.006,0,0,0,5,5H24a5.006,5.006,0,0,0,5-5V6a5.006,5.006,0,0,0-5-5H6M6,0H24a6,6,0,0,1,6,6V24a6,6,0,0,1-6,6H6a6,6,0,0,1-6-6V6A6,6,0,0,1,6,0Z" transform="translate(370 8004)" fill="#1cbbda"/>
    <rect id="Rectangle_11053" data-name="Rectangle 11053" width="11.67" height="11.67" transform="translate(379 8013)" fill="#1cbbda"/>
  </g>
</svg>
