<svg width="405" height="397" viewBox="0 0 405 397" fill="none" xmlns="http://www.w3.org/2000/svg">
<g clip-path="url(#clip0_277_845)">
<path d="M216.37 178.99C205.4 189.97 194.76 200.65 184.09 211.3C168.61 226.74 148.56 226.18 133.97 209.93C129.83 205.31 129.43 199.43 133.63 195.15C145.84 182.7 158.27 170.46 170.62 158.14C170.81 157.95 171.15 157.92 171.97 157.59C173.14 158.95 174.45 160.49 176.05 162.36C175.07 163.4 174.02 164.58 172.9 165.7C162.25 176.37 151.58 187.02 140.92 197.7C136.92 201.7 136.92 202.9 140.77 206.76C152.21 218.23 166.94 218.35 178.43 206.95C189.66 195.81 200.81 184.59 212 173.41C216.11 169.3 216.85 169.3 220.96 173.4C252.95 205.38 284.94 237.36 316.91 269.36C325.23 277.68 327.41 287.67 323.09 297.21C318.76 306.77 309.89 311.54 298.02 310.71C297.61 310.68 297.19 310.79 296.44 310.87C297.61 319.08 295.93 326.49 289.97 332.44C284 338.4 276.62 340.2 268.02 338.93C269.21 347.42 267.55 354.83 261.61 360.79C255.65 366.78 248.25 368.5 239.66 367.37C240.89 376.46 238.8 384.27 231.98 390.37C227.5 394.38 222.01 396.24 215.95 395.75C215.95 393.77 215.95 391.78 215.95 389.63C217.09 389.32 218.05 388.98 219.04 388.82C225.65 387.71 230.11 383.91 232.12 377.65C234.14 371.38 232.69 365.61 228.05 360.89C219.45 352.14 210.73 343.51 202.06 334.82C201.44 334.2 200.88 333.53 200.08 332.65C201.75 331.17 203.33 329.77 205.79 327.59C208.97 331.08 212.34 334.97 215.92 338.67C221.27 344.19 226.74 349.6 232.21 354.99C239.32 361.99 249.96 362.37 256.47 355.94C263.2 349.29 262.95 339.1 255.74 331.79C247.75 323.68 239.65 315.68 231.61 307.63C230.58 306.6 229.6 305.52 228.32 304.16C229.83 302.58 231.22 301.13 232.98 299.29C234.24 300.45 235.42 301.46 236.51 302.56C244.47 310.49 252.38 318.46 260.36 326.37C267.67 333.62 278.35 334.08 284.94 327.49C291.75 320.67 291.3 310.61 283.75 303.02C274.8 294.03 265.79 285.11 256.35 275.71C258.29 274.14 259.86 272.87 261.44 271.6C261.83 271.05 262.22 270.5 262.62 269.96C264.24 272.22 265.62 274.72 267.54 276.7C274.54 283.92 281.69 290.99 288.83 298.06C296.12 305.28 306.87 305.67 313.4 299.04C320.05 292.29 319.72 282.23 312.39 274.89C281.17 243.6 249.9 212.36 218.65 181.1C218.05 180.48 217.38 179.92 216.37 178.99Z" fill="#1CBBDA"/>
<path d="M116.93 127.79C116.93 130.27 116.93 132.29 116.93 134.78C104.12 134.78 91.34 134.78 78.1 134.78C78.1 178.77 78.1 222.29 78.1 265.99C75.61 265.99 73.59 265.99 71.11 265.99C71.11 222.44 71.11 178.92 71.11 135.14C68.53 135.14 66.42 135.14 63.89 135.14C63.89 137.05 63.89 138.79 63.89 140.52C63.89 183.83 63.89 227.15 63.89 270.46C63.89 284.06 57.01 291 43.55 291.01C35.27 291.02 26.99 291.06 18.71 291C7.54 290.93 0.04 283.51 0.03 272.37C-0.01 225.66 -0.01 178.94 0.03 132.23C0.04 121.07 7.53 113.66 18.7 113.6C27.57 113.55 36.44 113.58 45.31 113.59C53.58 113.6 59.51 117.43 62.58 125.03C63.61 127.58 64.99 127.81 67.2 127.81C82.13 127.75 97.06 127.78 111.99 127.78C113.58 127.79 115.16 127.79 116.93 127.79ZM56.79 202.3C56.79 179.26 56.81 156.21 56.78 133.17C56.77 124.77 52.69 120.73 44.24 120.7C35.82 120.67 27.4 120.64 18.98 120.71C11.4 120.77 7.13 124.96 7.13 132.51C7.09 179.04 7.09 225.58 7.13 272.11C7.14 279.64 11.43 283.85 18.99 283.91C27.11 283.98 35.24 283.93 43.36 283.92C53 283.91 56.78 280.15 56.78 270.55C56.8 247.8 56.79 225.05 56.79 202.3Z" fill="#1CBBDA"/>
<path d="M340.67 135.09C338.03 135.09 336.01 135.09 333.68 135.09C333.68 178.7 333.68 222.11 333.68 265.85C331.26 265.85 329.14 265.85 326.55 265.85C326.55 222.39 326.55 178.87 326.55 135.02C313.43 135.02 300.77 135.02 287.78 135.02C287.78 132.59 287.78 130.47 287.78 127.79C290.45 127.79 293.21 127.79 295.97 127.79C309.72 127.79 323.47 127.75 337.21 127.83C339.66 127.84 341.03 127.41 342.11 124.77C345.15 117.33 351.04 113.64 359.1 113.61C368.12 113.57 377.14 113.54 386.15 113.62C397 113.71 404.5 121.19 404.51 132.12C404.56 178.98 404.56 225.84 404.51 272.7C404.5 283.54 396.9 290.94 385.97 291.02C377.25 291.08 368.53 291.06 359.8 291.03C348.06 290.98 340.68 283.66 340.67 271.94C340.64 228.04 340.66 184.13 340.66 140.23C340.67 138.62 340.67 137.02 340.67 135.09ZM397.45 202.26C397.45 179.36 397.46 156.47 397.44 133.57C397.43 124.59 393.5 120.72 384.41 120.7C376.14 120.68 367.86 120.65 359.59 120.71C352.03 120.77 347.79 124.98 347.78 132.55C347.75 179.08 347.74 225.62 347.78 272.15C347.79 279.65 352.1 283.85 359.68 283.91C367.95 283.97 376.22 283.94 384.5 283.92C393.49 283.9 397.43 279.96 397.44 270.95C397.46 248.05 397.45 225.16 397.45 202.26Z" fill="#1CBBDA"/>
<path d="M159.51 28.4397C159.51 30.9097 159.51 32.9297 159.51 35.5297C155.25 35.5297 151.01 35.4897 146.78 35.5397C139.17 35.6297 134.91 39.7697 134.88 47.3097C134.81 60.7597 134.81 74.2097 134.88 87.6697C134.92 95.1697 139.21 99.3397 146.83 99.3897C155.67 99.4497 164.52 99.3997 173.62 99.3997C173.62 101.84 173.62 103.95 173.62 106.7C160.69 105.3 147.63 109.05 134.9 103.65C134.9 113.2 134.69 122.65 134.98 132.08C135.15 137.91 139.8 141.86 146 141.95C154.13 142.07 162.26 141.99 170.39 141.99C199.07 141.99 227.75 142 256.43 141.99C265.81 141.99 269.68 138.16 269.7 128.89C269.72 120.51 269.7 112.14 269.7 103.6C256.93 109.05 243.96 105.26 230.99 106.77C230.99 104.18 230.99 102.06 230.99 99.4197C239.34 99.4197 247.72 99.4297 256.09 99.4197C266.02 99.4097 269.69 95.7297 269.7 85.7697C269.71 73.1997 269.73 60.6397 269.69 48.0697C269.67 39.5897 265.66 35.5997 257.2 35.5497C253.24 35.5197 249.28 35.5497 245.1 35.5497C245.1 33.1597 245.1 31.1397 245.1 28.2197C251.28 28.5397 257.67 28.1797 263.76 29.3397C271.52 30.8197 276.71 37.7897 276.74 45.7697C276.85 74.4497 276.88 103.13 276.73 131.8C276.68 141.4 269.03 149.01 259.42 149.04C221.28 149.16 183.14 149.17 145 149.03C135.42 149 127.86 141.28 127.82 131.66C127.69 103.13 127.7 74.5997 127.81 46.0697C127.85 36.2197 135.45 28.7397 145.26 28.4797C149.95 28.3297 154.64 28.4397 159.51 28.4397Z" fill="#1CBBDA"/>
<path d="M108.05 310.72C91.13 311.67 79.95 302.78 79.31 288.16C78.75 275.33 89.23 264.28 102.38 263.84C117.04 263.35 126.21 274.27 126.31 292.69C134.4 291.63 141.85 293.08 147.85 299.05C153.87 305.04 155.62 312.39 154.35 321.13C162.82 320 170.38 321.5 176.44 327.63C182.39 333.66 183.95 341.06 182.84 349.19C201.55 349.65 212.13 358.49 211.73 373.07C211.37 386.21 200.36 396.73 187.51 396.25C172.92 395.69 164.21 384.8 164.85 367.46C156.58 368.61 149.07 366.99 143.01 360.89C137.05 354.88 135.46 347.47 136.57 339.3C115.81 341.22 105.84 326.28 108.05 310.72ZM119.45 287.51C119.49 278.56 112.2 271.13 103.19 270.93C94.13 270.73 86.43 278.28 86.39 287.42C86.35 296.36 93.66 303.81 102.65 304.01C111.69 304.21 119.41 296.63 119.45 287.51ZM147.84 315.81C147.81 306.85 140.47 299.45 131.49 299.32C122.4 299.19 114.75 306.78 114.78 315.9C114.81 324.85 122.16 332.27 131.13 332.4C140.19 332.53 147.87 324.91 147.84 315.81ZM176.23 344.11C176.14 335.14 168.76 327.78 159.79 327.71C150.69 327.64 143.08 335.27 143.17 344.37C143.26 353.34 150.65 360.72 159.61 360.78C168.68 360.86 176.32 353.19 176.23 344.11ZM188.12 389.17C197.07 389.13 204.48 381.78 204.62 372.81C204.75 363.74 197.14 356.07 188.03 356.1C178.9 356.13 171.34 363.83 171.54 372.9C171.74 381.89 179.2 389.21 188.12 389.17Z" fill="#1CBBDA"/>
<path d="M227.12 31.6898C227.12 25.2998 227.01 18.9898 227.16 12.6898C227.26 8.77981 225.78 7.04982 221.72 7.08982C208.73 7.21982 195.73 7.19982 182.74 7.09982C179 7.06982 177.33 8.54982 177.41 12.3498C177.53 18.6798 177.44 25.0198 177.44 31.6598C175.1 31.6598 172.98 31.6598 170.45 31.6598C170.45 24.1898 170.15 16.6998 170.55 9.23981C170.83 4.03981 175.39 0.159815 180.84 0.109815C195.16 -0.0301846 209.49 -0.0501846 223.81 0.119815C229.61 0.189815 233.91 4.45982 234.11 10.2198C234.35 17.2798 234.17 24.3498 234.17 31.6898C231.82 31.6898 229.71 31.6898 227.12 31.6898Z" fill="#1CBBDA"/>
<path d="M202.26 85.21C218.1 85.21 219.65 87.15 220.14 103.03C220.59 117.51 216.53 120.88 202.53 120.9C187.69 120.92 184.29 117.5 184.33 102.64C184.37 88.73 187.68 84.22 202.26 85.21ZM202.26 113.59C213.67 113.69 212.92 114.19 212.95 102.74C212.98 91.54 213.33 92.29 202.3 92.27C190.9 92.25 191.62 91.71 191.61 103.14C191.61 114.14 191.02 113.71 202.26 113.59Z" fill="#1CBBDA"/>
<path d="M202.08 35.52C197.95 35.52 193.83 35.45 189.7 35.54C186.25 35.62 184.43 34.2899 184.52 30.6399C184.62 26.8099 184.6 22.9799 184.52 19.1499C184.46 15.8799 185.83 14.2 189.22 14.22C197.91 14.26 206.61 14.26 215.3 14.22C218.37 14.2 220.02 15.5199 220.01 18.67C220.01 22.8 220 26.9199 220.01 31.0499C220.02 34.2099 218.4 35.5599 215.33 35.5299C210.92 35.4899 206.5 35.52 202.08 35.52ZM212.72 21.5699C205.67 21.5699 198.83 21.5699 191.92 21.5699C191.92 23.9299 191.92 26.04 191.92 28.11C199.06 28.11 205.9 28.11 212.72 28.11C212.72 25.79 212.72 23.7699 212.72 21.5699Z" fill="#1CBBDA"/>
</g>
<defs>
<clipPath id="clip0_277_845">
<rect width="404.56" height="396.27" fill="white"/>
</clipPath>
</defs>
</svg>
