<svg xmlns="http://www.w3.org/2000/svg" width="22" height="36.451" viewBox="0 0 22 36.451">
  <path id="strategist" d="M97.1,68.617,94.3,68.146a1.509,1.509,0,0,1-1.326-1.439l-.011-.448c.11-.108.216-.221.319-.336h3.425A1.9,1.9,0,0,0,98.6,64.029V56.271c0-4.533-4.229-8.221-9.427-8.221s-9.428,3.688-9.428,8.221V64.03a1.9,1.9,0,0,0,1.894,1.894h3.413c.107.119.217.235.332.347l-.011.453a1.507,1.507,0,0,1-1.326,1.424l-2.793.471a3.573,3.573,0,0,0-3.08,3.446v11.79a.648.648,0,0,0,.648.648h20.7a.647.647,0,0,0,.648-.648V72.064A3.571,3.571,0,0,0,97.1,68.617Zm-7.2-1.925a2.145,2.145,0,0,1-1.458,0,6.039,6.039,0,0,1-3.958-5.152l-.2-3.279c.746-1.945,2.424-1.813,5.078-1.43a9.746,9.746,0,0,0,4.671-.062l-.177,4.762A6.044,6.044,0,0,1,89.9,66.692Zm-8.257-2.065a.6.6,0,0,1-.6-.6V56.271c0-3.819,3.648-6.925,8.132-6.925s8.131,3.106,8.131,6.925V64.03a.6.6,0,0,1-.6.6h-2.49a7.3,7.3,0,0,0,.928-2.995.116.116,0,0,0,0-.015c0-.005,0-.01,0-.016l.22-5.909a.635.635,0,0,0-.014-.086.622.622,0,0,0-.023-.137.6.6,0,0,0-.058-.117.62.62,0,0,0-.041-.083c-.006-.008-.016-.011-.022-.019a.658.658,0,0,0-.1-.087.738.738,0,0,0-.095-.069.646.646,0,0,0-.107-.035.662.662,0,0,0-.136-.033c-.009,0-.017-.006-.026-.006a.589.589,0,0,0-.082.014.624.624,0,0,0-.143.024,39.812,39.812,0,0,0-.2.1c-1.169.911-2.92.658-4.776.39-2.539-.367-5.415-.783-6.529,2.39h0a.639.639,0,0,0-.035.257l.208,3.437a7.3,7.3,0,0,0,.927,2.995H81.643Zm4.978,2.61A7.291,7.291,0,0,0,88,67.911a3.44,3.44,0,0,0,2.338,0,7.27,7.27,0,0,0,1.393-.68,2.741,2.741,0,0,0,1.3,1.8l-3.866,3.956-3.861-3.95A2.739,2.739,0,0,0,86.622,67.238Zm12.26,15.968H94.754V79.028a.648.648,0,1,0-1.3,0v4.178H84.9V79.028a.648.648,0,1,0-1.3,0v4.178H79.473V72.063a2.283,2.283,0,0,1,2-2.168l2.459-.415,4.776,4.887a.648.648,0,0,0,.926,0l4.778-4.888,2.469.416a2.283,2.283,0,0,1,2,2.168Z" transform="translate(-78.176 -48.051)" fill="#1cbbda"/>
</svg>
