<svg id="team" xmlns="http://www.w3.org/2000/svg" width="54.93" height="60.369" viewBox="0 0 54.93 60.369">
  <path id="Path_15380" data-name="Path 15380" d="M312.128,97.464a21,21,0,0,1,3.824.355,14.322,14.322,0,0,1,1.725-2.4,23.716,23.716,0,0,0-11.1,0,14.267,14.267,0,0,1,1.725,2.4A21,21,0,0,1,312.128,97.464Z" transform="translate(-284.663 -88.25)" fill="#1cbbda"/>
  <path id="Path_15381" data-name="Path 15381" d="M167.457,271.115c0-.014,0-.028,0-.043a14.19,14.19,0,0,1-2.671-1.259c-.024.431-.036.866-.036,1.3a23.65,23.65,0,0,0,9.386,18.864,14.326,14.326,0,0,1,.378-3.191,20.922,20.922,0,0,1-7.058-15.672Z" transform="translate(-160.964 -240.93)" fill="#1cbbda"/>
  <path id="Path_15382" data-name="Path 15382" d="M465.915,271.066c0,.014,0,.028,0,.043a20.92,20.92,0,0,1-7.058,15.672,14.3,14.3,0,0,1,.378,3.191,23.652,23.652,0,0,0,9.385-18.864c0-.436-.013-.871-.036-1.3a14.186,14.186,0,0,1-2.67,1.259Z" transform="translate(-417.481 -240.925)" fill="#1cbbda"/>
  <path id="Path_15383" data-name="Path 15383" d="M297.97,304.517a6.621,6.621,0,1,0,6.621-6.62A6.628,6.628,0,0,0,297.97,304.517Zm10.751,0a4.159,4.159,0,1,1-4.159-4.16A4.163,4.163,0,0,1,308.721,304.517Z" transform="translate(-277.155 -265.425)" fill="#1cbbda"/>
  <path id="Path_15384" data-name="Path 15384" d="M281.577,399.658a1.233,1.233,0,0,0-1.027,1.92,15.842,15.842,0,0,1,1.761,6.96v.324a3.566,3.566,0,0,1-3.629,3.187h-10.07c-1.7,0-3.747-1.421-3.747-3.187,0-1.938.631-5.543,1.816-7.28a1.229,1.229,0,0,0-.267-1.666,1.292,1.292,0,0,0-.784-.269,1.193,1.193,0,0,0-1.008.54c-1.407,2.1-2.248,6.056-2.248,8.674,0,3.25,3.293,5.678,6.238,5.678h10.069a6.049,6.049,0,0,0,6.09-5.678v-.324a18.065,18.065,0,0,0-2.156-8.313,1.226,1.226,0,0,0-1.038-.567Z" transform="translate(-246.109 -354.171)" fill="#1cbbda"/>
  <path id="Path_15385" data-name="Path 15385" d="M177.32,57.076a6.62,6.62,0,1,0-6.621-6.62A6.628,6.628,0,0,0,177.32,57.076ZM177.29,46.3a4.159,4.159,0,1,1-4.159,4.159A4.164,4.164,0,0,1,177.29,46.3Z" transform="translate(-166.151 -43.836)" fill="#1cbbda"/>
  <path id="Path_15386" data-name="Path 15386" d="M151.421,160.482a6.049,6.049,0,0,0,6.09-5.678v-.324a18.07,18.07,0,0,0-2.155-8.313,1.235,1.235,0,1,0-2.066,1.353,15.845,15.845,0,0,1,1.761,6.96v.324a3.566,3.566,0,0,1-3.629,3.187H141.351c-1.7,0-3.747-1.421-3.747-3.187,0-1.938.631-5.543,1.816-7.28a1.229,1.229,0,0,0-.267-1.666,1.291,1.291,0,0,0-.784-.269,1.193,1.193,0,0,0-1.008.54c-1.408,2.1-2.248,6.056-2.248,8.673,0,3.25,3.293,5.678,6.238,5.678h10.069Z" transform="translate(-135.114 -132.585)" fill="#1cbbda"/>
  <path id="Path_15387" data-name="Path 15387" d="M431.86,57.076a6.62,6.62,0,1,0-6.621-6.62A6.628,6.628,0,0,0,431.86,57.076ZM431.83,46.3a4.159,4.159,0,1,1-4.159,4.159A4.164,4.164,0,0,1,431.83,46.3Z" transform="translate(-388.158 -43.836)" fill="#1cbbda"/>
  <path id="Path_15388" data-name="Path 15388" d="M409.9,146.158a1.235,1.235,0,1,0-2.066,1.353,15.842,15.842,0,0,1,1.761,6.96v.323a3.566,3.566,0,0,1-3.629,3.187h-10.07c-1.7,0-3.746-1.421-3.746-3.187,0-1.938.631-5.544,1.816-7.28a1.229,1.229,0,0,0-.267-1.666,1.3,1.3,0,0,0-.784-.269,1.193,1.193,0,0,0-1.008.54c-1.407,2.1-2.248,6.056-2.248,8.673,0,3.25,3.293,5.678,6.238,5.678h10.069a6.049,6.049,0,0,0,6.09-5.678v-.322a18.084,18.084,0,0,0-2.157-8.314Z" transform="translate(-357.122 -132.576)" fill="#1cbbda"/>
</svg>
