<svg xmlns="http://www.w3.org/2000/svg" width="135.782" height="86.2" viewBox="0 0 135.782 86.2">
  <g id="team-members" transform="translate(0.6 0.6)">
    <path id="Path_15377" data-name="Path 15377" d="M121.851,95.524,115.4,94.437a3.484,3.484,0,0,1-3.061-3.323l-.025-1.035c.254-.25.5-.51.737-.775h7.906a4.375,4.375,0,0,0,4.369-4.371V67.027c0-10.463-9.762-18.976-21.76-18.976S81.807,56.564,81.807,67.027v17.91a4.375,4.375,0,0,0,4.371,4.371h7.878c.247.274.5.543.766.8L94.8,91.153a3.477,3.477,0,0,1-3.061,3.287l-6.448,1.087a8.248,8.248,0,0,0-7.11,7.954V130.7a1.5,1.5,0,0,0,1.5,1.5h47.792a1.494,1.494,0,0,0,1.5-1.5V103.481A8.244,8.244,0,0,0,121.851,95.524Zm-16.612-4.443a4.951,4.951,0,0,1-3.365,0,13.939,13.939,0,0,1-9.135-11.893l-.458-7.568c1.721-4.491,5.6-4.186,11.721-3.3,3.716.537,7.52,1.06,10.782-.144l-.41,10.992A13.952,13.952,0,0,1,105.239,91.081Zm-19.06-4.766a1.382,1.382,0,0,1-1.38-1.38V67.027c0-8.815,8.42-15.985,18.771-15.985s18.77,7.17,18.77,15.985v17.91a1.38,1.38,0,0,1-1.379,1.38h-5.747a16.858,16.858,0,0,0,2.141-6.913.272.272,0,0,0,0-.034c0-.012.007-.022.009-.036l.508-13.641a1.461,1.461,0,0,0-.031-.2,1.432,1.432,0,0,0-.052-.317,1.383,1.383,0,0,0-.135-.271,1.428,1.428,0,0,0-.1-.191c-.013-.018-.036-.025-.051-.043a1.519,1.519,0,0,0-.235-.2,1.7,1.7,0,0,0-.218-.16,1.491,1.491,0,0,0-.247-.081,1.527,1.527,0,0,0-.314-.076c-.021,0-.039-.013-.06-.015a1.359,1.359,0,0,0-.19.031,1.442,1.442,0,0,0-.329.055,96.125,96.125,0,0,0-.456.229c-2.7,2.1-6.741,1.519-11.025.9-5.86-.846-12.5-1.806-15.072,5.516a0,0,0,0,1,0,0h0a1.476,1.476,0,0,0-.081.592l.48,7.933a16.847,16.847,0,0,0,2.14,6.913H86.179ZM97.671,92.34a16.828,16.828,0,0,0,3.188,1.554,7.941,7.941,0,0,0,5.4,0,16.78,16.78,0,0,0,3.217-1.57,6.328,6.328,0,0,0,3.009,4.159l-8.924,9.131-8.912-9.119A6.323,6.323,0,0,0,97.671,92.34Zm28.3,36.859h-9.528v-9.644a1.5,1.5,0,0,0-2.991,0V129.2H93.689v-9.644a1.5,1.5,0,0,0-2.991,0V129.2H81.17v-25.72a5.271,5.271,0,0,1,4.616-5l5.676-.957,11.025,11.28a1.495,1.495,0,0,0,2.138,0l11.028-11.284,5.7.96a5.271,5.271,0,0,1,4.616,5Z" transform="translate(-36.437 -47.191)" fill="#1cbbda"/>
    <path id="Path_15377_-_Outline" data-name="Path 15377 - Outline" d="M127.463,132.791H79.671a2.1,2.1,0,0,1-2.1-2.1V103.481a8.846,8.846,0,0,1,7.611-8.545l6.448-1.087a2.882,2.882,0,0,0,2.561-2.7v-.015l.019-.787c-.137-.138-.278-.285-.424-.444H86.178a4.977,4.977,0,0,1-4.971-4.971V67.027c0-10.794,10.032-19.576,22.362-19.576s22.36,8.782,22.36,19.576V84.934A4.976,4.976,0,0,1,120.96,89.9h-7.641c-.135.147-.267.285-.4.417l.019.792a2.9,2.9,0,0,0,2.56,2.731l6.448,1.087a8.841,8.841,0,0,1,7.608,8.549V130.7A2.1,2.1,0,0,1,127.463,132.791ZM95.4,91.16a4.074,4.074,0,0,1-3.562,3.871l-6.448,1.087a7.651,7.651,0,0,0-6.61,7.362V130.7a.9.9,0,0,0,.9.9h47.792a.9.9,0,0,0,.9-.9V103.481a7.646,7.646,0,0,0-6.607-7.365L115.3,95.028a4.092,4.092,0,0,1-3.561-3.906l-.032-1.288.186-.182c.228-.224.461-.468.711-.748l.179-.2h8.174a3.774,3.774,0,0,0,3.769-3.771V67.027c0-10.133-9.493-18.376-21.16-18.376S82.407,56.894,82.407,67.027v17.91a3.775,3.775,0,0,0,3.771,3.771h8.144l.179.2c.266.295.507.547.738.771l.188.183ZM126.571,129.8H115.842V119.556a.9.9,0,0,0-1.791,0V129.8H93.089V119.556a.9.9,0,0,0-1.791,0V129.8H80.57v-26.32a5.868,5.868,0,0,1,5.116-5.6l5.986-1.009,11.245,11.5a.895.895,0,0,0,1.28,0l11.248-11.509,6.01,1.012a5.868,5.868,0,0,1,5.117,5.6Zm-9.528-1.2h8.328V103.478a4.676,4.676,0,0,0-4.116-4.413l-5.391-.908-10.809,11.06a2.095,2.095,0,0,1-3,0L91.253,98.161l-5.367.9a4.676,4.676,0,0,0-4.116,4.413V128.6H90.1v-9.044a2.1,2.1,0,0,1,4.191,0V128.6h18.563v-9.044a2.1,2.1,0,0,1,4.191,0Zm-13.486-22.128-9.874-10.1.655-.39a5.737,5.737,0,0,0,2.745-3.756l.17-.851.736.459a16.275,16.275,0,0,0,3.075,1.5,7.341,7.341,0,0,0,4.989,0,16.22,16.22,0,0,0,3.1-1.514l.737-.462.17.853a5.751,5.751,0,0,0,2.729,3.761l.652.39Zm-7.978-9.879,7.978,8.162,7.991-8.176a6.971,6.971,0,0,1-2.449-3.334,17.328,17.328,0,0,1-2.64,1.214,8.541,8.541,0,0,1-5.8,0,17.378,17.378,0,0,1-2.611-1.2A6.958,6.958,0,0,1,95.579,96.592Zm7.978-4.617a5.54,5.54,0,0,1-1.886-.33,14.525,14.525,0,0,1-9.529-12.407v-.014l-.465-7.7.046-.121a6.14,6.14,0,0,1,2.672-3.336,8.155,8.155,0,0,1,4.129-.886,41.532,41.532,0,0,1,5.566.541,43.387,43.387,0,0,0,6.041.582,12.723,12.723,0,0,0,4.447-.695l.841-.31-.445,11.916a14.556,14.556,0,0,1-9.529,12.427A5.527,5.527,0,0,1,103.557,91.976ZM93.338,79.146a13.322,13.322,0,0,0,8.74,11.371,4.351,4.351,0,0,0,2.957,0,13.353,13.353,0,0,0,8.74-11.386l.377-10.121a14.823,14.823,0,0,1-4.023.5,44.3,44.3,0,0,1-6.213-.595,40.609,40.609,0,0,0-5.395-.529c-3.085,0-4.676.937-5.633,3.332Zm27.623,7.771h-6.777l.508-.9a16.157,16.157,0,0,0,2.06-6.608c0-.014,0-.028,0-.044a.637.637,0,0,1,.012-.121l.5-13.538a1.113,1.113,0,0,1-.028-.162l0-.026a.933.933,0,0,0-.022-.157l0-.005a.884.884,0,0,0-.063-.119l-.02-.034a1.119,1.119,0,0,1-.057-.117l-.027-.03a.983.983,0,0,0-.093-.076l-.05-.038-.076-.06-.052-.041-.058-.016-.088-.025-.054-.017a.977.977,0,0,0-.133-.036l-.028,0a.972.972,0,0,1-.118.019h-.014a1.013,1.013,0,0,0-.18.026c-.011,0-.045.024-.07.038l-.065.036a1.433,1.433,0,0,1-.144.067l-.019.008a8.751,8.751,0,0,1-5.6,1.585,42,42,0,0,1-5.85-.58l.08-.595-.086.594a41.643,41.643,0,0,0-5.817-.567c-4.529,0-7.176,1.726-8.567,5.593v.5h-.081l.477,7.885a16.147,16.147,0,0,0,2.063,6.66l.508.9H86.779l-.6,0a1.982,1.982,0,0,1-1.98-1.98V67.027c0-9.145,8.69-16.585,19.371-16.585s19.37,7.44,19.37,16.585v17.91A1.982,1.982,0,0,1,120.961,86.917Zm-4.749-1.2h4.749a.78.78,0,0,0,.779-.78V67.027c0-8.484-8.151-15.385-18.17-15.385S85.4,58.543,85.4,67.027V84.935a.781.781,0,0,0,.716.778H90.9a17.3,17.3,0,0,1-1.741-6.263v-.014l-.48-7.933a2.055,2.055,0,0,1,.08-.722v-.506h.182a8.946,8.946,0,0,1,3.884-4.8,11.247,11.247,0,0,1,5.7-1.288,42.526,42.526,0,0,1,5.989.579h.006a41.176,41.176,0,0,0,5.679.568,7.617,7.617,0,0,0,4.888-1.348,1.115,1.115,0,0,1,.274-.153l.032-.014.047-.026a1.551,1.551,0,0,1,.282-.132,1.911,1.911,0,0,1,.446-.082l.009,0a.984.984,0,0,1,.244-.034h.053a.686.686,0,0,1,.13.022,1.929,1.929,0,0,1,.327.078l.047.014.055.015a1.451,1.451,0,0,1,.292.105l.008,0a1.52,1.52,0,0,1,.252.174l.048.038.008.006.042.032a1.864,1.864,0,0,1,.236.2.677.677,0,0,1,.114.116,1.033,1.033,0,0,1,.138.25l.007.016.012.02a1.738,1.738,0,0,1,.169.356,1.839,1.839,0,0,1,.076.415l0,.017,0,.013a.977.977,0,0,1,.032.28l-.511,13.68V79.4c0,.017,0,.034,0,.053A17.318,17.318,0,0,1,116.212,85.717Z" transform="translate(-36.437 -47.191)"/>
    <path id="Path_15378" data-name="Path 15378" d="M207.4,87.9l-5.632-.948a2.857,2.857,0,0,1-2.517-2.72l-.019-.824a14.979,14.979,0,0,0,4.4-9.385s0-.007,0-.012,0-.01,0-.016l.42-6.53c2.4-3.7,3.169-7.043,2.271-9.937-.807-2.6-2.94-4.776-6.351-6.5.209-.112.453-.233.736-.363a1.495,1.495,0,0,0-.1-2.757c-6.671-2.508-15.163-2.2-19.386,4.02a7.842,7.842,0,0,0-4.625,4.719c-1.065,3.064-.292,6.888,2.15,10.8l.4,6.577a14.988,14.988,0,0,0,4.422,9.41l-.019.834a2.851,2.851,0,0,1-2.517,2.684l-5.632.948a7.748,7.748,0,0,0-5.271,3.414,1.5,1.5,0,0,0,2.521,1.609,4.764,4.764,0,0,1,3.248-2.074l4.86-.818,9.56,9.78a1.495,1.495,0,0,0,2.138,0l9.563-9.783,4.881.822a4.411,4.411,0,0,1,3.875,4.183v22.275h-7.943v-8.235a1.5,1.5,0,1,0-2.991,0v8.235H182.965v-8.235a1.5,1.5,0,0,0-2.991,0v8.235H176.4a1.5,1.5,0,0,0,0,2.991h35.881a1.494,1.494,0,0,0,1.5-1.5V95.037A7.39,7.39,0,0,0,207.4,87.9ZM179.432,57.632a4.926,4.926,0,0,1,3.261-3.054,1.507,1.507,0,0,0,.794-.63c2-3.234,5.531-4.523,9.283-4.523a18.552,18.552,0,0,1,3.821.416,2.99,2.99,0,0,0-.71,1.3,1.5,1.5,0,0,0,.9,1.738c3.759,1.488,6.01,3.35,6.689,5.537a6.382,6.382,0,0,1-.133,3.8,2.648,2.648,0,0,0-.308-.326,2.292,2.292,0,0,0-1.954-.532,14.732,14.732,0,0,1-7.972-.607c-3.541-1.483-8-2.937-11.088-1.015a6.092,6.092,0,0,0-2.357,2.811A7.59,7.59,0,0,1,179.432,57.632Zm2.294,9.38c.157-2.466.787-4.064,1.877-4.743,1.939-1.208,5.7.126,8.393,1.255a17.46,17.46,0,0,0,9.075.855A11.926,11.926,0,0,1,201.1,66.9h0l-.443,6.886A11.994,11.994,0,0,1,192.8,84.031a4.142,4.142,0,0,1-2.808,0,11.988,11.988,0,0,1-7.855-10.219Zm9.669,29.616-7.489-7.661a5.684,5.684,0,0,0,2.47-3.4,14.794,14.794,0,0,0,2.6,1.276,7.137,7.137,0,0,0,4.842,0,14.782,14.782,0,0,0,2.623-1.29,5.7,5.7,0,0,0,2.455,3.4Z" transform="translate(-79.19 -46.443)" fill="#1cbbda"/>
    <path id="Path_15378_-_Outline" data-name="Path 15378 - Outline" d="M212.277,120.9H176.4a2.1,2.1,0,0,1,0-4.191h2.978v-7.635a2.1,2.1,0,0,1,4.191,0v7.635h15.683v-7.635a2.1,2.1,0,0,1,4.191,0v7.635h6.743V95.037a3.814,3.814,0,0,0-3.373-3.591l-4.572-.77-9.344,9.558a2.075,2.075,0,0,1-1.5.631,2.109,2.109,0,0,1-1.5-.63l-9.341-9.556-4.551.766a4.167,4.167,0,0,0-2.842,1.805A2.1,2.1,0,0,1,169.631,91a8.349,8.349,0,0,1,5.677-3.683l5.632-.948a2.256,2.256,0,0,0,2.016-2.093v-.014l.013-.578a15.589,15.589,0,0,1-4.414-9.6v-.014l-.389-6.425c-2.479-4.028-3.235-7.995-2.127-11.182a8.442,8.442,0,0,1,4.8-5.009,12.433,12.433,0,0,1,5.222-4.274,16.452,16.452,0,0,1,6.716-1.327,23.163,23.163,0,0,1,8.052,1.508,2.1,2.1,0,0,1,.439,3.695c2.971,1.707,4.864,3.825,5.635,6.305.939,3.027.18,6.494-2.256,10.308l-.41,6.37q0,.023,0,.046a15.582,15.582,0,0,1-4.39,9.576l.014.583a2.273,2.273,0,0,0,2.016,2.128l5.632.948a7.987,7.987,0,0,1,6.869,7.726v23.77A2.1,2.1,0,0,1,212.277,120.9ZM176.4,117.912a.9.9,0,1,0,0,1.791h35.881a.9.9,0,0,0,.9-.9V95.037a6.792,6.792,0,0,0-5.868-6.543l-5.632-.948a3.466,3.466,0,0,1-3.017-3.3l-.025-1.076.184-.182a14.387,14.387,0,0,0,4.219-8.967s0,0,0,0a.61.61,0,0,1,.009-.1l.427-6.638.085-.131c2.3-3.554,3.041-6.727,2.2-9.433-.756-2.43-2.79-4.5-6.048-6.138l-1.031-.52,1.017-.545c.228-.122.486-.25.768-.379a.895.895,0,0,0-.058-1.651,21.95,21.95,0,0,0-7.629-1.431c-4.835,0-8.759,1.856-11.049,5.226l-.1.151-.17.068a7.282,7.282,0,0,0-4.282,4.36c-1,2.872-.255,6.524,2.093,10.283l.081.129.407,6.722A14.391,14.391,0,0,0,184,83.01l.185.182-.025,1.087a3.447,3.447,0,0,1-3.017,3.268l-5.631.948a7.147,7.147,0,0,0-4.865,3.145.9.9,0,1,0,1.51.963,5.368,5.368,0,0,1,3.653-2.343l5.17-.87,9.779,10a.895.895,0,0,0,1.279,0l9.783-10.008,5.19.875a5.006,5.006,0,0,1,4.375,4.774v22.875h-9.143v-8.835a.9.9,0,1,0-1.791,0v8.835H182.365v-8.835a.9.9,0,0,0-1.791,0v8.835Zm15-20.426-8.43-8.624.615-.4a5.079,5.079,0,0,0,2.214-3.038l.194-.792.7.421a14.046,14.046,0,0,0,2.492,1.225,6.537,6.537,0,0,0,4.433,0,14.051,14.051,0,0,0,2.517-1.24l.7-.423.194.793a5.1,5.1,0,0,0,2.2,3.045l.612.4Zm-6.575-8.442,6.575,6.726,6.587-6.737a6.288,6.288,0,0,1-1.889-2.585,13.993,13.993,0,0,1-2.073.96,7.737,7.737,0,0,1-5.25,0,14.011,14.011,0,0,1-2.048-.946A6.27,6.27,0,0,1,184.82,89.044Zm6.576-4.168a4.7,4.7,0,0,1-1.609-.281,12.576,12.576,0,0,1-8.248-10.733v-.014l-.413-6.837,0-.037c.17-2.674.9-4.429,2.158-5.214a4.322,4.322,0,0,1,2.311-.568,19.32,19.32,0,0,1,6.623,1.775,15.749,15.749,0,0,0,5.719,1.052,21.465,21.465,0,0,0,3.049-.234l.572-.081.1.569a12.775,12.775,0,0,1,.036,2.645v.022l-.443,6.9A12.6,12.6,0,0,1,193,84.6,4.709,4.709,0,0,1,191.4,84.876Zm-8.661-11.108a11.373,11.373,0,0,0,7.461,9.7,3.542,3.542,0,0,0,2.4,0,11.4,11.4,0,0,0,7.461-9.724l.442-6.878c.05-.845.053-1.42.036-1.811a21.482,21.482,0,0,1-2.6.165,16.929,16.929,0,0,1-6.157-1.135l-.017-.007a18.339,18.339,0,0,0-6.168-1.685,3.164,3.164,0,0,0-1.676.387c-.9.558-1.447,2.022-1.593,4.235ZM179.587,64.2l-.495-1.459a8.109,8.109,0,0,1-.227-5.3A5.506,5.506,0,0,1,182.5,54.01a.909.909,0,0,0,.477-.379,9.521,9.521,0,0,1,4.247-3.7,13.349,13.349,0,0,1,5.546-1.1,19.123,19.123,0,0,1,3.945.429l1.014.215-.691.772a2.4,2.4,0,0,0-.574,1.044A.9.9,0,0,0,197,52.323c3.937,1.558,6.306,3.549,7.041,5.917a6.988,6.988,0,0,1-.133,4.151l-.334,1.086-.709-.889a2.043,2.043,0,0,0-.239-.253,1.666,1.666,0,0,0-1.116-.42,1.824,1.824,0,0,0-.33.031l-.016,0a20.522,20.522,0,0,1-3.243.286,13.856,13.856,0,0,1-5.035-.925l-.018-.007a20.226,20.226,0,0,0-7.289-1.89,6.058,6.058,0,0,0-3.25.83,5.473,5.473,0,0,0-2.125,2.544Zm21.929-3.481a2.89,2.89,0,0,1,1.477.406A5.272,5.272,0,0,0,202.9,58.6c-.622-2-2.754-3.739-6.336-5.156A2.107,2.107,0,0,1,195.3,51a3.364,3.364,0,0,1,.276-.744,17.413,17.413,0,0,0-2.8-.235c-2.805,0-6.6.735-8.773,4.239a2.115,2.115,0,0,1-1.111.882A4.349,4.349,0,0,0,180,57.829a6.136,6.136,0,0,0-.137,3.141,6.366,6.366,0,0,1,1.838-1.745,7.233,7.233,0,0,1,3.885-1.012,21.265,21.265,0,0,1,7.744,1.979,12.677,12.677,0,0,0,4.6.843,19.361,19.361,0,0,0,3.05-.27A3.027,3.027,0,0,1,201.516,60.716Z" transform="translate(-79.19 -46.443)"/>
    <path id="Path_15379" data-name="Path 15379" d="M43.18,93.38a1.5,1.5,0,0,0,.456-2.065A7.754,7.754,0,0,0,38.363,87.9l-5.632-.948a2.857,2.857,0,0,1-2.517-2.72l-.019-.824a14.973,14.973,0,0,0,4.4-9.385s0-.009,0-.015,0-.009,0-.015l.42-6.53c2.394-3.7,3.169-7.045,2.27-9.937-.807-2.6-2.938-4.776-6.351-6.5.209-.112.453-.233.737-.363a1.495,1.495,0,0,0-.1-2.757c-6.675-2.508-15.164-2.2-19.386,4.02A7.835,7.835,0,0,0,7.567,56.65c-1.066,3.064-.292,6.886,2.149,10.8l.4,6.577a14.979,14.979,0,0,0,4.423,9.41l-.021.834A2.851,2.851,0,0,1,12,86.953L6.369,87.9A7.39,7.39,0,0,0,0,95.035v23.77a1.5,1.5,0,0,0,1.5,1.5H38.168a1.5,1.5,0,1,0,0-2.991H33.8v-8.235a1.5,1.5,0,0,0-2.991,0v8.235H13.925v-8.235a1.5,1.5,0,1,0-2.991,0v8.235H2.991V95.035A4.415,4.415,0,0,1,6.865,90.85l4.86-.818,9.56,9.78a1.495,1.495,0,0,0,2.138,0l9.564-9.783,4.881.822a4.755,4.755,0,0,1,3.248,2.074,1.491,1.491,0,0,0,2.064.455ZM10.391,57.631a4.926,4.926,0,0,1,3.261-3.054,1.5,1.5,0,0,0,.794-.63c2-3.234,5.533-4.523,9.283-4.523a18.449,18.449,0,0,1,3.821.416,2.957,2.957,0,0,0-.709,1.3,1.5,1.5,0,0,0,.9,1.738c3.758,1.488,6.008,3.35,6.687,5.537a6.358,6.358,0,0,1-.133,3.8,2.44,2.44,0,0,0-.308-.326,2.294,2.294,0,0,0-1.953-.532,14.731,14.731,0,0,1-7.972-.607c-3.544-1.483-8.008-2.938-11.088-1.015a6.1,6.1,0,0,0-2.358,2.813A7.575,7.575,0,0,1,10.391,57.631Zm2.292,9.38c.157-2.466.787-4.064,1.877-4.743,1.941-1.21,5.7.124,8.393,1.255a17.461,17.461,0,0,0,9.077.855,12.028,12.028,0,0,1,.027,2.521h0l-.443,6.877A12,12,0,0,1,23.76,84.028h0a4.142,4.142,0,0,1-2.808,0A11.984,11.984,0,0,1,13.1,73.809Zm9.67,29.616-7.489-7.661a5.687,5.687,0,0,0,2.469-3.4,14.8,14.8,0,0,0,2.6,1.276,7.141,7.141,0,0,0,4.843,0,14.783,14.783,0,0,0,2.623-1.29,5.691,5.691,0,0,0,2.455,3.4Z" transform="translate(0 -46.441)" fill="#1cbbda"/>
    <path id="Path_15379_-_Outline" data-name="Path 15379 - Outline" d="M38.168,120.9H1.5a2.1,2.1,0,0,1-2.1-2.1V95.035a7.987,7.987,0,0,1,6.869-7.726l5.631-.948a2.255,2.255,0,0,0,2.015-2.092v-.015l.014-.577a15.576,15.576,0,0,1-4.415-9.6V74.06l-.389-6.426C6.647,63.6,5.892,59.637,7,56.452a8.438,8.438,0,0,1,4.8-5.009,12.429,12.429,0,0,1,5.22-4.274,16.447,16.447,0,0,1,6.715-1.327,23.184,23.184,0,0,1,8.054,1.508,2.1,2.1,0,0,1,.438,3.7c2.97,1.707,4.863,3.824,5.634,6.305.94,3.024.181,6.492-2.254,10.308L35.191,74.1a15.576,15.576,0,0,1-4.39,9.554l.014.582a2.273,2.273,0,0,0,2.016,2.128l5.632.948a8.356,8.356,0,0,1,5.679,3.683,2.1,2.1,0,1,1-3.531,2.256,4.156,4.156,0,0,0-2.842-1.805l-4.572-.77-9.345,9.558a2.095,2.095,0,0,1-3,0l-9.341-9.556-4.551.766a3.82,3.82,0,0,0-3.374,3.594V116.71h6.743v-7.635a2.1,2.1,0,0,1,4.191,0v7.635H30.207v-7.635a2.1,2.1,0,0,1,4.191,0v7.635h3.769a2.1,2.1,0,1,1,0,4.191ZM15.115,84.277A3.447,3.447,0,0,1,12.1,87.545l-5.632.948A6.792,6.792,0,0,0,.6,95.035v23.77a.9.9,0,0,0,.9.9H38.168a.9.9,0,1,0,0-1.791H33.2v-8.835a.9.9,0,0,0-1.791,0v8.835H13.325v-8.835a.9.9,0,0,0-1.791,0v8.835H2.391V95.035a5.012,5.012,0,0,1,4.375-4.777l5.169-.87,9.779,10a.895.895,0,0,0,1.279,0l9.784-10.008,5.19.875A5.356,5.356,0,0,1,41.622,92.6a.9.9,0,0,0,1.508-.966,7.154,7.154,0,0,0-4.866-3.145l-5.632-.948a3.466,3.466,0,0,1-3.017-3.3l-.025-1.076.184-.182a14.381,14.381,0,0,0,4.22-8.967s0,0,0-.007A.614.614,0,0,1,34,73.9l.427-6.635.085-.131c2.3-3.556,3.041-6.73,2.2-9.433-.756-2.431-2.791-4.5-6.048-6.138l-1.031-.52,1.018-.545c.231-.124.49-.252.771-.38a.895.895,0,0,0-.059-1.65,21.971,21.971,0,0,0-7.632-1.431c-4.834,0-8.757,1.856-11.046,5.226l-.1.152-.17.068a7.278,7.278,0,0,0-4.282,4.36c-1,2.869-.256,6.521,2.091,10.283l.081.129.407,6.722a14.379,14.379,0,0,0,4.246,9.026l.185.182Zm7.239,13.208-8.43-8.624.615-.4a5.081,5.081,0,0,0,2.213-3.038l.194-.792.7.421a14.048,14.048,0,0,0,2.492,1.225,6.541,6.541,0,0,0,4.435,0,14.051,14.051,0,0,0,2.516-1.24l.7-.423.194.794a5.09,5.09,0,0,0,2.2,3.045l.612.4Zm-6.575-8.443,6.575,6.726,6.587-6.737a6.282,6.282,0,0,1-1.889-2.584,13.99,13.99,0,0,1-2.073.96,7.741,7.741,0,0,1-5.251,0,14.014,14.014,0,0,1-2.048-.946A6.274,6.274,0,0,1,15.779,89.042Zm6.575-4.169a4.71,4.71,0,0,1-1.608-.281A12.572,12.572,0,0,1,12.5,73.859v-.014l-.415-6.835,0-.037c.17-2.674.9-4.429,2.158-5.214a4.324,4.324,0,0,1,2.313-.569,19.3,19.3,0,0,1,6.621,1.776,15.738,15.738,0,0,0,5.718,1.053,21.525,21.525,0,0,0,3.052-.234l.574-.081.1.571a12.9,12.9,0,0,1,.036,2.642v.023l-.443,6.889a12.6,12.6,0,0,1-8.249,10.765l-.1.036A4.712,4.712,0,0,1,22.354,84.873ZM13.695,73.766a11.369,11.369,0,0,0,7.459,9.7,3.542,3.542,0,0,0,2.4,0l.1-.036a11.4,11.4,0,0,0,7.363-9.7l.442-6.869c.049-.842.052-1.418.035-1.811a21.532,21.532,0,0,1-2.6.165,16.918,16.918,0,0,1-6.156-1.135l-.017-.007a18.323,18.323,0,0,0-6.166-1.686,3.166,3.166,0,0,0-1.678.387c-.9.558-1.447,2.022-1.593,4.235ZM10.547,64.2l-.495-1.456a8.1,8.1,0,0,1-.227-5.306,5.506,5.506,0,0,1,3.637-3.425.9.9,0,0,0,.477-.379,9.521,9.521,0,0,1,4.247-3.7,13.348,13.348,0,0,1,5.545-1.1,19.017,19.017,0,0,1,3.945.429l1.012.215L28,50.24a2.365,2.365,0,0,0-.572,1.04.9.9,0,0,0,.541,1.042c3.936,1.558,6.3,3.549,7.039,5.917a6.964,6.964,0,0,1-.133,4.151l-.338,1.095-.707-.9a1.836,1.836,0,0,0-.233-.246,1.669,1.669,0,0,0-1.12-.422,1.826,1.826,0,0,0-.328.03l-.016,0a20.543,20.543,0,0,1-3.244.286,13.847,13.847,0,0,1-5.034-.925l-.017-.007a20.262,20.262,0,0,0-7.292-1.891,6.042,6.042,0,0,0-3.247.831,5.483,5.483,0,0,0-2.127,2.546Zm21.928-3.48a2.893,2.893,0,0,1,1.478.406,5.25,5.25,0,0,0-.094-2.526c-.622-2-2.753-3.739-6.335-5.157A2.108,2.108,0,0,1,26.258,51a3.277,3.277,0,0,1,.275-.745,17.38,17.38,0,0,0-2.8-.234c-2.805,0-6.6.735-8.773,4.239a2.106,2.106,0,0,1-1.114.883,4.347,4.347,0,0,0-2.885,2.682,6.124,6.124,0,0,0-.137,3.144,6.37,6.37,0,0,1,1.84-1.748,7.216,7.216,0,0,1,3.882-1.012,21.3,21.3,0,0,1,7.746,1.98,12.667,12.667,0,0,0,4.6.843,19.385,19.385,0,0,0,3.052-.27A3.028,3.028,0,0,1,32.475,60.715Z" transform="translate(0 -46.441)"/>
  </g>
</svg>
