<svg xmlns="http://www.w3.org/2000/svg" width="62.871" height="62.871" viewBox="0 0 62.871 62.871">
  <g id="team-building" transform="translate(-62.5 -62.5)">
    <path id="Path_14716" data-name="Path 14716" d="M80.791,106.72a.983.983,0,0,0,0-1.967,8.531,8.531,0,0,0-8.145,6.029,5.928,5.928,0,1,0,0,8.311,8.531,8.531,0,0,0,8.145,6.028.983.983,0,1,0,0-1.967,6.557,6.557,0,0,1-6.55-6.549v-3.335A6.557,6.557,0,0,1,80.791,106.72ZM68.428,118.9a3.962,3.962,0,1,1,3.847-4.907v1.89A3.968,3.968,0,0,1,68.428,118.9Z" transform="translate(0 -21.001)" fill="#1cbbda"/>
    <path id="Path_14717" data-name="Path 14717" d="M162.411,109.008a5.91,5.91,0,0,0-4.308,1.864,8.53,8.53,0,0,0-8.17-6.119.983.983,0,1,0,0,1.967,6.557,6.557,0,0,1,6.549,6.55V116.6a6.556,6.556,0,0,1-6.549,6.549.983.983,0,1,0,0,1.967A8.529,8.529,0,0,0,158.1,119a5.926,5.926,0,1,0,4.308-9.994Zm0,9.89a3.962,3.962,0,1,1,3.962-3.962A3.967,3.967,0,0,1,162.411,118.9Z" transform="translate(-42.968 -21.001)" fill="#1cbbda"/>
    <path id="Path_14718" data-name="Path 14718" d="M124.137,149.178a.983.983,0,0,0-.983.983,6.557,6.557,0,0,1-6.55,6.55h-3.335a6.557,6.557,0,0,1-6.549-6.55.983.983,0,0,0-1.967,0,8.531,8.531,0,0,0,6.027,8.144,5.928,5.928,0,1,0,8.313,0,8.531,8.531,0,0,0,6.027-8.144A.983.983,0,0,0,124.137,149.178Zm-9.2,17.308a3.961,3.961,0,0,1-.945-7.809h1.89a3.961,3.961,0,0,1-.945,7.809Z" transform="translate(-21.001 -43.082)" fill="#1cbbda"/>
    <path id="Path_14719" data-name="Path 14719" d="M105.736,81.889a.983.983,0,0,0,.983-.983,6.557,6.557,0,0,1,6.549-6.55H116.6a6.557,6.557,0,0,1,6.55,6.55.983.983,0,1,0,1.967,0A8.529,8.529,0,0,0,119,72.736a5.928,5.928,0,1,0-8.131,0,8.529,8.529,0,0,0-6.118,8.17A.983.983,0,0,0,105.736,81.889Zm9.2-17.423a3.962,3.962,0,1,1-3.962,3.962A3.966,3.966,0,0,1,114.937,64.467Z" transform="translate(-21.001)" fill="#1cbbda"/>
    <path id="Path_14720" data-name="Path 14720" d="M113.981,102.831a11.15,11.15,0,1,0,11.15,11.15A11.163,11.163,0,0,0,113.981,102.831Zm0,20.334a9.184,9.184,0,1,1,9.184-9.184A9.194,9.194,0,0,1,113.981,123.165Z" transform="translate(-20.046 -20.046)" fill="#1cbbda"/>
  </g>
</svg>
