<svg xmlns="http://www.w3.org/2000/svg" width="51.13" height="58.705" viewBox="0 0 51.13 58.705">
  <path id="training" d="M37.7,36.4V30.6H49.117V56.7H8V48.163h9.88V42.284h9.594V36.4ZM9.611,23.9l-.877-.711a.088.088,0,0,0-.046,0,.065.065,0,0,0-.046.023l-1.5,1.846a.088.088,0,0,0,0,.046.069.069,0,0,0,.028.046l.858.688a.092.092,0,0,0,.051,0,.051.051,0,0,0,.042-.023l1.5-1.846a.06.06,0,0,0,0-.046A.065.065,0,0,0,9.6,23.88ZM7.1,15.357l3.05,2.469,1.421-1.675a.618.618,0,0,1,.411-.226.632.632,0,0,1,.461.129c.641-.734,1.278-1.486,1.906-2.224a19.5,19.5,0,0,1,1.384-1.624,8.053,8.053,0,0,1,1.481-1.278,6.576,6.576,0,0,1,1.9-.849h0a10.568,10.568,0,0,1,2.533-.328h.037c.7-.037,1.523,0,2.21,0h.849a8.43,8.43,0,0,1,6.5,3h0c.272.268.531.521.771.724a2.589,2.589,0,0,0,.678.461h0c.111.037.406-.111.734-.277h0a6.784,6.784,0,0,1,.808-.36c1.154-.531,2.335-1.172,3.484-1.643a1.629,1.629,0,0,1,.771-.115,2.173,2.173,0,0,1,.794.231,2.363,2.363,0,0,1,.5.341,2.533,2.533,0,0,1,.411.461V12.6a2.455,2.455,0,0,1,.3.568h0a2.441,2.441,0,0,1-.074,1.758,2.427,2.427,0,0,1-.351.651,2.5,2.5,0,0,1-1.135.849c-.863.42-1.73.849-2.6,1.223a12.949,12.949,0,0,1-2.27.812,6.885,6.885,0,0,1-2.709,0h-.083a7.157,7.157,0,0,1-2.8-1.638L28,21.269c.355.185.706.346,1.048.494.42.18.821.337,1.214.489h0c2.5.974,4.559,1.781,5.242,5.6.083.461.162,1.384.226,2.446.106,1.592.185,3.452.2,4.13h0a.263.263,0,0,1,0,.083.318.318,0,0,1-.3.235h-.051a2.58,2.58,0,0,1-.3.028H31.724c-.194,0-.286,0-.406-.129a.461.461,0,0,1-.1-.36V34.1c-.042-.771-.125-2.063-.208-3.23-.065-.831-.125-1.578-.175-1.975a3.318,3.318,0,0,0-.083-.406,2.081,2.081,0,0,0-.148-.365l-.042-.074c-.138-.254-.263-.489-.36-.526h0c-.18-.074-.42-.152-.7-.235S28.822,27.1,28.457,27s-.794-.2-1.237-.3l-1.052-.235c-.3,1.269-.549,2.607-.794,4.015a46.829,46.829,0,0,1-2.469,9.691.323.323,0,0,1-.4.18,5.934,5.934,0,0,1-.992.065c-.983,0-2.344,0-2.93-.037h-.129c-.2,0-.3,0-.411-.162h0a.461.461,0,0,1-.051-.392l.032-.152c.06-.309.157-.789.281-1.384l.517-2.4c.341-1.583.808-3.692,1.26-5.718.586-2.649,1.108-4.961,1.287-5.754a4.943,4.943,0,0,1-.461-.586,6.123,6.123,0,0,1-.517-.817,4.292,4.292,0,0,1-.374-1.029,3.373,3.373,0,0,1-.051-1.144l.794-6.179a1.846,1.846,0,0,0-.808.194h0a2.792,2.792,0,0,0-.683.545,9.751,9.751,0,0,0-.692.84h0c-.189.24-.388.5-.632.784-.6.692-1.2,1.412-1.8,2.109a.618.618,0,0,1-.1.614l-1.472,1.684,3.041,2.469a.872.872,0,0,1,.314.563.858.858,0,0,1-.189.637l-1.32,1.67a19.382,19.382,0,0,1-3.438-.581,17.074,17.074,0,0,1-3.207-1.2l.526-.651a.7.7,0,0,0-.1-.983l-1.015-.826h0a.7.7,0,0,0-.983.1l-.517.637A17.277,17.277,0,0,1,5.9,20.433a19.252,19.252,0,0,1-1.287-3.359L5.9,15.491a.868.868,0,0,1,1.218-.129Zm4.536,2.28-.7.821,2.875,2.307.535-.618c-.817-.7-1.943-1.707-2.663-2.46l-.051-.055Zm4.005,10.051-3.586,4.421a.84.84,0,0,1-.581.314.872.872,0,0,1-.637-.185L.312,23.719a.872.872,0,0,1-.318-.586A.844.844,0,0,1,.183,22.5L3.8,18.038A20.018,20.018,0,0,0,4.95,20.807a17.836,17.836,0,0,0,2.077,3.23l-.572.706a.7.7,0,0,0,.106.983l1.015.826a.7.7,0,0,0,.983-.1l.6-.734-.028.051a17.909,17.909,0,0,0,3.646,1.384,19.455,19.455,0,0,0,2.866.535Zm19.728,6.784ZM24.29.323A4.213,4.213,0,0,1,25.951,0a4.282,4.282,0,0,1,3.973,2.644,4.213,4.213,0,0,1,.332,1.643A4.282,4.282,0,0,1,27.613,8.26a4.213,4.213,0,0,1-1.643.332,4.324,4.324,0,0,1-1.643-.323A4.269,4.269,0,0,1,22.02,5.962a4.213,4.213,0,0,1-.337-1.657A4.282,4.282,0,0,1,24.308.332Z" transform="translate(1.013 1)" fill="none" stroke="#1cbbda" stroke-width="2"/>
</svg>
