<svg xmlns="http://www.w3.org/2000/svg" width="29.988" height="35.1" viewBox="0 0 29.988 35.1">
  <g transform="translate(-573.751 -8534)">
    <path id="ui-designer" d="M63.874,23.162c.165-.325.425-.834.683-1.345.25-.494.448-.889.589-1.175.081-.164.148-.3.195-.4a.643.643,0,0,0,.06-.629.534.534,0,0,0-.4-.284c-2.47-.369-3.525-2.081-3.525-5.725V10.764a10.764,10.764,0,0,0-21.527,0v2.842c0,3.644-1.054,5.356-3.525,5.725a.534.534,0,0,0-.4.284.643.643,0,0,0,.06.629c.046.1.113.235.195.4.141.286.34.681.589,1.175.258.511.517,1.02.683,1.345a5.065,5.065,0,0,0-1.585,3.691v5.509A2.241,2.241,0,0,0,38.213,34.6H63.222a2.241,2.241,0,0,0,2.238-2.238V26.853A5.065,5.065,0,0,0,63.874,23.162ZM37.28,20.242A4.428,4.428,0,0,0,40.121,18.1a9.158,9.158,0,0,0,.9-4.493V10.764a9.7,9.7,0,0,1,19.4,0v2.842c0,2.465.4,5.752,3.74,6.637-.287.579-.75,1.491-1.143,2.263a5.106,5.106,0,0,0-1.447-.593l-1.888-.453a.533.533,0,0,0-.643.394c-.018.077-.039.153-.06.229l-1.684-.421a1.275,1.275,0,0,1-.26-.1l-.017-.008a1.166,1.166,0,0,1-.648-1.049V19.37a8.471,8.471,0,0,0,2.842-6.333V11.9s0-.009,0-.013,0-.021,0-.032,0-.015,0-.022,0-.02,0-.029l-.005-.024c0-.009,0-.017-.007-.026l-.008-.026-.008-.022-.012-.028-.009-.019-.016-.029-.006-.011L56.285,7.071a.533.533,0,0,0-.722-.177c-.066.039-6.7,3.905-12.8,3.905a.533.533,0,0,0-.533.533v1.705a8.471,8.471,0,0,0,2.842,6.333v1.139a1.166,1.166,0,0,1-.648,1.048l-.018.009a1.27,1.27,0,0,1-.26.1l-1.684.421c-.021-.076-.042-.152-.06-.229a.533.533,0,0,0-.643-.394l-1.888.453a5.106,5.106,0,0,0-1.447.593C38.03,21.734,37.567,20.821,37.28,20.242Zm6.013-8.386c5.356-.175,10.773-2.921,12.358-3.788l2.491,3.986v.984a7.424,7.424,0,1,1-14.849,0Zm2.842,8.653v-.328a8.475,8.475,0,0,0,9.165,0v.328a2.226,2.226,0,0,0,1.238,2l.017.008a2.343,2.343,0,0,0,.478.177l1.6.4a8.631,8.631,0,0,1-2.579,3.452,8.543,8.543,0,0,1-10.67,0A8.631,8.631,0,0,1,42.8,23.1l1.6-.4a2.339,2.339,0,0,0,.478-.177l.018-.009A2.226,2.226,0,0,0,46.135,20.509ZM64.394,32.362a1.174,1.174,0,0,1-1.172,1.172H38.213a1.174,1.174,0,0,1-1.172-1.172V26.853a4,4,0,0,1,3.077-3.9l1.384-.332a9.7,9.7,0,0,0,3.214,4.763,9.609,9.609,0,0,0,12,0,9.7,9.7,0,0,0,3.214-4.763l1.384.332a4,4,0,0,1,3.077,3.9Z" transform="translate(538.027 8534.25)" fill="#1cbbda"/>
    <path id="ui-designer_-_Outline" data-name="ui-designer - Outline" d="M63.222,34.85H38.213a2.491,2.491,0,0,1-2.488-2.488V26.853a5.352,5.352,0,0,1,1.529-3.741c-.162-.319-.381-.75-.6-1.182-.248-.49-.446-.886-.59-1.176-.085-.171-.151-.307-.2-.4a.884.884,0,0,1-.057-.85.785.785,0,0,1,.581-.417,3.278,3.278,0,0,0,2.513-1.518,7.648,7.648,0,0,0,.8-3.96V10.764a11.014,11.014,0,0,1,22.027,0v2.842a7.649,7.649,0,0,0,.8,3.96,3.277,3.277,0,0,0,2.513,1.518.785.785,0,0,1,.581.417.884.884,0,0,1-.057.85c-.045.094-.111.23-.2.4-.14.284-.339.68-.59,1.177-.218.432-.437.863-.6,1.182a5.352,5.352,0,0,1,1.529,3.741v5.509A2.491,2.491,0,0,1,63.222,34.85ZM50.718.25A10.526,10.526,0,0,0,40.2,10.764v2.842a8.1,8.1,0,0,1-.873,4.222,3.79,3.79,0,0,1-2.865,1.751.284.284,0,0,0-.21.151c-.062.12-.033.2.064.407.044.094.109.227.193.4.143.289.341.684.588,1.173.258.511.517,1.02.682,1.344l.085.167-.136.128a4.847,4.847,0,0,0-1.507,3.509v5.509a1.99,1.99,0,0,0,1.988,1.988H63.222a1.99,1.99,0,0,0,1.988-1.988V26.853A4.847,4.847,0,0,0,63.7,23.343l-.136-.129.085-.167c.165-.324.424-.833.682-1.344.251-.5.448-.89.588-1.173.084-.171.149-.3.193-.4.1-.2.126-.287.064-.407a.284.284,0,0,0-.21-.151A3.789,3.789,0,0,1,62.1,17.827a8.1,8.1,0,0,1-.873-4.222V10.764A10.526,10.526,0,0,0,50.718.25Zm12.5,33.534H38.213a1.424,1.424,0,0,1-1.422-1.422V26.853a4.251,4.251,0,0,1,3.269-4.146l1.614-.387.068.226a9.495,9.495,0,0,0,3.13,4.64,9.359,9.359,0,0,0,11.69,0,9.495,9.495,0,0,0,3.13-4.64l.068-.226,1.614.387a4.251,4.251,0,0,1,3.269,4.146v5.509A1.424,1.424,0,0,1,63.222,33.784ZM41.334,22.915l-1.157.278a3.753,3.753,0,0,0-2.886,3.66v5.509a.923.923,0,0,0,.922.922H63.222a.923.923,0,0,0,.922-.922V26.853a3.753,3.753,0,0,0-2.886-3.66L60.1,22.915a10.006,10.006,0,0,1-3.226,4.66,9.859,9.859,0,0,1-12.315,0A10.006,10.006,0,0,1,41.334,22.915Zm9.384,5.754a8.7,8.7,0,0,1-5.491-1.925,8.879,8.879,0,0,1-2.654-3.552l-.11-.267,1.88-.47a2.088,2.088,0,0,0,.427-.158l.018-.009a1.977,1.977,0,0,0,1.1-1.778v-.786l.385.248a8.225,8.225,0,0,0,8.894,0l.385-.248v.786a1.978,1.978,0,0,0,1.1,1.778l.017.008a2.093,2.093,0,0,0,.427.158l1.88.47-.11.267a8.878,8.878,0,0,1-2.654,3.552A8.7,8.7,0,0,1,50.718,28.669Zm-7.568-5.4a8.374,8.374,0,0,0,2.39,3.086,8.293,8.293,0,0,0,10.357,0,8.374,8.374,0,0,0,2.39-3.086l-1.314-.329a2.592,2.592,0,0,1-.529-.2l-.017-.008a2.474,2.474,0,0,1-1.374-2.11,8.727,8.727,0,0,1-8.67,0,2.473,2.473,0,0,1-1.373,2.11l-.018.009a2.588,2.588,0,0,1-.529.2Zm-4.827-.408L38.2,22.62c-.228-.447-.795-1.563-1.144-2.266l-.136-.274.3-.079A4.192,4.192,0,0,0,39.9,17.976a8.927,8.927,0,0,0,.867-4.371V10.764a9.948,9.948,0,0,1,19.9,0v2.842c0,2.341.368,5.55,3.554,6.4l.3.079-.136.274c-.353.711-.918,1.821-1.144,2.266l-.122.239-.23-.139a4.856,4.856,0,0,0-1.376-.564L59.619,21.7a.283.283,0,0,0-.341.209c-.016.067-.034.133-.052.2l-.074.273L57.23,21.9a1.524,1.524,0,0,1-.311-.115l-.017-.008a1.415,1.415,0,0,1-.787-1.272V19.258l.083-.075a8.252,8.252,0,0,0,2.758-6.146v-1.13s0-.008,0-.012,0-.012,0-.018v-.012c0-.006,0-.011,0-.016l0-.013,0-.013,0-.015,0-.011-.007-.015,0-.01-.008-.015-.007-.012L56.073,7.2a.283.283,0,0,0-.383-.094,34.128,34.128,0,0,1-4.172,1.984,24.942,24.942,0,0,1-8.757,1.956.283.283,0,0,0-.283.283v1.705a8.252,8.252,0,0,0,2.758,6.146l.083.075v1.251a1.414,1.414,0,0,1-.786,1.272l-.018.009a1.521,1.521,0,0,1-.311.115l-1.922.48-.074-.273c-.018-.066-.036-.133-.052-.2a.281.281,0,0,0-.127-.175.285.285,0,0,0-.214-.034l-1.888.453a4.857,4.857,0,0,0-1.376.564ZM37.637,20.4c.289.577.659,1.307.89,1.761a5.358,5.358,0,0,1,1.284-.489l1.888-.453a.788.788,0,0,1,.592.094.778.778,0,0,1,.348.47l1.444-.361a1.021,1.021,0,0,0,.209-.077l.018-.009a.917.917,0,0,0,.509-.825V19.481a8.752,8.752,0,0,1-2.842-6.444V11.332a.784.784,0,0,1,.783-.783c6.058,0,12.609-3.831,12.675-3.87a.783.783,0,0,1,1.062.259l2.842,4.547.011.019.021.039.014.029c.006.013.012.027.018.041l.012.032c0,.013.009.026.012.039s.007.025.01.039.005.023.007.035,0,.029.007.044,0,.02,0,.031,0,.029,0,.043,0,.016,0,.024v1.137a8.752,8.752,0,0,1-2.842,6.444v1.028a.917.917,0,0,0,.51.825l.016.008a1.024,1.024,0,0,0,.209.077l1.444.361a.778.778,0,0,1,.348-.47.789.789,0,0,1,.592-.094l1.888.453a5.357,5.357,0,0,1,1.284.489c.23-.452.6-1.181.89-1.761A4.694,4.694,0,0,1,60.8,17.613a10.658,10.658,0,0,1-.639-4.007V10.764a9.448,9.448,0,0,0-18.9,0v2.842a9.391,9.391,0,0,1-.931,4.616A4.624,4.624,0,0,1,37.637,20.4Zm13.081.314a7.683,7.683,0,0,1-7.674-7.674V11.614l.242-.008C48.594,11.432,54,8.686,55.531,7.848l.207-.113,2.654,4.246v1.056A7.683,7.683,0,0,1,50.718,20.712ZM43.543,12.1v.941a7.174,7.174,0,1,0,14.349,0v-.912L55.563,8.4C53.8,9.344,48.664,11.856,43.543,12.1Z" transform="translate(538.027 8534.25)" fill="#1cbbda"/>
  </g>
</svg>
