<svg xmlns="http://www.w3.org/2000/svg" width="61" height="61" viewBox="0 0 61 61">
  <g id="understanding" transform="translate(0.5 0.5)">
    <path id="Shape" d="M23.263,26.747a1.771,1.771,0,0,1,1.778,1.765,8.291,8.291,0,0,1-2.6,6.026v5.914a7.986,7.986,0,0,1-.618,3.087,11.236,11.236,0,0,1,6.772,10.28v4.416A1.771,1.771,0,0,1,26.817,60H1.777A1.771,1.771,0,0,1,0,58.235V53.819a11.236,11.236,0,0,1,6.772-10.28,7.994,7.994,0,0,1-.618-3.087V34.834A8.125,8.125,0,0,1,14.3,26.747ZM19.688,46.506a8.164,8.164,0,0,1-10.783,0A7.71,7.71,0,0,0,3.555,53.82v2.65H25.04V53.819A7.71,7.71,0,0,0,19.688,46.506ZM45.7,20.547a8.125,8.125,0,0,1,8.144,8.088v5.618a8,8,0,0,1-.618,3.087A11.236,11.236,0,0,1,60,47.62v4.415A1.771,1.771,0,0,1,58.223,53.8H33.183a1.771,1.771,0,0,1-1.777-1.765V47.62a11.236,11.236,0,0,1,6.772-10.28,8,8,0,0,1-.618-3.087V28.338a8.292,8.292,0,0,1-2.6-6.026,1.772,1.772,0,0,1,1.778-1.766Zm5.392,19.759a8.164,8.164,0,0,1-10.783,0A7.71,7.71,0,0,0,34.96,47.62v2.65H56.445V47.62A7.71,7.71,0,0,0,51.094,40.306ZM18.886,36.55a8.421,8.421,0,0,1-2.247.305H9.708v3.6a4.589,4.589,0,0,0,9.177,0Zm22.229-6.2v3.9a4.589,4.589,0,0,0,9.177,0v-3.6H43.361A8.421,8.421,0,0,1,41.114,30.351Zm-19.966-.074H14.3a4.6,4.6,0,0,0-4.33,3.048h6.672A4.854,4.854,0,0,0,21.148,30.277Zm24.555-6.2h-6.85a4.853,4.853,0,0,0,4.508,3.047h6.672A4.6,4.6,0,0,0,45.7,24.078ZM31.131,0a3.812,3.812,0,0,1,3.821,3.794V17.218a3.812,3.812,0,0,1-3.821,3.795H29.164v4.133a1.776,1.776,0,0,1-1.777,1.766,1.783,1.783,0,0,1-1.268-.528L20.8,21.013H10.061a3.812,3.812,0,0,1-3.821-3.795V3.794A3.812,3.812,0,0,1,10.061,0Zm0,3.53H10.061a.265.265,0,0,0-.266.264V17.218a.265.265,0,0,0,.266.264H21.549a1.784,1.784,0,0,1,1.268.528l2.791,2.821V19.248a1.772,1.772,0,0,1,1.778-1.766h3.745a.265.265,0,0,0,.266-.264V3.794A.265.265,0,0,0,31.131,3.53Zm-8.51,1.219a4.059,4.059,0,0,1,4.068,4.04c0,3.941-4.705,6.6-5.242,6.89a1.788,1.788,0,0,1-1.7,0c-.536-.29-5.242-2.949-5.242-6.89A4.075,4.075,0,0,1,20.6,5.284,4.082,4.082,0,0,1,22.621,4.749Zm0,3.53a.515.515,0,0,0-.454.272,1.783,1.783,0,0,1-3.14,0,.514.514,0,0,0-.967.237c0,1.145,1.4,2.449,2.537,3.252,1.139-.8,2.537-2.107,2.537-3.252A.512.512,0,0,0,22.621,8.28Z" transform="translate(0 0)" fill="#1cbbda"/>
    <path id="Shape_-_Outline" data-name="Shape - Outline" d="M10.061-.5H31.131a4.313,4.313,0,0,1,4.321,4.294V17.218a4.313,4.313,0,0,1-4.321,4.295H29.664v3.633a2.276,2.276,0,0,1-2.277,2.266,2.3,2.3,0,0,1-1.624-.677L20.6,21.513H10.061a4.313,4.313,0,0,1-4.321-4.295V3.794A4.312,4.312,0,0,1,10.061-.5ZM31.131,20.513a3.312,3.312,0,0,0,3.321-3.295V3.794A3.311,3.311,0,0,0,31.131.5H10.061A3.311,3.311,0,0,0,6.741,3.794V17.218a3.312,3.312,0,0,0,3.321,3.295H21.013l5.461,5.518a1.291,1.291,0,0,0,.913.38,1.276,1.276,0,0,0,1.277-1.266V20.513ZM10.061,3.03H31.131a.766.766,0,0,1,.766.764V17.218a.766.766,0,0,1-.766.764H27.386a1.273,1.273,0,0,0-1.278,1.266v2.8l-3.647-3.685a1.292,1.292,0,0,0-.913-.38H10.061a.766.766,0,0,1-.766-.764V3.794A.766.766,0,0,1,10.061,3.03Zm20.836,1H10.3V16.982H21.549a2.3,2.3,0,0,1,1.624.677l1.936,1.956v-.367a2.274,2.274,0,0,1,2.278-2.266H30.9Zm-12.325.219a4.6,4.6,0,0,1,2.024.469,4.575,4.575,0,0,1,6.592,4.071c0,4.23-4.941,7.025-5.5,7.33a2.288,2.288,0,0,1-2.176,0c-.563-.3-5.5-3.1-5.5-7.33A4.559,4.559,0,0,1,18.572,4.249ZM20.6,5.859l-.248-.141A3.575,3.575,0,0,0,15,8.789c0,3.651,4.47,6.175,4.98,6.451a1.288,1.288,0,0,0,1.225,0c.509-.276,4.979-2.8,4.979-6.45a3.575,3.575,0,0,0-5.345-3.071ZM18.572,7.78a1.017,1.017,0,0,1,.895.536,1.283,1.283,0,0,0,2.259,0,1.013,1.013,0,0,1,1.908.473c0,1.554-1.922,3.078-2.749,3.661l-.288.2-.288-.2c-.826-.583-2.749-2.107-2.749-3.661A1.012,1.012,0,0,1,18.572,7.78ZM20.6,11.423c1.247-.94,2.037-1.954,2.037-2.634a.012.012,0,0,0-.013-.009h-.005a.031.031,0,0,0-.008.008,2.283,2.283,0,0,1-4.022,0,.039.039,0,0,0-.009-.007c-.013,0-.017.006-.017.009C18.559,9.469,19.349,10.482,20.6,11.423Zm16.141,8.624H45.7a8.626,8.626,0,0,1,8.644,8.588v5.618a8.468,8.468,0,0,1-.483,2.829A11.729,11.729,0,0,1,60.5,47.62v4.415A2.274,2.274,0,0,1,58.223,54.3H33.183a2.274,2.274,0,0,1-2.277-2.265V47.62a11.729,11.729,0,0,1,6.637-10.539,8.466,8.466,0,0,1-.483-2.829v-5.7a8.731,8.731,0,0,1-2.6-6.237A2.274,2.274,0,0,1,36.737,20.047ZM58.223,53.3A1.273,1.273,0,0,0,59.5,52.035V47.62A10.734,10.734,0,0,0,53.028,37.8l-.451-.2.189-.454a7.479,7.479,0,0,0,.58-2.895V28.635A7.625,7.625,0,0,0,45.7,21.047H36.737a1.273,1.273,0,0,0-1.278,1.266A7.748,7.748,0,0,0,37.9,27.976l.156.148v6.129a7.476,7.476,0,0,0,.58,2.895l.19.454-.451.2a10.734,10.734,0,0,0-6.472,9.822v4.415A1.273,1.273,0,0,0,33.183,53.3ZM38.115,23.578H45.7a5.1,5.1,0,0,1,4.8,3.38l.237.667h-7.38a5.353,5.353,0,0,1-4.973-3.362Zm11.139,3.047A4.1,4.1,0,0,0,45.7,24.578H39.662a4.328,4.328,0,0,0,3.7,2.047ZM14.3,26.247h8.965a2.274,2.274,0,0,1,2.278,2.265,8.73,8.73,0,0,1-2.6,6.237v5.7a8.462,8.462,0,0,1-.483,2.829,11.728,11.728,0,0,1,6.637,10.538v4.416A2.274,2.274,0,0,1,26.817,60.5H1.777A2.274,2.274,0,0,1-.5,58.235V53.819A11.728,11.728,0,0,1,6.137,43.281a8.466,8.466,0,0,1-.483-2.829V34.834A8.625,8.625,0,0,1,14.3,26.247ZM26.817,59.5a1.273,1.273,0,0,0,1.277-1.265V53.819A10.734,10.734,0,0,0,21.623,44l-.451-.2.19-.454a7.468,7.468,0,0,0,.579-2.894V34.323l.156-.148a7.746,7.746,0,0,0,2.444-5.663,1.273,1.273,0,0,0-1.278-1.265H14.3a7.624,7.624,0,0,0-7.644,7.587v5.618a7.475,7.475,0,0,0,.58,2.895l.19.454-.451.2A10.734,10.734,0,0,0,.5,53.819v4.416A1.273,1.273,0,0,0,1.777,59.5Zm13.8-29.806.633.175a7.933,7.933,0,0,0,2.113.287h7.431v4.1a5.089,5.089,0,0,1-10.177,0Zm9.177,1.462H43.361a8.921,8.921,0,0,1-1.747-.173v3.27a4.089,4.089,0,0,0,8.177,0ZM14.3,29.777h7.588l-.273.685a5.354,5.354,0,0,1-4.973,3.363H9.26l.236-.667A5.1,5.1,0,0,1,14.3,29.777Zm6.041,1H14.3a4.1,4.1,0,0,0-3.552,2.048h5.893A4.329,4.329,0,0,0,20.339,30.777Zm-.953,5.116v4.559a5.089,5.089,0,0,1-10.177,0v-4.1h7.431a7.933,7.933,0,0,0,2.113-.287ZM14.3,44.509a4.078,4.078,0,0,0,4.089-4.057v-3.27a8.921,8.921,0,0,1-1.747.173H10.208v3.1A4.078,4.078,0,0,0,14.3,44.509Zm36.681-4.766.271.088a8.223,8.223,0,0,1,4.086,2.931,8.081,8.081,0,0,1,1.611,4.858v3.15H34.46V47.62a8.081,8.081,0,0,1,1.611-4.858,8.223,8.223,0,0,1,4.086-2.931l.271-.088.214.188a7.664,7.664,0,0,0,10.122,0ZM45.7,42.84a8.661,8.661,0,0,1-5.5-1.968A7.179,7.179,0,0,0,35.46,47.62v2.15H55.945V47.62A7.179,7.179,0,0,0,51.2,40.872,8.659,8.659,0,0,1,45.7,42.84Zm-36.681,3.1.214.188a7.664,7.664,0,0,0,10.122,0l.214-.188.271.088a8.223,8.223,0,0,1,4.086,2.931,8.08,8.08,0,0,1,1.611,4.858V56.97H3.055V53.82a8.081,8.081,0,0,1,1.611-4.858A8.223,8.223,0,0,1,8.752,46.03ZM24.54,55.97V53.819A7.179,7.179,0,0,0,19.8,47.071a8.664,8.664,0,0,1-11,0A7.18,7.18,0,0,0,4.055,53.82v2.15Z" transform="translate(0 0)"/>
  </g>
</svg>
