<svg xmlns="http://www.w3.org/2000/svg" width="60" height="60" viewBox="0 0 60 60" fill="none">
  <path d="M29.1208 59.9308C28.1888 59.7746 26.6798 58.8797 26.0508 58.1102C25.7808 57.7799 20.8074 50.8989 14.999 42.8192C2.94093 26.0462 3.56442 27.0366 3.56442 24.6548C3.56442 22.2872 3.24395 22.7724 11.6885 12.3546C14.2429 9.20329 14.6486 8.80692 15.883 8.2564C16.5753 7.94769 16.6012 7.94676 25.8969 7.89804C32.2342 7.86483 35.3513 7.89646 35.6371 7.99675C35.9019 8.08972 36.1079 8.27598 36.1939 8.50025C36.3837 8.99484 36.3667 9.16859 36.0875 9.59017L35.8445 9.95707H33.789C31.9516 9.95707 31.741 9.98075 31.8055 10.1802C31.8685 10.3753 38.5832 22.2474 38.7885 22.5268C38.8319 22.5858 40.1733 19.9957 41.7695 16.7712C44.481 11.2935 44.6576 10.8957 44.4576 10.7166C43.8945 10.2123 43.1956 10.0585 41.1643 9.99181C39.1703 9.92637 39.1366 9.92013 38.9076 9.57433C38.4375 8.86445 38.7407 8.11012 39.5704 7.92522C39.8122 7.87136 40.7779 7.86526 41.7164 7.91165C44.0484 8.02696 44.973 8.40568 46.1574 9.73077C47.025 10.7015 55.3116 21.0303 55.6558 21.5701C56.2585 22.5153 56.4213 23.1669 56.4286 24.6646C56.4396 26.8878 56.3762 27.0019 50.9442 34.5458C46.4405 40.8004 46.3858 40.8697 45.9507 40.8697C45.4052 40.8697 45.1215 40.5305 45.1264 39.884C45.1295 39.4606 45.6325 38.7104 49.6459 33.1415C53.5378 27.7414 54.6185 26.1385 54.6185 25.766C54.6185 25.7241 51.23 25.706 47.0885 25.7257L39.5584 25.7615L36.1389 41.1482C34.2581 49.6109 32.733 56.5521 32.7497 56.5731C32.7665 56.5941 35.0265 53.485 37.772 49.664C40.6576 45.6482 42.8711 42.6835 43.0181 42.6379C43.6033 42.4561 44.1015 42.9718 44.046 43.7019C44.0147 44.1123 43.3004 45.1741 39.3787 50.6392C36.832 54.1882 34.5109 57.3991 34.2206 57.7745C32.9252 59.4498 31.0306 60.2508 29.1208 59.9308ZM30.5566 57.823C30.645 57.6908 33.9476 42.9704 37.7108 25.9356C37.7616 25.7053 37.3378 25.6919 30.0137 25.6919C25.7507 25.6919 22.2628 25.7225 22.2628 25.7599C22.2628 26.0304 29.3524 57.6866 29.4435 57.823C29.5075 57.9187 29.7579 57.997 30 57.997C30.2421 57.997 30.4926 57.9187 30.5566 57.823ZM23.8611 41.1482L20.4416 25.7615L12.9115 25.7257C8.77001 25.7059 5.38371 25.7373 5.38642 25.7953C5.38912 25.8533 5.48144 26.1008 5.59157 26.3454C5.78684 26.7789 27.1893 56.6496 27.2501 56.5733C27.2669 56.5522 25.7419 49.6109 23.8611 41.1482ZM19.4492 23.4699C19.4492 23.322 14.3306 12.9128 14.1237 12.6399C14.0241 12.5085 13.057 13.6328 10.0099 17.4225C6.05936 22.3357 5.49873 23.0817 5.49873 23.4252C5.49873 23.5677 6.8898 23.6032 12.474 23.6032C16.8379 23.6032 19.4492 23.5533 19.4492 23.4699ZM37.1511 23.4802C37.1511 23.2812 30.114 11.0014 30 11.0014C29.886 11.0014 22.8489 23.2812 22.8489 23.4802C22.8489 23.55 25.9416 23.6032 30 23.6032C34.0584 23.6032 37.1511 23.55 37.1511 23.4802ZM54.5005 23.4291C54.4992 23.0841 54.03 22.4594 50.0501 17.5C46.9228 13.6031 45.9792 12.504 45.876 12.6382C45.6725 12.903 40.5508 23.3231 40.5508 23.4724C40.5508 23.5525 43.2558 23.6032 47.526 23.6032C53.0285 23.6032 54.5011 23.5665 54.5005 23.4291ZM24.7055 16.4116C26.5848 13.1072 28.1559 10.2998 28.1969 10.173C28.2657 9.95981 27.8368 9.94586 22.5415 9.98908C17.4143 10.0309 16.756 10.0616 16.284 10.2804C15.1612 10.8009 14.986 10.2167 18.2305 16.7712C19.8267 19.9957 21.1678 22.5858 21.2107 22.5268C21.2535 22.4678 22.8262 19.716 24.7055 16.4116ZM0.276629 13.7927C-0.0684489 13.3828 -0.0917427 12.8912 0.212724 12.4441C0.428374 12.1274 0.50468 12.1138 2.29726 12.0714C4.05054 12.03 4.17636 12.0446 4.47665 12.3252C4.8735 12.696 4.91423 13.4363 4.56089 13.856C4.34591 14.1113 4.17012 14.1345 2.4454 14.1345C0.604572 14.1345 0.558229 14.1271 0.276629 13.7927ZM55.4391 13.856C55.0858 13.4363 55.1265 12.696 55.5233 12.3252C55.8236 12.0446 55.9495 12.03 57.7027 12.0714C59.4953 12.1138 59.5716 12.1274 59.7873 12.4441C60.0917 12.8912 60.0684 13.3828 59.7234 13.7927C59.4418 14.1272 59.3954 14.1345 57.5546 14.1345C55.8299 14.1345 55.6541 14.1113 55.4391 13.856ZM4.35382 6.57817C3.21973 5.22727 3.03688 4.94694 3.03688 4.5591C3.03688 3.97603 3.3925 3.55174 3.8812 3.55174C4.44156 3.55174 6.90551 6.4784 6.90551 7.144C6.90551 7.72651 6.54845 8.14687 6.05367 8.14687C5.72186 8.14687 5.49498 7.93749 4.35382 6.57817ZM53.329 7.86838C53.1921 7.70585 53.0945 7.40422 53.0945 7.144C53.0945 6.76146 53.2826 6.47462 54.4189 5.12493C55.5553 3.77524 55.7967 3.55174 56.1188 3.55174C56.6092 3.55174 56.9631 3.97586 56.9631 4.56355C56.9631 4.95767 56.7868 5.22715 55.6424 6.58262C54.5051 7.92969 54.2691 8.14687 53.9426 8.14687C53.7197 8.14687 53.4668 8.03206 53.329 7.86838ZM10.4888 5.45346C10.1915 5.10035 10.188 5.07035 10.188 2.92231C10.188 1.65633 10.2399 0.633247 10.3123 0.472508C10.4949 0.0673157 10.9828 -0.115157 11.3718 0.0762447C11.8836 0.32807 11.9678 0.789512 11.9258 3.11345C11.8841 5.4193 11.8427 5.56064 11.1613 5.72251C10.8604 5.79399 10.7324 5.74277 10.4888 5.45346ZM48.5501 5.63535C48.4041 5.56567 48.2326 5.34625 48.1691 5.14775C48.008 4.6444 48.0214 1.00292 48.186 0.573913C48.457 -0.132589 49.3868 -0.195371 49.6877 0.472508C49.7601 0.633247 49.812 1.65633 49.812 2.92231C49.812 5.04464 49.8052 5.10421 49.5243 5.4379C49.2217 5.79736 48.9886 5.8446 48.5501 5.63535Z" fill="white"/>
</svg>