<svg xmlns="http://www.w3.org/2000/svg" width="92.21" height="85.425" viewBox="0 0 92.21 85.425">
  <g transform="translate(2 4.5)">
    <path id="waterfall" d="M0,1V9.482c13.553,0,20.07,2.415,20.356,13.571V38.32c0,13.571,10.178,20.356,16.963,20.356,0,0-6.785-6.785-6.785-20.356V23.052a18.7,18.7,0,0,0-5.3-13.571c8.506,0,15.217,3.549,15.479,13.571V38.32c0,13.571,10.178,20.356,16.963,20.356,0,0-6.785-6.785-6.785-20.356V23.052c0-6.2-1.645-10.572-4.029-13.571,7.422,0,14.207,3.735,14.207,13.571V38.32c0,13.571,10.178,20.356,16.963,20.356,0,0-6.785-6.785-6.785-20.356V23.052C71.247,2.7,54.283,1,47.5,1ZM20.356,65.461c-3.623,0-10.126,6.785-13.571,6.785V82.425c3.645,0,10.351-6.785,13.571-6.785,3.421,0,9.948,6.785,13.571,6.785,3.226,0,10.126-6.785,13.571-6.785,3.421,0,10.326,6.785,13.571,6.785,3.421,0,10.351-6.785,13.571-6.785s10.149,6.785,13.571,6.785V72.247c-2.818,0-9.948-6.987-13.571-6.785-3.245,0-9.942,6.785-13.571,6.785-3.019,0-10.149-6.785-13.571-6.785s-10.545,6.785-13.571,6.785C30.7,72.247,23.979,65.461,20.356,65.461Z" transform="translate(0 -3.5)" fill="#1cbbda"/>
    <path id="waterfall_-_Outline" data-name="waterfall - Outline" d="M-2-1H47.5c4.171,0,10.234.636,15.427,3.665a19.531,19.531,0,0,1,7.31,7.375,26.329,26.329,0,0,1,3.013,13.013V38.32c0,12.6,6.138,18.88,6.2,18.942l3.414,3.414H78.032a15.811,15.811,0,0,1-6.325-1.445A20.579,20.579,0,0,1,65.591,55a21.594,21.594,0,0,1-4.673-7.006,25.021,25.021,0,0,1-1.85-9.675V23.052c0-7.591-4.51-10.26-8.383-11.152A26.169,26.169,0,0,1,52.89,23.052V38.32a32.143,32.143,0,0,0,3.1,14.2,19.9,19.9,0,0,0,3.106,4.743l3.486,3.424-4.9-.013a15.811,15.811,0,0,1-6.325-1.445A20.579,20.579,0,0,1,45.235,55a21.594,21.594,0,0,1-4.673-7.006,25.021,25.021,0,0,1-1.85-9.675V23.079c-.111-4.068-1.413-7.092-3.87-8.987a12.368,12.368,0,0,0-5.251-2.223,21.323,21.323,0,0,1,2.942,11.183V38.32a32.143,32.143,0,0,0,3.1,14.2,19.9,19.9,0,0,0,3.106,4.743l3.486,3.424-4.9-.013a15.811,15.811,0,0,1-6.325-1.445A20.579,20.579,0,0,1,24.879,55a21.594,21.594,0,0,1-4.673-7.006,25.021,25.021,0,0,1-1.85-9.675V23.079c-.126-4.751-1.43-7.613-4.226-9.276C11.432,12.2,7.074,11.482,0,11.482H-2ZM73.458,55.632q-.3-.543-.607-1.151a33.117,33.117,0,0,1-2.484-6.771,38.765,38.765,0,0,1-1.12-9.391V23.052C69.246,6.479,57.419,3,47.5,3H2V7.5c6.77.139,11.073,1.018,14.176,2.863a11.393,11.393,0,0,1,4.588,4.994A18.547,18.547,0,0,1,22.355,23V38.32c0,7.027,2.91,11.412,5.351,13.853a16.252,16.252,0,0,0,5.038,3.459q-.3-.543-.607-1.151a33.118,33.118,0,0,1-2.484-6.771,38.765,38.765,0,0,1-1.12-9.391V23.052A16.641,16.641,0,0,0,23.8,10.875L20.5,7.482h4.73c5.036,0,9.091,1.159,12.053,3.444A13.035,13.035,0,0,1,41.2,15.871,18.187,18.187,0,0,1,42.712,23V38.32c0,7.027,2.91,11.412,5.351,13.853A16.252,16.252,0,0,0,53.1,55.632q-.3-.543-.607-1.151A33.117,33.117,0,0,1,50.01,47.71a38.765,38.765,0,0,1-1.12-9.391V23.052c0-5.178-1.209-9.326-3.595-12.326L42.717,7.482h4.144A17.274,17.274,0,0,1,58.02,11.036a13.107,13.107,0,0,1,3.707,4.951,17.68,17.68,0,0,1,1.341,7.066V38.32c0,7.027,2.91,11.412,5.351,13.853A16.252,16.252,0,0,0,73.458,55.632ZM74.8,63.457c2.568,0,5.676,2.077,8.681,4.085,1.123.751,2.184,1.46,3.1,1.982a5,5,0,0,0,1.637.723H90.21V84.425h-2c-2.339,0-5.128-1.847-8.081-3.8-1.256-.832-2.443-1.617-3.5-2.2a5.02,5.02,0,0,0-1.986-.786,5.02,5.02,0,0,0-1.986.787c-1.06.579-2.247,1.365-3.5,2.2-2.953,1.955-5.743,3.8-8.081,3.8-2.2,0-4.761-1.7-7.723-3.658-1.243-.824-2.528-1.676-3.648-2.284a5.4,5.4,0,0,0-2.2-.843,5.447,5.447,0,0,0-2.224.85c-1.127.611-2.416,1.466-3.663,2.293-2.948,1.954-5.493,3.642-7.683,3.642-2.449,0-5.188-1.85-8.088-3.808C24.61,79.786,23.448,79,22.4,78.425a4.934,4.934,0,0,0-2.042-.786,4.748,4.748,0,0,0-1.9.754c-1.02.562-2.167,1.33-3.382,2.143-2.986,2-5.806,3.888-8.293,3.888h-2V70.246h2a4.956,4.956,0,0,0,2.058-.789c1.053-.578,2.215-1.364,3.446-2.2,2.89-1.954,5.62-3.8,8.067-3.8,2.471,0,5.286,1.884,8.266,3.878,1.219.816,2.37,1.586,3.4,2.15a4.779,4.779,0,0,0,1.909.758,4.92,4.92,0,0,0,1.85-.757c1.033-.565,2.208-1.336,3.451-2.152,3.038-1.994,5.908-3.877,8.269-3.877s5.234,1.884,8.276,3.88c1.243.815,2.417,1.585,3.449,2.15a4.915,4.915,0,0,0,1.846.756,5.586,5.586,0,0,0,2.34-.872c1.145-.621,2.437-1.487,3.687-2.324,2.85-1.909,5.315-3.561,7.487-3.589C74.653,63.458,74.724,63.457,74.8,63.457ZM86.21,73.8a31.107,31.107,0,0,1-4.956-2.933c-1.316-.88-2.678-1.789-3.906-2.457a6.1,6.1,0,0,0-2.552-.954H74.75l-.055,0h-.056a4.788,4.788,0,0,0-1.92.76c-1.026.565-2.178,1.336-3.4,2.153-2.973,1.992-5.781,3.873-8.254,3.873-2.06,0-4.576-1.65-7.489-3.561-1.285-.843-2.614-1.715-3.78-2.343a5.706,5.706,0,0,0-2.3-.881,5.7,5.7,0,0,0-2.3.88c-1.164.628-2.492,1.5-3.776,2.342-2.915,1.913-5.432,3.564-7.5,3.564-2.174,0-4.655-1.66-7.529-3.583-1.253-.838-2.549-1.705-3.7-2.328a5.605,5.605,0,0,0-2.345-.874,5.33,5.33,0,0,0-2.25.84c-1.107.6-2.362,1.453-3.576,2.274a27.512,27.512,0,0,1-5.744,3.295v5.868q.173-.088.363-.191c1.152-.625,2.449-1.494,3.7-2.334,2.863-1.917,5.336-3.573,7.5-3.573,2.3,0,4.933,1.779,7.722,3.663,1.218.823,2.478,1.673,3.589,2.279a5.359,5.359,0,0,0,2.26.843,5,5,0,0,0,1.981-.784c1.057-.578,2.239-1.362,3.492-2.192,2.954-1.959,5.745-3.809,8.1-3.809,2.336,0,5.115,1.842,8.058,3.793,1.258.834,2.445,1.621,3.509,2.2a5.04,5.04,0,0,0,2,.79,5.434,5.434,0,0,0,2.211-.847c1.125-.61,2.415-1.464,3.662-2.29,2.956-1.957,5.51-3.648,7.7-3.648s4.741,1.691,7.7,3.648c1.247.826,2.537,1.68,3.662,2.29l.211.113Z" transform="translate(0 -3.5)" fill="#18191b"/>
  </g>
</svg>
