<svg width="372" height="276" viewBox="0 0 372 276" fill="none" xmlns="http://www.w3.org/2000/svg">
<g opacity="0.1">
<path d="M154.554 91.5256C155.093 93.1794 155.827 94.763 156.74 96.243C157.167 96.9142 157.675 97.53 158.253 98.0766C158.826 98.6137 159.447 99.0978 160.107 99.523C160.782 99.9668 161.501 100.34 162.253 100.637C163.078 100.943 163.938 101.145 164.813 101.239C165.689 101.323 166.572 101.302 167.443 101.177C168.302 101.053 169.154 100.879 169.994 100.656C171.742 100.245 173.437 99.6306 175.043 98.8261C175.105 98.7894 175.159 98.7409 175.202 98.6833C175.245 98.6256 175.277 98.56 175.294 98.4902C175.312 98.4205 175.315 98.3479 175.304 98.2768C175.294 98.2057 175.269 98.1374 175.232 98.0758C175.156 97.9528 175.035 97.8643 174.895 97.8291C174.755 97.794 174.606 97.815 174.481 97.8876C174.238 98.0095 173.984 98.1315 173.736 98.2434L173.532 98.325C173.544 98.2489 173.543 98.1713 173.53 98.0954C173.476 97.9127 173.355 97.757 173.192 97.6591C173.107 97.6097 173.014 97.5783 172.916 97.5671C172.819 97.5559 172.721 97.5651 172.627 97.5941L171.255 98.1798C170.962 98.3071 170.663 98.4444 170.365 98.5468C170.066 98.6491 169.693 98.7971 169.369 98.8847C168.812 99.0342 168.264 99.1786 167.696 99.2733C167.187 99.3301 166.674 99.3345 166.164 99.2864C165.652 99.2081 165.149 99.0786 164.663 98.9C163.62 98.4325 162.635 97.8446 161.729 97.1485C160.781 96.4253 159.92 95.5954 159.162 94.6752C158.36 93.6294 157.68 92.4949 157.137 91.2939C156.118 88.9033 155.768 86.2809 156.124 83.7068C156.502 81.28 157.182 78.9102 158.15 76.6526C158.507 75.8011 158.914 74.9692 159.301 74.1474L159.747 73.1853C159.879 72.8997 160.036 72.6239 160.184 72.3432L161.49 69.8366C162.552 67.7995 163.777 65.8514 165.153 64.0111C165.985 62.9279 166.881 61.8953 167.836 60.9188C168.782 59.9624 169.786 59.0655 170.843 58.233C173.781 55.9158 176.995 53.9706 180.41 52.4417C183.408 51.198 186.549 50.3329 189.76 49.8662C192.019 49.5302 194.31 49.4753 196.581 49.703C198.661 50.0062 200.697 50.5602 202.644 51.3529C203.771 51.8307 204.868 52.378 205.927 52.9916C207.07 53.66 208.169 54.399 209.22 55.2042C209.625 55.5135 210.027 55.8427 210.426 56.192C210.863 56.5526 211.311 56.918 211.723 57.3138L212.73 58.3033L213.908 59.436C214.114 59.6339 214.305 59.8568 214.502 60.0697L215.358 61.0106C215.733 61.6013 216.087 62.1972 216.437 62.808C217.256 64.2588 217.999 65.7517 218.661 67.2806C219.971 70.4424 220.88 73.756 221.366 77.1439C221.543 78.4167 221.665 79.6932 221.733 80.9736C221.768 81.6221 221.799 82.2756 221.799 82.9244C221.796 83.5452 221.758 84.1653 221.686 84.7819C221.583 85.488 221.432 86.1863 221.234 86.8718C221.041 87.5361 220.811 88.1894 220.547 88.8291C219.694 90.825 218.606 92.7124 217.307 94.4514C216.354 95.6745 215.32 96.8322 214.212 97.9165C213.002 99.0743 211.732 100.168 210.408 101.193C209.763 101.698 209.108 102.172 208.424 102.627C208.061 102.87 207.694 103.103 207.327 103.335C206.959 103.568 206.582 103.801 206.195 104.004L204.262 105.019C203.119 105.627 201.946 106.166 200.783 106.725C199.62 107.284 198.591 107.742 197.493 108.281C196.946 108.54 196.404 108.829 195.863 109.103L194.779 109.646C194.65 109.712 194.521 109.773 194.392 109.849L192.405 110.994C191.963 111.253 191.506 111.501 191.08 111.769L189.094 113.069L188.325 113.574C187.749 113.949 187.209 114.378 186.664 114.796C185.198 115.934 183.81 117.168 182.508 118.49C181.205 119.829 180.011 121.269 178.937 122.798C177.854 124.27 176.902 125.835 176.092 127.474C175.685 128.32 175.339 129.192 175.017 130.073C174.703 130.935 174.464 131.822 174.301 132.724C174.126 133.713 174.051 134.717 174.077 135.72C174.081 136.219 174.166 136.768 174.235 137.281C174.32 137.879 174.405 138.472 174.525 139.06C174.645 139.648 174.758 140.126 174.898 140.659C174.991 141.003 175.073 141.356 175.171 141.7C175.377 142.387 175.587 143.069 175.803 143.746C176.028 144.442 176.313 145.124 176.589 145.795C176.645 145.934 176.706 146.068 176.767 146.208C176.92 146.463 177.134 146.676 177.391 146.826C177.5 146.884 177.614 146.933 177.732 146.973L177.961 147.51C178.195 148.062 178.439 148.609 178.684 149.161C178.806 149.366 178.979 149.537 179.187 149.655C179.432 149.794 179.712 149.857 179.992 149.836C180.272 149.815 180.54 149.711 180.761 149.537C180.982 149.363 181.147 149.128 181.234 148.861C181.32 148.593 181.326 148.306 181.249 148.036C181.019 147.339 180.808 146.632 180.587 145.93C180.464 145.532 180.341 145.134 180.223 144.741C180.001 144.009 179.828 143.264 179.705 142.509C179.651 142.041 179.597 141.577 179.538 141.113C179.409 139.9 179.421 138.676 179.572 137.465C179.829 135.627 180.306 133.827 180.993 132.103C181.279 131.423 181.606 130.762 181.974 130.123C182.391 129.418 182.847 128.736 183.339 128.08C184.642 126.386 186.155 124.863 187.842 123.55C188.407 123.116 188.987 122.707 189.558 122.293C190.009 121.959 190.481 121.656 190.952 121.347C191.423 121.039 191.86 120.741 192.322 120.457L194.144 119.344C194.749 118.969 195.38 118.629 195.996 118.27C196.418 118.027 196.84 117.764 197.268 117.555L200.904 115.593C201.376 115.339 201.858 115.085 202.325 114.822L204.405 113.611L205.185 113.155C205.766 112.816 206.327 112.422 206.882 112.043C207.647 111.537 208.37 110.972 209.104 110.402C209.714 109.923 210.333 109.438 210.908 108.914L212.572 107.403C212.923 107.09 213.27 106.773 213.607 106.441L215.433 104.623C215.779 104.281 216.1 103.914 216.422 103.552C216.916 103.004 217.41 102.461 217.905 101.897C219.134 100.452 220.287 98.9424 221.359 97.3761C223.432 94.3209 225.139 91.0334 226.446 87.5808C227.111 85.8212 227.477 83.9624 227.526 82.0818C227.518 80.2203 227.347 78.3631 227.015 76.5315C226.728 74.7718 226.282 73.0417 225.683 71.3626C225.376 70.4969 225.019 69.6565 224.663 68.8211C224.295 67.9896 223.88 67.18 223.419 66.3964C222.999 65.6763 222.534 64.9816 222.049 64.302C221.807 63.9548 221.544 63.6127 221.287 63.2755C221.029 62.9383 220.701 62.492 220.383 62.1204C219.925 61.5754 219.466 61.0253 219.002 60.4803C218.694 60.1137 218.392 59.737 218.059 59.3905L216.775 58.029C215.035 55.6892 212.951 53.6257 210.594 51.9086C209.093 50.8581 207.475 49.9875 205.771 49.3148C204.064 48.6354 202.309 48.0816 200.521 47.658C198.691 47.2141 196.832 46.8966 194.959 46.7075C193.597 46.5653 192.229 46.5004 190.86 46.5131C190.387 46.5171 189.913 46.5312 189.438 46.5552C187.579 46.6578 185.73 46.9039 183.909 47.2913C182.136 47.6477 180.393 48.1415 178.697 48.7683C176.997 49.4228 175.346 50.1974 173.756 51.0864C170.593 52.8625 167.611 54.9422 164.851 57.2962C162.088 59.5905 159.693 62.2937 157.748 65.3122C155.894 68.3702 154.544 71.7064 153.75 75.1931C153.295 76.9732 153.019 78.7947 152.928 80.63C152.812 84.3311 153.368 88.0227 154.569 91.5255L154.554 91.5256ZM210.382 105.246L208.922 106.576C208.327 107.12 207.703 107.629 207.078 108.129C206.454 108.628 205.799 109.088 205.144 109.538C204.648 109.891 204.127 110.245 203.591 110.549L201.515 111.78C200.393 112.443 199.24 113.052 198.098 113.67C195.972 114.826 193.851 115.988 191.79 117.253C191.294 117.567 190.767 117.865 190.276 118.194L188.375 119.448L187.944 119.761L186.798 120.604C185.73 121.38 184.713 122.222 183.751 123.126C182.463 124.376 181.305 125.752 180.292 127.233C179.813 127.918 179.375 128.632 178.983 129.37C178.556 130.22 178.18 131.095 177.858 131.99L177.755 132.275C177.972 131.451 178.238 130.64 178.553 129.848C179.036 128.717 179.6 127.623 180.242 126.575C180.901 125.501 181.616 124.462 182.366 123.452C184.148 121.163 186.202 119.1 188.482 117.306C188.948 116.943 189.414 116.579 189.905 116.256L190.699 115.75L192.684 114.44C193.111 114.162 193.568 113.934 194.01 113.67L195.997 112.526C196.101 112.465 196.215 112.409 196.325 112.358L197.468 111.779C198.014 111.51 198.551 111.221 199.103 110.962C200.201 110.453 201.3 109.945 202.393 109.411C203.561 108.852 204.734 108.313 205.872 107.71L207.81 106.695C208.133 106.528 208.44 106.33 208.753 106.138C209.066 105.946 209.493 105.677 209.86 105.44C210.356 105.111 210.852 104.763 211.348 104.404L211.215 104.535C210.937 104.767 210.645 105.004 210.382 105.246ZM155.648 74.7726C156.033 73.3506 156.499 71.9519 157.045 70.5834C157.488 69.5219 157.99 68.4862 158.55 67.4813C159.133 66.4587 159.782 65.4747 160.491 64.5351C161.408 63.3402 162.399 62.2033 163.456 61.131C164.599 59.9953 165.808 58.9284 167.077 57.9359C168.927 56.4845 170.866 55.1495 172.882 53.9385L172.733 54.0346C171.179 55.077 169.689 56.2113 168.271 57.4316C166.903 58.6156 165.639 59.9137 164.491 61.3118C162.533 63.7331 160.84 66.3577 159.443 69.1405L158.25 71.4714C158.058 71.8423 157.877 72.2082 157.705 72.584C157.346 73.3689 156.99 74.1522 156.638 74.9338C156.141 76.0373 155.701 77.1654 155.319 78.3138C155.052 79.1245 154.834 79.9499 154.612 80.7752C154.641 80.1811 154.691 79.5868 154.756 78.9973C154.958 77.5707 155.256 76.1592 155.648 74.7726Z" fill="#1CBBDA"/>
<path d="M195.668 166.731C195.631 166.577 195.59 166.418 195.549 166.263C195.313 165.436 195.011 164.629 194.645 163.851C194.239 163.012 193.681 162.257 192.999 161.624C192.671 161.323 192.32 161.049 191.949 160.804C191.618 160.581 191.275 160.377 190.92 160.194C190.574 160.013 190.209 159.861 189.848 159.704C189.347 159.504 188.882 159.323 188.386 159.168C186.884 158.704 185.31 158.512 183.74 158.599C183.615 158.505 183.494 158.411 183.363 158.323C183.099 158.107 182.777 157.973 182.437 157.936L182.342 157.937C181.547 157.994 180.783 158.268 180.133 158.73C179.486 159.17 178.895 159.688 178.374 160.272C178.069 160.592 177.78 160.927 177.51 161.277C176.93 161.763 176.4 162.304 175.927 162.893C175.324 163.648 174.791 164.456 174.335 165.307C173.93 166.102 173.572 166.92 173.263 167.757C172.927 168.656 172.66 169.579 172.464 170.519C172.069 172.306 171.977 174.147 172.191 175.966C172.282 176.841 172.457 177.705 172.712 178.546C172.995 179.429 173.404 180.266 173.926 181.031C174.426 181.761 175.028 182.415 175.714 182.972C176.443 183.523 177.222 184.003 178.042 184.405C178.852 184.815 179.688 185.168 180.547 185.461C180.947 185.602 181.352 185.724 181.763 185.83C182.308 185.953 182.86 186.042 183.417 186.095C184.342 186.183 185.275 186.148 186.191 185.992C187.071 185.864 187.934 185.632 188.76 185.301C190.466 184.557 191.989 183.451 193.224 182.059C193.832 181.39 194.387 180.674 194.882 179.918C195.407 179.101 195.844 178.231 196.188 177.322C196.746 175.836 197.037 174.262 197.046 172.673C197.05 171.803 196.98 170.934 196.839 170.075C196.721 169.307 196.504 168.558 196.196 167.845C196.033 167.467 195.86 167.094 195.668 166.731ZM175.924 169.611C175.924 169.611 175.924 169.635 175.925 169.65C175.973 169.826 176.057 169.991 176.17 170.134C176.283 170.278 176.423 170.397 176.583 170.486C176.742 170.575 176.918 170.631 177.099 170.651C177.281 170.671 177.464 170.655 177.64 170.604C177.813 170.558 177.975 170.478 178.117 170.368C178.258 170.258 178.376 170.12 178.463 169.963C178.772 169.277 179.162 168.63 179.624 168.037C179.853 168.036 180.077 167.972 180.271 167.851C180.627 167.642 180.993 167.45 181.369 167.278L181.911 167.059C182.13 166.967 182.354 166.885 182.578 166.804C182.86 166.707 183.15 166.634 183.444 166.587C183.839 166.548 184.237 166.545 184.632 166.576C184.912 166.621 185.188 166.687 185.457 166.774C185.542 166.817 185.624 166.864 185.703 166.917C186.588 167.665 187.402 168.493 188.135 169.391L189.098 170.63C189.436 171.062 189.745 171.523 190.048 171.98C190.256 172.297 190.443 172.625 190.631 172.973C190.818 173.321 190.985 173.614 191.138 173.967C191.249 174.25 191.333 174.544 191.39 174.843C191.405 175.056 191.406 175.269 191.396 175.482C191.372 175.582 191.348 175.677 191.318 175.772C191.197 176.029 191.059 176.279 190.906 176.519C190.351 177.131 189.754 177.703 189.119 178.231C188.654 178.585 188.155 178.892 187.629 179.147C187.065 179.38 186.478 179.553 185.877 179.661C185.103 179.753 184.322 179.759 183.546 179.681C182.795 179.573 182.057 179.384 181.346 179.116C180.818 178.891 180.314 178.615 179.841 178.291C179.219 177.78 178.654 177.205 178.155 176.573C177.54 175.762 177.015 174.887 176.59 173.962C176.287 173.213 176.07 172.434 175.942 171.637C175.868 170.989 175.849 170.336 175.885 169.686L175.924 169.611ZM176.057 178.727C175.971 178.573 175.89 178.419 175.814 178.26C175.518 177.505 175.306 176.721 175.18 175.92C175.178 175.725 175.137 175.536 175.12 175.347C175.771 176.746 176.648 178.029 177.718 179.142C178.347 179.807 179.082 180.362 179.893 180.786C179.283 180.613 178.683 180.409 178.096 180.172C177.646 179.98 177.217 179.741 176.817 179.459C176.544 179.237 176.29 178.992 176.057 178.727ZM189.454 164.943C190.134 165.247 190.781 165.622 191.385 166.059C192.345 166.743 193.083 167.692 193.509 168.791C193.586 168.975 193.652 169.159 193.714 169.343C193.765 169.976 193.759 170.613 193.695 171.245C193.62 171.7 193.509 172.148 193.362 172.585C193.083 171.979 192.758 171.383 192.419 170.807C192.079 170.231 191.801 169.814 191.453 169.318L190.387 167.86C189.697 166.9 188.917 166.007 188.059 165.195C187.796 164.945 187.519 164.711 187.229 164.493C187.093 164.395 186.949 164.31 186.798 164.237L186.863 164.237C187.749 164.382 188.617 164.619 189.454 164.943ZM183.236 161.503C183.568 161.46 183.901 161.432 184.233 161.419L184.149 161.42C183.807 161.496 183.473 161.606 183.153 161.748C182.7 161.936 182.257 162.148 181.826 162.383C181.692 162.454 181.563 162.53 181.434 162.611C181.323 162.548 181.197 162.514 181.069 162.515C181.012 162.515 180.957 162.526 180.904 162.546L180.407 162.77C180.869 162.446 181.355 162.16 181.862 161.914C182.306 161.729 182.766 161.585 183.236 161.483L183.236 161.503Z" fill="#1CBBDA"/>
<path d="M294.825 44.1375C288.741 29.306 277.351 17.2719 262.877 10.381C247.772 2.66827 230.254 1.15436 214.051 6.16143C204.888 9.19465 196.467 14.124 189.336 20.6285C177.952 14.1443 164.915 11.1448 151.842 12.002C138.769 12.8593 126.235 17.5356 115.795 25.4508C113.437 27.5075 111.221 29.7229 109.164 32.0816C106.15 35.0956 104.342 38.7123 101.328 41.1235C97.5297 41.6676 93.6733 41.6676 89.875 41.1235L80.8331 44.1375C68.907 49.3018 58.9694 58.1823 52.5017 69.4548C45.1557 81.9939 42.5869 96.7647 45.2682 111.048C37.7634 112.602 30.6676 115.711 24.4381 120.176C18.2087 124.64 12.9839 130.36 9.10054 136.968C4.66763 143.673 2.3042 151.534 2.3042 159.573C2.3042 167.611 4.66763 175.472 9.10054 182.177C14.011 187.943 20.51 192.136 27.7872 194.233H39.2403C43.3313 192.761 47.8079 192.761 51.8989 194.233C51.8989 197.247 56.7213 200.864 59.1325 203.275C61.6373 206.024 64.4717 208.454 67.5716 210.509C73.6736 214.866 80.3737 218.317 87.4638 220.756C101.529 225.579 116.8 225.579 130.865 220.756H136.29C154.554 231.243 176.231 234.061 196.57 228.592C201.717 227.15 206.753 225.337 211.639 223.167L218.27 218.948C220.53 216.967 223.209 215.525 226.107 214.728C229.092 214.143 232.163 214.143 235.148 214.728H243.588H259.863C271.806 211.036 282.738 204.642 291.811 196.042C281.993 205.67 269.672 212.353 256.246 215.331H245.999H235.148C231.791 214.436 228.258 214.436 224.901 215.331L215.859 220.756C204.255 227.25 191.18 230.66 177.883 230.66C164.586 230.66 151.511 227.25 139.907 220.756H136.29H132.071H123.631C117.638 221.666 111.541 221.666 105.548 220.756C93.682 219.487 82.3034 215.349 72.394 208.7C67.8882 204.993 63.6575 200.964 59.7353 196.644C58.1702 193.872 55.8774 191.579 53.1046 190.014C49.7512 189.09 46.2104 189.09 42.857 190.014C36.8327 190.169 30.865 188.817 25.4962 186.08C20.1273 183.343 15.5274 179.308 12.1145 174.341C8.83935 168.549 7.11816 162.007 7.11816 155.353C7.11816 148.699 8.83935 142.158 12.1145 136.365C18.1961 125.513 27.7499 117.021 39.2403 112.253H47.6794C46.2384 100.219 48.4587 88.0299 54.0504 77.2766C59.6421 66.5234 68.3454 57.7055 79.0247 51.9738L87.4638 48.357H98.3141C101.69 47.2832 104.642 45.1743 106.753 42.3291L113.384 34.4928C122.701 25.8387 134.517 20.353 147.14 18.8201C161.301 16.4684 175.836 19.2471 188.13 26.6564C194.112 19.6227 201.484 13.903 209.783 9.85716C218.082 5.81128 227.129 3.5268 236.354 3.14746C252.058 3.99253 266.886 10.6541 277.947 21.8341C284.346 27.7742 289.473 34.9517 293.017 42.9319L294.825 44.1375Z" fill="#1CBBDA"/>
<path d="M290.617 55.5785C295.902 50.921 302.47 47.9686 309.462 47.1081C316.453 46.2475 323.542 47.5191 329.798 50.7561C336.177 54.1135 341.108 59.6878 343.663 66.4288C346.239 73.4155 346.518 81.0424 344.458 88.1985C342.398 95.3546 338.107 101.666 332.209 106.213C336.432 106.396 340.55 107.586 344.22 109.683C347.89 111.78 351.006 114.724 353.307 118.269C357.776 126.786 359.059 136.619 356.924 145.998C356.801 148.313 356.203 150.579 355.166 152.653C354.129 154.728 352.675 156.566 350.896 158.054C347.636 160.663 343.617 162.143 339.443 162.273H326.784C322.401 163.128 318.146 164.547 314.126 166.493C305.676 170.152 298.68 176.513 294.233 184.576C293.011 188.707 293.011 193.104 294.233 197.235C295.307 200.611 297.416 203.564 300.261 205.674C315.331 217.73 334.621 205.674 347.279 196.03C350.812 193.951 353.801 191.064 356.001 187.606C358.202 184.148 359.551 180.218 359.938 176.137C360.155 172.51 359.055 168.927 356.84 166.047C354.624 163.167 351.443 161.185 347.882 160.465C346.332 159.859 344.61 159.859 343.06 160.465C343.06 160.465 355.718 166.493 356.321 173.123C356.924 179.754 349.69 187.59 343.663 192.413C336.974 198.484 328.904 202.829 320.154 205.071C316.418 206.032 312.495 205.98 308.787 204.92C305.078 203.861 301.72 201.832 299.056 199.044C298.246 196.519 298.042 193.839 298.461 191.221C298.88 188.602 299.91 186.12 301.467 183.974C307.476 177.378 315.196 172.579 323.77 170.109C331.607 170.109 340.046 170.109 347.882 166.493C351.431 165.103 354.405 162.554 356.321 159.259C358.608 155.605 360.05 151.486 360.541 147.203C362.158 138.335 360.667 129.18 356.321 121.283C354.47 117.93 351.972 114.978 348.971 112.598C345.97 110.218 342.527 108.458 338.84 107.419H332.812C338.882 102.987 343.421 96.7748 345.798 89.6448C348.174 82.5149 348.271 74.8216 346.074 67.6344C344.007 60.3481 339.272 54.1071 332.812 50.1533C326.541 46.0783 319.192 43.9785 311.714 44.1254C303.168 44.4809 295.035 47.9051 288.808 53.7701L290.617 55.5785Z" fill="#1CBBDA"/>
<path d="M324.978 210.52C321.978 213.173 319.77 216.604 318.6 220.434C317.43 224.264 317.342 228.343 318.347 232.22C321.964 241.262 332.814 241.865 340.65 242.468C345.33 242.947 350.058 242.325 354.454 240.65C358.85 238.976 362.793 236.295 365.968 232.823C367.294 231.246 368.296 229.422 368.917 227.457C369.537 225.491 369.764 223.423 369.585 221.37C369.244 217.313 367.545 213.491 364.762 210.52C361.035 206.744 356.112 204.38 350.835 203.83C345.558 203.28 340.254 204.579 335.828 207.506H341.856H348.487C352.586 207.502 356.586 208.766 359.94 211.122C362.956 213.205 365.069 216.355 365.852 219.935C366.635 223.516 366.03 227.26 364.159 230.412C361.824 233.648 358.74 236.27 355.171 238.054C351.602 239.839 347.654 240.733 343.664 240.659C339.466 241.253 335.204 241.253 331.006 240.659C329.016 240.511 327.078 239.952 325.315 239.018C323.551 238.085 322 236.796 320.758 235.234C315.936 228.603 320.758 218.959 325.58 213.534L324.978 210.52Z" fill="#1CBBDA"/>
<path d="M356.311 249.681C353.833 250.164 351.569 251.413 349.838 253.252C348.108 255.09 346.998 257.426 346.666 259.929C346.586 262.343 347.232 264.725 348.522 266.767C349.812 268.809 351.685 270.417 353.9 271.382C356.244 272.133 358.774 272.065 361.074 271.189C363.374 270.312 365.308 268.68 366.558 266.559C367.928 264.849 368.674 262.723 368.674 260.531C368.674 258.34 367.928 256.214 366.558 254.504C364.227 253.624 361.656 253.624 359.325 254.504C357.13 254.992 355.195 256.282 353.9 258.12C355.292 257.381 356.844 256.995 358.421 256.995C359.997 256.995 361.549 257.381 362.942 258.12C364.409 258.895 365.532 260.191 366.09 261.754C366.648 263.316 366.6 265.031 365.956 266.559C365.406 268.308 364.26 269.808 362.718 270.799C361.176 271.791 359.335 272.21 357.516 271.985C355.627 271.423 353.939 270.328 352.656 268.831C351.373 267.334 350.549 265.499 350.283 263.545C350.444 261.329 351.282 259.215 352.684 257.49C354.085 255.765 355.982 254.512 358.119 253.901L356.311 249.681Z" fill="#1CBBDA"/>
<path d="M290.618 45.9419V49.5587C290.618 49.5587 290.618 52.5727 290.618 53.7782C291.412 52.4037 291.83 50.8445 291.83 49.2573C291.83 47.6701 291.412 46.1109 290.618 44.7363V45.9419Z" fill="#1CBBDA"/>
<path d="M307.495 179.159C304.189 180.82 301.45 183.425 299.625 186.645C297.801 189.864 296.974 193.553 297.248 197.243C297.563 200.96 298.917 204.514 301.155 207.499C303.394 210.483 306.426 212.778 309.907 214.121C306.688 213.04 303.788 211.176 301.468 208.696C299.388 205.655 298.141 202.122 297.851 198.449C297.597 194.833 298.367 191.218 300.073 188.02C301.779 184.821 304.351 182.168 307.495 180.365V179.159Z" fill="#1CBBDA"/>
<path d="M306.89 183.985C303.774 188.799 302.691 194.651 303.876 200.261C304.574 203.078 305.801 205.738 307.493 208.097C309.205 210.211 311.239 212.041 313.521 213.522H310.507C309.141 211.064 308.127 208.426 307.493 205.686C305.416 200.668 305.416 195.031 307.493 190.013L306.89 183.985Z" fill="#1CBBDA"/>
<path d="M310.503 186.988C308.387 191.232 308.022 196.137 309.488 200.647C310.954 205.157 314.133 208.911 318.339 211.1C314.288 208.927 311.256 205.245 309.9 200.853C309.005 198.757 308.543 196.501 308.543 194.222C308.543 191.943 309.005 189.687 309.9 187.591L310.503 186.988Z" fill="#1CBBDA"/>
<path d="M314.722 194.229C313.826 196.78 313.633 199.526 314.163 202.177C314.694 204.828 315.928 207.288 317.736 209.299C316.085 207.441 314.94 205.19 314.412 202.762C313.885 200.333 313.991 197.81 314.722 195.435V194.229Z" fill="#1CBBDA"/>
<path d="M329.188 209.917C329.188 209.917 329.188 209.917 325.572 209.917C324.648 213.27 324.648 216.811 325.572 220.164C325.566 223.613 326.319 227.021 327.777 230.146C329.236 233.271 331.364 236.037 334.011 238.248C329.94 234.618 327.185 229.743 326.174 224.384C325.581 221.805 325.581 219.126 326.174 216.547C326.174 216.547 326.174 216.547 326.174 212.328L329.188 209.917Z" fill="#1CBBDA"/>
<path d="M332.198 214.126C331.264 215.218 330.75 216.608 330.75 218.045C330.75 219.481 331.264 220.871 332.198 221.963C331.35 221.067 330.877 219.881 330.877 218.647C330.877 217.414 331.35 216.228 332.198 215.332V214.126Z" fill="#1CBBDA"/>
<path d="M337.033 221.365C336.191 224.729 336.191 228.249 337.033 231.613C337.385 233.365 338.105 235.023 339.144 236.478C340.183 237.933 341.518 239.151 343.061 240.052C343.061 240.052 343.061 240.052 340.047 236.435C339.766 235.767 339.62 235.05 339.62 234.325C339.62 233.601 339.766 232.883 340.047 232.216C338.837 229.115 338.837 225.672 340.047 222.571L337.033 221.365Z" fill="#1CBBDA"/>
<path d="M331.604 217.126C330.636 221.102 330.623 225.25 331.566 229.231C332.509 233.212 334.381 236.914 337.029 240.033C334.549 236.938 332.778 233.337 331.841 229.483C330.904 225.63 330.823 221.617 331.604 217.729V217.126Z" fill="#1CBBDA"/>
<path d="M343.663 228.607C343.325 230.519 343.611 232.49 344.479 234.227C345.348 235.964 346.752 237.375 348.485 238.252C347.021 237.098 345.83 235.636 344.996 233.968C344.162 232.301 343.707 230.47 343.663 228.607Z" fill="#1CBBDA"/>
<path d="M87.4677 53.1658C83.851 48.9462 77.2202 53.1658 74.2062 57.3853C69.5939 60.9967 65.5326 65.2611 62.1504 70.044C55.6007 79.5066 51.6512 90.5235 50.6973 101.992C49.4761 108.364 49.4761 114.91 50.6973 121.282C47.8664 110.543 48.0571 99.2314 51.2481 88.5945C54.4392 77.9576 60.5067 68.4089 68.7811 61.0021C70.6912 58.6856 72.9243 56.6555 75.4119 54.9741C75.4119 54.9741 82.0426 50.7546 85.0566 54.9741L87.4677 53.1658Z" fill="#1CBBDA"/>
<path d="M42.2547 123.706C42.2547 123.706 42.2546 123.706 38.6379 123.706C35.353 125.988 32.3218 128.615 29.596 131.542C24.0196 136.856 19.8732 143.491 17.5401 150.832C14.7361 157.601 14.3438 165.128 16.4289 172.151C18.5141 179.175 22.9499 185.268 28.9932 189.411C32.2799 191.01 35.8871 191.841 39.5421 191.841C43.1971 191.841 46.8043 191.01 50.091 189.411C47.226 190.604 44.1529 191.219 41.0491 191.219C37.9453 191.219 34.8722 190.604 32.0072 189.411C26.0863 186.8 21.3559 182.07 18.7457 176.149C16.4627 169.725 15.8183 162.832 16.8708 156.096C17.9234 149.36 20.6396 142.992 24.7736 137.57C27.0759 134.666 29.7054 132.036 32.61 129.734C32.9253 127.562 33.7517 125.496 35.0211 123.706H42.2547Z" fill="#1CBBDA"/>
<path d="M59.14 183.985C59.902 189.894 62.187 195.502 65.7708 200.261C69.3358 205.354 74.0965 209.493 79.635 212.317C85.7482 215.226 92.2424 217.256 98.9244 218.345C105.232 220.13 111.688 221.341 118.214 221.961C125 222.535 131.785 220.839 137.503 217.139C134.858 218.704 132.022 219.92 129.064 220.756H120.022C114.009 221.344 107.952 221.344 101.938 220.756C89.4565 218.933 77.8608 213.241 68.7847 204.48C66.4315 202.057 64.587 199.188 63.3596 196.041C61.3018 192.329 60.0682 188.217 59.7428 183.985H59.14Z" fill="#1CBBDA"/>
<path d="M147.145 214.126C147.145 214.126 150.762 217.743 153.173 219.552C155.278 221.427 157.738 222.862 160.407 223.771C164.943 226.721 170.101 228.578 175.477 229.196C186.226 231.681 197.503 230.404 207.425 225.58C213.283 223.249 218.613 219.764 223.097 215.332C214.99 222.645 204.942 227.459 194.163 229.196C183.407 230.598 172.478 228.707 162.818 223.771L155.585 219.552L148.351 214.126H147.145Z" fill="#1CBBDA"/>
<path d="M227.322 209.293C236.129 211.718 245.372 212.11 254.353 210.439C263.333 208.768 271.817 205.078 279.162 199.648C283.705 196.902 287.776 193.441 291.218 189.4C278.444 202.278 261.131 209.636 242.995 209.895C238.011 210.787 232.908 210.787 227.925 209.895L227.322 209.293Z" fill="#1CBBDA"/>
<path d="M323.157 110.451C326.171 106.834 331.596 110.451 333.405 114.67C337.355 117.017 340.831 120.084 343.652 123.712C348.312 131.069 350.43 139.751 349.68 148.427C350.026 150.825 350.026 153.261 349.68 155.66C348.955 158.1 347.722 160.36 346.063 162.291C349.082 158.468 350.962 153.872 351.488 149.029C352.382 144.451 352.382 139.743 351.488 135.165C348.911 125.688 343.43 117.257 335.816 111.053C335.816 111.053 328.582 104.423 325.568 111.053L323.157 110.451Z" fill="#1CBBDA"/>
<path d="M286.995 63.4238C291.055 59.2411 296.146 56.2028 301.755 54.6153C307.364 53.0278 313.293 52.9474 318.943 54.3819C324.255 56.0231 328.917 59.292 332.27 63.7269C335.623 68.1617 337.498 73.5382 337.629 79.0965C337.769 85.0919 335.613 90.9142 331.601 95.3719C334.974 90.9576 336.802 85.5562 336.802 80.0007C336.802 74.4452 334.974 69.0438 331.601 64.6294C328.418 59.7737 323.82 56.0132 318.429 53.8569C313.039 51.7006 307.115 51.2526 301.462 52.5736C294.476 53.9213 288.124 57.5207 283.378 62.8211L286.995 63.4238Z" fill="#1CBBDA"/>
<path d="M191.148 29.6629C202.517 20.8498 216.549 16.1724 230.932 16.4014C245.089 17.0457 258.462 23.0851 268.306 33.2796C273.871 39.2215 277.269 46.8673 277.95 54.9802C277.252 47.8871 274.717 41.0985 270.594 35.2845C266.471 29.4705 260.904 24.8319 254.441 21.8265C241.103 15.4069 225.869 14.1195 211.643 18.2098C203.798 19.9636 196.535 23.6993 190.545 29.0601L191.148 29.6629Z" fill="#1CBBDA"/>
<path d="M102.539 50.1661C105.139 45.6899 108.626 41.7924 112.787 38.713C116.882 35.4187 121.329 32.5884 126.048 30.2739C137.225 24.0172 150.105 21.4836 162.819 23.0404C168.636 23.7664 174.207 25.8296 179.094 29.0683C174.768 26.0186 169.852 23.9069 164.661 22.8688C159.471 21.8307 154.121 21.8892 148.954 23.0404C137.708 25.698 127.201 30.8481 118.212 38.1102C113.238 40.9457 109.403 45.42 107.362 50.7689L102.539 50.1661Z" fill="#1CBBDA"/>
<path d="M343.65 169.53C345.929 171.75 347.535 174.569 348.282 177.662C349.028 180.755 348.885 183.996 347.869 187.011C345.367 193.778 341.465 199.94 336.416 205.095C339.307 201.602 341.738 197.753 343.65 193.642C346.002 190.856 347.655 187.55 348.472 183.997C349.329 180.825 349.335 177.483 348.488 174.308C347.641 171.133 345.973 168.237 343.65 165.913V169.53Z" fill="#1CBBDA"/>
<path d="M353.911 211.122C355.034 211.964 355.945 213.056 356.573 214.312C357.201 215.567 357.528 216.952 357.528 218.356C357.528 219.759 357.201 221.144 356.573 222.399C355.945 223.655 355.034 224.747 353.911 225.589C355.008 224.434 355.801 223.024 356.22 221.487C356.639 219.95 356.671 218.334 356.313 216.781C355.955 215.229 355.217 213.79 354.167 212.592C353.117 211.394 351.786 210.475 350.294 209.917L353.911 211.122Z" fill="#1CBBDA"/>
</g>
</svg>
