<svg id="hutch" xmlns="http://www.w3.org/2000/svg" width="109.553" height="36" viewBox="0 0 109.553 36">
  <path id="Path_16896" data-name="Path 16896" d="M58.2,19.516V37.722H53.179v-2.16a6.984,6.984,0,0,1-2.51,1.81A7.89,7.89,0,0,1,47.522,38a7.762,7.762,0,0,1-5.688-2.067c-1.4-1.378-2.1-3.415-2.1-6.13V19.516h5.277v9.5q0,4.4,3.693,4.4a3.968,3.968,0,0,0,3.045-1.234A5.189,5.189,0,0,0,52.9,28.516v-9ZM80.045,36.8a8.937,8.937,0,0,1-4.927-8.177,9.07,9.07,0,0,1,1.306-4.845,8.97,8.97,0,0,1,3.621-3.333,11.176,11.176,0,0,1,5.225-1.2,10.11,10.11,0,0,1,5.03,1.2,7.1,7.1,0,0,1,3.127,3.435l-4.094,2.2a4.487,4.487,0,0,0-4.094-2.51,4.6,4.6,0,0,0-3.415,1.358,4.979,4.979,0,0,0-1.358,3.693,5,5,0,0,0,1.358,3.693,4.636,4.636,0,0,0,3.415,1.358,4.427,4.427,0,0,0,4.094-2.51l4.094,2.232A7.284,7.284,0,0,1,90.3,36.776,9.9,9.9,0,0,1,85.27,38a11.146,11.146,0,0,1-5.225-1.2Zm32.821-15.521q2.083,2.037,2.078,6.027v10.43h-5.277V28.126a4.767,4.767,0,0,0-.946-3.23,3.475,3.475,0,0,0-2.746-1.07A4.191,4.191,0,0,0,102.8,25.06a5.1,5.1,0,0,0-1.183,3.672v9H96.338V13.695h5.277v7.725a6.932,6.932,0,0,1,2.541-1.6,9.194,9.194,0,0,1,3.25-.555,7.465,7.465,0,0,1,5.462,2.016ZM39.8,16.194,23.742,7.421,7.675,16.194,5.392,12.018,23.742,2,42.081,12.018ZM70.51,33.8a2.118,2.118,0,0,1-1.656-.627,2.553,2.553,0,0,1-.576-1.779V23.98l4.505-2.458v-1.6H68.278V13.684H63V31.458a6.4,6.4,0,0,0,1.759,4.875,7.04,7.04,0,0,0,5.04,1.656,9.59,9.59,0,0,0,2.355-.288,5.46,5.46,0,0,0,1.913-.864l-1.389-3.723a3.587,3.587,0,0,1-2.17.689Z" transform="translate(-5.392 -2)" fill="#008c95"/>
  <path id="Path_16897" data-name="Path 16897" d="M27.457,11.1v9.689H16.7V11.1l-5.482,2.993V35.134H16.7v-9.71H27.457v9.71h5.482V14.089Z" transform="translate(-3.728 0.599)" fill="#008c95"/>
</svg>
