<svg xmlns="http://www.w3.org/2000/svg" width="113.838" height="36" viewBox="0 0 113.838 36">
  <g id="learn_or_teach" data-name="learn or teach" transform="translate(-72.729 -111.873)">
    <g id="Group_47640" data-name="Group 47640" transform="translate(131.206 111.873)">
      <path id="Path_16880" data-name="Path 16880" d="M308.328,125.285v-1.612l1.427-.276v-9.624l-1.427-.276v-1.624h5.554V113.5l-1.437.276v9.449h3.793l.128-1.685h2.054v3.749Z" transform="translate(-308.042 -111.873)" fill="#fff"/>
      <path id="Path_16881" data-name="Path 16881" d="M362.171,135.29a4.487,4.487,0,0,1-3.445-1.382,4.939,4.939,0,0,1-1.289-3.508v-.369a5.452,5.452,0,0,1,1.219-3.656,4.546,4.546,0,0,1,6.406-.211,4.677,4.677,0,0,1,1.115,3.288v1.461h-5.95l-.018.055a2.6,2.6,0,0,0,.659,1.624,2.054,2.054,0,0,0,1.589.635,5.176,5.176,0,0,0,1.482-.18,6.819,6.819,0,0,0,1.289-.567l.727,1.658a5.291,5.291,0,0,1-1.6.812A6.8,6.8,0,0,1,362.171,135.29Zm-.239-8.27a1.4,1.4,0,0,0-1.179.571,2.971,2.971,0,0,0-.534,1.5l.028.045h3.3V128.9a2.156,2.156,0,0,0-.4-1.367,1.443,1.443,0,0,0-1.223-.515Z" transform="translate(-344.903 -121.685)" fill="#fff"/>
      <path id="Path_16882" data-name="Path 16882" d="M408.613,135.1a4.79,4.79,0,0,1-.193-.511,4.011,4.011,0,0,1-.128-.529,3.7,3.7,0,0,1-1.166.893,3.486,3.486,0,0,1-1.57.341,3.289,3.289,0,0,1-2.325-.8,2.809,2.809,0,0,1-.86-2.169,2.466,2.466,0,0,1,1.123-2.164,5.87,5.87,0,0,1,3.3-.765h1.372v-.974a1.461,1.461,0,0,0-.414-1.114,1.71,1.71,0,0,0-1.226-.4,2.9,2.9,0,0,0-.812.106,2.148,2.148,0,0,0-.58.253l-.175,1.068h-2.026l.01-2.211a7.551,7.551,0,0,1,1.69-.838,6.126,6.126,0,0,1,2.077-.341,4.727,4.727,0,0,1,3.007.908,3.085,3.085,0,0,1,1.156,2.583v4.551a3.163,3.163,0,0,0,.032.386l.812.11V135.1Zm-2.33-1.8a2.333,2.333,0,0,0,1.106-.263,2.138,2.138,0,0,0,.774-.659v-1.52h-1.372a1.873,1.873,0,0,0-1.3.4,1.253,1.253,0,0,0-.442.963,1,1,0,0,0,.325.792,1.333,1.333,0,0,0,.908.281Z" transform="translate(-378.628 -121.684)" fill="#fff"/>
      <path id="Path_16883" data-name="Path 16883" d="M448.289,133.478l1.289-.276v-6.181l-1.427-.276v-1.624h3.932l.12,1.461a3.142,3.142,0,0,1,.9-1.206,2.018,2.018,0,0,1,1.281-.433,3.3,3.3,0,0,1,.446.032,2.78,2.78,0,0,1,.391.078l-.286,2.45-1.106-.028a1.881,1.881,0,0,0-.974.231,1.489,1.489,0,0,0-.589.649V133.2l1.289.276v1.612h-5.268Z" transform="translate(-412.992 -121.686)" fill="#fff"/>
      <path id="Path_16884" data-name="Path 16884" d="M483.1,133.482l1.289-.276v-6.181l-1.427-.276v-1.624H486.9l.12,1.427a3.643,3.643,0,0,1,1.224-1.188,3.18,3.18,0,0,1,1.623-.424,3,3,0,0,1,2.357.948,4.383,4.383,0,0,1,.848,2.974V133.2l1.289.276v1.612h-5.139v-1.607l1.151-.276v-4.328a2.016,2.016,0,0,0-.4-1.424,1.624,1.624,0,0,0-1.226-.419,2.075,2.075,0,0,0-.958.216,1.968,1.968,0,0,0-.71.612V133.2l1.086.276v1.612H483.1Z" transform="translate(-439.124 -121.69)" fill="#fff"/>
      <path id="Path_16885" data-name="Path 16885" d="M389.341,182.559a3.475,3.475,0,0,1,.812-2.379,3.2,3.2,0,0,1,4.5,0,3.469,3.469,0,0,1,.812,2.38v.127a3.468,3.468,0,0,1-.812,2.383,3.208,3.208,0,0,1-4.5,0,3.471,3.471,0,0,1-.812-2.383Zm1.752.127a2.825,2.825,0,0,0,.312,1.424,1.076,1.076,0,0,0,1.008.536,1.065,1.065,0,0,0,.992-.539,2.8,2.8,0,0,0,.315-1.421v-.127a2.775,2.775,0,0,0-.325-1.409,1.076,1.076,0,0,0-1-.546,1.062,1.062,0,0,0-1,.546,2.819,2.819,0,0,0-.312,1.409Z" transform="translate(-368.85 -162.448)" fill="#fff"/>
      <path id="Path_16886" data-name="Path 16886" d="M417.2,184.814l.839-.18v-4.023l-.93-.18v-1.055h2.56l.078.948a2.04,2.04,0,0,1,.588-.786,1.313,1.313,0,0,1,.833-.283,2.154,2.154,0,0,1,.291.021,1.77,1.77,0,0,1,.255.05l-.185,1.6-.719-.018a1.227,1.227,0,0,0-.636.149.975.975,0,0,0-.383.425v3.155l.839.18v1.049H417.2Z" transform="translate(-389.694 -162.448)" fill="#fff"/>
      <path id="Path_16887" data-name="Path 16887" d="M319.169,201.647v3.572H317.1l-.11-1.5h-2.468v9.449l1.437.276v1.612h-5.564v-1.612l1.437-.276v-9.449h-2.46l-.11,1.5h-2.054v-3.572Z" transform="translate(-307.207 -179.255)" fill="#fff"/>
      <path id="Path_16888" data-name="Path 16888" d="M362.32,225.063a4.487,4.487,0,0,1-3.445-1.382,4.94,4.94,0,0,1-1.289-3.509V219.8a5.45,5.45,0,0,1,1.221-3.656,4.546,4.546,0,0,1,6.4-.213,4.679,4.679,0,0,1,1.115,3.288v1.461h-5.95l-.018.055a2.6,2.6,0,0,0,.659,1.624,2.053,2.053,0,0,0,1.589.635,5.179,5.179,0,0,0,1.482-.18,6.818,6.818,0,0,0,1.289-.567l.727,1.658a5.3,5.3,0,0,1-1.6.812A6.8,6.8,0,0,1,362.32,225.063Zm-.235-8.264a1.4,1.4,0,0,0-1.179.572,2.971,2.971,0,0,0-.534,1.5l.028.045h3.3v-.239a2.157,2.157,0,0,0-.4-1.367,1.445,1.445,0,0,0-1.211-.513Z" transform="translate(-345.018 -189.069)" fill="#fff"/>
      <path id="Path_16889" data-name="Path 16889" d="M406.2,224.872a4.849,4.849,0,0,1-.193-.511,4.05,4.05,0,0,1-.128-.529,3.7,3.7,0,0,1-1.166.893,3.484,3.484,0,0,1-1.57.341,3.291,3.291,0,0,1-2.325-.8,2.809,2.809,0,0,1-.86-2.169,2.466,2.466,0,0,1,1.123-2.164,5.868,5.868,0,0,1,3.3-.765h1.372V218.2a1.461,1.461,0,0,0-.414-1.115,1.71,1.71,0,0,0-1.224-.4,2.9,2.9,0,0,0-.812.106,2.147,2.147,0,0,0-.58.253l-.175,1.068h-2.026l.01-2.211a7.55,7.55,0,0,1,1.69-.838,6.137,6.137,0,0,1,2.077-.341,4.73,4.73,0,0,1,3.007.908,3.085,3.085,0,0,1,1.156,2.583v4.551a3.113,3.113,0,0,0,.032.386l.812.11v1.612Zm-2.33-1.8a2.33,2.33,0,0,0,1.106-.263,2.133,2.133,0,0,0,.775-.659v-1.52h-1.372a1.874,1.874,0,0,0-1.3.4,1.253,1.253,0,0,0-.442.963,1,1,0,0,0,.325.792,1.333,1.333,0,0,0,.9.284Z" transform="translate(-376.81 -189.07)" fill="#fff"/>
      <path id="Path_16890" data-name="Path 16890" d="M447.695,223a1.583,1.583,0,0,0,1.151-.419,1.484,1.484,0,0,0,.433-1.119h2.435l.028.055a3.11,3.11,0,0,1-1.136,2.528,4.791,4.791,0,0,1-6.346-.391,5.366,5.366,0,0,1-1.206-3.619v-.276a5.3,5.3,0,0,1,1.239-3.619,4.439,4.439,0,0,1,3.533-1.419,6.13,6.13,0,0,1,2.164.359,4.275,4.275,0,0,1,1.593,1.013l.037,2.661h-2.182l-.442-1.557a1.706,1.706,0,0,0-.5-.291,1.839,1.839,0,0,0-.672-.115,1.7,1.7,0,0,0-1.612.83,4.3,4.3,0,0,0-.469,2.137v.276a4.588,4.588,0,0,0,.434,2.15A1.572,1.572,0,0,0,447.695,223Z" transform="translate(-409.165 -189.071)" fill="#fff"/>
      <path id="Path_16891" data-name="Path 16891" d="M483.553,210.564l1.3-.276V199.706l-1.437-.276v-1.624h4.117v5.673a3.394,3.394,0,0,1,1.151-1.073,3.333,3.333,0,0,1,3.965.649,4.835,4.835,0,0,1,.888,3.2v4.025l1.289.276v1.612h-5.139v-1.612l1.161-.276v-4.041a2.561,2.561,0,0,0-.409-1.645,1.51,1.51,0,0,0-1.221-.487,2.227,2.227,0,0,0-.974.2,1.961,1.961,0,0,0-.7.571v5.4l1.161.276v1.612h-5.147Z" transform="translate(-439.464 -176.374)" fill="#fff"/>
    </g>
    <g id="Group_47642" data-name="Group 47642" transform="translate(72.729 112.563)" opacity="0.9">
      <path id="Path_16892" data-name="Path 16892" d="M87.932,136.342l4.306,2.025,15.079,7.092a30.479,30.479,0,0,0-5.937,2.737c-.729.435-1.453.908-2.158,1.411l-12.638-5.213-10.331-4.259a20.76,20.76,0,0,1,11.673-3.793m.284-1.948a22.243,22.243,0,0,0-13.787,4.84q-.9.731-1.695,1.5l26.676,11a30.957,30.957,0,0,1,2.676-1.8,28.758,28.758,0,0,1,11.011-3.851l-24.878-11.7Z" transform="translate(-72.729 -129.463)" fill="#006dff"/>
      <path id="Path_16893" data-name="Path 16893" d="M149.129,116.605l20.981,8.6-.674.27a33.28,33.28,0,0,0-4.689,2.325c-.369.221-.739.451-1.1.688L142.625,118.6a17.129,17.129,0,0,1,1.935-.912,16.073,16.073,0,0,1,4.567-1.081m.214-1.964a17.371,17.371,0,0,0-5.276,1.2,19.446,19.446,0,0,0-5.181,3.085l24.876,11.7q.812-.557,1.692-1.085a31.7,31.7,0,0,1,4.483-2.223V138.5a2.119,2.119,0,0,0-.055,2.768l-.487,3.543h3.038l-.487-3.543a2.12,2.12,0,0,0-.055-2.768v-11.9a31.471,31.471,0,0,1,4.127-1.041L149.34,114.639Z" transform="translate(-122.382 -114.639)" fill="#006dff"/>
      <g id="Group_47641" data-name="Group 47641" transform="translate(11.446 17.335)">
        <path id="Path_16894" data-name="Path 16894" d="M120.454,187.262l12.089,5.126.417.177.6.255.6-.255.417-.177,12.089-5.126v7.584c-.054.252-.784,1.348-3.478,2.377a30.847,30.847,0,0,1-19.26,0c-2.7-1.029-3.424-2.127-3.479-2.377v-7.584m-1.826-3.129v10.723c0,3.385,6.687,6.13,14.937,6.13s14.937-2.745,14.937-6.13V184.133l-.942.4-13.574,5.755-.417.177-.417-.177-13.576-5.755-.942-.4Z" transform="translate(-118.624 -184.133)" fill="#006dff"/>
      </g>
      <path id="Path_16895" data-name="Path 16895" d="M179.688,203.947" transform="translate(-153.008 -181.672)" fill="#006dff"/>
    </g>
  </g>
</svg>
